<svg width="129" height="93" viewBox="0 0 129 93" fill="none" xmlns="http://www.w3.org/2000/svg">
<path d="M41.2381 52.3314C42.076 53.3615 42.315 54.7076 41.826 55.79C41.2602 57.6196 39.1998 59.2954 36.656 60.1663C36.2631 60.3146 35.8703 60.463 35.4967 60.4245C35.4967 60.4245 35.4967 60.4246 35.3099 60.4053C33.1781 60.9411 31.0848 61.1031 28.8431 60.8724C26.2278 60.6033 23.6702 59.7737 21.3379 58.5897C18.8379 57.1997 17.3489 55.1586 17.1676 53.2521C17.1154 51.9253 17.6043 50.8429 18.6344 50.005C20.9393 47.788 23.7936 49.4032 25.7716 50.3619L25.9584 50.3812C28.4583 51.7712 31.2604 52.0596 33.9911 51.2079L34.1779 51.2271C36.3289 50.5046 39.2463 49.6722 41.2381 52.3314ZM34.2852 59.3559C33.9885 58.5703 33.3566 57.3725 31.8622 57.2187C29.8073 57.0072 28.681 58.7791 28.681 58.7791C28.4557 59.1335 28.0629 59.2819 27.7085 59.0566C27.3541 58.8314 27.2057 58.4385 27.431 58.0842C27.431 58.0842 27.8623 57.5621 28.4804 57.0594C27.9392 56.8149 27.0244 56.532 26.0327 56.9963C25.041 57.4606 24.6097 57.9825 24.3652 58.5237C27.464 59.5978 31.0133 59.9631 34.2852 59.3559ZM40.0211 53.15C38.8672 51.521 36.9415 51.8892 34.4169 52.5733L34.2301 52.554C31.3127 53.3865 27.9501 53.0404 25.2634 51.6312L25.0765 51.6119C23.8266 50.9169 22.7442 50.428 21.6234 50.3126C20.8761 50.2357 20.1097 50.3456 19.4723 51.0351C18.8542 51.5379 18.4037 52.2466 18.4944 53.1998C18.7142 54.7327 20.0549 56.3811 22.0136 57.5266C22.368 57.7519 22.7416 57.7903 23.096 58.0156C23.3597 57.2876 24.0355 56.2243 25.4008 55.7985C27.5711 54.8892 29.3622 55.8286 29.6974 56.2407C30.2963 55.9248 31.0627 55.8149 31.9968 55.911C34.2384 56.1417 35.3538 58.1444 35.6313 59.1169C35.8181 59.1361 36.0241 58.9686 36.2109 58.9878C38.3619 58.2653 40.0102 56.9245 40.5377 55.4685C40.8206 54.5537 40.5238 53.7681 40.0211 53.15Z" fill="white"/>
<path d="M121.44 83.8069L120.575 92.2132L112.169 91.348L112.515 87.9855L81.3179 84.7747L80.9526 88.324L72.5463 87.4588L73.4115 79.0525L76.9608 79.4178L78.1336 68.0226C78.5374 64.0997 77.4275 60.2097 74.9138 57.1192C73.4056 55.2649 71.2985 53.7266 69.1145 52.9354L68.8261 55.7375L60.4198 54.8723L60.7274 51.8834C54.3705 53.117 49.4972 58.279 48.8242 64.8172L47.6514 76.2125L51.2007 76.5778L50.3356 84.9841L41.9293 84.1189L42.2946 80.5695L10.5374 77.3011L10.1914 80.6636L1.78504 79.7984L2.65023 71.3921L6.19955 71.7574L7.35313 60.549C7.92991 54.9448 9.44072 49.4368 11.6795 44.1924C7.6137 41.5085 5.06701 36.9044 5.60534 31.6738C6.23981 25.5091 11.0747 20.7207 17.2063 19.8415C18.1596 19.7508 19.1129 19.6601 20.2337 19.7755C23.0358 20.0639 25.555 21.2671 27.456 22.9731C27.4753 22.7863 27.6621 22.8055 27.8681 22.6379C38.3758 14.0913 51.4686 9.77527 64.8473 10.0195L65.2318 6.28337L73.6381 7.14855L73.2536 10.8847C89.0168 13.6398 102.761 23.1721 111.168 36.8748C111.986 38.0917 112.618 39.2894 113.082 40.2811C118.118 50.0499 120.198 61.0247 119.064 72.0463L117.91 83.2547L121.459 83.62L121.44 83.8069ZM65.5644 14.0578L71.1686 14.6345L71.7454 9.03034L66.1412 8.45356L65.5644 14.0578ZM30.3023 33.838C30.5632 27.6349 26.0193 22.2588 19.8546 21.6243C13.69 20.9899 8.14637 25.3278 7.13829 31.4539L30.3023 33.838ZM21.1817 34.4096L23.995 43.7608C27.1954 42.0135 29.4096 38.8433 29.9617 35.3132L21.1817 34.4096ZM9.57582 73.804L3.97162 73.2272L3.39483 78.8314L8.99903 79.4082L9.57582 73.804ZM49.1597 78.0667L43.5555 77.4899L42.9787 83.0941L48.5829 83.6709L49.1597 78.0667ZM67.8562 48.6526L62.252 48.0758L61.6752 53.68L67.2794 54.2568L67.8562 48.6526ZM80.1696 81.2583L74.5654 80.6815L73.9886 86.2857L79.5928 86.8625L80.1696 81.2583ZM112.462 86.6586L112.847 82.9225L116.396 83.2878L117.55 72.0794C118.646 61.4314 116.547 50.6434 111.659 41.2674C111.195 40.2757 110.563 39.0779 109.725 38.0477C101.654 24.7572 88.2449 15.637 72.8745 12.7335L72.5284 16.096L64.1221 15.2308L64.4682 11.8683C51.4824 11.4758 38.7632 15.8302 28.6676 24.0416C28.4615 24.2092 28.4615 24.2092 28.4423 24.396C30.1373 26.2696 31.4203 28.4782 31.7308 30.9644C33.4999 26.6156 37.4337 23.2448 42.3868 22.8107C43.34 22.72 44.2933 22.6293 45.4142 22.7447C52.6996 23.4945 57.8754 30.0683 57.1448 37.167C56.6834 41.6504 54.0187 45.5294 50.0326 47.5734C47.6371 48.8371 45.1317 49.3343 42.5164 49.0652C36.5386 48.4499 31.9178 43.8211 30.7941 38.2307C29.5525 41.1234 27.4153 43.5465 24.6269 44.9586C22.2314 46.2224 19.726 46.7195 17.1107 46.4504C15.4295 46.2773 13.9734 45.75 12.5174 45.2226C10.2978 50.2801 9.01231 55.4338 8.43552 61.038L7.28194 72.2464L11.0181 72.6309L10.6336 76.367L41.8303 79.5778L42.1956 76.0286L45.7449 76.3939L46.9177 64.9986C47.6675 57.7131 53.1782 51.8616 60.2823 50.7049L60.7053 46.5951L69.1116 47.4603L68.6886 51.5701C71.227 52.5865 73.7077 54.1633 75.3643 56.4105C78.0456 59.707 79.3039 63.9897 78.8617 68.2863L77.6889 79.6816L81.2382 80.0469L80.8729 83.5961L112.443 86.8454L112.462 86.6586ZM55.5212 36.4336C55.7821 30.2305 51.2382 24.8544 45.0735 24.2199C38.9089 23.5854 33.3653 27.9233 32.3572 34.0495L55.5212 36.4336ZM46.5875 37.0244L49.4008 46.3756C52.6011 44.6283 54.8153 41.4581 55.3674 37.928L46.5875 37.0244ZM119.792 85.1475L114.188 84.5707L113.611 90.1749L119.215 90.7517L119.792 85.1475Z" fill="white"/>
</svg>
