<svg width="251" height="244" viewBox="0 0 251 244" fill="none" xmlns="http://www.w3.org/2000/svg">
<path d="M151.124 167.792C149.321 179.363 153.895 189.557 161.764 190.783C169.632 192.009 177.091 183.69 178.894 172.119C180.697 160.548 176.123 150.353 168.254 149.127C160.386 147.901 152.927 156.22 151.124 167.792ZM154.364 168.296C155.806 159.04 161.733 151.43 167.75 152.367C173.767 153.305 177.169 161.894 175.654 171.614C174.14 181.334 168.286 188.481 162.269 187.543C156.252 186.606 152.849 178.016 154.364 168.296Z" fill="#ED0600"/>
<path d="M166.666 159.31C167.592 159.455 168.373 160.524 168.229 161.45L165.56 178.575C165.416 179.501 164.346 180.283 163.421 180.138C162.495 179.994 161.713 178.924 161.858 177.998L164.526 160.873C164.67 159.948 165.74 159.166 166.666 159.31Z" fill="#ED0600"/>
<path d="M15.177 115.32L24.4339 116.762C23.5448 134.639 27.5006 151.848 35.9103 167.855C38.5011 172.526 41.164 176.733 43.8991 180.478C56.8651 197.669 75.397 209.564 95.8643 215.123L94.422 224.38L115.25 227.626L116.692 218.369C159.532 220.303 198.687 194.167 213.046 153.737L213.118 153.274C227.087 148.813 236.656 136.082 236.115 121.301C236.013 118.915 235.911 116.528 235.345 114.07C232.376 102.703 223.81 93.7834 213.453 90.2733C203.113 59.2692 177.909 35.4305 146.477 27.2144L147.92 17.9575L127.092 14.7122L125.649 23.9691C80.0324 21.602 38.8405 51.6878 27.2165 95.8624L17.9597 94.42L14.7143 115.248L15.177 115.32ZM142.937 34.7222L129.052 32.5586L131.215 18.6733L145.101 20.8369L142.937 34.7222ZM176.871 112.07C181.277 99.008 194.897 90.7007 208.783 92.8642C223.131 95.0999 233.115 107.085 233.338 120.868L176.871 112.07ZM101.328 207.441L115.214 209.605L113.05 223.49L99.1646 221.327L101.328 207.441ZM28.1366 117.339L36.468 118.638L39.7134 97.8096L31.3819 96.5115C42.7174 54.1882 82.2327 25.7376 125.535 27.744L124.237 36.0752L145.065 39.3205L146.291 31.4521C175.871 39.3797 199.441 61.5415 209.678 90.1592C205.05 89.438 200.812 89.2518 195.895 90.382C186.524 92.7145 178.427 99.0381 174.28 107.399C174.352 106.937 174.034 105.939 173.643 105.404C169.297 87.6598 151.546 76.8346 133.802 81.181C122.97 83.76 114.195 91.4 110.15 102.148C107.751 108.411 107.667 115.035 109.116 120.95C111.13 129.323 116.6 136.813 123.963 141.278C127.841 143.779 131.934 144.891 136.1 145.54C140.265 146.189 144.575 145.912 148.957 145.173C158.791 142.913 166.425 136.517 170.572 128.155C170.891 129.153 170.818 129.616 170.674 130.542C172.688 138.915 178.158 146.404 185.522 150.87C189.399 153.371 193.492 154.483 197.658 155.132C201.361 155.709 204.673 155.751 208.592 154.939C194.666 192.592 157.116 217.556 116.662 215.52L117.888 207.651L97.0604 204.406L95.8343 212.274C76.2927 206.859 58.6864 195.108 46.039 178.915C43.3039 175.17 40.6408 170.963 37.9779 166.755C31.4195 151.037 27.3917 134.29 28.1366 117.339ZM114.85 102.406C119.256 89.3441 132.876 81.0367 146.761 83.2003C161.11 85.436 171.094 97.4214 171.317 111.204L114.85 102.406ZM21.6202 98.309L35.5055 100.473L33.342 114.358L19.4567 112.194L21.6202 98.309Z" fill="#ED0600"/>
</svg>
