<svg width="238" height="232" viewBox="0 0 238 232" fill="none" xmlns="http://www.w3.org/2000/svg">
<path d="M143.614 159.355C141.907 170.312 146.238 179.965 153.689 181.126C161.14 182.287 168.204 174.409 169.911 163.452C171.618 152.495 167.286 142.842 159.836 141.681C152.385 140.52 145.321 148.398 143.614 159.355ZM146.682 159.833C148.048 151.067 153.66 143.861 159.358 144.749C165.055 145.636 168.277 153.77 166.843 162.974C165.409 172.178 159.865 178.946 154.167 178.058C148.47 177.171 145.248 169.037 146.682 159.833Z" fill="#3822E4"/>
<path d="M158.332 151.324C159.209 151.461 159.949 152.474 159.812 153.35L157.285 169.567C157.149 170.443 156.136 171.183 155.259 171.047C154.383 170.91 153.643 169.897 153.779 169.021L156.306 152.804C156.443 151.927 157.456 151.187 158.332 151.324Z" fill="#3822E4"/>
<path d="M14.8812 109.666L23.6469 111.032C22.8049 127.96 26.5508 144.256 34.5144 159.414C36.9677 163.837 39.4893 167.821 42.0793 171.367C54.3573 187.646 71.906 198.91 91.2874 204.174L89.9216 212.94L109.644 216.013L111.01 207.248C151.577 209.079 188.654 184.329 202.252 146.045L202.32 145.606C215.548 141.383 224.609 129.327 224.097 115.33C224 113.07 223.903 110.811 223.368 108.483C220.556 97.719 212.444 89.2724 202.637 85.9485C192.846 56.5894 168.979 34.0155 139.215 26.2353L140.581 17.4696L120.858 14.3964L119.492 23.1622C76.2955 20.9207 37.2891 49.4102 26.2819 91.241L17.5161 89.8752L14.443 109.598L14.8812 109.666ZM135.863 33.3448L122.714 31.296L124.763 18.1474L137.911 20.1962L135.863 33.3448ZM167.996 106.589C172.168 94.2197 185.066 86.3532 198.215 88.4019C211.801 90.519 221.256 101.868 221.467 114.92L167.996 106.589ZM96.4614 196.9L109.61 198.949L107.561 212.097L94.4126 210.048L96.4614 196.9ZM27.1531 111.579L35.0425 112.808L38.1156 93.0849L30.2263 91.8557C40.9603 51.778 78.379 24.8368 119.384 26.7369L118.155 34.626L137.878 37.6991L139.039 30.2482C167.049 37.7552 189.368 58.7411 199.062 85.8405C194.68 85.1575 190.667 84.9812 186.011 86.0514C177.137 88.2601 169.47 94.2483 165.543 102.166C165.611 101.728 165.309 100.783 164.939 100.276C160.824 83.4736 144.015 73.2228 127.212 77.3386C116.955 79.7807 108.645 87.0154 104.815 97.1928C102.544 103.124 102.464 109.397 103.836 114.997C105.743 122.926 110.923 130.018 117.896 134.247C121.567 136.615 125.443 137.668 129.388 138.283C133.333 138.897 137.414 138.635 141.563 137.935C150.875 135.795 158.104 129.738 162.031 121.821C162.333 122.765 162.265 123.204 162.128 124.08C164.035 132.009 169.215 139.101 176.188 143.33C179.859 145.698 183.735 146.751 187.68 147.366C191.186 147.912 194.323 147.952 198.034 147.183C184.847 182.838 149.289 206.478 110.982 204.55L112.143 197.099L92.42 194.026L91.259 201.476C72.7541 196.348 56.0821 185.221 44.1057 169.887C41.5157 166.341 38.9939 162.357 36.4722 158.372C30.2619 143.488 26.4477 127.63 27.1531 111.579ZM109.266 97.4374C113.438 85.0686 126.335 77.202 139.484 79.2508C153.071 81.3678 162.526 92.7173 162.737 105.769L109.266 97.4374ZM20.9825 93.5579L34.1311 95.6066L32.0823 108.755L18.9337 106.706L20.9825 93.5579Z" fill="#3822E4"/>
</svg>
