<svg width="108" height="107" viewBox="0 0 108 107" fill="none" xmlns="http://www.w3.org/2000/svg">
<path d="M82.5312 69.0047L95.563 87.7285L97.8368 79.0142L104.993 73.5463L82.5312 69.0047Z" fill="white"/>
<path d="M50.0455 68.6955C51.208 69.4684 51.8678 70.7453 51.9079 71.9455C51.9104 73.9588 50.3645 76.2838 48.0821 77.9514C45.7608 79.4255 43.168 80.5515 40.4584 81.0968C37.7488 81.6421 34.9224 81.6068 32.2116 81.1454C29.2683 80.5295 27.1369 78.9446 26.3603 77.0871C25.8941 75.7713 26.0474 74.5321 26.8204 73.3697C28.443 70.4252 31.8124 71.1567 34.0972 71.5024L34.2907 71.4634C37.234 72.0794 40.1371 71.4951 42.613 69.7885L42.8066 69.7496C44.5473 68.3923 47.4102 66.6079 50.0455 68.6955ZM49.2725 69.8579C47.6061 68.5823 45.7876 69.5524 43.4663 71.0265L43.2728 71.0654C40.6033 72.811 37.1196 73.5121 33.9828 72.9351L33.7891 72.9741C32.3175 72.6661 31.0784 72.5127 29.9171 72.7464C29.143 72.9022 28.4077 73.2516 27.9829 74.1426C27.5191 74.8401 27.2879 75.6922 27.6762 76.6209C28.3749 78.0914 30.2348 79.3281 32.5585 79.8673C37.593 80.8679 43.0123 79.7772 47.2678 76.907C49.202 75.5108 50.4387 73.6509 50.5142 72.0247C50.3194 71.0569 49.97 70.3217 49.2725 69.8579Z" fill="white"/>
<path d="M46.6032 71.6039C38.3661 79.7059 31.0043 75.146 30.7328 74.7979C30.5003 74.6433 29.9197 74.7602 29.7651 74.9927C29.6105 75.2252 29.7274 75.8058 29.9599 75.9604C29.9599 75.9604 33.8733 78.3949 39.0989 77.3432C41.8085 76.7979 44.7494 75.4005 47.7657 72.3768C48.1138 72.1054 48.036 71.7183 47.7646 71.3702C47.4931 71.022 46.9514 71.3324 46.6032 71.6039Z" fill="white"/>
<path d="M99.1539 48.5419L95.2831 49.3209C95.9891 56.8313 94.6428 64.1506 91.3989 71.0463C90.5882 73.0219 89.3514 74.8819 88.2693 76.5094C83.1288 83.9881 75.5466 89.3403 67.032 92.0608L67.811 95.9317L59.1016 97.6845L58.3225 93.8137C40.5142 95.3839 23.5433 85.1055 16.5929 68.5813C12.4092 66.8054 9.07513 63.2474 8.10134 58.4088C6.93279 52.6025 9.40388 46.8693 14.4335 43.8432C17.5911 29.5138 28.1859 18.1179 42.0029 13.7261L41.2239 9.85523L49.9333 8.1024L50.7123 11.9733C69.8755 10.1304 87.7776 22.0338 93.4913 40.4179L97.3622 39.6389L99.1539 48.5419ZM44.0589 16.9372L49.8652 15.7687L48.6966 9.96239L42.8903 11.1309L44.0589 16.9372ZM64.5889 88.9277L58.7826 90.0962L59.9512 95.9025L65.7574 94.734L64.5889 88.9277ZM93.7348 49.6325L90.251 50.3336L88.4982 41.6242L91.9819 40.9231C86.424 23.3132 69.2583 12.067 51.0629 13.7151L51.764 17.1989L43.0546 18.9517L42.3925 15.6615C29.5432 19.8586 19.5666 30.3244 16.1364 43.2991C23.1794 40.2706 30.8882 43.5523 34.148 49.7432C34.5679 44.8255 37.4662 40.2146 42.3036 38.2342C50.6235 34.5459 59.9221 39.7229 61.636 48.2387C62.5708 52.8837 61.1052 57.6091 57.7407 60.9042C55.7298 62.9199 53.3696 64.2005 50.66 64.7458C44.4666 65.9923 38.384 62.786 35.5126 57.5239C35.1681 60.8153 33.7779 63.9144 31.4189 66.2016C29.408 68.2174 27.0478 69.4979 24.3382 70.0433C22.2093 70.4717 20.157 70.2806 18.2593 69.857C25.1696 85.1809 40.939 94.4929 57.7407 92.9239L57.0785 89.6337L65.7879 87.8809L66.4501 91.171C74.5777 88.5284 81.7728 83.2541 86.7976 76.2014C87.8797 74.5739 88.923 72.7529 89.9662 70.9319C92.9776 63.8816 94.3629 56.7558 93.7348 49.6325ZM30.4098 64.1895C33.2326 61.2048 34.428 57.138 33.61 53.0736C32.2857 46.4932 25.7758 42.1646 19.1953 43.489C18.4212 43.6448 17.4924 44.0331 16.7183 44.1889L30.4098 64.1895ZM56.5381 58.931C59.3609 55.9463 60.5562 51.8795 59.7382 47.8151C58.4139 41.2347 51.904 36.9061 45.3236 38.2305C44.5494 38.3863 43.6207 38.7746 42.8465 38.9304L56.5381 58.931ZM96.1255 41.4989L90.3192 42.6674L91.4877 48.4737L97.294 47.3052L96.1255 41.4989Z" fill="white"/>
</svg>
