<svg width="48" height="47" viewBox="0 0 48 47" fill="none" xmlns="http://www.w3.org/2000/svg">
<path d="M28.9624 32.1519C28.6169 34.3692 29.4935 36.3226 31.0012 36.5575C32.5089 36.7924 33.9382 35.1983 34.2837 32.9811C34.6292 30.7639 33.7526 28.8104 32.2449 28.5755C30.7372 28.3406 29.3078 29.9347 28.9624 32.1519ZM29.5832 32.2487C29.8596 30.4749 30.9952 29.0167 32.1482 29.1963C33.3011 29.376 33.9531 31.0219 33.6629 32.8843C33.3727 34.7468 32.2509 36.1164 31.0979 35.9367C29.9449 35.7571 29.293 34.1111 29.5832 32.2487Z" fill="#3822E4"/>
<path d="M31.9403 30.5267C32.1177 30.5544 32.2674 30.7594 32.2398 30.9367L31.7285 34.2182C31.7008 34.3956 31.4959 34.5454 31.3185 34.5177C31.1411 34.4901 30.9913 34.2851 31.019 34.1077L31.5303 30.8262C31.5579 30.6488 31.763 30.4991 31.9403 30.5267Z" fill="#3822E4"/>
<path d="M2.90939 22.0974L4.68318 22.3738C4.5128 25.7993 5.27081 29.0969 6.88226 32.1641C7.37871 33.059 7.88896 33.8653 8.41305 34.5828C10.8976 37.8769 14.4486 40.1562 18.3705 41.2215L18.0941 42.9953L22.0852 43.6172L22.3615 41.8434C30.5705 42.2141 38.0732 37.2058 40.8246 29.4587L40.8384 29.37C43.5152 28.5153 45.3488 26.0757 45.2451 23.2435C45.2255 22.7862 45.2059 22.3289 45.0976 21.8579C44.5286 19.6798 42.8872 17.9706 40.9026 17.298C38.9214 11.357 34.0917 6.78912 28.0689 5.21477L28.3453 3.44099L24.3543 2.81912L24.0779 4.5929C15.3368 4.13933 7.44373 9.90431 5.21638 18.369L3.44259 18.0926L2.82073 22.0836L2.90939 22.0974ZM27.3905 6.6534L24.7298 6.23882L25.1444 3.57815L27.8051 3.99273L27.3905 6.6534ZM33.8929 21.4746C34.7371 18.9717 37.347 17.3799 40.0077 17.7945C42.7571 18.2229 44.6703 20.5195 44.7129 23.1606L33.8929 21.4746ZM19.4175 39.7495L22.0782 40.1641L21.6636 42.8247L19.0029 42.4102L19.4175 39.7495ZM5.39268 22.4843L6.98913 22.7331L7.61099 18.7421L6.01455 18.4933C8.18663 10.3834 15.7585 4.93178 24.0561 5.31626L23.8073 6.91265L27.7983 7.53452L28.0332 6.02679C33.7013 7.54587 38.2176 11.7925 40.1793 17.2761C39.2924 17.1379 38.4804 17.1023 37.5382 17.3188C35.7425 17.7658 34.1911 18.9775 33.3964 20.5797C33.4102 20.491 33.3492 20.2998 33.2743 20.1973C32.4415 16.7972 29.0402 14.7229 25.6401 15.5557C23.5645 16.0499 21.8829 17.5139 21.1078 19.5733C20.6483 20.7735 20.6322 22.0428 20.9098 23.1762C21.2957 24.7806 22.3438 26.2158 23.7548 27.0715C24.4978 27.5506 25.2821 27.7637 26.0804 27.8881C26.8786 28.0124 27.7044 27.9594 28.5441 27.8177C30.4284 27.3846 31.8912 26.159 32.6859 24.5569C32.7469 24.7481 32.7331 24.8367 32.7054 25.0141C33.0913 26.6186 34.1395 28.0537 35.5505 28.9095C36.2935 29.3886 37.0778 29.6017 37.876 29.726C38.5855 29.8366 39.2202 29.8446 39.9712 29.6891C37.3026 36.9041 30.1074 41.6877 22.3558 41.2974L22.5907 39.7897L18.5997 39.1679L18.3648 40.6756C14.6202 39.6379 11.2466 37.3862 8.8231 34.2833C8.29901 33.5658 7.78871 32.7595 7.27844 31.9533C6.02175 28.9413 5.24994 25.7324 5.39268 22.4843ZM22.0085 19.6228C22.8527 17.1199 25.4627 15.5281 28.1233 15.9427C30.8727 16.3711 32.7859 18.6677 32.8286 21.3088L22.0085 19.6228ZM4.14403 18.8378L6.8047 19.2524L6.39012 21.913L3.72945 21.4985L4.14403 18.8378Z" fill="#3822E4"/>
</svg>
