<svg width="32" height="48" viewBox="0 0 32 48" fill="none" xmlns="http://www.w3.org/2000/svg">
<path d="M26.347 28.239C29.3096 23.4753 32.2864 18.6277 30.3289 12.8591L30.5806 12.9017L31.2193 9.12581L27.445 8.48737L27.1754 10.0816L24.4076 9.61343C24.934 5.9912 21.9637 2.64054 18.1313 2.85537C15.8655 2.98995 14.0023 4.31465 13.0745 6.22913C12.7184 3.23439 10.1235 0.724013 6.8086 0.940059C4.02534 1.07341 1.68466 3.18045 1.21627 5.94941C0.662726 9.22182 2.89244 12.3609 6.16345 12.9142C7.33766 13.1128 8.48478 12.9616 9.60479 12.4606C9.70286 12.3909 9.80093 12.3212 9.8848 12.3353C9.99448 13.217 9.95061 13.9863 9.80867 14.8254C8.94285 14.3337 7.76993 13.6175 6.67702 14.4683C6.18669 14.8169 5.91958 15.3759 5.9183 15.8935C5.9441 16.761 6.64089 17.7419 7.64607 18.4298C7.88349 18.5563 8.1906 18.7808 8.51189 18.9215C7.68221 20.7663 6.50284 22.6382 5.40734 24.5243C2.44473 29.288 -0.532079 34.1356 1.42538 39.9042L1.0899 39.8474L0.451186 43.6233L4.22543 44.2617L4.49511 42.6675L21.2695 45.505L20.9999 47.0992L24.7741 47.7376L25.4128 43.9618L22.5612 43.4794C20.4076 37.8503 23.2721 33.1563 26.347 28.239ZM27.9328 9.17405L30.4489 9.59967L30.0231 12.1169L27.507 11.6913L27.9328 9.17405ZM13.281 7.55869C13.9171 4.8181 16.5507 3.01954 19.3185 3.48773C22.0862 3.95591 23.9818 6.5206 23.6811 9.31794L13.281 7.55869ZM1.87435 5.62919C2.51048 2.8886 5.14406 1.09003 7.91184 1.55822C10.6796 2.02641 12.5751 4.5911 12.2745 7.38844L1.87435 5.62919ZM23.5676 9.98919C23.214 11.5693 22.1198 12.9377 20.6217 13.6337L19.6256 9.32238L23.5676 9.98919ZM9.29898 11.7184L8.30283 7.40707L12.2448 8.07388C11.8913 9.65394 10.7971 11.0224 9.29898 11.7184ZM6.44992 15.8108C6.42282 15.461 6.56346 15.1396 6.95573 14.8607C7.26412 14.5676 7.6138 14.5405 7.94929 14.5972C8.36865 14.6681 8.92737 14.9353 9.47189 15.2863L9.55577 15.3005C10.7287 16.0168 12.2384 16.2721 13.5816 15.9815L13.6655 15.9957C14.8268 15.7606 15.7081 15.6507 16.1817 16.4213C16.3907 16.7156 16.4178 17.0654 16.3468 17.485C16.0655 18.1278 15.281 18.6856 14.2874 18.9491C14.2036 18.9349 14.1055 19.0046 14.0216 18.9904C13.8552 18.4444 13.4797 17.6041 12.4732 17.4339C12.0539 17.3629 11.7881 17.4043 11.4242 17.5153C11.2009 17.305 10.5171 16.7577 9.49513 17.189C8.85125 17.4254 8.52866 17.8023 8.38801 18.1238C8.23446 18.0115 8.06671 17.9831 7.91316 17.8708C7.06153 17.2952 6.42024 16.4963 6.44992 15.8108ZM8.94673 18.3909C9.07318 18.1534 9.28351 17.93 9.74545 17.7492C10.2913 17.5826 10.6126 17.7233 10.85 17.8498C10.5558 18.0589 10.3455 18.2823 10.3455 18.2823C10.2332 18.4359 10.2887 18.6179 10.4422 18.7302C10.5958 18.8425 10.7777 18.7869 10.89 18.6333C10.89 18.6333 11.4513 17.8652 12.3739 18.0212C13.0449 18.1347 13.2952 18.6949 13.4061 19.0589C11.9094 19.2373 10.3158 18.9677 8.94673 18.3909ZM3.58412 43.4628L1.06796 43.0371L1.49377 40.5199L4.00993 40.9455L3.74025 42.5398L3.58412 43.4628ZM4.52478 41.982L4.79446 40.3877L2.02668 39.9196C-0.0430412 34.3046 2.80731 29.6946 5.88218 24.7772C7.06155 22.9053 8.15705 21.0192 9.0848 19.1047C9.72739 19.386 10.3003 19.5693 10.9713 19.6828C11.9777 19.853 12.9287 19.8413 13.9081 19.6617C13.9081 19.6617 13.9081 19.6617 13.992 19.6759C14.1739 19.6204 14.3416 19.6487 14.5236 19.5932C15.783 19.2884 16.6797 18.577 16.9894 17.7663C17.1726 17.1931 17.0901 16.6613 16.8255 16.185C16.0875 14.9381 14.6462 15.2985 13.5829 15.4639L13.499 15.4497C12.4216 15.699 11.3313 15.5145 10.2835 15.0784C10.4538 14.0715 10.4564 13.0362 10.3751 11.9867C11.2577 11.3593 12.001 10.5356 12.5068 9.58545C12.7661 12.1323 14.8023 14.3755 17.4862 14.8295C18.6604 15.0281 19.8075 14.8769 20.9275 14.3759C22.6076 13.6244 23.8979 12.1165 24.294 10.2847L27.1457 10.7671L26.876 12.3613L29.6438 12.8295C31.7277 18.3606 28.8632 23.0545 25.7883 27.9718C22.8257 32.7355 19.8489 37.5831 21.8063 43.3517L21.5547 43.3092L21.285 44.9034L4.51059 42.0659L4.52478 41.982ZM24.2167 46.9529L21.7005 46.5273L22.1263 44.01L24.6425 44.4356L24.2167 46.9529Z" fill="#3822E4"/>
</svg>
