<svg width="52" height="46" viewBox="0 0 52 46" fill="none" xmlns="http://www.w3.org/2000/svg">
<path d="M21.8732 31.3727C20.4341 31.9484 18.995 31.9484 17.6519 31.3727H17.5559C16.5006 30.9889 14.9655 30.3174 13.9102 31.5646C13.4305 32.0443 13.2386 32.7159 13.3345 33.2915C13.5264 34.2509 14.4858 35.2103 15.7331 35.786C16.9803 36.2657 18.3234 36.5535 19.6666 36.5535C20.8179 36.5535 21.8733 36.3616 22.9286 35.9779C22.9286 35.9779 22.9286 35.9779 23.0245 35.9779C23.2164 35.8819 23.4083 35.8819 23.6002 35.786C24.9434 35.2103 25.8069 34.2509 25.9988 33.2915C26.0947 32.6199 25.9028 32.0443 25.519 31.5646C24.4637 30.3174 23.0245 30.893 21.8732 31.3727ZM17.3641 35.5941C17.46 35.3063 17.6519 35.0185 18.1316 34.7306C18.7072 34.4428 19.091 34.5388 19.3788 34.6347C19.091 34.9225 18.8991 35.2103 18.8991 35.2103C18.8032 35.4022 18.8991 35.5941 19.091 35.6901C19.2829 35.786 19.4748 35.6901 19.5707 35.4982C19.5707 35.4982 20.0504 34.5388 21.1057 34.5388C21.8733 34.5388 22.257 35.1144 22.4489 35.4982C20.722 35.9779 18.9951 35.9779 17.3641 35.5941ZM25.4231 33.1956C25.2312 33.9631 24.4637 34.7306 23.4083 35.2103C23.3124 35.2103 23.2165 35.3063 23.1205 35.3063C22.8327 34.7306 22.257 33.8672 21.1057 33.8672C20.626 33.8672 20.3382 33.9631 19.9544 34.155C19.6666 33.9631 18.8031 33.4834 17.7478 34.155C17.0762 34.5388 16.7884 35.0185 16.6925 35.4022C16.5006 35.3063 16.3087 35.3063 16.1168 35.2103C15.0614 34.7306 14.2939 33.9631 14.102 33.1956C14.0061 32.8118 14.1021 32.4281 14.4858 32.0443C14.7737 31.6605 15.1574 31.5646 15.5412 31.5646C16.0209 31.5646 16.6925 31.7565 17.3641 32.0443H17.46C18.8991 32.7159 20.626 32.6199 22.0651 32.0443H22.1611C23.4083 31.5646 24.3678 31.2768 25.0393 32.0443C25.3272 32.3321 25.519 32.7159 25.4231 33.1956Z" fill="#ED0600"/>
<path d="M49.1218 41.4465L27.5351 4.31734H28.3026V0H23.9852V4.31734H24.7528L17.0775 17.5572C16.0221 16.7897 14.679 16.31 13.1439 16.31C12.6642 16.31 12.1845 16.4059 11.6089 16.5018C8.53878 17.1734 6.33214 19.9557 6.33214 23.1218C6.33214 25.8081 7.96311 28.2066 10.2657 29.262L3.07012 41.4465H0V45.7638H4.31734V43.9409H47.6827V45.7638H52V41.4465H49.1218ZM24.6568 0.671587H27.5351V3.54981H24.6568V0.671587ZM7.00368 22.738C7.19556 19.572 9.78598 17.0775 12.952 17.0775C16.1181 17.0775 18.7085 19.572 18.9004 22.738H7.00368ZM18.9963 23.5055C18.9004 25.3284 17.941 27.0553 16.4059 28.1107L14.4871 23.5055H18.9963ZM3.64574 45.0922H0.767516V42.214H3.64574V45.0922ZM4.41332 43.2694V41.4465H3.93361L10.8413 29.4539C11.5129 29.6458 12.2805 29.8376 13.048 29.8376C14.3912 29.8376 15.6384 29.4539 16.7897 28.6863C18.1328 27.8229 19.0923 26.3838 19.572 24.9446C20.3395 27.7269 23.0258 29.8376 26.0959 29.8376C27.4391 29.8376 28.6864 29.4539 29.8377 28.6863C31.7565 27.4391 32.9077 25.3284 32.9077 23.0258C32.9077 19.2841 29.8376 16.31 26.1919 16.31C25.7122 16.31 25.2325 16.4059 24.6568 16.5018C22.1624 17.0775 20.3395 18.9004 19.6679 21.2029C19.2841 19.9557 18.6126 18.9004 17.6532 18.0369L25.6162 4.31734H26.8635L48.4502 41.4465H47.9705V43.2694H4.41332ZM20.0517 22.738C20.2436 19.572 22.834 17.0775 26 17.0775C29.1661 17.0775 31.7564 19.572 31.9483 22.738H20.0517ZM31.9483 23.5055C31.8524 25.3284 30.893 27.0553 29.358 28.1107L27.4391 23.5055H31.9483ZM51.4244 45.0922H48.5462V42.214H51.4244V45.0922Z" fill="#ED0600"/>
</svg>
