<svg width="124" height="116" viewBox="0 0 124 116" fill="none" xmlns="http://www.w3.org/2000/svg">
<path d="M86.6639 61.0048L86.8386 60.946L100.078 44.241L91.6879 44.7311L84.9132 39.6219L86.6639 61.0048Z" fill="white"/>
<path d="M57.9179 76.7054L57.7432 76.7642C55.6506 78.635 53.0306 79.5166 50.2326 79.2914L50.0579 79.3502C47.9015 79.2981 44.6954 79.0158 43.5382 81.933C42.9587 83.1002 43.0208 84.4403 43.5481 85.4296C44.4852 87.0587 46.4115 88.1605 49.0348 88.4444C49.2094 88.3857 49.2682 88.5603 49.4429 88.5015C52.0074 88.6108 54.629 88.312 57.0744 87.4892C59.5197 86.6663 61.7887 85.3195 63.7655 83.6821C63.9402 83.6233 64.056 83.3899 64.056 83.3899C65.7993 81.6366 66.8425 79.5356 66.6041 77.6714C66.3673 76.39 65.6653 75.4595 64.6728 74.8213C61.9874 73.1972 59.5453 75.1856 57.9179 76.7054ZM48.5058 86.8724C46.8146 86.4693 45.414 85.7739 44.6533 84.6688C44.2435 84.0289 44.183 83.2715 44.6466 82.3378C44.9355 81.4628 45.5754 81.053 46.2741 80.8179C47.1474 80.524 48.1383 80.5795 49.3038 80.5762L48.5058 86.8724ZM56.139 86.4428C54.2176 87.0893 52.12 87.2118 49.9636 87.1597L50.8774 80.63C52.043 80.6267 52.9751 80.5075 54.0231 80.1548L56.139 86.4428ZM57.3616 86.0314L55.3046 79.9181C56.3526 79.5654 57.283 78.8634 58.0976 78.3949L62.773 83.0439C61.028 84.2144 59.2242 85.2102 57.3616 86.0314ZM65.3226 77.9082C65.5593 79.1896 64.8639 80.5903 63.5858 81.9926L59.1438 77.4595C61.0047 76.0556 62.4592 75.1773 63.9186 76.0473C64.7936 76.3362 65.2034 76.9761 65.3226 77.9082Z" fill="white"/>
<path d="M115.207 77.6497L53.1618 23.2782L54.5591 22.808L51.9143 14.948L44.0543 17.5928L46.6992 25.4528L48.0965 24.9826L42.0039 54.838C40.8367 54.2586 39.3789 53.9714 38.0387 54.0334C37.0478 53.978 36.1157 54.0972 35.1836 54.2164C29.067 55.1079 24.7103 60.0739 24.2616 66.2526C24.0381 69.6334 25.2136 73.1267 27.4354 75.6846C29.6572 78.2425 32.9254 79.8649 36.3062 80.0884C36.4808 80.0297 36.7143 80.1456 36.8889 80.0868L31.6009 105.977L26.0116 107.858L28.6564 115.718L36.5164 113.073L35.3997 109.754L114.349 83.1886L115.465 86.5072L123.325 83.8624L120.681 76.0024L115.266 77.8244L115.207 77.6497ZM47.2769 23.7028L45.5137 18.4629L50.7537 16.6996L52.5169 21.9396L47.2769 23.7028ZM35.2457 55.5566C40.6048 54.7255 45.9757 57.9738 47.7389 63.2137C49.5021 68.4537 47.1875 74.2881 42.4161 76.8658L35.2457 55.5566ZM34.6489 112.146L29.4089 113.909L27.6457 108.669L32.8857 106.906L34.6489 112.146ZM112.762 78.4726L113.878 81.7912L34.9295 108.357L33.8128 105.038L32.9394 105.332L38.1704 79.85C39.1025 79.7308 40.2092 79.5529 41.2572 79.2002C41.9558 78.9651 42.8292 78.6713 43.4691 78.2615C47.1926 76.0364 49.7454 72.0663 50.0244 67.6946C50.1403 67.4612 50.0228 67.1119 50.1386 66.8784C50.4309 67.169 50.4897 67.3436 50.7819 67.6342C53.0037 70.1921 56.2718 71.8146 59.6526 72.0381C61.4009 72.0331 63.0904 71.8535 64.6624 71.3245C65.3611 71.0894 66.2344 70.7956 66.8743 70.3858C70.5977 68.1607 73.1507 64.1905 73.4297 59.8189C73.6532 56.4382 72.4777 52.9449 70.2559 50.387C68.0341 47.8291 64.7659 46.2066 61.3852 45.9831C60.3943 45.9276 59.4622 46.0468 58.5301 46.166C52.4135 47.0576 48.0567 52.0235 47.6081 58.2022C47.4922 58.4357 47.6097 58.785 47.5526 59.1931C46.4409 57.6228 44.8639 56.4034 43.2299 55.5922L49.4938 24.5124L51.7644 23.7484L113.81 78.1199L112.762 78.4726ZM65.7055 69.2236L58.4763 47.7397C63.8355 46.9085 69.2062 50.1568 70.9694 55.3968C72.7327 60.6368 70.4769 66.6458 65.7055 69.2236ZM121.632 82.8765L116.392 84.6397L114.629 79.3997L119.869 77.6365L121.632 82.8765Z" fill="white"/>
</svg>
