<svg width="226" height="199" viewBox="0 0 226 199" fill="none" xmlns="http://www.w3.org/2000/svg">
<path d="M95.5399 135.966C89.3078 138.459 83.0759 138.459 77.2592 135.966H76.8436C72.2734 134.304 65.6258 131.396 61.0556 136.797C58.9782 138.874 58.1474 141.782 58.5629 144.275C59.3938 148.43 63.5486 152.585 68.9497 155.078C74.3509 157.155 80.1674 158.401 85.9841 158.401C90.9698 158.401 95.5401 157.57 100.11 155.909C100.11 155.909 100.11 155.909 100.526 155.909C101.357 155.493 102.188 155.493 103.019 155.078C108.835 152.585 112.575 148.43 113.406 144.275C113.821 141.367 112.99 138.874 111.328 136.797C106.758 131.396 100.526 133.888 95.5399 135.966ZM76.0128 154.247C76.4283 153 77.2592 151.754 79.3366 150.507C81.8294 149.261 83.4913 149.676 84.7377 150.092C83.4913 151.338 82.6603 152.585 82.6603 152.585C82.2449 153.416 82.6604 154.247 83.4913 154.662C84.3223 155.078 85.1532 154.662 85.5687 153.831C85.5687 153.831 87.646 149.676 92.2162 149.676C95.54 149.676 97.202 152.169 98.0329 153.831C90.5544 155.909 83.0759 155.909 76.0128 154.247ZM110.913 143.86C110.082 147.184 106.758 150.507 102.188 152.585C101.772 152.585 101.357 153 100.941 153C99.6949 150.507 97.2019 146.768 92.2162 146.768C90.1388 146.768 88.8923 147.184 87.2304 148.015C85.984 147.184 82.2448 145.106 77.6746 148.015C74.7663 149.676 73.5199 151.754 73.1045 153.416C72.2735 153 71.4424 153 70.6115 152.585C66.0412 150.507 62.7176 147.184 61.8866 143.86C61.4711 142.198 61.8867 140.536 63.5486 138.874C64.795 137.212 66.4568 136.797 68.1187 136.797C70.1961 136.797 73.1045 137.628 76.0128 138.874H76.4282C82.6603 141.782 90.1388 141.367 96.3709 138.874H96.7866C102.188 136.797 106.342 135.55 109.251 138.874C110.497 140.12 111.328 141.782 110.913 143.86Z" fill="#ED0600"/>
<path d="M213.535 179.591L120.054 18.8021H123.377V0.105713H104.681V18.8021H108.005L74.7669 76.1375C70.1967 72.8137 64.3801 70.7364 57.7325 70.7364C55.6552 70.7364 53.5779 71.1518 51.085 71.5673C37.7899 74.4756 28.234 86.5244 28.234 100.235C28.234 111.868 35.2969 122.255 45.2683 126.825L14.1077 179.591H0.8125V198.287H19.5088V190.393H207.303V198.287H226V179.591H213.535ZM107.589 3.01403H120.054V15.4783H107.589V3.01403ZM31.1421 98.5731C31.973 84.8625 43.1909 74.0602 56.9015 74.0602C70.6122 74.0602 81.8301 84.8625 82.661 98.5731H31.1421ZM83.0764 101.897C82.6609 109.791 78.5064 117.269 71.8588 121.84L63.5493 101.897H83.0764ZM16.6005 195.379H4.13624V182.914H16.6005V195.379ZM19.9245 187.485V179.591H17.8471L47.7611 127.656C50.6694 128.487 53.9934 129.318 57.3172 129.318C63.1338 129.318 68.5348 127.656 73.5205 124.333C79.3372 120.593 83.492 114.361 85.5694 108.129C88.8932 120.178 100.526 129.318 113.822 129.318C119.638 129.318 125.039 127.656 130.025 124.333C138.335 118.931 143.32 109.791 143.32 99.8196C143.32 83.6161 130.025 70.7364 114.237 70.7364C112.16 70.7364 110.082 71.1518 107.589 71.5673C96.7871 74.0602 88.8931 81.9542 85.9847 91.9256C84.3228 86.5244 81.4146 81.9542 77.2599 78.2149L111.744 18.8021H117.145L210.627 179.591H208.55V187.485H19.9245ZM87.6467 98.5731C88.4777 84.8625 99.6955 74.0602 113.406 74.0602C127.117 74.0602 138.334 84.8625 139.165 98.5731H87.6467ZM139.165 101.897C138.75 109.791 134.595 117.269 127.948 121.84L119.638 101.897H139.165ZM223.507 195.379H211.043V182.914H223.507V195.379Z" fill="#ED0600"/>
</svg>
