<svg width="215" height="189" viewBox="0 0 215 189" fill="none" xmlns="http://www.w3.org/2000/svg">
<path d="M90.5428 129.589C84.6413 131.949 78.74 131.949 73.232 129.589H72.8384C68.5107 128.015 62.2158 125.261 57.8881 130.376C55.9209 132.343 55.1342 135.097 55.5276 137.457C56.3145 141.392 60.2488 145.326 65.3634 147.687C70.478 149.654 75.9859 150.834 81.4939 150.834C86.2151 150.834 90.5429 150.047 94.8707 148.473C94.8707 148.473 94.8706 148.473 95.264 148.473C96.0508 148.08 96.8379 148.08 97.6247 147.687C103.133 145.326 106.674 141.392 107.46 137.457C107.854 134.703 107.067 132.343 105.493 130.376C101.166 125.261 95.2639 127.622 90.5428 129.589ZM72.0517 146.9C72.4452 145.719 73.232 144.539 75.1991 143.359C77.5597 142.178 79.1334 142.572 80.3137 142.965C79.1334 144.146 78.3465 145.326 78.3465 145.326C77.9531 146.113 78.3466 146.9 79.1334 147.293C79.9203 147.686 80.7072 147.293 81.1006 146.506C81.1006 146.506 83.0676 142.572 87.3954 142.572C90.5428 142.572 92.1166 144.932 92.9035 146.506C85.8218 148.473 78.7401 148.473 72.0517 146.9ZM105.1 137.064C104.313 140.211 101.166 143.359 96.8378 145.326C96.4444 145.326 96.051 145.719 95.6576 145.719C94.4773 143.359 92.1165 139.818 87.3954 139.818C85.4282 139.818 84.2479 140.211 82.6742 140.998C81.4939 140.211 77.9531 138.244 73.6253 140.998C70.8713 142.572 69.6911 144.539 69.2977 146.113C68.5108 145.719 67.7238 145.719 66.9369 145.326C62.6092 143.359 59.4619 140.211 58.675 137.064C58.2816 135.49 58.6751 133.916 60.2488 132.343C61.4291 130.769 63.0027 130.376 64.5765 130.376C66.5436 130.376 69.2977 131.162 72.0517 132.343H72.4451C78.3465 135.097 85.4282 134.703 91.3297 132.343H91.7233C96.8379 130.376 100.772 129.195 103.526 132.343C104.706 133.523 105.493 135.097 105.1 137.064Z" fill="#3822E4"/>
<path d="M202.278 170.898L113.756 18.6409H116.903V0.936523H99.1987V18.6409H102.346L70.8717 72.9343C66.544 69.7868 61.036 67.8197 54.7411 67.8197C52.774 67.8197 50.8069 68.2131 48.4464 68.6066C35.8566 71.3606 26.8077 82.7701 26.8077 95.7533C26.8077 106.769 33.4959 116.605 42.9382 120.933L13.4309 170.898H0.841125V188.603H18.5455V181.128H196.376V188.603H214.08V170.898H202.278ZM101.953 3.69054H113.756V15.4934H101.953V3.69054ZM29.5615 94.1795C30.3484 81.1963 40.971 70.9671 53.9542 70.9671C66.9374 70.9671 77.5601 81.1963 78.347 94.1795H29.5615ZM78.7403 97.327C78.3469 104.802 74.4128 111.884 68.1179 116.212L60.2493 97.327H78.7403ZM15.7914 185.849H3.98852V174.046H15.7914V185.849ZM18.9391 178.374V170.898H16.9719L45.2987 121.72C48.0527 122.507 51.2004 123.293 54.3478 123.293C59.8558 123.293 64.9703 121.72 69.6915 118.572C75.1995 115.031 79.1339 109.13 81.101 103.228C84.2485 114.638 95.2645 123.293 107.854 123.293C113.362 123.293 118.477 121.72 123.198 118.572C131.067 113.458 135.788 104.802 135.788 95.3598C135.788 80.016 123.198 67.8197 108.248 67.8197C106.28 67.8197 104.313 68.2131 101.953 68.6066C91.7236 70.9671 84.2484 78.4423 81.4944 87.8846C79.9206 82.7701 77.1667 78.4423 73.2324 74.9014L105.887 18.6409H111.002L199.523 170.898H197.556V178.374H18.9391ZM83.0682 94.1795C83.855 81.1963 94.4777 70.9671 107.461 70.9671C120.444 70.9671 131.067 81.1963 131.853 94.1795H83.0682ZM131.853 97.327C131.46 104.802 127.526 111.884 121.231 116.212L113.362 97.327H131.853ZM211.72 185.849H199.917V174.046H211.72V185.849Z" fill="#3822E4"/>
</svg>
