<svg width="300" height="253" viewBox="0 0 300 253" fill="none" xmlns="http://www.w3.org/2000/svg">
<path d="M138.61 128.203C138.61 130.926 137.828 132.97 136.264 134.337C134.709 135.703 132.595 136.386 129.922 136.386C127.249 136.386 125.135 135.703 123.58 134.337C122.036 132.97 121.264 130.926 121.264 128.203C121.264 127.856 121.264 127.495 121.264 127.119C121.264 126.733 121.264 126.337 121.264 125.931V114.094H127.264V126.866C127.264 127.144 127.264 127.406 127.264 127.653C127.264 127.901 127.264 128.134 127.264 128.351C127.264 129.46 127.452 130.307 127.828 130.891C128.214 131.475 128.912 131.767 129.922 131.767C130.932 131.767 131.63 131.475 132.016 130.891C132.412 130.307 132.61 129.46 132.61 128.351V114.094H138.61V128.203ZM149.833 136.386C148.209 136.386 146.754 136.129 145.467 135.614C144.179 135.089 143.16 134.312 142.407 133.282C141.665 132.252 141.293 130.975 141.293 129.45C141.293 129.322 141.293 129.193 141.293 129.064C141.293 128.936 141.293 128.807 141.293 128.678H147.278C147.278 128.787 147.278 128.896 147.278 129.005C147.278 129.114 147.278 129.223 147.278 129.332C147.278 130.025 147.491 130.604 147.917 131.069C148.353 131.535 149.011 131.767 149.892 131.767C150.744 131.767 151.412 131.644 151.897 131.396C152.392 131.139 152.64 130.723 152.64 130.149C152.64 129.723 152.407 129.327 151.942 128.96C151.486 128.594 150.868 128.248 150.085 127.921C149.313 127.594 148.452 127.282 147.501 126.985C146.472 126.658 145.491 126.218 144.561 125.663C143.64 125.109 142.887 124.391 142.303 123.51C141.719 122.619 141.427 121.515 141.427 120.198C141.427 118.842 141.803 117.683 142.556 116.723C143.308 115.752 144.318 115.01 145.585 114.495C146.863 113.98 148.278 113.723 149.833 113.723C151.447 113.723 152.887 113.975 154.155 114.48C155.432 114.985 156.442 115.728 157.184 116.708C157.927 117.688 158.298 118.901 158.298 120.347C158.298 120.475 158.298 120.599 158.298 120.718C158.298 120.837 158.298 120.96 158.298 121.089H152.313C152.313 121.04 152.313 120.965 152.313 120.866C152.313 120.757 152.313 120.678 152.313 120.629C152.313 119.985 152.13 119.441 151.764 118.995C151.407 118.55 150.788 118.327 149.907 118.327C149.036 118.327 148.363 118.485 147.887 118.802C147.422 119.119 147.189 119.579 147.189 120.183C147.189 120.609 147.387 120.985 147.783 121.312C148.179 121.629 148.724 121.926 149.417 122.203C150.12 122.48 150.912 122.777 151.793 123.094C153.12 123.559 154.283 124.074 155.283 124.639C156.283 125.193 157.061 125.891 157.615 126.733C158.179 127.574 158.462 128.653 158.462 129.97C158.462 131.347 158.09 132.515 157.348 133.475C156.605 134.426 155.58 135.149 154.274 135.644C152.976 136.139 151.496 136.386 149.833 136.386ZM160.108 136L165.202 114.094H174.722L179.787 136H173.653L169.955 117.673H169.985L166.242 136H160.108ZM164.564 131.396V126.896H175.376V131.396H164.564Z" fill="#ED0600"/>
<path d="M150 5.56297L181.811 88.1284L182.304 89.4093H183.677H285.566L203.446 139.726L202.026 140.596L202.624 142.15L234.179 224.051L151.045 173.113L150 172.473L148.955 173.113L65.8208 224.051L97.3756 142.15L97.9744 140.596L96.5542 139.726L14.4338 89.4093H116.323H117.696L118.189 88.1284L150 5.56297Z" stroke="#ED0600" stroke-width="4"/>
</svg>
