<svg width="267" height="268" viewBox="0 0 267 268" fill="none" xmlns="http://www.w3.org/2000/svg">
<path d="M83.5082 135.104L83.4637 137.748L76.6171 128.228H83.1369L87.5627 135.178H83.9686L88.4538 128.228H94.8399L88.335 137.05L87.8449 134.05L94.8696 144H88.335L83.7013 136.931H87.8003L82.7063 144H76.3201L83.5082 135.104ZM109.812 144H103.976V122.094H113.124L119.169 142.203L118.01 142.441V122.094H123.847V144H114.624L108.58 123.965L109.812 123.728V144ZM130.45 126.55L133.153 123.847V132.386L131.816 130.782H139.687V135.238H131.816L133.153 133.649V142.248L130.45 139.545H141.336V144H127.123V122.094H141.336V126.55H130.45ZM144.614 144V122.094H154.327C156.822 122.094 158.664 122.649 159.852 123.757C161.05 124.856 161.649 126.391 161.649 128.361C161.649 129.47 161.436 130.416 161.01 131.198C160.585 131.98 160.055 132.584 159.421 133.01C158.787 133.436 158.159 133.673 157.535 133.723C158.179 133.762 158.778 133.916 159.332 134.183C159.886 134.45 160.332 134.881 160.669 135.475C161.015 136.059 161.188 136.851 161.188 137.851C161.188 138.485 161.188 139.089 161.188 139.663C161.188 140.238 161.188 140.842 161.188 141.475C161.188 142 161.228 142.5 161.307 142.975C161.396 143.441 161.53 143.782 161.708 144H155.708C155.55 143.752 155.426 143.401 155.337 142.946C155.258 142.49 155.218 142 155.218 141.475C155.218 140.931 155.218 140.441 155.218 140.005C155.218 139.569 155.218 139.079 155.218 138.535C155.218 137.743 155.05 137.119 154.713 136.663C154.377 136.198 153.768 135.965 152.886 135.965H148.906L150.466 134.139V144H144.614ZM150.466 133.604L148.906 131.51H152.946C153.451 131.51 153.891 131.406 154.268 131.198C154.654 130.99 154.951 130.693 155.159 130.307C155.377 129.911 155.485 129.45 155.485 128.926C155.485 128.282 155.253 127.723 154.787 127.248C154.332 126.772 153.708 126.535 152.916 126.535H148.758L150.466 124.752V133.604ZM164.368 144V122.094H172.506C173.982 122.094 175.333 122.366 176.561 122.911C177.789 123.455 178.848 124.218 179.739 125.198C180.63 126.178 181.318 127.332 181.804 128.658C182.289 129.985 182.531 131.431 182.531 132.995C182.531 134.559 182.289 136.01 181.804 137.347C181.318 138.683 180.63 139.851 179.739 140.851C178.848 141.842 177.789 142.614 176.561 143.168C175.333 143.723 173.982 144 172.506 144H164.368ZM170.368 142.248L167.665 139.545H171.704C172.556 139.545 173.338 139.282 174.051 138.757C174.774 138.223 175.353 137.465 175.789 136.485C176.224 135.505 176.442 134.342 176.442 132.995C176.442 131.639 176.224 130.48 175.789 129.52C175.353 128.559 174.774 127.827 174.051 127.322C173.338 126.807 172.556 126.55 171.704 126.55H167.665L170.368 123.847V142.248Z" fill="#3822E4"/>
<path d="M133.8 260.5C108.6 179.5 87.7 158.9 7 133.7C87.7 108.5 108.6 87.9998 133.8 7.2998C159 87.9998 179.5 108.5 260.2 133.7C179.5 158.9 159 179.5 133.8 260.5Z" stroke="#3822E4" stroke-width="4" stroke-miterlimit="10"/>
</svg>
