<svg width="267" height="267" viewBox="0 0 267 267" fill="none" xmlns="http://www.w3.org/2000/svg">
<path d="M83.5082 134.804L83.4637 137.448L76.6171 127.928H83.1369L87.5627 134.878H83.9686L88.4538 127.928H94.8399L88.335 136.75L87.8449 133.75L94.8696 143.7H88.335L83.7013 136.631H87.8003L82.7063 143.7H76.3201L83.5082 134.804ZM109.812 143.7H103.976V121.794H113.124L119.169 141.903L118.01 142.141V121.794H123.847V143.7H114.624L108.58 123.666L109.812 123.428V143.7ZM130.45 126.25L133.153 123.547V132.086L131.816 130.482H139.687V134.938H131.816L133.153 133.349V141.948L130.45 139.245H141.336V143.7H127.123V121.794H141.336V126.25H130.45ZM144.614 143.7V121.794H154.327C156.822 121.794 158.664 122.349 159.852 123.458C161.05 124.557 161.649 126.091 161.649 128.062C161.649 129.17 161.436 130.116 161.01 130.898C160.585 131.68 160.055 132.284 159.421 132.71C158.787 133.136 158.159 133.373 157.535 133.423C158.179 133.463 158.778 133.616 159.332 133.883C159.886 134.151 160.332 134.581 160.669 135.175C161.015 135.76 161.188 136.552 161.188 137.552C161.188 138.185 161.188 138.789 161.188 139.364C161.188 139.938 161.188 140.542 161.188 141.175C161.188 141.7 161.228 142.2 161.307 142.675C161.396 143.141 161.53 143.482 161.708 143.7H155.708C155.55 143.453 155.426 143.101 155.337 142.646C155.258 142.19 155.218 141.7 155.218 141.175C155.218 140.631 155.218 140.141 155.218 139.705C155.218 139.27 155.218 138.779 155.218 138.235C155.218 137.443 155.05 136.819 154.713 136.364C154.377 135.898 153.768 135.666 152.886 135.666H148.906L150.466 133.839V143.7H144.614ZM150.466 133.304L148.906 131.21H152.946C153.451 131.21 153.891 131.106 154.268 130.898C154.654 130.69 154.951 130.393 155.159 130.007C155.377 129.611 155.485 129.151 155.485 128.626C155.485 127.982 155.253 127.423 154.787 126.948C154.332 126.472 153.708 126.235 152.916 126.235H148.758L150.466 124.453V133.304ZM164.368 143.7V121.794H172.506C173.982 121.794 175.333 122.067 176.561 122.611C177.789 123.156 178.848 123.918 179.739 124.898C180.63 125.878 181.318 127.032 181.804 128.359C182.289 129.685 182.531 131.131 182.531 132.695C182.531 134.26 182.289 135.71 181.804 137.047C181.318 138.383 180.63 139.552 179.739 140.552C178.848 141.542 177.789 142.314 176.561 142.869C175.333 143.423 173.982 143.7 172.506 143.7H164.368ZM170.368 141.948L167.665 139.245H171.704C172.556 139.245 173.338 138.982 174.051 138.458C174.774 137.923 175.353 137.166 175.789 136.185C176.224 135.205 176.442 134.042 176.442 132.695C176.442 131.339 176.224 130.18 175.789 129.22C175.353 128.26 174.774 127.527 174.051 127.022C173.338 126.507 172.556 126.25 171.704 126.25H167.665L170.368 123.547V141.948Z" fill="#ED0600"/>
<path d="M133.8 260.2C108.6 179.2 87.7 158.6 7 133.4C87.7 108.2 108.6 87.7 133.8 7C159 87.7 179.5 108.2 260.2 133.4C179.5 158.6 159 179.2 133.8 260.2Z" stroke="#ED0600" stroke-width="4" stroke-miterlimit="10"/>
</svg>
