<svg width="141" height="93" viewBox="0 0 141 93" fill="none" xmlns="http://www.w3.org/2000/svg">
<path d="M119.434 14.9038C109.067 5.151 96.5187 0 83.1227 0C69.8709 0 56.9797 5.29944 46.811 14.9038C43.8001 17.7242 41.0956 20.7673 38.6977 23.9737C36.3178 20.7673 33.6133 17.739 30.6024 14.9038C25.9688 10.5543 20.7762 7.14014 15.2592 4.66113V1.05395H0.853516V12.9146H15.2592V10.6583C18.9913 12.6771 22.5612 15.2006 25.8786 18.318C29.4305 21.6579 32.5316 25.3245 35.1459 29.2583C28.7273 39.872 25.3918 52.1631 25.3918 65.5676C25.3918 82.223 30.6024 93 38.6797 93C46.7569 93 51.9675 82.2378 51.9675 65.5676C51.9675 52.1631 48.632 39.872 42.2315 29.2583C44.8638 25.3245 47.9649 21.6579 51.5348 18.318C60.6217 9.72307 71.5477 5.18069 83.1227 5.18069C94.6436 5.18069 105.57 9.72307 114.711 18.318C127.71 30.5497 134.561 46.8785 134.561 65.5527C134.561 80.8425 125.51 87.8045 117.09 87.8045C108.671 87.8045 99.6198 80.8425 99.6198 65.5527C99.6198 59.6447 100.359 53.9445 101.729 48.5114L110.42 51.1092L108.851 24.4338L86.8368 44.0581L95.7795 46.7301C94.1929 52.7124 93.3455 59.0212 93.3455 65.5379C93.3455 73.7914 95.7975 80.7682 100.431 85.7411C104.722 90.328 110.798 92.9555 117.09 92.9555C128.539 92.9555 140.854 84.3754 140.854 65.5231C140.854 45.6019 133.443 28.1004 119.434 14.9038ZM45.6932 65.5527C45.6932 82.3269 40.4826 87.8045 38.6797 87.8045C36.8767 87.8045 31.6661 82.3269 31.6661 65.5527C31.6661 54.5085 34.046 44.3105 38.6797 35.2851C43.3133 44.3105 45.6932 54.5234 45.6932 65.5527Z" fill="white"/>
</svg>
