<svg width="128" height="48" viewBox="0 0 128 48" fill="none" xmlns="http://www.w3.org/2000/svg">
<path d="M20.0506 12.8168H19.8558L14.0902 0.599933C13.9188 0.23374 13.5448 0 13.1397 0H2.33308C1.74873 0 1.28125 0.467481 1.28125 1.05183V24.0129C1.28125 24.5973 1.74873 25.0647 2.33308 25.0647H10.101C10.6854 25.0647 11.1529 24.5973 11.1529 24.0129V12.1389H11.3477L17.5262 24.4882C17.7054 24.8466 18.0716 25.0725 18.4689 25.0725H28.8704C29.4547 25.0725 29.9222 24.605 29.9222 24.0207V1.05183C29.9222 0.467481 29.4547 0 28.8704 0H21.1024C20.5181 0 20.0506 0.467481 20.0506 1.05183V12.8168Z" fill="#3822E4"/>
<path d="M43.845 14.0789H57.7136C58.0486 14.0789 58.3291 13.8063 58.3291 13.4634V11.6013C58.3291 11.2663 58.0564 10.9858 57.7136 10.9858H43.845V7.44852H58.3447C58.9291 7.44852 59.3965 6.98104 59.3965 6.39669V1.05183C59.3965 0.467481 58.9291 0 58.3447 0H34.2227C33.6384 0 33.1709 0.467481 33.1709 1.05183V24.0285C33.1709 24.5973 33.6384 25.0647 34.2071 25.0647H58.5083C59.0927 25.0647 59.5602 24.5973 59.5602 24.0129V18.9953C59.5602 18.4109 59.0927 17.9435 58.5083 17.9435H43.845V14.0789Z" fill="#3822E4"/>
<path d="M91.4417 9.91837C91.4417 1.21545 86.4553 0 79.856 0H63.8526C63.2683 0 62.8008 0.467481 62.8008 1.05183V24.0129C62.8008 24.5973 63.2683 25.0647 63.8526 25.0647H72.4231C73.0074 25.0647 73.4749 24.5973 73.4749 24.0129V19.5874H75.2825C75.8513 22.3456 78.0718 24.4804 80.8689 24.9479C81.2039 25.018 81.5545 25.0647 81.9363 25.0647H90.3899C90.9743 25.0647 91.4417 24.5973 91.4417 24.0129V19.5874C91.4417 19.0031 90.9743 18.5356 90.3899 18.5356H86.9383C89.8601 17.3435 91.4417 14.8815 91.4417 9.91837ZM73.4827 7.3784H78.2978C79.482 7.3784 80.4715 8.29778 80.565 9.47427C80.7832 12.2168 79.9261 13.1362 77.5576 13.2141H73.4827V7.3784Z" fill="#3822E4"/>
<path d="M122.851 12.3882C122.851 3.28795 118.449 0 109.91 0H95.753C95.1686 0 94.7012 0.467481 94.7012 1.05183V23.8727C94.7012 24.5349 95.2388 25.0647 95.8932 25.0647H109.91C118.449 25.0647 122.851 21.769 122.851 12.6765C122.851 12.6298 122.843 12.583 122.843 12.5363C122.843 12.4817 122.851 12.4428 122.851 12.3882ZM108.087 17.3669H105.204V14.5464V7.69784H108.087C111.266 7.69784 112.115 9.43531 112.154 12.5363C112.115 15.6294 111.273 17.3669 108.087 17.3669Z" fill="#3822E4"/>
<path d="M7.462 41.368C7.462 41.8533 7.34533 42.306 7.112 42.726C6.87867 43.1367 6.524 43.468 6.048 43.72C5.572 43.972 4.98867 44.098 4.298 44.098C3.626 44.098 3.024 43.9813 2.492 43.748C1.96 43.5053 1.53533 43.1693 1.218 42.74C0.900667 42.3107 0.718667 41.816 0.672 41.256H2.38C2.42667 41.6853 2.60867 42.054 2.926 42.362C3.25267 42.67 3.68667 42.824 4.228 42.824C4.71333 42.824 5.08667 42.6933 5.348 42.432C5.61867 42.1707 5.754 41.8347 5.754 41.424C5.754 41.0693 5.656 40.78 5.46 40.556C5.264 40.3227 5.02133 40.1407 4.732 40.01C4.44267 39.8793 4.046 39.73 3.542 39.562C2.926 39.366 2.422 39.17 2.03 38.974C1.64733 38.778 1.32067 38.4933 1.05 38.12C0.779333 37.7467 0.644 37.2567 0.644 36.65C0.644 36.118 0.774667 35.6513 1.036 35.25C1.29733 34.8487 1.67067 34.5407 2.156 34.326C2.64133 34.102 3.20133 33.99 3.836 33.99C4.844 33.99 5.642 34.2327 6.23 34.718C6.82733 35.2033 7.168 35.838 7.252 36.622H5.53C5.46467 36.2487 5.28733 35.9313 4.998 35.67C4.718 35.3993 4.33067 35.264 3.836 35.264C3.388 35.264 3.02867 35.3807 2.758 35.614C2.48733 35.838 2.352 36.1647 2.352 36.594C2.352 36.93 2.44533 37.21 2.632 37.434C2.81867 37.6487 3.052 37.8213 3.332 37.952C3.62133 38.0733 4.01333 38.218 4.508 38.386C5.13333 38.582 5.642 38.7827 6.034 38.988C6.43533 39.184 6.77133 39.4733 7.042 39.856C7.322 40.2387 7.462 40.7427 7.462 41.368ZM12.9378 42.614V44H11.9578C11.1364 44 10.5111 43.804 10.0818 43.412C9.66175 43.0107 9.45175 42.348 9.45175 41.424V37.644H8.34575V36.286H9.45175V34.368H11.0618V36.286H12.9238V37.644H11.0618V41.452C11.0618 41.8907 11.1411 42.194 11.2998 42.362C11.4678 42.53 11.7571 42.614 12.1678 42.614H12.9378ZM21.5448 36.286V44H19.9348V42.32C19.7388 42.8893 19.3981 43.3327 18.9128 43.65C18.4275 43.958 17.8628 44.112 17.2188 44.112C16.3228 44.112 15.6041 43.8227 15.0628 43.244C14.5215 42.6653 14.2508 41.8393 14.2508 40.766V36.286H15.8468V40.598C15.8468 41.298 16.0241 41.8393 16.3788 42.222C16.7335 42.5953 17.2188 42.782 17.8348 42.782C18.4695 42.782 18.9781 42.5767 19.3608 42.166C19.7435 41.7553 19.9348 41.158 19.9348 40.374V36.286H21.5448ZM26.5502 36.188C27.2502 36.188 27.8476 36.3607 28.3422 36.706C28.8369 37.0513 29.1822 37.5087 29.3782 38.078V33.64H30.9882V44H29.3782V42.208C29.1822 42.7773 28.8369 43.2347 28.3422 43.58C27.8476 43.9253 27.2502 44.098 26.5502 44.098C25.8782 44.098 25.2762 43.9393 24.7442 43.622C24.2216 43.3047 23.8109 42.8473 23.5122 42.25C23.2136 41.6527 23.0642 40.948 23.0642 40.136C23.0642 39.3333 23.2136 38.6333 23.5122 38.036C23.8109 37.4387 24.2216 36.9813 24.7442 36.664C25.2762 36.3467 25.8782 36.188 26.5502 36.188ZM27.0402 37.588C26.3309 37.588 25.7616 37.8167 25.3322 38.274C24.9122 38.722 24.7022 39.3427 24.7022 40.136C24.7022 40.9293 24.9122 41.5547 25.3322 42.012C25.7616 42.46 26.3309 42.684 27.0402 42.684C27.4882 42.684 27.8896 42.5813 28.2442 42.376C28.5989 42.1613 28.8789 41.8627 29.0842 41.48C29.2896 41.0973 29.3922 40.6493 29.3922 40.136C29.3922 39.632 29.2896 39.1887 29.0842 38.806C28.8789 38.414 28.5989 38.1153 28.2442 37.91C27.8896 37.6953 27.4882 37.588 27.0402 37.588ZM32.6795 34.046C32.6795 33.7753 32.7728 33.5513 32.9595 33.374C33.1462 33.1967 33.3935 33.108 33.7015 33.108C34.0095 33.108 34.2568 33.1967 34.4435 33.374C34.6395 33.5513 34.7375 33.7753 34.7375 34.046C34.7375 34.3167 34.6395 34.536 34.4435 34.704C34.2568 34.872 34.0095 34.956 33.7015 34.956C33.3935 34.956 33.1462 34.872 32.9595 34.704C32.7728 34.536 32.6795 34.3167 32.6795 34.046ZM34.4995 36.286V44H32.9035V36.286H34.4995ZM39.9588 36.188C40.7055 36.188 41.3775 36.3467 41.9748 36.664C42.5722 36.9813 43.0388 37.4387 43.3748 38.036C43.7108 38.6333 43.8788 39.3333 43.8788 40.136C43.8788 40.948 43.7108 41.6527 43.3748 42.25C43.0388 42.8473 42.5722 43.3047 41.9748 43.622C41.3775 43.9393 40.7055 44.098 39.9588 44.098C39.2122 44.098 38.5402 43.9393 37.9428 43.622C37.3548 43.3047 36.8882 42.8473 36.5428 42.25C36.2068 41.6433 36.0388 40.9387 36.0388 40.136C36.0388 39.3333 36.2068 38.6333 36.5428 38.036C36.8882 37.4387 37.3548 36.9813 37.9428 36.664C38.5402 36.3467 39.2122 36.188 39.9588 36.188ZM39.9588 37.574C39.5482 37.574 39.1702 37.6673 38.8248 37.854C38.4795 38.0407 38.1995 38.33 37.9848 38.722C37.7795 39.1047 37.6768 39.576 37.6768 40.136C37.6768 40.7053 37.7795 41.1813 37.9848 41.564C38.1995 41.9467 38.4795 42.2313 38.8248 42.418C39.1702 42.6047 39.5482 42.698 39.9588 42.698C40.3695 42.698 40.7475 42.6047 41.0928 42.418C41.4382 42.2313 41.7135 41.9467 41.9188 41.564C42.1335 41.1813 42.2408 40.7053 42.2408 40.136C42.2408 39.576 42.1335 39.1047 41.9188 38.722C41.7135 38.33 41.4382 38.0407 41.0928 37.854C40.7475 37.6673 40.3695 37.574 39.9588 37.574ZM57.1785 39.044C57.1785 40.0427 56.9732 40.9153 56.5625 41.662C56.1612 42.3993 55.5685 42.9733 54.7845 43.384C54.0098 43.7947 53.0812 44 51.9985 44H48.6945V34.116H51.9985C53.0812 34.116 54.0098 34.3213 54.7845 34.732C55.5685 35.1333 56.1612 35.7027 56.5625 36.44C56.9732 37.1773 57.1785 38.0453 57.1785 39.044ZM51.8725 42.558C53.0578 42.558 53.9678 42.25 54.6025 41.634C55.2372 41.018 55.5545 40.1547 55.5545 39.044C55.5545 37.9333 55.2372 37.07 54.6025 36.454C53.9678 35.838 53.0578 35.53 51.8725 35.53H50.2905V42.558H51.8725ZM65.9524 39.772C65.9524 40.0333 65.9337 40.262 65.8964 40.458H59.9604C59.9884 41.2513 60.2077 41.8393 60.6184 42.222C61.029 42.6047 61.5377 42.796 62.1444 42.796C62.6764 42.796 63.1244 42.6607 63.4884 42.39C63.8617 42.1193 64.0904 41.76 64.1744 41.312H65.8824C65.7797 41.8533 65.565 42.334 65.2384 42.754C64.9117 43.174 64.487 43.5053 63.9644 43.748C63.4417 43.9813 62.8584 44.098 62.2144 44.098C61.4677 44.098 60.805 43.9393 60.2264 43.622C59.657 43.3047 59.209 42.8473 58.8824 42.25C58.5557 41.6527 58.3924 40.948 58.3924 40.136C58.3924 39.3333 58.5557 38.6333 58.8824 38.036C59.209 37.4387 59.657 36.9813 60.2264 36.664C60.805 36.3467 61.4677 36.188 62.2144 36.188C62.9704 36.188 63.6284 36.3467 64.1884 36.664C64.7577 36.972 65.1917 37.4013 65.4904 37.952C65.7984 38.4933 65.9524 39.1 65.9524 39.772ZM64.3424 39.73C64.361 39.226 64.2724 38.806 64.0764 38.47C63.8897 38.1247 63.6284 37.8727 63.2924 37.714C62.9657 37.546 62.6064 37.462 62.2144 37.462C61.589 37.462 61.0664 37.6533 60.6464 38.036C60.2264 38.4187 59.9977 38.9833 59.9604 39.73H64.3424ZM70.0273 36.188C70.9327 36.188 71.656 36.4213 72.1973 36.888C72.748 37.3453 73.084 37.9613 73.2053 38.736H71.6933C71.628 38.316 71.446 37.98 71.1473 37.728C70.858 37.4667 70.4707 37.336 69.9853 37.336C69.584 37.336 69.2713 37.434 69.0473 37.63C68.8327 37.8167 68.7253 38.0733 68.7253 38.4C68.7253 38.6427 68.8047 38.8387 68.9633 38.988C69.122 39.1373 69.318 39.254 69.5513 39.338C69.794 39.422 70.1347 39.5153 70.5733 39.618C71.152 39.7487 71.6187 39.884 71.9733 40.024C72.3373 40.164 72.6453 40.388 72.8973 40.696C73.1587 40.9947 73.2893 41.4053 73.2893 41.928C73.2893 42.572 73.042 43.0947 72.5473 43.496C72.062 43.8973 71.404 44.098 70.5733 44.098C69.612 44.098 68.8327 43.874 68.2353 43.426C67.6473 42.978 67.2927 42.3527 67.1713 41.55H68.7253C68.772 41.97 68.9587 42.3107 69.2853 42.572C69.612 42.8333 70.0413 42.964 70.5733 42.964C70.956 42.964 71.2547 42.866 71.4693 42.67C71.6933 42.4647 71.8053 42.208 71.8053 41.9C71.8053 41.6293 71.7213 41.4147 71.5533 41.256C71.3853 41.0973 71.1753 40.976 70.9233 40.892C70.6713 40.7987 70.326 40.7053 69.8873 40.612C69.3273 40.4813 68.87 40.3507 68.5153 40.22C68.17 40.0893 67.8713 39.8793 67.6193 39.59C67.3767 39.2913 67.2553 38.89 67.2553 38.386C67.2553 37.7327 67.498 37.2053 67.9833 36.804C68.478 36.3933 69.1593 36.188 70.0273 36.188ZM74.6658 34.046C74.6658 33.7753 74.7592 33.5513 74.9458 33.374C75.1325 33.1967 75.3798 33.108 75.6878 33.108C75.9958 33.108 76.2432 33.1967 76.4298 33.374C76.6258 33.5513 76.7238 33.7753 76.7238 34.046C76.7238 34.3167 76.6258 34.536 76.4298 34.704C76.2432 34.872 75.9958 34.956 75.6878 34.956C75.3798 34.956 75.1325 34.872 74.9458 34.704C74.7592 34.536 74.6658 34.3167 74.6658 34.046ZM76.4858 36.286V44H74.8898V36.286H76.4858ZM81.5112 36.188C82.2112 36.188 82.8085 36.3607 83.3032 36.706C83.7978 37.0513 84.1478 37.5087 84.3532 38.078V36.286H85.9492V44.084C85.9492 44.8027 85.7998 45.4373 85.5012 45.988C85.2118 46.548 84.7918 46.9867 84.2412 47.304C83.6905 47.6213 83.0372 47.78 82.2812 47.78C81.1985 47.78 80.3212 47.5233 79.6492 47.01C78.9865 46.4967 78.5712 45.8013 78.4032 44.924H79.9852C80.1158 45.3813 80.3678 45.736 80.7412 45.988C81.1145 46.2493 81.5905 46.38 82.1692 46.38C82.8038 46.38 83.3265 46.184 83.7372 45.792C84.1478 45.4 84.3532 44.8307 84.3532 44.084V42.208C84.1478 42.7773 83.7978 43.2347 83.3032 43.58C82.8085 43.9253 82.2112 44.098 81.5112 44.098C80.8392 44.098 80.2372 43.9393 79.7052 43.622C79.1825 43.3047 78.7718 42.8473 78.4732 42.25C78.1745 41.6527 78.0252 40.948 78.0252 40.136C78.0252 39.3333 78.1745 38.6333 78.4732 38.036C78.7718 37.4387 79.1825 36.9813 79.7052 36.664C80.2372 36.3467 80.8392 36.188 81.5112 36.188ZM82.0012 37.588C81.2918 37.588 80.7225 37.8167 80.2932 38.274C79.8732 38.722 79.6632 39.3427 79.6632 40.136C79.6632 40.9293 79.8732 41.5547 80.2932 42.012C80.7225 42.46 81.2918 42.684 82.0012 42.684C82.4492 42.684 82.8505 42.5813 83.2052 42.376C83.5598 42.1613 83.8398 41.8627 84.0452 41.48C84.2505 41.0973 84.3532 40.6493 84.3532 40.136C84.3532 39.632 84.2505 39.1887 84.0452 38.806C83.8398 38.414 83.5598 38.1153 83.2052 37.91C82.8505 37.6953 82.4492 37.588 82.0012 37.588ZM92.1764 36.16C93.0724 36.16 93.7911 36.4493 94.3324 37.028C94.8738 37.6067 95.1444 38.4327 95.1444 39.506V44H93.5484V39.674C93.5484 38.9833 93.3711 38.4513 93.0164 38.078C92.6618 37.6953 92.1764 37.504 91.5604 37.504C90.9258 37.504 90.4171 37.7093 90.0344 38.12C89.6518 38.5213 89.4604 39.114 89.4604 39.898V44H87.8644V36.286H89.4604V37.98C89.6658 37.4013 90.0111 36.9533 90.4964 36.636C90.9818 36.3187 91.5418 36.16 92.1764 36.16Z" fill="#3822E4"/>
</svg>
