<svg width="141" height="197" viewBox="0 0 141 197" fill="none" xmlns="http://www.w3.org/2000/svg">
<path d="M128.514 108.17C138.105 84.6767 147.695 60.7979 134.652 36.534H135.803V19.2026H118.54V26.5203H105.88C105.497 9.95919 89.7681 -2.7505 72.8886 1.10092C62.9144 3.41176 55.6255 10.7295 52.9402 19.9729C49.1039 6.87813 35.6771 -2.36536 21.0993 1.10092C8.82336 3.79691 0 14.9661 0 27.6758C0 42.6963 12.2759 55.0207 27.2373 55.0207C32.608 55.0207 37.5952 53.4802 42.1987 50.3991C42.5823 50.014 42.9659 49.6288 43.3496 49.6288C44.5004 53.4802 44.884 56.9464 44.884 60.7978C40.6642 59.2573 34.9098 56.9465 30.6899 61.5682C28.7718 63.4939 28.0045 66.1898 28.3882 68.5007C29.1554 72.3521 32.9917 76.2035 37.9788 78.5144C39.1297 78.8995 40.6642 79.6698 42.1987 80.0549C39.8969 88.9132 36.0607 98.1566 32.6081 107.4C23.0175 130.894 13.4268 154.772 26.47 179.036H24.9356V196.368H42.1987V189.05H118.924V196.368H136.187V179.036H123.143C109.333 155.543 118.54 132.434 128.514 108.17ZM121.225 21.8986H132.734V33.4529H121.225V21.8986ZM54.8583 25.7501C55.6255 13.0404 65.9834 3.02662 78.643 3.02662C91.3026 3.02662 101.66 13.0404 102.428 25.7501H54.8583ZM2.68536 25.7501C3.45261 13.0404 13.8104 3.02662 26.47 3.02662C39.1297 3.02662 49.4875 13.0404 50.2547 25.7501H2.68536ZM102.428 28.8311C102.044 36.1488 98.2078 43.0813 92.0698 47.3179L84.3973 28.8311H102.428ZM40.2805 47.3179L32.6081 28.8311H50.6384C50.2548 36.1488 46.4185 43.0813 40.2805 47.3179ZM30.6899 67.7305C30.3063 66.1899 30.6899 64.6493 32.2244 63.1087C33.3753 61.5681 34.9098 61.183 36.4443 61.183C38.3624 61.183 41.0478 61.9533 43.7331 63.1087H44.1168C49.8712 65.4196 56.7764 65.4196 62.5308 63.1087H62.9144C67.9015 61.183 71.7377 60.0276 74.4231 63.1087C75.574 64.2641 75.9576 65.8048 75.9576 67.7305C75.1904 70.8116 72.1213 73.8927 67.9015 75.8185C67.5179 75.8185 67.1342 76.2035 66.7506 76.2035C65.5997 73.8927 63.298 70.4264 58.6945 70.4264C56.7764 70.4264 55.6255 70.8116 54.091 71.5819C52.9401 70.8116 49.4875 68.8859 45.2677 71.5819C42.5823 73.1224 41.4314 75.0481 41.0478 76.5887C40.2805 76.2035 39.5133 76.2036 38.746 75.8185C34.5261 73.8927 31.0736 70.8116 30.6899 67.7305ZM43.7331 77.359C44.1168 76.2036 44.884 75.0482 46.8021 73.8927C49.1039 72.7373 50.6384 73.1224 51.7893 73.5076C50.6384 74.663 49.8712 75.8185 49.8712 75.8185C49.4875 76.5887 49.8711 77.359 50.6384 77.7442C51.4056 78.1293 52.1729 77.7441 52.5565 76.9738C52.5565 76.9738 54.4747 73.1224 58.6945 73.1224C61.7635 73.1224 63.298 75.4333 64.0652 76.9738C57.5436 78.8995 50.2548 78.8996 43.7331 77.359ZM38.746 193.287H27.2373V181.732H38.746V189.05V193.287ZM41.815 185.969V178.651H29.1554C15.7286 155.158 24.9355 132.434 34.9098 108.17C38.746 98.9269 42.1987 89.6835 44.884 80.4401C47.953 81.2104 50.6384 81.5956 53.7074 81.5956C58.3109 81.5956 62.5307 80.8253 66.7506 79.2847C66.7506 79.2847 66.7506 79.2847 67.1342 79.2847C67.9015 78.8996 68.6687 78.8995 69.436 78.5144C74.8067 76.2035 78.2593 72.3521 79.0266 68.5007C79.4102 65.8047 78.6429 63.4939 77.1084 61.5682C72.8886 56.5613 66.7506 59.2573 62.1471 60.7978H61.7635C57.16 62.7235 52.1729 62.7236 47.1858 61.5682C47.1858 56.9465 46.4185 52.3248 45.2677 47.7031C48.7203 44.2368 51.4057 40.0003 52.9402 35.3786C56.0092 46.5477 66.7506 55.0207 79.0266 55.0207C84.3973 55.0207 89.3844 53.4802 93.9879 50.3991C100.893 45.7774 105.497 38.0746 105.88 29.6015H118.924V36.9191H131.583C145.01 60.0276 135.803 83.1361 125.829 107.4C116.238 130.894 106.648 154.772 119.691 179.036H118.54V186.354H41.815V185.969ZM133.118 193.287H121.609V181.732H133.118V193.287Z" fill="#ED0600"/>
</svg>
