<svg width="37" height="37" viewBox="0 0 37 37" fill="none" xmlns="http://www.w3.org/2000/svg">
<path d="M36.4675 10.7983C36.447 9.2622 36.159 7.74133 35.6163 6.30377C35.1457 5.09119 34.4268 3.98995 33.5058 3.07041C32.5847 2.15087 31.4816 1.43326 30.267 0.963414C28.8456 0.430711 27.3439 0.142669 25.8259 0.111553C23.8715 0.024339 23.2519 0 18.2907 0C13.3294 0 12.6935 1.36004e-07 10.7534 0.111553C9.23606 0.142898 7.73507 0.430936 6.31427 0.963414C5.09948 1.43293 3.99623 2.15043 3.07512 3.07001C2.15401 3.98959 1.43532 5.091 0.965018 6.30377C0.43036 7.72177 0.142463 9.2206 0.113771 10.7355C0.026411 12.6887 0 13.3073 0 18.2602C0 23.2132 -1.51367e-08 23.846 0.113771 25.785C0.144245 27.3021 0.430703 28.799 0.965018 30.2208C1.4361 31.4332 2.15533 32.5341 3.07675 33.4533C3.99817 34.3725 5.10152 35.0897 6.3163 35.5591C7.73322 36.1132 9.23446 36.4219 10.7554 36.4718C12.7118 36.559 13.3315 36.5854 18.2927 36.5854C23.2539 36.5854 23.8898 36.5854 25.83 36.4718C27.3479 36.4419 28.8497 36.1546 30.2711 35.622C31.4854 35.1516 32.5882 34.4338 33.5092 33.5143C34.4302 32.5948 35.1492 31.4939 35.6203 30.2816C36.1547 28.8618 36.4411 27.365 36.4716 25.8458C36.559 23.8947 36.5854 23.2761 36.5854 18.3211C36.5813 13.3681 36.5813 12.7394 36.4675 10.7983ZM18.2785 27.6266C13.0897 27.6266 8.88629 23.4302 8.88629 18.2501C8.88629 13.07 13.0897 8.87354 18.2785 8.87354C20.7694 8.87354 23.1584 9.86143 24.9197 11.6199C26.6811 13.3783 27.6706 15.7633 27.6706 18.2501C27.6706 20.7369 26.6811 23.1219 24.9197 24.8803C23.1584 26.6388 20.7694 27.6266 18.2785 27.6266ZM28.0444 10.7132C27.7568 10.7134 27.4719 10.6571 27.206 10.5473C26.9402 10.4375 26.6987 10.2764 26.4952 10.0734C26.2918 9.87028 26.1305 9.62914 26.0205 9.36375C25.9106 9.09835 25.8541 8.81392 25.8544 8.52672C25.8544 8.23972 25.911 7.95554 26.021 7.69039C26.131 7.42524 26.2923 7.18432 26.4955 6.98139C26.6988 6.77845 26.9401 6.61747 27.2057 6.50764C27.4713 6.39782 27.756 6.34129 28.0434 6.34129C28.3309 6.34129 28.6156 6.39782 28.8812 6.50764C29.1467 6.61747 29.3881 6.77845 29.5913 6.98139C29.7946 7.18432 29.9559 7.42524 30.0659 7.69039C30.1759 7.95554 30.2325 8.23972 30.2325 8.52672C30.2325 9.73555 29.2533 10.7132 28.0444 10.7132Z" fill="white"/>
<path d="M18.2926 24.3902C21.6602 24.3902 24.3902 21.6602 24.3902 18.2926C24.3902 14.925 21.6602 12.1951 18.2926 12.1951C14.925 12.1951 12.1951 14.925 12.1951 18.2926C12.1951 21.6602 14.925 24.3902 18.2926 24.3902Z" fill="white"/>
</svg>
