<svg width="223" height="40" viewBox="0 0 223 40" fill="none" xmlns="http://www.w3.org/2000/svg">
<path fill-rule="evenodd" clip-rule="evenodd" d="M0.875732 39.7403H35.208C37.884 39.7403 40.0503 37.5529 40.0503 34.8734V0.896484H5.71789C3.06014 0.896484 0.875732 3.08384 0.875732 5.76335V39.7403ZM10.1233 33.5428L30.4933 29.9701V8.64337L10.1233 12.2161V33.5428Z" fill="#3822E4" fill-opacity="0.8"/>
<path fill-rule="evenodd" clip-rule="evenodd" d="M143.665 16.6269C146.923 16.6269 149.545 19.4522 149.545 23.9546C149.545 28.4386 146.923 31.3733 143.665 31.3733C141.917 31.3733 140.425 30.626 139.351 29.2589C138.295 27.8371 137.985 26.3242 137.967 24.5379C137.931 22.4234 138.113 20.6553 139.059 19.2153C140.17 17.593 141.845 16.6269 143.665 16.6269ZM138.149 6.34633L138.095 15.7702C140.807 12.9996 143.847 12.3251 147.633 13.3641C151.893 14.5307 154.332 18.5409 154.387 24.0457C154.496 31.0817 149.599 35.4929 143.811 35.5293C137.457 35.584 133.07 31.1181 133.107 24.6108V6.32812H138.149V6.34633ZM128.829 12.1611H130.303V17.192H128.829V17.1738C127.737 17.1738 126.735 17.6477 125.989 18.3768C125.261 19.0877 124.824 20.0902 124.824 21.2204H124.842V35.1101H119.8V21.2204C119.8 18.7049 120.819 16.4629 122.476 14.8041C124.114 13.1818 126.335 12.1975 128.829 12.1975V12.1611ZM109.078 26.47H101.796C101.851 26.7434 101.942 26.9804 102.051 27.1991C102.925 29.4959 104.873 30.6625 107.093 31.0635H107.112C107.403 31.0999 107.749 31.1546 108.058 31.1911C108.35 31.2275 108.677 31.2457 108.987 31.2457C111.371 31.3004 113.21 30.5348 114.357 29.9151C114.521 30.8812 114.411 32.6128 114.284 33.2508C113.865 35.3653 110.043 35.5293 108.641 35.5293V35.5475C108.204 35.5475 107.767 35.5293 107.312 35.4929C106.857 35.4564 106.42 35.4017 105.965 35.3106C100.103 34.2716 96.9358 29.2042 97.1724 23.6082V23.59V23.5171C97.3362 18.8143 99.9576 14.6218 104.49 13.2183H104.509L104.581 13.1818L104.6 13.1636C108.24 12.0882 111.59 13.1089 113.829 15.0593C114.248 15.4603 114.648 15.8796 114.994 16.317C115.34 16.7727 115.668 17.2284 115.904 17.757L115.94 17.7935C116.45 18.869 116.687 19.835 116.687 20.7647C116.687 21.8948 116.305 22.8973 115.686 23.754C115.103 24.5014 114.375 25.0847 113.483 25.5039V25.5222C112.172 26.1966 110.57 26.47 109.078 26.47ZM101.687 22.6604H109.296C110.989 22.6604 112.937 21.8037 111.972 19.5434L111.936 19.5069C111.827 19.27 111.699 19.033 111.553 18.796C111.408 18.5408 111.171 18.2857 110.934 18.0669C109.697 16.8274 107.84 16.1165 105.801 16.791V16.7727L105.746 16.791C105.401 16.9186 105.073 17.0644 104.782 17.2102C104.49 17.3743 104.199 17.5748 103.944 17.7935C102.834 18.7049 102.033 20.5095 101.687 22.6604ZM88.5621 6.54684V12.4345H96.772L96.59 14.312C96.4079 15.9889 95.4431 16.4811 93.5499 16.5175H88.5621V27.2356C88.5803 27.5455 88.5984 28.2928 88.6531 28.5662C88.9807 30.225 89.9455 30.6807 91.5111 30.8447C93.0402 31.0635 95.5341 30.7536 96.7355 30.2432C96.9176 32.066 96.6627 34.5268 95.6251 34.9096C94.6057 35.2924 92.5305 35.4746 91.0924 35.4199C90.4189 35.4017 89.7089 35.347 88.9989 35.2012C87.8157 34.9825 86.1046 34.0528 85.2854 33.2326C83.7199 31.4645 83.6288 29.4412 83.5378 27.345L83.5196 27.2174V6.51039H88.5621V6.54684ZM68.811 12.1611H70.6132V12.1975C73.1253 12.1975 75.3826 13.2001 77.0027 14.8223C78.641 16.4629 79.6604 18.7231 79.6604 21.2204V35.1101H74.6362V21.2204H74.6543C74.6361 20.1085 74.1811 19.1059 73.4712 18.3768C72.743 17.6477 71.7054 17.192 70.6132 17.192V17.2102H68.811V17.192C67.7188 17.192 66.7176 17.6659 65.9712 18.395C65.2613 19.1059 64.8062 20.1085 64.8062 21.2386H64.8244V35.1283H59.8001V21.2386C59.8001 18.7231 60.8014 16.4811 62.4579 14.8223C64.0962 13.2001 66.3353 12.2157 68.8292 12.2157V12.1611H68.811ZM50.2067 6.10938H55.3037V35.1101H50.2067V6.10938ZM187.008 12.1611H188.792H188.81V12.1975C191.286 12.1975 193.561 13.2001 195.218 14.8223C196.82 16.4629 197.857 18.7231 197.857 21.2204H197.876V35.1101H192.815V21.2204H192.851C192.851 20.1085 192.415 19.1059 191.65 18.3768C190.922 17.6477 189.939 17.192 188.828 17.192V17.2102H188.81H187.026H187.008V17.192C185.898 17.192 184.896 17.6659 184.187 18.395C183.422 19.1059 182.967 20.1085 182.967 21.2386H182.985V35.1283H177.943V21.2386H177.961C177.961 18.7231 178.998 16.4811 180.619 14.8223C182.257 13.2001 184.532 12.2157 187.008 12.2157V12.1611ZM201.935 6.10938H207.032V35.1101H201.935V6.10938ZM221.177 13.2183H216.134L207.014 23.5535L217.208 35.0554H222.232L212.057 23.5535L221.177 13.2183ZM170.17 25.1758V25.0665C169.005 25.2123 167.84 25.1394 166.856 25.1394C164.927 25.1576 163.816 25.3034 162.742 25.7956C161.705 26.2513 161.159 27.2174 161.031 28.0558V28.2199C160.886 30.0245 161.814 31.3551 163.452 31.5921H163.507V31.6103C165.455 31.8837 166.966 31.5556 168.113 31.0452C169.023 30.6442 169.66 29.587 169.951 28.2564C170.17 27.4179 170.151 26.1419 170.17 25.1758ZM163.962 12.398C166.474 12.2157 169.441 12.4163 171.498 14.0021C172.299 14.6218 173.009 15.3692 173.574 16.4629C174.138 17.6295 174.174 19.0512 174.284 20.2907V27.0169C174.284 30.3343 173.228 33.269 169.86 34.8002C168.768 35.2741 167.53 35.5475 166.147 35.584C160.467 35.7298 156.171 32.8498 156.608 27.6001C156.899 23.827 160.121 22.2047 163.889 21.9313C165.673 21.8037 168.786 22.2047 169.915 21.9495C169.988 20.8011 169.715 19.3064 169.369 18.5044C169.059 17.8117 168.531 17.0279 167.621 16.7545C166.474 16.2806 164.836 16.2259 163.525 16.317C161.796 16.4446 160.503 16.6998 158.501 17.83L158.519 15.8796C158.519 15.278 158.592 14.5672 158.92 14.075C159.702 12.8902 162.378 12.5074 163.962 12.398Z" fill="#3822E4" fill-opacity="0.8"/>
</svg>
