<svg width="177" height="32" viewBox="0 0 177 32" fill="none" xmlns="http://www.w3.org/2000/svg">
<path fill-rule="evenodd" clip-rule="evenodd" d="M0 31.0481H27.442C29.5809 31.0481 31.3125 29.2997 31.3125 27.158V0H3.87036C1.74601 0 0 1.74836 0 3.89011V31.0481ZM7.39162 26.0944L23.6735 23.2387V6.19213L7.39162 9.04779V26.0944Z" fill="#ED0600" fill-opacity="0.8"/>
<path fill-rule="evenodd" clip-rule="evenodd" d="M114.131 12.5735C116.736 12.5735 118.831 14.8318 118.831 18.4306C118.831 22.0147 116.736 24.3604 114.131 24.3604C112.735 24.3604 111.541 23.7631 110.683 22.6703C109.839 21.5339 109.592 20.3246 109.577 18.8968C109.548 17.2067 109.693 15.7934 110.45 14.6424C111.338 13.3457 112.676 12.5735 114.131 12.5735ZM109.723 4.35621L109.679 11.8888C111.847 9.67417 114.277 9.13509 117.303 9.96556C120.708 10.898 122.658 14.1034 122.702 18.5034C122.789 24.1273 118.875 27.6532 114.248 27.6823C109.17 27.726 105.663 24.1565 105.692 18.9551V4.34165H109.723V4.35621ZM102.273 9.00395H103.451V13.0252H102.273V13.0106C101.4 13.0106 100.599 13.3894 100.003 13.9722C99.4209 14.5405 99.0717 15.3418 99.0717 16.2451H99.0862V27.3472H95.0558V16.2451C95.0558 14.2345 95.8706 12.4424 97.1947 11.1166C98.5042 9.81986 100.279 9.0331 102.273 9.0331V9.00395ZM86.4856 20.4412H80.6655C80.7091 20.6597 80.7819 20.8491 80.8692 21.024C81.5676 22.8598 83.1245 23.7922 84.8996 24.1128H84.9142C85.147 24.1419 85.4235 24.1856 85.6708 24.2147C85.9036 24.2439 86.1656 24.2584 86.4129 24.2584C88.319 24.3022 89.7885 23.6902 90.7052 23.1949C90.8362 23.967 90.7489 25.3512 90.647 25.8611C90.3124 27.5512 87.2568 27.6823 86.1364 27.6823V27.6969C85.7872 27.6969 85.438 27.6823 85.0742 27.6532C84.7104 27.6241 84.3613 27.5803 83.9975 27.5075C79.3123 26.677 76.7805 22.6266 76.9696 18.1537V18.1392V18.0809C77.1006 14.3219 79.1959 10.9709 82.8189 9.849H82.8335L82.8917 9.81985L82.9062 9.80529C85.8163 8.94568 88.4936 9.76159 90.2833 11.3205C90.6179 11.6411 90.9381 11.9762 91.2145 12.3258C91.491 12.6901 91.7529 13.0543 91.942 13.4769L91.9711 13.506C92.3785 14.3656 92.5677 15.1378 92.5677 15.8809C92.5677 16.7842 92.2621 17.5855 91.7674 18.2703C91.3018 18.8677 90.7198 19.3339 90.0068 19.669V19.6836C88.9592 20.2226 87.6788 20.4412 86.4856 20.4412ZM80.5782 17.3961H86.6602C88.0134 17.3961 89.5703 16.7113 88.7991 14.9047L88.7701 14.8755C88.6828 14.6861 88.5809 14.4967 88.4645 14.3073C88.3481 14.1034 88.1589 13.8994 87.9697 13.7245C86.9803 12.7338 85.4962 12.1656 83.8666 12.7047V12.6901L83.8229 12.7047C83.5464 12.8067 83.2846 12.9232 83.0518 13.0398C82.819 13.1709 82.5861 13.3312 82.3824 13.506C81.4949 14.2345 80.8546 15.6769 80.5782 17.3961ZM70.0873 4.51648V9.2225H76.6496L76.5041 10.7232C76.3586 12.0636 75.5874 12.457 74.0741 12.4861H70.0873V21.0531C70.1019 21.3008 70.1164 21.8982 70.1601 22.1167C70.422 23.4425 71.1932 23.8068 72.4445 23.9379C73.6667 24.1127 75.6601 23.8651 76.6204 23.4571C76.7659 24.9141 76.5623 26.881 75.7329 27.187C74.9181 27.4929 73.2593 27.6386 72.1099 27.5949C71.5715 27.5803 71.004 27.5366 70.4365 27.4201C69.4908 27.2452 68.1231 26.5022 67.4683 25.8465C66.217 24.4333 66.1442 22.816 66.0714 21.1405L66.0569 21.0385V4.48734H70.0873V4.51648ZM54.3002 9.00395H55.7407V9.0331C57.7486 9.0331 59.5529 9.83443 60.8479 11.1311C62.1574 12.4424 62.9722 14.2491 62.9722 16.2451V27.3472H58.9564V16.2451H58.9708C58.9563 15.3564 58.5926 14.555 58.0251 13.9722C57.4431 13.3894 56.6137 13.0252 55.7407 13.0252V13.0398H54.3002V13.0252C53.4272 13.0252 52.6269 13.404 52.0304 13.9868C51.4629 14.555 51.0991 15.3564 51.0991 16.2597H51.1137V27.3618H47.0978V16.2597C47.0978 14.2491 47.8981 12.457 49.2222 11.1311C50.5317 9.83443 52.3214 9.04766 54.3148 9.04766V9.00395H54.3002ZM39.4297 4.16681H43.5038V27.3472H39.4297V4.16681ZM148.776 9.00395H150.202H150.216V9.0331C152.195 9.0331 154.014 9.83443 155.338 11.1311C156.618 12.4424 157.448 14.2491 157.448 16.2451H157.462V27.3472H153.417V16.2451H153.446C153.446 15.3564 153.097 14.555 152.486 13.9722C151.904 13.3894 151.118 13.0252 150.231 13.0252V13.0398H150.216H148.79H148.776V13.0252C147.888 13.0252 147.088 13.404 146.521 13.9868C145.909 14.555 145.546 15.3564 145.546 16.2597H145.56V27.3618H141.53V16.2597H141.544C141.544 14.2491 142.374 12.457 143.669 11.1311C144.978 9.83443 146.797 9.04766 148.776 9.04766V9.00395ZM160.707 4.16681H164.781V27.3472H160.707V4.16681ZM176.087 9.849H172.056L164.767 18.11L172.915 27.3035H176.931L168.797 18.11L176.087 9.849ZM135.317 19.4067V19.3193C134.385 19.4359 133.454 19.3776 132.669 19.3776C131.126 19.3922 130.239 19.5087 129.38 19.9021C128.551 20.2663 128.114 21.0385 128.012 21.7087V21.8399C127.896 23.2823 128.638 24.3459 129.948 24.5353H129.991V24.5498C131.548 24.7684 132.756 24.5061 133.673 24.0982C134.4 23.7776 134.909 22.9326 135.142 21.869C135.317 21.1988 135.302 20.1789 135.317 19.4067ZM130.355 9.19336C132.363 9.04766 134.735 9.20793 136.379 10.4755C137.019 10.9709 137.587 11.5682 138.038 12.4424C138.489 13.3749 138.518 14.5113 138.605 15.502V20.8783C138.605 23.53 137.761 25.8757 135.069 27.0995C134.196 27.4783 133.207 27.6969 132.101 27.726C127.561 27.8426 124.127 25.5406 124.477 21.3445C124.709 18.3286 127.285 17.0319 130.297 16.8133C131.723 16.7113 134.211 17.0319 135.113 16.8279C135.171 15.91 134.953 14.7153 134.676 14.0742C134.429 13.5206 134.007 12.8941 133.28 12.6755C132.363 12.2967 131.053 12.253 130.006 12.3258C128.623 12.4278 127.59 12.6318 125.99 13.5351L126.004 11.9762C126.004 11.4954 126.063 10.9272 126.325 10.5338C126.95 9.58675 129.089 9.28077 130.355 9.19336Z" fill="#ED0600" fill-opacity="0.8"/>
</svg>
