<svg width="196" height="72" viewBox="0 0 196 72" fill="none" xmlns="http://www.w3.org/2000/svg">
<path d="M137.24 59.4948H139.336L141.727 56.9663H139.446L137.24 59.4948Z" fill="#3822E4"/>
<path d="M195.003 45.034C162.941 48.9191 58.6498 54.4008 25.72 54.4008C-7.20971 54.4008 0.203403 45.2462 3.8038 45.034C6.78566 44.8586 195.003 45.034 195.003 45.034Z" fill="#3822E4"/>
<path d="M21.4642 14.5716L18.4177 41.2414H26.754L29.302 23.643C29.4312 22.5264 29.6897 21.7235 30.0682 21.2252C30.456 20.7361 31.0376 20.4869 31.8315 20.4869C32.6162 20.4869 33.1516 20.7361 33.4194 21.2252C33.6963 21.7143 33.7609 22.5264 33.6409 23.643L31.6376 41.2414H39.9739L42.8081 21.1329C42.9743 19.684 42.9281 18.5028 42.6696 17.58C42.4111 16.6572 42.0049 15.9189 41.4418 15.3652C40.8786 14.8023 40.1863 14.4331 39.3554 14.2301C38.5615 13.9994 37.666 13.8887 36.6782 13.8887C33.5209 13.8887 31.2222 15.1991 29.7728 17.8292H29.6713L29.7451 14.5716H21.4642Z" fill="#3822E4"/>
<path d="M44.7559 14.5714L44.0728 20.5329H47.0269L45.4114 34.726C45.2452 36.2025 45.236 37.4022 45.3929 38.325C45.5868 39.2109 45.956 39.8846 46.4915 40.346C47.0638 40.8074 47.8209 41.1028 48.7533 41.2319C49.6949 41.3335 50.8397 41.3796 52.1875 41.3796C52.9445 41.3796 53.7384 41.3427 54.5693 41.2781C55.3909 41.2412 55.6771 41.2319 56.4987 41.2319L57.7081 35.3166H56.3233C55.6032 35.3166 55.077 35.1689 54.7447 34.8736C54.4493 34.5414 53.8123 34.0062 53.8954 33.2494L55.8894 20.5329H59.3883L60.0714 14.5714H56.2679L56.868 9.71729H49.1872L47.7193 14.5714H44.7559Z" fill="#3822E4"/>
<path d="M100.904 0H109.785L104.338 41.2505H95.9185L100.904 0Z" fill="#3822E4"/>
<path fill-rule="evenodd" clip-rule="evenodd" d="M116.985 27.8418C117.235 26.1715 117.475 24.7965 117.696 23.726C117.927 22.6463 118.185 21.8065 118.472 21.1882C118.758 20.5699 119.072 20.1546 119.404 19.9424C119.764 19.7209 120.198 19.6286 120.687 19.6378C121.177 19.6563 121.574 19.7855 121.869 20.0254C122.164 20.2654 122.349 20.6991 122.414 21.3266C122.515 21.9542 122.524 22.8124 122.423 23.8921C122.331 24.9718 122.155 26.3468 121.906 28.0172C121.657 29.6875 121.417 31.0625 121.195 32.133C120.973 33.1758 120.715 34.0063 120.429 34.6246C120.17 35.2429 119.866 35.6582 119.496 35.8704C119.136 36.0919 118.702 36.1842 118.213 36.175C117.724 36.1565 117.327 36.0273 117.031 35.7874C116.773 35.5474 116.588 35.1137 116.487 34.4862C116.385 33.8587 116.376 33.0189 116.468 31.9669C116.57 30.8872 116.736 29.5121 116.985 27.8418ZM130.796 27.9341C131.018 25.9962 131.11 24.1874 131.073 22.5079C131.073 20.8006 130.768 19.3056 130.15 18.0229C129.541 16.7402 128.516 15.7435 127.094 15.0145C125.663 14.2578 123.66 13.8794 121.057 13.8794C118.555 13.8794 116.505 14.2854 114.899 15.1067C113.33 15.9004 112.074 16.9432 111.132 18.2628C110.191 19.5733 109.498 21.0682 109.046 22.7478C108.621 24.4273 108.317 26.1346 108.114 27.8695C107.892 29.8075 107.781 31.6347 107.781 33.3419C107.818 35.0214 108.141 36.498 108.751 37.7807C109.36 39.0265 110.385 40.014 111.816 40.7338C113.246 41.4259 115.268 41.7673 117.862 41.7673C120.364 41.7673 122.395 41.389 123.955 40.6322C125.562 39.8478 126.826 38.8051 127.759 37.5315C128.7 36.2211 129.374 34.7261 129.799 33.0466C130.27 31.3855 130.593 29.6783 130.796 27.9341Z" fill="#3822E4"/>
<path d="M132.818 14.5714L132.135 20.5329H135.098L133.483 34.726C133.316 36.2025 133.307 37.4022 133.464 38.325C133.658 39.2109 134.027 39.8846 134.563 40.346C135.135 40.8074 135.892 41.1028 136.825 41.2319C137.766 41.3335 138.911 41.3796 140.259 41.3796C141.016 41.3796 141.81 41.3427 142.641 41.2781C143.462 41.2412 143.748 41.2319 144.57 41.2319L145.779 35.3166H144.395C143.674 35.3166 143.148 35.1689 142.816 34.8736C142.521 34.5414 141.884 34.0062 141.967 33.2494L143.961 20.5329H147.46L148.143 14.5714H144.358L144.958 9.71729H137.277L135.772 14.5714H132.818Z" fill="#3822E4"/>
<path fill-rule="evenodd" clip-rule="evenodd" d="M62.3887 14.5715H70.6696L70.4849 18.8073C71.2604 17.1924 72.1836 15.9835 73.3653 15.1621C74.5469 14.3039 76.9656 13.8794 78.2766 13.8794L85.1635 13.9071L85.9851 13.8794C87.5268 13.8794 88.93 14.0086 90.1856 14.2762C91.478 14.5069 92.5397 14.9499 93.389 15.6051C94.2752 16.2326 94.8938 17.1001 95.263 18.2167C95.6692 19.3056 95.7708 20.7176 95.5677 22.4525L94.0814 35.4644C93.9429 36.7102 93.4444 40.3185 93.3705 41.2321H85.6805C85.5697 40.7707 85.505 40.2908 85.4958 39.8017L85.3758 38.2237C84.748 39.4049 83.8618 40.2908 82.7078 40.8814C81.5908 41.472 80.3353 41.7673 78.9597 41.7673C77.6119 41.7673 76.4856 41.5828 75.5716 41.2229C74.6854 40.8906 73.993 40.3831 73.476 39.691C72.9591 38.9988 72.6267 38.1775 72.479 37.227C72.3221 36.2765 72.3128 35.2245 72.4421 34.0709C72.5806 32.8251 72.8206 31.7362 73.1622 30.8133C73.5314 29.8905 74.0299 29.1061 74.6669 28.4509C75.3039 27.7588 76.1256 27.1866 77.1318 26.7252C78.1381 26.2361 79.3751 25.8208 80.8245 25.4978L84.4249 24.658C85.4035 24.4273 86.1143 24.1043 86.5575 23.6706C86.8437 23.4122 87.176 22.9877 87.2406 22.2772C87.3791 20.7729 86.8344 20.3853 85.3296 20.3853C85.0804 20.3853 84.0926 20.5792 82.8094 20.7822C75.6824 21.8988 71.1958 22.7939 70.0972 28.8754L67.7062 41.2229H59.3699L62.3887 14.5715ZM82.9755 35.9627C82.3201 35.9627 81.8216 35.7043 81.4892 35.1783C81.1569 34.6523 81.0369 33.9417 81.1384 33.0558C81.24 32.1699 81.4523 31.4593 81.7754 30.9333C82.0985 30.3796 82.6247 29.9274 83.354 29.6044C84.0464 29.3091 86.1974 28.737 86.5021 28.3771L86.2344 31.5793C86.0682 33.0558 85.7266 34.1632 85.2189 34.883C84.7111 35.6028 83.9633 35.9627 82.9755 35.9627Z" fill="#3822E4"/>
<path d="M10.2475 14.5713L7.51489 41.2411H15.8512L19.0085 14.5713H10.2475Z" fill="#3822E4"/>
<path fill-rule="evenodd" clip-rule="evenodd" d="M90.7764 71.0027L90.8779 69.9783H90.8317C90.5733 70.2183 90.3332 70.4121 90.1209 70.5689C89.9086 70.7258 89.7055 70.8366 89.4931 70.9289C89.2993 71.0119 89.1054 71.0673 88.9115 71.095C88.7084 71.1226 88.4961 71.1411 88.2561 71.1411C87.7391 71.1411 87.296 71.0119 86.9359 70.7443C86.5759 70.4674 86.2805 70.0983 86.0589 69.6553C85.8558 69.1939 85.7173 68.6587 85.6527 68.0588C85.5881 67.459 85.5881 66.8223 85.6527 66.1486C85.7266 65.3919 85.8466 64.6813 86.0128 64.0076C86.1974 63.3247 86.4374 62.7249 86.7421 62.1989C87.0652 61.6636 87.4437 61.2484 87.896 60.9438C88.3576 60.6393 88.9115 60.4824 89.5393 60.4824C90.0009 60.4824 90.3886 60.5562 90.6933 60.7131C91.0164 60.87 91.3026 61.1007 91.5703 61.4052L92.1057 56.0713H95.3369L93.8413 71.0119H90.7764V71.0027ZM91.4226 62.8356C91.3395 62.6972 91.2102 62.5865 91.0348 62.5034C90.8779 62.4019 90.6748 62.3558 90.444 62.3558C90.1763 62.3558 89.9547 62.4665 89.7793 62.688C89.6224 62.9002 89.4839 63.1678 89.3824 63.5093C89.29 63.8323 89.2254 64.183 89.17 64.5613C89.1331 64.9212 89.0962 65.2627 89.0685 65.5672C89.0131 66.1117 88.9669 66.61 88.9392 67.053C88.9115 67.4867 88.9115 67.8558 88.93 68.1604C88.9577 68.4557 89.0223 68.6864 89.1331 68.8525C89.2439 69.0186 89.4008 69.1016 89.6131 69.1016C89.8532 69.1016 90.084 69.0278 90.3055 68.8894C90.5271 68.7325 90.721 68.5387 90.8687 68.2988L91.4226 62.8356Z" fill="#3822E4"/>
<path fill-rule="evenodd" clip-rule="evenodd" d="M98.8264 66.4901C98.8079 66.7116 98.7895 66.97 98.7895 67.2653C98.7987 67.5606 98.8449 67.8282 98.9187 68.0866C98.9926 68.3358 99.1126 68.5573 99.2972 68.7419C99.4726 68.908 99.7219 68.991 100.027 68.991C100.433 68.991 100.793 68.8618 101.116 68.5942C101.439 68.3266 101.67 67.9759 101.808 67.5422L103.904 68.3819C103.849 68.5111 103.728 68.7326 103.544 69.0556C103.368 69.3602 103.11 69.6831 102.759 70.0246C102.418 70.3476 101.984 70.6336 101.457 70.8828C100.94 71.132 100.331 71.2612 99.6111 71.2612C98.8449 71.2612 98.1802 71.1135 97.6355 70.8182C97.1093 70.5137 96.6846 70.1076 96.3708 69.6001C96.0569 69.0833 95.8446 68.4835 95.7338 67.819C95.623 67.1454 95.5953 66.444 95.6691 65.7242C95.743 64.9859 95.9092 64.2846 96.1492 63.6294C96.4169 62.9557 96.7493 62.3743 97.1647 61.8668C97.5894 61.3592 98.0971 60.9624 98.6695 60.6671C99.2603 60.3718 99.925 60.2241 100.664 60.2241C101.448 60.2241 102.085 60.381 102.593 60.704C103.091 61.027 103.479 61.4515 103.747 61.9867C104.033 62.5035 104.209 63.1033 104.282 63.7678C104.375 64.423 104.384 65.0967 104.31 65.7796L104.236 66.4901H98.8264ZM101.439 64.4784C101.467 64.2292 101.476 63.9708 101.476 63.7217C101.476 63.4725 101.439 63.251 101.374 63.048C101.328 62.8357 101.227 62.6696 101.07 62.5404C100.931 62.4112 100.719 62.3559 100.442 62.3559C100.22 62.3559 100.027 62.4205 99.8604 62.5404C99.6942 62.6696 99.5557 62.8357 99.4357 63.048C99.3157 63.2418 99.2234 63.4633 99.1588 63.7217C99.1034 63.9708 99.0664 64.2292 99.0388 64.4784H101.439Z" fill="#3822E4"/>
<path fill-rule="evenodd" clip-rule="evenodd" d="M116.431 60.2978C116.348 61.1468 116.136 61.8759 115.794 62.4849C115.471 63.0848 115.047 63.5739 114.539 63.9522C114.022 64.3306 113.45 64.6074 112.803 64.7735C112.157 64.9396 111.474 65.0227 110.763 65.0227C110.523 65.0227 110.292 65.0135 110.071 65.0042C109.858 64.995 109.637 64.9673 109.406 64.9396L108.797 71.0026H105.206L106.701 56.062H112.037C112.711 56.062 113.33 56.1451 113.902 56.3112C114.474 56.4773 114.954 56.7357 115.361 57.0864C115.757 57.4186 116.062 57.8523 116.256 58.3876C116.441 58.9228 116.505 59.5595 116.431 60.2978ZM112.683 60.5562C112.72 60.2055 112.674 59.9102 112.563 59.6703C112.462 59.4303 112.305 59.2458 112.092 59.1074C111.899 58.9689 111.668 58.8674 111.409 58.8121C111.151 58.7382 110.892 58.7105 110.643 58.7105H110.015L109.646 62.3834H110.274C110.523 62.3834 110.791 62.3557 111.059 62.3003C111.326 62.245 111.575 62.1435 111.797 62.005C112.037 61.8666 112.231 61.6728 112.379 61.4421C112.554 61.193 112.656 60.8976 112.683 60.5562Z" fill="#3822E4"/>
<path fill-rule="evenodd" clip-rule="evenodd" d="M119.33 66.4901C119.312 66.7116 119.293 66.97 119.293 67.2653C119.303 67.5606 119.349 67.8282 119.423 68.0866C119.496 68.3358 119.626 68.5573 119.801 68.7419C119.976 68.908 120.226 68.991 120.53 68.991C120.937 68.991 121.297 68.8618 121.62 68.5942C121.943 68.3266 122.174 67.9759 122.312 67.5422L124.408 68.3819C124.352 68.5111 124.232 68.7326 124.048 69.0556C123.872 69.3602 123.614 69.6831 123.254 70.0246C122.912 70.3476 122.478 70.6336 121.952 70.8828C121.435 71.132 120.826 71.2612 120.106 71.2612C119.339 71.2612 118.675 71.1135 118.13 70.8182C117.604 70.5137 117.179 70.1076 116.865 69.6001C116.552 69.0833 116.339 68.4835 116.228 67.819C116.118 67.1454 116.09 66.444 116.164 65.7242C116.238 64.9859 116.395 64.2846 116.644 63.6294C116.902 62.9557 117.244 62.3743 117.659 61.8668C118.084 61.3592 118.592 60.9624 119.164 60.6671C119.755 60.3718 120.42 60.2241 121.158 60.2241C121.943 60.2241 122.58 60.381 123.078 60.704C123.577 61.027 123.965 61.4515 124.232 61.9867C124.519 62.5035 124.694 63.1033 124.768 63.7678C124.86 64.423 124.869 65.0967 124.795 65.7796L124.722 66.4901H119.33ZM121.952 64.4784C121.98 64.2292 121.989 63.9708 121.989 63.7217C121.989 63.4725 121.952 63.251 121.887 63.048C121.841 62.8357 121.74 62.6696 121.583 62.5404C121.444 62.4112 121.232 62.3559 120.955 62.3559C120.733 62.3559 120.54 62.4205 120.373 62.5404C120.207 62.6696 120.06 62.8357 119.949 63.048C119.829 63.2418 119.736 63.4633 119.672 63.7217C119.616 63.9708 119.58 64.2292 119.552 64.4784H121.952Z" fill="#3822E4"/>
<path fill-rule="evenodd" clip-rule="evenodd" d="M132.504 63.6571C132.292 63.574 132.079 63.5002 131.876 63.4448C131.673 63.3895 131.452 63.3618 131.212 63.3618C130.676 63.3618 130.288 63.4356 130.039 63.574C129.799 63.7125 129.578 63.9155 129.365 64.1831L128.682 71.0028H125.451L126.503 60.4733H129.67L129.513 62.0698H129.559C129.688 61.7376 129.873 61.4515 130.104 61.23C130.353 60.9901 130.621 60.8056 130.916 60.6671C131.221 60.5102 131.544 60.3995 131.876 60.3349C132.209 60.2611 132.532 60.2334 132.855 60.2334L132.504 63.6571Z" fill="#3822E4"/>
<path fill-rule="evenodd" clip-rule="evenodd" d="M137.48 71.0026L137.618 69.5999H137.572C137.184 70.1352 136.732 70.5412 136.206 70.8365C135.689 71.1134 135.135 71.2518 134.544 71.2518C133.898 71.2518 133.399 71.0395 133.058 70.6243C132.726 70.1905 132.596 69.6091 132.661 68.8801L133.501 60.4639H136.732L135.984 67.9111C135.957 68.188 135.984 68.4187 136.058 68.6032C136.15 68.7694 136.354 68.8524 136.667 68.8524C137.018 68.8524 137.314 68.7048 137.554 68.4095L137.748 68.1603L138.514 60.4639H141.745L140.693 70.9934H137.48V71.0026Z" fill="#3822E4"/>
</svg>
