<svg width="112" height="123" viewBox="0 0 112 123" fill="none" xmlns="http://www.w3.org/2000/svg">
<path d="M13.9862 91.4681L9.05645 93.323L7.97632 91.6342L12.9892 86.937L13.8755 88.3213L10.192 91.542L14.8171 89.7886L15.8695 91.4312L12.343 94.9011L16.8112 92.8985L17.6974 94.2828L11.3367 96.8667L10.2474 95.1687L13.9862 91.4681Z" fill="#ED0600"/>
<path d="M21.5746 98.574L17.8265 104.508L16.7002 103.262L17.5311 102.016L16.294 100.641L14.9739 101.352L13.8384 100.097L20.116 96.9683L21.5746 98.574ZM17.3834 100.06L18.2143 100.983L19.6359 98.8601L17.3834 100.06Z" fill="#ED0600"/>
<path d="M22.0271 108.282L20.8362 107.258L24.4366 103.068L23.1072 101.933L23.8919 101.02L27.7415 104.332L26.9568 105.246L25.6275 104.102L22.0271 108.282Z" fill="#ED0600"/>
<path d="M33.5392 108.273L32.8745 109.288L30.3265 107.617L29.5141 108.863L31.6651 110.275L31.0004 111.29L28.8494 109.878L27.9632 111.235L30.5204 112.905L29.8649 113.92L25.9968 111.383L29.6803 105.744L33.5392 108.273Z" fill="#ED0600"/>
<path d="M34.3792 116.311L32.9575 115.637L35.8379 109.556L38.0812 110.617C39.189 111.143 40.3337 112.001 39.5675 113.616L39.4937 113.773C39.0321 114.751 38.3304 115.019 37.6104 114.954L37.5734 117.824L36.041 117.095L36.1333 114.465L35.404 114.124L34.3792 116.311ZM36.8164 113.459C37.2042 113.644 37.7581 113.736 38.0812 113.053L38.1181 112.97C38.4412 112.287 38.0166 111.918 37.6288 111.734L36.7426 111.318L35.9302 113.035L36.8164 113.459Z" fill="#ED0600"/>
<path d="M45.7804 120.565L44.2664 120.15L46.0666 113.662L47.5806 114.077L45.7804 120.565Z" fill="#ED0600"/>
<path d="M49.7687 116.698L49.7872 116.606C49.981 115.406 51.0335 114.779 52.7321 115.056C54.5693 115.351 55.2617 116.2 55.0124 117.759L54.9847 117.935L53.4338 117.686C53.5722 116.818 53.3414 116.366 52.5567 116.246L52.4737 116.228C51.8459 116.126 51.4397 116.375 51.3658 116.8L51.3566 116.846C51.2828 117.335 51.4581 117.621 52.529 117.926C54.1261 118.387 54.8647 119.014 54.6708 120.242L54.6616 120.325C54.4585 121.598 53.3876 122.189 51.6335 121.912C49.8703 121.626 49.0486 120.786 49.3071 119.181L49.3163 119.107L50.8673 119.356C50.7288 120.186 51.0612 120.602 51.7813 120.713L51.8643 120.731C52.5844 120.851 52.9906 120.565 53.0645 120.122L53.0737 120.076C53.1476 119.596 52.9168 119.291 51.8551 118.987C50.2672 118.525 49.5841 117.898 49.7687 116.698Z" fill="#ED0600"/>
<path d="M61.4468 122.613L61.2437 115.886L62.8131 115.84L62.9792 121.358L65.7672 121.266L65.8041 122.475L61.4468 122.613Z" fill="#ED0600"/>
<path d="M70.3557 121.959L68.7955 122.162L67.9185 115.48L69.4786 115.277L70.3557 121.959Z" fill="#ED0600"/>
<path d="M76.5961 113.792L76.873 114.973L73.9373 115.674L74.2789 117.123L76.7345 116.542L77.0115 117.723L74.5559 118.304L75.2113 121.063L73.6788 121.423L72.1187 114.871L76.5961 113.792Z" fill="#ED0600"/>
<path d="M83.2338 111.438L83.6677 112.564L80.8151 113.653L81.3413 115.037L83.7415 114.123L84.1754 115.249L81.7752 116.163L82.3475 117.676L85.2002 116.587L85.6341 117.713L81.3136 119.356L78.9133 113.071L83.2338 111.438Z" fill="#ED0600"/>
<path d="M13.6907 35.2495L13.2199 36.1446L7.95777 33.3669L7.08074 35.0095L6.37915 34.6404L8.59476 30.46L9.29638 30.8291L8.41936 32.4717L13.6907 35.2495Z" fill="#ED0600"/>
<path d="M16.4695 30.6629L15.9156 31.5027L10.2935 27.7836L10.8474 26.9438L16.4695 30.6629Z" fill="#ED0600"/>
<path d="M20.6238 25.2825L19.9868 26.0208L14.8262 24.0828L15.9433 24.9964L18.7682 27.4327L18.1127 28.1986L13.0076 23.7967L13.9584 22.6893L19.119 24.6457L16.4325 19.8193L17.3834 18.7119L22.4886 23.1138L21.8331 23.8798L19.0082 21.4435L17.9373 20.4745L20.6238 25.2825Z" fill="#ED0600"/>
<path d="M23.4949 13.2305L24.0119 13.8303L21.4639 16.0174L22.8394 17.6139L25.0181 15.7406L25.5351 16.3404L23.3564 18.2137L24.815 19.9117L27.363 17.7246L27.88 18.3245L24.5658 21.1668L20.1807 16.0636L23.4949 13.2305Z" fill="#ED0600"/>
<path d="M33.9361 14.2642L33.0683 14.781L29.5879 9.00409L30.4465 8.4873L33.9361 14.2642Z" fill="#ED0600"/>
<path d="M34.2683 8.45946L34.2314 8.37639C33.7421 7.33359 34.3052 6.28159 35.6992 5.62638C37.2686 4.89735 38.2657 5.26649 38.8842 6.58613L38.9673 6.77068L38.0533 7.19517C37.5733 6.16161 36.9824 5.89399 36.0408 6.33695L35.9762 6.36463C35.2284 6.71531 34.8776 7.31515 35.1361 7.86884L35.1638 7.93345C35.4315 8.5056 35.9023 8.69015 37.1302 8.29333C38.7088 7.77655 39.6135 7.97959 40.0843 8.97624L40.1212 9.0593C40.6382 10.1667 40.0751 11.2279 38.6257 11.9016C37.1025 12.6122 35.967 12.2799 35.3484 10.9418L35.3115 10.8588L36.2254 10.4343C36.6778 11.4033 37.4348 11.5786 38.2564 11.191L38.3303 11.1541C39.1611 10.7665 39.4935 10.139 39.2073 9.52071L39.1796 9.4561C38.8934 8.83781 38.3395 8.7086 37.1486 9.09619C35.5607 9.64066 34.6837 9.36383 34.2683 8.45946Z" fill="#ED0600"/>
<path d="M50.5348 7.86906L49.5747 8.07208L46.639 3.42102L46.9806 4.82374L47.7561 8.46889L46.7682 8.68115L45.365 2.10138L46.7959 1.79686L49.7316 6.45713L50.5071 0.993974L51.9381 0.689453L53.3413 7.26923L52.3535 7.48146L51.578 3.8363L51.3195 2.42438L50.5348 7.86906Z" fill="#ED0600"/>
<path d="M55.8062 3.7807L55.7877 3.43925C55.6677 1.10448 56.4986 0.0985938 58.3265 0.00631035C60.1359 -0.0859731 61.0683 0.827617 61.1883 3.16239L61.2068 3.50383C61.3268 5.8386 60.4959 6.84449 58.6865 6.93678C56.8494 7.03829 55.917 6.11547 55.8062 3.7807ZM58.6588 6.14315C59.822 6.07855 60.2466 5.26644 60.1636 3.5592L60.1451 3.21776C60.062 1.51051 59.5543 0.735336 58.3911 0.799934L58.3265 0.809172C57.1632 0.864542 56.7386 1.68585 56.8217 3.3931L56.8402 3.73454C56.9232 5.44178 57.431 6.21699 58.5942 6.15239L58.6588 6.14315Z" fill="#ED0600"/>
<path d="M69.1922 7.24106L68.1214 7.13953L65.4533 1.71329L65.3518 3.2083L65.0102 6.85346L64.0593 6.76117L64.6963 0.0429688L65.7672 0.144495L68.4352 5.57074L68.5368 4.07576L68.8783 0.43057L69.8292 0.522858L69.1922 7.24106Z" fill="#ED0600"/>
<path d="M77.8146 2.17487L77.63 2.95008L74.3619 2.18411L73.8819 4.2328L76.6791 4.88801L76.4945 5.66321L73.6972 5.00798L73.1803 7.19509L76.4483 7.96106L76.2729 8.73624L72.0171 7.73959L73.5588 1.17822L77.8146 2.17487Z" fill="#ED0600"/>
<path d="M81.3135 10.4898L80.3718 10.1299L81.1011 8.21962L80.6949 3.05176L81.7197 3.43936L81.9689 7.35216L84.7662 4.5929L85.7909 4.98047L82.0428 8.5703L81.3135 10.4898Z" fill="#ED0600"/>
<path d="M43.8695 43.0008C45.3651 42.6316 46.8606 42.2625 48.3469 41.8934C48.4669 41.8657 48.5223 41.8011 48.5223 41.718C48.5223 40.4537 48.5223 39.1895 48.5223 37.9252C48.5223 37.5468 48.4669 37.1316 48.3469 36.6978C47.1837 35.046 45.7159 34.5938 43.9618 35.2121C42.5309 35.7104 41.1092 36.2087 39.6783 36.7071C39.5214 36.7624 39.2536 36.9009 38.8751 37.1223C36.4933 38.765 35.2932 40.26 35.2932 41.7273C35.2932 43.13 35.2932 44.5327 35.2932 45.9354C35.2932 46.2768 35.4132 46.6275 35.644 46.9966C36.4472 47.6334 38.7367 49.0914 42.5309 52.1552C43.0664 52.3952 43.3341 53.9825 43.3341 56.9078C43.3341 56.954 43.3341 57.0093 43.3341 57.0555C43.3341 57.5446 42.9186 57.8122 42.0878 57.8584C41.9678 57.8676 41.857 57.8676 41.737 57.8768C40.7215 57.9322 40.2045 57.7015 40.2045 57.1847C40.2045 55.8281 40.2045 54.4716 40.2045 53.115C40.2045 53.0504 40.1491 53.0135 40.0291 53.0135C38.5151 53.1981 36.9918 53.3826 35.4686 53.5672C35.367 53.5764 35.3117 53.6226 35.2932 53.6964C35.2932 54.9607 35.2932 56.2249 35.2932 57.4892C35.2932 57.8491 35.3486 58.1906 35.4686 58.5043C36.5395 60.2116 38.1181 61.1252 40.2045 61.1067C41.34 61.0975 42.4755 61.079 43.611 61.0698C44.3311 61.0606 45.0143 60.9222 45.6605 60.6453C47.5622 59.6302 48.5131 58.329 48.5131 56.8525C48.5131 55.2283 48.5131 53.5949 48.5131 51.9707C48.5131 50.9279 48.1531 50.0051 47.433 49.2483C46.2698 48.344 45.1066 47.4857 43.9526 46.6736C41.4508 45.2801 40.1953 44.4404 40.1953 43.8867C40.1953 42.7424 40.1953 41.5981 40.1953 40.4538C40.1953 40.0477 40.5553 39.6786 41.2754 39.3556C41.7277 39.2172 42.1709 39.0787 42.6232 38.9403C43.3248 38.7281 43.6757 39.0972 43.6757 40.0569C43.6757 41.0167 43.6757 41.9672 43.6757 42.9177C43.6941 43.0008 43.7495 43.0285 43.8695 43.0008Z" fill="#ED0600"/>
<path d="M93.3888 23.2986C93.2504 19.6627 93.075 17.9001 92.8442 17.9739C90.1023 18.9429 87.3512 19.9026 84.6094 20.8623C84.5448 20.9269 84.4709 20.9823 84.4063 21.0469C83.0862 38.4146 82.1076 51.3896 81.4521 60.6087C81.4521 60.7563 81.5075 60.821 81.6275 60.821C83.16 60.8117 84.6833 60.7933 86.2065 60.784C86.2619 60.7471 86.3265 60.7102 86.3819 60.6733C86.5666 56.3544 86.6589 53.8351 86.6589 53.143C88.0344 53.0415 89.4099 52.94 90.7855 52.8385C90.7855 53.6782 90.8778 56.2253 91.0624 60.5072C91.0624 60.6641 91.127 60.7379 91.2378 60.7379C92.7611 60.7287 94.2936 60.7102 95.8168 60.701C95.8722 60.6641 95.9368 60.6179 95.9922 60.581C94.3213 35.2677 93.4627 23.3355 93.3888 23.2986ZM88.6437 24.932C88.6437 24.8951 88.6437 24.8582 88.6437 24.8213C88.6991 24.8028 88.7545 24.7844 88.8191 24.7659C89.2899 32.3701 89.77 40.0665 90.2408 47.8552C89.2345 47.9659 88.219 48.0859 87.2128 48.2058C87.6836 40.5371 88.1636 32.7761 88.6437 24.932Z" fill="#ED0600"/>
<path d="M110.994 11.7632C109.489 12.2892 107.993 12.8152 106.489 13.3412C106.406 13.3504 105.372 18.3707 103.387 27.8112C103.331 27.8297 103.276 27.8389 103.211 27.8574C101.245 19.4688 100.211 15.5653 100.109 15.5837C98.5862 16.119 97.063 16.6542 95.5305 17.1802C98.9647 30.8289 100.783 38.5068 100.986 38.4053C100.986 45.6957 100.986 52.9861 100.986 60.2764C100.986 60.4425 101.051 60.5256 101.171 60.5256C102.63 60.5071 104.088 60.4979 105.547 60.4794C105.658 60.4794 105.722 60.3872 105.722 60.2211C105.722 52.6723 105.722 45.1235 105.722 37.5748C105.833 37.2056 107.661 29.2231 111.178 11.8462C111.105 11.8186 111.049 11.7909 110.994 11.7632Z" fill="#ED0600"/>
<path d="M56.314 83.9285C57.0526 76.2136 57.6895 69.1447 58.2158 62.8787C58.2158 62.7772 58.1604 62.7218 58.068 62.7034C56.6279 62.6941 55.197 62.6757 53.7568 62.6572C53.6368 62.9433 53.009 69.4862 51.8551 81.5383C51.8181 81.5291 51.7904 81.5199 51.7535 81.5107C51.6058 78.9729 51.135 73.9804 50.3503 66.8284C50.1657 64.0138 49.9995 62.6111 49.8518 62.6111C47.7839 62.5926 45.7252 62.5742 43.6665 62.5557C43.5649 62.528 42.928 68.3511 41.7555 79.2405C41.7278 79.2313 41.6909 79.222 41.654 79.2128C41.0816 73.5651 40.5 68.0465 39.9276 62.6572C39.9276 62.5742 39.8722 62.528 39.7522 62.5188C38.3121 62.5096 36.8811 62.4911 35.4502 62.4727C35.404 62.4911 35.3486 62.5188 35.3025 62.5372C36.678 74.2111 37.3889 80.6063 37.4535 80.6617C37.7859 84.4084 38.0259 86.3463 38.1828 86.4017C40.5646 87.2322 42.9464 88.0628 45.319 88.8933C45.4298 88.921 45.9006 83.7439 46.7222 72.873C46.7499 72.8822 46.7684 72.8822 46.7961 72.8822C47.35 80.7724 47.6546 84.8974 47.7192 84.999C47.9408 88.2196 48.1254 89.8807 48.2916 89.9361C50.6365 90.7574 52.9813 91.5788 55.3262 92.4001C55.3724 92.3909 55.4278 92.3816 55.4739 92.3724C55.7786 89.4839 56.0463 86.6693 56.314 83.9285ZM37.3519 78.3915V78.4007C37.3519 78.4007 37.3519 78.4007 37.3519 78.3915C37.3519 78.4007 37.3519 78.4007 37.3519 78.3915Z" fill="#ED0600"/>
<path d="M70.5863 67.2256C70.4478 64.2079 70.2724 62.713 70.0324 62.7037C67.2906 62.6853 64.5395 62.6576 61.7977 62.6299C61.733 62.6576 61.6592 62.6853 61.5946 62.7222C60.2744 76.297 59.2958 86.3466 58.6404 93.4801C58.6404 93.6001 58.6958 93.6739 58.8158 93.7108C60.339 94.246 61.8715 94.7813 63.3947 95.3165C63.4501 95.3073 63.5148 95.2981 63.5702 95.2889C63.7548 91.8744 63.8471 89.8626 63.8471 89.3089C65.2227 89.7057 66.5982 90.0933 67.9737 90.4901C67.9737 91.173 68.066 93.2771 68.2507 96.8392C68.2507 96.9684 68.3061 97.0515 68.4261 97.0976C69.9586 97.6328 71.4818 98.1681 73.005 98.7033C73.0697 98.6941 73.1251 98.6756 73.1805 98.6664C71.5187 77.266 70.6509 67.281 70.5863 67.2256ZM65.8227 67.1149C65.8227 67.0872 65.8227 67.0502 65.8227 67.0226C65.8781 67.0226 65.9335 67.0318 65.9981 67.0318C66.4782 73.344 66.949 79.7484 67.4291 86.2543C66.4136 86.0052 65.4073 85.756 64.401 85.5068C64.8719 79.4715 65.3519 73.3347 65.8227 67.1149Z" fill="#ED0600"/>
<path d="M84.074 74.82C85.5695 74.9861 87.0558 75.1522 88.5606 75.3183C88.6714 75.3275 88.736 75.263 88.736 75.1338C88.736 73.242 88.736 71.3502 88.736 69.4491C88.736 68.877 88.6806 68.231 88.5606 67.5204C87.3882 64.4474 85.9296 62.9616 84.1755 62.9524C82.7446 62.9432 81.3229 62.9247 79.892 62.9062C79.7443 62.9062 79.4765 62.9801 79.0888 63.1093C76.707 64.3551 75.5161 66.09 75.5161 68.434C75.5161 70.6765 75.5161 72.9097 75.5161 75.1522C75.5161 75.6967 75.6269 76.315 75.8669 77.0163C76.6609 78.4098 78.9596 81.8981 82.7446 88.238C83.2801 88.8286 83.5478 91.3756 83.5478 95.8605C83.5478 95.9344 83.5478 96.0082 83.5478 96.082C83.5478 96.8295 83.1323 97.0787 82.3015 96.8203C82.1815 96.7834 82.0707 96.7464 81.9507 96.7095C80.9352 96.3958 80.4274 95.8421 80.4274 95.0392C80.4274 92.9352 80.4274 90.8219 80.4274 88.7086C80.4274 88.5979 80.372 88.524 80.252 88.4779C78.738 88.118 77.2148 87.7581 75.7008 87.3982C75.5992 87.3705 75.5438 87.4259 75.5254 87.5366C75.5254 89.5576 75.5254 91.5694 75.5254 93.5904C75.5254 94.1718 75.5807 94.7347 75.7008 95.2792C76.7624 98.4168 78.341 100.419 80.4274 101.158C81.5629 101.554 82.6984 101.951 83.834 102.348C84.554 102.597 85.228 102.634 85.8834 102.45C87.7852 101.61 88.736 100.032 88.736 97.8077C88.736 95.3714 88.736 92.9259 88.736 90.4897C88.736 88.9208 88.376 87.389 87.6559 85.9401C86.4927 84.0668 85.3387 82.2396 84.1755 80.4585C81.6737 77.1548 80.4182 75.2168 80.4182 74.3586C80.4182 72.5775 80.4182 70.7965 80.4182 69.0154C80.4182 68.3786 80.7782 67.991 81.4983 67.8711C81.9507 67.8987 82.3938 67.9172 82.8461 67.9449C83.5478 67.9818 83.8986 68.7293 83.8986 70.2058C83.8986 71.6639 83.8986 73.122 83.8986 74.5801C83.8986 74.7369 83.954 74.8107 84.074 74.82Z" fill="#ED0600"/>
<path d="M105.519 63.2662C103.913 63.2478 102.298 63.2293 100.691 63.2109C100.59 63.2109 100.534 63.2939 100.516 63.46C100.516 69.1724 100.516 74.8754 100.516 80.5878C99.0664 80.3847 97.6077 80.1725 96.1676 79.9695C96.1676 74.451 96.1676 68.9232 96.1676 63.4047C96.1676 63.2662 96.1122 63.1832 95.9922 63.1555C94.4228 63.137 92.8441 63.1186 91.2655 63.1094C91.1639 63.1094 91.1086 63.1832 91.0901 63.3401C91.0901 77.0903 91.0901 90.8312 91.0901 104.581C91.0901 104.738 91.1455 104.84 91.2655 104.877C92.8441 105.43 94.4228 105.975 95.9922 106.529C96.1122 106.565 96.1676 106.51 96.1676 106.344C96.1676 99.2474 96.1676 92.1509 96.1676 85.0543C97.617 85.3127 99.0664 85.5803 100.516 85.8479C100.516 93.1844 100.516 100.521 100.516 107.857C100.516 108.024 100.571 108.125 100.691 108.171C102.307 108.734 103.913 109.297 105.519 109.86C105.639 109.906 105.695 109.832 105.695 109.657C105.695 94.2826 105.695 78.899 105.695 63.5246C105.695 63.377 105.63 63.2939 105.519 63.2662Z" fill="#ED0600"/>
<path d="M64.2809 32.6747C64.2809 29.2694 61.8437 28.8726 59.7204 29.6293C56.7385 30.6721 53.7567 31.7149 50.784 32.7577C50.6825 32.7947 50.6271 32.8685 50.6086 32.9792C50.6086 42.2998 50.6086 51.6112 50.6086 60.9318C50.6086 61.0333 50.664 61.0887 50.784 61.0887C52.3073 61.0702 53.8213 61.061 55.3445 61.0518C55.4553 61.0518 55.5199 60.9964 55.5199 60.8857C55.5199 59.0308 55.5199 57.1666 55.5199 55.3025C59.028 53.6783 61.8806 51.7404 61.8806 51.7404C63.8839 50.3469 64.3917 49.1103 64.3917 46.0004C64.3917 42.1799 64.3917 38.3593 64.3917 34.5388C64.3825 34.0497 64.3455 33.4314 64.2809 32.6747ZM55.5199 35.1756C56.3877 34.9079 57.2555 34.6496 58.1233 34.3819C59.0096 34.2251 59.4527 34.5388 59.4527 35.3232C59.4527 39.4206 59.4527 43.5272 59.4527 47.6245C59.4527 48.5381 58.1418 49.6271 55.5199 50.7714C55.5199 45.5759 55.5199 40.3803 55.5199 35.1756Z" fill="#ED0600"/>
<path d="M77.2425 43.7393C77.5564 43.4902 77.7318 43.3425 77.7318 43.3425C79.7351 41.626 80.2336 40.168 80.2336 36.5505C80.2336 34.3726 80.2336 32.1947 80.2336 30.0168C80.2336 29.4631 80.1967 28.7433 80.132 27.8574C80.132 23.8985 77.6948 23.2894 75.5808 24.0461C72.5989 25.0889 69.6263 26.1409 66.6444 27.1837C66.5429 27.2207 66.4875 27.2945 66.469 27.4329C66.469 38.5346 66.469 49.6362 66.469 60.7379C66.469 60.8671 66.5244 60.9224 66.6444 60.9224C68.1584 60.9132 69.6817 60.8948 71.1957 60.8855C71.3157 60.8855 71.3711 60.8209 71.3711 60.6825C71.3711 56.4006 71.3711 52.1094 71.3711 47.8275C71.8788 47.5229 72.3681 47.2184 72.8389 46.9139C73.7898 51.3804 74.7407 55.9668 75.6823 60.6733C75.71 60.8117 75.7839 60.8763 75.9039 60.8763C77.4271 60.8671 78.9411 60.8486 80.4551 60.8394C80.5752 60.8394 80.6121 60.7656 80.5936 60.6271C79.4766 54.8225 78.3595 49.1933 77.2425 43.7393ZM71.3711 30.3398C72.2389 30.0722 73.1067 29.8138 73.9744 29.5462C74.8607 29.4078 75.3038 29.8046 75.3038 30.7274C75.3038 33.3667 75.3038 36.0152 75.3038 38.6545C75.3038 39.725 73.9929 41.0447 71.3711 42.5027C71.3711 38.4423 71.3711 34.3911 71.3711 30.3398Z" fill="#ED0600"/>
<path d="M0.00924079 53.6598C10.4411 50.0699 20.8823 46.4801 31.3142 42.8996C32.5512 42.475 32.025 40.5002 30.7695 40.9339C20.513 44.4591 10.2565 47.9844 0 51.5096V53.6598H0.00924079Z" fill="#ED0600"/>
<path d="M15.1771 61.624C13.4784 61.624 1.69869 61.624 0.00927734 61.624V63.6635C1.70793 63.6635 13.4877 63.6635 15.1771 63.6635C16.488 63.6635 16.488 61.624 15.1771 61.624Z" fill="#ED0600"/>
<path d="M31.3142 81.8614C20.8731 78.2808 10.4412 74.7002 0.00927734 71.1196V73.2791C10.2658 76.7951 20.513 80.3111 30.7788 83.8363C32.0158 84.2516 32.5513 82.2767 31.3142 81.8614Z" fill="#ED0600"/>
<path d="M18.1866 39.6233C26.1167 23.7137 42.5493 12.7597 61.5022 12.7597C68.5368 12.7597 75.2114 14.2824 81.2397 16.9863L83.9724 16.0081C77.2055 12.6305 69.5708 10.7202 61.4929 10.7202C40.9615 10.7202 23.3011 23.0031 15.4448 40.6107L18.1866 39.6233Z" fill="#ED0600"/>
<path d="M79.264 106.076C73.7618 108.254 67.7704 109.472 61.5021 109.472C43.6939 109.472 28.1107 99.7919 19.7098 85.4234L16.8018 84.4175C25.2211 100.521 42.0692 111.512 61.5021 111.512C68.869 111.512 75.8575 109.925 82.1628 107.082L79.264 106.076Z" fill="#ED0600"/>
</svg>
