<svg width="139" height="108" viewBox="0 0 139 108" fill="none" xmlns="http://www.w3.org/2000/svg">
<path d="M16.1198 35.9444C15.8276 36.9672 15.5678 37.9413 15.3405 38.8829C15.0483 40.0681 14.7886 41.1396 14.545 42.1137C14.3015 43.0553 14.1392 43.8184 14.0417 44.3704C13.8469 45.3607 13.1975 45.9777 12.1747 46.1725C11.2818 46.3511 10.3402 46.2699 9.34981 45.9614C8.37571 45.653 7.49902 45.101 6.73597 44.3379C5.92422 43.5262 5.51835 42.5196 5.51835 41.3344C5.51835 40.3603 5.76187 38.8342 6.26516 36.6587C6.75221 34.532 7.45031 31.9993 8.35948 29.1582C9.2524 26.3333 10.3402 23.2161 11.574 19.8879C12.6455 17.0306 13.8307 14.1732 15.1295 11.3321C15.5516 10.4067 16.4283 9.77352 17.4511 9.64364C19.7402 9.38388 21.7372 9.44882 23.4256 9.83846C24.4484 10.082 24.9842 11.186 24.562 12.1276C23.4743 14.5629 22.4677 16.9819 21.5748 19.336C20.8442 21.2517 20.1623 23.135 19.4967 24.9695C19.4318 25.1481 19.6104 25.3267 19.7889 25.2455C20.6656 24.8396 21.5261 24.3688 22.3703 23.8331C23.7503 22.9401 25.0166 21.8849 26.1206 20.6835C27.2246 19.4821 28.1175 18.1183 28.7994 16.6572C29.465 15.196 29.806 13.605 29.806 11.9328C29.806 9.78975 29.2053 8.19872 28.0363 7.22462C26.8512 6.23428 25.179 5.73099 23.0684 5.73099C20.8118 5.73099 18.7661 6.26675 16.964 7.32203C15.1133 8.39354 13.506 9.72481 12.2072 11.2671C10.8921 12.8095 9.8531 14.4654 9.12252 16.1864C8.35948 17.891 7.98607 19.3684 7.98607 20.6185C7.98607 21.5115 7.51525 22.1446 6.67103 22.4206C5.92422 22.6641 5.09623 22.6317 4.25201 22.307C3.44026 21.9985 2.67721 21.414 2.01158 20.5373C1.32971 19.6607 0.98877 18.4593 0.98877 16.9981C0.98877 15.7155 1.47582 14.2057 2.46616 12.3711C3.44026 10.5853 4.88518 8.86436 6.75221 7.22462C8.61924 5.58488 10.9571 4.17243 13.7333 3.00351C16.5257 1.83458 19.7565 1.23389 23.3282 1.23389C25.3576 1.23389 27.4032 1.47741 29.3839 1.94823C31.3808 2.41904 33.1991 3.14962 34.7739 4.09125C36.3649 5.04912 37.68 6.26675 38.6703 7.6792C39.6769 9.12412 40.1802 10.8126 40.1802 12.7121C40.1802 14.7577 39.7256 16.6734 38.8489 18.3943C37.9722 20.1152 36.7708 21.6738 35.2609 23.0538C33.7673 24.4175 32.0139 25.6189 30.017 26.6255C28.3773 27.4535 26.6239 28.1678 24.8218 28.736C24.7082 28.7685 24.6595 28.8335 24.6757 28.9471C24.7082 29.8563 24.7731 30.733 24.8705 31.5934C24.9679 32.5837 25.114 33.5416 25.2764 34.4508C25.4387 35.3437 25.6336 36.2204 25.8609 37.0484C26.0394 37.6815 26.2343 38.3147 26.4291 38.8992C26.559 39.2726 26.7051 39.646 26.835 39.9869C27.1109 40.685 27.4356 41.3507 27.7603 41.9676C28.0851 42.5683 28.4422 43.1528 28.8156 43.6885C29.1728 44.208 29.5624 44.6951 29.9683 45.1334C30.358 45.5555 30.7801 45.9614 31.2022 46.3186C31.6243 46.6595 32.0626 46.968 32.5172 47.244C32.9556 47.5037 33.4101 47.731 33.881 47.9259C34.3355 48.1045 34.8226 48.2668 35.3096 48.3642C35.7967 48.4779 36.2837 48.5428 36.787 48.5753C37.2903 48.6077 37.8098 48.5915 38.3294 48.559C38.8651 48.5103 39.4009 48.4291 39.9366 48.2993C40.4886 48.1694 41.0406 47.9908 41.6088 47.7797C42.1771 47.5687 42.7615 47.3089 43.3298 47.0005C43.5408 46.8868 43.7681 46.7732 43.9792 46.6433C44.6935 46.2374 45.6027 46.4322 46.0735 47.0979C46.5443 47.7635 46.4469 48.6889 45.8299 49.2247C45.5215 49.4844 45.2293 49.7442 44.9208 50.0039C44.1902 50.6046 43.4596 51.1566 42.7453 51.6599C42.0634 52.1307 41.3653 52.5691 40.6834 52.9587C40.3425 53.1535 39.9853 53.3484 39.6119 53.527C38.9138 53.8841 38.1995 54.1926 37.5014 54.4523C36.8033 54.7121 36.1052 54.9232 35.4233 55.1017C34.7414 55.2641 34.0595 55.394 33.3777 55.4589C32.9069 55.5076 32.4198 55.5401 31.949 55.5401C31.7542 55.5401 31.5756 55.5401 31.3808 55.5239C30.7314 55.4914 30.082 55.4264 29.465 55.2966C29.1566 55.2316 28.8481 55.1667 28.5396 55.0693C28.2474 54.9881 27.9389 54.8907 27.6467 54.777C27.0622 54.566 26.494 54.3062 25.942 53.9978C25.4063 53.7055 24.8705 53.3484 24.3672 52.975C23.9613 52.6665 23.5555 52.3256 23.1821 51.9684C22.7275 51.53 22.2729 51.0592 21.8508 50.5397C21.4287 50.0364 21.039 49.4844 20.6656 48.9162C20.2922 48.348 19.9351 47.731 19.6104 47.1141C19.2857 46.4809 18.9772 45.8153 18.7012 45.1334C18.4252 44.4516 18.1654 43.7372 17.9382 42.9904C17.7109 42.2598 17.4998 41.4806 17.3212 40.685C17.1426 39.8895 16.9803 39.0615 16.8504 38.2173C16.7368 37.4705 16.6393 36.7074 16.5582 35.9282C16.5257 35.7496 16.1848 35.7171 16.1198 35.9444Z" fill="#3822E4"/>
<path d="M138.095 6.07191C138.095 9.43256 135.383 12.1438 132.023 12.1438C128.662 12.1438 125.951 9.43256 125.951 6.07191C125.951 2.71125 128.662 0 132.023 0C135.367 0 138.095 2.71125 138.095 6.07191Z" fill="#3822E4"/>
<path d="M136.731 30.5541C136.439 30.0995 135.871 29.7911 135.286 29.7911C134.734 29.7911 134.231 30.0508 133.922 30.5054C133.565 31.0249 133.111 31.6419 132.607 32.34C132.039 33.103 131.422 33.8498 130.789 34.5317C130.156 35.2136 129.539 35.798 128.954 36.2851C128.354 36.7884 127.964 36.8858 127.737 36.8858C127.574 36.8858 127.298 36.8858 127.234 36.1227C127.169 35.3272 127.282 34.2882 127.591 33.0218C127.899 31.7393 128.354 30.3106 128.922 28.7845C129.506 27.2259 130.091 25.7323 130.659 24.3686C131.26 22.9399 131.763 21.7547 132.218 20.7319C132.672 19.7253 132.948 19.0597 133.062 18.7675C133.419 17.9395 133.289 17.1115 132.672 16.3972C132.104 15.7315 131.357 15.2769 130.432 15.0172C129.523 14.7737 128.549 14.7574 127.526 14.9685C126.422 15.1958 125.561 15.8452 124.944 16.8517C124.392 17.7447 123.694 19.1409 122.834 21.0241C121.973 22.9074 121.145 24.9855 120.366 27.2097C119.895 28.5572 119.457 29.9372 119.067 31.3334C118.418 33.6388 117.07 35.6844 115.22 37.2105C114.554 37.7462 113.856 38.2658 113.125 38.7366C112.801 38.9476 112.476 39.1425 112.151 39.321C112.054 39.3697 111.94 39.2561 112.005 39.1587C112.573 38.4281 113.109 37.6164 113.661 36.7721C114.765 35.0188 115.772 32.9082 116.665 30.5216C117.606 27.989 118.191 25.6836 118.402 23.6542C118.629 21.6086 118.548 19.8228 118.174 18.3454C117.785 16.8193 117.103 15.6179 116.145 14.7899C115.155 13.9132 113.921 13.4749 112.508 13.4749C110.836 13.4749 109.278 13.9132 107.914 14.7899C106.988 15.3906 106.112 16.0562 105.332 16.7868C105.268 16.8517 105.219 16.8355 105.17 16.7706C104.992 16.4946 104.764 16.2348 104.472 15.9913C103.806 15.4393 103.011 15.0821 102.102 14.9035C101.193 14.725 100.267 14.7899 99.358 15.0821C98.3839 15.4068 97.6695 16.0562 97.2149 17.0303C96.3382 18.9136 95.4129 21.1216 94.4712 23.573C93.5296 26.0245 92.6042 28.5897 91.7275 31.1873C91.6301 31.4795 91.5327 31.7717 91.4353 32.0477C90.7047 34.2719 89.3085 36.2201 87.4577 37.6326C86.9706 38.006 86.4673 38.3632 85.9478 38.7041C85.6231 38.9152 85.2984 39.11 84.9737 39.2886C84.8763 39.3373 84.7627 39.2236 84.8276 39.1262C85.3958 38.3956 85.9316 37.5839 86.4836 36.7397C87.5876 34.9863 88.5941 32.892 89.4871 30.4892C90.4287 27.9565 91.0132 25.6511 91.2242 23.6218C91.4515 21.5761 91.3703 19.7903 90.9969 18.3129C90.6073 16.7868 89.9254 15.5854 88.9675 14.7574C87.9772 13.8807 86.7433 13.4424 85.3309 13.4424C83.6424 13.4424 82.1001 13.8807 80.7364 14.7574C79.811 15.3581 78.9343 16.0238 78.155 16.7543C78.0901 16.8193 78.0414 16.803 77.9927 16.7381C77.8141 16.4621 77.5868 16.2023 77.2945 15.9588C76.6289 15.4068 75.8334 15.0497 74.9242 14.8711C74.0151 14.6925 73.0897 14.7574 72.1805 15.0497C71.2064 15.3744 70.4921 16.0238 70.0375 16.9979C69.1608 18.8811 68.2354 21.0891 67.2938 23.5406C66.4008 25.846 65.5404 28.2325 64.7286 30.6515C64.1117 32.4699 63.1863 33.9472 61.8063 35.2947C61.4491 35.6357 61.1082 35.9604 60.7673 36.2364C60.1666 36.7397 59.7769 36.8371 59.5496 36.8371C59.3873 36.8371 59.1113 36.8371 59.0464 36.074C58.9814 35.2785 59.0951 34.2395 59.4035 32.9894C59.712 31.7068 60.1666 30.2781 60.7348 28.752C61.3193 27.2097 61.9037 25.7161 62.472 24.3361C63.0564 22.9399 63.5759 21.706 64.0305 20.6994C64.4851 19.6604 64.7773 19.0272 64.8747 18.735C65.2319 17.907 65.102 17.079 64.4851 16.3647C63.9169 15.6991 63.1538 15.2445 62.196 14.9847C61.2706 14.7412 60.2802 14.725 59.2899 14.9522C58.2184 15.1958 57.3579 15.8289 56.741 16.8355C56.6111 17.0303 56.4812 17.2576 56.3513 17.5011C56.3026 17.5823 56.1728 17.5661 56.1565 17.4687C56.0429 16.9167 55.8481 16.3972 55.5883 15.9101C55.1987 15.1795 54.6304 14.5951 53.8836 14.1405C53.1206 13.6859 52.1627 13.4586 51.0262 13.4586C48.3475 13.4586 45.62 14.6925 42.925 17.144C40.2949 19.5468 38.1032 23.3782 36.4309 28.5247C35.6517 31.0087 35.1808 33.3141 35.0672 35.3597C34.9373 37.4378 35.1159 39.2236 35.5705 40.6685C36.0413 42.1622 36.7881 43.3473 37.7947 44.1753C38.8337 45.0358 40.0838 45.4741 41.4963 45.4741C42.5516 45.4741 43.5419 45.2955 44.4673 44.9384C45.3602 44.5974 46.2044 44.1428 46.935 43.6071C47.5032 43.2012 48.039 42.7304 48.5261 42.2271C48.867 41.8699 49.4839 42.0161 49.6138 42.4869C49.7761 43.0226 49.9872 43.5097 50.2794 43.9156C50.9775 44.9384 52.0978 45.4579 53.5751 45.4579C55.2311 45.4579 56.8871 44.841 58.5268 43.6233C59.2899 43.0551 60.0367 42.4382 60.751 41.7725C60.9134 41.6264 61.1732 41.7888 61.1082 41.9998C60.6861 43.396 60.3127 44.6948 59.9718 45.9125C59.4035 47.9581 58.9327 49.7277 58.5755 51.1564C58.1047 53.0721 58.056 53.5916 58.056 53.8352C58.056 55.0203 58.4294 56.0107 59.1438 56.8224C59.8419 57.6017 60.6536 58.1537 61.5466 58.4622C62.131 58.6732 62.7155 58.7706 63.2675 58.7706C63.5759 58.7706 63.8682 58.7381 64.1604 58.6732C64.8098 58.5271 65.6215 58.105 65.8651 56.8874V56.8711C65.9625 56.2217 66.1411 55.3613 66.4008 54.2897C66.6768 53.1695 67.0015 51.9032 67.3749 50.5232C67.7483 49.1432 68.1705 47.6009 68.69 45.8313C68.9173 45.0033 69.177 44.1428 69.4368 43.2499C69.4855 43.0713 69.7453 43.0389 69.8264 43.2012C69.9401 43.4123 70.07 43.6071 70.2161 43.8019C71.0441 44.9059 72.3429 45.4579 74.1125 45.4579C74.4696 45.4741 74.8268 45.4741 75.1678 45.4741C77.7491 45.4741 80.1844 45.0358 82.3923 44.1591C84.5029 43.3149 86.4349 42.3083 88.1558 41.1231C88.3181 41.0095 88.5454 41.1718 88.4805 41.3667C87.9934 42.9902 87.5389 44.5163 87.1492 45.9125C86.5648 47.9743 86.1102 49.7439 85.753 51.1564C85.2822 53.0884 85.2335 53.6079 85.2335 53.8352C85.2335 55.0041 85.6069 56.0107 86.3212 56.8224C87.0193 57.6017 87.8311 58.1537 88.724 58.4622C89.3085 58.6732 89.8929 58.7706 90.4449 58.7706C90.7534 58.7706 91.0456 58.7381 91.3379 58.6732C91.9873 58.5271 92.799 58.105 93.0425 56.8874V56.8711C93.1399 56.2217 93.3185 55.3613 93.5783 54.2897C93.8543 53.1695 94.179 51.9032 94.5524 50.5232C94.9258 49.1432 95.3641 47.6009 95.8674 45.8313C96.0947 45.0033 96.3545 44.1428 96.6143 43.2499C96.663 43.0713 96.9227 43.0389 97.0039 43.2012C97.1175 43.4123 97.2474 43.6071 97.3935 43.8019C98.2053 44.9059 99.5203 45.4579 101.29 45.4579C101.647 45.4741 102.004 45.4741 102.345 45.4741C104.927 45.4741 107.362 45.0358 109.57 44.1591C112.038 43.185 114.278 41.9511 116.21 40.49C116.535 40.2464 116.859 39.9867 117.168 39.7432C117.314 39.6295 117.525 39.7269 117.525 39.9217C117.525 40.0029 117.525 40.0841 117.525 40.1653C117.525 41.7076 117.85 42.9739 118.483 43.9156C119.181 44.9384 120.301 45.4579 121.779 45.4579C123.418 45.4579 125.107 44.841 126.763 43.6233C128.338 42.4706 129.831 41.1069 131.195 39.5646C132.542 38.0385 133.711 36.5286 134.702 35.0675C135.692 33.5901 136.374 32.5673 136.747 31.9666C137.007 31.5445 137.023 31.0087 136.731 30.5541ZM52.7147 22.6477C52.601 23.7354 52.3738 24.9693 52.0328 26.333C51.6919 27.6805 51.2373 29.1092 50.6691 30.5704C50.1008 32.0315 49.5002 33.3952 48.867 34.6291C48.2501 35.8467 47.6331 36.8858 47.0162 37.7138C46.4155 38.5255 45.8635 39.1262 45.344 39.4996C44.9706 39.7756 44.7595 39.8081 44.6946 39.8081C44.6621 39.8081 44.6296 39.8081 44.5972 39.7919C44.5322 39.7594 44.2887 39.597 44.1751 38.8665C44.0614 38.1846 44.0452 37.3079 44.1426 36.2689C44.24 35.1973 44.4511 33.9797 44.792 32.6322C45.1167 31.2847 45.5875 29.856 46.1557 28.3949C46.7402 26.9175 47.3409 25.5537 47.9578 24.3361C48.5748 23.1185 49.1917 22.0794 49.8086 21.219C50.4093 20.391 50.9613 19.7903 51.4646 19.4006C51.838 19.1246 52.0491 19.0922 52.1302 19.0922C52.1627 19.0922 52.1952 19.0922 52.2114 19.1084C52.2763 19.1409 52.5361 19.3032 52.6822 20.05C52.8283 20.7157 52.8446 21.5924 52.7147 22.6477ZM82.1326 22.7126C81.9378 23.7841 81.6455 25.018 81.2397 26.3655C80.8338 27.7292 80.3143 29.1579 79.6973 30.6028C79.0317 32.064 78.3336 33.444 77.6355 34.6778C76.9536 35.8954 76.2555 36.9507 75.6061 37.7949C74.9567 38.6229 74.3722 39.2399 73.8365 39.6133C73.4306 39.9055 73.2195 39.938 73.1384 39.938C73.1059 39.938 73.0734 39.938 73.041 39.9217C72.976 39.8893 72.7487 39.7432 72.6513 39.0126C72.5539 38.3469 72.6026 37.4702 72.7974 36.3987C72.9923 35.311 73.2845 34.0609 73.6904 32.7134C74.0962 31.3659 74.6158 29.9372 75.2327 28.4598C75.8496 26.9986 76.5315 25.6349 77.2458 24.4173C77.9602 23.1834 78.6583 22.1444 79.3077 21.3326C79.9571 20.5209 80.5416 19.9202 81.0773 19.5305C81.4832 19.2383 81.6942 19.2058 81.7754 19.2058C81.8079 19.2058 81.8404 19.2058 81.8728 19.2221C81.9378 19.2545 82.1651 19.4006 82.2625 20.1312C82.3599 20.8131 82.3112 21.6735 82.1326 22.7126ZM109.326 22.7126C109.131 23.7841 108.839 25.018 108.433 26.3655C108.027 27.7292 107.508 29.1579 106.891 30.6028C106.225 32.064 105.527 33.444 104.829 34.6778C104.147 35.8954 103.449 36.9507 102.8 37.7949C102.15 38.6229 101.566 39.2399 101.03 39.6133C100.624 39.9055 100.413 39.938 100.332 39.938C100.3 39.938 100.267 39.938 100.235 39.9217C100.17 39.8893 99.9424 39.7432 99.845 39.0126C99.7476 38.3469 99.7963 37.4702 99.9911 36.3987C100.186 35.311 100.478 34.0609 100.884 32.7134C101.29 31.3659 101.809 29.9372 102.426 28.4598C103.043 26.9986 103.725 25.6349 104.44 24.4173C105.154 23.1834 105.852 22.1444 106.501 21.3326C107.135 20.5209 107.735 19.9202 108.271 19.5468C108.677 19.2545 108.888 19.2221 108.969 19.2221C109.002 19.2221 109.034 19.2221 109.067 19.2383C109.131 19.2708 109.359 19.4169 109.456 20.1475C109.554 20.8131 109.505 21.6735 109.326 22.7126Z" fill="#3822E4"/>
<path d="M136.763 78.3828C129.506 84.7469 123.061 85.1365 115.316 79.438C111.761 76.8242 108.579 73.7071 105.007 71.1095C102.247 69.0963 99.3249 67.0994 96.1753 65.8493C90.7203 63.6901 85.2004 64.4206 80.2162 67.4566C76.8394 69.5184 73.7547 72.0673 70.6213 74.5026C70.183 74.8435 69.8583 75.0221 69.5173 75.0059C69.1764 75.0221 68.8517 74.8273 68.4134 74.5026C65.28 72.0673 62.1953 69.5022 58.8185 67.4566C53.8505 64.4369 48.3144 63.7063 42.8594 65.8493C39.7098 67.0994 36.7875 69.0963 34.0276 71.1095C30.4558 73.7071 27.2738 76.8242 23.7183 79.438C15.9904 85.1365 9.54511 84.7307 2.27182 78.3828C1.67112 77.8632 1.07042 77.3275 0.469727 76.808C1.60618 82.7987 3.92779 88.1563 7.36962 93.0268C11.7693 99.2448 17.5165 103.693 24.7573 106.145C41.658 111.859 63.0071 103.888 69.5498 88.8706C76.0763 103.888 97.4254 111.859 114.326 106.145C121.551 103.693 127.314 99.2448 131.714 93.0268C135.156 88.1563 137.493 82.7987 138.565 76.808C137.964 77.3275 137.364 77.8632 136.763 78.3828Z" fill="#3822E4"/>
</svg>
