<svg width="171" height="81" viewBox="0 0 171 81" fill="none" xmlns="http://www.w3.org/2000/svg">
<path d="M68.0565 28.4448C68.3391 28.5626 68.6454 28.6332 68.9634 28.6686C69.2814 28.7039 69.5523 28.7157 69.7879 28.7157C70.0588 28.7157 70.3415 28.6921 70.6124 28.645C70.8833 28.5979 71.1189 28.5626 71.3309 28.5272V24.923C71.1071 24.8877 70.8715 24.8524 70.6124 24.8288C70.3533 24.8052 70.1295 24.7935 69.9292 24.7935C69.0459 24.7935 68.3391 24.9584 67.8091 25.2764C67.2909 25.5944 67.0317 26.1009 67.0317 26.8194C67.0317 27.3023 67.1377 27.6556 67.338 27.9148C67.5382 28.1385 67.7738 28.327 68.0565 28.4448Z" fill="#ED0600"/>
<path d="M57.2791 20.6946C56.8315 20.1527 56.2072 19.8818 55.4181 19.8818C54.4993 19.8818 53.8162 20.1292 53.3451 20.6474C52.8739 21.1539 52.5912 21.8724 52.5088 22.7911H58.0211C57.9622 21.9313 57.7267 21.2364 57.2791 20.6946Z" fill="#ED0600"/>
<path d="M75.8534 2.54415C71.036 0.117785 64.0396 2.50882 64.0396 2.50882C35.7124 11.7431 36.1482 11.5076 29.1282 13.9104C28.9633 13.9575 28.5864 14.0753 28.4333 14.0871C28.0917 14.1106 27.809 13.8044 27.809 13.451C27.809 13.2743 27.8914 13.0977 28.0328 12.9917C28.1388 12.8974 28.233 12.8385 28.233 12.8385C28.233 12.8385 33.3331 9.6348 38.1623 6.76085C39.2341 6.11303 40.1057 5.63011 41.0834 5.05297C41.8725 4.58183 44.4167 3.2862 44.4167 1.80211C44.4167 0.859829 43.6864 0.0942279 42.7677 0.023557C42.7206 0.023557 42.4379 0 42.3672 0H41.0362H22.968H17.0081C12.815 0 9.70547 1.23674 7.62068 2.48526C3.03885 5.44166 0 10.6006 0 16.4663C0 20.8008 1.64899 24.7466 4.36982 27.703V27.7148L55.0997 75.7239C58.0915 78.586 62.1315 80.341 66.5955 80.341C75.7945 80.341 83.2385 72.8853 83.2385 63.698L83.2857 14.0282C83.2739 9.26967 80.1879 5.0883 75.8534 2.54415ZM63.9689 24.7584C64.3459 24.1694 64.8288 23.6983 65.4059 23.345C65.9948 22.9916 66.6544 22.7325 67.3847 22.5794C68.115 22.4262 68.8452 22.3438 69.5637 22.3438C70.0938 22.3438 70.6709 22.3791 71.3069 22.4262V22.0964C71.3069 21.6606 71.2363 21.3073 71.0831 21.0364C70.9418 20.7655 70.7416 20.5417 70.4824 20.3886C70.2351 20.2354 69.9171 20.1294 69.5402 20.0705C69.1868 20.0234 68.7746 19.9999 68.3152 19.9999C67.3376 19.9999 66.2893 20.1883 65.1704 20.577C64.9112 20.1059 64.7228 19.6583 64.605 19.2343C64.4872 18.822 64.4165 18.3155 64.4165 17.7384C65.2175 17.4675 66.0066 17.2673 66.8193 17.1377C67.6203 17.0081 68.3623 16.9492 69.0572 16.9492C70.9418 16.9492 72.4259 17.3968 73.486 18.3155C74.5578 19.2225 75.0878 20.683 75.0878 22.6736V30.8596C74.4518 31.0599 73.6744 31.2483 72.7675 31.4368C71.8605 31.6252 70.824 31.7077 69.6815 31.7077C68.751 31.7077 67.903 31.6252 67.1374 31.4603C66.36 31.2954 65.7004 31.0245 65.1468 30.6358C64.5932 30.2589 64.1692 29.7642 63.8629 29.1635C63.5685 28.5628 63.4154 27.8208 63.4154 26.9492C63.4036 26.0776 63.592 25.3473 63.9689 24.7584ZM23.981 30.9067C23.981 31.0245 23.9692 31.1541 23.9221 31.3072C23.6394 31.4014 23.2743 31.4603 22.8738 31.4957C22.4733 31.531 22.0847 31.5428 21.7431 31.5428C20.3414 31.5428 19.2225 31.1541 18.3744 30.3885C17.5264 29.6229 17.1024 28.3626 17.1024 26.6194V11.4369C17.762 11.3309 18.398 11.272 19.0458 11.272C19.6583 11.272 20.2943 11.3309 20.9539 11.4369V25.7595C20.9539 26.3249 20.9893 26.7725 21.0482 27.1258C21.107 27.4674 21.213 27.7383 21.3426 27.9268C21.484 28.1152 21.6606 28.2566 21.8726 28.3272C22.0964 28.3979 22.3673 28.4333 22.6971 28.4333C22.8385 28.4333 22.9916 28.4215 23.1683 28.4097C23.345 28.3861 23.5099 28.3626 23.6748 28.3272C23.875 29.0693 23.981 29.7996 23.981 30.5063C23.981 30.6476 23.981 30.7772 23.981 30.9067ZM30.3885 31.3779C29.7407 31.4839 29.0929 31.5428 28.4804 31.5428C27.8797 31.5428 27.2554 31.4957 26.5958 31.3779V20.2237H24.7702C24.7113 19.9881 24.6641 19.7407 24.6406 19.4816C24.6053 19.2225 24.6053 18.9634 24.6053 18.7278C24.6053 18.2331 24.6524 17.7502 24.7702 17.279H30.3885V31.3779V31.3779ZM46.4661 31.3779C45.8065 31.4839 45.1587 31.5428 44.5227 31.5428C43.8866 31.5428 43.2388 31.4957 42.591 31.3779V23.4038C42.591 22.4262 42.4379 21.6606 42.1434 21.1424C41.8372 20.6123 41.3189 20.3414 40.5769 20.3414C40.2706 20.3414 39.9526 20.3886 39.6228 20.4828C39.293 20.577 38.9986 20.7537 38.7394 21.0128C38.4803 21.2719 38.2683 21.6489 38.1034 22.12C37.9385 22.5911 37.856 23.2154 37.856 23.9692V31.3661C37.1964 31.4721 36.5604 31.531 35.9126 31.531C35.2766 31.531 34.6287 31.4839 33.9809 31.3661V17.279C34.2283 17.2319 34.4874 17.1848 34.7465 17.1612C35.0057 17.1377 35.2766 17.1141 35.5946 17.1141C35.9008 17.1141 36.1717 17.1259 36.4191 17.1612C36.6546 17.1848 36.902 17.2319 37.1611 17.279C37.2082 17.3733 37.2671 17.5028 37.3025 17.6677C37.3496 17.8444 37.3849 18.0211 37.432 18.2213C37.4674 18.4098 37.5027 18.5982 37.5262 18.7867C37.5498 18.9634 37.5734 19.1165 37.5969 19.246C37.7736 18.9751 37.9974 18.7042 38.2447 18.4333C38.5039 18.1624 38.7983 17.9151 39.1281 17.7031C39.4697 17.4793 39.8466 17.3026 40.2706 17.173C40.6829 17.0317 41.154 16.9728 41.6605 16.9728C43.2624 16.9728 44.4638 17.4086 45.2765 18.2802C46.0892 19.1518 46.4897 20.5299 46.4897 22.4027V31.3779H46.4661ZM52.6734 31.1541C51.7311 30.789 50.9655 30.2943 50.3766 29.6464C49.7876 28.9986 49.3518 28.233 49.0692 27.3379C48.7865 26.4545 48.6451 25.4769 48.6451 24.4286C48.6451 23.3921 48.7865 22.4145 49.0809 21.5075C49.3636 20.6006 49.7994 19.8114 50.3766 19.14C50.9537 18.4687 51.6604 17.9386 52.5085 17.5382C53.3565 17.1495 54.3341 16.961 55.4649 16.961C56.4543 16.961 57.3259 17.1259 58.0797 17.4675C58.8453 17.8208 59.4931 18.292 60.0349 18.8927C60.565 19.4934 60.9772 20.2001 61.2481 21.0364C61.519 21.8609 61.6604 22.756 61.6604 23.6983C61.6604 24.0399 61.6486 24.3815 61.625 24.7113C61.6015 25.0528 61.5661 25.3237 61.519 25.524H52.4614C52.532 26.6194 52.9207 27.4085 53.6157 27.8914C54.2988 28.3861 55.2175 28.6335 56.3365 28.6335C56.949 28.6335 57.585 28.5746 58.2328 28.4568C58.8806 28.339 59.4931 28.1741 60.0703 27.9621C60.2705 28.3272 60.4472 28.7631 60.5885 29.2695C60.7299 29.776 60.8123 30.3178 60.8359 30.9067C59.4225 31.4485 57.8206 31.7312 56.0302 31.7312C54.7346 31.7077 53.6157 31.5192 52.6734 31.1541ZM75.0996 66.4778C75.0996 70.8829 71.3658 71.0478 71.3658 71.0478H68.3623H64.7345V48.3978H62.0137H58.3977V43.5215C59.8229 43.5215 61.307 43.0504 62.85 42.1081C64.3694 41.1658 65.4295 39.611 66.0184 37.4674H66.7958H67.9736H69.6344H71.5896H72.1197V37.5027C72.8735 37.5969 73.5213 37.9149 74.0749 38.445C74.758 39.0928 75.0996 39.9055 75.0996 40.8831V66.4778V66.4778Z" fill="#ED0600"/>
<path d="M100.882 37.5729C101.412 37.4904 101.93 37.4551 102.413 37.4551C102.932 37.4551 103.45 37.4904 103.945 37.5729L107.231 45.7942L110.623 37.5729C111.035 37.4904 111.495 37.4551 112.001 37.4551C112.508 37.4551 112.99 37.4904 113.462 37.5729L114.133 51.9191C113.627 52.0015 113.155 52.0368 112.696 52.0368C112.248 52.0368 111.801 52.0015 111.365 51.9191L111.012 42.19L108.102 48.9273C107.914 48.9509 107.726 48.9744 107.525 48.998C107.325 49.0215 107.125 49.0333 106.925 49.0333C106.76 49.0333 106.583 49.0333 106.406 49.0098C106.241 48.998 106.053 48.9744 105.876 48.9273L103.167 42.0487L102.885 51.9191C102.461 52.0015 102.048 52.0368 101.648 52.0368C101.224 52.0368 100.788 52.0015 100.329 51.9191L100.882 37.5729Z" fill="#ED0600"/>
<path d="M119.021 47.6318C119.08 48.4327 119.351 49.0099 119.857 49.375C120.364 49.7284 121.023 49.9168 121.86 49.9168C122.319 49.9168 122.767 49.8697 123.238 49.7873C123.709 49.7048 124.156 49.5753 124.58 49.4221C124.734 49.6813 124.851 50.0111 124.957 50.3762C125.063 50.7413 125.122 51.1536 125.134 51.5776C124.098 51.9781 122.931 52.1783 121.624 52.1783C120.67 52.1783 119.845 52.0487 119.162 51.7778C118.479 51.5187 117.926 51.1418 117.49 50.6707C117.054 50.1995 116.736 49.6342 116.536 48.9863C116.324 48.3385 116.229 47.6318 116.229 46.8544C116.229 46.1006 116.335 45.3939 116.548 44.7225C116.76 44.0629 117.078 43.474 117.502 42.9793C117.914 42.4846 118.444 42.0959 119.056 41.8132C119.669 41.5306 120.387 41.3774 121.224 41.3774C121.942 41.3774 122.578 41.507 123.132 41.7544C123.697 42.0017 124.168 42.3551 124.557 42.7909C124.946 43.2267 125.24 43.7567 125.44 44.3574C125.64 44.9699 125.735 45.6177 125.735 46.3008C125.735 46.56 125.723 46.8073 125.699 47.0547C125.688 47.302 125.664 47.4905 125.629 47.6436H119.021V47.6318ZM123.073 45.653C123.049 45.017 122.873 44.4987 122.543 44.11C122.225 43.7214 121.765 43.5211 121.176 43.5211C120.517 43.5211 120.01 43.7096 119.669 44.0747C119.327 44.4516 119.115 44.9699 119.045 45.653H123.073Z" fill="#ED0600"/>
<path d="M128.256 43.7566H126.961L126.854 43.3562L130.588 38.5977H131.048V41.6129H133.462C133.509 41.8132 133.533 41.9899 133.545 42.1548C133.556 42.3197 133.556 42.4846 133.556 42.6612C133.556 42.8497 133.556 43.0264 133.545 43.203C133.533 43.3797 133.498 43.5682 133.462 43.7802H131.048V47.832C131.048 48.2442 131.083 48.574 131.154 48.8332C131.213 49.0805 131.319 49.2807 131.436 49.4339C131.566 49.5752 131.719 49.6812 131.907 49.7283C132.096 49.7872 132.32 49.8108 132.567 49.8108C132.767 49.8108 132.968 49.7872 133.156 49.7637C133.344 49.7283 133.509 49.693 133.662 49.6694C133.757 49.9168 133.827 50.1877 133.863 50.4586C133.898 50.7295 133.922 50.9768 133.922 51.1889C133.922 51.342 133.922 51.4598 133.91 51.554C133.898 51.6482 133.898 51.7542 133.874 51.8367C133.262 51.9898 132.626 52.0605 131.978 52.0605C130.777 52.0605 129.846 51.7778 129.21 51.2124C128.562 50.647 128.256 49.7283 128.256 48.4562V43.7566V43.7566Z" fill="#ED0600"/>
<path d="M135.606 41.6129C135.806 41.5658 135.995 41.5422 136.171 41.5187C136.348 41.4951 136.548 41.4951 136.76 41.4951C136.961 41.4951 137.149 41.5069 137.349 41.5305C137.538 41.554 137.738 41.5893 137.915 41.6247C137.95 41.6836 137.997 41.7896 138.021 41.9191C138.056 42.0487 138.08 42.1783 138.115 42.3196C138.138 42.461 138.162 42.6023 138.186 42.7436C138.197 42.885 138.221 43.0028 138.233 43.097C138.527 42.6847 138.88 42.3196 139.305 41.9898C139.729 41.66 140.259 41.5069 140.895 41.5069C141.024 41.5069 141.177 41.5187 141.354 41.5305C141.519 41.5422 141.648 41.5658 141.731 41.5893C141.754 41.7189 141.778 41.872 141.79 42.0487C141.802 42.2254 141.813 42.4021 141.813 42.5905C141.813 42.8143 141.802 43.0617 141.79 43.3326C141.766 43.6035 141.731 43.8508 141.672 44.0982C141.531 44.0628 141.366 44.0628 141.189 44.0628H140.859C140.624 44.0628 140.376 44.0864 140.094 44.1335C139.823 44.1806 139.552 44.3102 139.293 44.4986C139.045 44.6989 138.833 45.0051 138.668 45.3938C138.504 45.7943 138.421 46.3596 138.421 47.0781V51.978C138.174 52.0251 137.938 52.0486 137.703 52.0604C137.467 52.0722 137.232 52.084 137.008 52.084C136.784 52.084 136.56 52.0722 136.313 52.0604C136.077 52.0486 135.842 52.0251 135.583 51.978V41.6129H135.606Z" fill="#ED0600"/>
<path d="M147.691 52.1549C146.854 52.1549 146.124 52.0135 145.512 51.7426C144.887 51.4717 144.381 51.083 143.98 50.6001C143.58 50.1172 143.274 49.5518 143.062 48.8922C142.861 48.2444 142.755 47.5377 142.755 46.7721C142.755 46.0183 142.85 45.2998 143.062 44.6402C143.274 43.9806 143.58 43.4035 143.98 42.9205C144.393 42.4376 144.899 42.0489 145.512 41.778C146.136 41.4953 146.854 41.354 147.691 41.354C148.527 41.354 149.257 41.4953 149.881 41.778C150.506 42.0607 151.024 42.4376 151.436 42.9205C151.848 43.4035 152.155 43.9806 152.355 44.6402C152.555 45.3116 152.661 46.0183 152.661 46.7721C152.661 47.5377 152.555 48.2326 152.355 48.8922C152.155 49.54 151.848 50.1054 151.436 50.6001C151.024 51.083 150.506 51.4717 149.881 51.7426C149.257 52.0253 148.527 52.1549 147.691 52.1549ZM147.691 49.9994C148.433 49.9994 148.974 49.7285 149.292 49.1749C149.61 48.6213 149.775 47.8322 149.775 46.7839C149.775 45.7474 149.61 44.9582 149.292 44.4046C148.963 43.851 148.433 43.5801 147.691 43.5801C146.96 43.5801 146.43 43.8628 146.1 44.4046C145.782 44.9582 145.618 45.7592 145.618 46.7839C145.618 47.8204 145.782 48.6213 146.1 49.1749C146.43 49.7285 146.96 49.9994 147.691 49.9994Z" fill="#ED0600"/>
<path d="M106.866 56.0538C107.114 56.0066 107.361 55.9831 107.597 55.9713C107.832 55.9595 108.068 55.9478 108.303 55.9478C108.539 55.9478 108.786 55.9595 109.022 55.9713C109.269 55.9831 109.516 56.0066 109.764 56.0538V70.718C109.116 70.9182 108.468 71.0595 107.809 71.1538C107.149 71.2598 106.336 71.3069 105.394 71.3069C104.664 71.3069 103.969 71.2127 103.309 71.0124C102.65 70.8122 102.061 70.4942 101.554 70.0702C101.048 69.6461 100.647 69.0808 100.353 68.3976C100.058 67.7145 99.917 66.8782 99.917 65.8888C99.917 65.1114 100.047 64.3694 100.294 63.6862C100.553 62.9913 100.906 62.3906 101.389 61.8959C101.86 61.3894 102.426 60.9889 103.097 60.6945C103.769 60.4 104.511 60.2469 105.335 60.2469C105.582 60.2469 105.83 60.2587 106.112 60.2822C106.372 60.294 106.631 60.3411 106.878 60.4118V56.0538H106.866ZM106.866 62.6497C106.595 62.579 106.383 62.5437 106.207 62.5201C106.042 62.4966 105.818 62.4848 105.559 62.4848C105.111 62.4848 104.711 62.579 104.381 62.7557C104.039 62.9442 103.769 63.1915 103.557 63.4978C103.333 63.804 103.168 64.1691 103.074 64.5932C102.968 65.0054 102.92 65.4412 102.92 65.9006C102.92 66.4659 102.991 66.9371 103.133 67.3258C103.262 67.7145 103.451 68.0325 103.698 68.2563C103.945 68.4918 104.216 68.6567 104.546 68.7627C104.876 68.857 105.229 68.9159 105.618 68.9159C105.842 68.9159 106.065 68.9041 106.254 68.8805C106.442 68.857 106.666 68.8216 106.89 68.751V62.6497H106.866Z" fill="#ED0600"/>
<path d="M114.888 66.6538C114.946 67.4783 115.229 68.079 115.747 68.4442C116.266 68.8093 116.949 68.9977 117.797 68.9977C118.268 68.9977 118.739 68.9506 119.222 68.8564C119.705 68.774 120.176 68.6444 120.612 68.4795C120.765 68.7504 120.895 69.0802 121.001 69.4689C121.107 69.8576 121.165 70.258 121.189 70.7056C120.117 71.1179 118.916 71.3181 117.585 71.3181C116.595 71.3181 115.747 71.1885 115.052 70.9059C114.346 70.635 113.769 70.2463 113.321 69.7633C112.873 69.2804 112.544 68.7033 112.343 68.0319C112.131 67.3605 112.025 66.6303 112.025 65.8293C112.025 65.052 112.143 64.3099 112.355 63.6268C112.579 62.9436 112.897 62.3429 113.333 61.8364C113.769 61.33 114.299 60.9295 114.935 60.635C115.571 60.3406 116.313 60.1992 117.161 60.1992C117.903 60.1992 118.562 60.3288 119.14 60.5879C119.705 60.847 120.2 61.2004 120.6 61.6597C121.001 62.1073 121.307 62.6491 121.507 63.2734C121.719 63.8977 121.813 64.569 121.813 65.2757C121.813 65.5349 121.802 65.794 121.778 66.0413C121.754 66.2887 121.731 66.4889 121.707 66.642H114.888V66.6538ZM119.057 64.6161C119.034 63.9566 118.845 63.4265 118.515 63.0261C118.174 62.6138 117.714 62.4136 117.114 62.4136C116.431 62.4136 115.912 62.6138 115.547 62.9907C115.194 63.3676 114.982 63.9212 114.911 64.6161H119.057Z" fill="#ED0600"/>
<path d="M128.621 56.3004C129.128 56.218 129.61 56.1826 130.082 56.1826C130.553 56.1826 131.059 56.218 131.577 56.3004V68.4794H136.689C136.736 68.7149 136.76 68.9387 136.772 69.1507C136.784 69.3627 136.795 69.563 136.795 69.7514C136.795 69.9752 136.784 70.1872 136.772 70.3992C136.76 70.6113 136.736 70.8351 136.689 71.0588H128.621V56.3004Z" fill="#ED0600"/>
<path d="M139.104 62.6727H137.726C137.69 62.496 137.655 62.3076 137.631 62.1073C137.62 61.9071 137.608 61.7186 137.608 61.542C137.608 61.1651 137.655 60.8117 137.726 60.4466H141.954V71.0708C141.471 71.1532 140.988 71.2003 140.517 71.2003C140.07 71.2003 139.587 71.1532 139.104 71.0708V62.6727ZM138.668 58.6562C138.586 58.1851 138.55 57.7375 138.55 57.2782C138.55 56.8424 138.586 56.383 138.668 55.9001C138.904 55.853 139.151 55.8294 139.422 55.8058C139.693 55.7823 139.928 55.7705 140.152 55.7705C140.376 55.7705 140.635 55.7823 140.906 55.8058C141.189 55.8294 141.436 55.853 141.66 55.9001C141.707 56.1356 141.73 56.3594 141.742 56.5832C141.754 56.8188 141.766 57.0426 141.766 57.2664C141.766 57.4902 141.766 57.714 141.742 57.9495C141.73 58.1733 141.707 58.4089 141.66 58.6445C141.424 58.6916 141.177 58.7151 140.906 58.7269C140.647 58.7387 140.399 58.7505 140.164 58.7505C139.952 58.7505 139.704 58.7387 139.422 58.7269C139.163 58.7269 138.904 58.7034 138.668 58.6562Z" fill="#ED0600"/>
<path d="M144.828 60.4465C145.017 60.4112 145.205 60.3758 145.405 60.3523C145.594 60.3287 145.806 60.3169 146.041 60.3169C146.277 60.3169 146.477 60.3287 146.666 60.3523C146.842 60.3758 147.031 60.3994 147.219 60.4465C147.266 60.5172 147.29 60.6114 147.337 60.741C147.372 60.8705 147.396 61.0119 147.431 61.1532C147.467 61.2946 147.478 61.4359 147.514 61.5772C147.537 61.7068 147.549 61.8246 147.561 61.9306C147.679 61.7304 147.82 61.5184 147.997 61.3181C148.173 61.1061 148.385 60.9294 148.633 60.7645C148.88 60.5996 149.163 60.4701 149.457 60.3641C149.763 60.2581 150.117 60.2109 150.494 60.2109C152.143 60.2109 153.214 60.847 153.674 62.0955C153.956 61.589 154.333 61.1532 154.84 60.7763C155.335 60.3994 155.971 60.2109 156.736 60.2109C157.949 60.2109 158.833 60.5407 159.398 61.2121C159.963 61.8835 160.246 62.92 160.246 64.3216V71.0825C159.751 71.1649 159.269 71.212 158.786 71.212C158.303 71.212 157.82 71.1649 157.325 71.0825V65.0872C157.325 64.357 157.231 63.7798 157.042 63.3911C156.854 62.9907 156.477 62.7904 155.923 62.7904C155.7 62.7904 155.464 62.8258 155.24 62.8847C155.017 62.9553 154.804 63.0849 154.628 63.2733C154.439 63.45 154.286 63.7091 154.18 64.0507C154.062 64.3923 154.004 64.8163 154.004 65.3464V71.0825C153.509 71.1649 153.026 71.212 152.543 71.212C152.072 71.212 151.577 71.1649 151.083 71.0825V65.0872C151.083 64.357 150.988 63.7798 150.8 63.3911C150.623 62.9907 150.246 62.7904 149.681 62.7904C149.445 62.7904 149.21 62.8258 148.986 62.8847C148.75 62.9553 148.55 63.0967 148.362 63.2851C148.173 63.4854 148.032 63.768 147.914 64.1214C147.796 64.4747 147.749 64.9341 147.749 65.5113V71.0825C147.254 71.1649 146.772 71.212 146.289 71.212C145.806 71.212 145.323 71.1649 144.828 71.0825V60.4465V60.4465Z" fill="#ED0600"/>
<path d="M168.162 64.0861C168.162 63.7563 168.103 63.4971 167.997 63.2851C167.879 63.0849 167.738 62.92 167.549 62.8022C167.361 62.6844 167.114 62.602 166.843 62.5666C166.56 62.5195 166.254 62.5077 165.912 62.5077C165.17 62.5077 164.381 62.6491 163.557 62.9435C163.368 62.5902 163.215 62.2486 163.121 61.9424C163.027 61.6244 162.979 61.2474 162.979 60.8116C163.58 60.5996 164.181 60.4583 164.782 60.3523C165.382 60.2581 165.948 60.2109 166.466 60.2109C167.891 60.2109 168.998 60.5525 169.799 61.2357C170.6 61.9188 171.001 63.0142 171.001 64.5219V70.682C170.518 70.8351 169.94 70.9765 169.257 71.1178C168.574 71.2592 167.797 71.318 166.937 71.318C166.242 71.318 165.606 71.2592 165.017 71.1296C164.44 71.0118 163.933 70.7998 163.521 70.5171C163.109 70.2344 162.779 69.8575 162.555 69.4099C162.332 68.9624 162.226 68.4088 162.226 67.7492C162.226 67.0896 162.367 66.536 162.638 66.0884C162.921 65.6408 163.286 65.2875 163.733 65.0283C164.181 64.7574 164.676 64.569 165.217 64.4512C165.771 64.3334 166.313 64.2745 166.855 64.2745C167.255 64.2745 167.691 64.2981 168.174 64.3334V64.0861H168.162ZM168.162 66.1944C167.997 66.1709 167.82 66.1473 167.62 66.1237C167.432 66.1002 167.255 66.0884 167.114 66.0884C166.442 66.0884 165.912 66.2062 165.524 66.4535C165.135 66.7009 164.935 67.0778 164.935 67.6078C164.935 67.9612 165.005 68.2439 165.17 68.4323C165.312 68.6208 165.488 68.7621 165.712 68.8446C165.924 68.9388 166.148 68.9859 166.383 69.0095C166.631 69.033 166.831 69.0448 167.008 69.0448C167.22 69.0448 167.42 69.0212 167.62 68.9859C167.832 68.9506 168.009 68.927 168.162 68.8917V66.1944Z" fill="#ED0600"/>
</svg>
