<svg width="161" height="108" viewBox="0 0 161 108" fill="none" xmlns="http://www.w3.org/2000/svg">
<path d="M24.6293 55.2131C24.6293 55.047 24.7955 54.8901 25.0724 54.8901C25.9587 54.8901 29.5683 57.7232 29.5683 59.7165C29.5683 61.7375 25.3955 68.548 22.1552 72.8484C19.1087 76.8996 14.2897 81.8829 12.868 81.8829C12.3879 81.8829 12.1387 81.5599 11.6586 80.3049C10.8924 78.4777 9.79385 75.4785 9.10147 73.6144C8.45525 71.9902 3.87625 60.3164 2.65765 58.8583C2.13144 58.2585 1.77145 58.0923 1.31909 57.9632C0.672866 57.7601 0.469727 57.6771 0.469727 57.271C0.469727 56.662 1.48526 56.662 1.89146 56.662C2.41767 56.662 6.83044 56.9019 7.64283 57.8801C8.04903 58.4061 8.45523 59.4581 8.74142 60.2333C10.6801 65.4196 12.9142 71.335 14.8159 75.6723C15.056 76.1983 15.6652 77.6194 16.1084 77.6194C17.447 77.6194 25.3494 66.0748 25.3494 58.4892C25.3494 57.8432 25.3125 57.3172 24.7862 55.776L24.6293 55.2131Z" fill="#3822E4"/>
<path d="M37.3969 63.5275C37.3969 63.9335 37.2031 64.0535 36.9538 64.0535C36.76 64.0535 34.849 63.6013 34.0366 63.2414C33.5104 63.0015 33.5104 62.5585 33.5104 62.2355V60.4545C33.5104 60.1684 33.4273 59.0425 33.4273 58.7933C33.4273 58.5073 33.4642 58.3135 33.7966 58.3135C34.0366 58.3135 37 58.8395 37.3231 59.5224C37.3693 59.6424 37.3693 60.8236 37.3693 61.4695L37.3969 63.5275ZM37.2769 80.7475C37.2308 81.2274 37.0277 81.3105 36.5845 81.3105C35.9014 81.3105 34.0735 80.8306 33.5473 80.4615C33.2611 80.2584 33.178 79.9724 33.178 79.5294C33.178 78.5512 33.3442 74.1401 33.3442 73.2449C33.3442 71.8699 33.3442 69.1937 32.7811 68.1786C32.5318 67.8187 32.4487 67.6156 32.4487 67.3295C32.4487 67.1634 32.4487 66.9697 33.058 66.9697C34.1473 66.9697 35.5321 67.3757 36.5384 67.7818C37.3877 68.1047 37.637 68.3908 37.637 69.1106C37.637 69.3136 37.3877 73.208 37.3508 73.734C37.2677 76.0042 37.2308 76.8901 37.2308 78.3574L37.2769 80.7475Z" fill="#3822E4"/>
<path d="M45.1424 72.8392C44.0438 70.1722 43.3976 69.074 42.5482 68.5849C41.8559 68.1789 41.782 68.1419 41.782 67.8559C41.782 67.376 42.3082 67.3298 42.6313 67.3298C42.6313 67.3298 47.0533 67.496 47.9027 68.548C48.4658 69.277 51.3923 78.8376 52.3247 78.8376C53.4602 78.8376 58.4453 73.0791 58.4453 67.0438C58.4453 65.6226 58.4454 65.5396 58.7685 65.5396C59.2485 65.5396 60.0609 66.4716 60.7533 67.2376C60.9564 67.4867 61.8888 68.5388 61.7688 69.4708C61.5657 71.2519 58.3253 75.3124 56.0543 77.3795C53.331 79.8896 50.2106 81.8368 49.2413 81.8368C48.9551 81.8368 48.632 81.8368 47.6996 79.4466L45.1424 72.8392Z" fill="#3822E4"/>
<path d="M78.6352 70.3292C78.0259 69.6832 76.1611 68.9542 74.4624 68.9542C70.2527 68.9542 68.1756 72.5994 68.1756 75.6816C68.1756 76.0507 68.1755 77.2227 68.951 78.0717C69.7634 78.9577 71.019 79.2437 72.1083 79.2437C74.6655 79.2437 76.5673 78.0256 77.1765 77.6657C79.4476 76.2076 79.4475 75.4786 79.4475 75.0264C79.4475 74.6665 79.3275 73.9375 79.2814 73.5683C79.0321 71.7134 78.9121 70.6614 78.6352 70.3292ZM82.8079 68.2159C83.0849 68.2159 83.1311 68.4189 83.1311 68.8342C83.1311 69.1941 83.2049 72.7193 83.8603 76.3737C84.3035 78.8377 84.5527 79.0038 85.162 79.0038C85.4389 79.0038 85.7621 79.1238 85.7621 79.4468C85.7621 80.0558 82.5218 81.8369 81.3401 81.8369C80.7308 81.8369 80.5277 81.7169 79.7614 77.2966C76.798 79.7236 73.3177 81.274 69.4588 81.274C64.1136 81.274 63.3843 78.4686 63.3843 77.1766C63.3843 72.5532 70.6774 67.127 75.3025 67.127C77.6104 67.127 78.9121 68.6219 79.4753 69.3141C79.9276 69.1572 82.5586 68.2159 82.8079 68.2159Z" fill="#3822E4"/>
<path d="M103.598 67.3761C105.5 67.3761 105.666 68.2251 106.552 73.0054C106.755 74.2235 107.484 78.1548 108.048 78.8007C108.334 79.1237 108.62 79.1699 109.063 79.253C109.266 79.2899 109.349 79.4929 109.349 79.6128C109.349 80.4249 105.38 81.883 104.973 81.883C104.124 81.883 104.078 81.5231 103.192 77.2689C102.509 74.0667 102.185 72.6086 101.862 71.6765C101.659 71.1044 101.456 70.6245 100.681 70.6245C99.3882 70.6245 95.4462 74.8326 93.7937 79.9451C93.4706 80.914 93.3875 81.1171 92.8982 81.1171C92.6582 81.1171 91.5227 80.9602 90.7103 80.628C90.221 80.4342 90.0549 80.268 90.0549 79.6959C90.0549 79.6959 90.138 77.5826 90.1749 76.9828C90.258 75.4878 90.3411 73.6975 90.3411 72.0825C90.3411 70.3384 90.221 69.2864 90.1379 68.8803C90.101 68.6773 89.6487 67.8652 89.6487 67.6622C89.6487 67.2562 89.9718 67.2192 90.258 67.2192C90.618 67.2192 92.5659 67.4223 93.8584 67.9852C94.5507 68.3082 94.5877 68.7973 94.5877 69.4802C94.5877 70.6614 93.9414 75.7647 93.8214 76.7798C96.914 70.2092 101.207 67.3761 103.598 67.3761Z" fill="#3822E4"/>
<path d="M129.022 70.9844C127.481 69.3602 124.646 68.8341 122.985 68.8341C117.307 68.8341 116.864 74.4634 116.864 75.1556C116.864 79.0038 120.031 79.0407 120.88 79.0407C123.557 79.0407 127.453 77.4626 128.985 76.2445C129.022 74.3065 129.022 73.9005 129.022 70.9844ZM133.038 62.7158C132.835 65.0598 132.669 68.6311 132.669 72.8023C132.669 73.3283 132.752 80.4987 132.909 81.9199C132.955 82.2429 132.955 82.4459 132.955 82.529C132.955 82.852 132.789 83.0181 132.429 83.0181C131.819 83.0181 130.398 82.5751 129.465 81.883C128.856 81.477 128.856 81.154 128.856 80.6741C128.856 80.065 128.893 79.216 128.948 77.9979C126.834 79.0499 122.172 81.357 117.473 81.357C113.014 81.357 112.119 78.8007 112.119 77.2227C112.119 72.4793 118.729 67.0069 123.834 67.0069C126.511 67.0069 127.933 68.2251 129.059 69.3232C129.022 64.8291 129.022 59.9196 128.653 55.9514C128.616 55.3424 128.57 55.0563 128.413 54.6964C128.413 54.6502 128.21 54.1704 128.21 54.0504C128.21 53.8105 128.533 53.6074 128.893 53.6074C129.992 53.6074 131.45 54.2534 132.18 54.5764C132.992 54.9824 133.472 55.3054 133.472 56.1175L133.038 62.7158Z" fill="#3822E4"/>
<path d="M152.979 70.3292C152.369 69.6832 150.505 68.9542 148.806 68.9542C144.587 68.9542 142.519 72.5994 142.519 75.6816C142.519 76.0507 142.519 77.2227 143.295 78.0717C144.107 78.9577 145.363 79.2437 146.452 79.2437C149.009 79.2437 150.911 78.0256 151.52 77.6657C153.782 76.2076 153.782 75.4786 153.782 75.0264C153.782 74.6665 153.662 73.9375 153.616 73.5683C153.376 71.7134 153.265 70.6614 152.979 70.3292ZM157.152 68.2159C157.438 68.2159 157.475 68.4189 157.475 68.8342C157.475 69.1941 157.558 72.7193 158.204 76.3737C158.656 78.8377 158.896 79.0038 159.506 79.0038C159.792 79.0038 160.115 79.1238 160.115 79.4468C160.115 80.0558 156.875 81.8369 155.693 81.8369C155.084 81.8369 154.88 81.7169 154.114 77.2966C151.151 79.7236 147.67 81.274 143.821 81.274C138.466 81.274 137.737 78.4686 137.737 77.1766C137.737 72.5532 145.03 67.127 149.655 67.127C151.963 67.127 153.265 68.6219 153.828 69.3141C154.271 69.1572 156.911 68.2159 157.152 68.2159Z" fill="#3822E4"/>
<path d="M88.3287 0C88.3287 0 82.4665 3.99586 79.1431 9.29291C80.8602 10.5756 82.3188 12.0614 83.1958 13.7409C85.5868 18.3089 83.879 22.2679 82.3188 24.5473C83.879 23.9475 85.4299 22.877 86.75 21.0682C91.5136 14.5069 88.3287 0 88.3287 0Z" fill="#3822E4"/>
<path d="M79.623 27.3712C79.623 27.3712 86.0299 21.6866 82.2633 14.4885C78.4967 7.28119 64.0952 3.68213 64.0952 3.68213C64.0952 3.68213 65.4523 13.6026 70.4097 18.8073C72.5238 21.0221 75.8565 23.1262 76.6596 23.929C77.4628 24.7319 76.8997 22.0926 75.4595 18.7243C74.3979 16.2603 72.893 13.9256 72.893 13.9256C72.893 13.9256 78.5798 18.3275 79.2168 24.8888C79.4106 26.8083 79.623 27.3712 79.623 27.3712Z" fill="#3822E4"/>
<path d="M84.8668 23.7261C92.5292 25.5348 98.179 31.7824 98.179 39.2112C98.179 48.0611 90.175 55.2315 80.2878 55.2315C70.4098 55.2315 62.4059 48.0611 62.4059 39.2112C62.4059 31.7824 68.0557 25.5348 75.7181 23.7261C65.8401 25.5441 58.4177 33.139 58.4177 42.2381C58.4177 52.6845 68.2126 61.1653 80.2878 61.1653C92.3722 61.1653 102.167 52.6937 102.167 42.2381C102.167 33.139 94.7448 25.5533 84.8668 23.7261Z" fill="#3822E4"/>
<path d="M43.85 92.0154C43.85 92.2184 43.7485 92.2738 43.6285 92.2738C43.5269 92.2738 42.5761 92.0523 42.1699 91.8677C41.9114 91.7477 41.9114 91.5263 41.9114 91.3602V90.465C41.9114 90.3174 41.8652 89.7544 41.8652 89.6345C41.8652 89.4961 41.8837 89.3945 42.0499 89.3945C42.1699 89.3945 43.6562 89.6529 43.8131 90.0036C43.8316 90.059 43.8316 90.6496 43.8316 90.9726L43.85 92.0154ZM43.7946 100.644C43.7762 100.884 43.6654 100.93 43.4438 100.93C43.093 100.93 42.1884 100.681 41.9206 100.505C41.7822 100.404 41.736 100.256 41.736 100.035C41.736 99.5457 41.8191 97.3309 41.8191 96.8879C41.8191 96.1958 41.8191 94.8577 41.5329 94.3501C41.4129 94.1656 41.3667 94.0641 41.3667 93.9256C41.3667 93.8426 41.3667 93.7503 41.6714 93.7503C42.216 93.7503 42.9084 93.9533 43.4162 94.1563C43.8408 94.3224 43.97 94.4609 43.97 94.83C43.97 94.9315 43.8408 96.8787 43.8224 97.1463C43.7854 98.2814 43.767 98.7336 43.767 99.4626L43.7946 100.644Z" fill="#3822E4"/>
<path d="M61.2057 93.6581C62.1566 93.6581 62.2397 94.0826 62.6921 96.482C62.7936 97.0911 63.1536 99.0567 63.4398 99.3797C63.5783 99.5458 63.726 99.555 63.9476 99.6012C64.0491 99.6196 64.0861 99.7211 64.0861 99.7857C64.0861 100.192 62.092 100.921 61.8981 100.921C61.4642 100.921 61.4457 100.736 61.0026 98.6045C60.661 96.9988 60.4949 96.2698 60.338 95.7991C60.2364 95.513 60.1348 95.2731 59.7471 95.2731C59.1009 95.2731 57.1253 97.3864 56.2944 99.9426C56.1283 100.432 56.0913 100.533 55.8513 100.533C55.7313 100.533 55.1589 100.45 54.7527 100.284C54.5127 100.183 54.4296 100.1 54.4296 99.8227C54.4296 99.8227 54.4665 98.7614 54.485 98.4569C54.5311 97.7094 54.5681 96.8142 54.5681 96.0021C54.5681 95.1254 54.5034 94.5994 54.4665 94.3964C54.448 94.2949 54.2173 93.8889 54.2173 93.7781C54.2173 93.5751 54.3834 93.5566 54.5219 93.5566C54.7065 93.5566 55.6851 93.6581 56.3313 93.9442C56.6729 94.1011 56.7006 94.3503 56.7006 94.6917C56.7006 95.2823 56.3775 97.8386 56.3129 98.3461C57.8546 95.0793 60.0056 93.6581 61.2057 93.6581Z" fill="#3822E4"/>
<path d="M32.1533 98.9737C32.9288 99.7858 34.3505 100.053 35.1814 100.053C38.0248 100.053 38.2463 97.2296 38.2463 96.8881C38.2463 94.9594 36.6584 94.941 36.2337 94.941C34.8951 94.941 32.938 95.7346 32.1718 96.3437C32.1533 97.3034 32.1533 97.5064 32.1533 98.9737ZM30.1408 103.108C30.2423 101.936 30.3254 100.146 30.3254 98.0509C30.3254 97.7833 30.2885 94.1935 30.2054 93.4829C30.1869 93.3168 30.1869 93.2153 30.1869 93.1784C30.1869 93.0122 30.2701 92.9292 30.4547 92.9292C30.7593 92.9292 31.4702 93.1507 31.941 93.5014C32.2456 93.7044 32.2457 93.8613 32.2457 94.1104C32.2457 94.415 32.2271 94.8395 32.1995 95.4577C33.2519 94.9317 35.5876 93.769 37.9509 93.769C40.185 93.769 40.6373 95.0425 40.6373 95.8453C40.6373 98.217 37.3231 100.967 34.7659 100.967C33.4273 100.967 32.7164 100.358 32.1441 99.8043C32.1625 102.056 32.1626 104.52 32.3472 106.504C32.3657 106.809 32.3841 106.956 32.4672 107.132C32.4672 107.15 32.5687 107.399 32.5687 107.455C32.5687 107.575 32.4026 107.676 32.2272 107.676C31.6825 107.676 30.9439 107.353 30.5839 107.187C30.1777 106.984 29.9285 106.818 29.9285 106.421L30.1408 103.108Z" fill="#3822E4"/>
<path d="M80.2786 95.1624C79.974 94.8394 79.0416 94.4702 78.1922 94.4702C76.0782 94.4702 75.0442 96.2974 75.0442 97.8385C75.0442 98.0231 75.0442 98.6137 75.4319 99.0382C75.8381 99.4812 76.4659 99.6288 77.0106 99.6288C78.2938 99.6288 79.2447 99.0198 79.5493 98.8352C80.6849 98.1062 80.6848 97.7371 80.6848 97.5156C80.6848 97.331 80.6202 96.9711 80.6017 96.7865C80.4817 95.8545 80.4171 95.3285 80.2786 95.1624ZM82.365 94.1103C82.5035 94.1103 82.522 94.2118 82.522 94.4149C82.522 94.5994 82.5681 96.362 82.8913 98.1892C83.1128 99.4258 83.2328 99.5089 83.5375 99.5089C83.676 99.5089 83.8421 99.5642 83.8421 99.7304C83.8421 100.035 82.2173 100.93 81.6265 100.93C81.3219 100.93 81.2203 100.865 80.8325 98.6506C79.3462 99.8688 77.6014 100.644 75.672 100.644C72.9855 100.644 72.6255 99.2413 72.6255 98.5953C72.6255 96.279 76.2813 93.5566 78.5984 93.5566C79.7524 93.5566 80.4079 94.3134 80.6848 94.6548C80.9249 94.5718 82.245 94.1103 82.365 94.1103Z" fill="#3822E4"/>
<path d="M53.1924 98.6595C53.1924 98.6595 53.1462 98.4473 52.9893 98.5211C52.8231 98.5949 52.5831 98.7057 52.0938 98.9733C51.5953 99.2594 50.8937 99.6839 49.6105 99.8315C48.4288 99.9607 47.6349 99.2963 47.5979 98.4657C47.561 97.6352 47.8657 97.4045 48.955 97.1553C50.0444 96.9061 52.777 96.8231 52.777 96.8231C52.9155 96.8139 52.9155 96.7954 52.9524 96.74C53.1186 96.4632 53.2478 95.6511 53.1647 95.0236C53.0908 94.4606 52.5093 93.9254 51.3276 93.7131C50.3952 93.547 49.3612 93.7132 48.1611 94.313C46.047 95.365 45.0961 96.9984 45.29 98.4657C45.3454 98.8533 45.6039 99.7116 46.3055 100.136C47.5056 100.865 48.7704 100.819 49.9521 100.478C51.4384 100.044 51.8723 99.7946 52.3062 99.7946C52.62 99.7946 52.6477 100.016 52.8508 99.9423C53.1185 99.6654 53.1832 98.9825 53.1832 98.7518C53.2016 98.7149 53.2017 98.6872 53.1924 98.6595ZM47.5425 95.9648C48.1703 94.7006 49.712 94.2761 50.4413 94.2761C51.1522 94.2761 51.6322 94.7652 51.6692 95.2635C51.7061 95.7526 51.6323 95.8357 51.6323 95.8357C51.623 96.0018 51.4753 96.131 51.2906 96.1494L47.9211 96.4355C47.7826 96.4447 47.6534 96.3986 47.5795 96.2971C47.5057 96.2048 47.4872 96.0756 47.5425 95.9648Z" fill="#3822E4"/>
<path d="M108.481 98.6595C108.481 98.6595 108.445 98.4473 108.278 98.5211C108.112 98.5949 107.881 98.7057 107.392 98.9733C106.884 99.2594 106.192 99.6839 104.909 99.8315C103.718 99.9607 102.924 99.2963 102.887 98.4657C102.85 97.6352 103.164 97.4045 104.253 97.1553C105.343 96.9061 108.075 96.8231 108.075 96.8231C108.214 96.8139 108.214 96.7954 108.251 96.74C108.417 96.4632 108.546 95.6511 108.463 95.0236C108.389 94.4606 107.808 93.9254 106.626 93.7131C105.693 93.547 104.66 93.7132 103.459 94.313C101.345 95.365 100.395 96.9984 100.598 98.4657C100.653 98.8533 100.911 99.7116 101.604 100.136C102.813 100.865 104.069 100.819 105.25 100.478C106.737 100.044 107.171 99.7946 107.604 99.7946C107.918 99.7946 107.946 100.016 108.149 99.9423C108.417 99.6654 108.491 98.9825 108.491 98.7518C108.491 98.7149 108.481 98.6872 108.481 98.6595ZM102.832 95.9648C103.459 94.7006 105.001 94.2761 105.73 94.2761C106.441 94.2761 106.921 94.7652 106.968 95.2635C107.004 95.7526 106.931 95.8357 106.931 95.8357C106.921 96.0018 106.774 96.131 106.589 96.1494L103.219 96.4355C103.09 96.4447 102.952 96.3986 102.878 96.2971C102.795 96.2048 102.776 96.0756 102.832 95.9648Z" fill="#3822E4"/>
<path d="M71.1114 99.4994C70.4005 99.9608 69.9943 100.127 69.1912 100.321C68.3972 100.514 67.4002 100.588 66.3201 100.542C64.4184 100.459 64.3815 100.118 64.363 99.9331V99.8132C64.363 99.8132 64.5477 98.9918 64.6585 98.798C64.7785 98.6042 64.7415 98.9272 65.4431 99.2318C66.154 99.5363 67.0033 99.7024 67.631 99.7116C68.3695 99.7301 69.2004 99.6655 69.4681 99.564C70.0682 99.3425 70.4098 99.2041 70.4744 98.715C70.5482 98.1428 69.1819 97.9213 67.908 97.6353C66.1724 97.22 65.6278 97.0631 65.2677 96.8509C64.8892 96.6386 64.7231 96.4171 64.6954 96.1034C64.6492 95.5681 65.0923 94.8114 66.4124 94.2577C67.7418 93.704 68.8496 93.6025 70.0959 93.6579C71.4345 93.7225 71.9699 94.027 71.9791 94.1747C71.9791 94.1747 71.9791 94.1931 71.9791 94.1839C71.9791 94.147 71.9976 94.3131 71.8591 94.7099C71.7668 94.996 71.656 95.199 71.536 95.2544C71.3145 95.3467 71.176 94.4146 69.542 94.2946C68.7942 94.2485 68.3695 94.3131 67.8618 94.4515C67.2156 94.6361 66.9202 94.8299 66.911 95.116C66.8925 95.5774 67.2433 95.6881 68.1203 96.0203C69.0066 96.3525 69.4128 96.4172 70.3267 96.6479C71.2406 96.8786 72.3484 97.3123 72.2838 97.8752C72.2099 98.4566 71.8222 99.038 71.1114 99.4994Z" fill="#3822E4"/>
<path d="M116.384 99.4994C115.673 99.9608 115.267 100.127 114.464 100.321C113.67 100.514 112.682 100.588 111.593 100.542C109.691 100.459 109.663 100.118 109.645 99.9331V99.8132C109.645 99.8132 109.82 98.9918 109.949 98.798C110.069 98.6042 110.033 98.9272 110.734 99.2318C111.445 99.5363 112.285 99.7024 112.922 99.7116C113.661 99.7301 114.491 99.6655 114.759 99.564C115.368 99.3425 115.701 99.2041 115.765 98.715C115.839 98.1428 114.464 97.9213 113.199 97.6353C111.463 97.22 110.928 97.0631 110.549 96.8509C110.18 96.6386 110.005 96.4171 109.977 96.1034C109.931 95.5681 110.374 94.8114 111.694 94.2577C113.024 93.704 114.131 93.6025 115.378 93.6579C116.707 93.7225 117.252 94.027 117.261 94.1747V94.1839C117.261 94.147 117.279 94.3131 117.141 94.7099C117.049 94.996 116.929 95.199 116.809 95.2544C116.596 95.3467 116.449 94.4146 114.815 94.2946C114.067 94.2485 113.633 94.3131 113.134 94.4515C112.497 94.6361 112.193 94.8299 112.184 95.116C112.165 95.5774 112.507 95.6881 113.393 96.0203C114.27 96.3525 114.685 96.4172 115.599 96.6479C116.504 96.8786 117.621 97.3123 117.556 97.8752C117.483 98.4566 117.095 99.038 116.384 99.4994Z" fill="#3822E4"/>
<path d="M94.4308 94.2577C94.1816 94.3223 92.8245 94.7007 92.4183 94.4515C91.929 94.1562 91.8274 94.0085 91.8644 93.3348C91.8921 92.8457 91.8459 92.2275 92.3444 91.6461C92.7599 91.1662 93.4246 91.0832 93.7938 91.0462C94.5139 90.9632 94.4493 91.3139 94.6155 91.5723C94.7817 91.8307 95.114 91.6645 95.2432 91.5169C95.354 91.3969 95.4279 91.2031 95.2894 90.8617C95.1509 90.5202 94.5232 90.3726 93.8585 90.3726C92.9076 90.3726 91.8829 90.6402 91.2643 91.0647C90.6458 91.48 90.3134 92.0706 90.3134 92.735C90.3134 92.8181 90.3134 92.9011 90.3227 92.9842L90.3873 93.4179C90.3965 93.4825 90.4889 93.7132 90.4981 94.027C90.5165 94.3684 89.8149 94.3776 89.8334 94.6914C89.8426 94.9498 90.2396 94.9498 90.3596 95.2267C90.4796 95.5035 90.4334 95.7434 90.4704 95.9926L90.5073 96.9893L90.5166 97.8106C90.4981 99.444 90.4704 100.053 90.4704 100.053L90.4519 100.524C90.4704 100.662 90.4981 100.856 90.932 100.856C91.3105 100.856 91.8736 100.828 92.5014 100.607C92.806 100.505 92.3814 99.9885 92.2706 99.4625C92.1598 98.9365 92.0675 98.0598 92.0952 96.8139L92.1229 95.3743C92.1229 95.3005 92.1783 95.2359 92.2521 95.2267C92.2521 95.2267 92.9076 95.0606 93.4615 94.996C94.0062 94.9221 94.4124 94.9129 94.597 94.8852C94.7724 94.8575 95.1417 94.9129 95.1786 94.6637C95.2155 94.4238 94.9017 94.1285 94.4308 94.2577Z" fill="#3822E4"/>
<path d="M98.8713 94.5623C99.2221 94.2301 99.8129 93.7871 100.284 93.7871C100.653 93.7871 100.939 94.0086 100.985 94.3316C101.013 94.5254 100.93 94.7561 100.755 94.9499C100.561 95.1621 100.339 95.3282 100.062 95.3005C99.7852 95.2636 99.8314 94.8484 99.4436 94.8484C98.862 94.8484 98.0404 95.8173 97.7635 96.4449C97.5419 96.9247 97.3942 97.8752 97.4126 98.3643C97.4403 99.5363 98.0127 99.8593 97.9758 100.053C97.9296 100.247 97.3942 100.45 96.6187 100.45C96.3602 100.45 95.834 100.45 95.7879 100.118L95.7786 99.8686L95.8063 99.2779L95.834 98.8165L95.8802 97.4692C95.8802 97.4692 95.9356 96.0573 95.7971 95.3282C95.7232 94.9314 95.4924 94.4792 95.5017 94.3869C95.5017 94.2947 95.4555 94.2301 95.5571 94.1286C95.6494 94.0363 96.5818 93.8702 97.0896 93.8702C97.5235 93.8702 97.6896 93.8978 97.7173 94.0086C97.745 94.1193 97.6158 94.4515 97.6158 94.7099C97.6158 94.9776 97.6434 95.2175 97.9111 95.2175C98.1973 95.2175 98.5759 94.8391 98.8713 94.5623Z" fill="#3822E4"/>
<path d="M126.151 98.6689C126.151 98.6689 125.911 98.6966 125.93 98.6966C125.93 98.6966 124.84 99.0934 124.84 99.0842C124.739 99.1303 124.665 99.1488 124.61 99.158C124.628 99.158 124.656 99.158 124.674 99.1488C123.908 99.4718 123.28 99.6379 122.754 99.6379C121.766 99.6379 121.092 99.0011 120.963 97.9399C120.871 97.1832 121.102 96.3434 121.6 95.6789C122.191 94.9315 123.086 94.5808 124.416 94.5808C125.2 94.5808 125.662 94.7838 125.939 95.116C125.958 95.0883 125.976 95.0514 125.976 95.0514C126.225 94.5531 126.271 94.3039 126.271 94.1286V94.1194C126.207 93.6487 125.339 93.6118 125.071 93.6118C124.314 93.6118 123.548 93.7595 122.422 94.1194C121.36 94.47 120.649 94.793 120.114 95.1714C118.858 96.0296 118.267 97.2755 118.443 98.6597C118.535 99.3518 118.923 99.9886 119.44 100.256C119.994 100.542 120.548 100.653 121.508 100.653C122.689 100.653 124.037 100.422 125.302 100.007L126.068 99.8132C126.096 99.804 126.142 99.8132 126.188 99.8225C126.29 99.4995 126.373 99.1488 126.373 98.8996L126.364 98.7612C126.364 98.7151 126.364 98.6689 126.151 98.6689Z" fill="#3822E4"/>
<path d="M135.06 95.8912C134.94 94.9868 134.635 94.3962 134.1 94.0456C133.721 93.8056 133.232 93.6672 132.761 93.6672C132.383 93.6672 131.146 93.4918 129.65 94.2578C128.552 94.8207 128.016 95.439 127.693 95.9466C127.25 96.6479 127.056 97.6354 127.185 98.5951C127.333 99.7763 128.21 100.496 129.77 100.598C131.201 100.69 132.521 100.339 133.684 99.4072C134.94 98.4105 135.106 97.5154 135.106 96.3896C135.097 96.2234 135.079 96.0573 135.06 95.8912ZM132.771 99.0288C132.281 99.7302 131.534 99.7948 130.546 99.684C129.281 99.5364 128.773 98.9273 128.746 97.5338C128.727 96.7864 128.902 95.9558 129.189 95.3744C129.586 94.6269 130.361 94.3224 131.497 94.4608C132.78 94.6177 133.343 95.1991 133.361 96.408C133.371 96.7218 133.352 97.0171 133.324 97.3031C133.251 98.0137 133.057 98.6228 132.771 99.0288Z" fill="#3822E4"/>
</svg>
