<svg width="236" height="51" viewBox="0 0 236 51" fill="none" xmlns="http://www.w3.org/2000/svg">
<path d="M23.3476 13.5103L31.8778 26.8913C32.0532 27.1682 32.3578 27.3343 32.681 27.3343H52.9539C53.2863 27.3343 53.5817 27.1682 53.7571 26.8913L61.8718 13.9994C62.0657 13.6948 62.0657 13.3072 61.8811 13.0027L56.4712 4.08816C56.2958 3.80208 55.9912 3.62675 55.6589 3.62675H29.8468C29.5144 3.62675 29.2006 3.80208 29.0344 4.08816L23.3476 13.5103ZM31.2223 38.6851L32.9856 44.7204C33.3179 45.8647 34.3796 46.6676 35.5613 46.6676H50.3229C51.5138 46.6676 52.5662 45.874 52.8985 44.7296L54.6434 38.6851H31.2223ZM59.1946 36.8948C59.2777 37.0056 59.3516 37.1163 59.4254 37.227L64.9737 46.2061C65.1491 46.4922 65.4538 46.6583 65.7861 46.6583H80.7601C81.2678 46.6583 81.5078 46.3169 81.5909 46.1693C81.674 46.0216 81.831 45.634 81.5632 45.2003L75.0271 34.6985C74.1593 33.2958 74.1132 31.5978 74.9164 30.1489C75.7195 28.7093 77.1874 27.8418 78.8399 27.8418H90.675C92.189 27.8418 93.4168 26.6145 93.4168 25.101V20.8652C93.4168 17.1924 91.2012 13.5933 88.0162 12.1168C87.8962 12.0614 87.767 12.006 87.647 11.9507C86.1145 11.3231 84.3605 11.0278 82.2741 11.074C80.5662 11.1109 79.0984 11.3508 77.8151 11.8307C75.7749 12.5782 74.2701 13.6025 73.0792 15.0422C72.8946 15.2636 72.5992 15.6605 72.3868 15.9465L72.3315 16.0204L59.1946 36.8948ZM80.7508 50.2943H65.7769C64.1706 50.2943 62.7119 49.4822 61.8718 48.1164L57.6714 41.3059L56.3882 45.7263C55.6127 48.4117 53.1201 50.285 50.3229 50.285H35.5613C32.764 50.285 30.2715 48.4117 29.496 45.7263L28.2035 41.3244L24.0123 48.1164C23.1722 49.4822 21.7136 50.2943 20.1073 50.2943H5.05946C3.37927 50.2943 1.89296 49.4269 1.07133 47.9688C0.249701 46.5107 0.268164 44.785 1.13595 43.3454L25.9233 2.21482C26.7449 0.849027 28.2497 0 29.856 0H55.6773C57.2744 0 58.77 0.849018 59.6008 2.20558L65.0107 11.1201C65.9154 12.6151 65.9061 14.4608 64.9737 15.9373L56.859 28.8293C56.0189 30.1674 54.5603 30.9702 52.9816 30.9702H32.681C31.1023 30.9702 29.6622 30.1766 28.8128 28.8477L21.2612 16.9893L4.24706 45.2279C3.98857 45.6525 4.15474 46.04 4.23783 46.1877C4.32092 46.3353 4.56094 46.6676 5.06869 46.6676H20.1257C20.4581 46.6676 20.7627 46.5015 20.9381 46.2154L26.4864 37.2363C27.3265 35.8705 28.7851 35.0583 30.3915 35.0583H55.5481C55.7235 35.0583 55.8989 35.0676 56.0743 35.086L69.3404 13.9717L69.4788 13.7871C69.7281 13.4549 70.0327 13.0396 70.282 12.7351C71.8976 10.7787 73.8916 9.40365 76.5596 8.42545C78.2306 7.80715 80.0769 7.49339 82.2002 7.44725C84.7574 7.40111 87.0469 7.7887 89.0225 8.60079C89.1979 8.67462 89.3641 8.74846 89.5395 8.82229C94.0261 10.9079 97.0449 15.7435 97.0449 20.8652V25.101C97.0449 28.617 94.1831 31.4777 90.6658 31.4777H78.8399C78.3875 31.4777 78.1659 31.7823 78.0921 31.9115C78.0182 32.0407 77.8705 32.3914 78.1105 32.779L84.6467 43.2808C85.5421 44.7112 85.5791 46.4553 84.7574 47.9318C83.9358 49.4176 82.4403 50.2943 80.7508 50.2943Z" fill="#3822E4"/>
<path d="M83.7512 18.0138C83.7512 19.075 82.8926 19.924 81.8402 19.924C80.7878 19.924 79.9292 19.0658 79.9292 18.0138C79.9292 16.9618 80.7878 16.1035 81.8402 16.1035C82.8926 16.1035 83.7512 16.9525 83.7512 18.0138Z" fill="#3822E4"/>
<path d="M155.196 39.1651C155.519 38.8513 155.685 38.4453 155.685 37.9562C155.685 37.4578 155.519 37.0518 155.196 36.738C154.873 36.4243 154.494 36.2674 154.06 36.2674C153.599 36.2674 153.211 36.4243 152.897 36.738C152.592 37.0518 152.436 37.4578 152.436 37.9654C152.436 38.473 152.592 38.879 152.906 39.1835C153.22 39.4881 153.608 39.6449 154.06 39.6449C154.494 39.6357 154.873 39.4788 155.196 39.1651ZM156.359 41.629H155.685V39.4419C155.279 39.9771 154.707 40.2448 153.959 40.2448C153.368 40.2448 152.851 40.0326 152.426 39.6081C152.002 39.1836 151.789 38.6298 151.789 37.9654C151.789 37.2917 152.002 36.7472 152.426 36.3227C152.851 35.8982 153.359 35.686 153.959 35.686C154.707 35.686 155.279 35.9537 155.685 36.4889V35.7875H156.359V41.629Z" fill="#3822E4"/>
<path d="M161.427 40.1157H160.744V39.4143C160.375 39.9588 159.83 40.2357 159.101 40.2357C158.575 40.2357 158.159 40.0695 157.836 39.7281C157.513 39.3866 157.356 38.9437 157.356 38.39V35.7876H158.039V38.27C158.039 38.6761 158.15 38.9991 158.372 39.2482C158.593 39.4974 158.879 39.6173 159.239 39.6173C159.701 39.6173 160.07 39.4697 160.338 39.1651C160.606 38.8606 160.744 38.4361 160.744 37.8824V35.7876H161.427V40.1157Z" fill="#3822E4"/>
<path d="M163.421 36.618C163.117 36.8579 162.932 37.1809 162.868 37.587H165.896C165.84 37.1717 165.674 36.8487 165.406 36.6088C165.139 36.3781 164.815 36.2581 164.446 36.2581C164.068 36.2581 163.726 36.378 163.421 36.618ZM166.579 38.0853H162.849C162.877 38.556 163.043 38.9343 163.348 39.2204C163.652 39.5065 164.003 39.6449 164.4 39.6449C165.111 39.6449 165.609 39.3311 165.886 38.7128L166.486 38.8513C166.32 39.2942 166.053 39.6449 165.692 39.8756C165.332 40.1156 164.899 40.2355 164.409 40.2355C163.809 40.2355 163.292 40.0233 162.858 39.5988C162.424 39.1743 162.203 38.6298 162.203 37.9561C162.203 37.2824 162.424 36.7287 162.868 36.3042C163.311 35.8797 163.837 35.6675 164.455 35.6675C165.046 35.6675 165.545 35.8705 165.951 36.2673C166.357 36.6733 166.57 37.1901 166.588 37.8361V38.0853H166.579Z" fill="#3822E4"/>
<path d="M169.874 33.7754H169.2V40.1245H169.874V33.7754Z" fill="#3822E4"/>
<path d="M174.121 39.1649C174.444 38.8511 174.601 38.445 174.601 37.9467C174.601 37.4576 174.444 37.0608 174.121 36.7471C173.798 36.4333 173.41 36.2764 172.958 36.2764C172.496 36.2764 172.109 36.4333 171.785 36.7471C171.462 37.0608 171.296 37.4668 171.296 37.9467C171.296 38.445 171.462 38.8419 171.785 39.1649C172.109 39.4786 172.496 39.6447 172.958 39.6447C173.41 39.6447 173.798 39.4786 174.121 39.1649ZM174.592 36.3225C175.035 36.747 175.257 37.2915 175.257 37.9467C175.257 38.6019 175.035 39.1464 174.592 39.5801C174.149 40.0139 173.604 40.2261 172.958 40.2261C172.302 40.2261 171.758 40.0139 171.315 39.5801C170.871 39.1464 170.65 38.6019 170.65 37.9467C170.65 37.2915 170.871 36.747 171.315 36.3225C171.758 35.898 172.302 35.6858 172.958 35.6858C173.604 35.6766 174.149 35.8888 174.592 36.3225Z" fill="#3822E4"/>
<path d="M181.322 39.1739C181.636 38.8694 181.793 38.4541 181.793 37.9558C181.793 37.4482 181.636 37.0422 181.322 36.7284C181.008 36.4147 180.62 36.2578 180.168 36.2578C179.743 36.2578 179.365 36.4147 179.032 36.7284C178.709 37.0422 178.543 37.4482 178.543 37.9466C178.543 38.4449 178.709 38.8417 179.032 39.1555C179.355 39.4692 179.734 39.6261 180.168 39.6261C180.629 39.6354 181.008 39.4877 181.322 39.1739ZM181.802 36.3132C182.227 36.7377 182.439 37.2914 182.439 37.9558C182.439 38.6295 182.227 39.174 181.802 39.5985C181.377 40.023 180.869 40.2352 180.269 40.2352C179.522 40.2352 178.949 39.9676 178.543 39.4324V40.1245H177.869V33.7754H178.543V36.4701C178.949 35.9348 179.522 35.6672 180.269 35.6672C180.869 35.6672 181.377 35.8795 181.802 36.3132Z" fill="#3822E4"/>
<path d="M187.184 40.1157H186.501V39.4143C186.132 39.9588 185.587 40.2357 184.858 40.2357C184.331 40.2357 183.916 40.0695 183.593 39.7281C183.27 39.3866 183.113 38.9437 183.113 38.39V35.7876H183.796V38.27C183.796 38.6761 183.907 38.9991 184.128 39.2482C184.35 39.4974 184.636 39.6173 184.996 39.6173C185.458 39.6173 185.827 39.4697 186.095 39.1651C186.362 38.8606 186.501 38.4361 186.501 37.8824V35.7876H187.184V40.1157Z" fill="#3822E4"/>
<path d="M189.178 36.618C188.873 36.8579 188.689 37.1809 188.624 37.587H191.652C191.597 37.1717 191.431 36.8487 191.154 36.6088C190.886 36.3781 190.563 36.2581 190.194 36.2581C189.824 36.2581 189.483 36.378 189.178 36.618ZM192.335 38.0853H188.606C188.633 38.556 188.8 38.9343 189.104 39.2204C189.409 39.5065 189.76 39.6449 190.157 39.6449C190.867 39.6449 191.366 39.3311 191.643 38.7128L192.243 38.8513C192.077 39.2942 191.809 39.6449 191.449 39.8756C191.089 40.1156 190.655 40.2355 190.166 40.2355C189.566 40.2355 189.049 40.0233 188.615 39.5988C188.181 39.1743 187.959 38.6298 187.959 37.9561C187.959 37.2824 188.181 36.7287 188.624 36.3042C189.067 35.8797 189.593 35.6675 190.212 35.6675C190.803 35.6675 191.301 35.8705 191.708 36.2673C192.114 36.6733 192.326 37.1901 192.345 37.8361V38.0853H192.335Z" fill="#3822E4"/>
<path d="M196.693 36.1843C197.016 36.5257 197.173 36.9687 197.173 37.5224V40.1248H196.499V37.6424C196.499 37.2363 196.388 36.9133 196.167 36.6549C195.945 36.4058 195.65 36.2765 195.29 36.2765C194.828 36.2765 194.459 36.4334 194.191 36.7379C193.923 37.0425 193.785 37.4762 193.785 38.0299V40.1248H193.111V35.7782H193.785V36.498C194.154 35.9443 194.699 35.6675 195.428 35.6675C195.945 35.6675 196.37 35.8428 196.693 36.1843Z" fill="#3822E4"/>
<path d="M201.318 39.1649C201.641 38.8511 201.798 38.445 201.798 37.9467C201.798 37.4576 201.641 37.0608 201.318 36.7471C200.995 36.4333 200.607 36.2764 200.155 36.2764C199.693 36.2764 199.305 36.4333 198.982 36.7471C198.659 37.0608 198.493 37.4668 198.493 37.9467C198.493 38.445 198.659 38.8419 198.982 39.1649C199.305 39.4786 199.693 39.6447 200.155 39.6447C200.607 39.6447 200.995 39.4786 201.318 39.1649ZM201.789 36.3225C202.232 36.747 202.453 37.2915 202.453 37.9467C202.453 38.6019 202.232 39.1464 201.789 39.5801C201.346 40.0139 200.801 40.2261 200.155 40.2261C199.499 40.2261 198.954 40.0139 198.511 39.5801C198.068 39.1464 197.847 38.6019 197.847 37.9467C197.847 37.2915 198.068 36.747 198.511 36.3225C198.954 35.898 199.508 35.6858 200.155 35.6858C200.801 35.6766 201.346 35.8888 201.789 36.3225Z" fill="#3822E4"/>
<path d="M208.519 39.1742C208.832 38.8697 208.989 38.4544 208.989 37.9561C208.989 37.4485 208.832 37.0425 208.519 36.7287C208.205 36.4149 207.826 36.2581 207.365 36.2581C206.94 36.2581 206.561 36.4149 206.229 36.7287C205.906 37.0425 205.74 37.4485 205.74 37.9468C205.74 38.4452 205.906 38.842 206.229 39.1558C206.552 39.4695 206.931 39.6264 207.365 39.6264C207.817 39.6356 208.205 39.488 208.519 39.1742ZM208.999 36.3135C209.423 36.738 209.636 37.2916 209.636 37.9561C209.636 38.6297 209.423 39.1742 208.999 39.5987C208.574 40.0233 208.066 40.2355 207.466 40.2355C206.718 40.2355 206.146 39.9679 205.74 39.4326V41.6198H205.066V35.769H205.74V36.4703C206.146 35.9351 206.718 35.6675 207.466 35.6675C208.066 35.6675 208.574 35.8797 208.999 36.3135Z" fill="#3822E4"/>
<path d="M211.251 36.618C210.947 36.8579 210.762 37.1809 210.697 37.587H213.725C213.67 37.1717 213.504 36.8487 213.227 36.6088C212.959 36.3781 212.636 36.2581 212.267 36.2581C211.888 36.2581 211.556 36.378 211.251 36.618ZM214.399 38.0853H210.67C210.697 38.556 210.864 38.9343 211.168 39.2204C211.473 39.5065 211.824 39.6449 212.221 39.6449C212.931 39.6449 213.43 39.3311 213.707 38.7128L214.307 38.8513C214.141 39.2942 213.873 39.6449 213.513 39.8756C213.153 40.1156 212.719 40.2355 212.23 40.2355C211.63 40.2355 211.113 40.0233 210.679 39.5988C210.245 39.1743 210.023 38.6298 210.023 37.9561C210.023 37.2824 210.245 36.7287 210.688 36.3042C211.131 35.8797 211.657 35.6675 212.276 35.6675C212.867 35.6675 213.365 35.8705 213.772 36.2673C214.178 36.6733 214.39 37.1901 214.409 37.8361V38.0853H214.399Z" fill="#3822E4"/>
<path d="M217.917 35.7688L217.861 36.4148C217.806 36.4056 217.723 36.4056 217.603 36.4056C217.04 36.4056 216.615 36.5901 216.31 36.9685C216.006 37.3468 215.858 37.836 215.858 38.4543V40.1338H215.175V35.7873H215.858V36.8577C216.264 36.1195 216.846 35.7503 217.603 35.7503C217.732 35.7319 217.834 35.7411 217.917 35.7688Z" fill="#3822E4"/>
<path d="M221.277 39.1648C221.6 38.851 221.766 38.445 221.766 37.9559C221.766 37.4576 221.6 37.0515 221.277 36.7377C220.954 36.424 220.576 36.2671 220.142 36.2671C219.68 36.2671 219.292 36.424 218.978 36.7377C218.674 37.0515 218.517 37.4576 218.517 37.9651C218.517 38.4727 218.674 38.8787 218.988 39.1833C219.302 39.4878 219.689 39.6447 220.142 39.6447C220.576 39.6355 220.954 39.4786 221.277 39.1648ZM222.44 40.1246H221.766V39.4325C221.36 39.9677 220.788 40.2353 220.04 40.2353C219.449 40.2353 218.932 40.0231 218.508 39.5986C218.083 39.1741 217.871 38.6203 217.871 37.9559C217.871 37.2822 218.083 36.7378 218.508 36.3133C218.932 35.8888 219.44 35.6765 220.04 35.6765C220.788 35.6765 221.36 35.9441 221.766 36.4794V33.7847H222.44V40.1246Z" fill="#3822E4"/>
<path d="M227.573 40.1157H226.89V39.4143C226.521 39.9588 225.976 40.2357 225.247 40.2357C224.721 40.2357 224.305 40.0695 223.982 39.7281C223.659 39.3866 223.502 38.9437 223.502 38.39V35.7876H224.185V38.27C224.185 38.6761 224.296 38.9991 224.517 39.2482C224.739 39.4974 225.025 39.6173 225.385 39.6173C225.847 39.6173 226.216 39.4697 226.484 39.1651C226.752 38.8606 226.89 38.4361 226.89 37.8824V35.7876H227.573V40.1157Z" fill="#3822E4"/>
<path d="M231.478 35.7688L231.423 36.4148C231.367 36.4056 231.284 36.4056 231.164 36.4056C230.601 36.4056 230.176 36.5901 229.872 36.9685C229.567 37.3468 229.419 37.836 229.419 38.4543V40.1338H228.736V35.7873H229.419V36.8577C229.826 36.1195 230.407 35.7503 231.164 35.7503C231.294 35.7319 231.395 35.7411 231.478 35.7688Z" fill="#3822E4"/>
<path d="M232.715 36.618C232.411 36.8579 232.226 37.1809 232.161 37.587H235.189C235.134 37.1717 234.968 36.8487 234.691 36.6088C234.423 36.3781 234.1 36.2581 233.731 36.2581C233.361 36.2581 233.02 36.378 232.715 36.618ZM235.872 38.0853H232.143C232.171 38.556 232.337 38.9343 232.641 39.2204C232.946 39.5065 233.297 39.6449 233.694 39.6449C234.405 39.6449 234.903 39.3311 235.18 38.7128L235.78 38.8513C235.614 39.2942 235.346 39.6449 234.986 39.8756C234.626 40.1156 234.192 40.2355 233.703 40.2355C233.103 40.2355 232.586 40.0233 232.152 39.5988C231.718 39.1743 231.497 38.6298 231.497 37.9561C231.497 37.2824 231.718 36.7287 232.161 36.3042C232.604 35.8797 233.131 35.6675 233.749 35.6675C234.34 35.6675 234.838 35.8705 235.245 36.2673C235.651 36.6733 235.863 37.1901 235.882 37.8361V38.0853H235.872Z" fill="#3822E4"/>
<path d="M122.755 7.25342H126.651V10.8894H122.755V7.25342ZM122.746 12.8181H126.66V27.2881H122.746V12.8181Z" fill="#3822E4"/>
<path d="M136.095 24.0027C138.367 24.0027 140.037 22.3139 140.037 20.0622C140.037 17.792 138.367 16.094 136.095 16.094C133.824 16.094 132.154 17.792 132.154 20.0622C132.154 22.2955 133.824 24.0027 136.095 24.0027ZM144.026 20.053C144.026 24.4364 140.831 27.694 136.419 27.694C134.655 27.694 133.095 27.0942 131.886 26.079L131.424 27.288H128.535V7.604H132.449V13.6024C133.566 12.8457 134.923 12.4119 136.419 12.4119C140.831 12.4119 144.026 15.6695 144.026 20.053Z" fill="#3822E4"/>
<path d="M153.913 12.7349V16.4262H152.214C150.008 16.4262 149.14 17.4044 149.14 19.7668V27.2879H145.226V12.8179H147.737L148.429 14.5898C149.463 13.307 150.765 12.7349 152.629 12.7349H153.913Z" fill="#3822E4"/>
<path d="M166.45 20.0347C166.45 17.7645 164.779 16.0665 162.508 16.0665C160.237 16.0665 158.566 17.7645 158.566 20.0347C158.566 22.3049 160.237 24.0029 162.508 24.0029C164.779 24.0029 166.45 22.3049 166.45 20.0347ZM170.281 12.7997V27.2697H167.216L166.883 25.9777C165.637 27.0667 164.022 27.7034 162.194 27.7034C157.836 27.7034 154.596 24.4182 154.596 20.0347C154.596 15.6697 157.836 12.4121 162.194 12.4121C164.049 12.4121 165.702 13.0673 166.948 14.184L167.363 12.7997H170.281Z" fill="#3822E4"/>
<path d="M182.097 16.2418H178.46V27.2881H174.546V16.2418H172.035V13.0119H174.564V11.7015C174.564 8.93298 176.115 7.16113 179.162 7.16113H182.079V10.2434H179.956C178.922 10.2434 178.368 10.7786 178.368 11.803V13.0119H182.116L182.097 16.2418Z" fill="#3822E4"/>
<path d="M194.256 20.0532C194.256 17.7092 192.658 16.085 190.397 16.085C188.144 16.085 186.538 17.7092 186.538 20.0532C186.538 22.3971 188.135 24.0213 190.397 24.0213C192.649 24.0213 194.256 22.3971 194.256 20.0532ZM182.568 20.0532C182.568 15.6605 185.91 12.4121 190.397 12.4121C194.856 12.4121 198.225 15.6697 198.225 20.0532C198.225 24.4181 194.865 27.6942 190.397 27.6942C185.91 27.7034 182.568 24.4181 182.568 20.0532Z" fill="#3822E4"/>
<path d="M208.103 12.7349V16.4262H206.405C204.198 16.4262 203.331 17.4044 203.331 19.7668V27.2879H199.416V12.8179H201.927L202.62 14.5898C203.654 13.307 204.955 12.7349 206.82 12.7349H208.103Z" fill="#3822E4"/>
<path d="M219.818 23.8088V27.2971H217.04C213.855 27.2971 211.897 25.3407 211.897 22.1293V15.974H209.276V15.125L214.99 9.05273H215.738V12.8271H219.735V15.974H215.802V21.6125C215.802 23.0152 216.606 23.8181 218.037 23.8181H219.818V23.8088Z" fill="#3822E4"/>
<path d="M224.942 18.4752H231.958C231.404 16.7033 230.13 15.7436 228.376 15.7436C226.632 15.7528 225.394 16.7679 224.942 18.4752ZM235.873 20.0071C235.873 20.3854 235.845 20.773 235.799 21.1514H224.841C225.182 23.1262 226.484 24.2152 228.376 24.2152C229.733 24.2152 230.85 23.5692 231.451 22.5356H235.568C234.515 25.6917 231.746 27.7035 228.386 27.7035C224.111 27.7035 220.88 24.3998 220.88 20.0624C220.88 15.7067 224.093 12.4214 228.386 12.4214C232.826 12.4122 235.873 15.8359 235.873 20.0071Z" fill="#3822E4"/>
<path d="M121.029 11.2216H113.357V15.642H120.281V19.5824H113.357V27.2881H109.009V7.16113H121.029V11.2216Z" fill="#3822E4"/>
</svg>
