<svg width="233" height="65" viewBox="0 0 233 65" fill="none" xmlns="http://www.w3.org/2000/svg">
<path d="M160.301 35.1689C160.162 35.0028 160.089 34.7721 160.089 34.5414C160.089 34.2553 160.19 33.9507 160.393 33.72C160.393 33.72 167.926 26.3374 168.637 25.636H161.999C161.87 25.7652 158.75 28.8383 158.75 28.8383L157.457 30.0472C157.217 30.2779 156.903 30.6009 156.442 30.2041L155.233 28.9121L155.186 26.1344V17.8473V17.0537H150.21V17.8473C150.21 20.1083 150.21 26.3743 150.21 26.3743V31.0438L150.266 37.762C150.266 37.762 150.284 45.8368 150.284 46.2613H155.269V40.9827L155.233 37.4206C155.242 37.4021 155.242 37.1899 155.426 37.1899C155.611 37.1991 155.74 37.3375 155.934 37.5867C156.756 38.7033 157.762 39.8476 158.168 40.309C158.168 40.309 163.07 46.1137 163.2 46.2705H169.883C168.24 44.3603 160.301 35.1689 160.301 35.1689Z" fill="#ED0600"/>
<path d="M202.444 40.7336L202.351 35.9257C202.351 35.9257 202.397 30.7486 202.397 30.7301C202.397 29.0875 201.853 27.7125 200.782 26.6328C199.351 25.1839 196.96 24.3257 194.403 24.3257C191.864 24.3257 188.947 25.147 186.86 26.3744V29.7243V31.2469C186.86 31.2469 187.525 30.8501 188.402 30.4256C189.353 29.9826 190.636 29.4659 192.058 29.1982C192.593 29.0783 193.12 29.0137 193.618 29.0137C196.978 29.0137 197.625 30.038 197.625 31.9483V32.8896C197.625 33.4802 197.062 33.4802 196.785 33.4802H196.655C193.867 33.4802 188.661 33.4802 186.177 35.9626C185.042 37.0977 184.599 38.3343 184.599 40.3645C184.599 44.9971 187.294 47.2488 192.843 47.2488C194.661 47.2488 196.332 46.6859 197.56 46.2798L197.735 46.2152C197.735 46.2152 202.148 46.2429 202.554 46.2522C202.545 45.8461 202.444 40.7336 202.444 40.7336ZM197.745 39.5801C197.763 40.3645 197.505 41.0566 196.988 41.5918C196.231 42.3763 194.984 42.7731 193.295 42.7731C190.765 42.7731 189.584 41.961 189.584 40.2076C189.584 38.1866 191.809 37.3191 197.034 37.3191C197.375 37.3191 197.745 37.5222 197.745 38.0759V39.5801Z" fill="#ED0600"/>
<path d="M132.873 40.7336L132.781 35.9257C132.781 35.9257 132.818 30.7486 132.818 30.7301C132.818 29.0875 132.282 27.7125 131.202 26.6328C129.762 25.1839 127.38 24.3257 124.823 24.3257C122.284 24.3257 119.376 25.147 117.29 26.3744V29.7243H117.281V31.2469C117.281 31.2469 117.945 30.8501 118.813 30.4256C119.755 29.9826 121.057 29.4659 122.469 29.1982C123.005 29.0783 123.531 29.0137 124.029 29.0137C127.39 29.0137 128.027 30.038 128.027 31.9483V32.8896C128.027 33.4802 127.463 33.4802 127.196 33.4802H127.067C124.269 33.4802 119.072 33.4802 116.588 35.9626C115.453 37.0977 115.01 38.3343 115.01 40.3645C115.01 44.9971 117.705 47.2488 123.245 47.2488C125.063 47.2488 126.743 46.6859 127.962 46.2798L128.147 46.2152C128.147 46.2152 132.55 46.2429 132.966 46.2522C132.966 45.8461 132.873 40.7336 132.873 40.7336ZM128.165 39.5801C128.184 40.3645 127.925 41.0566 127.408 41.5918C126.651 42.3763 125.405 42.7731 123.715 42.7731C121.186 42.7731 120.004 41.961 120.004 40.2076C120.004 38.1866 122.229 37.3191 127.454 37.3191C127.805 37.3191 128.174 37.5222 128.174 38.0759V39.5801H128.165Z" fill="#ED0600"/>
<path d="M185.227 26.4298C185.227 26.4206 185.236 26.4113 185.236 26.4021C183.796 25.2947 181.755 24.7041 180.435 24.7041C178.82 24.7041 177.518 25.0086 176.401 25.6362H171.037V26.0607C171.028 26.4759 170.936 34.6061 170.936 34.6061L170.88 37.956V37.9836V37.9929C170.88 37.9929 170.954 45.9015 170.963 46.3168H175.866V46.2707C175.856 45.8462 175.783 38.0482 175.783 37.956C175.783 35.4643 175.819 35.1136 175.819 35.1229C175.856 31.3577 176.484 29.5674 179.9 29.5674C180.934 29.5674 181.719 29.9735 182.863 30.7856C183.066 30.4072 185.061 26.7712 185.236 26.4575C185.227 26.439 185.227 26.439 185.227 26.4298C185.227 26.4298 185.217 26.4298 185.227 26.4298Z" fill="#ED0600"/>
<path d="M113.929 29.918V25.6545H108.88V25.1008H108.87V21.1973H105.898C105.805 21.3726 105.51 21.9263 105.51 21.9263C104.365 24.0857 103.867 24.9901 101.106 26.4851V29.9088H103.719H103.941L103.848 37.5591L103.839 38.5649C103.811 41.1766 103.784 43.8805 105.316 45.4216C106.193 46.3075 107.504 46.7412 109.332 46.7412C110.394 46.7412 111.446 46.6674 112.84 46.3536V41.4257C111.123 41.7026 110.403 41.7395 110.098 41.721H110.07C109.036 41.721 108.907 40.6136 108.907 39.6539L108.898 38.6388L108.907 29.8534C108.916 29.8719 113.514 29.9088 113.929 29.918Z" fill="#ED0600"/>
<path d="M232.641 29.918V25.6545H227.6V25.1008H227.591V21.1973H224.618C224.526 21.3726 224.231 21.9263 224.231 21.9263C223.086 24.0857 222.587 24.9901 219.818 26.4851V29.9088H222.43H222.652L222.569 37.5591L222.56 38.5649C222.532 41.1766 222.504 43.8805 224.037 45.4216C224.914 46.3075 226.225 46.7412 228.062 46.7412C229.123 46.7412 230.176 46.6674 231.561 46.3536V41.4257C229.853 41.7026 229.123 41.7395 228.819 41.721H228.791C227.757 41.721 227.628 40.6136 227.628 39.6539L227.619 38.6388L227.628 29.8534C227.628 29.8719 232.225 29.9088 232.641 29.918Z" fill="#ED0600"/>
<path d="M147.616 29.918V25.6545H142.567V25.1008H142.557V21.1973H139.585C139.492 21.3726 139.197 21.9263 139.197 21.9263C138.052 24.0857 137.554 24.9901 134.793 26.4851V29.9088H137.406H137.628L137.545 37.5591L137.535 38.5649C137.508 41.1766 137.48 43.8805 139.012 45.4216C139.889 46.3075 141.209 46.7412 143.028 46.7412C144.099 46.7412 145.151 46.6674 146.536 46.3536V41.4257C144.828 41.7026 144.099 41.7395 143.794 41.721H143.776C142.742 41.721 142.613 40.6136 142.613 39.6539L142.603 38.6388L142.613 29.8534C142.604 29.8719 147.21 29.9088 147.616 29.918Z" fill="#ED0600"/>
<path d="M212.285 29.9183H217.593V25.9224V25.6825H212.285V22.997C212.285 21.9819 212.543 21.299 213.78 21.299C213.956 21.299 214.131 21.3083 214.325 21.3267C214.953 21.3544 215.94 21.4744 217.399 21.7881V17.1647C216.107 16.8971 214.602 16.7402 213.66 16.7402C209.303 16.7402 207.272 18.6136 207.272 22.6371V25.6917H204.65V25.8578V29.9275H207.272V30.675H207.281V31.5148L207.336 37.7808C207.336 37.7808 207.327 45.8556 207.327 46.2801H212.349C212.349 45.8556 212.331 37.6055 212.331 37.6055L212.349 33.1113L212.303 30.8596V29.9183H212.285Z" fill="#ED0600"/>
<path d="M98.2167 31.8102C95.9919 29.577 93.3054 28.7464 90.4712 27.8697C88.3756 27.1961 88.2556 27.1592 88.2279 27.1592C88.2279 27.1499 88.0248 27.0853 88.0248 27.0853C87.0001 26.7439 85.5968 26.2825 85.5968 24.6767C85.5968 23.2002 86.9262 22.4158 89.4373 22.4158C90.2128 22.4158 91.0528 22.545 91.9113 22.7573C92.4283 22.8495 93.1577 23.0156 94.0901 23.3109C94.4502 23.4217 94.8378 23.5601 95.2717 23.7078C95.5025 23.7908 95.7333 23.8831 95.9826 23.9846C96.2134 24.0677 96.4442 24.1692 96.6842 24.2707C96.7396 24.2892 96.7858 24.3168 96.8412 24.3353C96.9058 24.363 96.9519 24.3814 96.9981 24.3999C97.1642 24.4645 97.3212 24.5383 97.4874 24.6121V19.0106C95.041 17.774 92.4192 17.1372 89.6773 17.1372C85.0245 17.1372 80.0393 19.1028 80.0393 24.6306C80.0393 27.2145 80.7594 29.0787 82.3657 30.6751C84.0459 32.3547 86.5477 33.1483 88.9665 33.9327L90.9236 34.5787C93.6654 35.5477 95.0594 36.3875 95.0594 38.3346C95.0594 40.9093 93.2869 42.2105 89.7881 42.2105C87.4155 42.2105 84.2674 40.9555 82.1164 39.1652L81.9503 39.0268L79.3008 44.4622L79.4208 44.5453C82.1349 46.5202 85.6154 47.5629 89.4742 47.5629C96.8874 47.5629 100.802 44.25 100.802 37.9747C100.811 35.7415 99.8415 33.4344 98.2167 31.8102Z" fill="#ED0600"/>
<path d="M31.8681 0.396973C26.3105 0.396973 21.2054 1.3844 14.7985 5.41717C21.1777 3.99602 25.5259 2.86094 29.9479 3.07319C35.3946 3.33158 38.6442 5.31566 38.6442 5.31566C38.6442 5.31566 31.9788 4.49435 26.9106 5.29722C22.9779 5.91551 9.99798 9.35767 9.61024 9.71757C7.69926 11.4802 6.43452 13.1874 5.01283 15.3745C6.14834 15.273 7.81005 14.7378 9.21328 14.4148C12.0105 13.7688 22.4239 11.6924 28.12 11.3233C34.2683 10.9173 43.177 11.9416 47.0175 15.7898C47.0175 15.7898 40.2967 13.8519 31.5819 15.19C24.1226 16.3343 13.2291 19.3335 8.68706 20.7269C6.90533 21.2806 4.4312 21.7513 1.98478 22.1296C1.08006 24.7782 0.553867 27.0483 0.387695 29.9645C2.65871 30.5274 7.8747 29.743 9.41641 29.4016C11.2812 28.9955 29.5694 25.8948 33.936 25.8948C38.3027 25.8948 46.879 25.8302 51.1533 30.3244C51.1533 30.3244 45.9466 28.8571 40.4998 30.0291C37.998 30.5643 30.271 31.7086 15.2786 36.5535C8.62245 38.7037 3.57264 39.2851 1.0616 38.6945C1.68936 41.3707 2.52023 44.0376 3.78499 46.4093C5.73289 46.8892 9.56408 46.7231 13.1275 46.0033C18.3066 44.9513 31.4988 42.1735 38.8565 42.5796C45.4296 42.9487 47.2944 44.6098 47.2944 44.6098C47.2944 44.6098 40.9891 44.6098 35.8193 45.7726C31.6835 46.7046 17.2357 51.2357 13.3214 52.4539C12.3059 52.7676 9.64716 53.589 7.81927 52.5C9.73025 54.5395 11.3458 56.6251 13.7276 58.1016C17.0511 58.7384 21.75 58.24 24.021 57.8617C26.809 57.4002 33.5483 56.099 35.8747 57.0219C35.8747 57.0219 30.668 57.6955 27.6953 58.8583C25.5628 59.6981 21.0577 61.4053 19.0544 60.9808C21.4085 61.876 25.4797 63.3525 28.0646 63.657C28.0646 63.657 29.5047 63.8693 31.8681 63.8693C34.2222 63.8693 35.6716 63.657 35.6716 63.657C51.3933 61.7745 63.5793 48.3842 63.5793 32.1424C63.5885 14.6086 49.39 0.396973 31.8681 0.396973Z" fill="#ED0600"/>
<path d="M32.0897 64.1552C14.3924 64.1552 0 49.7683 0 32.0776C0 14.3869 14.3924 0 32.0897 0C49.787 0 64.1794 14.3869 64.1794 32.0776C64.1794 49.7683 49.7778 64.1552 32.0897 64.1552ZM32.0897 0.802859C14.8355 0.802859 0.79392 14.8299 0.79392 32.0868C0.79392 49.3438 14.8263 63.3708 32.0897 63.3708C49.3439 63.3708 63.3855 49.3346 63.3855 32.0868C63.3855 14.8391 49.3439 0.802859 32.0897 0.802859Z" fill="#ED0600"/>
</svg>
