<svg width="160" height="108" viewBox="0 0 160 108" fill="none" xmlns="http://www.w3.org/2000/svg">
<path d="M24.1596 55.2131C24.1596 55.047 24.3257 54.8901 24.6027 54.8901C25.489 54.8901 29.0986 57.7232 29.0986 59.7165C29.0986 61.7375 24.9258 68.548 21.6854 72.8484C18.6389 76.8996 13.82 81.8829 12.3983 81.8829C11.9182 81.8829 11.669 81.5599 11.1889 80.3049C10.4227 78.4777 9.32413 75.4785 8.63174 73.6144C7.98552 71.9902 3.40652 60.3164 2.18793 58.8583C1.66171 58.2585 1.30172 58.0923 0.849364 57.9632C0.20314 57.7601 0 57.6771 0 57.271C0 56.662 1.01553 56.662 1.42173 56.662C1.94794 56.662 6.36071 56.9019 7.17311 57.8801C7.57931 58.4061 7.98551 59.4581 8.27169 60.2333C10.2104 65.4196 12.4445 71.335 14.3462 75.6723C14.5862 76.1983 15.1955 77.6194 15.6386 77.6194C16.9772 77.6194 24.8796 66.0748 24.8796 58.4892C24.8796 57.8432 24.8427 57.3172 24.3165 55.776L24.1596 55.2131Z" fill="#ED0600"/>
<path d="M36.9272 63.5275C36.9272 63.9335 36.7334 64.0535 36.4841 64.0535C36.2902 64.0535 34.3793 63.6013 33.5669 63.2414C33.0407 63.0015 33.0407 62.5585 33.0407 62.2355V60.4545C33.0407 60.1684 32.9576 59.0425 32.9576 58.7933C32.9576 58.5073 32.9945 58.3135 33.3269 58.3135C33.5669 58.3135 36.5303 58.8395 36.8534 59.5224C36.8995 59.6424 36.8995 60.8236 36.8995 61.4695L36.9272 63.5275ZM36.8072 80.7475C36.761 81.2274 36.5579 81.3105 36.1148 81.3105C35.4317 81.3105 33.6038 80.8306 33.0776 80.4615C32.7914 80.2584 32.7083 79.9724 32.7083 79.5294C32.7083 78.5512 32.8745 74.1401 32.8745 73.2449C32.8745 71.8699 32.8745 69.1937 32.3113 68.1786C32.0621 67.8187 31.979 67.6156 31.979 67.3295C31.979 67.1634 31.979 66.9697 32.5883 66.9697C33.6776 66.9697 35.0624 67.3757 36.0687 67.7818C36.918 68.1047 37.1672 68.3908 37.1672 69.1106C37.1672 69.3136 36.918 73.208 36.8811 73.734C36.798 76.0042 36.761 76.8901 36.761 78.3574L36.8072 80.7475Z" fill="#ED0600"/>
<path d="M44.6726 72.8392C43.5741 70.1722 42.9278 69.074 42.0785 68.5849C41.3861 68.1789 41.3123 68.1419 41.3123 67.8559C41.3123 67.376 41.8385 67.3298 42.1616 67.3298C42.1616 67.3298 46.5836 67.496 47.4329 68.548C47.9961 69.277 50.9226 78.8376 51.855 78.8376C52.9905 78.8376 57.9756 73.0791 57.9756 67.0438C57.9756 65.6226 57.9756 65.5396 58.2987 65.5396C58.7788 65.5396 59.5912 66.4716 60.2835 67.2376C60.4866 67.4867 61.4191 68.5388 61.2991 69.4708C61.096 71.2519 57.8556 75.3124 55.5846 77.3795C52.8612 79.8896 49.7409 81.8368 48.7715 81.8368C48.4854 81.8368 48.1623 81.8368 47.2299 79.4466L44.6726 72.8392Z" fill="#ED0600"/>
<path d="M78.1655 70.3292C77.5562 69.6832 75.6913 68.9542 73.9927 68.9542C69.783 68.9542 67.7058 72.5994 67.7058 75.6816C67.7058 76.0507 67.7058 77.2227 68.4813 78.0717C69.2937 78.9577 70.5492 79.2437 71.6386 79.2437C74.1958 79.2437 76.0975 78.0256 76.7068 77.6657C78.9778 76.2076 78.9778 75.4786 78.9778 75.0264C78.9778 74.6665 78.8578 73.9375 78.8116 73.5683C78.5624 71.7134 78.4424 70.6614 78.1655 70.3292ZM82.3382 68.2159C82.6151 68.2159 82.6613 68.4189 82.6613 68.8342C82.6613 69.1941 82.7352 72.7193 83.3906 76.3737C83.8337 78.8377 84.083 79.0038 84.6923 79.0038C84.9692 79.0038 85.2924 79.1238 85.2924 79.4468C85.2924 80.0558 82.052 81.8369 80.8704 81.8369C80.2611 81.8369 80.0579 81.7169 79.2917 77.2966C76.3283 79.7236 72.848 81.274 68.9891 81.274C63.6439 81.274 62.9146 78.4686 62.9146 77.1766C62.9146 72.5532 70.2076 67.127 74.8327 67.127C77.1407 67.127 78.4424 68.6219 79.0055 69.3141C79.4579 69.1572 82.0889 68.2159 82.3382 68.2159Z" fill="#ED0600"/>
<path d="M103.128 67.3761C105.03 67.3761 105.196 68.2251 106.082 73.0054C106.285 74.2235 107.015 78.1548 107.578 78.8007C107.864 79.1237 108.15 79.1699 108.593 79.253C108.796 79.2899 108.88 79.4929 108.88 79.6128C108.88 80.4249 104.91 81.883 104.504 81.883C103.654 81.883 103.608 81.5231 102.722 77.2689C102.039 74.0667 101.716 72.6086 101.393 71.6765C101.189 71.1044 100.986 70.6245 100.211 70.6245C98.9184 70.6245 94.9765 74.8326 93.324 79.9451C93.0009 80.914 92.9178 81.1171 92.4285 81.1171C92.1885 81.1171 91.053 80.9602 90.2406 80.628C89.7513 80.4342 89.5852 80.268 89.5852 79.6959C89.5852 79.6959 89.6682 77.5826 89.7052 76.9828C89.7883 75.4878 89.8713 73.6975 89.8713 72.0825C89.8713 70.3384 89.7513 69.2864 89.6682 68.8803C89.6313 68.6773 89.179 67.8652 89.179 67.6622C89.179 67.2562 89.502 67.2192 89.7882 67.2192C90.1483 67.2192 92.0962 67.4223 93.3886 67.9852C94.081 68.3082 94.1179 68.7973 94.1179 69.4802C94.1179 70.6614 93.4717 75.7647 93.3517 76.7798C96.4443 70.2092 100.737 67.3761 103.128 67.3761Z" fill="#ED0600"/>
<path d="M128.553 70.9844C127.011 69.3602 124.177 68.8341 122.515 68.8341C116.837 68.8341 116.394 74.4634 116.394 75.1555C116.394 79.0038 119.561 79.0407 120.41 79.0407C123.087 79.0407 126.983 77.4626 128.516 76.2445C128.553 74.3065 128.553 73.9005 128.553 70.9844ZM132.568 62.7158C132.365 65.0598 132.199 68.6311 132.199 72.8023C132.199 73.3283 132.282 80.4987 132.439 81.9199C132.485 82.2429 132.485 82.4459 132.485 82.529C132.485 82.852 132.319 83.0181 131.959 83.0181C131.35 83.0181 129.928 82.5751 128.996 81.883C128.386 81.477 128.386 81.154 128.386 80.6741C128.386 80.065 128.423 79.216 128.479 77.9979C126.365 79.0499 121.703 81.357 117.004 81.357C112.545 81.357 111.649 78.8007 111.649 77.2227C111.649 72.4793 118.259 67.0069 123.364 67.0069C126.042 67.0069 127.463 68.2251 128.59 69.3232C128.553 64.8291 128.553 59.9196 128.183 55.9514C128.146 55.3424 128.1 55.0563 127.943 54.6964C127.943 54.6502 127.74 54.1704 127.74 54.0504C127.74 53.8105 128.063 53.6074 128.423 53.6074C129.522 53.6074 130.981 54.2534 131.71 54.5764C132.522 54.9824 133.002 55.3054 133.002 56.1175L132.568 62.7158Z" fill="#ED0600"/>
<path d="M152.509 70.3292C151.9 69.6832 150.035 68.9542 148.336 68.9542C144.117 68.9542 142.049 72.5994 142.049 75.6816C142.049 76.0507 142.049 77.2227 142.825 78.0717C143.637 78.9577 144.893 79.2437 145.982 79.2437C148.539 79.2437 150.441 78.0256 151.05 77.6657C153.312 76.2076 153.312 75.4786 153.312 75.0264C153.312 74.6665 153.192 73.9375 153.146 73.5683C152.906 71.7134 152.795 70.6614 152.509 70.3292ZM156.682 68.2159C156.968 68.2159 157.005 68.4189 157.005 68.8342C157.005 69.1941 157.088 72.7193 157.734 76.3737C158.187 78.8377 158.427 79.0038 159.036 79.0038C159.322 79.0038 159.645 79.1238 159.645 79.4468C159.645 80.0558 156.405 81.8369 155.223 81.8369C154.614 81.8369 154.411 81.7169 153.644 77.2966C150.681 79.7236 147.201 81.274 143.351 81.274C137.997 81.274 137.267 78.4686 137.267 77.1766C137.267 72.5532 144.56 67.127 149.186 67.127C151.494 67.127 152.795 68.6219 153.358 69.3141C153.801 69.1572 156.442 68.2159 156.682 68.2159Z" fill="#ED0600"/>
<path d="M87.8589 0C87.8589 0 81.9968 3.99586 78.6733 9.29291C80.3904 10.5756 81.8491 12.0614 82.7261 13.7409C85.1171 18.3089 83.4092 22.2679 81.8491 24.5473C83.4092 23.9475 84.9601 22.877 86.2803 21.0682C91.0439 14.5069 87.8589 0 87.8589 0Z" fill="#ED0600"/>
<path d="M79.1532 27.3712C79.1532 27.3712 85.5601 21.6866 81.7936 14.4885C78.027 7.28119 63.6255 3.68213 63.6255 3.68213C63.6255 3.68213 64.9825 13.6026 69.94 18.8073C72.054 21.0221 75.3867 23.1262 76.1899 23.929C76.9931 24.7319 76.4299 22.0926 74.9898 18.7243C73.9281 16.2603 72.4233 13.9256 72.4233 13.9256C72.4233 13.9256 78.1101 18.3275 78.747 24.8888C78.9409 26.8083 79.1532 27.3712 79.1532 27.3712Z" fill="#ED0600"/>
<path d="M84.3971 23.7261C92.0594 25.5348 97.7093 31.7824 97.7093 39.2112C97.7093 48.0611 89.7053 55.2315 79.8181 55.2315C69.9401 55.2315 61.9361 48.0611 61.9361 39.2112C61.9361 31.7824 67.586 25.5348 75.2483 23.7261C65.3703 25.5441 57.948 33.139 57.948 42.2381C57.948 52.6845 67.7429 61.1653 79.8181 61.1653C91.9025 61.1653 101.697 52.6937 101.697 42.2381C101.697 33.139 94.275 25.5533 84.3971 23.7261Z" fill="#ED0600"/>
<path d="M43.3803 92.0154C43.3803 92.2184 43.2787 92.2738 43.1587 92.2738C43.0572 92.2738 42.1064 92.0523 41.7002 91.8677C41.4417 91.7477 41.4417 91.5263 41.4417 91.3602V90.465C41.4417 90.3174 41.3955 89.7544 41.3955 89.6345C41.3955 89.4961 41.414 89.3945 41.5802 89.3945C41.7002 89.3945 43.1864 89.6529 43.3434 90.0036C43.3618 90.059 43.3619 90.6496 43.3619 90.9726L43.3803 92.0154ZM43.3249 100.644C43.3064 100.884 43.1957 100.93 42.9741 100.93C42.6233 100.93 41.7186 100.681 41.4509 100.505C41.3124 100.404 41.2663 100.256 41.2663 100.035C41.2663 99.5457 41.3494 97.3309 41.3494 96.8879C41.3494 96.1958 41.3494 94.8577 41.0632 94.3501C40.9432 94.1656 40.897 94.0641 40.897 93.9256C40.897 93.8426 40.897 93.7503 41.2016 93.7503C41.7463 93.7503 42.4387 93.9533 42.9464 94.1563C43.3711 94.3224 43.5003 94.4609 43.5003 94.83C43.5003 94.9315 43.3711 96.8787 43.3526 97.1463C43.3157 98.2814 43.2972 98.7336 43.2972 99.4626L43.3249 100.644Z" fill="#ED0600"/>
<path d="M60.736 93.6581C61.6869 93.6581 61.77 94.0826 62.2223 96.482C62.3239 97.0911 62.6839 99.0567 62.9701 99.3797C63.1086 99.5458 63.2563 99.555 63.4778 99.6012C63.5794 99.6196 63.6163 99.7211 63.6163 99.7857C63.6163 100.192 61.6223 100.921 61.4284 100.921C60.9945 100.921 60.976 100.736 60.5329 98.6045C60.1913 96.9988 60.0252 96.2698 59.8682 95.7991C59.7667 95.513 59.6651 95.2731 59.2774 95.2731C58.6312 95.2731 56.6556 97.3864 55.8247 99.9426C55.6585 100.432 55.6216 100.533 55.3815 100.533C55.2615 100.533 54.6892 100.45 54.283 100.284C54.0429 100.183 53.9599 100.1 53.9599 99.8227C53.9599 99.8227 53.9968 98.7614 54.0153 98.4569C54.0614 97.7094 54.0984 96.8142 54.0984 96.0021C54.0984 95.1254 54.0337 94.5994 53.9968 94.3964C53.9783 94.2949 53.7476 93.8889 53.7476 93.7781C53.7476 93.5751 53.9137 93.5566 54.0522 93.5566C54.2368 93.5566 55.2154 93.6581 55.8616 93.9442C56.2032 94.1011 56.2309 94.3503 56.2309 94.6917C56.2309 95.2823 55.9078 97.8386 55.8431 98.3461C57.3848 95.0793 59.5359 93.6581 60.736 93.6581Z" fill="#ED0600"/>
<path d="M31.6836 98.9737C32.459 99.7858 33.8808 100.053 34.7116 100.053C37.555 100.053 37.7766 97.2296 37.7766 96.8881C37.7766 94.9594 36.1887 94.941 35.764 94.941C34.4254 94.941 32.4683 95.7346 31.7021 96.3437C31.6836 97.3034 31.6836 97.5064 31.6836 98.9737ZM29.6711 103.108C29.7726 101.936 29.8557 100.146 29.8557 98.0509C29.8557 97.7833 29.8188 94.1935 29.7357 93.4829C29.7172 93.3168 29.7172 93.2153 29.7172 93.1784C29.7172 93.0122 29.8003 92.9292 29.985 92.9292C30.2896 92.9292 31.0004 93.1507 31.4713 93.5014C31.7759 93.7044 31.7759 93.8613 31.7759 94.1104C31.7759 94.415 31.7574 94.8395 31.7297 95.4577C32.7822 94.9317 35.1178 93.769 37.4812 93.769C39.7153 93.769 40.1676 95.0425 40.1676 95.8453C40.1676 98.217 36.8534 100.967 34.2962 100.967C32.9576 100.967 32.2467 100.358 31.6743 99.8043C31.6928 102.056 31.6928 104.52 31.8775 106.504C31.8959 106.809 31.9144 106.956 31.9975 107.132C31.9975 107.15 32.099 107.399 32.099 107.455C32.099 107.575 31.9329 107.676 31.7574 107.676C31.2128 107.676 30.4742 107.353 30.1142 107.187C29.708 106.984 29.4587 106.818 29.4587 106.421L29.6711 103.108Z" fill="#ED0600"/>
<path d="M79.8089 95.1624C79.5043 94.8394 78.5718 94.4702 77.7225 94.4702C75.6084 94.4702 74.5745 96.2974 74.5745 97.8385C74.5745 98.0231 74.5745 98.6137 74.9622 99.0382C75.3684 99.4812 75.9962 99.6288 76.5409 99.6288C77.8241 99.6288 78.775 99.0198 79.0796 98.8352C80.2151 98.1062 80.2151 97.7371 80.2151 97.5156C80.2151 97.331 80.1505 96.9711 80.132 96.7865C80.012 95.8545 79.9474 95.3285 79.8089 95.1624ZM81.8953 94.1103C82.0338 94.1103 82.0522 94.2118 82.0522 94.4149C82.0522 94.5994 82.0984 96.362 82.4215 98.1892C82.6431 99.4258 82.7631 99.5089 83.0678 99.5089C83.2062 99.5089 83.3724 99.5642 83.3724 99.7304C83.3724 100.035 81.7476 100.93 81.1568 100.93C80.8521 100.93 80.7505 100.865 80.3628 98.6506C78.8765 99.8688 77.1317 100.644 75.2022 100.644C72.5158 100.644 72.1558 99.2413 72.1558 98.5953C72.1558 96.279 75.8115 93.5566 78.1287 93.5566C79.2827 93.5566 79.9382 94.3134 80.2151 94.6548C80.4551 94.5718 81.7753 94.1103 81.8953 94.1103Z" fill="#ED0600"/>
<path d="M52.7227 98.6595C52.7227 98.6595 52.6765 98.4473 52.5196 98.5211C52.3534 98.5949 52.1134 98.7057 51.6241 98.9733C51.1256 99.2594 50.424 99.6839 49.1408 99.8315C47.9591 99.9607 47.1651 99.2963 47.1282 98.4657C47.0913 97.6352 47.396 97.4045 48.4853 97.1553C49.5746 96.9061 52.3073 96.8231 52.3073 96.8231C52.4457 96.8139 52.4457 96.7954 52.4827 96.74C52.6488 96.4632 52.7781 95.6511 52.695 95.0236C52.6211 94.4606 52.0395 93.9254 50.8579 93.7131C49.9255 93.547 48.8915 93.7132 47.6914 94.313C45.5773 95.365 44.6264 96.9984 44.8203 98.4657C44.8757 98.8533 45.1342 99.7116 45.8358 100.136C47.0359 100.865 48.3007 100.819 49.4823 100.478C50.9687 100.044 51.4025 99.7946 51.8364 99.7946C52.1503 99.7946 52.178 100.016 52.3811 99.9423C52.6488 99.6654 52.7135 98.9825 52.7135 98.7518C52.7319 98.7149 52.7319 98.6872 52.7227 98.6595ZM47.0728 95.9648C47.7006 94.7006 49.2423 94.2761 49.9716 94.2761C50.6824 94.2761 51.1625 94.7652 51.1994 95.2635C51.2364 95.7526 51.1625 95.8357 51.1625 95.8357C51.1533 96.0018 51.0055 96.131 50.8209 96.1494L47.4513 96.4355C47.3129 96.4447 47.1836 96.3986 47.1098 96.2971C47.0359 96.2048 47.0174 96.0756 47.0728 95.9648Z" fill="#ED0600"/>
<path d="M108.012 98.6595C108.012 98.6595 107.975 98.4473 107.809 98.5211C107.643 98.5949 107.412 98.7057 106.922 98.9733C106.415 99.2594 105.722 99.6839 104.439 99.8315C103.248 99.9607 102.454 99.2963 102.417 98.4657C102.38 97.6352 102.694 97.4045 103.784 97.1553C104.873 96.9061 107.606 96.8231 107.606 96.8231C107.744 96.8139 107.744 96.7954 107.781 96.74C107.947 96.4632 108.076 95.6511 107.993 95.0236C107.919 94.4606 107.338 93.9254 106.156 93.7131C105.224 93.547 104.19 93.7132 102.99 94.313C100.876 95.365 99.9248 96.9984 100.128 98.4657C100.183 98.8533 100.442 99.7116 101.134 100.136C102.343 100.865 103.599 100.819 104.781 100.478C106.267 100.044 106.701 99.7946 107.135 99.7946C107.449 99.7946 107.476 100.016 107.679 99.9423C107.947 99.6654 108.021 98.9825 108.021 98.7518C108.021 98.7149 108.012 98.6872 108.012 98.6595ZM102.362 95.9648C102.99 94.7006 104.531 94.2761 105.261 94.2761C105.972 94.2761 106.452 94.7652 106.498 95.2635C106.535 95.7526 106.461 95.8357 106.461 95.8357C106.452 96.0018 106.304 96.131 106.119 96.1494L102.75 96.4355C102.62 96.4447 102.482 96.3986 102.408 96.2971C102.325 96.2048 102.307 96.0756 102.362 95.9648Z" fill="#ED0600"/>
<path d="M70.6416 99.4994C69.9308 99.9608 69.5246 100.127 68.7214 100.321C67.9275 100.514 66.9305 100.588 65.8504 100.542C63.9487 100.459 63.9118 100.118 63.8933 99.9331V99.8132C63.8933 99.8132 64.078 98.9918 64.1887 98.798C64.3087 98.6042 64.2718 98.9272 64.9734 99.2318C65.6842 99.5363 66.5335 99.7024 67.1613 99.7116C67.8998 99.7301 68.7307 99.6655 68.9984 99.564C69.5984 99.3425 69.94 99.2041 70.0047 98.715C70.0785 98.1428 68.7122 97.9213 67.4382 97.6353C65.7027 97.22 65.158 97.0631 64.798 96.8509C64.4195 96.6386 64.2533 96.4171 64.2256 96.1034C64.1795 95.5681 64.6226 94.8114 65.9427 94.2577C67.2721 93.704 68.3799 93.6025 69.6262 93.6579C70.9648 93.7225 71.5002 94.027 71.5094 94.1747C71.5094 94.1747 71.5094 94.1931 71.5094 94.1839C71.5094 94.147 71.5279 94.3131 71.3894 94.7099C71.2971 94.996 71.1863 95.199 71.0663 95.2544C70.8448 95.3467 70.7062 94.4146 69.0722 94.2946C68.3245 94.2485 67.8998 94.3131 67.3921 94.4515C66.7459 94.6361 66.4505 94.8299 66.4413 95.116C66.4228 95.5774 66.7736 95.6881 67.6506 96.0203C68.5368 96.3525 68.943 96.4172 69.857 96.6479C70.7709 96.8786 71.8787 97.3123 71.8141 97.8752C71.7402 98.4566 71.3525 99.038 70.6416 99.4994Z" fill="#ED0600"/>
<path d="M115.914 99.4994C115.203 99.9608 114.797 100.127 113.994 100.321C113.2 100.514 112.212 100.588 111.123 100.542C109.221 100.459 109.194 100.118 109.175 99.9331V99.8132C109.175 99.8132 109.35 98.9918 109.48 98.798C109.6 98.6042 109.563 98.9272 110.264 99.2318C110.975 99.5363 111.815 99.7024 112.452 99.7116C113.191 99.7301 114.022 99.6655 114.289 99.564C114.899 99.3425 115.231 99.2041 115.296 98.715C115.37 98.1428 113.994 97.9213 112.729 97.6353C110.994 97.22 110.458 97.0631 110.08 96.8509C109.71 96.6386 109.535 96.4171 109.507 96.1034C109.461 95.5681 109.904 94.8114 111.225 94.2577C112.554 93.704 113.662 93.6025 114.908 93.6579C116.237 93.7225 116.782 94.027 116.791 94.1747V94.1839C116.791 94.147 116.81 94.3131 116.671 94.7099C116.579 94.996 116.459 95.199 116.339 95.2544C116.127 95.3467 115.979 94.4146 114.345 94.2946C113.597 94.2485 113.163 94.3131 112.665 94.4515C112.028 94.6361 111.723 94.8299 111.714 95.116C111.695 95.5774 112.037 95.6881 112.923 96.0203C113.8 96.3525 114.216 96.4172 115.13 96.6479C116.034 96.8786 117.151 97.3123 117.087 97.8752C117.013 98.4566 116.625 99.038 115.914 99.4994Z" fill="#ED0600"/>
<path d="M93.9611 94.2577C93.7119 94.3223 92.3548 94.7007 91.9486 94.4515C91.4593 94.1562 91.3577 94.0085 91.3946 93.3348C91.4223 92.8457 91.3762 92.2275 91.8747 91.6461C92.2901 91.1662 92.9548 91.0832 93.3241 91.0462C94.0442 90.9632 93.9796 91.3139 94.1458 91.5723C94.3119 91.8307 94.6443 91.6645 94.7735 91.5169C94.8843 91.3969 94.9581 91.2031 94.8197 90.8617C94.6812 90.5202 94.0534 90.3726 93.3887 90.3726C92.4379 90.3726 91.4131 90.6402 90.7946 91.0647C90.1761 91.48 89.8437 92.0706 89.8437 92.735C89.8437 92.8181 89.8437 92.9011 89.853 92.9842L89.9176 93.4179C89.9268 93.4825 90.0191 93.7132 90.0284 94.027C90.0468 94.3684 89.3452 94.3776 89.3636 94.6914C89.3729 94.9498 89.7698 94.9498 89.8899 95.2267C90.0099 95.5035 89.9637 95.7434 90.0006 95.9926L90.0376 96.9893L90.0468 97.8106C90.0284 99.444 90.0006 100.053 90.0006 100.053L89.9822 100.524C90.0007 100.662 90.0283 100.856 90.4622 100.856C90.8407 100.856 91.4039 100.828 92.0316 100.607C92.3363 100.505 91.9116 99.9885 91.8008 99.4625C91.6901 98.9365 91.5977 98.0598 91.6254 96.8139L91.6532 95.3743C91.6532 95.3005 91.7086 95.2359 91.7824 95.2267C91.7824 95.2267 92.4379 95.0606 92.9918 94.996C93.5365 94.9221 93.9426 94.9129 94.1273 94.8852C94.3027 94.8575 94.672 94.9129 94.7089 94.6637C94.7458 94.4238 94.4319 94.1285 93.9611 94.2577Z" fill="#ED0600"/>
<path d="M98.4015 94.5623C98.7523 94.2301 99.3431 93.7871 99.814 93.7871C100.183 93.7871 100.469 94.0086 100.516 94.3316C100.543 94.5254 100.46 94.7561 100.285 94.9499C100.091 95.1621 99.8694 95.3282 99.5924 95.3005C99.3155 95.2636 99.3616 94.8484 98.9739 94.8484C98.3923 94.8484 97.5707 95.8173 97.2937 96.4449C97.0722 96.9247 96.9245 97.8752 96.9429 98.3643C96.9706 99.5363 97.543 99.8593 97.506 100.053C97.4599 100.247 96.9245 100.45 96.149 100.45C95.8905 100.45 95.3643 100.45 95.3181 100.118L95.3089 99.8686L95.3366 99.2779L95.3643 98.8165L95.4105 97.4692C95.4105 97.4692 95.4658 96.0573 95.3274 95.3282C95.2535 94.9314 95.0227 94.4792 95.032 94.3869C95.032 94.2947 94.9858 94.2301 95.0873 94.1286C95.1797 94.0363 96.1121 93.8702 96.6198 93.8702C97.0537 93.8702 97.2199 93.8978 97.2476 94.0086C97.2753 94.1193 97.146 94.4515 97.146 94.7099C97.146 94.9776 97.1737 95.2175 97.4414 95.2175C97.7276 95.2175 98.1061 94.8391 98.4015 94.5623Z" fill="#ED0600"/>
<path d="M125.682 98.6689C125.682 98.6689 125.442 98.6966 125.46 98.6966C125.46 98.6966 124.371 99.0934 124.371 99.0842C124.269 99.1303 124.195 99.1488 124.14 99.158C124.158 99.158 124.186 99.158 124.205 99.1488C123.438 99.4718 122.811 99.6379 122.284 99.6379C121.297 99.6379 120.623 99.0011 120.493 97.9399C120.401 97.1832 120.632 96.3434 121.13 95.6789C121.721 94.9315 122.617 94.5808 123.946 94.5808C124.731 94.5808 125.192 94.7838 125.469 95.116C125.488 95.0883 125.506 95.0514 125.506 95.0514C125.755 94.5531 125.802 94.3039 125.802 94.1286V94.1194C125.737 93.6487 124.869 93.6118 124.602 93.6118C123.845 93.6118 123.078 93.7595 121.952 94.1194C120.89 94.47 120.18 94.793 119.644 95.1714C118.389 96.0296 117.798 97.2755 117.973 98.6597C118.065 99.3518 118.453 99.9886 118.97 100.256C119.524 100.542 120.078 100.653 121.038 100.653C122.22 100.653 123.568 100.422 124.832 100.007L125.599 99.8132C125.626 99.804 125.672 99.8132 125.719 99.8225C125.82 99.4995 125.903 99.1488 125.903 98.8996L125.894 98.7612C125.894 98.7151 125.894 98.6689 125.682 98.6689Z" fill="#ED0600"/>
<path d="M134.59 95.8912C134.47 94.9868 134.166 94.3962 133.63 94.0456C133.252 93.8056 132.762 93.6672 132.292 93.6672C131.913 93.6672 130.676 93.4918 129.181 94.2578C128.082 94.8207 127.546 95.439 127.223 95.9466C126.78 96.6479 126.586 97.6354 126.716 98.5951C126.863 99.7763 127.74 100.496 129.301 100.598C130.731 100.69 132.052 100.339 133.215 99.4072C134.47 98.4105 134.636 97.5154 134.636 96.3896C134.627 96.2234 134.609 96.0573 134.59 95.8912ZM132.301 99.0288C131.812 99.7302 131.064 99.7948 130.076 99.684C128.811 99.5364 128.304 98.9273 128.276 97.5338C128.257 96.7864 128.433 95.9558 128.719 95.3744C129.116 94.6269 129.891 94.3224 131.027 94.4608C132.31 94.6177 132.873 95.1991 132.892 96.408C132.901 96.7218 132.882 97.0171 132.855 97.3031C132.781 98.0137 132.587 98.6228 132.301 99.0288Z" fill="#ED0600"/>
</svg>
