<svg width="236" height="51" viewBox="0 0 236 51" fill="none" xmlns="http://www.w3.org/2000/svg">
<path d="M22.8779 13.5103L31.4081 26.8913C31.5835 27.1682 31.8881 27.3343 32.2112 27.3343H52.4842C52.8166 27.3343 53.112 27.1682 53.2874 26.8913L61.4021 13.9994C61.596 13.6948 61.596 13.3072 61.4113 13.0027L56.0015 4.08816C55.8261 3.80208 55.5215 3.62675 55.1891 3.62675H29.3771C29.0447 3.62675 28.7308 3.80208 28.5647 4.08816L22.8779 13.5103ZM30.7526 38.6851L32.5159 44.7204C32.8482 45.8647 33.9099 46.6676 35.0915 46.6676H49.8532C51.0441 46.6676 52.0965 45.8739 52.4288 44.7296L54.1736 38.6851H30.7526ZM58.7249 36.8948C58.808 37.0056 58.8818 37.1163 58.9557 37.227L64.504 46.2061C64.6794 46.4922 64.9841 46.6583 65.3164 46.6583H80.2903C80.7981 46.6583 81.0381 46.3169 81.1212 46.1693C81.2043 46.0216 81.3612 45.634 81.0935 45.2003L74.5574 34.6985C73.6896 33.2958 73.6435 31.5978 74.4466 30.1489C75.2498 28.7093 76.7176 27.8418 78.3701 27.8418H90.2053C91.7193 27.8418 92.9471 26.6145 92.9471 25.101V20.8652C92.9471 17.1924 90.7315 13.5933 87.5465 12.1168C87.4265 12.0614 87.2973 12.006 87.1773 11.9507C85.6448 11.3231 83.8907 11.0278 81.8044 11.074C80.0965 11.1109 78.6286 11.3508 77.3454 11.8307C75.3052 12.5782 73.8004 13.6025 72.6095 15.0422C72.4249 15.2636 72.1295 15.6605 71.9171 15.9465L71.8617 16.0204L58.7249 36.8948ZM80.2811 50.2943H65.3072C63.7008 50.2943 62.2422 49.4822 61.4021 48.1164L57.2017 41.3059L55.9184 45.7263C55.143 48.4117 52.6504 50.285 49.8532 50.285H35.0915C32.2943 50.285 29.8017 48.4117 29.0263 45.7263L27.7338 41.3244L23.5426 48.1164C22.7025 49.4822 21.2439 50.2943 19.6375 50.2943H4.58973C2.90955 50.2943 1.42323 49.4269 0.601603 47.9688C-0.220026 46.5107 -0.201562 44.785 0.666225 43.3454L25.4536 2.21482C26.2752 0.849027 27.78 0 29.3863 0H55.2076C56.8047 0 58.3002 0.849018 59.1311 2.20558L64.5409 11.1201C65.4456 12.6151 65.4364 14.4608 64.504 15.9373L56.3893 28.8293C55.5492 30.1674 54.0905 30.9702 52.5119 30.9702H32.2112C30.6326 30.9702 29.1924 30.1766 28.3431 28.8477L20.7915 16.9893L3.77734 45.2279C3.51885 45.6524 3.68502 46.04 3.7681 46.1877C3.85119 46.3353 4.09122 46.6676 4.59896 46.6676H19.656C19.9883 46.6676 20.293 46.5015 20.4684 46.2154L26.0167 37.2363C26.8568 35.8705 28.3154 35.0583 29.9217 35.0583H55.0783C55.2537 35.0583 55.4292 35.0676 55.6046 35.086L68.8706 13.9717L69.0091 13.7871C69.2584 13.4549 69.563 13.0396 69.8123 12.7351C71.4278 10.7787 73.4219 9.40365 76.0899 8.42545C77.7608 7.80715 79.6072 7.49339 81.7305 7.44725C84.2877 7.40111 86.5772 7.7887 88.5528 8.60079C88.7282 8.67462 88.8944 8.74846 89.0698 8.82229C93.5564 10.9079 96.5752 15.7435 96.5752 20.8652V25.101C96.5752 28.617 93.7134 31.4777 90.196 31.4777H78.3701C77.9178 31.4777 77.6962 31.7823 77.6224 31.9115C77.5485 32.0407 77.4008 32.3914 77.6408 32.779L84.1769 43.2808C85.0724 44.7112 85.1093 46.4553 84.2877 47.9318C83.4661 49.4176 81.9705 50.2943 80.2811 50.2943Z" fill="#ED0600"/>
<path d="M83.2814 18.0138C83.2814 19.075 82.4229 19.924 81.3705 19.924C80.318 19.924 79.4595 19.0658 79.4595 18.0138C79.4595 16.9618 80.318 16.1035 81.3705 16.1035C82.4229 16.1035 83.2814 16.9525 83.2814 18.0138Z" fill="#ED0600"/>
<path d="M154.726 39.1651C155.049 38.8513 155.216 38.4453 155.216 37.9562C155.216 37.4578 155.049 37.0518 154.726 36.738C154.403 36.4243 154.025 36.2674 153.591 36.2674C153.129 36.2674 152.742 36.4243 152.428 36.738C152.123 37.0518 151.966 37.4578 151.966 37.9654C151.966 38.473 152.123 38.879 152.437 39.1835C152.751 39.4881 153.138 39.6449 153.591 39.6449C154.025 39.6357 154.403 39.4788 154.726 39.1651ZM155.89 41.629H155.216V39.4419C154.809 39.9771 154.237 40.2448 153.489 40.2448C152.898 40.2448 152.381 40.0326 151.957 39.6081C151.532 39.1836 151.32 38.6298 151.32 37.9654C151.32 37.2917 151.532 36.7472 151.957 36.3227C152.381 35.8982 152.889 35.686 153.489 35.686C154.237 35.686 154.809 35.9537 155.216 36.4889V35.7875H155.89V41.629Z" fill="#ED0600"/>
<path d="M160.957 40.1157H160.274V39.4143C159.905 39.9588 159.36 40.2357 158.631 40.2357C158.105 40.2357 157.689 40.0695 157.366 39.7281C157.043 39.3866 156.886 38.9437 156.886 38.39V35.7876H157.569V38.27C157.569 38.6761 157.68 38.9991 157.902 39.2482C158.123 39.4974 158.409 39.6173 158.77 39.6173C159.231 39.6173 159.6 39.4697 159.868 39.1651C160.136 38.8606 160.274 38.4361 160.274 37.8824V35.7876H160.957V40.1157Z" fill="#ED0600"/>
<path d="M162.952 36.618C162.647 36.8579 162.462 37.1809 162.398 37.587H165.426C165.37 37.1717 165.204 36.8487 164.936 36.6088C164.669 36.3781 164.346 36.2581 163.976 36.2581C163.598 36.2581 163.256 36.378 162.952 36.618ZM166.109 38.0853H162.379C162.407 38.556 162.573 38.9343 162.878 39.2204C163.182 39.5065 163.533 39.6449 163.93 39.6449C164.641 39.6449 165.139 39.3311 165.416 38.7128L166.016 38.8513C165.85 39.2942 165.583 39.6449 165.223 39.8756C164.862 40.1156 164.429 40.2355 163.939 40.2355C163.339 40.2355 162.822 40.0233 162.388 39.5988C161.954 39.1743 161.733 38.6298 161.733 37.9561C161.733 37.2824 161.954 36.7287 162.398 36.3042C162.841 35.8797 163.367 35.6675 163.985 35.6675C164.576 35.6675 165.075 35.8705 165.481 36.2673C165.887 36.6733 166.1 37.1901 166.118 37.8361V38.0853H166.109Z" fill="#ED0600"/>
<path d="M169.405 33.7754H168.731V40.1245H169.405V33.7754Z" fill="#ED0600"/>
<path d="M173.651 39.1649C173.974 38.8511 174.131 38.445 174.131 37.9467C174.131 37.4576 173.974 37.0608 173.651 36.7471C173.328 36.4333 172.94 36.2764 172.488 36.2764C172.027 36.2764 171.639 36.4333 171.316 36.7471C170.993 37.0608 170.826 37.4668 170.826 37.9467C170.826 38.445 170.993 38.8419 171.316 39.1649C171.639 39.4786 172.027 39.6447 172.488 39.6447C172.94 39.6447 173.328 39.4786 173.651 39.1649ZM174.122 36.3225C174.565 36.747 174.787 37.2915 174.787 37.9467C174.787 38.6019 174.565 39.1464 174.122 39.5801C173.679 40.0139 173.134 40.2261 172.488 40.2261C171.833 40.2261 171.288 40.0139 170.845 39.5801C170.402 39.1464 170.18 38.6019 170.18 37.9467C170.18 37.2915 170.402 36.747 170.845 36.3225C171.288 35.898 171.833 35.6858 172.488 35.6858C173.134 35.6766 173.679 35.8888 174.122 36.3225Z" fill="#ED0600"/>
<path d="M180.852 39.1739C181.166 38.8694 181.323 38.4541 181.323 37.9558C181.323 37.4482 181.166 37.0422 180.852 36.7284C180.538 36.4147 180.15 36.2578 179.698 36.2578C179.273 36.2578 178.895 36.4147 178.563 36.7284C178.24 37.0422 178.073 37.4482 178.073 37.9466C178.073 38.4449 178.24 38.8417 178.563 39.1555C178.886 39.4692 179.264 39.6261 179.698 39.6261C180.16 39.6354 180.538 39.4877 180.852 39.1739ZM181.332 36.3132C181.757 36.7377 181.969 37.2914 181.969 37.9558C181.969 38.6295 181.757 39.174 181.332 39.5985C180.907 40.023 180.4 40.2352 179.8 40.2352C179.052 40.2352 178.48 39.9676 178.073 39.4324V40.1245H177.399V33.7754H178.073V36.4701C178.48 35.9348 179.052 35.6672 179.8 35.6672C180.4 35.6672 180.907 35.8795 181.332 36.3132Z" fill="#ED0600"/>
<path d="M186.714 40.1157H186.031V39.4143C185.662 39.9588 185.117 40.2357 184.388 40.2357C183.862 40.2357 183.446 40.0695 183.123 39.7281C182.8 39.3866 182.643 38.9437 182.643 38.39V35.7876H183.326V38.27C183.326 38.6761 183.437 38.9991 183.659 39.2482C183.88 39.4974 184.166 39.6173 184.526 39.6173C184.988 39.6173 185.357 39.4697 185.625 39.1651C185.893 38.8606 186.031 38.4361 186.031 37.8824V35.7876H186.714V40.1157Z" fill="#ED0600"/>
<path d="M188.708 36.618C188.404 36.8579 188.219 37.1809 188.154 37.587H191.182C191.127 37.1717 190.961 36.8487 190.684 36.6088C190.416 36.3781 190.093 36.2581 189.724 36.2581C189.355 36.2581 189.013 36.378 188.708 36.618ZM191.866 38.0853H188.136C188.164 38.556 188.33 38.9343 188.634 39.2204C188.939 39.5065 189.29 39.6449 189.687 39.6449C190.398 39.6449 190.896 39.3311 191.173 38.7128L191.773 38.8513C191.607 39.2942 191.339 39.6449 190.979 39.8756C190.619 40.1156 190.185 40.2355 189.696 40.2355C189.096 40.2355 188.579 40.0233 188.145 39.5988C187.711 39.1743 187.49 38.6298 187.49 37.9561C187.49 37.2824 187.711 36.7287 188.154 36.3042C188.598 35.8797 189.124 35.6675 189.742 35.6675C190.333 35.6675 190.832 35.8705 191.238 36.2673C191.644 36.6733 191.856 37.1901 191.875 37.8361V38.0853H191.866Z" fill="#ED0600"/>
<path d="M196.223 36.1843C196.546 36.5257 196.703 36.9687 196.703 37.5224V40.1248H196.029V37.6424C196.029 37.2363 195.918 36.9133 195.697 36.6549C195.475 36.4058 195.18 36.2765 194.82 36.2765C194.358 36.2765 193.989 36.4334 193.721 36.7379C193.454 37.0425 193.315 37.4762 193.315 38.0299V40.1248H192.641V35.7782H193.315V36.498C193.684 35.9443 194.229 35.6675 194.958 35.6675C195.475 35.6675 195.9 35.8428 196.223 36.1843Z" fill="#ED0600"/>
<path d="M200.848 39.1649C201.171 38.8511 201.328 38.445 201.328 37.9467C201.328 37.4576 201.171 37.0608 200.848 36.7471C200.525 36.4333 200.137 36.2764 199.685 36.2764C199.223 36.2764 198.836 36.4333 198.512 36.7471C198.189 37.0608 198.023 37.4668 198.023 37.9467C198.023 38.445 198.189 38.8419 198.512 39.1649C198.836 39.4786 199.223 39.6447 199.685 39.6447C200.137 39.6447 200.525 39.4786 200.848 39.1649ZM201.319 36.3225C201.762 36.747 201.984 37.2915 201.984 37.9467C201.984 38.6019 201.762 39.1464 201.319 39.5801C200.876 40.0139 200.331 40.2261 199.685 40.2261C199.029 40.2261 198.485 40.0139 198.042 39.5801C197.599 39.1464 197.377 38.6019 197.377 37.9467C197.377 37.2915 197.599 36.747 198.042 36.3225C198.485 35.898 199.039 35.6858 199.685 35.6858C200.331 35.6766 200.876 35.8888 201.319 36.3225Z" fill="#ED0600"/>
<path d="M208.049 39.1742C208.363 38.8697 208.52 38.4544 208.52 37.9561C208.52 37.4485 208.363 37.0425 208.049 36.7287C207.735 36.4149 207.356 36.2581 206.895 36.2581C206.47 36.2581 206.092 36.4149 205.759 36.7287C205.436 37.0425 205.27 37.4485 205.27 37.9468C205.27 38.4452 205.436 38.842 205.759 39.1558C206.083 39.4695 206.461 39.6264 206.895 39.6264C207.347 39.6356 207.735 39.488 208.049 39.1742ZM208.529 36.3135C208.954 36.738 209.166 37.2916 209.166 37.9561C209.166 38.6297 208.954 39.1742 208.529 39.5987C208.104 40.0233 207.597 40.2355 206.996 40.2355C206.249 40.2355 205.676 39.9679 205.27 39.4326V41.6198H204.596V35.769H205.27V36.4703C205.676 35.9351 206.249 35.6675 206.996 35.6675C207.597 35.6675 208.104 35.8797 208.529 36.3135Z" fill="#ED0600"/>
<path d="M210.782 36.618C210.477 36.8579 210.292 37.1809 210.228 37.587H213.256C213.2 37.1717 213.034 36.8487 212.757 36.6088C212.489 36.3781 212.166 36.2581 211.797 36.2581C211.419 36.2581 211.086 36.378 210.782 36.618ZM213.93 38.0853H210.2C210.228 38.556 210.394 38.9343 210.698 39.2204C211.003 39.5065 211.354 39.6449 211.751 39.6449C212.462 39.6449 212.96 39.3311 213.237 38.7128L213.837 38.8513C213.671 39.2942 213.403 39.6449 213.043 39.8756C212.683 40.1156 212.249 40.2355 211.76 40.2355C211.16 40.2355 210.643 40.0233 210.209 39.5988C209.775 39.1743 209.554 38.6298 209.554 37.9561C209.554 37.2824 209.775 36.7287 210.218 36.3042C210.662 35.8797 211.188 35.6675 211.806 35.6675C212.397 35.6675 212.896 35.8705 213.302 36.2673C213.708 36.6733 213.92 37.1901 213.939 37.8361V38.0853H213.93Z" fill="#ED0600"/>
<path d="M217.447 35.7688L217.392 36.4148C217.336 36.4056 217.253 36.4056 217.133 36.4056C216.57 36.4056 216.145 36.5901 215.841 36.9685C215.536 37.3468 215.388 37.836 215.388 38.4543V40.1338H214.705V35.7873H215.388V36.8577C215.794 36.1195 216.376 35.7503 217.133 35.7503C217.262 35.7319 217.364 35.7411 217.447 35.7688Z" fill="#ED0600"/>
<path d="M220.807 39.1648C221.131 38.851 221.297 38.445 221.297 37.9559C221.297 37.4576 221.131 37.0515 220.807 36.7377C220.484 36.424 220.106 36.2671 219.672 36.2671C219.21 36.2671 218.823 36.424 218.509 36.7377C218.204 37.0515 218.047 37.4576 218.047 37.9651C218.047 38.4727 218.204 38.8787 218.518 39.1833C218.832 39.4878 219.22 39.6447 219.672 39.6447C220.106 39.6355 220.484 39.4786 220.807 39.1648ZM221.971 40.1246H221.297V39.4325C220.89 39.9677 220.318 40.2353 219.57 40.2353C218.98 40.2353 218.463 40.0231 218.038 39.5986C217.613 39.1741 217.401 38.6203 217.401 37.9559C217.401 37.2822 217.613 36.7378 218.038 36.3133C218.463 35.8888 218.97 35.6765 219.57 35.6765C220.318 35.6765 220.89 35.9441 221.297 36.4794V33.7847H221.971V40.1246Z" fill="#ED0600"/>
<path d="M227.103 40.1157H226.42V39.4143C226.051 39.9588 225.506 40.2357 224.777 40.2357C224.251 40.2357 223.835 40.0695 223.512 39.7281C223.189 39.3866 223.032 38.9437 223.032 38.39V35.7876H223.715V38.27C223.715 38.6761 223.826 38.9991 224.048 39.2482C224.269 39.4974 224.555 39.6173 224.916 39.6173C225.377 39.6173 225.746 39.4697 226.014 39.1651C226.282 38.8606 226.42 38.4361 226.42 37.8824V35.7876H227.103V40.1157Z" fill="#ED0600"/>
<path d="M231.008 35.7688L230.953 36.4148C230.898 36.4056 230.815 36.4056 230.695 36.4056C230.131 36.4056 229.707 36.5901 229.402 36.9685C229.097 37.3468 228.95 37.836 228.95 38.4543V40.1338H228.267V35.7873H228.95V36.8577C229.356 36.1195 229.938 35.7503 230.695 35.7503C230.824 35.7319 230.925 35.7411 231.008 35.7688Z" fill="#ED0600"/>
<path d="M232.245 36.618C231.941 36.8579 231.756 37.1809 231.692 37.587H234.72C234.664 37.1717 234.498 36.8487 234.221 36.6088C233.953 36.3781 233.63 36.2581 233.261 36.2581C232.892 36.2581 232.55 36.378 232.245 36.618ZM235.403 38.0853H231.673C231.701 38.556 231.867 38.9343 232.172 39.2204C232.476 39.5065 232.827 39.6449 233.224 39.6449C233.935 39.6449 234.433 39.3311 234.71 38.7128L235.31 38.8513C235.144 39.2942 234.876 39.6449 234.516 39.8756C234.156 40.1156 233.723 40.2355 233.233 40.2355C232.633 40.2355 232.116 40.0233 231.682 39.5988C231.248 39.1743 231.027 38.6298 231.027 37.9561C231.027 37.2824 231.248 36.7287 231.692 36.3042C232.135 35.8797 232.661 35.6675 233.279 35.6675C233.87 35.6675 234.369 35.8705 234.775 36.2673C235.181 36.6733 235.393 37.1901 235.412 37.8361V38.0853H235.403Z" fill="#ED0600"/>
<path d="M122.286 7.25342H126.181V10.8894H122.286V7.25342ZM122.276 12.8181H126.191V27.2881H122.276V12.8181Z" fill="#ED0600"/>
<path d="M135.626 24.0027C137.897 24.0027 139.568 22.3139 139.568 20.0622C139.568 17.792 137.897 16.094 135.626 16.094C133.355 16.094 131.684 17.792 131.684 20.0622C131.684 22.2955 133.355 24.0027 135.626 24.0027ZM143.556 20.053C143.556 24.4364 140.362 27.694 135.949 27.694C134.186 27.694 132.625 27.0942 131.416 26.079L130.954 27.288H128.065V7.604H131.979V13.6024C133.096 12.8457 134.453 12.4119 135.949 12.4119C140.362 12.4119 143.556 15.6695 143.556 20.053Z" fill="#ED0600"/>
<path d="M153.443 12.7349V16.4262H151.744C149.538 16.4262 148.67 17.4044 148.67 19.7668V27.2879H144.756V12.8179H147.267L147.959 14.5898C148.993 13.307 150.295 12.7349 152.16 12.7349H153.443Z" fill="#ED0600"/>
<path d="M165.98 20.0347C165.98 17.7645 164.309 16.0665 162.038 16.0665C159.767 16.0665 158.096 17.7645 158.096 20.0347C158.096 22.3049 159.767 24.0029 162.038 24.0029C164.309 24.0029 165.98 22.3049 165.98 20.0347ZM169.811 12.7997V27.2697H166.746L166.413 25.9777C165.167 27.0667 163.552 27.7034 161.724 27.7034C157.366 27.7034 154.126 24.4182 154.126 20.0347C154.126 15.6697 157.366 12.4121 161.724 12.4121C163.579 12.4121 165.232 13.0673 166.478 14.184L166.894 12.7997H169.811Z" fill="#ED0600"/>
<path d="M181.628 16.2418H177.99V27.2881H174.076V16.2418H171.565V13.0119H174.094V11.7015C174.094 8.93298 175.645 7.16113 178.692 7.16113H181.609V10.2434H179.486C178.452 10.2434 177.898 10.7786 177.898 11.803V13.0119H181.646L181.628 16.2418Z" fill="#ED0600"/>
<path d="M193.786 20.0532C193.786 17.7092 192.189 16.085 189.927 16.085C187.675 16.085 186.068 17.7092 186.068 20.0532C186.068 22.3971 187.665 24.0213 189.927 24.0213C192.18 24.0213 193.786 22.3971 193.786 20.0532ZM182.099 20.0532C182.099 15.6605 185.441 12.4121 189.927 12.4121C194.386 12.4121 197.756 15.6697 197.756 20.0532C197.756 24.4181 194.395 27.6942 189.927 27.6942C185.441 27.7034 182.099 24.4181 182.099 20.0532Z" fill="#ED0600"/>
<path d="M207.633 12.7349V16.4262H205.935C203.728 16.4262 202.861 17.4044 202.861 19.7668V27.2879H198.946V12.8179H201.457L202.15 14.5898C203.184 13.307 204.485 12.7349 206.35 12.7349H207.633Z" fill="#ED0600"/>
<path d="M219.349 23.8088V27.2971H216.57C213.385 27.2971 211.428 25.3407 211.428 22.1293V15.974H208.806V15.125L214.521 9.05273H215.268V12.8271H219.266V15.974H215.333V21.6125C215.333 23.0152 216.136 23.8181 217.567 23.8181H219.349V23.8088Z" fill="#ED0600"/>
<path d="M224.472 18.4752H231.488C230.934 16.7033 229.66 15.7436 227.906 15.7436C226.162 15.7528 224.925 16.7679 224.472 18.4752ZM235.403 20.0071C235.403 20.3854 235.375 20.773 235.329 21.1514H224.371C224.712 23.1262 226.014 24.2152 227.906 24.2152C229.263 24.2152 230.381 23.5692 230.981 22.5356H235.098C234.046 25.6917 231.276 27.7035 227.916 27.7035C223.641 27.7035 220.41 24.3998 220.41 20.0624C220.41 15.7067 223.623 12.4214 227.916 12.4214C232.356 12.4122 235.403 15.8359 235.403 20.0071Z" fill="#ED0600"/>
<path d="M120.559 11.2216H112.888V15.642H119.812V19.5824H112.888V27.2881H108.54V7.16113H120.559V11.2216Z" fill="#ED0600"/>
</svg>
