<svg width="229" height="59" viewBox="0 0 229 59" fill="none" xmlns="http://www.w3.org/2000/svg">
<path d="M222.514 0H5.45599C1.44016 0 0 1.42116 0 5.35242V53.2935C0 57.1325 1.48634 58.6182 5.32676 58.6182H222.551C226.548 58.6182 228.007 57.1878 228.007 53.2473C228.025 37.3193 228.007 21.4005 228.007 5.47239C228.016 1.39347 226.613 0 222.514 0ZM222.818 51.4294C222.818 52.9151 222.523 53.3858 220.917 53.3673C149.61 53.3212 78.304 53.3212 6.98847 53.3581C5.68679 53.3581 5.20674 53.1274 5.20674 51.6693C5.28059 36.7471 5.28059 21.825 5.20674 6.88432C5.20674 5.39856 5.71447 5.22322 7.00692 5.22322C42.6878 5.25091 78.3686 5.24168 114.059 5.24168C149.573 5.24168 185.088 5.26937 220.584 5.19554C222.495 5.19554 222.837 5.75847 222.828 7.52107C222.744 22.1664 222.763 36.7933 222.818 51.4294Z" fill="#ED0600"/>
<path d="M48.43 17.2941C48.4115 25.4704 48.4023 33.6374 48.43 41.8137C48.4484 42.7181 48.19 43.0503 47.2575 43.0041C45.5404 42.9488 43.8418 42.9211 42.1431 43.0134C40.9799 43.0872 40.6384 42.7273 40.6568 41.5553C40.7307 36.9227 40.6845 32.2716 40.6845 27.6206V26.2363C40.5737 26.2548 40.4537 26.2548 40.3429 26.2548C38.9674 31.275 37.5457 36.2859 36.244 41.3154C35.9209 42.6166 35.367 43.0595 33.9915 43.0318C29.7264 42.9303 29.7264 42.9857 28.5909 38.8237C27.4184 34.5418 26.2552 30.2599 24.8058 25.9687C24.7782 26.384 24.732 26.79 24.732 27.2053C24.732 32.0225 24.7043 36.8396 24.7782 41.6568C24.7966 42.7642 24.4643 43.078 23.3934 43.0134C21.6947 42.9119 19.9776 42.9395 18.279 43.0041C17.402 43.0318 17.0327 42.838 17.0419 41.8598C17.0696 33.6836 17.0696 25.5165 17.0419 17.3402C17.0419 16.5281 17.2358 16.2051 18.122 16.2236C21.2978 16.2697 24.4735 16.2974 27.6493 16.2051C28.794 16.159 28.8217 16.888 28.9971 17.6078C30.0772 22.0559 31.1388 26.5039 32.219 30.9612C32.3297 31.4595 32.4867 31.9394 32.7544 32.9176C33.8068 28.6357 34.7393 24.8428 35.6994 21.0408C36.0963 19.472 35.9578 17.3125 37.1026 16.4912C38.1642 15.7253 40.1491 16.2513 41.7369 16.2328C43.611 16.2144 45.4943 16.279 47.3776 16.2051C48.2269 16.1682 48.4392 16.4728 48.43 17.2941Z" fill="#ED0600"/>
<path d="M198.335 15.2083C189.888 15.0515 184.359 20.5608 184.202 29.2815C184.035 38.0392 189.233 43.6961 197.569 43.8346C205.832 43.9638 211.445 38.2699 211.62 29.5768C211.758 21.2437 206.312 15.3375 198.335 15.2083ZM202.25 34.4955C201.142 36.3227 199.554 37.2179 197.403 37.0148C195.261 36.8303 193.747 35.769 193.009 33.7572C191.984 31.0257 191.975 28.2295 193.027 25.4979C193.904 23.1724 195.695 21.9542 197.975 22.0004C200.33 22.0281 202.084 23.4031 202.924 25.8024C203.367 27.039 203.431 28.3125 203.431 29.6137C203.376 31.321 203.164 32.9913 202.25 34.4955Z" fill="#ED0600"/>
<path d="M177.149 33.2774C176.752 32.6129 176.65 32.3176 177.435 31.8008C181.109 29.4015 182.328 26.0055 181.137 21.9265C180.02 18.1245 177.564 16.3434 173.031 16.2696C168.563 16.1865 164.104 16.2511 159.636 16.1958C158.657 16.1773 158.334 16.4265 158.344 17.46C158.39 25.5071 158.371 33.5542 158.344 41.6105C158.325 42.6441 158.537 43.0686 159.691 43.0132C161.51 42.9117 163.338 42.9117 165.147 43.0132C166.32 43.0871 166.504 42.5887 166.468 41.5828C166.394 39.4696 166.394 37.347 166.486 35.2338C166.514 34.6801 165.895 33.6926 167.095 33.5634C168.018 33.4527 168.84 33.4342 169.376 34.597C170.52 37.0887 171.896 39.4972 173.161 41.9335C173.474 42.5241 173.724 43.0225 174.564 43.0132C177.204 42.9579 179.835 42.9855 182.799 42.9855C180.795 39.5526 178.995 36.3965 177.149 33.2774ZM173.613 25.6271C173.382 26.8452 172.662 27.6296 171.443 27.8511C170.862 27.9619 170.271 27.9895 169.689 28.0172C166.458 28.128 166.458 28.1187 166.458 24.8427C166.458 21.7235 166.458 21.7235 170.013 21.8343C172.745 21.9265 174.047 23.2831 173.613 25.6271Z" fill="#ED0600"/>
<path d="M128.248 40.7616C124.601 43.6777 120.447 44.0745 116.071 43.5577C112.452 43.1148 109.378 41.5183 106.867 38.8513C106.156 38.1038 106.129 37.6424 107.079 37.1625C107.661 36.8764 108.196 36.5073 108.713 36.1289C110.68 34.6986 112.314 33.2405 114.742 35.9905C116.348 37.8085 119.155 37.6793 121.592 36.9503C122.441 36.6919 123.253 36.2028 123.207 35.1231C123.161 34.1449 122.432 33.7204 121.573 33.5173C119.404 33.019 117.207 32.613 115.056 32.0685C110.006 30.7765 107.716 28.2849 107.679 24.1875C107.661 19.924 110.227 16.8602 115.148 15.7159C120.336 14.507 125.174 15.3468 129.411 18.789C130.316 19.5272 130.547 20.0809 129.439 20.9022C128.036 21.9543 126.771 23.1816 125.395 24.3721C124.01 22.6833 122.266 21.6682 120.133 21.3637C119.625 21.2898 119.071 21.2621 118.573 21.3637C117.354 21.6036 115.877 21.8435 115.85 23.3754C115.803 24.8796 117.281 25.0181 118.416 25.2488C120.844 25.7286 123.253 26.1808 125.617 26.9099C132.938 29.1339 132.07 37.6793 128.248 40.7616Z" fill="#ED0600"/>
<path d="M70.4847 17.0353C70.1985 16.2417 69.6723 16.1955 68.9799 16.214C66.755 16.2417 64.5117 16.3155 62.2868 16.1863C61.1513 16.1309 60.7728 16.6293 60.4312 17.5613C59.2865 20.8743 58.0495 24.178 56.8401 27.4817C54.9845 32.585 53.1289 37.6975 51.1995 42.9853C53.4797 42.9853 55.5938 42.8284 57.6617 43.0315C59.5173 43.216 60.3574 42.5331 60.5513 40.789C60.6897 39.5431 61.3267 39.0356 62.6653 39.1556C64.2347 39.294 65.8411 39.3401 67.4105 39.1556C69.3399 38.9249 70.3277 39.5801 70.5862 41.518C70.6693 42.2286 70.7524 43.0315 71.8879 43.0038C74.4082 42.9299 76.9377 42.9761 79.4303 42.9761C79.458 42.7731 79.5133 42.6531 79.4856 42.5516C76.4945 34.0431 73.4758 25.553 70.4847 17.0353ZM67.3274 33.2494H62.7761C63.6993 30.121 64.5302 27.2695 65.5087 23.9565C66.4319 27.1126 67.2258 29.8534 68.0198 32.6035C68.2044 33.231 67.752 33.2494 67.3274 33.2494Z" fill="#ED0600"/>
<path d="M99.214 42.9854C94.2196 42.9854 89.216 42.9116 84.2308 43.0315C82.7168 43.0592 82.4029 42.5794 82.4491 41.1582C82.5506 37.2915 82.4768 33.4064 82.4768 29.5398C82.4768 25.5439 82.5229 21.548 82.4491 17.5522C82.4306 16.4355 82.7722 16.1956 83.8338 16.2048C89.6499 16.2602 95.4751 16.2602 101.282 16.2048C102.417 16.2048 102.787 16.334 102.399 17.6075C102.113 18.5857 102.113 19.7762 102.399 20.7544C102.814 22.111 102.242 22.1294 101.227 22.111C98.1616 22.0648 95.1151 22.1294 92.0501 22.0648C90.97 22.0464 90.5084 22.2586 90.5361 23.486C90.5915 26.0791 90.5176 26.0791 93.1487 26.0791C95.789 26.0791 98.4385 26.1253 101.07 26.0515C102.177 26.0238 102.602 26.2452 102.602 27.4818C102.584 31.8468 102.648 31.8468 98.2539 31.8468C96.0844 31.8468 93.9057 31.893 91.7362 31.8284C90.8315 31.8007 90.5454 32.0591 90.5177 32.9911C90.3607 37.1254 90.333 37.1254 94.4042 37.1254C97.0538 37.1254 99.6941 37.1716 102.344 37.0977C103.368 37.0701 103.747 37.2823 103.765 38.4266C103.774 42.9854 103.821 42.9854 99.214 42.9854Z" fill="#ED0600"/>
<path d="M154.752 22.4893C153.931 23.6336 151.595 22.84 149.915 22.8123C148.585 22.7846 148.253 23.1814 148.272 24.4826C148.355 30.1211 148.253 35.7596 148.345 41.3889C148.373 42.7454 147.976 43.1053 146.674 43.0038C145.105 42.8931 143.499 42.8931 141.929 43.0038C140.628 43.1053 140.24 42.7362 140.258 41.3704C140.341 35.7411 140.24 30.1026 140.332 24.4641C140.36 23.1168 139.981 22.7108 138.661 22.8307C137.387 22.9415 136.086 22.803 134.793 22.8769C133.898 22.923 133.519 22.6738 133.575 21.7141C133.676 19.9607 133.021 17.7644 133.87 16.5832C134.682 15.4388 137.027 16.2971 138.689 16.2325C140.572 16.1587 142.446 16.214 144.33 16.214C147.505 16.214 150.663 16.2417 153.838 16.1863C154.743 16.1679 155.112 16.3894 155.057 17.3491C154.955 19.1025 155.592 21.3173 154.752 22.4893Z" fill="#ED0600"/>
</svg>
