<svg width="149" height="186" viewBox="0 0 149 186" fill="none" xmlns="http://www.w3.org/2000/svg">
<path d="M111.351 47.3558C109.424 45.5394 106.727 44.6587 103.15 44.6587H47.7768C45.0246 44.6587 42.878 45.4843 41.3368 47.1906C39.7956 48.897 38.9149 51.0987 38.7498 53.9058L37.2086 81.4821C36.9885 84.5095 37.5389 86.8212 38.7498 88.3074C40.0158 89.8486 41.8873 90.5641 44.3642 90.5641C46.5659 90.5641 48.2722 89.9587 49.5382 88.8028C50.8041 87.6469 51.6298 85.9956 52.0701 83.8489L53.3361 77.8493C53.7764 75.7577 54.4919 74.2715 55.5378 73.4459C56.5836 72.6203 58.2899 72.1799 60.7118 72.1799H86.9671L74.6926 84.7847C68.4728 91.2246 63.574 97.0041 60.1063 102.123C56.5836 107.242 54.1067 112.031 52.6756 116.434C51.2445 120.837 50.5289 125.186 50.5289 129.479C50.5289 136.029 52.3453 141.258 55.9781 145.001C59.6109 148.799 64.6748 150.671 71.2249 150.671C78.4905 150.671 83.8296 148.909 87.1872 145.331C90.5448 141.754 92.2511 137.625 92.2511 132.892C92.2511 130.14 91.8108 127.773 90.9851 125.681C90.1595 123.59 89.1688 121.663 88.1229 119.792C87.0771 117.92 86.0863 115.939 85.2607 113.792C84.4351 111.7 83.9948 109.224 83.9948 106.416C83.9948 104.49 84.1598 102.618 84.4351 100.912C84.7103 99.1507 85.3158 97.3343 86.2515 95.4079C87.1322 93.4814 88.4532 91.2797 90.2696 88.8028C92.031 86.3258 94.3427 83.2985 97.26 79.8308L107.443 67.7215C110.085 64.5841 111.901 61.9971 112.892 59.9605C113.883 57.9239 114.378 56.0525 114.378 54.3462C114.268 51.539 113.277 49.1722 111.351 47.3558Z" fill="#ED0600"/>
<path d="M13.3753 69.6479C13.3202 70.5836 13.1001 71.4092 12.6598 72.1798C12.2745 72.8954 11.724 73.5009 11.0635 73.9412C10.403 74.3815 9.63236 74.6568 8.75168 74.7118L8.58659 72.1798C9.35719 72.0698 9.90759 71.7395 10.3479 71.1891C10.7883 70.6386 11.0085 70.0332 11.0635 69.3176C11.1185 68.9323 11.0635 68.547 10.9534 68.1617C10.8433 67.7764 10.6782 67.4462 10.4581 67.226C10.2379 66.9508 9.96262 66.8407 9.57732 66.7857C9.46723 66.7857 9.30213 66.7857 9.19205 66.8407C9.08196 66.8958 8.97189 66.9508 8.86181 67.0059C8.75172 67.0609 8.64165 67.226 8.53156 67.3361C8.42148 67.5012 8.31139 67.6664 8.25635 67.9416L7.04538 71.1891C6.93529 71.4092 6.82523 71.7395 6.66011 72.0147C6.49498 72.345 6.27482 72.6202 6.05465 72.9504C5.77944 73.2256 5.44916 73.4458 5.06386 73.666C4.62352 73.8311 4.12811 73.8862 3.52264 73.8862C2.64196 73.8311 1.98149 73.5559 1.43107 73.0605C0.880645 72.5651 0.49536 71.9597 0.27519 71.2441C0.0550205 70.5286 -3.54226e-05 69.7029 0.0550071 68.8222C0.11005 67.9416 0.330206 67.171 0.660461 66.5105C0.990716 65.8499 1.4861 65.2995 2.03652 64.8592C2.64199 64.4188 3.30253 64.1436 4.12817 63.9785L4.40338 66.6205C3.96304 66.6756 3.63278 66.8407 3.30253 67.0609C2.97227 67.2811 2.75208 67.5563 2.58695 67.9416C2.42182 68.2718 2.31175 68.6571 2.25671 69.0424C2.20166 69.4277 2.25669 69.758 2.31174 70.1433C2.42182 70.4735 2.53193 70.7487 2.7521 70.9689C2.97227 71.1891 3.19239 71.2992 3.52264 71.3542C3.79786 71.3542 4.01805 71.2992 4.23822 71.134C4.40335 70.9689 4.56849 70.7487 4.73362 70.5286C4.8437 70.2534 4.95378 70.0332 5.06386 69.758L5.83447 67.6113C5.94455 67.2811 6.10964 66.9508 6.27477 66.5655C6.4399 66.1802 6.66009 65.7949 6.99035 65.4647C7.26556 65.1344 7.65086 64.8592 8.0912 64.639C8.53154 64.4188 9.08198 64.3638 9.68744 64.4188C10.348 64.4739 10.9534 64.639 11.4488 64.9693C11.9442 65.2995 12.3294 65.6848 12.6047 66.2352C12.8799 66.7306 13.1001 67.3361 13.2102 67.9416C13.4303 68.3819 13.4303 68.9874 13.3753 69.6479Z" fill="#ED0600"/>
<path d="M14.0359 62.8228L1.54126 60.1808L2.03666 57.814L14.5313 60.456L14.0359 62.8228Z" fill="#ED0600"/>
<path d="M14.9717 58.254L2.8623 54.1258L5.5594 46.1997L7.70607 46.9153L5.77958 52.5296L8.36655 53.4103L9.9628 48.7867L12.1095 49.5023L10.5132 54.1258L13.5956 55.1716L15.5221 49.5573L17.6687 50.2728L14.9717 58.254Z" fill="#ED0600"/>
<path d="M19.7601 46.1996L10.513 41.1908L8.5865 44.7135L6.60498 43.6677L11.6138 34.4756L13.5954 35.5214L11.6689 39.0441L20.916 44.053L19.7601 46.1996Z" fill="#ED0600"/>
<path d="M23.393 39.815L13.2651 31.944L18.384 25.3389L20.1454 26.7149L16.5127 31.3935L18.6593 33.0448L21.6316 29.1918L23.393 30.5679L20.4207 34.4209L23.0076 36.4575L26.6404 31.7788L28.4018 33.1549L23.393 39.815Z" fill="#ED0600"/>
<path d="M31.3192 30.1823L26.3103 17.7977L29.1175 15.541L40.2361 23.0268L38.3096 24.568L28.512 18.0179L28.8973 17.7427L33.3558 28.6411L31.3192 30.1823ZM31.4843 26.6045L30.0532 24.8432L35.2823 20.6049L36.7133 22.3663L31.4843 26.6045Z" fill="#ED0600"/>
<path d="M41.1166 22.4213L35.1169 11.1376L37.2636 9.98169L46.1805 14.9355L42.1624 7.39469L44.3091 6.23879L50.3087 17.5225L48.1621 18.6784L39.2451 13.7246L43.2633 21.2654L41.1166 22.4213ZM40.5662 6.67914C40.291 6.78923 40.0157 6.89931 39.7405 6.89931C39.4653 6.89931 39.1351 6.89931 38.8599 6.84427C38.5846 6.78922 38.3094 6.78923 38.0342 6.73419C37.8141 6.73419 37.5939 6.73418 37.4288 6.84427C37.2636 6.95435 37.2086 7.06445 37.2636 7.28462C37.3187 7.50479 37.4287 7.72495 37.6489 7.94512L36.3279 8.66068C35.7775 8.05521 35.5023 7.44973 35.5023 6.84427C35.5023 6.2388 35.7775 5.79845 36.438 5.41316C36.7132 5.30307 36.9884 5.19299 37.2636 5.19299C37.5388 5.19299 37.8691 5.19299 38.1443 5.24804C38.4195 5.30308 38.6947 5.30309 38.9699 5.35813C39.1901 5.35813 39.4102 5.35812 39.5754 5.24804C39.7405 5.13795 39.7956 5.02787 39.7405 4.8077C39.6855 4.58753 39.5754 4.36736 39.3553 4.14719L40.6762 3.43164C41.2266 4.03711 41.5019 4.64257 41.5019 5.19299C41.5569 5.8535 41.2267 6.29385 40.5662 6.67914Z" fill="#ED0600"/>
<path d="M57.4092 15.5414C56.1983 15.8716 55.0424 15.9267 53.9966 15.6515C52.9508 15.3762 52.0701 14.8258 51.2995 14.0002C50.5289 13.1745 49.9785 12.1287 49.5932 10.8628C49.2079 9.59679 49.1529 8.38585 49.318 7.285C49.5382 6.18415 49.9785 5.24843 50.7491 4.42279C51.4646 3.65219 52.4554 3.04672 53.7214 2.71647C54.9323 2.38621 56.0882 2.33118 57.134 2.60639C58.1798 2.8816 59.0605 3.43203 59.8311 4.25767C60.6017 5.0833 61.1521 6.1291 61.5374 7.39508C61.9227 8.66106 61.9777 9.87199 61.8126 10.9728C61.5924 12.0737 61.1521 13.0094 60.3815 13.8351C59.6109 14.6057 58.6752 15.1561 57.4092 15.5414ZM56.8038 13.3397C57.5744 13.1195 58.1798 12.7892 58.6202 12.2939C59.0605 11.7985 59.2807 11.193 59.3357 10.4775C59.3907 9.76191 59.3357 8.99132 59.0605 8.11064C58.8403 7.285 58.455 6.56944 58.0147 6.01902C57.5743 5.46859 57.024 5.08329 56.4185 4.91817C55.813 4.698 55.0974 4.75304 54.3268 4.91817C53.5563 5.13834 52.9508 5.46859 52.5104 5.96397C52.0701 6.45935 51.8499 7.06483 51.7949 7.78038C51.7399 8.49594 51.7949 9.26652 52.0701 10.1472C52.2903 11.0279 52.6756 11.6884 53.1159 12.2388C53.5563 12.7893 54.1067 13.1746 54.7121 13.3397C55.3176 13.5598 56.0332 13.5598 56.8038 13.3397Z" fill="#ED0600"/>
<path d="M69.3535 13.3395C68.4178 13.3945 67.537 13.3395 66.7664 13.0643C65.9959 12.789 65.3354 12.3487 64.7849 11.7983C64.2345 11.1928 63.8492 10.4773 63.6841 9.65162L66.161 9.04615C66.3812 9.7617 66.8215 10.3121 67.427 10.6424C68.0325 10.9726 68.6379 11.1378 69.3535 11.0827C69.7388 11.0277 70.1241 10.9726 70.5094 10.8075C70.8947 10.6424 71.1699 10.4222 71.39 10.202C71.6102 9.92683 71.7203 9.65161 71.6652 9.26631C71.6652 9.15623 71.6102 8.99111 71.5552 8.88103C71.5001 8.77094 71.4451 8.66085 71.335 8.55077C71.2249 8.44068 71.1148 8.38564 70.9497 8.27555C70.7845 8.22051 70.5644 8.11043 70.2892 8.05539L66.8766 7.33983C66.6014 7.28478 66.3261 7.22974 65.9958 7.11966C65.6656 7.00957 65.3354 6.84445 65.0051 6.62428C64.6749 6.40411 64.3996 6.12889 64.1795 5.7436C63.9593 5.3583 63.7942 4.86293 63.7391 4.25746C63.6841 3.37678 63.7942 2.66123 64.1795 2.05576C64.5648 1.45029 65.1152 0.954906 65.7757 0.624651C66.4913 0.294396 67.2618 0.0742231 68.1425 0.0191806C69.0232 -0.0358619 69.7938 0.0191806 70.5094 0.294393C71.2249 0.514563 71.8303 0.899861 72.3257 1.39524C72.8211 1.89063 73.2065 2.55114 73.4817 3.32173L70.8946 3.98225C70.7846 3.59695 70.5644 3.26668 70.2892 2.99147C70.014 2.71626 69.6837 2.55113 69.2984 2.44105C68.9131 2.33096 68.5828 2.27593 68.1975 2.27593C67.8122 2.27593 67.482 2.38601 67.1518 2.49609C66.8215 2.66122 66.5463 2.82635 66.3812 3.04652C66.2161 3.26669 66.106 3.5419 66.161 3.87216C66.161 4.14737 66.2711 4.36754 66.4912 4.53267C66.6564 4.6978 66.9316 4.80787 67.1518 4.91796C67.427 5.02804 67.7022 5.08308 67.9774 5.13813L70.2342 5.52343C70.5644 5.57847 70.9497 5.68856 71.335 5.79864C71.7753 5.90873 72.1606 6.07385 72.5459 6.29402C72.9312 6.51419 73.2615 6.84445 73.5367 7.22975C73.8119 7.61505 73.9771 8.16547 74.0321 8.77093C74.0871 9.43144 73.9771 10.092 73.7569 10.5873C73.5367 11.1378 73.1514 11.5781 72.7111 11.9634C72.2707 12.3487 71.7203 12.6239 71.1148 12.8441C70.6194 13.1193 70.014 13.2844 69.3535 13.3395Z" fill="#ED0600"/>
<path d="M82.949 13.6694C82.0683 13.5594 81.3527 13.2291 80.7473 12.6787C80.1968 12.1283 79.7565 11.4677 79.5364 10.6971C79.3162 9.87151 79.2611 8.99084 79.3712 8.05512C79.4813 7.11939 79.8115 6.29376 80.2519 5.5782C80.6922 4.86265 81.2977 4.36727 81.9582 3.98198C82.6737 3.65172 83.4443 3.54163 84.325 3.65172C85.2057 3.7618 85.9213 4.09205 86.4717 4.64248C87.0221 5.1929 87.4074 5.85341 87.6276 6.62401C87.8477 7.44965 87.8477 8.27528 87.7376 9.26604C87.6275 10.2018 87.2973 11.0274 86.912 11.743C86.4717 12.4585 85.9212 13.0089 85.2607 13.3392C84.6552 13.7245 83.8296 13.8346 82.949 13.6694ZM83.3342 12.2934C83.9947 12.4035 84.5452 12.2934 84.9855 12.0732C85.4258 11.798 85.8111 11.4677 86.0864 10.9173C86.3616 10.4219 86.5267 9.81647 86.6368 9.10092C86.7469 8.38537 86.7469 7.7799 86.5818 7.22948C86.4717 6.67905 86.1965 6.18367 85.8662 5.85342C85.4809 5.46812 85.0406 5.24794 84.3801 5.1929C83.7195 5.08281 83.1691 5.1929 82.7288 5.41307C82.2884 5.68828 81.9031 6.07358 81.6279 6.56896C81.3527 7.06434 81.1325 7.66982 81.0775 8.33033C80.9674 8.99084 81.0224 9.65135 81.1325 10.2018C81.2426 10.7522 81.5179 11.2476 81.8481 11.6329C82.2334 11.9631 82.7288 12.1833 83.3342 12.2934ZM85.9763 13.8346L86.9671 6.84417H86.8019L87.6276 1.1748L89.2238 1.39497L87.4074 14.0547L85.9763 13.8346Z" fill="#ED0600"/>
<path d="M93.1868 16.0364C92.3061 15.7612 91.5905 15.3209 91.0401 14.7154C90.4897 14.1099 90.1595 13.3944 89.9943 12.5687C89.8292 11.7431 89.9392 10.8624 90.2145 9.87164C90.5447 8.88088 90.9851 8.05524 91.5905 7.44977C92.196 6.84431 92.8565 6.459 93.6822 6.23883C94.4528 6.0737 95.2784 6.07371 96.2141 6.40397C97.1498 6.67918 97.8654 7.17456 98.3608 7.78003C98.8562 8.3855 99.1864 9.1561 99.2414 10.0368C99.2965 10.9175 99.1864 11.9082 98.746 12.954L97.2049 12.4586L97.37 11.9082C97.7002 10.7523 97.7553 9.87165 97.4801 9.15609C97.2049 8.44054 96.6545 8.0002 95.7738 7.72499C94.8381 7.44977 94.0124 7.50481 93.3519 7.94515C92.6914 8.38549 92.141 9.1561 91.8107 10.312C91.4805 11.4128 91.4254 12.2935 91.7557 13.0641C92.0309 13.8347 92.6364 14.3301 93.5721 14.6053C94.1776 14.7704 94.728 14.8255 95.2784 14.7154C95.8288 14.6053 96.2692 14.275 96.7095 13.8347L97.9755 14.7704C97.37 15.486 96.6545 15.9263 95.7738 16.1465C94.9482 16.3116 94.0674 16.3116 93.1868 16.0364ZM91.2053 10.5322L91.5905 9.32122L98.3608 11.4679L97.9755 12.6788L91.2053 10.5322Z" fill="#ED0600"/>
<path d="M101.884 19.1192L108.268 8.05566L115.259 12.0738L114.488 13.3948L108.874 10.1473L106.892 13.615L111.626 16.312L110.855 17.6331L106.122 14.936L103.975 18.6238L109.589 21.8713L108.819 23.1923L101.884 19.1192Z" fill="#ED0600"/>
<path d="M109.424 23.5225L115.314 22.0364L115.479 16.0918L116.965 17.2477L116.8 21.6511L121.038 20.5502L122.524 21.7061L116.745 23.1372L116.58 29.2469L115.094 28.036L115.259 23.5225L110.911 24.6784L109.424 23.5225Z" fill="#ED0600"/>
<path d="M114.103 32.7693L124.341 23.4121L125.277 24.4579L120.048 29.1916L120.158 29.3017L115.149 33.8702L114.103 32.7693ZM119.993 33.3748C119.387 32.7143 119.057 31.9987 118.947 31.2282C118.837 30.4576 119.002 29.742 119.332 28.9714C119.662 28.2008 120.213 27.5403 120.928 26.8798C121.644 26.2193 122.359 25.7789 123.185 25.5037C123.956 25.2285 124.726 25.1735 125.442 25.3386C126.157 25.5037 126.873 25.889 127.478 26.5495C128.084 27.21 128.414 27.9256 128.524 28.6962C128.634 29.4668 128.524 30.2374 128.194 31.008C127.864 31.7786 127.313 32.4941 126.653 33.1546C125.937 33.8151 125.167 34.2555 124.396 34.5307C123.57 34.8059 122.8 34.8609 122.084 34.6408C121.314 34.4206 120.598 34.0353 119.993 33.3748ZM120.928 32.2189C121.369 32.6592 121.809 32.9345 122.359 33.0445C122.855 33.1546 123.405 33.0996 123.956 32.8794C124.506 32.6593 125.001 32.329 125.552 31.8886C126.047 31.4483 126.433 30.9529 126.708 30.4025C126.983 29.8521 127.093 29.3567 127.038 28.8063C126.983 28.2558 126.763 27.7605 126.323 27.3201C125.882 26.8798 125.442 26.6046 124.946 26.4945C124.451 26.3844 123.901 26.4394 123.405 26.6596C122.855 26.8798 122.359 27.21 121.809 27.7054C121.314 28.2008 120.873 28.6962 120.653 29.1916C120.378 29.687 120.268 30.2374 120.323 30.7328C120.268 31.2832 120.488 31.7786 120.928 32.2189Z" fill="#ED0600"/>
<path d="M125.992 41.1912C125.497 40.4206 125.222 39.595 125.167 38.7693C125.112 37.9437 125.332 37.1731 125.717 36.4576C126.157 35.742 126.763 35.0815 127.588 34.5311C128.469 33.9807 129.35 33.6504 130.175 33.5403C131.001 33.4302 131.827 33.5954 132.542 33.9256C133.258 34.2559 133.863 34.8613 134.414 35.6319C134.964 36.4576 135.184 37.2282 135.184 38.0538C135.184 38.8794 134.909 39.65 134.414 40.3656C133.918 41.0811 133.148 41.7416 132.212 42.3471L131.331 41.0261L131.827 40.6958C132.818 40.0353 133.423 39.3748 133.643 38.6593C133.863 37.9437 133.753 37.2282 133.258 36.4576C132.707 35.6319 132.047 35.1916 131.276 35.0815C130.451 34.9714 129.57 35.2466 128.579 35.9071C127.644 36.5126 127.038 37.2282 126.818 37.9988C126.598 38.7694 126.708 39.54 127.203 40.3105C127.533 40.861 127.974 41.2463 128.469 41.4664C128.965 41.6866 129.515 41.7967 130.12 41.6866L130.506 43.2278C129.57 43.3929 128.744 43.2828 127.919 42.8975C127.148 42.5673 126.488 41.9618 125.992 41.1912ZM127.974 35.687L129.02 34.9714L132.873 40.916L131.827 41.6316L127.974 35.687Z" fill="#ED0600"/>
<path d="M129.24 46.1448L137.881 42.0166L138.487 43.2826L136.395 44.2733L136.56 43.9431C136.891 43.9431 137.166 43.9431 137.496 43.9981C137.771 44.0532 138.047 44.1633 138.322 44.2733C138.597 44.4385 138.872 44.6036 139.092 44.8238C139.313 45.0439 139.533 45.3192 139.698 45.5944C139.863 45.8696 139.973 46.1448 140.028 46.42L138.707 47.0805C138.652 46.7503 138.487 46.42 138.267 46.0898C138.047 45.7595 137.771 45.4843 137.386 45.2641C137.056 45.099 136.726 44.9889 136.34 44.9889C136.01 44.9889 135.625 44.9889 135.294 45.099C134.964 45.2091 134.579 45.3192 134.249 45.4843L129.9 47.5759L129.24 46.1448Z" fill="#ED0600"/>
<path d="M131.882 52.1444L140.854 48.7868L141.404 50.2729L132.432 53.6305L131.882 52.1444ZM142.45 48.1813L143.991 47.6309L144.542 49.117L143 49.6674L142.45 48.1813Z" fill="#ED0600"/>
<path d="M134.028 59.8504C133.808 58.9147 133.808 58.089 134.028 57.3184C134.249 56.5478 134.689 55.8873 135.349 55.2819C136.01 54.7314 136.78 54.3461 137.771 54.0709C138.762 53.7957 139.698 53.7957 140.578 53.9608C141.404 54.126 142.12 54.5113 142.67 55.1167C143.22 55.6672 143.661 56.4377 143.881 57.3184C144.101 58.2542 144.101 59.0798 143.826 59.8504C143.551 60.621 143.055 61.2815 142.34 61.7769C141.624 62.3273 140.689 62.6575 139.588 62.9328L139.202 61.3916L139.753 61.2815C140.909 61.0063 141.679 60.5659 142.175 59.9605C142.615 59.355 142.725 58.6394 142.505 57.7588C142.285 56.823 141.789 56.1625 141.074 55.8323C140.358 55.502 139.423 55.447 138.267 55.7222C137.166 55.9974 136.395 56.4378 135.9 57.0983C135.404 57.7588 135.294 58.5294 135.515 59.41C135.68 60.0155 135.955 60.5109 136.34 60.8962C136.725 61.2815 137.221 61.5567 137.826 61.6668L137.661 63.263C136.725 63.0979 135.955 62.7126 135.349 62.1071C134.689 61.5016 134.249 60.7861 134.028 59.8504ZM137.661 55.3369L138.872 55.0066L140.578 61.887L139.368 62.2172L137.661 55.3369Z" fill="#ED0600"/>
<path d="M135.515 65.2442L145.092 64.4736L145.202 65.9047L142.67 66.1249V66.29L135.68 66.8405L135.515 65.2442ZM136.065 72.0695L140.854 71.6842C141.294 71.6292 141.734 71.5741 142.12 71.464C142.505 71.3539 142.89 71.1888 143.221 70.9686C143.551 70.7485 143.771 70.4733 143.936 70.088C144.101 69.7577 144.156 69.3174 144.101 68.822C144.046 68.4367 143.991 68.0514 143.826 67.7762C143.661 67.4459 143.441 67.2258 143.166 67.0056C142.89 66.7854 142.505 66.6203 142.12 66.5652C141.679 66.4552 141.239 66.4552 140.634 66.5102L140.854 65.4644C141.789 65.4093 142.56 65.5194 143.276 65.7946C143.991 66.0699 144.542 66.5102 144.927 67.0606C145.312 67.611 145.587 68.3266 145.642 69.1522C145.698 69.7577 145.642 70.3081 145.477 70.7485C145.312 71.1888 145.092 71.5741 144.762 71.9044C144.487 72.2346 144.101 72.4548 143.716 72.675C143.331 72.8951 142.945 73.0052 142.505 73.1153C142.12 73.2254 141.734 73.2804 141.349 73.3355L136.065 73.7758V72.0695Z" fill="#ED0600"/>
<path d="M135.79 79.6657C135.79 78.6749 136.01 77.8493 136.45 77.1888C136.891 76.5283 137.496 75.9778 138.267 75.6476C139.037 75.2623 139.918 75.0972 140.854 75.0972C141.844 75.0972 142.725 75.2623 143.496 75.6476C144.266 76.0329 144.872 76.5283 145.257 77.2438C145.697 77.9043 145.918 78.73 145.918 79.7207C145.918 80.7115 145.642 81.5922 145.147 82.3628C144.652 83.0783 143.991 83.5737 143.11 83.8489L142.615 82.3077C143.166 82.0876 143.606 81.7573 143.936 81.317C144.266 80.8766 144.376 80.3262 144.376 79.7758C144.376 79.1153 144.211 78.5648 143.936 78.1245C143.606 77.6842 143.221 77.3539 142.67 77.1888C142.12 76.9686 141.514 76.8585 140.854 76.8585C139.808 76.8585 138.927 77.1337 138.267 77.5741C137.606 78.0695 137.276 78.785 137.276 79.7207C137.276 80.3262 137.441 80.8766 137.716 81.2619C137.991 81.6472 138.432 81.9775 138.982 82.1976L138.542 83.7939C137.661 83.4636 136.946 82.9682 136.505 82.2527C136.01 81.5371 135.79 80.6565 135.79 79.6657Z" fill="#ED0600"/>
<path d="M136.065 85.5552H145.642V87.1514H136.065V85.5552ZM147.349 85.5552H149V87.1514H147.349V85.5552Z" fill="#ED0600"/>
<path d="M135.79 92.4905C135.79 91.775 135.9 91.1695 136.175 90.6741C136.45 90.1788 136.781 89.8485 137.221 89.5733C137.661 89.3531 138.102 89.188 138.652 89.188C139.147 89.188 139.588 89.2981 139.973 89.4632C140.358 89.6283 140.634 89.9035 140.909 90.2888C141.184 90.6191 141.349 91.0594 141.514 91.5548C141.624 91.9951 141.734 92.5456 141.844 93.096C141.955 93.6464 142.01 94.2519 142.12 94.8023C142.175 95.4078 142.285 95.9032 142.34 96.4536L142.01 95.9032C142.835 95.9032 143.496 95.738 143.881 95.4078C144.266 95.0775 144.487 94.417 144.487 93.5363C144.487 92.9309 144.376 92.4355 144.101 91.9952C143.826 91.5548 143.386 91.2796 142.835 91.0594L143.276 89.5733C144.101 89.7935 144.762 90.2338 145.257 90.8943C145.752 91.5548 145.973 92.4355 145.973 93.5363C145.973 94.417 145.808 95.1326 145.532 95.7931C145.202 96.3986 144.762 96.8939 144.101 97.1141C143.826 97.2242 143.496 97.3343 143.11 97.3893C142.78 97.4444 142.395 97.4444 142.01 97.4444H136.065V96.0683H138.377L138.157 96.3986C137.386 96.0133 136.781 95.5179 136.395 94.8574C135.955 94.1968 135.79 93.4263 135.79 92.4905ZM137.111 92.7107C137.111 93.2611 137.221 93.7565 137.441 94.1969C137.661 94.6372 137.936 94.9674 138.267 95.1876C138.597 95.4628 138.982 95.628 139.368 95.683C139.643 95.7931 139.973 95.7931 140.358 95.8481C140.744 95.8481 141.019 95.8481 141.184 95.8481L140.964 96.3986C140.909 95.9032 140.799 95.3527 140.744 94.8574C140.689 94.362 140.634 93.8666 140.523 93.4263C140.468 92.9859 140.358 92.6006 140.248 92.2153C140.138 91.9401 140.083 91.7199 139.918 91.4998C139.808 91.2796 139.643 91.1145 139.423 90.9494C139.202 90.7842 138.982 90.7292 138.652 90.7292C138.377 90.7292 138.157 90.7842 137.881 90.9494C137.661 91.0594 137.441 91.2796 137.331 91.5548C137.166 91.8851 137.111 92.2704 137.111 92.7107Z" fill="#ED0600"/>
<path d="M135.625 115.003C135.68 114.067 135.9 113.242 136.285 112.471C136.671 111.755 137.166 111.15 137.826 110.71C138.487 110.269 139.258 109.994 140.138 109.939L140.358 112.471C139.588 112.581 139.037 112.911 138.597 113.462C138.157 114.012 137.937 114.618 137.882 115.333C137.882 115.718 137.881 116.104 137.992 116.489C138.102 116.874 138.267 117.205 138.487 117.425C138.707 117.7 138.982 117.81 139.368 117.865C139.478 117.865 139.643 117.865 139.753 117.81C139.863 117.755 139.973 117.7 140.083 117.645C140.193 117.59 140.303 117.425 140.413 117.315C140.524 117.15 140.634 116.984 140.689 116.709L141.9 113.462C142.01 113.242 142.12 112.911 142.285 112.636C142.45 112.306 142.67 112.031 142.89 111.7C143.166 111.425 143.496 111.15 143.881 110.985C144.266 110.82 144.817 110.765 145.422 110.765C146.303 110.82 146.964 111.095 147.514 111.535C148.064 112.031 148.45 112.581 148.67 113.352C148.89 114.067 149 114.893 148.945 115.773C148.89 116.654 148.67 117.425 148.34 118.085C148.009 118.746 147.569 119.296 146.964 119.737C146.358 120.177 145.698 120.452 144.872 120.617L144.597 117.975C145.037 117.92 145.367 117.755 145.698 117.535C145.973 117.315 146.248 116.984 146.413 116.654C146.578 116.324 146.688 115.939 146.743 115.553C146.798 115.168 146.743 114.838 146.633 114.452C146.523 114.122 146.413 113.847 146.193 113.627C145.973 113.407 145.753 113.297 145.422 113.242C145.147 113.242 144.927 113.297 144.707 113.462C144.542 113.627 144.377 113.847 144.266 114.067C144.156 114.342 144.046 114.563 143.936 114.838L143.166 117.039C143.055 117.37 142.89 117.7 142.725 118.14C142.56 118.581 142.34 118.911 142.065 119.241C141.79 119.571 141.404 119.902 140.964 120.067C140.524 120.287 139.973 120.342 139.368 120.342C138.707 120.287 138.102 120.122 137.606 119.792C137.111 119.461 136.726 119.076 136.395 118.526C136.12 118.03 135.9 117.48 135.735 116.819C135.57 116.159 135.57 115.663 135.625 115.003Z" fill="#ED0600"/>
<path d="M135.074 121.883L147.624 124.415L147.129 126.782L134.579 124.25L135.074 121.883Z" fill="#ED0600"/>
<path d="M134.139 126.507L146.248 130.525L143.606 138.451L141.459 137.736L143.331 132.121L140.744 131.241L139.202 135.864L137.056 135.149L138.597 130.525L135.46 129.479L133.588 135.093L131.441 134.378L134.139 126.507Z" fill="#ED0600"/>
<path d="M129.46 138.506L138.762 143.46L140.633 139.882L142.615 140.928L137.716 150.175L135.735 149.13L137.606 145.552L128.304 140.598L129.46 138.506Z" fill="#ED0600"/>
<path d="M125.882 144.946L136.065 152.707L131.001 159.367L129.185 157.991L132.763 153.258L130.616 151.606L127.644 155.459L125.827 154.083L128.8 150.23L126.212 148.249L122.635 152.983L120.818 151.606L125.882 144.946Z" fill="#ED0600"/>
<path d="M118.011 154.688L123.13 167.018L120.323 169.33L109.149 161.954L111.076 160.358L120.928 166.853L120.598 167.128L116.085 156.23L118.011 154.688ZM117.901 158.211L119.332 159.973L114.103 164.266L112.672 162.505L117.901 158.211Z" fill="#ED0600"/>
<path d="M108.324 162.505L114.433 173.734L112.287 174.889L103.315 170.046L107.388 177.531L105.241 178.687L99.1316 167.459L101.278 166.303L110.25 171.147L106.177 163.661L108.324 162.505ZM108.984 178.247C109.259 178.082 109.535 178.027 109.81 178.027C110.085 178.027 110.415 178.027 110.691 178.082C110.966 178.137 111.241 178.137 111.516 178.192C111.736 178.192 111.956 178.192 112.122 178.082C112.287 177.972 112.342 177.862 112.287 177.642C112.232 177.421 112.122 177.201 111.901 176.981L113.222 176.266C113.773 176.871 114.048 177.476 114.048 178.027C114.103 178.632 113.773 179.073 113.112 179.458C112.837 179.623 112.562 179.678 112.287 179.678C112.012 179.678 111.681 179.678 111.406 179.623C111.131 179.568 110.856 179.568 110.58 179.513C110.36 179.513 110.14 179.513 109.975 179.623C109.81 179.733 109.755 179.843 109.81 180.063C109.865 180.284 109.975 180.504 110.195 180.724L108.874 181.439C108.324 180.834 108.048 180.284 108.048 179.678C107.993 179.073 108.324 178.632 108.984 178.247Z" fill="#ED0600"/>
<path d="M92.0862 169.55C93.2971 169.165 94.453 169.11 95.4988 169.385C96.5446 169.66 97.4253 170.211 98.1959 171.036C98.9664 171.862 99.5169 172.908 99.9022 174.174C100.288 175.44 100.398 176.651 100.177 177.751C100.012 178.852 99.5169 179.788 98.8014 180.614C98.0858 181.439 97.095 181.99 95.8841 182.375C94.6732 182.76 93.5173 182.815 92.4715 182.54C91.4257 182.265 90.545 181.714 89.7744 180.889C89.0038 180.063 88.4534 179.017 88.0681 177.751C87.6828 176.485 87.5727 175.274 87.7929 174.174C87.958 173.073 88.4534 172.137 89.1689 171.311C89.8845 170.486 90.8202 169.88 92.0862 169.55ZM92.6916 171.697C91.921 171.917 91.3156 172.302 90.8752 172.798C90.4349 173.293 90.2147 173.898 90.1597 174.614C90.1046 175.329 90.1597 176.1 90.4349 176.981C90.7101 177.806 91.0404 178.522 91.4807 179.072C91.921 179.623 92.4715 180.008 93.0769 180.173C93.6824 180.338 94.3979 180.338 95.1685 180.118C95.9391 179.898 96.5446 179.513 96.9849 179.017C97.4253 178.522 97.6455 177.916 97.7005 177.201C97.7556 176.485 97.7005 175.715 97.4253 174.834C97.1501 174.008 96.8198 173.293 96.3795 172.742C95.9392 172.192 95.3887 171.807 94.7832 171.642C94.1778 171.477 93.5172 171.477 92.6916 171.697Z" fill="#ED0600"/>
<path d="M80.142 171.807C81.0777 171.697 81.9584 171.807 82.729 172.082C83.4996 172.357 84.1601 172.743 84.7105 173.348C85.2609 173.954 85.6463 174.614 85.8664 175.495L83.3895 176.1C83.1694 175.385 82.729 174.834 82.1235 174.504C81.518 174.174 80.8575 174.009 80.197 174.064C79.8117 174.119 79.4264 174.174 79.0411 174.339C78.6559 174.504 78.3807 174.724 78.1605 174.999C77.9403 175.275 77.8302 175.55 77.8853 175.935C77.8853 176.045 77.9403 176.21 77.9953 176.32C78.0504 176.43 78.1054 176.541 78.2155 176.651C78.3256 176.761 78.4357 176.816 78.6008 176.926C78.7659 176.981 78.9861 177.091 79.2613 177.146L82.6739 177.806C82.9492 177.862 83.2244 177.917 83.5546 178.027C83.8849 178.137 84.2151 178.302 84.5454 178.522C84.8757 178.742 85.1509 179.017 85.4261 179.403C85.6462 179.788 85.8114 180.283 85.8664 180.889C85.9215 181.77 85.8114 182.485 85.4261 183.091C85.0408 183.696 84.4903 184.191 83.8298 184.522C83.1143 184.852 82.3437 185.072 81.463 185.127C80.5824 185.182 79.8117 185.127 79.0411 184.907C78.3256 184.687 77.7201 184.302 77.1697 183.806C76.6743 183.311 76.234 182.65 75.9588 181.88L78.4907 181.219C78.6008 181.604 78.821 181.935 79.0962 182.21C79.3714 182.485 79.7017 182.65 80.087 182.76C80.4723 182.87 80.8025 182.925 81.1878 182.87C81.5731 182.87 81.9033 182.76 82.2336 182.595C82.5638 182.43 82.8391 182.265 83.0042 182.045C83.1693 181.825 83.2794 181.549 83.2244 181.219C83.2244 180.944 83.1143 180.724 82.8941 180.559C82.674 180.393 82.4537 180.283 82.2336 180.173C81.9584 180.118 81.6831 180.008 81.4079 180.008L79.1512 179.623C78.821 179.568 78.4357 179.458 77.9953 179.403C77.555 179.293 77.1697 179.127 76.7844 178.907C76.3991 178.687 76.0688 178.357 75.7936 177.972C75.5184 177.586 75.3533 177.036 75.2982 176.43C75.2432 175.77 75.2982 175.109 75.5734 174.614C75.7936 174.064 76.1789 173.623 76.6193 173.238C77.0596 172.853 77.61 172.577 78.2155 172.357C78.876 172.027 79.4815 171.862 80.142 171.807Z" fill="#ED0600"/>
<path d="M63.519 171.421L62.5833 178.412H62.7484L61.9778 184.081L60.3816 183.861L62.0879 171.201L63.519 171.421ZM66.5463 171.586C67.427 171.697 68.1426 172.027 68.748 172.577C69.3535 173.128 69.7388 173.788 69.959 174.559C70.1792 175.384 70.2342 176.265 70.1241 177.201C70.014 178.137 69.6838 178.962 69.2434 179.678C68.8031 180.393 68.2527 180.944 67.5371 181.274C66.8216 181.604 66.0509 181.714 65.1703 181.604C64.2896 181.494 63.5741 181.164 63.0237 180.668C62.4732 180.173 62.0879 179.513 61.8677 178.687C61.6475 177.916 61.5925 177.036 61.7577 176.045C61.8677 175.109 62.143 174.284 62.5833 173.568C63.0236 172.852 63.519 172.302 64.2346 171.972C64.84 171.586 65.6106 171.421 66.5463 171.586ZM66.1611 172.963C65.5005 172.852 64.9501 172.963 64.5098 173.238C64.0694 173.513 63.6841 173.898 63.4089 174.394C63.1337 174.889 62.9686 175.494 62.8585 176.21C62.7484 176.926 62.8034 177.531 62.9135 178.081C63.0236 178.632 63.2989 179.127 63.6291 179.458C64.0144 179.788 64.4547 180.008 65.1152 180.118C65.7757 180.228 66.3262 180.118 66.7665 179.843C67.2068 179.568 67.5921 179.182 67.8674 178.687C68.1426 178.192 68.3077 177.586 68.4178 176.926C68.5279 176.265 68.4728 175.605 68.3628 175.054C68.2527 174.504 67.9774 174.008 67.5921 173.623C67.2619 173.293 66.7665 173.073 66.1611 172.963Z" fill="#ED0600"/>
<path d="M56.2534 169.33C57.1341 169.605 57.9047 170.046 58.4001 170.651C58.9505 171.257 59.2808 171.972 59.4459 172.798C59.6111 173.623 59.501 174.504 59.2257 175.495C58.8955 176.486 58.4551 177.311 57.8497 177.917C57.2442 178.522 56.5837 178.963 55.758 179.128C54.9874 179.348 54.1618 179.293 53.2261 179.018C52.2904 178.742 51.5748 178.302 51.0794 177.641C50.584 177.036 50.2538 176.265 50.1988 175.385C50.0887 174.504 50.2538 173.513 50.6391 172.467L52.1803 172.963L52.0152 173.513C51.6849 174.669 51.6299 175.55 51.9051 176.265C52.1803 176.981 52.7307 177.421 53.6114 177.697C54.5471 177.972 55.3727 177.917 56.0333 177.476C56.6938 177.036 57.1892 176.265 57.5745 175.11C57.9047 174.009 57.9047 173.128 57.6295 172.357C57.2992 171.587 56.7488 171.091 55.8131 170.816C55.2076 170.651 54.6572 170.596 54.1068 170.761C53.5563 170.926 53.116 171.202 52.6757 171.642L51.3546 170.706C51.9601 169.991 52.6757 169.55 53.5563 169.33C54.4921 169 55.3728 169.055 56.2534 169.33ZM58.29 174.779L57.9047 175.99L51.1345 173.899L51.5198 172.688L58.29 174.779Z" fill="#ED0600"/>
<path d="M47.5567 166.302L41.2268 177.421L34.1814 173.458L34.8969 172.137L40.5663 175.329L42.5478 171.862L37.8142 169.164L38.5298 167.843L43.2634 170.541L45.355 166.798L39.6856 163.605L40.4012 162.284L47.5567 166.302Z" fill="#ED0600"/>
<path d="M40.0159 162.009L34.1264 163.55L34.0163 169.495L32.5301 168.339L32.6402 163.936L28.402 165.092L26.9158 163.936L32.6952 162.45L32.8054 156.34L34.2915 157.496L34.1264 162.009L38.4747 160.853L40.0159 162.009Z" fill="#ED0600"/>
<path d="M29.3375 152.212C29.943 152.872 30.3283 153.588 30.3833 154.358C30.4384 155.129 30.3283 155.844 29.9981 156.615C29.6678 157.386 29.1174 158.046 28.4018 158.707C27.6863 159.367 26.9707 159.807 26.2001 160.138C25.4295 160.413 24.6589 160.468 23.9434 160.358C23.1728 160.193 22.5122 159.807 21.9068 159.147C21.3013 158.486 20.9711 157.771 20.8059 157C20.6958 156.23 20.8059 155.459 21.1362 154.688C21.4664 153.918 21.9618 153.202 22.6774 152.542C23.3929 151.881 24.1085 151.441 24.9341 151.166C25.7047 150.891 26.5304 150.835 27.2459 151.001C28.0165 151.166 28.7321 151.551 29.3375 152.212ZM28.4018 153.312C27.9615 152.872 27.5212 152.597 26.9707 152.487C26.4753 152.377 25.9249 152.487 25.3745 152.707C24.8241 152.927 24.3287 153.257 23.8333 153.753C23.3379 154.193 22.9526 154.688 22.6774 155.239C22.4022 155.734 22.2921 156.285 22.3471 156.835C22.4022 157.386 22.6223 157.881 23.0627 158.321C23.503 158.762 23.9433 159.037 24.4387 159.147C24.9341 159.257 25.4846 159.202 25.9799 158.927C26.5304 158.707 27.0258 158.376 27.5762 157.881C28.0716 157.386 28.4569 156.89 28.7321 156.395C29.0073 155.899 29.1173 155.349 29.0623 154.854C29.0623 154.303 28.8422 153.808 28.4018 153.312ZM35.2271 152.707L25.0442 162.119L24.1085 161.073L29.2825 156.285L29.1724 156.175L34.1813 151.551L35.2271 152.707Z" fill="#ED0600"/>
<path d="M23.283 144.451C23.7784 145.221 24.1086 146.047 24.1086 146.873C24.1086 147.698 23.9435 148.469 23.5582 149.184C23.1729 149.9 22.5124 150.56 21.6867 151.111C20.8061 151.716 19.9254 152.047 19.0998 152.157C18.2741 152.267 17.4485 152.157 16.7329 151.771C16.0174 151.441 15.3569 150.891 14.8615 150.065C14.3111 149.239 14.0359 148.469 14.0359 147.643C14.0359 146.818 14.256 146.047 14.7514 145.331C15.2468 144.616 15.9623 143.955 16.9531 143.35L17.8338 144.671L17.3384 145.001C16.3477 145.662 15.7422 146.377 15.522 147.038C15.3018 147.753 15.4119 148.469 15.9073 149.239C16.4577 150.065 17.1183 150.505 17.9439 150.56C18.7695 150.615 19.6502 150.34 20.641 149.735C21.5767 149.129 22.1822 148.414 22.4023 147.643C22.6225 146.873 22.5124 146.102 21.962 145.331C21.6317 144.781 21.1914 144.451 20.696 144.176C20.2006 143.955 19.6502 143.845 19.0447 143.955L18.6594 142.414C19.5951 142.249 20.4208 142.359 21.2464 142.744C22.0721 143.075 22.7326 143.68 23.283 144.451ZM21.3565 149.955L20.3107 150.671L16.4027 144.781L17.4485 144.065L21.3565 149.955Z" fill="#ED0600"/>
<path d="M19.9805 139.497L11.3388 143.68L10.7334 142.414L12.8249 141.424L12.6598 141.754C12.3296 141.809 12.0543 141.754 11.7241 141.699C11.4489 141.644 11.1737 141.534 10.8984 141.424C10.6232 141.314 10.348 141.093 10.1278 140.873C9.90766 140.653 9.68751 140.378 9.52238 140.103C9.35725 139.827 9.24718 139.552 9.19214 139.277L10.5132 138.616C10.5682 138.947 10.7333 139.277 10.9535 139.607C11.1736 139.937 11.4489 140.213 11.8342 140.433C12.1645 140.598 12.4947 140.708 12.88 140.708C13.2102 140.708 13.5955 140.708 13.9258 140.598C14.256 140.488 14.6413 140.378 14.9716 140.213L19.32 138.121L19.9805 139.497Z" fill="#ED0600"/>
<path d="M6.71518 137.571L5.17396 138.176L4.62354 136.69L6.16475 136.085L6.71518 137.571ZM17.2833 133.553L8.31142 136.965L7.761 135.479L16.7329 132.066L17.2833 133.553Z" fill="#ED0600"/>
<path d="M15.0817 125.846C15.3019 126.782 15.3019 127.608 15.0817 128.378C14.8615 129.149 14.4212 129.81 13.8158 130.415C13.2103 131.021 12.3846 131.406 11.3939 131.626C10.4031 131.901 9.4674 131.901 8.58672 131.736C7.76108 131.571 7.04552 131.186 6.44005 130.635C5.88962 130.085 5.44931 129.314 5.22914 128.433C5.00897 127.498 5.00896 126.672 5.28417 125.902C5.55938 125.131 6.05474 124.47 6.77029 123.975C7.48584 123.48 8.42156 123.039 9.52241 122.819L9.90775 124.36L9.35733 124.525C8.20144 124.856 7.43081 125.296 6.99047 125.902C6.55013 126.507 6.44006 127.223 6.66023 128.103C6.8804 129.039 7.37576 129.699 8.14635 130.03C8.8619 130.36 9.79761 130.415 10.9535 130.085C12.0544 129.81 12.825 129.369 13.3204 128.709C13.8157 128.048 13.9258 127.278 13.7056 126.397C13.5405 125.791 13.2653 125.296 12.88 124.911C12.4947 124.526 11.9993 124.25 11.3939 124.14L11.5039 122.544C12.4397 122.709 13.2103 123.094 13.8158 123.7C14.4212 124.195 14.8615 124.911 15.0817 125.846ZM11.4489 130.415L10.238 130.745L8.47659 123.865L9.68757 123.535L11.4489 130.415Z" fill="#ED0600"/>
<path d="M12.935 113.627L8.14623 114.067C7.70589 114.122 7.26559 114.177 6.88029 114.287C6.495 114.397 6.1097 114.563 5.77944 114.783C5.44919 115.003 5.22899 115.278 5.06387 115.663C4.89874 115.994 4.84367 116.434 4.89871 116.929C4.95375 117.315 5.0088 117.7 5.17392 117.975C5.33905 118.305 5.55926 118.526 5.83447 118.746C6.10969 118.966 6.495 119.076 6.88029 119.186C7.32063 119.296 7.81599 119.296 8.36642 119.241L8.14623 120.287C7.21051 120.342 6.4399 120.287 5.72435 120.012C5.0088 119.737 4.45837 119.296 4.07307 118.746C3.68778 118.195 3.4126 117.48 3.35756 116.654C3.30252 116.049 3.35752 115.498 3.52265 115.058C3.68778 114.618 3.90799 114.232 4.1832 113.902C4.45841 113.572 4.84372 113.352 5.22902 113.131C5.61432 112.911 5.9996 112.801 6.3849 112.691C6.7702 112.581 7.15548 112.526 7.54078 112.471L12.8248 111.976L12.935 113.627ZM13.5404 120.452L3.96302 121.278L3.85296 119.847L6.3849 119.626V119.461L13.3753 118.856L13.5404 120.452Z" fill="#ED0600"/>
<path d="M13.2101 106.031C13.2101 107.022 12.9899 107.847 12.5496 108.508C12.1092 109.168 11.5038 109.719 10.7332 110.049C9.9626 110.434 9.08188 110.599 8.14616 110.599C7.15539 110.599 6.27475 110.434 5.50416 110.049C4.73356 109.664 4.12806 109.168 3.74276 108.453C3.30242 107.792 3.08228 106.967 3.08228 105.976C3.08228 104.985 3.3575 104.104 3.85288 103.334C4.34827 102.618 5.00875 102.123 5.88943 101.848L6.38482 103.389C5.8344 103.609 5.39405 103.939 5.06379 104.38C4.73354 104.82 4.62342 105.37 4.62342 105.921C4.62342 106.581 4.78858 107.132 5.06379 107.572C5.39405 108.012 5.77937 108.343 6.3298 108.508C6.88022 108.728 7.48565 108.838 8.14616 108.838C9.19197 108.838 10.0727 108.563 10.7332 108.122C11.3937 107.627 11.7239 106.912 11.7239 105.976C11.7239 105.37 11.5588 104.82 11.2836 104.435C11.0084 104.049 10.568 103.719 10.0176 103.499L10.458 101.903C11.3387 102.233 12.0542 102.728 12.4945 103.444C12.9899 104.214 13.2101 105.04 13.2101 106.031Z" fill="#ED0600"/>
<path d="M1.65127 100.196H0V98.6001H1.65127V100.196ZM12.935 100.196H3.35758V98.6001H12.935V100.196Z" fill="#ED0600"/>
<path d="M13.2102 93.261C13.2102 93.9765 13.1001 94.582 12.8249 95.0774C12.5497 95.5727 12.2194 95.903 11.779 96.1782C11.3387 96.3984 10.8984 96.5635 10.348 96.5635C9.85257 96.5635 9.41222 96.4534 9.02692 96.2883C8.64162 96.1232 8.36644 95.8479 8.09123 95.4627C7.81601 95.1324 7.6509 94.6921 7.48577 94.1967C7.37569 93.7563 7.26562 93.2059 7.15553 92.6555C7.04545 92.1051 6.9904 91.4996 6.88032 90.9492C6.82528 90.3437 6.71518 89.8483 6.66013 89.2979L6.99038 89.8483C6.16474 89.8483 5.50422 90.0135 5.11892 90.3437C4.73362 90.674 4.51346 91.3345 4.51346 92.2151C4.51346 92.8206 4.62352 93.316 4.89873 93.7563C5.17395 94.1967 5.61431 94.4719 6.16474 94.6921L5.72437 96.1782C4.89873 95.958 4.23824 95.5177 3.74286 94.8572C3.24747 94.1967 3.02734 93.316 3.02734 92.2151C3.02734 91.3345 3.19243 90.6189 3.46764 89.9584C3.7979 89.3529 4.23822 88.8576 4.89873 88.6374C5.17395 88.5273 5.50423 88.4172 5.88953 88.3622C6.21978 88.3071 6.60508 88.3071 6.99038 88.3071H12.935V89.6832H10.6232L10.8434 89.3529C11.6139 89.7382 12.2194 90.2336 12.6047 90.8941C13.045 91.5546 13.2102 92.3252 13.2102 93.261ZM11.8892 92.9857C11.8892 92.4353 11.7791 91.9399 11.5589 91.4996C11.3388 91.0593 11.0635 90.729 10.7333 90.5088C10.403 90.2336 10.0177 90.0685 9.63244 90.0134C9.35723 89.9034 9.02695 89.9034 8.64165 89.8483C8.25635 89.8483 7.98114 89.8483 7.81601 89.8483L8.0362 89.2979C8.09124 89.7933 8.20134 90.3437 8.25638 90.8391C8.31142 91.3345 8.36641 91.8299 8.4765 92.2702C8.53154 92.7105 8.64162 93.0958 8.75171 93.4811C8.86179 93.7563 8.91689 93.9765 9.08202 94.1967C9.1921 94.4169 9.35718 94.582 9.57735 94.7471C9.79752 94.9122 10.0177 94.9673 10.348 94.9673C10.6232 94.9673 10.8434 94.9122 11.1186 94.7471C11.3387 94.637 11.5589 94.4168 11.669 94.1416C11.8341 93.8114 11.8892 93.4811 11.8892 92.9857Z" fill="#ED0600"/>
</svg>
