<svg width="145" height="67" viewBox="0 0 145 67" fill="none" xmlns="http://www.w3.org/2000/svg">
<path fill-rule="evenodd" clip-rule="evenodd" d="M0.469727 4.50512C0.469727 2.04778 2.51751 0 4.97485 0H139.965C142.422 0 144.47 2.04778 144.47 4.50512V61.9249C144.47 64.3822 142.422 66.43 139.965 66.43H4.97485C2.51751 66.43 0.469727 64.3822 0.469727 61.9249V4.50512Z" fill="#3822E4"/>
<path fill-rule="evenodd" clip-rule="evenodd" d="M0.469727 6.55273H144.47V59.877H0.469727V6.55273Z" fill="white"/>
<path fill-rule="evenodd" clip-rule="evenodd" d="M122.436 20.3965C115.883 20.3965 110.477 25.8026 110.477 32.3555C110.477 38.9084 115.883 44.3146 122.436 44.3146C128.989 44.3146 134.395 38.9084 134.395 32.3555C134.395 25.8026 129.07 20.3965 122.436 20.3965Z" fill="#3822E4"/>
<path fill-rule="evenodd" clip-rule="evenodd" d="M121.535 9.91193C110.477 9.6662 105.234 16.7925 97.6984 25.4751L90.5721 33.7481L101.876 47.2635C104.579 51.4409 99.4185 55.5365 96.224 51.7686L85.8213 39.3181L75.6643 51.1133C72.3878 54.8812 67.3912 50.7037 70.0943 46.5263L81.1523 33.6662L73.9441 25.0655L78.6131 19.3317L85.9851 28.1781L92.2922 20.8061C95.4049 17.202 98.5994 12.3693 102.695 9.91193H0.469727V56.6014H24.3878C35.4458 56.6014 40.4424 49.9665 47.8144 41.0382L54.7769 32.6013L43.1455 19.3317C40.3605 15.2362 45.3571 10.9768 48.6335 14.7447L59.3639 26.9495L69.2752 14.9085C72.3878 11.0587 77.5482 15.1543 74.9271 19.3317L64.1967 32.4375L71.6506 40.8744L66.9817 46.4444L59.6097 38.0894L53.4663 45.6252C50.4356 49.3112 47.4049 53.9802 43.3093 56.6014H144.47V9.91193H121.535ZM42.8178 32.3556C42.8178 42.7584 34.2991 51.2771 23.8963 51.2771C13.4936 51.2771 4.97485 42.7584 4.97485 32.3556C4.97485 21.9529 13.4936 13.4341 23.8963 13.4341C34.2991 13.516 42.8178 21.9529 42.8178 32.3556ZM122.436 51.2771C112.033 51.2771 103.514 42.7584 103.514 32.3556C103.514 21.9529 112.033 13.4341 122.436 13.4341C132.838 13.4341 141.357 21.9529 141.357 32.3556C141.357 42.7584 132.838 51.2771 122.436 51.2771Z" fill="#3822E4"/>
<path fill-rule="evenodd" clip-rule="evenodd" d="M23.959 20C17.4061 20 12 25.4061 12 31.959C12 38.5119 17.4061 43.9181 23.959 43.9181C30.5119 43.9181 35.9181 38.5119 35.9181 31.959C35.9181 25.4061 30.5939 20 23.959 20Z" fill="#3822E4"/>
</svg>
