<svg width="173" height="81" viewBox="0 0 173 81" fill="none" xmlns="http://www.w3.org/2000/svg">
<path d="M68.8199 27.8684L58.8312 27.8592V9.43031C58.8312 8.10144 57.7879 7.06787 56.4678 7.06787C55.1661 7.06787 54.1045 8.12912 54.1045 9.43031V30.2309C54.1045 30.8399 54.3629 31.4583 54.8245 31.9104C55.2584 32.3442 55.8585 32.5933 56.477 32.5933H56.514H68.8661C70.1678 32.5933 71.2294 31.5136 71.2294 30.1847C71.1832 28.9112 70.1216 27.8684 68.8199 27.8684Z" fill="#3822E4"/>
<path d="M100.356 8.50725C99.9032 7.69516 99.1 7.20605 98.2045 7.20605H98.1491C97.2259 7.24297 96.4412 7.76896 96.035 8.59951L86.554 29.0679C86.0001 30.2584 86.5171 31.6703 87.6988 32.224C88.0219 32.3901 88.3542 32.4639 88.7142 32.4639C89.6374 32.4639 90.4867 31.9102 90.8744 31.0704L93.0716 26.3363H103.882L106.292 31.1535C106.901 32.3255 108.332 32.7869 109.486 32.1963C110.058 31.9287 110.483 31.4488 110.695 30.8582C110.907 30.2491 110.861 29.5847 110.566 28.9941L100.356 8.50725ZM101.509 21.5469H95.315L98.2968 15.1239L101.509 21.5469Z" fill="#3822E4"/>
<path d="M135.593 17.8278C134.726 17.6248 133.913 17.5694 133.128 17.5233L132.722 17.4956C131.531 17.4402 130.396 17.3848 129.639 16.8588C128.882 16.342 128.254 15.3362 128.522 14.3949C128.826 13.2321 130.008 12.2724 131.402 12.0693C133.239 11.8017 135.233 12.3093 136.609 13.4074C137.643 14.2011 139.148 14.0257 139.969 13.0014C140.763 11.9678 140.588 10.4636 139.563 9.64228C137.144 7.76893 133.849 6.91071 130.747 7.34444C127.479 7.82431 124.737 10.1499 123.915 13.1214C123.149 15.8991 124.386 19.0459 126.916 20.7809C128.753 22.0359 130.7 22.1559 132.418 22.2482H132.473C133.184 22.2758 133.922 22.3128 134.532 22.4604C135.916 22.7742 136.895 23.9369 136.812 25.1735C136.729 26.5578 135.169 27.4068 133.756 27.6098C131.522 27.942 129.113 27.1115 127.774 25.5611C126.934 24.5645 125.448 24.4353 124.441 25.2843C123.444 26.161 123.324 27.6375 124.164 28.6434C126.177 31.015 129.399 32.4362 132.787 32.4362C133.341 32.4362 133.904 32.3993 134.439 32.3347C137.707 31.8548 141.336 29.4924 141.576 25.4596C141.806 21.9067 139.221 18.6214 135.593 17.8278Z" fill="#3822E4"/>
<path d="M166.058 17.8278C165.19 17.6248 164.378 17.5694 163.593 17.5233L163.187 17.4956C161.996 17.4402 160.861 17.3848 160.104 16.8588C159.347 16.342 158.719 15.3362 158.987 14.3949C159.291 13.2321 160.473 12.2724 161.858 12.0693C163.695 11.8017 165.689 12.3093 167.064 13.4074C168.098 14.2011 169.603 14.0257 170.425 13.0014C171.219 11.9678 171.043 10.4636 170.019 9.64228C167.6 7.76893 164.304 6.91071 161.202 7.34444C157.943 7.82431 155.192 10.1499 154.371 13.1214C153.605 15.8991 154.842 19.0459 157.371 20.7809C159.208 22.0359 161.156 22.1559 162.873 22.2482H162.929C163.639 22.2758 164.378 22.3128 164.987 22.4604C166.372 22.7742 167.351 23.9369 167.268 25.1735C167.184 26.5578 165.624 27.4068 164.212 27.6098C161.978 27.942 159.568 27.1115 158.23 25.5611C157.389 24.5645 155.903 24.4353 154.897 25.2843C153.9 26.161 153.78 27.6375 154.62 28.6434C156.633 31.015 159.854 32.4362 163.242 32.4362C163.796 32.4362 164.36 32.3993 164.895 32.3347C168.163 31.8548 171.791 29.4924 172.031 25.4596C172.262 21.9067 169.686 18.6214 166.058 17.8278Z" fill="#3822E4"/>
<path d="M0.569336 0.700195V38.9885H38.8812V0.700195H0.569336ZM29.9263 29.0035C27.5538 31.1813 24.5073 32.3718 21.3777 32.3718C14.4631 32.3718 8.84098 26.7425 8.84098 19.8213C8.84098 12.9093 14.4723 7.28923 21.3777 7.28923C24.4796 7.28923 27.4707 8.43355 29.7695 10.5007C30.2034 10.8883 30.4525 11.4143 30.4895 11.9957C30.5356 12.5771 30.3233 13.14 29.9263 13.5922C29.1232 14.4688 27.7477 14.5335 26.8799 13.7306C25.3751 12.3925 23.4364 11.6542 21.3869 11.6542C16.8634 11.6542 13.1891 15.3271 13.1891 19.8305C13.1891 24.3339 16.8634 28.0068 21.3869 28.0068C23.4918 28.0068 25.4767 27.2316 26.9722 25.8289C27.8215 25.0076 29.2155 25.0537 30.0463 25.9304C30.8403 26.8071 30.7941 28.1821 29.9263 29.0035Z" fill="#3822E4"/>
<path d="M85.834 61.4043C85.834 54.3539 91.5484 48.6416 98.6014 48.6416C105.654 48.6416 111.369 54.3539 111.369 61.4043C111.369 68.4548 105.654 74.1671 98.6014 74.1671C91.5484 74.1671 85.834 68.4548 85.834 61.4043ZM98.6014 69.3407C102.987 69.3407 106.541 65.7878 106.541 61.4043C106.541 57.0209 102.987 53.468 98.6014 53.468C94.2164 53.468 90.6622 57.0209 90.6622 61.4043C90.6622 65.7878 94.2164 69.3407 98.6014 69.3407Z" fill="#3822E4"/>
<path d="M140.966 70.688L136.997 63.1854C139.572 61.8935 141.206 59.3372 141.206 56.5503C141.206 52.2591 137.744 48.6416 133.645 48.6416H127.359H127.183H126.214C124.977 48.6416 123.97 49.6475 123.97 50.8841V51.5762V71.7677C123.97 73.0966 125.014 74.1302 126.334 74.1302C127.663 74.1302 128.697 73.0874 128.697 71.7677V64.0713H132.095L136.729 72.8659C137.107 73.6688 137.911 74.1579 138.825 74.1579C139.24 74.1579 139.6 74.0656 139.951 73.881C141.123 73.2904 141.576 71.86 140.966 70.688ZM133.396 59.3464H128.716V53.4034H133.655C135.132 53.4034 136.48 54.9076 136.48 56.5503C136.48 58.0176 135.012 59.3464 133.396 59.3464Z" fill="#3822E4"/>
<path d="M170.97 70.0144L162.116 61.7273L170.305 53.2004C171.219 52.2499 171.182 50.7272 170.231 49.8136C169.788 49.3706 169.206 49.1399 168.569 49.1399C167.923 49.1492 167.314 49.4076 166.861 49.8874L159.134 57.9622V51.041C159.134 49.7213 158.073 48.6416 156.771 48.6416C155.423 48.6416 154.371 49.6936 154.371 51.041V71.8047C154.371 73.1335 155.423 74.1671 156.771 74.1671C158.1 74.1671 159.134 73.1243 159.134 71.8047V65.4556L167.775 73.5765C168.237 73.9641 168.791 74.1671 169.363 74.1671C170.083 74.1671 170.711 73.8903 171.163 73.3643C171.588 72.9028 171.8 72.2938 171.763 71.657C171.736 71.0203 171.45 70.4389 170.97 70.0144Z" fill="#3822E4"/>
<path d="M42.1584 42.2646V80.5529H80.4611V42.2646H42.1584ZM73.925 52.3327L69.6877 71.3615L69.6507 71.4722C69.6322 71.5276 69.6137 71.5922 69.5952 71.6384L69.5861 71.6845C69.5677 71.7491 69.5306 71.8045 69.503 71.8506C69.4845 71.8783 69.4661 71.906 69.4661 71.9337L69.4476 71.9798L69.4107 72.0167C69.3645 72.1274 69.2907 72.2013 69.2261 72.2566L69.1983 72.2843C69.1522 72.3305 69.0968 72.3858 69.0138 72.4504C68.9861 72.4966 68.949 72.5243 68.9029 72.5427C68.8567 72.5796 68.8199 72.6073 68.7737 72.635V72.6442L68.6352 72.7273L68.0166 72.9211C67.952 72.9211 67.9151 72.9303 67.8874 72.9303C67.832 72.9396 67.7767 72.9488 67.7213 72.9488C67.6382 72.9488 67.5551 72.9488 67.472 72.9211C67.4166 72.9211 67.3612 72.9119 67.2965 72.8934H67.1582L67.1304 72.8657C67.0843 72.8565 67.0566 72.8473 67.0381 72.838H66.8627L66.8442 72.7457C66.798 72.7365 66.7611 72.7181 66.7334 72.6904H66.6873L66.6226 72.6258C66.6042 72.6165 66.5858 72.5981 66.5766 72.5889C66.5673 72.5797 66.5581 72.5704 66.5488 72.5704H66.5396L66.355 72.4228H66.198V72.2659C66.1796 72.2474 66.161 72.2197 66.1426 72.192C66.1056 72.1644 66.078 72.1275 66.0595 72.0905L65.921 71.8968L61.3329 63.296L56.9478 71.9798H56.9293L56.8185 72.1551C56.8 72.1736 56.7909 72.1921 56.7724 72.2013C56.7447 72.229 56.7169 72.2659 56.68 72.2936C56.6615 72.312 56.6524 72.3305 56.6247 72.3489C56.597 72.3859 56.5601 72.4135 56.5324 72.4412C56.5231 72.4412 56.5231 72.4504 56.5139 72.4504V72.4689L55.9323 72.8104C55.8861 72.838 55.8307 72.8565 55.7661 72.8657L55.7292 72.9026H55.6461C55.5907 72.9211 55.5446 72.9303 55.4984 72.9303H55.4522C55.286 72.9857 55.1568 72.9672 55.0368 72.9395C54.9999 72.9303 54.9722 72.9303 54.9353 72.9303L54.7506 72.9026C54.6952 72.8842 54.6675 72.875 54.6306 72.875H54.4183V72.7827L54.2152 72.7181L54.1505 72.6627C54.1413 72.6535 54.1136 72.635 54.0859 72.6166C54.0398 72.5889 53.9844 72.5612 53.9382 72.5058C53.8736 72.4689 53.8182 72.4135 53.7628 72.3582H53.7351L53.6704 72.2566C53.652 72.229 53.6243 72.2013 53.6059 72.1736C53.5782 72.1367 53.5505 72.0998 53.5228 72.0629C53.4951 72.0352 53.4766 72.0075 53.4674 71.9706C53.4397 71.9337 53.4212 71.8875 53.3936 71.8506H53.3843L53.3105 71.7122L53.2089 71.38L48.7039 52.4065C48.4361 51.3268 49.1008 50.2287 50.1809 49.9611C51.2887 49.7211 52.3596 50.3856 52.6274 51.4653L55.8953 65.1324L59.4865 58.0081C59.8465 57.3437 60.5204 56.9377 61.2867 56.9008C62.0252 56.9008 62.7361 57.3345 63.0777 57.9712L66.9274 65.1693L69.9645 51.5022C70.0753 50.9854 70.3893 50.5332 70.8416 50.2379C71.294 49.9426 71.857 49.8411 72.3833 49.9611C72.9002 50.0718 73.3526 50.3856 73.648 50.8285C73.9342 51.2438 74.0358 51.8067 73.925 52.3327Z" fill="#3822E4"/>
<path d="M21.0546 67.0978C19.9098 68.2052 18.802 68.7405 17.4727 68.7405C15.4786 68.7405 13.5122 67.6331 13.5122 65.6674C13.7984 63.2312 15.4787 62.9174 16.6142 62.6221C17.9712 64.0525 19.6513 65.6674 21.0546 67.0978Z" fill="#3822E4"/>
<path d="M16.8911 56.0058C16.8911 54.8338 17.7128 53.791 18.7929 53.791C19.9007 53.791 20.7869 54.8338 20.7869 56.0058C20.7869 57.1501 20.1869 58.8297 18.2205 58.8297C17.122 57.9345 16.8911 57.1409 16.8911 56.0058Z" fill="#3822E4"/>
<path d="M0.569336 42.2554V80.5436H38.8719V42.2554H0.569336ZM25.5135 71.8136L23.8334 69.8757C22.1532 71.8137 19.9006 72.921 17.4634 72.921C12.709 72.921 9.3118 69.6266 9.3118 65.6676C9.3118 62.9176 10.9919 60.4075 13.7799 59.2632C13.2722 58.5064 12.6999 57.1407 12.6999 56.0056C12.6999 52.1112 15.4602 49.8595 18.4698 49.8595C22.4671 49.8595 24.9043 52.3696 24.9043 56.264C24.9043 58.5157 23.8242 60.7028 21.5716 61.8378L23.8241 64.0527L25.3104 61.6717C26.7967 59.4846 29.6863 61.5425 28.3569 63.5451C27.7846 64.5233 27.0553 65.5753 26.2706 66.8396L28.5877 69.1282C30.6187 71.4353 27.1937 73.687 25.5135 71.8136Z" fill="#3822E4"/>
</svg>
