<svg width="172" height="82" viewBox="0 0 172 82" fill="none" xmlns="http://www.w3.org/2000/svg">
<path d="M68.6258 29.145C68.9085 29.2628 69.2147 29.3334 69.5327 29.3688C69.8508 29.4041 70.1217 29.4159 70.3572 29.4159C70.6281 29.4159 70.9108 29.3923 71.1817 29.3452C71.4526 29.2981 71.6882 29.2628 71.9002 29.2274V25.6232C71.6764 25.5879 71.4409 25.5525 71.1817 25.529C70.9226 25.5054 70.6988 25.4937 70.4986 25.4937C69.6152 25.4937 68.9085 25.6586 68.3785 25.9766C67.8602 26.2946 67.6011 26.8011 67.6011 27.5196C67.6011 28.0025 67.7071 28.3558 67.9073 28.615C68.1075 28.8387 68.3431 29.0272 68.6258 29.145Z" fill="#3822E4"/>
<path d="M57.8484 21.3947C57.4008 20.8529 56.7766 20.582 55.9874 20.582C55.0687 20.582 54.3855 20.8294 53.9144 21.3476C53.4433 21.8541 53.1606 22.5726 53.0781 23.4913H58.5905C58.5316 22.6315 58.296 21.9366 57.8484 21.3947Z" fill="#3822E4"/>
<path d="M76.4228 3.24435C71.6054 0.81798 64.6089 3.20901 64.6089 3.20901C36.2817 12.4433 36.7175 12.2078 29.6975 14.6106C29.5326 14.6577 29.1557 14.7755 29.0026 14.7873C28.661 14.8108 28.3783 14.5046 28.3783 14.1512C28.3783 13.9745 28.4608 13.7979 28.6021 13.6919C28.7081 13.5976 28.8024 13.5387 28.8024 13.5387C28.8024 13.5387 33.9024 10.335 38.7316 7.46104C39.8035 6.81323 40.6751 6.33031 41.6527 5.75316C42.4418 5.28202 44.986 3.98639 44.986 2.5023C44.986 1.56002 44.2557 0.794423 43.337 0.723752C43.2899 0.723752 43.0072 0.700195 42.9365 0.700195H41.6056H23.5374H17.5775C13.3843 0.700195 10.2748 1.93694 8.19001 3.18545C3.60818 6.14185 0.569336 11.3008 0.569336 17.1665C0.569336 21.501 2.21832 25.4468 4.93915 28.4032V28.415L55.6691 76.4241C58.6608 79.2862 62.7008 81.0412 67.1649 81.0412C76.3639 81.0412 83.8079 73.5854 83.8079 64.3982L83.855 14.7284C83.8432 9.96986 80.7573 5.7885 76.4228 3.24435ZM64.5383 25.4586C64.9152 24.8696 65.3981 24.3985 65.9753 24.0451C66.5642 23.6918 67.2238 23.4327 67.954 23.2795C68.6843 23.1264 69.4146 23.044 70.1331 23.044C70.6631 23.044 71.2402 23.0793 71.8763 23.1264V22.7966C71.8763 22.3608 71.8056 22.0075 71.6525 21.7366C71.5111 21.4657 71.3109 21.2419 71.0518 21.0887C70.8044 20.9356 70.4864 20.8296 70.1095 20.7707C69.7561 20.7236 69.3439 20.7001 68.8845 20.7001C67.9069 20.7001 66.8586 20.8885 65.7397 21.2772C65.4806 20.8061 65.2921 20.3585 65.1743 19.9345C65.0565 19.5222 64.9859 19.0157 64.9859 18.4386C65.7868 18.1677 66.576 17.9675 67.3887 17.8379C68.1896 17.7083 68.9317 17.6494 69.6266 17.6494C71.5111 17.6494 72.9952 18.097 74.0553 19.0157C75.1271 19.9227 75.6572 21.3832 75.6572 23.3738V31.5598C75.0211 31.7601 74.2438 31.9485 73.3368 32.137C72.4299 32.3254 71.3934 32.4079 70.2508 32.4079C69.3203 32.4079 68.4723 32.3254 67.7067 32.1605C66.9293 31.9956 66.2697 31.7247 65.7161 31.336C65.1625 30.9591 64.7385 30.4644 64.4323 29.8637C64.1378 29.263 63.9847 28.521 63.9847 27.6494C63.9729 26.7778 64.1614 26.0475 64.5383 25.4586ZM24.5503 31.6069C24.5503 31.7247 24.5385 31.8543 24.4914 32.0074C24.2088 32.1016 23.8436 32.1605 23.4432 32.1959C23.0427 32.2312 22.654 32.243 22.3124 32.243C20.9108 32.243 19.7918 31.8543 18.9438 31.0887C18.0957 30.3231 17.6717 29.0628 17.6717 27.3196V12.1371C18.3313 12.0311 18.9673 11.9722 19.6151 11.9722C20.2276 11.9722 20.8637 12.0311 21.5233 12.1371V26.4597C21.5233 27.0251 21.5586 27.4727 21.6175 27.826C21.6764 28.1676 21.7824 28.4385 21.9119 28.627C22.0533 28.8154 22.23 28.9568 22.442 29.0274C22.6658 29.0981 22.9367 29.1335 23.2665 29.1335C23.4078 29.1335 23.5609 29.1217 23.7376 29.1099C23.9143 29.0863 24.0792 29.0628 24.2441 29.0274C24.4443 29.7695 24.5503 30.4998 24.5503 31.2065C24.5503 31.3478 24.5503 31.4774 24.5503 31.6069ZM30.9578 32.0781C30.31 32.1841 29.6622 32.243 29.0497 32.243C28.449 32.243 27.8247 32.1959 27.1652 32.0781V20.9238H25.3395C25.2806 20.6883 25.2335 20.4409 25.2099 20.1818C25.1746 19.9227 25.1746 19.6636 25.1746 19.428C25.1746 18.9333 25.2217 18.4504 25.3395 17.9792H30.9578V32.0781ZM47.0355 32.0781C46.3759 32.1841 45.728 32.243 45.092 32.243C44.456 32.243 43.8081 32.1959 43.1603 32.0781V24.104C43.1603 23.1264 43.0072 22.3608 42.7127 21.8426C42.4065 21.3125 41.8883 21.0416 41.1462 21.0416C40.84 21.0416 40.5219 21.0887 40.1922 21.183C39.8624 21.2772 39.5679 21.4539 39.3088 21.713C39.0496 21.9721 38.8376 22.349 38.6727 22.8202C38.5078 23.2913 38.4254 23.9156 38.4254 24.6694V32.0663C37.7658 32.1723 37.1297 32.2312 36.4819 32.2312C35.8459 32.2312 35.1981 32.1841 34.5503 32.0663V17.9792C34.7976 17.9321 35.0567 17.885 35.3159 17.8614C35.575 17.8379 35.8459 17.8143 36.1639 17.8143C36.4702 17.8143 36.7411 17.8261 36.9884 17.8614C37.224 17.885 37.4713 17.9321 37.7304 17.9792C37.7776 18.0735 37.8365 18.203 37.8718 18.3679C37.9189 18.5446 37.9542 18.7213 38.0014 18.9215C38.0367 19.11 38.072 19.2984 38.0956 19.4869C38.1191 19.6636 38.1427 19.8167 38.1663 19.9462C38.3429 19.6753 38.5667 19.4044 38.8141 19.1335C39.0732 18.8626 39.3677 18.6153 39.6975 18.4033C40.039 18.1795 40.4159 18.0028 40.84 17.8732C41.2522 17.7319 41.7234 17.673 42.2298 17.673C43.8317 17.673 45.0331 18.1088 45.8458 18.9804C46.6585 19.852 47.059 21.2301 47.059 23.1029V32.0781H47.0355ZM53.2427 31.8543C52.3004 31.4891 51.5348 30.9945 50.9459 30.3466C50.357 29.6988 49.9212 28.9332 49.6385 28.0381C49.3558 27.1547 49.2145 26.1771 49.2145 25.1288C49.2145 24.0923 49.3558 23.1146 49.6503 22.2077C49.933 21.3008 50.3688 20.5116 50.9459 19.8402C51.5231 19.1689 52.2298 18.6388 53.0778 18.2384C53.9259 17.8497 54.9035 17.6612 56.0342 17.6612C57.0236 17.6612 57.8952 17.8261 58.649 18.1677C59.4146 18.521 60.0625 18.9922 60.6043 19.5929C61.1343 20.1936 61.5465 20.9003 61.8175 21.7366C62.0884 22.5611 62.2297 23.4562 62.2297 24.3985C62.2297 24.7401 62.2179 25.0817 62.1944 25.4115C62.1708 25.753 62.1355 26.0239 62.0884 26.2242H53.0307C53.1014 27.3196 53.4901 28.1087 54.185 28.5916C54.8681 29.0863 55.7869 29.3337 56.9058 29.3337C57.5183 29.3337 58.1543 29.2748 58.8022 29.157C59.45 29.0392 60.0625 28.8743 60.6396 28.6623C60.8398 29.0274 61.0165 29.4632 61.1579 29.9697C61.2992 30.4762 61.3816 31.018 61.4052 31.6069C59.9918 32.1487 58.3899 32.4314 56.5996 32.4314C55.3039 32.4079 54.185 32.2194 53.2427 31.8543ZM75.6689 67.1779C75.6689 71.5831 71.9352 71.748 71.9352 71.748H68.9317H65.3039V49.098H62.5831H58.9671V44.2217C60.3923 44.2217 61.8763 43.7505 63.4193 42.8083C64.9388 41.866 65.9988 40.3112 66.5877 38.1675H67.3651H68.543H70.2037H72.159H72.689V38.2029C73.4428 38.2971 74.0906 38.6151 74.6442 39.1452C75.3274 39.793 75.6689 40.6057 75.6689 41.5833V67.1779Z" fill="#3822E4"/>
<path d="M101.452 38.2731C101.982 38.1906 102.5 38.1553 102.983 38.1553C103.501 38.1553 104.019 38.1906 104.514 38.2731L107.8 46.4944L111.192 38.2731C111.605 38.1906 112.064 38.1553 112.57 38.1553C113.077 38.1553 113.56 38.1906 114.031 38.2731L114.702 52.6193C114.196 52.7017 113.725 52.737 113.265 52.737C112.818 52.737 112.37 52.7017 111.934 52.6193L111.581 42.8902L108.672 49.6275C108.483 49.6511 108.295 49.6746 108.095 49.6982C107.894 49.7217 107.694 49.7335 107.494 49.7335C107.329 49.7335 107.152 49.7335 106.976 49.71C106.811 49.6982 106.622 49.6746 106.446 49.6275L103.737 42.7489L103.454 52.6193C103.03 52.7017 102.618 52.737 102.217 52.737C101.793 52.737 101.357 52.7017 100.898 52.6193L101.452 38.2731Z" fill="#3822E4"/>
<path d="M119.59 48.332C119.649 49.1329 119.92 49.7101 120.427 50.0752C120.933 50.4286 121.593 50.617 122.429 50.617C122.888 50.617 123.336 50.5699 123.807 50.4875C124.278 50.405 124.726 50.2755 125.15 50.1223C125.303 50.3815 125.421 50.7113 125.527 51.0764C125.633 51.4415 125.692 51.8538 125.703 52.2778C124.667 52.6783 123.501 52.8785 122.193 52.8785C121.239 52.8785 120.415 52.7489 119.732 52.478C119.049 52.2189 118.495 51.842 118.059 51.3709C117.623 50.8997 117.305 50.3344 117.105 49.6865C116.893 49.0387 116.799 48.332 116.799 47.5546C116.799 46.8008 116.905 46.0941 117.117 45.4227C117.329 44.7631 117.647 44.1742 118.071 43.6795C118.483 43.1848 119.013 42.7961 119.626 42.5134C120.238 42.2308 120.957 42.0776 121.793 42.0776C122.511 42.0776 123.147 42.2072 123.701 42.4545C124.266 42.7019 124.738 43.0553 125.126 43.4911C125.515 43.9269 125.809 44.4569 126.01 45.0576C126.21 45.6701 126.304 46.3179 126.304 47.001C126.304 47.2602 126.292 47.5075 126.269 47.7549C126.257 48.0022 126.233 48.1907 126.198 48.3438H119.59V48.332ZM123.642 46.3532C123.619 45.7172 123.442 45.1989 123.112 44.8102C122.794 44.4216 122.335 44.2213 121.746 44.2213C121.086 44.2213 120.58 44.4098 120.238 44.7749C119.897 45.1518 119.685 45.6701 119.614 46.3532H123.642Z" fill="#3822E4"/>
<path d="M128.825 44.4568H127.53L127.424 44.0564L131.158 39.2979H131.617V42.3131H134.032C134.079 42.5134 134.102 42.6901 134.114 42.855C134.126 43.0199 134.126 43.1848 134.126 43.3614C134.126 43.5499 134.126 43.7266 134.114 43.9032C134.102 44.0799 134.067 44.2684 134.032 44.4804H131.617V48.5322C131.617 48.9444 131.652 49.2742 131.723 49.5334C131.782 49.7807 131.888 49.9809 132.006 50.1341C132.135 50.2754 132.288 50.3814 132.477 50.4285C132.665 50.4874 132.889 50.511 133.136 50.511C133.337 50.511 133.537 50.4874 133.725 50.4639C133.914 50.4285 134.079 50.3932 134.232 50.3696C134.326 50.617 134.397 50.8879 134.432 51.1588C134.467 51.4297 134.491 51.677 134.491 51.889C134.491 52.0422 134.491 52.16 134.479 52.2542C134.467 52.3484 134.467 52.4544 134.444 52.5369C133.831 52.69 133.195 52.7607 132.547 52.7607C131.346 52.7607 130.416 52.478 129.78 51.9126C129.132 51.3472 128.825 50.4285 128.825 49.1564V44.4568Z" fill="#3822E4"/>
<path d="M136.175 42.3131C136.376 42.266 136.564 42.2424 136.741 42.2189C136.917 42.1953 137.118 42.1953 137.33 42.1953C137.53 42.1953 137.718 42.2071 137.919 42.2306C138.107 42.2542 138.307 42.2895 138.484 42.3249C138.519 42.3838 138.566 42.4898 138.59 42.6193C138.625 42.7489 138.649 42.8785 138.684 43.0198C138.708 43.1611 138.731 43.3025 138.755 43.4438C138.767 43.5852 138.79 43.703 138.802 43.7972C139.096 43.3849 139.45 43.0198 139.874 42.69C140.298 42.3602 140.828 42.2071 141.464 42.2071C141.594 42.2071 141.747 42.2189 141.923 42.2306C142.088 42.2424 142.218 42.266 142.3 42.2895C142.324 42.4191 142.347 42.5722 142.359 42.7489C142.371 42.9256 142.383 43.1023 142.383 43.2907C142.383 43.5145 142.371 43.7619 142.359 44.0328C142.336 44.3037 142.3 44.551 142.241 44.7984C142.1 44.763 141.935 44.763 141.758 44.763H141.429C141.193 44.763 140.946 44.7866 140.663 44.8337C140.392 44.8808 140.121 45.0104 139.862 45.1988C139.615 45.3991 139.403 45.7053 139.238 46.094C139.073 46.4945 138.99 47.0598 138.99 47.7783V52.6782C138.743 52.7253 138.508 52.7488 138.272 52.7606C138.036 52.7724 137.801 52.7842 137.577 52.7842C137.353 52.7842 137.129 52.7724 136.882 52.7606C136.647 52.7488 136.411 52.7253 136.152 52.6782V42.3131H136.175Z" fill="#3822E4"/>
<path d="M148.26 52.8551C147.424 52.8551 146.693 52.7137 146.081 52.4428C145.457 52.1719 144.95 51.7832 144.55 51.3003C144.149 50.8174 143.843 50.252 143.631 49.5924C143.431 48.9446 143.325 48.2379 143.325 47.4723C143.325 46.7185 143.419 46 143.631 45.3404C143.843 44.6808 144.149 44.1037 144.55 43.6207C144.962 43.1378 145.468 42.7491 146.081 42.4782C146.705 42.1955 147.424 42.0542 148.26 42.0542C149.096 42.0542 149.826 42.1955 150.451 42.4782C151.075 42.7609 151.593 43.1378 152.005 43.6207C152.418 44.1037 152.724 44.6808 152.924 45.3404C153.124 46.0118 153.23 46.7185 153.23 47.4723C153.23 48.2379 153.124 48.9328 152.924 49.5924C152.724 50.2402 152.418 50.8056 152.005 51.3003C151.593 51.7832 151.075 52.1719 150.451 52.4428C149.826 52.7255 149.096 52.8551 148.26 52.8551ZM148.26 50.6996C149.002 50.6996 149.544 50.4287 149.862 49.8751C150.18 49.3215 150.345 48.5324 150.345 47.4841C150.345 46.4476 150.18 45.6584 149.862 45.1048C149.532 44.5512 149.002 44.2803 148.26 44.2803C147.53 44.2803 147 44.563 146.67 45.1048C146.352 45.6584 146.187 46.4594 146.187 47.4841C146.187 48.5206 146.352 49.3215 146.67 49.8751C147 50.4287 147.53 50.6996 148.26 50.6996Z" fill="#3822E4"/>
<path d="M107.436 56.754C107.683 56.7068 107.93 56.6833 108.166 56.6715C108.401 56.6597 108.637 56.6479 108.873 56.6479C109.108 56.6479 109.356 56.6597 109.591 56.6715C109.838 56.6833 110.086 56.7068 110.333 56.754V71.4182C109.685 71.6184 109.038 71.7597 108.378 71.854C107.718 71.96 106.906 72.0071 105.963 72.0071C105.233 72.0071 104.538 71.9129 103.879 71.7126C103.219 71.5124 102.63 71.1944 102.124 70.7704C101.617 70.3463 101.217 69.781 100.922 69.0978C100.628 68.4147 100.486 67.5784 100.486 66.589C100.486 65.8116 100.616 65.0696 100.863 64.3864C101.122 63.6915 101.476 63.0908 101.959 62.5961C102.43 62.0896 102.995 61.6891 103.667 61.3947C104.338 61.1002 105.08 60.9471 105.904 60.9471C106.152 60.9471 106.399 60.9589 106.682 60.9824C106.941 60.9942 107.2 61.0413 107.447 61.112V56.754H107.436ZM107.436 63.3499C107.165 63.2792 106.953 63.2439 106.776 63.2203C106.611 63.1968 106.387 63.185 106.128 63.185C105.681 63.185 105.28 63.2792 104.95 63.4559C104.609 63.6444 104.338 63.8917 104.126 64.198C103.902 64.5042 103.737 64.8693 103.643 65.2934C103.537 65.7056 103.49 66.1414 103.49 66.6008C103.49 67.1661 103.561 67.6373 103.702 68.026C103.831 68.4147 104.02 68.7327 104.267 68.9565C104.515 69.192 104.785 69.3569 105.115 69.4629C105.445 69.5572 105.798 69.6161 106.187 69.6161C106.411 69.6161 106.635 69.6043 106.823 69.5807C107.012 69.5572 107.235 69.5218 107.459 69.4512V63.3499H107.436Z" fill="#3822E4"/>
<path d="M115.457 67.354C115.516 68.1785 115.798 68.7792 116.317 69.1444C116.835 69.5095 117.518 69.6979 118.366 69.6979C118.837 69.6979 119.308 69.6508 119.791 69.5566C120.274 69.4741 120.745 69.3446 121.181 69.1797C121.334 69.4506 121.464 69.7804 121.57 70.1691C121.676 70.5578 121.735 70.9582 121.758 71.4058C120.687 71.8181 119.485 72.0183 118.154 72.0183C117.165 72.0183 116.317 71.8887 115.622 71.6061C114.915 71.3351 114.338 70.9465 113.89 70.4635C113.443 69.9806 113.113 69.4035 112.913 68.7321C112.701 68.0607 112.595 67.3305 112.595 66.5295C112.595 65.7521 112.713 65.0101 112.925 64.327C113.148 63.6438 113.466 63.0431 113.902 62.5366C114.338 62.0301 114.868 61.6297 115.504 61.3352C116.14 61.0408 116.882 60.8994 117.73 60.8994C118.472 60.8994 119.132 61.029 119.709 61.2881C120.274 61.5472 120.769 61.9006 121.169 62.3599C121.57 62.8075 121.876 63.3493 122.076 63.9736C122.288 64.5979 122.383 65.2692 122.383 65.9759C122.383 66.2351 122.371 66.4942 122.347 66.7415C122.324 66.9889 122.3 67.1891 122.277 67.3422H115.457V67.354ZM119.626 65.3163C119.603 64.6567 119.414 64.1267 119.085 63.7262C118.743 63.314 118.284 63.1138 117.683 63.1138C117 63.1138 116.482 63.314 116.116 63.6909C115.763 64.0678 115.551 64.6214 115.48 65.3163H119.626Z" fill="#3822E4"/>
<path d="M129.19 57.0006C129.697 56.9181 130.18 56.8828 130.651 56.8828C131.122 56.8828 131.629 56.9181 132.147 57.0006V69.1795H137.259C137.306 69.4151 137.329 69.6389 137.341 69.8509C137.353 70.0629 137.365 70.2632 137.365 70.4516C137.365 70.6754 137.353 70.8874 137.341 71.0994C137.329 71.3115 137.306 71.5352 137.259 71.759H129.19V57.0006Z" fill="#3822E4"/>
<path d="M139.673 63.3729H138.295C138.26 63.1962 138.224 63.0078 138.201 62.8075C138.189 62.6073 138.177 62.4188 138.177 62.2422C138.177 61.8652 138.224 61.5119 138.295 61.1468H142.523V71.771C142.041 71.8534 141.558 71.9005 141.087 71.9005C140.639 71.9005 140.156 71.8534 139.673 71.771V63.3729ZM139.237 59.3564C139.155 58.8853 139.12 58.4377 139.12 57.9784C139.12 57.5425 139.155 57.0832 139.237 56.6003C139.473 56.5532 139.72 56.5296 139.991 56.506C140.262 56.4825 140.498 56.4707 140.721 56.4707C140.945 56.4707 141.204 56.4825 141.475 56.506C141.758 56.5296 142.005 56.5532 142.229 56.6003C142.276 56.8358 142.3 57.0596 142.311 57.2834C142.323 57.519 142.335 57.7428 142.335 57.9666C142.335 58.1904 142.335 58.4142 142.311 58.6497C142.3 58.8735 142.276 59.1091 142.229 59.3447C141.993 59.3918 141.746 59.4153 141.475 59.4271C141.216 59.4389 140.969 59.4507 140.733 59.4507C140.521 59.4507 140.274 59.4389 139.991 59.4271C139.732 59.4271 139.473 59.4035 139.237 59.3564Z" fill="#3822E4"/>
<path d="M145.397 61.1467C145.586 61.1114 145.774 61.076 145.975 61.0525C146.163 61.0289 146.375 61.0171 146.611 61.0171C146.846 61.0171 147.046 61.0289 147.235 61.0525C147.412 61.076 147.6 61.0996 147.788 61.1467C147.836 61.2174 147.859 61.3116 147.906 61.4412C147.942 61.5707 147.965 61.7121 148.001 61.8534C148.036 61.9948 148.048 62.1361 148.083 62.2774C148.107 62.407 148.118 62.5248 148.13 62.6308C148.248 62.4306 148.389 62.2185 148.566 62.0183C148.743 61.8063 148.955 61.6296 149.202 61.4647C149.449 61.2998 149.732 61.1703 150.026 61.0643C150.333 60.9582 150.686 60.9111 151.063 60.9111C152.712 60.9111 153.784 61.5472 154.243 62.7957C154.526 62.2892 154.903 61.8534 155.409 61.4765C155.904 61.0996 156.54 60.9111 157.306 60.9111C158.519 60.9111 159.402 61.2409 159.967 61.9123C160.533 62.5837 160.815 63.6202 160.815 65.0218V71.7827C160.321 71.8651 159.838 71.9122 159.355 71.9122C158.872 71.9122 158.389 71.8651 157.894 71.7827V65.7874C157.894 65.0572 157.8 64.48 157.612 64.0913C157.423 63.6909 157.046 63.4906 156.493 63.4906C156.269 63.4906 156.033 63.526 155.81 63.5848C155.586 63.6555 155.374 63.7851 155.197 63.9735C155.009 64.1502 154.856 64.4093 154.75 64.7509C154.632 65.0925 154.573 65.5165 154.573 66.0466V71.7827C154.078 71.8651 153.595 71.9122 153.112 71.9122C152.641 71.9122 152.147 71.8651 151.652 71.7827V65.7874C151.652 65.0572 151.558 64.48 151.369 64.0913C151.192 63.6909 150.816 63.4906 150.25 63.4906C150.015 63.4906 149.779 63.526 149.555 63.5848C149.32 63.6555 149.119 63.7969 148.931 63.9853C148.743 64.1856 148.601 64.4682 148.483 64.8216C148.366 65.1749 148.319 65.6343 148.319 66.2114V71.7827C147.824 71.8651 147.341 71.9122 146.858 71.9122C146.375 71.9122 145.892 71.8651 145.397 71.7827V61.1467Z" fill="#3822E4"/>
<path d="M168.731 64.7863C168.731 64.4565 168.672 64.1973 168.566 63.9853C168.449 63.7851 168.307 63.6202 168.119 63.5024C167.93 63.3846 167.683 63.3022 167.412 63.2668C167.129 63.2197 166.823 63.2079 166.482 63.2079C165.74 63.2079 164.95 63.3493 164.126 63.6437C163.937 63.2904 163.784 62.9488 163.69 62.6426C163.596 62.3246 163.549 61.9476 163.549 61.5118C164.149 61.2998 164.75 61.1585 165.351 61.0525C165.952 60.9582 166.517 60.9111 167.035 60.9111C168.46 60.9111 169.568 61.2527 170.368 61.9359C171.169 62.619 171.57 63.7144 171.57 65.2221V71.3822C171.087 71.5353 170.51 71.6767 169.827 71.818C169.144 71.9594 168.366 72.0182 167.506 72.0182C166.811 72.0182 166.175 71.9593 165.586 71.8298C165.009 71.712 164.503 71.5 164.091 71.2173C163.678 70.9346 163.349 70.5577 163.125 70.1101C162.901 69.6625 162.795 69.109 162.795 68.4494C162.795 67.7898 162.936 67.2362 163.207 66.7886C163.49 66.341 163.855 65.9877 164.303 65.7285C164.75 65.4576 165.245 65.2692 165.787 65.1514C166.34 65.0336 166.882 64.9747 167.424 64.9747C167.824 64.9747 168.26 64.9983 168.743 65.0336V64.7863H168.731ZM168.731 66.8946C168.566 66.871 168.39 66.8475 168.189 66.8239C168.001 66.8004 167.824 66.7886 167.683 66.7886C167.012 66.7886 166.482 66.9064 166.093 67.1537C165.704 67.4011 165.504 67.778 165.504 68.308C165.504 68.6614 165.575 68.9441 165.74 69.1325C165.881 69.321 166.058 69.4623 166.281 69.5448C166.493 69.639 166.717 69.6861 166.953 69.7097C167.2 69.7332 167.4 69.745 167.577 69.745C167.789 69.745 167.989 69.7214 168.189 69.6861C168.401 69.6508 168.578 69.6272 168.731 69.5919V66.8946Z" fill="#3822E4"/>
</svg>
