<svg width="141" height="197" viewBox="0 0 141 197" fill="none" xmlns="http://www.w3.org/2000/svg">
<path d="M128.514 108.17C138.105 84.6768 147.695 60.798 134.652 36.5341H135.803V19.2027H118.54V26.5204H105.88C105.497 9.95931 89.7681 -2.75038 72.8886 1.10104C62.9144 3.41189 55.6255 10.7297 52.9402 19.9731C49.1039 6.87825 35.6771 -2.36524 21.0993 1.10104C8.82336 3.79703 0 14.9662 0 27.6759C0 42.6964 12.2759 55.0208 27.2373 55.0208C32.608 55.0208 37.5952 53.4803 42.1987 50.3992C42.5823 50.0141 42.9659 49.6289 43.3496 49.6289C44.5004 53.4803 44.884 56.9466 44.884 60.798C40.6642 59.2574 34.9098 56.9466 30.6899 61.5683C28.7718 63.494 28.0045 66.1899 28.3882 68.5008C29.1554 72.3522 32.9917 76.2036 37.9788 78.5145C39.1297 78.8996 40.6642 79.6699 42.1987 80.055C39.8969 88.9133 36.0607 98.1567 32.6081 107.4C23.0175 130.894 13.4268 154.773 26.47 179.036H24.9356V196.368H42.1987V189.05H118.924V196.368H136.187V179.036H123.143C109.333 155.543 118.54 132.434 128.514 108.17ZM121.225 21.8988H132.734V33.453H121.225V21.8988ZM54.8583 25.7502C55.6255 13.0405 65.9834 3.02674 78.643 3.02674C91.3026 3.02674 101.66 13.0405 102.428 25.7502H54.8583ZM2.68536 25.7502C3.45261 13.0405 13.8104 3.02674 26.47 3.02674C39.1297 3.02674 49.4875 13.0405 50.2547 25.7502H2.68536ZM102.428 28.8313C102.044 36.149 98.2078 43.0815 92.0698 47.318L84.3973 28.8313H102.428ZM40.2805 47.318L32.6081 28.8313H50.6384C50.2548 36.149 46.4185 43.0815 40.2805 47.318ZM30.6899 67.7306C30.3063 66.19 30.6899 64.6494 32.2244 63.1088C33.3753 61.5683 34.9098 61.1831 36.4443 61.1831C38.3624 61.1831 41.0478 61.9534 43.7331 63.1088H44.1168C49.8712 65.4197 56.7764 65.4197 62.5308 63.1088H62.9144C67.9015 61.1831 71.7377 60.0277 74.4231 63.1088C75.574 64.2643 75.9576 65.8049 75.9576 67.7306C75.1904 70.8117 72.1213 73.8929 67.9015 75.8186C67.5179 75.8186 67.1342 76.2036 66.7506 76.2036C65.5997 73.8928 63.298 70.4265 58.6945 70.4265C56.7764 70.4265 55.6255 70.8117 54.091 71.582C52.9401 70.8117 49.4875 68.886 45.2677 71.582C42.5823 73.1226 41.4314 75.0482 41.0478 76.5888C40.2805 76.2037 39.5133 76.2037 38.746 75.8186C34.5261 73.8929 31.0736 70.8117 30.6899 67.7306ZM43.7331 77.3591C44.1168 76.2037 44.884 75.0483 46.8021 73.8929C49.1039 72.7374 50.6384 73.1226 51.7893 73.5077C50.6384 74.6631 49.8712 75.8186 49.8712 75.8186C49.4875 76.5889 49.8711 77.3591 50.6384 77.7443C51.4056 78.1294 52.1729 77.7442 52.5565 76.974C52.5565 76.974 54.4747 73.1225 58.6945 73.1225C61.7635 73.1225 63.298 75.4334 64.0652 76.974C57.5436 78.8997 50.2548 78.8997 43.7331 77.3591ZM38.746 193.287H27.2373V181.732H38.746V189.05V193.287ZM41.815 185.969V178.651H29.1554C15.7286 155.158 24.9355 132.434 34.9098 108.17C38.746 98.927 42.1987 89.6836 44.884 80.4402C47.953 81.2105 50.6384 81.5957 53.7074 81.5957C58.3109 81.5957 62.5307 80.8254 66.7506 79.2848C66.7506 79.2848 66.7506 79.2848 67.1342 79.2848C67.9015 78.8997 68.6687 78.8996 69.436 78.5145C74.8067 76.2036 78.2593 72.3522 79.0266 68.5008C79.4102 65.8048 78.6429 63.494 77.1084 61.5683C72.8886 56.5615 66.7506 59.2574 62.1471 60.798H61.7635C57.16 62.7237 52.1729 62.7237 47.1858 61.5683C47.1858 56.9466 46.4185 52.3249 45.2677 47.7032C48.7203 44.2369 51.4057 40.0004 52.9402 35.3787C56.0092 46.5478 66.7506 55.0208 79.0266 55.0208C84.3973 55.0208 89.3844 53.4803 93.9879 50.3992C100.893 45.7775 105.497 38.0747 105.88 29.6016H118.924V36.9193H131.583C145.01 60.0278 135.803 83.1362 125.829 107.4C116.238 130.894 106.648 154.773 119.691 179.036H118.54V186.354H41.815V185.969ZM133.118 193.287H121.609V181.732H133.118V193.287Z" fill="#3822E4"/>
</svg>
