<svg width="229" height="59" viewBox="0 0 229 59" fill="none" xmlns="http://www.w3.org/2000/svg">
<path d="M222.983 0H5.92571C1.90989 0 0.469727 1.42116 0.469727 5.35242V53.2935C0.469727 57.1325 1.95606 58.6182 5.79648 58.6182H223.02C227.018 58.6182 228.476 57.1878 228.476 53.2473C228.495 37.3193 228.476 21.4005 228.476 5.47239C228.486 1.39347 227.082 0 222.983 0ZM223.288 51.4294C223.288 52.9151 222.993 53.3858 221.386 53.3673C150.08 53.3212 78.7737 53.3212 7.45819 53.3581C6.15651 53.3581 5.67647 53.1274 5.67647 51.6693C5.75032 36.7471 5.75032 21.825 5.67647 6.88432C5.67647 5.39856 6.1842 5.22322 7.47665 5.22322C43.1575 5.25091 78.8383 5.24168 114.528 5.24168C150.043 5.24168 185.558 5.26937 221.054 5.19554C222.965 5.19554 223.307 5.75847 223.297 7.52107C223.214 22.1664 223.233 36.7933 223.288 51.4294Z" fill="#3822E4"/>
<path d="M48.8997 17.2941C48.8812 25.4704 48.872 33.6374 48.8997 41.8137C48.9182 42.7181 48.6597 43.0503 47.7273 43.0041C46.0102 42.9488 44.3115 42.9211 42.6129 43.0134C41.4497 43.0872 41.1081 42.7273 41.1266 41.5553C41.2004 36.9227 41.1542 32.2716 41.1542 27.6206V26.2363C41.0435 26.2548 40.9235 26.2548 40.8127 26.2548C39.4371 31.275 38.0154 36.2859 36.7138 41.3154C36.3907 42.6166 35.8367 43.0595 34.4612 43.0318C30.1961 42.9303 30.1961 42.9857 29.0606 38.8237C27.8882 34.5418 26.725 30.2599 25.2756 25.9687C25.2479 26.384 25.2017 26.79 25.2017 27.2053C25.2017 32.0225 25.174 36.8396 25.2479 41.6568C25.2663 42.7642 24.934 43.078 23.8631 43.0134C22.1645 42.9119 20.4474 42.9395 18.7487 43.0041C17.8717 43.0318 17.5024 42.838 17.5116 41.8598C17.5393 33.6836 17.5393 25.5165 17.5116 17.3402C17.5116 16.5281 17.7055 16.2051 18.5918 16.2236C21.7675 16.2697 24.9432 16.2974 28.119 16.2051C29.2637 16.159 29.2914 16.888 29.4668 17.6078C30.5469 22.0559 31.6086 26.5039 32.6887 30.9612C32.7995 31.4595 32.9564 31.9394 33.2242 32.9176C34.2766 28.6357 35.209 24.8428 36.1691 21.0408C36.5661 19.472 36.4276 17.3125 37.5723 16.4912C38.634 15.7253 40.6188 16.2513 42.2067 16.2328C44.0807 16.2144 45.964 16.279 47.8473 16.2051C48.6966 16.1682 48.9089 16.4728 48.8997 17.2941Z" fill="#3822E4"/>
<path d="M198.805 15.2083C190.358 15.0515 184.828 20.5608 184.671 29.2815C184.505 38.0392 189.703 43.6961 198.039 43.8346C206.301 43.9638 211.914 38.2699 212.09 29.5768C212.228 21.2437 206.781 15.3375 198.805 15.2083ZM202.719 34.4955C201.612 36.3227 200.024 37.2179 197.873 37.0148C195.731 36.8303 194.217 35.769 193.478 33.7572C192.454 31.0257 192.445 28.2295 193.497 25.4979C194.374 23.1724 196.165 21.9542 198.445 22.0004C200.799 22.0281 202.553 23.4031 203.393 25.8024C203.837 27.039 203.901 28.3125 203.901 29.6137C203.846 31.321 203.633 32.9913 202.719 34.4955Z" fill="#3822E4"/>
<path d="M177.618 33.2774C177.221 32.6129 177.12 32.3176 177.905 31.8008C181.579 29.4015 182.798 26.0055 181.607 21.9265C180.49 18.1245 178.034 16.3434 173.501 16.2696C169.033 16.1865 164.574 16.2511 160.106 16.1958C159.127 16.1773 158.804 16.4265 158.813 17.46C158.859 25.5071 158.841 33.5542 158.813 41.6105C158.795 42.6441 159.007 43.0686 160.161 43.0132C161.98 42.9117 163.808 42.9117 165.617 43.0132C166.79 43.0871 166.974 42.5887 166.937 41.5828C166.863 39.4696 166.863 37.347 166.956 35.2338C166.983 34.6801 166.365 33.6926 167.565 33.5634C168.488 33.4527 169.31 33.4342 169.845 34.597C170.99 37.0887 172.366 39.4972 173.63 41.9335C173.944 42.5241 174.193 43.0225 175.034 43.0132C177.674 42.9579 180.305 42.9855 183.268 42.9855C181.265 39.5526 179.465 36.3965 177.618 33.2774ZM174.083 25.6271C173.852 26.8452 173.132 27.6296 171.913 27.8511C171.332 27.9619 170.741 27.9895 170.159 28.0172C166.928 28.128 166.928 28.1187 166.928 24.8427C166.928 21.7235 166.928 21.7235 170.482 21.8343C173.215 21.9265 174.517 23.2831 174.083 25.6271Z" fill="#3822E4"/>
<path d="M128.718 40.7616C125.071 43.6777 120.917 44.0745 116.541 43.5577C112.922 43.1148 109.848 41.5183 107.337 38.8513C106.626 38.1038 106.598 37.6424 107.549 37.1625C108.131 36.8764 108.666 36.5073 109.183 36.1289C111.15 34.6986 112.784 33.2405 115.211 35.9905C116.818 37.8085 119.624 37.6793 122.061 36.9503C122.911 36.6919 123.723 36.2028 123.677 35.1231C123.631 34.1449 122.902 33.7204 122.043 33.5173C119.874 33.019 117.676 32.613 115.525 32.0685C110.476 30.7765 108.186 28.2849 108.149 24.1875C108.131 19.924 110.697 16.8602 115.618 15.7159C120.806 14.507 125.643 15.3468 129.881 18.789C130.785 19.5272 131.016 20.0809 129.908 20.9022C128.505 21.9543 127.241 23.1816 125.865 24.3721C124.48 22.6833 122.735 21.6682 120.603 21.3637C120.095 21.2898 119.541 21.2621 119.043 21.3637C117.824 21.6036 116.347 21.8435 116.319 23.3754C116.273 24.8796 117.75 25.0181 118.886 25.2488C121.314 25.7286 123.723 26.1808 126.087 26.9099C133.407 29.1339 132.54 37.6793 128.718 40.7616Z" fill="#3822E4"/>
<path d="M70.9544 17.0353C70.6682 16.2417 70.142 16.1955 69.4496 16.214C67.2247 16.2417 64.9814 16.3155 62.7566 16.1863C61.6211 16.1309 61.2425 16.6293 60.901 17.5613C59.7562 20.8743 58.5192 24.178 57.3098 27.4817C55.4542 32.585 53.5986 37.6975 51.6692 42.9853C53.9494 42.9853 56.0635 42.8284 58.1314 43.0315C59.987 43.216 60.8271 42.5331 61.021 40.789C61.1595 39.5431 61.7965 39.0356 63.1351 39.1556C64.7045 39.294 66.3108 39.3401 67.8802 39.1556C69.8097 38.9249 70.7974 39.5801 71.0559 41.518C71.139 42.2286 71.2221 43.0315 72.3576 43.0038C74.8779 42.9299 77.4074 42.9761 79.9 42.9761C79.9277 42.7731 79.9831 42.6531 79.9554 42.5516C76.9643 34.0431 73.9455 25.553 70.9544 17.0353ZM67.7971 33.2494H63.2458C64.169 30.121 64.9999 27.2695 65.9784 23.9565C66.9016 27.1126 67.6956 29.8534 68.4895 32.6035C68.6741 33.231 68.2218 33.2494 67.7971 33.2494Z" fill="#3822E4"/>
<path d="M99.6837 42.9854C94.6893 42.9854 89.6857 42.9116 84.7005 43.0315C83.1865 43.0592 82.8726 42.5794 82.9188 41.1582C83.0203 37.2915 82.9465 33.4064 82.9465 29.5398C82.9465 25.5439 82.9926 21.548 82.9188 17.5522C82.9003 16.4355 83.2419 16.1956 84.3036 16.2048C90.1196 16.2602 95.9448 16.2602 101.752 16.2048C102.887 16.2048 103.256 16.334 102.869 17.6075C102.583 18.5857 102.583 19.7762 102.869 20.7544C103.284 22.111 102.712 22.1294 101.696 22.111C98.6313 22.0648 95.5848 22.1294 92.5198 22.0648C91.4397 22.0464 90.9781 22.2586 91.0058 23.486C91.0612 26.0791 90.9874 26.0791 93.6184 26.0791C96.2587 26.0791 98.9082 26.1253 101.539 26.0515C102.647 26.0238 103.072 26.2452 103.072 27.4818C103.053 31.8468 103.118 31.8468 98.7236 31.8468C96.5541 31.8468 94.3754 31.893 92.206 31.8284C91.3012 31.8007 91.0151 32.0591 90.9874 32.9911C90.8304 37.1254 90.8027 37.1254 94.874 37.1254C97.5235 37.1254 100.164 37.1716 102.813 37.0977C103.838 37.0701 104.217 37.2823 104.235 38.4266C104.244 42.9854 104.29 42.9854 99.6837 42.9854Z" fill="#3822E4"/>
<path d="M155.222 22.4893C154.4 23.6336 152.065 22.84 150.384 22.8123C149.055 22.7846 148.723 23.1814 148.741 24.4826C148.824 30.1211 148.723 35.7596 148.815 41.3889C148.843 42.7454 148.446 43.1053 147.144 43.0038C145.575 42.8931 143.968 42.8931 142.399 43.0038C141.097 43.1053 140.71 42.7362 140.728 41.3704C140.811 35.7411 140.71 30.1026 140.802 24.4641C140.83 23.1168 140.451 22.7108 139.131 22.8307C137.857 22.9415 136.555 22.803 135.263 22.8769C134.367 22.923 133.989 22.6738 134.044 21.7141C134.146 19.9607 133.49 17.7644 134.34 16.5832C135.152 15.4388 137.497 16.2971 139.159 16.2325C141.042 16.1587 142.916 16.214 144.799 16.214C147.975 16.214 151.132 16.2417 154.308 16.1863C155.213 16.1679 155.582 16.3894 155.527 17.3491C155.425 19.1025 156.062 21.3173 155.222 22.4893Z" fill="#3822E4"/>
</svg>
