<svg width="139" height="108" viewBox="0 0 139 108" fill="none" xmlns="http://www.w3.org/2000/svg">
<path d="M15.6501 35.9444C15.3579 36.9672 15.0981 37.9413 14.8708 38.8829C14.5786 40.0681 14.3188 41.1396 14.0753 42.1137C13.8318 43.0553 13.6694 43.8184 13.572 44.3704C13.3772 45.3607 12.7278 45.9777 11.705 46.1725C10.8121 46.3511 9.87043 46.2699 8.88009 45.9614C7.90599 45.653 7.02929 45.101 6.26625 44.3379C5.45449 43.5262 5.04862 42.5196 5.04862 41.3344C5.04862 40.3603 5.29214 38.8342 5.79543 36.6587C6.28248 34.532 6.98059 31.9993 7.88975 29.1582C8.78268 26.3333 9.87042 23.2161 11.1043 19.8879C12.1758 17.0306 13.361 14.1732 14.6598 11.3321C15.0819 10.4067 15.9586 9.77352 16.9814 9.64364C19.2705 9.38388 21.2674 9.44882 22.9559 9.83846C23.9787 10.082 24.5144 11.186 24.0923 12.1276C23.0046 14.5629 21.998 16.9819 21.1051 19.336C20.3745 21.2517 19.6926 23.135 19.027 24.9695C18.962 25.1481 19.1406 25.3267 19.3192 25.2455C20.1959 24.8396 21.0564 24.3688 21.9006 23.8331C23.2806 22.9401 24.5469 21.8849 25.6509 20.6835C26.7549 19.4821 27.6478 18.1183 28.3297 16.6572C28.9953 15.196 29.3362 13.605 29.3362 11.9328C29.3362 9.78975 28.7355 8.19872 27.5666 7.22462C26.3815 6.23428 24.7093 5.73099 22.5987 5.73099C20.342 5.73099 18.2964 6.26675 16.4943 7.32203C14.6435 8.39354 13.0363 9.72481 11.7375 11.2671C10.4224 12.8095 9.38337 14.4654 8.6528 16.1864C7.88975 17.891 7.51634 19.3684 7.51634 20.6185C7.51634 21.5115 7.04553 22.1446 6.20131 22.4206C5.45449 22.6641 4.62651 22.6317 3.78229 22.307C2.97053 21.9985 2.20749 21.414 1.54185 20.5373C0.859979 19.6607 0.519043 18.4593 0.519043 16.9981C0.519043 15.7155 1.00609 14.2057 1.99643 12.3711C2.97053 10.5853 4.41545 8.86436 6.28248 7.22462C8.14951 5.58488 10.4874 4.17243 13.2635 3.00351C16.056 1.83458 19.2867 1.23389 22.8585 1.23389C24.8878 1.23389 26.9335 1.47741 28.9141 1.94823C30.911 2.41904 32.7294 3.14962 34.3042 4.09125C35.8952 5.04912 37.2102 6.26675 38.2006 7.6792C39.2071 9.12412 39.7104 10.8126 39.7104 12.7121C39.7104 14.7577 39.2558 16.6734 38.3792 18.3943C37.5025 20.1152 36.3011 21.6738 34.7912 23.0538C33.2976 24.4175 31.5442 25.6189 29.5473 26.6255C27.9076 27.4535 26.1542 28.1678 24.3521 28.736C24.2384 28.7685 24.1897 28.8335 24.206 28.9471C24.2384 29.8563 24.3034 30.733 24.4008 31.5934C24.4982 32.5837 24.6443 33.5416 24.8067 34.4508C24.969 35.3437 25.1638 36.2204 25.3911 37.0484C25.5697 37.6816 25.7645 38.3147 25.9594 38.8992C26.0892 39.2726 26.2353 39.646 26.3652 39.9869C26.6412 40.685 26.9659 41.3507 27.2906 41.9676C27.6153 42.5683 27.9725 43.1528 28.3459 43.6885C28.7031 44.208 29.0927 44.6951 29.4986 45.1334C29.8882 45.5555 30.3103 45.9614 30.7325 46.3186C31.1546 46.6595 31.5929 46.968 32.0475 47.244C32.4858 47.5038 32.9404 47.731 33.4112 47.9259C33.8658 48.1044 34.3529 48.2668 34.8399 48.3642C35.327 48.4779 35.814 48.5428 36.3173 48.5753C36.8206 48.6077 37.3401 48.5915 37.8596 48.559C38.3954 48.5103 38.9311 48.4291 39.4669 48.2993C40.0189 48.1694 40.5709 47.9908 41.1391 47.7797C41.7073 47.5687 42.2918 47.3089 42.86 47.0005C43.0711 46.8868 43.2984 46.7732 43.5094 46.6433C44.2238 46.2374 45.1329 46.4322 45.6037 47.0979C46.0746 47.7635 45.9772 48.6889 45.3602 49.2247C45.0518 49.4844 44.7595 49.7442 44.4511 50.0039C43.7205 50.6046 42.9899 51.1566 42.2756 51.6599C41.5937 52.1307 40.8956 52.5691 40.2137 52.9587C39.8728 53.1535 39.5156 53.3484 39.1422 53.527C38.4441 53.8841 37.7298 54.1926 37.0316 54.4523C36.3335 54.7121 35.6354 54.9232 34.9536 55.1017C34.2717 55.2641 33.5898 55.394 32.9079 55.4589C32.4371 55.5076 31.9501 55.5401 31.4793 55.5401C31.2844 55.5401 31.1059 55.5401 30.911 55.5239C30.2616 55.4914 29.6122 55.4265 28.9953 55.2966C28.6868 55.2316 28.3784 55.1667 28.0699 55.0693C27.7777 54.9881 27.4692 54.8907 27.177 54.777C26.5925 54.566 26.0243 54.3062 25.4723 53.9978C24.9365 53.7055 24.4008 53.3484 23.8975 52.975C23.4916 52.6665 23.0857 52.3256 22.7123 51.9684C22.2578 51.53 21.8032 51.0592 21.3811 50.5397C20.959 50.0364 20.5693 49.4844 20.1959 48.9162C19.8225 48.348 19.4653 47.731 19.1406 47.1141C18.8159 46.4809 18.5075 45.8153 18.2315 45.1334C17.9555 44.4516 17.6957 43.7372 17.4684 42.9904C17.2411 42.2598 17.0301 41.4806 16.8515 40.685C16.6729 39.8895 16.5106 39.0615 16.3807 38.2173C16.267 37.4705 16.1696 36.7074 16.0884 35.9282C16.056 35.7496 15.715 35.7171 15.6501 35.9444Z" fill="#ED0600"/>
<path d="M137.625 6.07191C137.625 9.43256 134.914 12.1438 131.553 12.1438C128.192 12.1438 125.481 9.43256 125.481 6.07191C125.481 2.71125 128.192 0 131.553 0C134.897 0 137.625 2.71125 137.625 6.07191Z" fill="#ED0600"/>
<path d="M136.261 30.5541C135.969 30.0995 135.401 29.7911 134.816 29.7911C134.264 29.7911 133.761 30.0508 133.453 30.5054C133.095 31.0249 132.641 31.6419 132.138 32.34C131.569 33.103 130.952 33.8498 130.319 34.5317C129.686 35.2136 129.069 35.798 128.485 36.2851C127.884 36.7884 127.494 36.8858 127.267 36.8858C127.105 36.8858 126.829 36.8858 126.764 36.1227C126.699 35.3272 126.813 34.2882 127.121 33.0218C127.429 31.7393 127.884 30.3106 128.452 28.7845C129.037 27.2259 129.621 25.7323 130.189 24.3686C130.79 22.9399 131.293 21.7547 131.748 20.7319C132.203 19.7253 132.479 19.0597 132.592 18.7675C132.949 17.9395 132.819 17.1115 132.203 16.3972C131.634 15.7315 130.888 15.2769 129.962 15.0172C129.053 14.7737 128.079 14.7574 127.056 14.9685C125.952 15.1958 125.092 15.8452 124.475 16.8517C123.923 17.7447 123.225 19.1409 122.364 21.0241C121.504 22.9074 120.676 24.9855 119.896 27.2097C119.426 28.5572 118.987 29.9372 118.598 31.3334C117.948 33.6388 116.601 35.6844 114.75 37.2105C114.084 37.7462 113.386 38.2658 112.656 38.7366C112.331 38.9476 112.006 39.1425 111.681 39.321C111.584 39.3697 111.47 39.2561 111.535 39.1587C112.104 38.4281 112.639 37.6164 113.191 36.7721C114.295 35.0188 115.302 32.9082 116.195 30.5216C117.136 27.989 117.721 25.6836 117.932 23.6542C118.159 21.6086 118.078 19.8228 117.705 18.3454C117.315 16.8193 116.633 15.6179 115.675 14.7899C114.685 13.9132 113.451 13.4749 112.039 13.4749C110.366 13.4749 108.808 13.9132 107.444 14.7899C106.519 15.3906 105.642 16.0562 104.863 16.7868C104.798 16.8517 104.749 16.8355 104.7 16.7706C104.522 16.4946 104.295 16.2348 104.002 15.9913C103.337 15.4393 102.541 15.0821 101.632 14.9035C100.723 14.725 99.7974 14.7899 98.8882 15.0821C97.9141 15.4068 97.1998 16.0562 96.7452 17.0303C95.8685 18.9136 94.9431 21.1216 94.0015 23.573C93.0599 26.0245 92.1345 28.5897 91.2578 31.1873C91.1604 31.4795 91.0629 31.7717 90.9655 32.0477C90.235 34.2719 88.8387 36.2201 86.988 37.6326C86.5009 38.006 85.9976 38.3632 85.4781 38.7041C85.1534 38.9152 84.8287 39.11 84.504 39.2886C84.4066 39.3373 84.2929 39.2236 84.3579 39.1262C84.9261 38.3956 85.4619 37.5839 86.0139 36.7397C87.1178 34.9863 88.1244 32.892 89.0173 30.4892C89.959 27.9565 90.5434 25.6511 90.7545 23.6218C90.9818 21.5761 90.9006 19.7903 90.5272 18.3129C90.1376 16.7868 89.4557 15.5854 88.4978 14.7574C87.5075 13.8807 86.2736 13.4424 84.8612 13.4424C83.1727 13.4424 81.6304 13.8807 80.2666 14.7574C79.3413 15.3581 78.4646 16.0238 77.6853 16.7543C77.6203 16.8193 77.5716 16.803 77.5229 16.7381C77.3443 16.4621 77.117 16.2023 76.8248 15.9588C76.1592 15.4068 75.3637 15.0497 74.4545 14.8711C73.5453 14.6925 72.6199 14.7574 71.7108 15.0497C70.7367 15.3744 70.0223 16.0238 69.5678 16.9979C68.6911 18.8811 67.7657 21.0891 66.824 23.5406C65.9311 25.846 65.0706 28.2325 64.2589 30.6515C63.642 32.4699 62.7166 33.9472 61.3366 35.2947C60.9794 35.6357 60.6385 35.9604 60.2975 36.2364C59.6969 36.7397 59.3072 36.8371 59.0799 36.8371C58.9176 36.8371 58.6416 36.8371 58.5766 36.074C58.5117 35.2785 58.6253 34.2395 58.9338 32.9894C59.2423 31.7068 59.6968 30.2781 60.2651 28.752C60.8495 27.2097 61.434 25.7161 62.0022 24.3361C62.5867 22.9399 63.1062 21.706 63.5608 20.6994C64.0154 19.6604 64.3076 19.0272 64.405 18.735C64.7622 17.907 64.6323 17.079 64.0154 16.3647C63.4471 15.6991 62.6841 15.2445 61.7262 14.9847C60.8008 14.7412 59.8105 14.725 58.8202 14.9522C57.7486 15.1958 56.8882 15.8289 56.2713 16.8355C56.1414 17.0303 56.0115 17.2576 55.8816 17.5011C55.8329 17.5823 55.703 17.5661 55.6868 17.4687C55.5732 16.9167 55.3783 16.3972 55.1186 15.9101C54.7289 15.1795 54.1607 14.5951 53.4139 14.1405C52.6508 13.6859 51.693 13.4586 50.5565 13.4586C47.8777 13.4586 45.1503 14.6925 42.4552 17.144C39.8252 19.5468 37.6334 23.3782 35.9612 28.5247C35.1819 31.0087 34.7111 33.3141 34.5975 35.3597C34.4676 37.4378 34.6462 39.2236 35.1008 40.6685C35.5716 42.1622 36.3184 43.3473 37.325 44.1753C38.364 45.0358 39.6141 45.4741 41.0266 45.4741C42.0818 45.4741 43.0722 45.2955 43.9976 44.9384C44.8905 44.5974 45.7347 44.1428 46.4653 43.6071C47.0335 43.2012 47.5693 42.7304 48.0563 42.2271C48.3973 41.8699 49.0142 42.0161 49.1441 42.4869C49.3064 43.0226 49.5175 43.5097 49.8097 43.9156C50.5078 44.9384 51.628 45.4579 53.1054 45.4579C54.7614 45.4579 56.4174 44.841 58.0571 43.6233C58.8202 43.0551 59.567 42.4382 60.2813 41.7725C60.4437 41.6264 60.7034 41.7888 60.6385 41.9998C60.2164 43.396 59.843 44.6948 59.502 45.9125C58.9338 47.9581 58.463 49.7277 58.1058 51.1564C57.635 53.0721 57.5863 53.5916 57.5863 53.8352C57.5863 55.0203 57.9597 56.0107 58.674 56.8224C59.3721 57.6017 60.1839 58.1537 61.0768 58.4622C61.6613 58.6732 62.2458 58.7706 62.7977 58.7706C63.1062 58.7706 63.3984 58.7381 63.6907 58.6732C64.3401 58.5271 65.1518 58.105 65.3953 56.8874V56.8711C65.4928 56.2217 65.6713 55.3613 65.9311 54.2897C66.2071 53.1695 66.5318 51.9032 66.9052 50.5232C67.2786 49.1432 67.7007 47.6009 68.2202 45.8313C68.4475 45.0033 68.7073 44.1428 68.9671 43.2499C69.0158 43.0713 69.2755 43.0389 69.3567 43.2012C69.4703 43.4123 69.6002 43.6071 69.7463 43.8019C70.5743 44.9059 71.8731 45.4579 73.6427 45.4579C73.9999 45.4741 74.3571 45.4741 74.698 45.4741C77.2794 45.4741 79.7147 45.0358 81.9226 44.1591C84.0332 43.3149 85.9651 42.3083 87.6861 41.1231C87.8484 41.0095 88.0757 41.1718 88.0108 41.3667C87.5237 42.9902 87.0691 44.5162 86.6795 45.9125C86.095 47.9743 85.6404 49.7439 85.2833 51.1564C84.8125 53.0884 84.7638 53.6079 84.7638 53.8352C84.7638 55.0041 85.1372 56.0107 85.8515 56.8224C86.5496 57.6017 87.3614 58.1537 88.2543 58.4622C88.8387 58.6732 89.4232 58.7706 89.9752 58.7706C90.2837 58.7706 90.5759 58.7381 90.8681 58.6732C91.5175 58.5271 92.3293 58.105 92.5728 56.8874V56.8711C92.6702 56.2217 92.8488 55.3613 93.1086 54.2897C93.3846 53.1695 93.7093 51.9032 94.0827 50.5232C94.4561 49.1432 94.8944 47.6009 95.3977 45.8313C95.625 45.0033 95.8848 44.1428 96.1445 43.2499C96.1932 43.0713 96.453 43.0389 96.5342 43.2012C96.6478 43.4123 96.7777 43.6071 96.9238 43.8019C97.7356 44.9059 99.0506 45.4579 100.82 45.4579C101.177 45.4741 101.535 45.4741 101.875 45.4741C104.457 45.4741 106.892 45.0358 109.1 44.1591C111.568 43.185 113.808 41.9511 115.74 40.49C116.065 40.2464 116.39 39.9867 116.698 39.7432C116.844 39.6295 117.055 39.7269 117.055 39.9217C117.055 40.0029 117.055 40.0841 117.055 40.1653C117.055 41.7076 117.38 42.9739 118.013 43.9156C118.711 44.9384 119.831 45.4579 121.309 45.4579C122.949 45.4579 124.637 44.841 126.293 43.6233C127.868 42.4706 129.361 41.1069 130.725 39.5646C132.073 38.0385 133.242 36.5286 134.232 35.0675C135.222 33.5901 135.904 32.5673 136.278 31.9666C136.537 31.5445 136.554 31.0087 136.261 30.5541ZM52.245 22.6477C52.1313 23.7354 51.904 24.9693 51.5631 26.333C51.2222 27.6805 50.7676 29.1092 50.1993 30.5704C49.6311 32.0315 49.0304 33.3952 48.3973 34.6291C47.7803 35.8467 47.1634 36.8858 46.5465 37.7138C45.9458 38.5255 45.3938 39.1262 44.8743 39.4996C44.5009 39.7756 44.2898 39.8081 44.2249 39.8081C44.1924 39.8081 44.1599 39.8081 44.1274 39.7919C44.0625 39.7594 43.819 39.597 43.7053 38.8665C43.5917 38.1846 43.5755 37.3079 43.6729 36.2688C43.7703 35.1973 43.9813 33.9797 44.3223 32.6322C44.647 31.2847 45.1178 29.856 45.686 28.3949C46.2705 26.9175 46.8712 25.5537 47.4881 24.3361C48.105 23.1185 48.722 22.0794 49.3389 21.219C49.9396 20.391 50.4916 19.7903 50.9949 19.4006C51.3683 19.1246 51.5793 19.0922 51.6605 19.0922C51.693 19.0922 51.7254 19.0922 51.7417 19.1084C51.8066 19.1409 52.0664 19.3032 52.2125 20.05C52.3586 20.7157 52.3748 21.5924 52.245 22.6477ZM81.6629 22.7126C81.468 23.7841 81.1758 25.018 80.7699 26.3655C80.3641 27.7292 79.8445 29.1579 79.2276 30.6028C78.562 32.064 77.8639 33.444 77.1658 34.6778C76.4839 35.8954 75.7858 36.9507 75.1364 37.7949C74.487 38.6229 73.9025 39.2399 73.3668 39.6133C72.9609 39.9055 72.7498 39.938 72.6686 39.938C72.6362 39.938 72.6037 39.938 72.5712 39.9217C72.5063 39.8893 72.279 39.7432 72.1816 39.0126C72.0842 38.3469 72.1329 37.4702 72.3277 36.3987C72.5225 35.311 72.8148 34.0609 73.2206 32.7134C73.6265 31.3659 74.146 29.9372 74.763 28.4598C75.3799 26.9986 76.0618 25.6349 76.7761 24.4173C77.4905 23.1834 78.1886 22.1444 78.838 21.3326C79.4874 20.5209 80.0718 19.9202 80.6076 19.5305C81.0135 19.2383 81.2245 19.2058 81.3057 19.2058C81.3382 19.2058 81.3706 19.2058 81.4031 19.2221C81.468 19.2545 81.6953 19.4006 81.7927 20.1312C81.8902 20.8131 81.8414 21.6735 81.6629 22.7126ZM108.857 22.7126C108.662 23.7841 108.37 25.018 107.964 26.3655C107.558 27.7292 107.038 29.1579 106.421 30.6028C105.756 32.064 105.058 33.444 104.359 34.6778C103.678 35.8954 102.979 36.9507 102.33 37.7949C101.681 38.6229 101.096 39.2399 100.56 39.6133C100.155 39.9055 99.9435 39.938 99.8623 39.938C99.8299 39.938 99.7974 39.938 99.7649 39.9217C99.7 39.8893 99.4727 39.7432 99.3753 39.0126C99.2779 38.3469 99.3266 37.4702 99.5214 36.3987C99.7162 35.311 100.008 34.0609 100.414 32.7134C100.82 31.3659 101.34 29.9372 101.957 28.4598C102.574 26.9986 103.255 25.6349 103.97 24.4173C104.684 23.1834 105.382 22.1444 106.032 21.3326C106.665 20.5209 107.266 19.9202 107.801 19.5468C108.207 19.2545 108.418 19.2221 108.499 19.2221C108.532 19.2221 108.564 19.2221 108.597 19.2383C108.662 19.2708 108.889 19.4169 108.986 20.1475C109.084 20.8131 109.035 21.6735 108.857 22.7126Z" fill="#ED0600"/>
<path d="M136.293 78.3828C129.036 84.7469 122.591 85.1365 114.847 79.438C111.291 76.8242 108.109 73.7071 104.537 71.1095C101.777 69.0963 98.8552 67.0994 95.7056 65.8493C90.2506 63.6901 84.7307 64.4206 79.7465 67.4566C76.3696 69.5184 73.285 72.0673 70.1516 74.5026C69.7133 74.8435 69.3886 75.0221 69.0476 75.0059C68.7067 75.0221 68.382 74.8273 67.9436 74.5026C64.8103 72.0673 61.7256 69.5022 58.3487 67.4566C53.3808 64.4369 47.8447 63.7063 42.3897 65.8493C39.2401 67.0994 36.3178 69.0963 33.5578 71.1095C29.9861 73.7071 26.8041 76.8242 23.2486 79.438C15.5207 85.1365 9.07539 84.7307 1.80209 78.3828C1.20139 77.8632 0.600696 77.3275 0 76.808C1.13645 82.7987 3.45806 88.1563 6.89989 93.0268C11.2996 99.2448 17.0468 103.693 24.2876 106.145C41.1883 111.859 62.5374 103.888 69.0801 88.8706C75.6066 103.888 96.9557 111.859 113.856 106.145C121.081 103.693 126.844 99.2448 131.244 93.0268C134.686 88.1563 137.024 82.7987 138.095 76.808C137.495 77.3275 136.894 77.8632 136.293 78.3828Z" fill="#ED0600"/>
</svg>
