<svg width="152" height="173" viewBox="0 0 152 173" fill="none" xmlns="http://www.w3.org/2000/svg">
<path d="M42.1371 79.1563L14.0481 102.614L14.651 87.9505L5.70892 76.6758L42.1371 79.1563Z" fill="white"/>
<path d="M49.2278 155.387L38.5135 156.339L39.7734 170.52L53.954 169.26L53.4221 163.273L116.447 157.673L116.979 163.661L131.16 162.401L129.9 148.22L128.639 148.332C137.618 127.842 127.976 108.689 118.39 90.1667C114.566 82.8837 111.058 75.5726 108.524 68.4927C109.756 68.0656 110.674 67.6665 111.878 66.9243C116.122 64.6416 118.678 61.2383 119.028 58.0311C119.147 55.7972 118.349 53.9625 116.634 52.5269C112.831 49.0533 108.244 51.0489 104.918 52.9325C104.638 49.7812 104.701 46.9171 105.367 43.6819C105.71 43.969 106.053 44.2562 106.368 44.2282C110.373 46.4132 114.582 47.3097 118.994 46.9177C131.284 45.8258 140.472 34.8459 139.38 22.556C138.456 12.1569 130.424 3.97735 120.116 2.35227C107.889 0.580061 97.5319 9.12301 95.3326 20.1172C92.4547 12.7502 85.9074 6.97965 77.5742 6.13196C63.4287 4.21261 51.4605 16.0748 52.3213 29.338L41.9222 30.2619L41.3902 24.2746L27.2096 25.5345L28.4695 39.7151L29.4149 39.6311C20.4365 60.1208 30.0785 79.2737 39.6644 97.7964C49.3344 117.264 58.5773 135.5 49.2278 155.387ZM39.646 36.8164L30.1922 37.6564L29.3523 28.2026L38.8061 27.3627L39.646 36.8164ZM54.4992 28.8269C54.2055 18.3718 61.9859 9.42261 72.3851 8.49869C82.7842 7.57477 92.0205 15.0121 93.5747 25.3552L54.4992 28.8269ZM97.3561 25.0192C97.0625 14.5641 104.843 5.61492 115.242 4.691C125.641 3.76708 134.877 11.2044 136.432 21.5475L97.3561 25.0192ZM69.8492 30.004L64.8906 45.69C59.5406 42.6716 55.8853 37.2793 55.0383 31.3199L69.8492 30.004ZM97.5801 27.5402L112.391 26.2243L107.432 41.9103C102.054 38.5767 98.4272 33.4996 97.5801 27.5402ZM110.737 64.8024C110.134 65.1735 109.504 65.2295 108.902 65.6006C108.475 64.3681 107.362 62.5614 105.072 61.812C101.437 60.2293 98.398 61.7697 97.8238 62.456C96.8224 61.9097 95.5339 61.7065 93.9583 61.8465C90.1768 62.1825 88.2509 65.5297 87.7606 67.1613C87.4455 67.1893 87.1023 66.9022 86.7872 66.9302C83.1809 65.6625 80.4359 63.3656 79.5817 60.9006C79.1546 59.6681 79.3577 58.3796 80.5062 57.0071C82.4881 54.2901 85.7233 54.9555 89.9599 56.1671L90.2751 56.1391C95.1699 57.6099 100.842 57.106 105.401 54.7953L105.716 54.7673C107.838 53.6259 109.673 52.8277 111.564 52.6597C112.824 52.5477 114.113 52.7508 115.17 53.9273C116.199 54.7887 116.942 55.9932 116.766 57.5969C116.388 60.489 114.091 63.2339 110.737 64.8024ZM90.0505 67.9108C90.5687 66.5943 91.6613 64.5916 94.1823 64.3676C97.3335 64.0876 99.5042 67.0709 99.5042 67.0709C99.8753 67.6731 100.534 67.9322 101.136 67.5611C101.738 67.1899 101.997 66.5317 101.626 65.9294C101.626 65.9294 100.912 65.04 99.8825 64.1787C100.8 63.7795 102.347 63.3245 104.007 64.1298C105.667 64.9352 106.381 65.8246 106.78 66.742C101.535 68.4784 95.5476 69.0105 90.0505 67.9108ZM118.968 157.449L118.436 151.462L127.89 150.622L128.73 160.076L119.276 160.915L118.968 157.449ZM53.2261 161.067L52.6941 155.079L51.7488 155.163C60.7271 134.674 51.0852 115.521 41.4992 96.9981C31.5421 77.8732 22.2992 59.6376 31.6488 39.7502L42.0479 38.8263L41.5159 32.8389L52.2302 31.887C53.4764 38.7638 57.4747 44.4432 63.5109 48.0359C67.5164 50.2209 71.725 51.1174 76.1367 50.7254C86.2207 49.8295 94.1132 42.1408 96.1374 32.7502C97.7338 36.4197 99.9326 39.7181 103.336 42.2743C102.726 46.1397 102.432 49.9773 102.768 53.7588C99.0986 55.3552 94.6588 55.432 90.7373 54.1924L90.4222 54.2204C86.8438 53.2679 81.6059 51.51 78.1883 55.9426C76.7527 57.6582 76.3184 59.92 77.1167 61.7548C78.0269 64.85 81.4581 67.7213 85.7227 69.2481C86.381 69.5072 87.0392 69.7664 87.6695 69.7104C87.6695 69.7104 87.6695 69.7104 87.9846 69.6824C91.563 70.6349 95.0853 70.9571 98.8668 70.6212C101.388 70.3972 103.881 69.8581 106.031 69.0319C108.593 76.4269 112.417 83.7099 116.24 90.993C126.197 110.118 135.44 128.353 126.09 148.241L115.691 149.165L116.223 155.152L53.1981 160.752L53.2261 161.067ZM40.9434 158.664L50.3971 157.824L51.237 167.278L41.7833 168.118L40.9434 158.664Z" fill="white"/>
</svg>
