<svg width="112" height="123" viewBox="0 0 112 123" fill="none" xmlns="http://www.w3.org/2000/svg">
<path d="M14.456 91.4681L9.52618 93.323L8.44604 91.6342L13.4589 86.937L14.3452 88.3213L10.6617 91.542L15.2868 89.7886L16.3393 91.4312L12.8127 94.9011L17.2809 92.8985L18.1671 94.2828L11.8064 96.8667L10.7171 95.1687L14.456 91.4681Z" fill="#3822E4"/>
<path d="M22.0443 98.574L18.2962 104.508L17.17 103.262L18.0008 102.016L16.7638 100.641L15.4436 101.352L14.3081 100.097L20.5857 96.9683L22.0443 98.574ZM17.8531 100.06L18.684 100.983L20.1057 98.8601L17.8531 100.06Z" fill="#3822E4"/>
<path d="M22.4968 108.282L21.3059 107.258L24.9063 103.068L23.5769 101.933L24.3616 101.02L28.2112 104.332L27.4265 105.246L26.0972 104.102L22.4968 108.282Z" fill="#3822E4"/>
<path d="M34.0089 108.273L33.3442 109.288L30.7963 107.617L29.9839 108.863L32.1349 110.275L31.4702 111.29L29.3192 109.878L28.4329 111.235L30.9901 112.905L30.3347 113.92L26.4666 111.383L30.15 105.744L34.0089 108.273Z" fill="#3822E4"/>
<path d="M34.849 116.311L33.4272 115.637L36.3076 109.556L38.5509 110.617C39.6587 111.143 40.8035 112.001 40.0372 113.616L39.9634 113.773C39.5018 114.751 38.8002 115.019 38.0801 114.954L38.0432 117.824L36.5107 117.095L36.603 114.465L35.8737 114.124L34.849 116.311ZM37.2862 113.459C37.6739 113.644 38.2278 113.736 38.5509 113.053L38.5879 112.97C38.911 112.287 38.4863 111.918 38.0986 111.734L37.2123 111.318L36.3999 113.035L37.2862 113.459Z" fill="#3822E4"/>
<path d="M46.2501 120.565L44.7361 120.15L46.5363 113.662L48.0503 114.077L46.2501 120.565Z" fill="#3822E4"/>
<path d="M50.2385 116.698L50.2569 116.606C50.4508 115.406 51.5032 114.779 53.2019 115.056C55.039 115.351 55.7314 116.2 55.4821 117.759L55.4544 117.935L53.9035 117.686C54.042 116.818 53.8112 116.366 53.0265 116.246L52.9434 116.228C52.3156 116.126 51.9094 116.375 51.8355 116.8L51.8263 116.846C51.7525 117.335 51.9279 117.621 52.9988 117.926C54.5959 118.387 55.3344 119.014 55.1406 120.242L55.1313 120.325C54.9282 121.598 53.8573 122.189 52.1033 121.912C50.34 121.626 49.5184 120.786 49.7769 119.181L49.7861 119.107L51.337 119.356C51.1986 120.186 51.5309 120.602 52.251 120.713L52.3341 120.731C53.0542 120.851 53.4604 120.565 53.5342 120.122L53.5434 120.076C53.6173 119.596 53.3865 119.291 52.3248 118.987C50.737 118.525 50.0538 117.898 50.2385 116.698Z" fill="#3822E4"/>
<path d="M61.9165 122.613L61.7134 115.886L63.2828 115.84L63.449 121.358L66.2369 121.266L66.2739 122.475L61.9165 122.613Z" fill="#3822E4"/>
<path d="M70.8254 121.959L69.2652 122.162L68.3882 115.48L69.9484 115.277L70.8254 121.959Z" fill="#3822E4"/>
<path d="M77.0658 113.792L77.3427 114.973L74.407 115.674L74.7486 117.123L77.2043 116.542L77.4812 117.723L75.0256 118.304L75.681 121.063L74.1485 121.423L72.5884 114.871L77.0658 113.792Z" fill="#3822E4"/>
<path d="M83.7035 111.438L84.1374 112.564L81.2848 113.653L81.811 115.037L84.2113 114.123L84.6452 115.249L82.2449 116.163L82.8173 117.676L85.6699 116.587L86.1038 117.713L81.7833 119.356L79.3831 113.071L83.7035 111.438Z" fill="#3822E4"/>
<path d="M14.1604 35.2495L13.6896 36.1446L8.4275 33.3669L7.55047 35.0095L6.84888 34.6404L9.06449 30.46L9.76611 30.8291L8.88908 32.4717L14.1604 35.2495Z" fill="#3822E4"/>
<path d="M16.9393 30.6629L16.3854 31.5027L10.7632 27.7836L11.3171 26.9438L16.9393 30.6629Z" fill="#3822E4"/>
<path d="M21.0935 25.2825L20.4565 26.0208L15.296 24.0828L16.413 24.9964L19.2379 27.4327L18.5825 28.1986L13.4773 23.7967L14.4282 22.6893L19.5887 24.6457L16.9023 19.8193L17.8531 18.7119L22.9583 23.1138L22.3029 23.8798L19.4779 21.4435L18.4071 20.4745L21.0935 25.2825Z" fill="#3822E4"/>
<path d="M23.9646 13.2305L24.4816 13.8303L21.9336 16.0174L23.3092 17.6139L25.4879 15.7406L26.0048 16.3404L23.8261 18.2137L25.2848 19.9117L27.8327 17.7246L28.3497 18.3245L25.0355 21.1668L20.6504 16.0636L23.9646 13.2305Z" fill="#3822E4"/>
<path d="M34.4058 14.2642L33.538 14.781L30.0576 9.00409L30.9162 8.4873L34.4058 14.2642Z" fill="#3822E4"/>
<path d="M34.738 8.45946L34.7011 8.37639C34.2118 7.33359 34.7749 6.28159 36.1689 5.62638C37.7383 4.89735 38.7354 5.26649 39.3539 6.58613L39.437 6.77068L38.5231 7.19517C38.043 6.16161 37.4522 5.89399 36.5105 6.33695L36.4459 6.36463C35.6981 6.71531 35.3473 7.31515 35.6058 7.86884L35.6335 7.93345C35.9012 8.5056 36.3721 8.69015 37.5999 8.29333C39.1785 7.77655 40.0832 7.97959 40.554 8.97624L40.591 9.0593C41.1079 10.1667 40.5448 11.2279 39.0954 11.9016C37.5722 12.6122 36.4367 12.2799 35.8182 10.9418L35.7812 10.8588L36.6952 10.4343C37.1475 11.4033 37.9045 11.5786 38.7262 11.191L38.8 11.1541C39.6309 10.7665 39.9632 10.139 39.677 9.52071L39.6493 9.4561C39.3632 8.83781 38.8092 8.7086 37.6183 9.09619C36.0305 9.64066 35.1534 9.36383 34.738 8.45946Z" fill="#3822E4"/>
<path d="M51.0045 7.86906L50.0444 8.07208L47.1087 3.42102L47.4503 4.82374L48.2258 8.46889L47.238 8.68115L45.8347 2.10138L47.2657 1.79686L50.2014 6.45713L50.9768 0.993974L52.4078 0.689453L53.811 7.26923L52.8232 7.48146L52.0477 3.8363L51.7892 2.42438L51.0045 7.86906Z" fill="#3822E4"/>
<path d="M56.2759 3.7807L56.2574 3.43925C56.1374 1.10448 56.9683 0.0985938 58.7962 0.00631035C60.6056 -0.0859731 61.538 0.827617 61.658 3.16239L61.6765 3.50383C61.7965 5.8386 60.9657 6.84449 59.1562 6.93678C57.3191 7.03829 56.3867 6.11547 56.2759 3.7807ZM59.1285 6.14315C60.2917 6.07855 60.7164 5.26644 60.6333 3.5592L60.6148 3.21776C60.5317 1.51051 60.024 0.735336 58.8608 0.799934L58.7962 0.809172C57.633 0.864542 57.2083 1.68585 57.2914 3.3931L57.3099 3.73454C57.393 5.44178 57.9007 6.21699 59.0639 6.15239L59.1285 6.14315Z" fill="#3822E4"/>
<path d="M69.662 7.24106L68.5911 7.13953L65.9231 1.71329L65.8215 3.2083L65.4799 6.85346L64.5291 6.76117L65.1661 0.0429688L66.2369 0.144495L68.905 5.57074L69.0065 4.07576L69.3481 0.43057L70.299 0.522858L69.662 7.24106Z" fill="#3822E4"/>
<path d="M78.2844 2.17487L78.0997 2.95008L74.8317 2.18411L74.3516 4.2328L77.1488 4.88801L76.9642 5.66321L74.167 5.00798L73.65 7.19509L76.9181 7.96106L76.7426 8.73624L72.4868 7.73959L74.0285 1.17822L78.2844 2.17487Z" fill="#3822E4"/>
<path d="M81.7832 10.4898L80.8416 10.1299L81.5709 8.21962L81.1647 3.05176L82.1894 3.43936L82.4387 7.35216L85.2359 4.5929L86.2606 4.98047L82.5125 8.5703L81.7832 10.4898Z" fill="#3822E4"/>
<path d="M44.3392 43.0008C45.8348 42.6316 47.3303 42.2625 48.8167 41.8934C48.9367 41.8657 48.9921 41.8011 48.9921 41.718C48.9921 40.4537 48.9921 39.1895 48.9921 37.9252C48.9921 37.5468 48.9367 37.1316 48.8167 36.6978C47.6535 35.046 46.1856 34.5938 44.4316 35.2121C43.0006 35.7104 41.579 36.2087 40.148 36.7071C39.9911 36.7624 39.7233 36.9009 39.3448 37.1223C36.963 38.765 35.7629 40.26 35.7629 41.7273C35.7629 43.13 35.7629 44.5327 35.7629 45.9354C35.7629 46.2768 35.8829 46.6275 36.1137 46.9966C36.9169 47.6334 39.2064 49.0914 43.0007 52.1552C43.5361 52.3952 43.8038 53.9825 43.8038 56.9078C43.8038 56.954 43.8038 57.0093 43.8038 57.0555C43.8038 57.5446 43.3884 57.8122 42.5575 57.8584C42.4375 57.8676 42.3267 57.8676 42.2067 57.8768C41.1912 57.9322 40.6742 57.7015 40.6742 57.1847C40.6742 55.8281 40.6742 54.4716 40.6742 53.115C40.6742 53.0504 40.6188 53.0135 40.4988 53.0135C38.9848 53.1981 37.4616 53.3826 35.9383 53.5672C35.8368 53.5764 35.7814 53.6226 35.7629 53.6964C35.7629 54.9607 35.7629 56.2249 35.7629 57.4892C35.7629 57.8491 35.8183 58.1906 35.9383 58.5043C37.0092 60.2116 38.5878 61.1252 40.6742 61.1067C41.8097 61.0975 42.9452 61.079 44.0808 61.0698C44.8008 61.0606 45.484 60.9222 46.1302 60.6453C48.032 59.6302 48.9828 58.329 48.9828 56.8525C48.9828 55.2283 48.9828 53.5949 48.9828 51.9707C48.9828 50.9279 48.6228 50.0051 47.9027 49.2483C46.7395 48.344 45.5763 47.4857 44.4223 46.6736C41.9205 45.2801 40.665 44.4404 40.665 43.8867C40.665 42.7424 40.665 41.5981 40.665 40.4538C40.665 40.0477 41.025 39.6786 41.7451 39.3556C42.1975 39.2172 42.6406 39.0787 43.0929 38.9403C43.7946 38.7281 44.1454 39.0972 44.1454 40.0569C44.1454 41.0167 44.1454 41.9672 44.1454 42.9177C44.1638 43.0008 44.2192 43.0285 44.3392 43.0008Z" fill="#3822E4"/>
<path d="M93.8586 23.2986C93.7201 19.6627 93.5447 17.9001 93.3139 17.9739C90.5721 18.9429 87.821 19.9026 85.0791 20.8623C85.0145 20.9269 84.9407 20.9823 84.876 21.0469C83.5559 38.4146 82.5773 51.3896 81.9219 60.6087C81.9219 60.7563 81.9772 60.821 82.0973 60.821C83.6297 60.8117 85.153 60.7933 86.6762 60.784C86.7316 60.7471 86.7963 60.7102 86.8516 60.6733C87.0363 56.3544 87.1286 53.8351 87.1286 53.143C88.5041 53.0415 89.8797 52.94 91.2552 52.8385C91.2552 53.6782 91.3475 56.2253 91.5321 60.5072C91.5321 60.6641 91.5968 60.7379 91.7076 60.7379C93.2308 60.7287 94.7633 60.7102 96.2865 60.701C96.3419 60.6641 96.4066 60.6179 96.4619 60.581C94.791 35.2677 93.9324 23.3355 93.8586 23.2986ZM89.1134 24.932C89.1134 24.8951 89.1134 24.8582 89.1134 24.8213C89.1688 24.8028 89.2242 24.7844 89.2888 24.7659C89.7596 32.3701 90.2397 40.0665 90.7105 47.8552C89.7043 47.9659 88.6888 48.0859 87.6825 48.2058C88.1533 40.5371 88.6334 32.7761 89.1134 24.932Z" fill="#3822E4"/>
<path d="M111.463 11.7632C109.959 12.2892 108.463 12.8152 106.958 13.3412C106.875 13.3504 105.841 18.3707 103.856 27.8112C103.801 27.8297 103.746 27.8389 103.681 27.8574C101.715 19.4688 100.681 15.5653 100.579 15.5837C99.056 16.119 97.5327 16.6542 96.0002 17.1802C99.4345 30.8289 101.253 38.5068 101.456 38.4053C101.456 45.6957 101.456 52.9861 101.456 60.2764C101.456 60.4425 101.521 60.5256 101.641 60.5256C103.099 60.5071 104.558 60.4979 106.017 60.4794C106.127 60.4794 106.192 60.3872 106.192 60.2211C106.192 52.6723 106.192 45.1235 106.192 37.5748C106.303 37.2056 108.131 29.2231 111.648 11.8462C111.574 11.8186 111.519 11.7909 111.463 11.7632Z" fill="#3822E4"/>
<path d="M56.7837 83.9285C57.5223 76.2136 58.1593 69.1447 58.6855 62.8787C58.6855 62.7772 58.6301 62.7218 58.5378 62.7034C57.0976 62.6941 55.6667 62.6757 54.2266 62.6572C54.1065 62.9433 53.4788 69.4862 52.3248 81.5383C52.2879 81.5291 52.2602 81.5199 52.2232 81.5107C52.0755 78.9729 51.6047 73.9804 50.82 66.8284C50.6354 64.0138 50.4692 62.6111 50.3215 62.6111C48.2536 62.5926 46.1949 62.5742 44.1362 62.5557C44.0347 62.528 43.3977 68.3511 42.2252 79.2405C42.1976 79.2313 42.1606 79.222 42.1237 79.2128C41.5513 73.5651 40.9697 68.0465 40.3973 62.6572C40.3973 62.5742 40.342 62.528 40.2219 62.5188C38.7818 62.5096 37.3509 62.4911 35.9199 62.4727C35.8738 62.4911 35.8184 62.5188 35.7722 62.5372C37.1478 74.2111 37.8586 80.6063 37.9232 80.6617C38.2556 84.4084 38.4956 86.3463 38.6525 86.4017C41.0343 87.2322 43.4161 88.0628 45.7887 88.8933C45.8995 88.921 46.3703 83.7439 47.1919 72.873C47.2196 72.8822 47.2381 72.8822 47.2658 72.8822C47.8197 80.7724 48.1243 84.8974 48.189 84.999C48.4105 88.2196 48.5952 89.8807 48.7613 89.9361C51.1062 90.7574 53.4511 91.5788 55.7959 92.4001C55.8421 92.3909 55.8975 92.3816 55.9436 92.3724C56.2483 89.4839 56.516 86.6693 56.7837 83.9285ZM37.8217 78.3915V78.4007C37.8217 78.4007 37.8217 78.4007 37.8217 78.3915C37.8217 78.4007 37.8217 78.4007 37.8217 78.3915Z" fill="#3822E4"/>
<path d="M71.056 67.2256C70.9176 64.2079 70.7422 62.713 70.5021 62.7037C67.7603 62.6853 65.0092 62.6576 62.2674 62.6299C62.2028 62.6576 62.1289 62.6853 62.0643 62.7222C60.7441 76.297 59.7656 86.3466 59.1101 93.4801C59.1101 93.6001 59.1655 93.6739 59.2855 93.7108C60.8088 94.246 62.3412 94.7813 63.8645 95.3165C63.9199 95.3073 63.9845 95.2981 64.0399 95.2889C64.2245 91.8744 64.3169 89.8626 64.3169 89.3089C65.6924 89.7057 67.0679 90.0933 68.4435 90.4901C68.4435 91.173 68.5358 93.2771 68.7204 96.8392C68.7204 96.9684 68.7758 97.0515 68.8958 97.0976C70.4283 97.6328 71.9515 98.1681 73.4748 98.7033C73.5394 98.6941 73.5948 98.6756 73.6502 98.6664C71.9885 77.266 71.1207 67.281 71.056 67.2256ZM66.2924 67.1149C66.2924 67.0872 66.2924 67.0502 66.2924 67.0226C66.3478 67.0226 66.4032 67.0318 66.4678 67.0318C66.9479 73.344 67.4187 79.7484 67.8988 86.2543C66.8833 86.0052 65.877 85.756 64.8708 85.5068C65.3416 79.4715 65.8216 73.3347 66.2924 67.1149Z" fill="#3822E4"/>
<path d="M84.5437 74.82C86.0393 74.9861 87.5256 75.1522 89.0303 75.3183C89.1411 75.3275 89.2057 75.263 89.2057 75.1338C89.2057 73.242 89.2057 71.3502 89.2057 69.4491C89.2057 68.877 89.1504 68.231 89.0303 67.5204C87.8579 64.4474 86.3993 62.9616 84.6453 62.9524C83.2143 62.9432 81.7926 62.9247 80.3617 62.9062C80.214 62.9062 79.9463 62.9801 79.5585 63.1093C77.1767 64.3551 75.9858 66.09 75.9858 68.434C75.9858 70.6765 75.9858 72.9097 75.9858 75.1522C75.9858 75.6967 76.0966 76.315 76.3367 77.0163C77.1306 78.4098 79.4293 81.8981 83.2143 88.238C83.7498 88.8286 84.0175 91.3756 84.0175 95.8605C84.0175 95.9344 84.0175 96.0082 84.0175 96.082C84.0175 96.8295 83.6021 97.0787 82.7712 96.8203C82.6512 96.7834 82.5404 96.7464 82.4204 96.7095C81.4049 96.3958 80.8972 95.8421 80.8972 95.0392C80.8972 92.9352 80.8972 90.8219 80.8972 88.7086C80.8972 88.5979 80.8418 88.524 80.7217 88.4779C79.2077 88.118 77.6845 87.7581 76.1705 87.3982C76.0689 87.3705 76.0135 87.4258 75.9951 87.5366C75.9951 89.5576 75.9951 91.5694 75.9951 93.5904C75.9951 94.1718 76.0505 94.7347 76.1705 95.2792C77.2321 98.4168 78.8108 100.419 80.8972 101.158C82.0327 101.554 83.1682 101.951 84.3037 102.348C85.0238 102.597 85.6977 102.634 86.3531 102.45C88.2549 101.61 89.2057 100.032 89.2057 97.8077C89.2057 95.3714 89.2057 92.9259 89.2057 90.4897C89.2057 88.9208 88.8457 87.389 88.1256 85.9401C86.9624 84.0668 85.8085 82.2396 84.6453 80.4585C82.1434 77.1548 80.8879 75.2168 80.8879 74.3586C80.8879 72.5775 80.8879 70.7965 80.8879 69.0154C80.8879 68.3786 81.248 67.991 81.968 67.8711C82.4204 67.8987 82.8635 67.9172 83.3159 67.9449C84.0175 67.9818 84.3683 68.7293 84.3683 70.2058C84.3683 71.6639 84.3683 73.122 84.3683 74.5801C84.3683 74.7369 84.4237 74.8107 84.5437 74.82Z" fill="#3822E4"/>
<path d="M105.989 63.2662C104.383 63.2478 102.767 63.2293 101.161 63.2109C101.059 63.2109 101.004 63.2939 100.985 63.46C100.985 69.1724 100.985 74.8754 100.985 80.5878C99.5361 80.3847 98.0775 80.1725 96.6373 79.9695C96.6373 74.451 96.6373 68.9232 96.6373 63.4047C96.6373 63.2662 96.5819 63.1832 96.4619 63.1555C94.8925 63.137 93.3139 63.1186 91.7352 63.1094C91.6337 63.1094 91.5783 63.1832 91.5598 63.3401C91.5598 77.0903 91.5598 90.8312 91.5598 104.581C91.5598 104.738 91.6152 104.84 91.7352 104.877C93.3139 105.43 94.8925 105.975 96.4619 106.529C96.5819 106.565 96.6373 106.51 96.6373 106.344C96.6373 99.2474 96.6373 92.1509 96.6373 85.0543C98.0867 85.3127 99.5361 85.5803 100.985 85.8479C100.985 93.1844 100.985 100.521 100.985 107.857C100.985 108.024 101.041 108.125 101.161 108.171C102.776 108.734 104.383 109.297 105.989 109.86C106.109 109.906 106.165 109.832 106.165 109.657C106.165 94.2826 106.165 78.899 106.165 63.5246C106.165 63.377 106.1 63.2939 105.989 63.2662Z" fill="#3822E4"/>
<path d="M64.7506 32.6747C64.7506 29.2694 62.3134 28.8726 60.1901 29.6293C57.2083 30.6721 54.2264 31.7149 51.2538 32.7577C51.1522 32.7947 51.0968 32.8685 51.0784 32.9792C51.0784 42.2998 51.0784 51.6112 51.0784 60.9318C51.0784 61.0333 51.1338 61.0887 51.2538 61.0887C52.777 61.0702 54.291 61.061 55.8143 61.0518C55.925 61.0518 55.9897 60.9964 55.9897 60.8857C55.9897 59.0308 55.9897 57.1666 55.9897 55.3025C59.4977 53.6783 62.3504 51.7404 62.3504 51.7404C64.3537 50.3469 64.8614 49.1103 64.8614 46.0004C64.8614 42.1799 64.8614 38.3593 64.8614 34.5388C64.8522 34.0497 64.8153 33.4314 64.7506 32.6747ZM55.9897 35.1756C56.8574 34.9079 57.7252 34.6496 58.593 34.3819C59.4793 34.2251 59.9224 34.5388 59.9224 35.3232C59.9224 39.4206 59.9224 43.5272 59.9224 47.6245C59.9224 48.5381 58.6115 49.6271 55.9897 50.7714C55.9897 45.5759 55.9897 40.3803 55.9897 35.1756Z" fill="#3822E4"/>
<path d="M77.7122 43.7393C78.0261 43.4902 78.2015 43.3425 78.2015 43.3425C80.2048 41.626 80.7033 40.168 80.7033 36.5505C80.7033 34.3726 80.7033 32.1947 80.7033 30.0168C80.7033 29.4631 80.6664 28.7433 80.6018 27.8574C80.6018 23.8985 78.1646 23.2894 76.0505 24.0461C73.0686 25.0889 70.096 26.1409 67.1141 27.1837C67.0126 27.2207 66.9572 27.2945 66.9387 27.4329C66.9387 38.5346 66.9387 49.6362 66.9387 60.7379C66.9387 60.8671 66.9941 60.9224 67.1141 60.9224C68.6281 60.9132 70.1514 60.8948 71.6654 60.8855C71.7854 60.8855 71.8408 60.8209 71.8408 60.6825C71.8408 56.4006 71.8408 52.1094 71.8408 47.8275C72.3485 47.5229 72.8378 47.2184 73.3086 46.9139C74.2595 51.3804 75.2104 55.9668 76.1521 60.6733C76.1798 60.8117 76.2536 60.8763 76.3736 60.8763C77.8969 60.8671 79.4109 60.8486 80.9249 60.8394C81.0449 60.8394 81.0818 60.7656 81.0633 60.6271C79.9463 54.8225 78.8292 49.1933 77.7122 43.7393ZM71.8408 30.3398C72.7086 30.0722 73.5764 29.8138 74.4442 29.5462C75.3304 29.4078 75.7735 29.8046 75.7735 30.7274C75.7735 33.3667 75.7735 36.0152 75.7735 38.6545C75.7735 39.725 74.4626 41.0447 71.8408 42.5027C71.8408 38.4423 71.8408 34.3911 71.8408 30.3398Z" fill="#3822E4"/>
<path d="M0.478967 53.6598C10.9109 50.0699 21.352 46.4801 31.7839 42.8996C33.0209 42.475 32.4947 40.5002 31.2392 40.9339C20.9827 44.4591 10.7262 47.9844 0.469727 51.5096V53.6598H0.478967Z" fill="#3822E4"/>
<path d="M15.6468 61.624C13.9482 61.624 2.16842 61.624 0.479004 61.624V63.6635C2.17765 63.6635 13.9574 63.6635 15.6468 63.6635C16.9577 63.6635 16.9577 61.624 15.6468 61.624Z" fill="#3822E4"/>
<path d="M31.7839 81.8614C21.3428 78.2808 10.9109 74.7002 0.479004 71.1196V73.2791C10.7355 76.7951 20.9828 80.3111 31.2485 83.8363C32.4856 84.2516 33.021 82.2767 31.7839 81.8614Z" fill="#3822E4"/>
<path d="M18.6564 39.6233C26.5865 23.7137 43.0191 12.7597 61.9719 12.7597C69.0065 12.7597 75.6811 14.2824 81.7095 16.9862L84.4421 16.0081C77.6752 12.6305 70.0405 10.7202 61.9627 10.7202C41.4312 10.7202 23.7708 23.0031 15.9146 40.6107L18.6564 39.6233Z" fill="#3822E4"/>
<path d="M79.7337 106.076C74.2316 108.254 68.2402 109.472 61.9718 109.472C44.1637 109.472 28.5804 99.7919 20.1795 85.4234L17.2715 84.4175C25.6909 100.521 42.5389 111.512 61.9718 111.512C69.3387 111.512 76.3272 109.925 82.6325 107.082L79.7337 106.076Z" fill="#3822E4"/>
</svg>
