<svg width="144" height="67" viewBox="0 0 144 67" fill="none" xmlns="http://www.w3.org/2000/svg">
<path fill-rule="evenodd" clip-rule="evenodd" d="M0 4.50512C0 2.04778 2.04778 0 4.50512 0H139.495C141.952 0 144 2.04778 144 4.50512V61.9249C144 64.3822 141.952 66.43 139.495 66.43H4.50512C2.04778 66.43 0 64.3822 0 61.9249V4.50512Z" fill="#ED0600"/>
<path fill-rule="evenodd" clip-rule="evenodd" d="M0 6.55273H144V59.877H0V6.55273Z" fill="white"/>
<path fill-rule="evenodd" clip-rule="evenodd" d="M121.966 20.3965C115.413 20.3965 110.007 25.8026 110.007 32.3555C110.007 38.9084 115.413 44.3146 121.966 44.3146C128.519 44.3146 133.925 38.9084 133.925 32.3555C133.925 25.8026 128.601 20.3965 121.966 20.3965Z" fill="#ED0600"/>
<path fill-rule="evenodd" clip-rule="evenodd" d="M121.065 9.91193C110.007 9.6662 104.764 16.7925 97.2287 25.4751L90.1024 33.7481L101.406 47.2635C104.109 51.4409 98.9488 55.5365 95.7543 51.7686L85.3515 39.3181L75.1945 51.1133C71.9181 54.8812 66.9215 50.7037 69.6246 46.5263L80.6826 33.6662L73.4744 25.0655L78.1433 19.3317L85.5154 28.1781L91.8225 20.8061C94.9351 17.202 98.1297 12.3693 102.225 9.91193H0V56.6014H23.9181C34.9761 56.6014 39.9727 49.9665 47.3447 41.0382L54.3072 32.6013L42.6758 19.3317C39.8908 15.2362 44.8874 10.9768 48.1638 14.7447L58.8942 26.9495L68.8055 14.9085C71.9181 11.0587 77.0785 15.1543 74.4573 19.3317L63.727 32.4375L71.1809 40.8744L66.5119 46.4444L59.1399 38.0894L52.9966 45.6252C49.9659 49.3112 46.9352 53.9802 42.8396 56.6014H144V9.91193H121.065V9.91193ZM42.3481 32.3556C42.3481 42.7583 33.8293 51.2771 23.4266 51.2771C13.0239 51.2771 4.50512 42.7583 4.50512 32.3556C4.50512 21.9529 13.0239 13.4341 23.4266 13.4341C33.8293 13.516 42.3481 21.9529 42.3481 32.3556ZM121.966 51.2771C111.563 51.2771 103.044 42.7583 103.044 32.3556C103.044 21.9529 111.563 13.4341 121.966 13.4341C132.369 13.4341 140.887 21.9529 140.887 32.3556C140.887 42.7583 132.369 51.2771 121.966 51.2771Z" fill="#ED0600"/>
<path fill-rule="evenodd" clip-rule="evenodd" d="M23.4893 20C16.9364 20 11.5303 25.4061 11.5303 31.959C11.5303 38.5119 16.9364 43.9181 23.4893 43.9181C30.0422 43.9181 35.4484 38.5119 35.4484 31.959C35.4484 25.4061 30.1241 20 23.4893 20Z" fill="#ED0600"/>
</svg>
