<svg width="195" height="72" viewBox="0 0 195 72" fill="none" xmlns="http://www.w3.org/2000/svg">
<path d="M136.77 59.4948H138.866L141.257 56.9663H138.977L136.77 59.4948Z" fill="#ED0600"/>
<path d="M194.533 45.034C162.472 48.9191 58.1801 54.4008 25.2503 54.4008C-7.67944 54.4008 -0.266323 45.2462 3.33407 45.034C6.31594 44.8586 194.533 45.034 194.533 45.034Z" fill="#ED0600"/>
<path d="M20.9945 14.5716L17.948 41.2414H26.2843L28.8323 23.643C28.9615 22.5264 29.22 21.7235 29.5985 21.2252C29.9862 20.7361 30.5678 20.4869 31.3618 20.4869C32.1465 20.4869 32.6819 20.7361 32.9496 21.2252C33.2266 21.7143 33.2912 22.5264 33.1712 23.643L31.1679 41.2414H39.5042L42.3384 21.1329C42.5045 19.684 42.4584 18.5028 42.1999 17.58C41.9414 16.6572 41.5352 15.9189 40.9721 15.3652C40.4089 14.8023 39.7165 14.4331 38.8857 14.2301C38.0917 13.9994 37.1963 13.8887 36.2085 13.8887C33.0512 13.8887 30.7525 15.1991 29.3031 17.8292H29.2015L29.2754 14.5716H20.9945Z" fill="#ED0600"/>
<path d="M44.2862 14.5714L43.603 20.5329H46.5572L44.9416 34.726C44.7755 36.2025 44.7662 37.4022 44.9232 38.325C45.117 39.2109 45.4863 39.8846 46.0217 40.346C46.5941 40.8074 47.3511 41.1028 48.2835 41.2319C49.2252 41.3335 50.3699 41.3796 51.7178 41.3796C52.4748 41.3796 53.2687 41.3427 54.0996 41.2781C54.9212 41.2412 55.2074 41.2319 56.029 41.2319L57.2384 35.3166H55.8536C55.1335 35.3166 54.6073 35.1689 54.275 34.8736C53.9795 34.5414 53.3426 34.0062 53.4256 33.2494L55.4197 20.5329H58.9186L59.6017 14.5714H55.7982L56.3983 9.71729H48.7174L47.2496 14.5714H44.2862Z" fill="#ED0600"/>
<path d="M100.434 0H109.315L103.868 41.2505H95.4487L100.434 0Z" fill="#ED0600"/>
<path fill-rule="evenodd" clip-rule="evenodd" d="M116.516 27.8418C116.765 26.1715 117.005 24.7965 117.226 23.726C117.457 22.6463 117.716 21.8065 118.002 21.1882C118.288 20.5699 118.602 20.1546 118.934 19.9424C119.294 19.7209 119.728 19.6286 120.218 19.6378C120.707 19.6563 121.104 19.7855 121.399 20.0254C121.695 20.2654 121.879 20.6991 121.944 21.3266C122.045 21.9542 122.055 22.8124 121.953 23.8921C121.861 24.9718 121.685 26.3468 121.436 28.0172C121.187 29.6875 120.947 31.0625 120.725 32.133C120.504 33.1758 120.245 34.0063 119.959 34.6246C119.701 35.2429 119.396 35.6582 119.027 35.8704C118.667 36.0919 118.233 36.1842 117.743 36.175C117.254 36.1565 116.857 36.0273 116.562 35.7874C116.303 35.5474 116.119 35.1137 116.017 34.4862C115.916 33.8587 115.906 33.0189 115.999 31.9669C116.1 30.8872 116.266 29.5121 116.516 27.8418ZM130.326 27.9341C130.548 25.9962 130.64 24.1874 130.603 22.5079C130.603 20.8006 130.299 19.3056 129.68 18.0229C129.071 16.7402 128.046 15.7435 126.624 15.0145C125.193 14.2578 123.19 13.8794 120.587 13.8794C118.085 13.8794 116.036 14.2854 114.429 15.1067C112.86 15.9004 111.604 16.9432 110.663 18.2628C109.721 19.5733 109.029 21.0682 108.576 22.7478C108.152 24.4273 107.847 26.1346 107.644 27.8695C107.422 29.8075 107.312 31.6347 107.312 33.3419C107.348 35.0214 107.672 36.498 108.281 37.7807C108.89 39.0265 109.915 40.014 111.346 40.7338C112.777 41.4259 114.798 41.7673 117.393 41.7673C119.894 41.7673 121.925 41.389 123.486 40.6322C125.092 39.8478 126.357 38.8051 127.289 37.5315C128.231 36.2211 128.905 34.7261 129.329 33.0466C129.8 31.3855 130.123 29.6783 130.326 27.9341Z" fill="#ED0600"/>
<path d="M132.348 14.5714L131.665 20.5329H134.628L133.013 34.726C132.847 36.2025 132.837 37.4022 132.994 38.325C133.188 39.2109 133.558 39.8846 134.093 40.346C134.665 40.8074 135.422 41.1028 136.355 41.2319C137.296 41.3335 138.441 41.3796 139.789 41.3796C140.546 41.3796 141.34 41.3427 142.171 41.2781C142.992 41.2412 143.279 41.2319 144.1 41.2319L145.31 35.3166H143.925C143.205 35.3166 142.679 35.1689 142.346 34.8736C142.051 34.5414 141.414 34.0062 141.497 33.2494L143.491 20.5329H146.99L147.673 14.5714H143.888L144.488 9.71729H136.807L135.302 14.5714H132.348Z" fill="#ED0600"/>
<path fill-rule="evenodd" clip-rule="evenodd" d="M61.9189 14.5715H70.1998L70.0152 18.8073C70.7907 17.1924 71.7139 15.9835 72.8955 15.1621C74.0772 14.3039 76.4959 13.8794 77.8068 13.8794L84.6937 13.9071L85.5154 13.8794C87.0571 13.8794 88.4603 14.0086 89.7158 14.2762C91.0083 14.5069 92.0699 14.9499 92.9193 15.6051C93.8055 16.2326 94.424 17.1001 94.7933 18.2167C95.1995 19.3056 95.3011 20.7176 95.098 22.4525L93.6116 35.4644C93.4732 36.7102 92.9747 40.3185 92.9008 41.2321H85.2107C85.0999 40.7707 85.0353 40.2908 85.0261 39.8017L84.9061 38.2237C84.2783 39.4049 83.3921 40.2908 82.2381 40.8814C81.121 41.472 79.8655 41.7673 78.49 41.7673C77.1421 41.7673 76.0159 41.5828 75.1019 41.2229C74.2157 40.8906 73.5233 40.3831 73.0063 39.691C72.4893 38.9988 72.157 38.1775 72.0093 37.227C71.8523 36.2765 71.8431 35.2245 71.9723 34.0709C72.1108 32.8251 72.3508 31.7362 72.6924 30.8133C73.0617 29.8905 73.5602 29.1061 74.1972 28.4509C74.8342 27.7588 75.6558 27.1866 76.6621 26.7252C77.6684 26.2361 78.9054 25.8208 80.3548 25.4978L83.9552 24.658C84.9338 24.4273 85.6446 24.1043 86.0877 23.6706C86.3739 23.4122 86.7063 22.9877 86.7709 22.2772C86.9094 20.7729 86.3647 20.3853 84.8599 20.3853C84.6107 20.3853 83.6229 20.5792 82.3396 20.7822C75.2127 21.8988 70.7261 22.7939 69.6275 28.8754L67.2364 41.2229H58.9001L61.9189 14.5715ZM82.5058 35.9627C81.8504 35.9627 81.3518 35.7043 81.0195 35.1783C80.6872 34.6523 80.5671 33.9417 80.6687 33.0558C80.7702 32.1699 80.9826 31.4593 81.3057 30.9333C81.6288 30.3796 82.155 29.9274 82.8843 29.6044C83.5767 29.3091 85.7277 28.737 86.0324 28.3771L85.7646 31.5793C85.5985 33.0558 85.2569 34.1632 84.7491 34.883C84.2414 35.6028 83.4936 35.9627 82.5058 35.9627Z" fill="#ED0600"/>
<path d="M9.77777 14.5713L7.04517 41.2411H15.3815L18.5387 14.5713H9.77777Z" fill="#ED0600"/>
<path fill-rule="evenodd" clip-rule="evenodd" d="M90.3066 71.0027L90.4082 69.9783H90.362C90.1035 70.2183 89.8635 70.4121 89.6512 70.5689C89.4388 70.7258 89.2357 70.8366 89.0234 70.9288C88.8295 71.0119 88.6357 71.0673 88.4418 71.095C88.2387 71.1226 88.0264 71.1411 87.7864 71.1411C87.2694 71.1411 86.8262 71.0119 86.4662 70.7443C86.1062 70.4674 85.8107 70.0983 85.5892 69.6553C85.3861 69.1939 85.2476 68.6587 85.183 68.0588C85.1184 67.459 85.1184 66.8223 85.183 66.1486C85.2568 65.3919 85.3769 64.6813 85.543 64.0076C85.7277 63.3247 85.9677 62.7249 86.2723 62.1989C86.5954 61.6636 86.9739 61.2484 87.4263 60.9438C87.8879 60.6393 88.4418 60.4824 89.0696 60.4824C89.5312 60.4824 89.9189 60.5562 90.2235 60.7131C90.5467 60.87 90.8328 61.1007 91.1006 61.4052L91.636 56.0713H94.8671L93.3716 71.0119H90.3066V71.0027ZM90.9529 62.8356C90.8698 62.6972 90.7405 62.5865 90.5651 62.5034C90.4082 62.4019 90.2051 62.3558 89.9743 62.3558C89.7066 62.3558 89.485 62.4665 89.3096 62.688C89.1527 62.9002 89.0142 63.1678 88.9126 63.5093C88.8203 63.8323 88.7557 64.183 88.7003 64.5613C88.6634 64.9212 88.6264 65.2627 88.5987 65.5672C88.5434 66.1117 88.4972 66.61 88.4695 67.053C88.4418 67.4867 88.4418 67.8558 88.4603 68.1604C88.488 68.4557 88.5526 68.6864 88.6634 68.8525C88.7742 69.0186 88.9311 69.1016 89.1434 69.1016C89.3834 69.1016 89.6142 69.0278 89.8358 68.8894C90.0574 68.7325 90.2512 68.5387 90.3989 68.2988L90.9529 62.8356Z" fill="#ED0600"/>
<path fill-rule="evenodd" clip-rule="evenodd" d="M98.3567 66.4901C98.3382 66.7116 98.3198 66.97 98.3198 67.2653C98.329 67.5606 98.3752 67.8282 98.449 68.0866C98.5229 68.3358 98.6429 68.5573 98.8275 68.7419C99.0029 68.908 99.2522 68.991 99.5568 68.991C99.963 68.991 100.323 68.8618 100.646 68.5942C100.969 68.3266 101.2 67.9759 101.339 67.5422L103.434 68.3819C103.379 68.5111 103.259 68.7326 103.074 69.0556C102.899 69.3602 102.64 69.6831 102.289 70.0246C101.948 70.3476 101.514 70.6336 100.988 70.8828C100.471 71.132 99.8615 71.2612 99.1414 71.2612C98.3752 71.2612 97.7105 71.1135 97.1658 70.8182C96.6396 70.5137 96.2149 70.1076 95.901 69.6001C95.5872 69.0833 95.3748 68.4835 95.264 67.819C95.1533 67.1454 95.1256 66.444 95.1994 65.7242C95.2733 64.9859 95.4394 64.2846 95.6795 63.6294C95.9472 62.9557 96.2795 62.3743 96.695 61.8668C97.1196 61.3592 97.6274 60.9624 98.1997 60.6671C98.7906 60.3718 99.4553 60.2241 100.194 60.2241C100.979 60.2241 101.616 60.381 102.123 60.704C102.622 61.027 103.01 61.4515 103.277 61.9867C103.563 62.5035 103.739 63.1033 103.813 63.7678C103.905 64.423 103.914 65.0967 103.84 65.7796L103.767 66.4901H98.3567V66.4901ZM100.969 64.4784C100.997 64.2292 101.006 63.9708 101.006 63.7217C101.006 63.4725 100.969 63.251 100.905 63.048C100.859 62.8357 100.757 62.6696 100.6 62.5404C100.462 62.4112 100.249 62.3559 99.9722 62.3559C99.7507 62.3559 99.5568 62.4205 99.3907 62.5404C99.2245 62.6696 99.086 62.8357 98.966 63.048C98.846 63.2418 98.7537 63.4633 98.689 63.7217C98.6336 63.9708 98.5967 64.2292 98.569 64.4784H100.969Z" fill="#ED0600"/>
<path fill-rule="evenodd" clip-rule="evenodd" d="M115.962 60.2978C115.879 61.1468 115.666 61.8759 115.325 62.4849C115.002 63.0848 114.577 63.5739 114.069 63.9522C113.552 64.3306 112.98 64.6074 112.334 64.7735C111.687 64.9396 111.004 65.0227 110.293 65.0227C110.053 65.0227 109.823 65.0135 109.601 65.0042C109.389 64.995 109.167 64.9673 108.936 64.9396L108.327 71.0026H104.736L106.231 56.062H111.567C112.241 56.062 112.86 56.1451 113.432 56.3112C114.005 56.4773 114.485 56.7357 114.891 57.0864C115.288 57.4186 115.592 57.8523 115.786 58.3876C115.971 58.9228 116.036 59.5595 115.962 60.2978ZM112.214 60.5562C112.251 60.2055 112.204 59.9102 112.094 59.6703C111.992 59.4303 111.835 59.2458 111.623 59.1074C111.429 58.9689 111.198 58.8674 110.94 58.8121C110.681 58.7382 110.423 58.7105 110.173 58.7105H109.546L109.176 62.3834H109.804C110.053 62.3834 110.321 62.3557 110.589 62.3003C110.857 62.245 111.106 62.1435 111.327 62.005C111.567 61.8666 111.761 61.6728 111.909 61.4421C112.084 61.193 112.186 60.8976 112.214 60.5562Z" fill="#ED0600"/>
<path fill-rule="evenodd" clip-rule="evenodd" d="M118.861 66.4901C118.842 66.7116 118.824 66.97 118.824 67.2653C118.833 67.5606 118.879 67.8282 118.953 68.0866C119.027 68.3358 119.156 68.5573 119.331 68.7419C119.507 68.908 119.756 68.991 120.061 68.991C120.467 68.991 120.827 68.8618 121.15 68.5942C121.473 68.3266 121.704 67.9759 121.842 67.5422L123.938 68.3819C123.883 68.5111 123.763 68.7326 123.578 69.0556C123.403 69.3602 123.144 69.6831 122.784 70.0246C122.442 70.3476 122.009 70.6336 121.482 70.8828C120.965 71.132 120.356 71.2612 119.636 71.2612C118.87 71.2612 118.205 71.1135 117.66 70.8182C117.134 70.5137 116.71 70.1076 116.396 69.6001C116.082 69.0833 115.869 68.4835 115.759 67.819C115.648 67.1454 115.62 66.444 115.694 65.7242C115.768 64.9859 115.925 64.2846 116.174 63.6294C116.433 62.9557 116.774 62.3743 117.19 61.8668C117.614 61.3592 118.122 60.9624 118.694 60.6671C119.285 60.3718 119.95 60.2241 120.688 60.2241C121.473 60.2241 122.11 60.381 122.609 60.704C123.107 61.027 123.495 61.4515 123.763 61.9867C124.049 62.5035 124.224 63.1033 124.298 63.7678C124.39 64.423 124.4 65.0967 124.326 65.7796L124.252 66.4901H118.861V66.4901ZM121.482 64.4784C121.51 64.2292 121.519 63.9708 121.519 63.7217C121.519 63.4725 121.482 63.251 121.418 63.048C121.372 62.8357 121.27 62.6696 121.113 62.5404C120.975 62.4112 120.762 62.3559 120.485 62.3559C120.264 62.3559 120.07 62.4205 119.904 62.5404C119.738 62.6696 119.59 62.8357 119.479 63.048C119.359 63.2418 119.267 63.4633 119.202 63.7217C119.147 63.9708 119.11 64.2292 119.082 64.4784H121.482Z" fill="#ED0600"/>
<path fill-rule="evenodd" clip-rule="evenodd" d="M132.034 63.6571C131.822 63.574 131.61 63.5002 131.407 63.4448C131.203 63.3895 130.982 63.3618 130.742 63.3618C130.206 63.3618 129.819 63.4356 129.569 63.574C129.329 63.7125 129.108 63.9155 128.895 64.1831L128.212 71.0028H124.981L126.034 60.4733H129.2L129.043 62.0698H129.089C129.219 61.7376 129.403 61.4515 129.634 61.23C129.883 60.9901 130.151 60.8056 130.446 60.6671C130.751 60.5102 131.074 60.3995 131.407 60.3349C131.739 60.2611 132.062 60.2334 132.385 60.2334L132.034 63.6571Z" fill="#ED0600"/>
<path fill-rule="evenodd" clip-rule="evenodd" d="M137.01 71.0026L137.149 69.5999H137.102C136.715 70.1352 136.262 70.5412 135.736 70.8365C135.219 71.1134 134.665 71.2518 134.074 71.2518C133.428 71.2518 132.93 71.0395 132.588 70.6243C132.256 70.1905 132.127 69.6091 132.191 68.8801L133.031 60.4639H136.262L135.515 67.9111C135.487 68.188 135.515 68.4187 135.588 68.6032C135.681 68.7694 135.884 68.8524 136.198 68.8524C136.549 68.8524 136.844 68.7048 137.084 68.4095L137.278 68.1603L138.044 60.4639H141.275L140.223 70.9934H137.01V71.0026Z" fill="#ED0600"/>
</svg>
