<svg width="172" height="80" viewBox="0 0 172 80" fill="none" xmlns="http://www.w3.org/2000/svg">
<path d="M68.2506 27.1682L58.2618 27.159V8.73012C58.2618 7.40124 57.2186 6.36768 55.8984 6.36768C54.5968 6.36768 53.5352 7.42893 53.5352 8.73012V29.5307C53.5352 30.1398 53.7936 30.7581 54.2551 31.2102C54.689 31.644 55.2891 31.8931 55.9077 31.8931H55.9446H68.2968C69.5984 31.8931 70.66 30.8134 70.66 29.4846C70.6139 28.211 69.5522 27.1682 68.2506 27.1682Z" fill="#ED0600"/>
<path d="M99.7862 7.80705C99.3338 6.99496 98.5307 6.50586 97.6352 6.50586H97.5798C96.6566 6.54277 95.8718 7.06877 95.4656 7.89931L85.9847 28.3677C85.4308 29.5582 85.9478 30.9701 87.1294 31.5238C87.4525 31.6899 87.7849 31.7637 88.1449 31.7637C89.0681 31.7637 89.9174 31.21 90.3051 30.3702L92.5023 25.6361H103.313L105.722 30.4533C106.331 31.6253 107.762 32.0867 108.916 31.4961C109.489 31.2285 109.913 30.7486 110.126 30.158C110.338 29.5489 110.292 28.8845 109.996 28.2939L99.7862 7.80705ZM100.94 20.8467H94.7457L97.7275 14.4237L100.94 20.8467Z" fill="#ED0600"/>
<path d="M135.024 17.1276C134.156 16.9246 133.344 16.8692 132.559 16.8231L132.153 16.7954C130.962 16.74 129.826 16.6846 129.069 16.1586C128.312 15.6418 127.685 14.636 127.952 13.6947C128.257 12.5319 129.439 11.5722 130.833 11.3691C132.67 11.1015 134.664 11.6091 136.04 12.7073C137.073 13.5009 138.578 13.3255 139.4 12.3012C140.194 11.2676 140.018 9.76341 138.994 8.94209C136.575 7.06874 133.279 6.21051 130.177 6.64425C126.909 7.12412 124.167 9.44966 123.346 12.4212C122.58 15.1989 123.817 18.3457 126.346 20.0807C128.183 21.3357 130.131 21.4557 131.848 21.548H131.904C132.615 21.5756 133.353 21.6126 133.962 21.7602C135.347 22.074 136.326 23.2368 136.243 24.4733C136.159 25.8576 134.599 26.7066 133.187 26.9096C130.953 27.2418 128.543 26.4113 127.205 24.8609C126.365 23.8643 124.878 23.7351 123.872 24.5841C122.875 25.4608 122.755 26.9373 123.595 27.9432C125.608 30.3148 128.829 31.736 132.218 31.736C132.771 31.736 133.335 31.6991 133.87 31.6345C137.138 31.1546 140.766 28.7922 141.006 24.7594C141.237 21.2065 138.652 17.9212 135.024 17.1276Z" fill="#ED0600"/>
<path d="M165.489 17.1276C164.621 16.9246 163.809 16.8692 163.024 16.8231L162.618 16.7954C161.427 16.74 160.291 16.6846 159.534 16.1586C158.777 15.6418 158.15 14.636 158.417 13.6947C158.722 12.5319 159.904 11.5722 161.288 11.3691C163.126 11.1015 165.12 11.6091 166.495 12.7073C167.529 13.5009 169.034 13.3255 169.856 12.3012C170.649 11.2676 170.474 9.76341 169.449 8.94209C167.031 7.06874 163.735 6.21051 160.633 6.64425C157.374 7.12412 154.623 9.44966 153.801 12.4212C153.035 15.1989 154.272 18.3457 156.802 20.0807C158.639 21.3357 160.587 21.4557 162.304 21.548H162.359C163.07 21.5756 163.809 21.6126 164.418 21.7602C165.803 22.074 166.781 23.2368 166.698 24.4733C166.615 25.8576 165.055 26.7066 163.643 26.9096C161.408 27.2418 158.999 26.4113 157.66 24.8609C156.82 23.8643 155.334 23.7351 154.328 24.5841C153.331 25.4608 153.211 26.9373 154.051 27.9432C156.063 30.3148 159.285 31.736 162.673 31.736C163.227 31.736 163.79 31.6991 164.326 31.6345C167.594 31.1546 171.222 28.7922 171.462 24.7594C171.693 21.2065 169.117 17.9212 165.489 17.1276Z" fill="#ED0600"/>
<path d="M0 0V38.2883H38.3119V0H0ZM29.357 28.3033C26.9844 30.4811 23.9379 31.6716 20.8084 31.6716C13.8938 31.6716 8.27164 26.0423 8.27164 19.1211C8.27164 12.2091 13.903 6.58903 20.8084 6.58903C23.9102 6.58903 26.9014 7.73335 29.2001 9.80049C29.634 10.1881 29.8832 10.7141 29.9201 11.2955C29.9663 11.8769 29.754 12.4398 29.357 12.892C28.5538 13.7686 27.1784 13.8333 26.3106 13.0304C24.8058 11.6923 22.8671 10.954 20.8176 10.954C16.294 10.954 12.6198 14.6269 12.6198 19.1303C12.6198 23.6337 16.294 27.3066 20.8176 27.3066C22.9224 27.3066 24.9073 26.5314 26.4029 25.1287C27.2522 24.3074 28.6462 24.3535 29.477 25.2302C30.2709 26.1069 30.2248 27.4819 29.357 28.3033Z" fill="#ED0600"/>
<path d="M85.2646 60.7041C85.2646 53.6537 90.9791 47.9414 98.0321 47.9414C105.085 47.9414 110.8 53.6537 110.8 60.7041C110.8 67.7546 105.085 73.4669 98.0321 73.4669C90.9791 73.4669 85.2646 67.7546 85.2646 60.7041ZM98.0321 68.6405C102.417 68.6405 105.971 65.0876 105.971 60.7041C105.971 56.3207 102.417 52.7678 98.0321 52.7678C93.647 52.7678 90.0928 56.3207 90.0928 60.7041C90.0928 65.0876 93.647 68.6405 98.0321 68.6405Z" fill="#ED0600"/>
<path d="M140.397 69.9878L136.427 62.4852C139.003 61.1933 140.637 58.637 140.637 55.8501C140.637 51.5589 137.175 47.9414 133.076 47.9414H126.789H126.614H125.645C124.407 47.9414 123.401 48.9473 123.401 50.1839V50.876V71.0675C123.401 72.3964 124.444 73.43 125.765 73.43C127.094 73.43 128.128 72.3872 128.128 71.0675V63.3711H131.525L136.16 72.1657C136.538 72.9686 137.341 73.4577 138.255 73.4577C138.671 73.4577 139.031 73.3654 139.382 73.1808C140.554 72.5902 141.006 71.1598 140.397 69.9878ZM132.827 58.6462H128.146V52.7032H133.085C134.562 52.7032 135.91 54.2074 135.91 55.8501C135.91 57.3174 134.443 58.6462 132.827 58.6462Z" fill="#ED0600"/>
<path d="M170.4 69.3142L161.547 61.0271L169.736 52.5002C170.649 51.5497 170.612 50.027 169.662 49.1134C169.218 48.6704 168.637 48.4397 168 48.4397C167.354 48.449 166.744 48.7074 166.292 49.1872L158.565 57.262V50.3408C158.565 49.0211 157.503 47.9414 156.202 47.9414C154.854 47.9414 153.802 48.9934 153.802 50.3408V71.1045C153.802 72.4333 154.854 73.4669 156.202 73.4669C157.531 73.4669 158.565 72.4241 158.565 71.1045V64.7554L167.206 72.8763C167.668 73.2639 168.222 73.4669 168.794 73.4669C169.514 73.4669 170.142 73.1901 170.594 72.6641C171.019 72.2026 171.231 71.5936 171.194 70.9568C171.166 70.3201 170.88 69.7387 170.4 69.3142Z" fill="#ED0600"/>
<path d="M41.5891 41.5645V79.8527H79.8917V41.5645H41.5891ZM73.3557 51.6325L69.1183 70.6613L69.0814 70.772C69.0629 70.8274 69.0444 70.892 69.0259 70.9382L69.0168 70.9843C68.9983 71.0489 68.9613 71.1043 68.9336 71.1504C68.9152 71.1781 68.8968 71.2058 68.8968 71.2335L68.8783 71.2796L68.8413 71.3165C68.7952 71.4272 68.7214 71.5011 68.6567 71.5565L68.629 71.5841C68.5828 71.6303 68.5275 71.6856 68.4444 71.7502C68.4167 71.7964 68.3797 71.8241 68.3335 71.8425C68.2874 71.8794 68.2505 71.9071 68.2044 71.9348V71.9441L68.0659 72.0271L67.4473 72.2209C67.3827 72.2209 67.3458 72.2301 67.3181 72.2301C67.2627 72.2394 67.2073 72.2486 67.1519 72.2486C67.0689 72.2486 66.9858 72.2486 66.9027 72.2209C66.8473 72.2209 66.7918 72.2117 66.7272 72.1932H66.5888L66.5611 72.1655C66.5149 72.1563 66.4873 72.1471 66.4688 72.1378H66.2933L66.2749 72.0456C66.2287 72.0363 66.1918 72.0179 66.1641 71.9902H66.118L66.0533 71.9256C66.0348 71.9164 66.0164 71.8979 66.0072 71.8887C65.998 71.8795 65.9887 71.8702 65.9795 71.8702H65.9703L65.7857 71.7226H65.6287V71.5657C65.6102 71.5472 65.5917 71.5195 65.5732 71.4918C65.5363 71.4642 65.5086 71.4273 65.4902 71.3904L65.3517 71.1966L60.7635 62.5958L56.3784 71.2796H56.3599L56.2492 71.455C56.2307 71.4734 56.2215 71.4919 56.2031 71.5011C56.1754 71.5288 56.1476 71.5657 56.1107 71.5934C56.0922 71.6118 56.083 71.6303 56.0553 71.6487C56.0276 71.6857 55.9907 71.7133 55.963 71.741C55.9538 71.741 55.9538 71.7502 55.9446 71.7502V71.7687L55.363 72.1102C55.3168 72.1378 55.2614 72.1563 55.1967 72.1655L55.1599 72.2024H55.0767C55.0213 72.2209 54.9752 72.2301 54.9291 72.2301H54.8829C54.7167 72.2855 54.5875 72.267 54.4675 72.2393C54.4306 72.2301 54.4029 72.2301 54.366 72.2301L54.1813 72.2024C54.1259 72.184 54.0982 72.1748 54.0612 72.1748H53.8489V72.0825L53.6459 72.0179L53.5812 71.9625C53.5719 71.9533 53.5443 71.9348 53.5166 71.9164C53.4704 71.8887 53.415 71.861 53.3689 71.8056C53.3042 71.7687 53.2489 71.7133 53.1935 71.658H53.1658L53.1011 71.5565C53.0826 71.5288 53.055 71.5011 53.0365 71.4734C53.0088 71.4365 52.9812 71.3996 52.9535 71.3627C52.9258 71.335 52.9073 71.3073 52.898 71.2704C52.8703 71.2335 52.8519 71.1873 52.8242 71.1504H52.815L52.7412 71.012L52.6395 70.6798L48.1345 51.7064C47.8668 50.6266 48.5315 49.5285 49.6116 49.2609C50.7194 49.0209 51.7903 49.6854 52.058 50.7651L55.326 64.4322L58.9172 57.3079C59.2772 56.6435 59.9511 56.2375 60.7173 56.2006C61.4559 56.2006 62.1668 56.6343 62.5083 57.271L66.358 64.4691L69.3952 50.802C69.506 50.2852 69.8199 49.833 70.2723 49.5377C70.7246 49.2424 71.2877 49.1409 71.8139 49.2609C72.3309 49.3716 72.7833 49.6854 73.0787 50.1283C73.3649 50.5436 73.4665 51.1065 73.3557 51.6325Z" fill="#ED0600"/>
<path d="M20.4852 66.3976C19.3405 67.505 18.2327 68.0403 16.9033 68.0403C14.9093 68.0403 12.9429 66.9329 12.9429 64.9673C13.2291 62.531 14.9093 62.2172 16.0448 61.9219C17.4019 63.3523 19.082 64.9672 20.4852 66.3976Z" fill="#ED0600"/>
<path d="M16.3218 55.3056C16.3218 54.1336 17.1435 53.0908 18.2236 53.0908C19.3314 53.0908 20.2175 54.1336 20.2175 55.3056C20.2175 56.4499 19.6176 58.1295 17.6512 58.1295C16.5526 57.2343 16.3218 56.4407 16.3218 55.3056Z" fill="#ED0600"/>
<path d="M0 41.5552V79.8434H38.3026V41.5552H0ZM24.9442 71.1134L23.264 69.1755C21.5838 71.1135 19.3313 72.2209 16.8941 72.2209C12.1397 72.2209 8.74246 68.9264 8.74246 64.9674C8.74246 62.2174 10.4226 59.7073 13.2106 58.563C12.7029 57.8062 12.1306 56.4405 12.1306 55.3054C12.1306 51.411 14.8909 49.1593 17.9004 49.1593C21.8978 49.1593 24.3349 51.6694 24.3349 55.5638C24.3349 57.8155 23.2548 60.0026 21.0023 61.1376L23.2548 63.3525L24.7411 60.9715C26.2274 58.7844 29.117 60.8423 27.7876 62.8449C27.2152 63.8231 26.4859 64.8751 25.7012 66.1394L28.0184 68.428C30.0494 70.7351 26.6243 72.9868 24.9442 71.1134Z" fill="#ED0600"/>
</svg>
