<svg width="234" height="65" viewBox="0 0 234 65" fill="none" xmlns="http://www.w3.org/2000/svg">
<path d="M160.771 35.1689C160.632 35.0028 160.558 34.7721 160.558 34.5414C160.558 34.2553 160.66 33.9507 160.863 33.72C160.863 33.72 168.396 26.3374 169.107 25.636H162.469C162.34 25.7652 159.22 28.8383 159.22 28.8383L157.927 30.0472C157.687 30.2779 157.373 30.6009 156.912 30.2041L155.702 28.9121L155.656 26.1344V17.8473V17.0537H150.68V17.8473C150.68 20.1083 150.68 26.3743 150.68 26.3743V31.0438L150.736 37.762C150.736 37.762 150.754 45.8368 150.754 46.2613H155.739V40.9827L155.702 37.4206C155.712 37.4021 155.712 37.1899 155.896 37.1899C156.081 37.1991 156.21 37.3375 156.404 37.5867C157.226 38.7033 158.232 39.8476 158.638 40.309C158.638 40.309 163.54 46.1137 163.669 46.2705H170.353C168.71 44.3603 160.771 35.1689 160.771 35.1689Z" fill="#3822E4"/>
<path d="M202.913 40.7336L202.821 35.9257C202.821 35.9257 202.867 30.7486 202.867 30.7301C202.867 29.0875 202.323 27.7125 201.252 26.6328C199.821 25.1839 197.43 24.3257 194.872 24.3257C192.334 24.3257 189.417 25.147 187.33 26.3744V29.7243V31.2469C187.33 31.2469 187.995 30.8501 188.872 30.4256C189.823 29.9826 191.106 29.4659 192.528 29.1982C193.063 29.0783 193.589 29.0137 194.088 29.0137C197.448 29.0137 198.094 30.038 198.094 31.9483V32.8896C198.094 33.4802 197.531 33.4802 197.254 33.4802H197.125C194.337 33.4802 189.13 33.4802 186.647 35.9626C185.512 37.0977 185.068 38.3343 185.068 40.3645C185.068 44.9971 187.764 47.2488 193.312 47.2488C195.131 47.2488 196.802 46.6859 198.03 46.2798L198.205 46.2152C198.205 46.2152 202.618 46.2429 203.024 46.2521C203.015 45.8461 202.913 40.7336 202.913 40.7336ZM198.214 39.5801C198.233 40.3645 197.974 41.0566 197.457 41.5918C196.7 42.3763 195.454 42.7731 193.765 42.7731C191.235 42.7731 190.054 41.961 190.054 40.2076C190.054 38.1866 192.278 37.3191 197.503 37.3191C197.845 37.3191 198.214 37.5222 198.214 38.0759V39.5801Z" fill="#3822E4"/>
<path d="M133.343 40.7336L133.251 35.9257C133.251 35.9257 133.288 30.7486 133.288 30.7301C133.288 29.0875 132.752 27.7125 131.672 26.6328C130.232 25.1839 127.85 24.3257 125.293 24.3257C122.754 24.3257 119.846 25.147 117.76 26.3744V29.7243H117.751V31.2469C117.751 31.2469 118.415 30.8501 119.283 30.4256C120.225 29.9826 121.526 29.4659 122.939 29.1982C123.474 29.0783 124 29.0137 124.499 29.0137C127.859 29.0137 128.496 30.038 128.496 31.9483V32.8896C128.496 33.4802 127.933 33.4802 127.666 33.4802H127.536C124.739 33.4802 119.542 33.4802 117.058 35.9626C115.923 37.0977 115.479 38.3343 115.479 40.3645C115.479 44.9971 118.175 47.2488 123.714 47.2488C125.533 47.2488 127.213 46.6859 128.432 46.2798L128.616 46.2152C128.616 46.2152 133.02 46.2429 133.435 46.2521C133.435 45.8461 133.343 40.7336 133.343 40.7336ZM128.635 39.5801C128.653 40.3645 128.395 41.0566 127.878 41.5918C127.121 42.3763 125.875 42.7731 124.185 42.7731C121.656 42.7731 120.474 41.961 120.474 40.2076C120.474 38.1866 122.699 37.3191 127.924 37.3191C128.275 37.3191 128.644 37.5222 128.644 38.0759V39.5801H128.635Z" fill="#3822E4"/>
<path d="M185.696 26.4298C185.696 26.4206 185.706 26.4113 185.706 26.4021C184.266 25.2947 182.225 24.7041 180.905 24.7041C179.289 24.7041 177.988 25.0086 176.871 25.6362H171.507V26.0607C171.498 26.4759 171.406 34.6061 171.406 34.6061L171.35 37.956V37.9836V37.9929C171.35 37.9929 171.424 45.9015 171.433 46.3168H176.335V46.2707C176.326 45.8462 176.252 38.0482 176.252 37.956C176.252 35.4643 176.289 35.1136 176.289 35.1229C176.326 31.3577 176.954 29.5674 180.37 29.5674C181.404 29.5674 182.188 29.9735 183.333 30.7856C183.536 30.4072 185.53 26.7712 185.706 26.4575C185.696 26.439 185.696 26.439 185.696 26.4298C185.687 26.4298 185.696 26.4298 185.696 26.4298Z" fill="#3822E4"/>
<path d="M114.399 29.918V25.6545H109.349V25.1008H109.34V21.1973H106.367C106.275 21.3726 105.98 21.9263 105.98 21.9263C104.835 24.0857 104.336 24.9901 101.576 26.4851V29.9088H104.189H104.41L104.318 37.5591L104.309 38.5649C104.281 41.1766 104.253 43.8805 105.786 45.4216C106.663 46.3075 107.974 46.7412 109.802 46.7412C110.863 46.7412 111.916 46.6674 113.31 46.3536V41.4257C111.593 41.7026 110.873 41.7395 110.568 41.721H110.54C109.506 41.721 109.377 40.6136 109.377 39.6539L109.368 38.6388L109.377 29.8534C109.386 29.8719 113.984 29.9088 114.399 29.918Z" fill="#3822E4"/>
<path d="M233.11 29.918V25.6545H228.07V25.1008H228.061V21.1973H225.088C224.996 21.3726 224.7 21.9263 224.7 21.9263C223.556 24.0857 223.057 24.9901 220.288 26.4851V29.9088H222.9H223.122L223.039 37.5591L223.029 38.5649C223.002 41.1766 222.974 43.8805 224.506 45.4216C225.383 46.3075 226.694 46.7412 228.532 46.7412C229.593 46.7412 230.646 46.6674 232.03 46.3536V41.4257C230.322 41.7026 229.593 41.7395 229.289 41.721H229.261C228.227 41.721 228.098 40.6136 228.098 39.6539L228.088 38.6388L228.098 29.8534C228.098 29.8719 232.695 29.9088 233.11 29.918Z" fill="#3822E4"/>
<path d="M148.086 29.918V25.6545H143.036V25.1008H143.027V21.1973H140.054C139.962 21.3726 139.667 21.9263 139.667 21.9263C138.522 24.0857 138.023 24.9901 135.263 26.4851V29.9088H137.876H138.097L138.014 37.5591L138.005 38.5649C137.977 41.1766 137.95 43.8805 139.482 45.4216C140.359 46.3075 141.679 46.7412 143.498 46.7412C144.569 46.7412 145.621 46.6674 147.006 46.3536V41.4257C145.298 41.7026 144.569 41.7395 144.264 41.721H144.246C143.212 41.721 143.082 40.6136 143.082 39.6539L143.073 38.6388L143.082 29.8534C143.073 29.8719 147.68 29.9088 148.086 29.918Z" fill="#3822E4"/>
<path d="M212.754 29.9183H218.063V25.9224V25.6825H212.754V22.997C212.754 21.9819 213.013 21.299 214.25 21.299C214.425 21.299 214.601 21.3083 214.795 21.3267C215.422 21.3544 216.41 21.4744 217.869 21.7881V17.1647C216.576 16.8971 215.072 16.7402 214.13 16.7402C209.772 16.7402 207.742 18.6136 207.742 22.6371V25.6917H205.12V25.8578V29.9275H207.742V30.675H207.751V31.5148L207.806 37.7808C207.806 37.7808 207.797 45.8556 207.797 46.2801H212.819C212.819 45.8556 212.801 37.6054 212.801 37.6054L212.819 33.1113L212.773 30.8596V29.9183H212.754Z" fill="#3822E4"/>
<path d="M98.6865 31.8102C96.4616 29.577 93.7751 28.7464 90.941 27.8697C88.8453 27.1961 88.7253 27.1592 88.6976 27.1592C88.6976 27.1499 88.4945 27.0853 88.4945 27.0853C87.4698 26.7439 86.0665 26.2825 86.0665 24.6767C86.0665 23.2002 87.396 22.4158 89.907 22.4158C90.6825 22.4158 91.5225 22.545 92.3811 22.7573C92.898 22.8495 93.6275 23.0156 94.5599 23.3109C94.9199 23.4217 95.3076 23.5601 95.7415 23.7078C95.9723 23.7908 96.2031 23.8831 96.4523 23.9846C96.6831 24.0677 96.9139 24.1692 97.1539 24.2707C97.2093 24.2892 97.2555 24.3168 97.3109 24.3353C97.3756 24.363 97.4216 24.3814 97.4678 24.3999C97.634 24.4645 97.7909 24.5383 97.9571 24.6121V19.0106C95.5107 17.774 92.8889 17.1372 90.147 17.1372C85.4942 17.1372 80.509 19.1028 80.509 24.6306C80.509 27.2145 81.2291 29.0787 82.8354 30.6751C84.5156 32.3547 87.0174 33.1483 89.4362 33.9327L91.3933 34.5787C94.1352 35.5477 95.5291 36.3875 95.5291 38.3346C95.5291 40.9093 93.7567 42.2105 90.2578 42.2105C87.8852 42.2105 84.7371 40.9555 82.5861 39.1652L82.42 39.0268L79.7705 44.4622L79.8905 44.5453C82.6047 46.5202 86.0851 47.5629 89.944 47.5629C97.3571 47.5629 101.271 44.25 101.271 37.9747C101.281 35.7415 100.311 33.4344 98.6865 31.8102Z" fill="#3822E4"/>
<path d="M32.3378 0.396973C26.7803 0.396973 21.6751 1.3844 15.2682 5.41717C21.6474 3.99602 25.9956 2.86094 30.4176 3.07319C35.8644 3.33158 39.1139 5.31566 39.1139 5.31566C39.1139 5.31566 32.4486 4.49435 27.3803 5.29722C23.4476 5.91551 10.4677 9.35767 10.08 9.71757C8.16899 11.4802 6.90425 13.1874 5.48256 15.3745C6.61806 15.273 8.27978 14.7378 9.68301 14.4148C12.4802 13.7688 22.8937 11.6924 28.5897 11.3233C34.7381 10.9173 43.6468 11.9416 47.4872 15.7898C47.4872 15.7898 40.7664 13.8519 32.0516 15.19C24.5923 16.3343 13.6988 19.3335 9.15679 20.7269C7.37505 21.2806 4.90093 21.7513 2.4545 22.1296C1.54979 24.7782 1.02359 27.0483 0.857422 29.9645C3.12844 30.5274 8.34443 29.743 9.88614 29.4016C11.751 28.9955 30.0391 25.8948 34.4058 25.8948C38.7724 25.8948 47.3487 25.8302 51.623 30.3244C51.623 30.3244 46.4163 28.8571 40.9695 30.0291C38.4677 30.5643 30.7407 31.7086 15.7483 36.5535C9.09218 38.7037 4.04237 39.2851 1.53132 38.6945C2.15909 41.3707 2.98996 44.0376 4.25471 46.4093C6.20262 46.8892 10.0338 46.7231 13.5973 46.0033C18.7763 44.9513 31.9685 42.1735 39.3263 42.5796C45.8993 42.9487 47.7641 44.6098 47.7641 44.6098C47.7641 44.6098 41.4588 44.6098 36.289 45.7726C32.1532 46.7046 17.7054 51.2357 13.7912 52.4539C12.7757 52.7676 10.1169 53.589 8.289 52.5C10.2 54.5395 11.8156 56.6251 14.1974 58.1016C17.5208 58.7384 22.2198 58.24 24.4908 57.8617C27.2788 57.4002 34.018 56.099 36.3444 57.0219C36.3444 57.0219 31.1377 57.6955 28.1651 58.8583C26.0325 59.6981 21.5274 61.4053 19.5241 60.9808C21.8782 61.876 25.9494 63.3525 28.5343 63.657C28.5343 63.657 29.9745 63.8693 32.3378 63.8693C34.6919 63.8693 36.1413 63.657 36.1413 63.657C51.8631 61.7745 64.049 48.3842 64.049 32.1424C64.0582 14.6086 49.8597 0.396973 32.3378 0.396973Z" fill="#3822E4"/>
<path d="M32.5594 64.1552C14.8621 64.1552 0.469727 49.7683 0.469727 32.0776C0.469727 14.3869 14.8621 0 32.5594 0C50.2567 0 64.6491 14.3869 64.6491 32.0776C64.6491 49.7683 50.2475 64.1552 32.5594 64.1552ZM32.5594 0.802859C15.3052 0.802859 1.26365 14.8299 1.26365 32.0868C1.26365 49.3438 15.296 63.3708 32.5594 63.3708C49.8136 63.3708 63.8552 49.3346 63.8552 32.0868C63.8552 14.8391 49.8136 0.802859 32.5594 0.802859Z" fill="#3822E4"/>
</svg>
