<svg width="449" height="93" viewBox="0 0 449 93" fill="none" xmlns="http://www.w3.org/2000/svg">
<path d="M70.0485 47.3822H69.3315L48.1103 2.41616C47.4794 1.06833 46.1029 0.208008 44.6117 0.208008H4.83628C2.68548 0.208008 0.964844 1.92865 0.964844 4.07945V88.5915C0.964844 90.7423 2.68548 92.4629 4.83628 92.4629H33.4276C35.5784 92.4629 37.299 90.7423 37.299 88.5915V44.8873H38.0159L60.757 90.3408C61.4166 91.6599 62.7644 92.4916 64.227 92.4916H102.511C104.662 92.4916 106.383 90.7709 106.383 88.6201V4.07945C106.383 1.92865 104.662 0.208008 102.511 0.208008H73.9199C71.7691 0.208008 70.0485 1.92865 70.0485 4.07945V47.3822Z" fill="#ED0600"/>
<path d="M157.632 52.0279H208.677C209.91 52.0279 210.943 51.0242 210.943 49.7624V42.9085C210.943 41.6754 209.939 40.643 208.677 40.643H157.632V27.6235H211C213.151 27.6235 214.872 25.9029 214.872 23.7521V4.07945C214.872 1.92865 213.151 0.208008 211 0.208008H122.215C120.064 0.208008 118.344 1.92865 118.344 4.07945V88.6488C118.344 90.7423 120.064 92.4629 122.158 92.4629H211.602C213.753 92.4629 215.474 90.7423 215.474 88.5915V70.1233C215.474 67.9725 213.753 66.2518 211.602 66.2518H157.632V52.0279Z" fill="#ED0600"/>
<path d="M332.814 36.7142C332.814 4.68167 314.461 0.208008 290.171 0.208008H231.268C229.117 0.208008 227.396 1.92865 227.396 4.07945V88.5915C227.396 90.7423 229.117 92.4629 231.268 92.4629H262.813C264.964 92.4629 266.684 90.7423 266.684 88.5915V72.3028H273.338C275.431 82.4545 283.604 90.3121 293.899 92.0327C295.132 92.2908 296.423 92.4629 297.828 92.4629H328.943C331.094 92.4629 332.814 90.7423 332.814 88.5915V72.3028C332.814 70.152 331.094 68.4313 328.943 68.4313H316.239C326.993 64.0437 332.814 54.9817 332.814 36.7142ZM266.713 27.3654H284.436C288.795 27.3654 292.437 30.7493 292.781 35.0796C293.584 45.174 290.429 48.5579 281.711 48.8447H266.713V27.3654Z" fill="#ED0600"/>
<path d="M448.424 45.8049C448.424 12.3098 432.221 0.208008 400.791 0.208008H348.684C346.533 0.208008 344.812 1.92865 344.812 4.07945V88.0753C344.812 90.5128 346.791 92.4629 349.2 92.4629H400.791C432.221 92.4629 448.424 80.3324 448.424 46.866C448.424 46.6939 448.395 46.5219 448.395 46.3498C448.395 46.1491 448.424 46.0057 448.424 45.8049ZM394.08 64.1297H383.47V53.7485V28.5412H394.08C405.78 28.5412 408.906 34.9362 409.05 46.3498C408.906 57.7347 405.809 64.1297 394.08 64.1297Z" fill="#ED0600"/>
</svg>
