<svg width="133" height="73" viewBox="0 0 133 73" fill="none" xmlns="http://www.w3.org/2000/svg">
<path d="M54.797 47.6292C54.2732 45.6186 53.7639 43.608 53.2255 41.5099C54.2295 41.4371 55.117 41.3642 56.0046 41.3059C59.0311 41.0874 62.0431 40.8834 65.0695 40.6649C66.4227 40.5629 67.7759 40.4755 69.1436 40.3735C69.842 40.3152 69.842 40.3152 70.1476 39.4993C64.2547 39.1351 58.3618 38.7708 52.4253 38.4066C51.7705 35.9734 51.1302 33.5694 50.4755 31.1071C50.6937 31.0634 50.8393 31.0343 50.9848 31.0197C54.2004 30.8303 57.4305 30.67 60.6462 30.4661C64.0364 30.2621 67.4412 30.0436 70.8314 29.8396C72.3447 29.7522 73.858 29.6502 75.3712 29.5919C75.9387 29.5773 76.2151 29.3151 76.3461 28.7177C61.1555 27.7561 45.994 26.7945 30.7598 25.8329C30.8325 25.6435 30.8762 25.5269 30.9344 25.4104C31.5018 24.4051 32.0838 23.3852 32.6659 22.3799C32.8259 22.0885 33.0151 21.8699 33.4225 21.8554C35.5323 21.7534 37.6275 21.6077 39.7373 21.462C41.9199 21.3163 44.117 21.156 46.2995 21.0249C48.0747 20.9083 49.8499 20.8209 51.625 20.7189C54.1277 20.5587 56.6157 20.3693 59.1184 20.209C61.4028 20.0633 63.6727 19.9322 65.9571 19.7865C69.0272 19.5825 72.0828 19.364 75.1529 19.16C76.8553 19.0434 78.5723 18.956 80.2747 18.8394C80.6966 18.8103 81.104 18.7666 81.526 18.752C82.2826 18.7229 82.2826 18.7229 82.6027 17.8778C77.8447 17.5719 73.1159 17.2513 68.2706 16.9454C68.8235 15.9838 69.3037 15.1242 69.7838 14.2791C70.7296 12.6473 71.6754 11.0155 72.6066 9.36912C72.8249 8.99031 73.0722 8.83004 73.5378 8.80091C76.6225 8.62607 79.7072 8.40752 82.8064 8.20354C84.4943 8.08698 86.1821 7.98499 87.8699 7.88301C88.5829 7.8393 88.612 7.82473 88.8448 7.00882C84.1305 6.67372 79.4307 6.33862 74.6727 6.00352C74.7309 5.79955 74.7601 5.68299 74.8183 5.581C75.7495 3.93462 76.7098 2.31737 77.6265 0.656426C77.8884 0.175626 78.1939 0.000793457 78.7614 0.000793457C83.6212 0.0299329 88.4665 0.0153663 93.3263 0.0153663C97.3713 0.0153663 101.416 0.000788567 105.461 0.029928C107.644 0.0444977 109.797 0.306753 111.878 1.02067C113.595 1.61803 115.108 2.50679 116.141 4.06575C117.218 5.68299 117.407 7.5042 117.218 9.3837C116.927 12.4142 115.603 14.9639 113.639 17.2222C111.121 20.1216 107.949 22.0156 104.37 23.2541C104.123 23.3415 103.875 23.4143 103.613 23.5017C103.57 23.5163 103.526 23.5309 103.41 23.5892C103.744 23.7057 104.006 23.7931 104.268 23.8951C106.291 24.6382 107.891 25.862 108.793 27.8581C109.041 28.4263 109.128 29.0674 109.244 29.6939C109.332 30.1601 109.404 30.6409 109.375 31.1217C109.215 34.0502 108.124 36.6145 106.291 38.8728C104.603 40.9708 102.508 42.5881 100.18 43.8994C96.9494 45.7206 93.5009 46.9007 89.8487 47.4689C89.0485 47.5855 88.2337 47.6292 87.4334 47.702C84.9599 47.702 82.4718 47.7021 79.9982 47.6875C79.6927 47.6875 79.3871 47.6729 79.0815 47.6729C71.3407 47.6729 63.5999 47.6729 55.8446 47.6729C55.4517 47.6438 55.1316 47.6292 54.797 47.6292ZM78.4849 36.935C78.6886 36.9496 78.8196 36.9787 78.9505 36.9787C80.3183 36.9787 81.6715 36.9642 83.0392 36.9933C84.7707 37.0224 86.4003 36.6728 87.9426 35.9297C89.7905 35.0555 91.1583 33.7443 91.7258 31.7045C92.3369 29.5045 90.9255 27.625 88.6702 27.625C87.2442 27.625 85.8183 27.6395 84.3924 27.6104C83.985 27.6104 83.7667 27.7415 83.563 28.0912C82.2098 30.4806 80.8276 32.8555 79.4453 35.2304C79.1252 35.784 78.8196 36.3377 78.4849 36.935ZM89.1358 18.4315C91.1728 18.3586 93.079 18.3878 94.9705 18.2129C96.8329 18.0381 98.4772 17.2513 99.7431 15.8235C100.645 14.8182 101.213 13.6381 101.154 12.2394C101.096 10.8552 100.092 9.38369 98.3462 9.47111C97.1676 9.52939 95.9745 9.48568 94.7959 9.45654C94.4176 9.44197 94.2138 9.5731 94.0247 9.90821C92.8752 11.9334 91.7113 13.9294 90.5472 15.9546C90.0962 16.7268 89.6596 17.499 89.1358 18.4315Z" fill="#ED0600" fill-opacity="0.8"/>
<path d="M37.0879 14.8766C37.1752 14.6872 37.2044 14.556 37.2626 14.454C37.8591 13.4196 38.4557 12.3997 39.0377 11.3652C39.1977 11.0884 39.3724 10.9573 39.707 10.9427C43.3009 10.7242 46.8948 10.5056 50.4888 10.2725C54.9411 9.98112 59.3935 9.70428 63.8314 9.41289C64.6171 9.36918 65.4029 9.34004 66.2759 9.29633C66.9306 11.8023 67.5999 14.2938 68.2837 16.9309C57.8512 16.2607 47.5059 15.5614 37.0879 14.8766Z" fill="#ED0600" fill-opacity="0.8"/>
<path d="M24.5762 36.7602C24.5907 36.6436 24.5762 36.5707 24.6053 36.5125C25.2455 35.3906 25.8857 34.2541 26.5404 33.1468C26.6277 33.0011 26.8752 32.87 27.0643 32.8554C28.7085 32.7097 30.3382 32.5932 31.9824 32.4621C35.8382 32.1707 39.6796 31.8647 43.5354 31.5733C45.6743 31.413 47.8278 31.2528 49.9667 31.1071C50.0976 31.0925 50.2285 31.1071 50.4613 31.1071C50.214 31.5442 50.0248 31.9084 49.8211 32.2581C48.8171 33.9919 47.7986 35.7111 46.8237 37.4595C46.5618 37.9257 46.2709 38.0277 45.7761 37.9986C41.4838 37.7363 37.1914 37.4886 32.8991 37.241C30.3091 37.0953 27.7336 36.9641 25.1437 36.8184C24.9691 36.8184 24.7799 36.7747 24.5762 36.7602Z" fill="#ED0600" fill-opacity="0.8"/>
<path d="M50.039 55.6425C50.039 57.3034 50.039 58.9061 50.039 60.5816C50.2282 60.4796 50.3737 60.4359 50.4755 60.363C52.6581 58.7021 56.5576 58.775 58.7692 61.8055C60.9081 64.734 60.3698 69.0612 57.6343 71.3486C55.6992 72.9659 51.916 73.097 50.1263 71.1592C50.0536 71.0864 49.9663 71.0427 49.8063 70.9407C49.7772 71.3778 49.7625 71.742 49.7334 72.1354C48.8168 72.1354 47.9293 72.1354 46.998 72.1354C46.998 66.628 46.998 61.1644 46.998 55.6425C47.9875 55.6425 48.9623 55.6425 50.039 55.6425ZM57.0232 65.8413C57.0232 65.7393 57.0087 65.5353 56.9941 65.3459C56.7759 63.2187 54.8115 61.7617 52.7308 62.1843C50.752 62.5777 49.457 64.734 49.9517 66.7883C50.4173 68.6969 52.0178 69.9062 53.8366 69.7314C55.7136 69.542 57.0086 67.9976 57.0232 65.8413Z" fill="#ED0600" fill-opacity="0.8"/>
<path d="M27.1948 59.7659C27.8932 62.1116 28.6062 64.4865 29.3191 66.8613C29.3628 66.8613 29.4209 66.8759 29.4646 66.8759C30.1048 64.4865 30.7596 62.097 31.3998 59.7076C32.2292 59.7076 33.0003 59.7076 33.8442 59.7076C34.4844 62.0825 35.1101 64.4719 35.7503 66.8613C35.7939 66.8613 35.8376 66.8759 35.8813 66.8759C35.954 66.6428 36.0413 66.4097 36.114 66.1766C36.7106 64.1805 37.3218 62.1844 37.9038 60.1738C38.0056 59.8242 38.1656 59.6639 38.5439 59.6785C39.446 59.7076 40.3336 59.693 41.323 59.693C41.2503 59.9553 41.2066 60.1447 41.1484 60.3195C39.7807 64.064 38.413 67.7938 37.0598 71.5237C36.827 72.1647 36.827 72.1647 36.114 72.1647C35.7212 72.1647 35.3284 72.1647 34.8919 72.1647C34.1498 69.6005 33.4223 67.0799 32.6802 64.5739C32.6366 64.5739 32.5784 64.5739 32.5348 64.5739C32.462 64.7633 32.3892 64.9527 32.331 65.1567C31.7054 67.2839 31.0942 69.4256 30.4686 71.5528C30.2794 72.1793 30.2795 72.1793 29.6102 72.1793C28.3879 72.1793 28.3734 72.1939 27.9514 71.0574C26.6273 67.415 25.3324 63.7726 24.0228 60.1447C23.9937 60.0427 23.9646 59.9407 23.9355 59.8387C24.4012 59.6639 26.2781 59.6202 27.1948 59.7659Z" fill="#ED0600" fill-opacity="0.8"/>
<path d="M131.942 67.3129C128.784 67.3129 125.642 67.3129 122.455 67.3129C122.644 68.1288 123.139 68.6533 123.721 69.0904C125.074 70.0957 127.3 70.0082 128.377 68.4784C128.479 68.3327 128.668 68.187 128.828 68.187C129.73 68.1579 130.632 68.1725 131.534 68.187C131.593 68.187 131.651 68.2453 131.694 68.2599C131.185 71.0136 127.562 73.097 124.434 72.4705C120.767 71.7275 118.527 68.187 119.356 64.4426C120.171 60.7128 123.706 58.5128 127.388 59.4161C130.647 60.2174 132.815 63.9036 131.942 67.3129ZM128.944 64.7923C128.697 63.1896 127.402 62.0678 125.787 62.0386C124.026 62.024 122.572 63.3499 122.382 64.7923C124.579 64.7923 126.762 64.7923 128.944 64.7923Z" fill="#ED0600" fill-opacity="0.8"/>
<path d="M24.4583 67.3275C21.2864 67.3275 18.1435 67.3275 15.0007 67.3275C15.248 68.4785 16.3685 69.4984 17.6052 69.6878C18.9148 69.8918 20.0497 69.5858 20.8645 68.4639C20.9663 68.3182 21.17 68.1871 21.3301 68.1726C22.2759 68.1434 23.2071 68.158 24.2547 68.158C24.1819 68.4202 24.1528 68.5951 24.0655 68.7699C22.9743 71.2468 20.297 72.8203 17.6198 72.5726C14.8116 72.2958 12.5272 70.358 11.8725 67.7063C11.0867 64.5301 12.5127 61.2956 15.3208 59.8969C19.2349 57.93 23.9637 60.436 24.5748 64.7632C24.7057 65.5937 24.6911 66.4096 24.4583 67.3275ZM21.4756 64.8069C21.1409 62.7672 19.3949 61.995 18.1436 62.0533C16.5285 62.1115 15.088 63.3354 14.928 64.8069C17.0959 64.8069 19.2639 64.8069 21.4756 64.8069Z" fill="#ED0600" fill-opacity="0.8"/>
<path d="M73.872 72.1356C72.9408 72.1356 72.0678 72.1356 71.1366 72.1356C71.122 71.7422 71.0929 71.378 71.0784 70.8972C70.8456 71.072 70.6564 71.1886 70.4818 71.3197C67.4408 73.6072 63.2649 72.6893 61.5625 69.3091C60.5585 67.2985 60.4858 65.2004 61.3152 63.117C62.0136 61.3686 63.2795 60.1593 65.0691 59.5911C67.0625 58.9646 68.9249 59.2414 70.5691 60.6255C70.6855 60.7275 70.8019 60.815 70.9183 60.9169C70.9328 60.9315 70.962 60.9315 71.0638 60.9752C71.0929 60.5673 71.122 60.1739 71.1511 59.7368C72.0678 59.7368 72.9553 59.7368 73.872 59.7368C73.872 63.8746 73.872 67.9687 73.872 72.1356ZM70.9911 65.9143C70.9911 65.7541 71.0056 65.6084 70.9911 65.4481C70.8456 63.3064 68.954 61.8057 66.8297 62.1554C65.3892 62.3885 64.3125 63.4958 63.9196 65.113C63.3085 67.6918 65.4474 70.0813 68.0082 69.6879C69.7833 69.4402 70.9911 67.8958 70.9911 65.9143Z" fill="#ED0600" fill-opacity="0.8"/>
<path d="M92.3361 72.1356C91.4048 72.1356 90.5318 72.1356 89.6006 72.1356C89.586 71.7422 89.5715 71.3779 89.5424 70.9263C89.3532 71.0428 89.2223 71.1157 89.0913 71.2031C85.3519 74.117 80.2446 72.1501 79.4006 67.4878C79.0514 65.55 79.2552 63.7288 80.3319 62.0387C82.2526 59.0519 86.5886 58.2652 89.2077 60.7712C89.2804 60.844 89.3678 60.8877 89.5278 61.0043C89.5569 60.5381 89.5715 60.1592 89.6006 59.7221C90.5172 59.7221 91.4048 59.7221 92.3361 59.7221C92.3361 63.8599 92.3361 67.9686 92.3361 72.1356ZM89.4841 65.958C89.4696 65.6812 89.4696 65.4626 89.4405 65.2441C89.1059 62.6507 86.2831 61.252 84.086 62.6361C82.7619 63.4666 82.2526 64.7778 82.3399 66.3077C82.4708 68.8282 85.1044 70.46 87.3889 69.411C88.8585 68.7554 89.4114 67.4587 89.4841 65.958Z" fill="#ED0600" fill-opacity="0.8"/>
<path d="M19.8164 47.7605C19.3508 47.7605 18.8998 47.7751 18.4342 47.7605C18.376 47.7605 18.3178 47.7168 18.2305 47.6877C18.2887 47.542 18.3177 47.3817 18.3905 47.2652C18.9725 46.2307 19.5837 45.2108 20.1657 44.1764C20.3257 43.885 20.544 43.8121 20.8495 43.783C23.3522 43.6082 25.8403 43.4333 28.343 43.2585C31.7187 43.0254 35.0943 42.7777 38.4554 42.5446C40.1578 42.428 41.8748 42.3115 43.5771 42.2095C43.6936 42.1949 43.8245 42.2095 44.0282 42.2095C43.9409 42.4135 43.8972 42.5592 43.8245 42.6757C42.9224 44.2347 42.0202 45.7936 41.1036 47.3526C41.0454 47.4691 40.9581 47.5566 40.8708 47.6731C34.0176 47.6731 27.1498 47.6731 20.2966 47.6731C20.1511 47.6585 19.991 47.7314 19.8164 47.7605Z" fill="#ED0600" fill-opacity="0.8"/>
<path d="M43.3887 3.9347C43.5051 3.67244 43.5778 3.49761 43.6651 3.32278C44.1889 2.40489 44.7419 1.50157 45.2366 0.569118C45.4548 0.1466 45.7313 -0.0136652 46.2114 0.000904378C49.5435 0.015474 52.89 0.0154771 56.2221 0.0154771C58.5065 0.0154771 60.7909 0.0154771 63.0753 0.0154771C63.3081 0.0154771 63.5554 0.0154771 63.861 0.0154771C64.3266 1.76383 64.7777 3.46847 65.2724 5.30424C57.9391 4.85259 50.7075 4.38635 43.3887 3.9347Z" fill="#ED0600" fill-opacity="0.8"/>
<path d="M104.908 72.1355C103.875 72.1355 102.915 72.1355 101.896 72.1355C101.882 71.8732 101.867 71.6401 101.867 71.407C101.867 69.5421 101.896 67.6626 101.853 65.7977C101.838 65.0838 101.736 64.3407 101.533 63.6559C101.227 62.6361 100.383 62.0679 99.4083 62.097C98.4043 62.1407 97.4586 62.8109 97.1967 63.7725C97.0366 64.3407 96.9638 64.9381 96.9492 65.5209C96.9201 67.4586 96.9347 69.3964 96.9347 71.3196C96.9347 71.5527 96.9347 71.8004 96.9347 72.0918C95.9161 72.0918 94.9413 72.0918 93.9082 72.0918C93.9082 67.9831 93.9082 63.8599 93.9082 59.7076C94.8249 59.7076 95.7125 59.7076 96.6437 59.7076C96.6728 59.9698 96.7164 60.2175 96.7455 60.538C96.9492 60.3923 97.1093 60.2903 97.2548 60.1738C99.7139 58.2214 104.123 59.4745 104.734 63.0586C104.865 63.8308 104.938 64.6321 104.952 65.4189C104.981 67.4878 104.967 69.5567 104.967 71.6256C104.967 71.7858 104.938 71.9315 104.908 72.1355Z" fill="#ED0600" fill-opacity="0.8"/>
<path d="M0 59.6931C0.843903 59.6931 1.62967 59.6931 2.42992 59.6931C2.53177 59.6931 2.63359 59.7223 2.76455 59.7514C2.79365 60.0137 2.82274 60.2468 2.85184 60.5528C3.04099 60.4362 3.1865 60.3488 3.31745 60.2468C5.67456 58.2799 10.2724 59.3726 10.8689 63.2044C10.9708 63.8164 11.029 64.4283 11.0435 65.0402C11.0581 67.2403 11.0581 69.4403 11.0581 71.6403C11.0581 71.786 11.0435 71.9463 11.029 72.1357C10.025 72.1357 9.05012 72.1357 7.98796 72.1357C7.98796 71.8734 7.98796 71.6403 7.98796 71.4072C7.98796 69.5423 8.00259 67.6628 7.97349 65.7979C7.95894 65.1714 7.88612 64.5157 7.72607 63.9184C7.43507 62.7528 6.63486 62.1263 5.58726 62.1263C4.51056 62.1117 3.53566 62.8402 3.27376 63.9329C3.11371 64.5594 3.07011 65.2296 3.05556 65.8853C3.02646 67.7065 3.041 69.5277 3.041 71.3635C3.041 71.5966 3.041 71.8443 3.041 72.1357C2.00795 72.1357 1.03308 72.1357 0.0291285 72.1357C2.84187e-05 67.9979 0 63.8892 0 59.6931Z" fill="#ED0600" fill-opacity="0.8"/>
<path d="M118.716 68.056C118.381 70.6057 115.223 72.7766 112.153 72.558C108.778 72.3249 105.882 69.5712 105.94 65.7831C105.999 62.3009 108.69 59.4598 112.197 59.2704C115.602 59.0956 118.265 61.4559 118.73 63.8745C117.668 63.8745 116.62 63.889 115.573 63.8599C115.442 63.8599 115.267 63.6996 115.18 63.5685C114.423 62.3738 113.332 61.9221 111.964 62.1552C110.567 62.4029 109.636 63.2334 109.214 64.603C108.69 66.2639 109.214 68.0123 110.48 69.003C111.95 70.1394 113.827 69.9646 114.991 68.5076C115.311 68.1143 115.616 67.9686 116.097 67.9977C116.78 68.0269 117.464 67.9977 118.134 68.0123C118.337 68.0268 118.526 68.056 118.716 68.056Z" fill="#ED0600" fill-opacity="0.8"/>
<path d="M78.4116 55.6282C78.4116 61.121 78.4116 66.5846 78.4116 72.0483C77.9751 72.2085 76.4182 72.2522 75.4434 72.1211C75.4434 66.6429 75.4434 61.1647 75.4434 55.6427C76.4182 55.6282 77.3931 55.6282 78.4116 55.6282Z" fill="#ED0600" fill-opacity="0.8"/>
<path d="M101.43 45.9682C101.43 44.9775 102.186 44.2198 103.19 44.2344C104.165 44.249 104.907 44.9775 104.907 45.9391C104.922 46.9735 104.209 47.6874 103.19 47.702C102.157 47.6874 101.43 46.9735 101.43 45.9682ZM102.856 46.4636C102.827 46.6238 102.783 46.7841 102.754 46.9444C102.71 46.9589 102.667 46.9881 102.637 47.0026C102.594 46.9152 102.506 46.8278 102.506 46.7404C102.506 46.1576 102.521 45.5894 102.536 45.0066C102.783 44.9775 103.03 44.9629 103.278 44.9337C102.987 44.6861 102.725 44.6569 102.477 44.8755C102.07 45.094 101.808 45.6185 101.866 46.0847C101.939 46.6821 102.346 47.1192 102.899 47.2212C103.307 47.3377 103.671 47.2649 103.976 46.9589C104.776 46.245 104.675 45.2688 103.641 44.7589C104.005 45.2834 104.18 45.7642 103.67 46.143C103.787 46.449 103.889 46.7112 103.991 46.9735C103.423 47.0172 103.423 46.449 103.161 46.1722C103.307 45.9245 103.467 45.6768 103.7 45.2834C103.292 45.3854 103.059 45.4583 102.768 45.5311C102.87 45.7496 102.943 45.9245 103.016 46.0993C102.943 46.245 102.899 46.3616 102.856 46.4636Z" fill="#ED0600" fill-opacity="0.8"/>
<path d="M54.7969 47.6293C55.1315 47.6438 55.4516 47.6584 55.7863 47.6584C63.5271 47.6584 71.2678 47.6584 79.0232 47.6584C79.3288 47.6584 79.6343 47.673 79.9399 47.673C79.9399 47.7021 79.9399 47.7313 79.9253 47.7604C79.7071 47.775 79.4889 47.7895 79.2706 47.7895C71.3552 47.7895 63.4252 47.7895 55.5098 47.7895C55.277 47.775 55.0297 47.673 54.7969 47.6293Z" fill="#ED0600" fill-opacity="0.8"/>
<path d="M19.8184 47.7604C19.9784 47.7167 20.1531 47.6584 20.3131 47.6584C27.1663 47.6584 34.0342 47.6584 40.8874 47.6584C40.4072 47.7021 39.927 47.775 39.4614 47.775C33.001 47.7895 26.5407 47.775 20.0803 47.775C19.993 47.7895 19.9057 47.775 19.8184 47.7604Z" fill="#ED0600" fill-opacity="0.8"/>
<path d="M79.9238 47.7603C79.9238 47.7312 79.9238 47.7021 79.9384 47.6729C82.4119 47.6729 84.9001 47.6729 87.3736 47.6875C87.2572 47.7166 87.1263 47.7895 87.0099 47.7895C84.6527 47.7749 82.281 47.7603 79.9238 47.7603Z" fill="#ED0600" fill-opacity="0.8"/>
<path d="M103.149 46.2015C103.105 46.187 103.047 46.1578 103.003 46.1433C102.93 45.9684 102.858 45.7936 102.756 45.575C103.047 45.5022 103.28 45.4293 103.687 45.3273C103.454 45.7062 103.294 45.9539 103.149 46.2015Z" fill="#ED0600" fill-opacity="0.8"/>
<path d="M102.521 45.0213C102.507 44.9776 102.492 44.9339 102.463 44.8902C102.71 44.6571 102.972 44.7008 103.263 44.9485C103.016 44.963 102.768 44.9922 102.521 45.0213Z" fill="#ED0600" fill-opacity="0.8"/>
<path d="M102.858 46.4636C102.829 46.6239 102.785 46.7842 102.756 46.9445C102.785 46.7988 102.814 46.6239 102.858 46.4636Z" fill="#ED0600" fill-opacity="0.8"/>
</svg>
