<svg width="166" height="92" viewBox="0 0 166 92" fill="none" xmlns="http://www.w3.org/2000/svg">
<path d="M68.9429 60.432C68.2875 57.9165 67.6504 55.401 66.9768 52.7762C68.2329 52.6851 69.3433 52.5939 70.4537 52.521C74.2401 52.2476 78.0083 51.9924 81.7947 51.719C83.4876 51.5914 85.1806 51.482 86.8917 51.3544C87.7655 51.2815 87.7655 51.2815 88.1478 50.2608C80.7753 49.8051 73.4028 49.3494 65.9756 48.8937C65.1565 45.8496 64.3555 42.842 63.5363 39.7614C63.8093 39.7068 63.9914 39.6703 64.1735 39.6521C68.1965 39.4151 72.2377 39.2146 76.2607 38.9594C80.5022 38.7042 84.7618 38.4308 89.0033 38.1756C90.8965 38.0662 92.7898 37.9386 94.683 37.8657C95.3929 37.8475 95.7388 37.5194 95.9026 36.7721C76.8979 35.569 57.9296 34.366 38.8702 33.1629C38.9613 32.926 39.0159 32.7801 39.0887 32.6343C39.7986 31.3766 40.5268 30.1006 41.2549 28.8429C41.4552 28.4783 41.6918 28.2049 42.2016 28.1867C44.8411 28.0591 47.4624 27.8768 50.1019 27.6945C52.8325 27.5123 55.5813 27.3117 58.3118 27.1477C60.5327 27.0019 62.7536 26.8925 64.9745 26.7649C68.1055 26.5644 71.2183 26.3274 74.3493 26.1269C77.2073 25.9446 80.0471 25.7806 82.9051 25.5983C86.7461 25.3431 90.5689 25.0697 94.4099 24.8145C96.5397 24.6687 98.6878 24.5593 100.818 24.4135C101.346 24.377 101.855 24.3224 102.383 24.3041C103.33 24.2677 103.33 24.2677 103.73 23.2104C97.7776 22.8277 91.8614 22.4266 85.7995 22.0439C86.4913 20.8408 87.092 19.7654 87.6927 18.7081C88.8759 16.6666 90.0592 14.6251 91.2242 12.5653C91.4973 12.0914 91.8068 11.8909 92.3893 11.8544C96.2485 11.6357 100.108 11.3623 103.985 11.1071C106.097 10.9612 108.208 10.8336 110.32 10.7061C111.212 10.6514 111.248 10.6331 111.54 9.61238C105.642 9.19313 99.7618 8.7739 93.8091 8.35466C93.8819 8.09946 93.9184 7.95364 93.9912 7.82604C95.1563 5.76628 96.3577 3.74297 97.5045 1.66498C97.8322 1.06346 98.2144 0.844727 98.9244 0.844727C105.004 0.881183 111.066 0.862958 117.146 0.862958C122.207 0.862958 127.268 0.84472 132.328 0.881176C135.059 0.899404 137.753 1.22751 140.356 2.12068C142.504 2.86803 144.397 3.97994 145.69 5.93033C147.037 7.95364 147.274 10.2321 147.037 12.5835C146.673 16.375 145.016 19.5649 142.559 22.3902C139.41 26.0176 135.441 28.3872 130.963 29.9366C130.654 30.0459 130.344 30.1371 130.016 30.2464C129.962 30.2647 129.907 30.2829 129.762 30.3558C130.18 30.5016 130.508 30.611 130.836 30.7386C133.366 31.6682 135.368 33.1994 136.497 35.6966C136.806 36.4075 136.916 37.2095 137.061 37.9933C137.17 38.5766 137.262 39.1782 137.225 39.7797C137.025 43.4435 135.66 46.6516 133.366 49.477C131.254 52.1018 128.633 54.1251 125.72 55.7656C121.679 58.0441 117.365 59.5206 112.796 60.2315C111.794 60.3773 110.775 60.432 109.774 60.5231C106.679 60.5231 103.566 60.5231 100.472 60.5049C100.089 60.5049 99.7072 60.4867 99.3249 60.4867C89.6405 60.4867 79.9561 60.4867 70.2535 60.4867C69.762 60.4502 69.3615 60.432 68.9429 60.432ZM98.5785 47.0526C98.8334 47.0709 98.9972 47.1073 99.161 47.1073C100.872 47.1073 102.565 47.0891 104.276 47.1255C106.443 47.162 108.481 46.7245 110.411 45.7949C112.723 44.7012 114.434 43.0607 115.144 40.5088C115.909 37.7564 114.143 35.405 111.321 35.405C109.537 35.405 107.753 35.4232 105.969 35.3867C105.46 35.3867 105.186 35.5508 104.932 35.9883C103.239 38.9776 101.509 41.9488 99.78 44.92C99.3795 45.6126 98.9972 46.3053 98.5785 47.0526ZM111.904 23.9031C114.452 23.812 116.837 23.8484 119.203 23.6297C121.533 23.411 123.591 22.4266 125.174 20.6403C126.303 19.3826 127.013 17.9061 126.94 16.1562C126.867 14.4246 125.611 12.5835 123.427 12.6929C121.952 12.7658 120.459 12.7111 118.985 12.6747C118.512 12.6564 118.257 12.8205 118.02 13.2398C116.582 15.7734 115.126 18.2707 113.669 20.8043C113.105 21.7704 112.559 22.7365 111.904 23.9031Z" fill="#3822E4"/>
<path d="M46.7886 19.455C46.8978 19.218 46.9343 19.054 47.0071 18.9264C47.7535 17.6322 48.4998 16.3562 49.2279 15.062C49.4282 14.7157 49.6466 14.5516 50.0653 14.5334C54.5616 14.26 59.0579 13.9866 63.5542 13.6949C69.1245 13.3304 74.6948 12.984 80.247 12.6195C81.23 12.5648 82.2131 12.5283 83.3053 12.4736C84.1244 15.6089 84.9617 18.7259 85.8173 22.0252C72.7652 21.1867 59.8224 20.3117 46.7886 19.455Z" fill="#3822E4"/>
<path d="M31.1336 46.8345C31.1518 46.6887 31.1336 46.5975 31.17 46.5246C31.971 45.1211 32.7719 43.6993 33.5911 42.3139C33.7003 42.1317 34.0098 41.9676 34.2465 41.9494C36.3035 41.7671 38.3424 41.6213 40.3994 41.4572C45.2234 41.0927 50.0292 40.7099 54.8532 40.3453C57.5292 40.1448 60.2233 39.9443 62.8993 39.762C63.0631 39.7438 63.2269 39.762 63.5182 39.762C63.2087 40.3089 62.972 40.7646 62.7172 41.202C61.4611 43.3712 60.1869 45.5221 58.9672 47.7095C58.6395 48.2928 58.2755 48.4204 57.6566 48.3839C52.2865 48.0558 46.9164 47.7459 41.5462 47.436C38.306 47.2538 35.0838 47.0897 31.8436 46.9074C31.6251 46.9074 31.3884 46.8527 31.1336 46.8345Z" fill="#3822E4"/>
<path d="M62.9905 70.458C62.9905 72.536 62.9905 74.5411 62.9905 76.6373C63.2272 76.5097 63.4092 76.455 63.5366 76.3639C66.2672 74.2859 71.1458 74.377 73.9128 78.1685C76.5887 81.8323 75.9152 87.246 72.4929 90.1078C70.0718 92.1311 65.3388 92.2952 63.0997 89.8708C63.0087 89.7797 62.8996 89.725 62.6993 89.5974C62.6629 90.1442 62.6446 90.5999 62.6082 91.0921C61.4614 91.0921 60.351 91.0921 59.186 91.0921C59.186 84.2019 59.186 77.3664 59.186 70.458C60.4239 70.458 61.6434 70.458 62.9905 70.458ZM71.7283 83.2176C71.7283 83.09 71.7102 82.8348 71.692 82.5978C71.4189 79.9366 68.9613 78.1138 66.3582 78.6424C63.8825 79.1345 62.2624 81.8323 62.8813 84.4024C63.4638 86.7903 65.4662 88.3032 67.7417 88.0845C70.09 87.8475 71.7101 85.9153 71.7283 83.2176Z" fill="#3822E4"/>
<path d="M34.4098 75.6164C35.2836 78.5511 36.1756 81.5222 37.0676 84.4934C37.1222 84.4934 37.1949 84.5116 37.2496 84.5116C38.0505 81.5222 38.8697 78.5329 39.6707 75.5435C40.7083 75.5435 41.673 75.5435 42.7288 75.5435C43.5298 78.5146 44.3125 81.504 45.1135 84.4934C45.1681 84.4934 45.2228 84.5116 45.2774 84.5116C45.3684 84.22 45.4776 83.9283 45.5686 83.6367C46.3149 81.1395 47.0795 78.6422 47.8077 76.1267C47.9351 75.6893 48.1352 75.4888 48.6085 75.507C49.7372 75.5435 50.8476 75.5252 52.0855 75.5252C51.9945 75.8533 51.9399 76.0903 51.867 76.309C50.1559 80.9936 48.4448 85.66 46.7519 90.3264C46.4606 91.1284 46.4606 91.1284 45.5686 91.1284C45.0771 91.1284 44.5857 91.1284 44.0395 91.1284C43.1112 87.9203 42.201 84.7668 41.2726 81.6316C41.218 81.6316 41.1452 81.6316 41.0906 81.6316C40.9996 81.8686 40.9085 82.1055 40.8357 82.3607C40.053 85.022 39.2884 87.7015 38.5056 90.3628C38.269 91.1466 38.269 91.1466 37.4317 91.1466C35.9026 91.1466 35.8843 91.1648 35.3564 89.7431C33.6999 85.1861 32.0798 80.6291 30.4415 76.0903C30.4051 75.9627 30.3686 75.8351 30.3322 75.7075C30.9148 75.4888 33.263 75.4341 34.4098 75.6164Z" fill="#3822E4"/>
<path d="M165.459 85.0585C161.509 85.0585 157.577 85.0585 153.59 85.0585C153.827 86.0792 154.446 86.7355 155.174 87.2823C156.867 88.54 159.652 88.4306 160.999 86.5167C161.127 86.3344 161.363 86.1521 161.563 86.1521C162.692 86.1157 163.821 86.1339 164.949 86.1521C165.022 86.1521 165.095 86.2251 165.149 86.2433C164.512 89.6884 159.98 92.295 156.066 91.5112C151.479 90.5815 148.675 86.1522 149.713 81.4676C150.732 76.8012 155.156 74.0488 159.761 75.1789C163.839 76.1815 166.551 80.7931 165.459 85.0585ZM161.709 81.905C161.4 79.8999 159.779 78.4964 157.759 78.4599C155.556 78.4417 153.736 80.1005 153.499 81.905C156.248 81.905 158.978 81.905 161.709 81.905Z" fill="#3822E4"/>
<path d="M30.9881 85.0768C27.0198 85.0768 23.0878 85.0768 19.1558 85.0768C19.4653 86.5168 20.867 87.7928 22.4143 88.0297C24.0527 88.2849 25.4725 87.9021 26.4919 86.4986C26.6193 86.3163 26.8742 86.1523 27.0744 86.134C28.2577 86.0976 29.4227 86.1158 30.7334 86.1158C30.6424 86.4439 30.6059 86.6626 30.4967 86.8814C29.1315 89.9801 25.782 91.9488 22.4326 91.6389C18.9193 91.2926 16.0613 88.8682 15.2421 85.5507C14.2591 81.577 16.0431 77.5304 19.5564 75.7805C24.4531 73.3197 30.3693 76.455 31.1338 81.8687C31.2976 82.9077 31.2794 83.9284 30.9881 85.0768ZM27.2564 81.9234C26.8377 79.3714 24.6534 78.4054 23.0879 78.4783C21.0673 78.5512 19.2651 80.0823 19.0648 81.9234C21.7772 81.9234 24.4895 81.9234 27.2564 81.9234Z" fill="#3822E4"/>
<path d="M92.8083 91.0919C91.6433 91.0919 90.551 91.0919 89.386 91.0919C89.3678 90.5998 89.3314 90.144 89.3132 89.5425C89.022 89.7613 88.7853 89.9071 88.5668 90.0712C84.7623 92.9329 79.5379 91.7846 77.408 87.5557C76.152 85.0402 76.061 82.4154 77.0986 79.8088C77.9724 77.6215 79.5561 76.1085 81.7952 75.3976C84.289 74.6138 86.619 74.9602 88.676 76.6918C88.8217 76.8194 88.9673 76.9288 89.1129 77.0564C89.1311 77.0746 89.1676 77.0746 89.295 77.1293C89.3314 76.6189 89.3678 76.1267 89.4042 75.5799C90.5511 75.5799 91.6615 75.5799 92.8083 75.5799C92.8083 80.7566 92.8083 85.8787 92.8083 91.0919ZM89.204 83.3086C89.204 83.1081 89.2222 82.9258 89.204 82.7253C89.022 80.0458 86.6554 78.1683 83.9977 78.6058C82.1956 78.8974 80.8485 80.2827 80.357 82.306C79.5925 85.5324 82.2684 88.5218 85.4722 88.0296C87.693 87.7197 89.204 85.7876 89.204 83.3086Z" fill="#3822E4"/>
<path d="M115.908 91.0919C114.743 91.0919 113.651 91.0919 112.486 91.0919C112.468 90.5998 112.449 90.1441 112.413 89.579C112.176 89.7248 112.013 89.816 111.849 89.9253C107.17 93.5709 100.781 91.1101 99.7248 85.2772C99.2879 82.8529 99.5428 80.5743 100.89 78.4599C103.293 74.7232 108.718 73.7389 111.994 76.8741C112.085 76.9652 112.195 77.0199 112.395 77.1657C112.431 76.5824 112.449 76.1085 112.486 75.5617C113.633 75.5617 114.743 75.5617 115.908 75.5617C115.908 80.7384 115.908 85.8787 115.908 91.0919ZM112.34 83.3632C112.322 83.0169 112.322 82.7435 112.286 82.4701C111.867 79.2255 108.335 77.4756 105.587 79.2073C103.93 80.2462 103.293 81.8868 103.402 83.8007C103.566 86.9542 106.861 88.9957 109.719 87.6833C111.557 86.863 112.249 85.2407 112.34 83.3632Z" fill="#3822E4"/>
<path d="M25.1804 60.5965C24.5979 60.5965 24.0337 60.6147 23.4511 60.5965C23.3783 60.5965 23.3055 60.5418 23.1963 60.5054C23.2691 60.3231 23.3055 60.1226 23.3965 59.9767C24.1246 58.6826 24.8892 57.4066 25.6174 56.1124C25.8176 55.7479 26.0906 55.6567 26.4729 55.6203C29.604 55.4015 32.7168 55.1828 35.8479 54.9641C40.0711 54.6724 44.2943 54.3625 48.4994 54.0709C50.6292 53.9251 52.7773 53.7793 54.9071 53.6517C55.0528 53.6334 55.2166 53.6517 55.4715 53.6517C55.3622 53.9068 55.3076 54.0891 55.2166 54.2349C54.0879 56.1853 52.9593 58.1357 51.8125 60.0861C51.7397 60.2319 51.6305 60.3413 51.5213 60.4871C42.9473 60.4871 34.3551 60.4871 25.7812 60.4871C25.5991 60.4689 25.3989 60.56 25.1804 60.5965Z" fill="#3822E4"/>
<path d="M54.6712 5.76639C54.8169 5.43829 54.9079 5.21956 55.0171 5.00083C55.6724 3.85247 56.3642 2.72235 56.9831 1.55577C57.2562 1.02716 57.602 0.826654 58.2028 0.844881C62.3714 0.863109 66.5583 0.863113 70.7269 0.863113C73.5849 0.863113 76.4429 0.863113 79.3009 0.863113C79.5922 0.863113 79.9016 0.863113 80.2839 0.863113C80.8664 3.05045 81.4308 5.18311 82.0497 7.47982C72.875 6.91475 63.8277 6.33146 54.6712 5.76639Z" fill="#3822E4"/>
<path d="M131.638 91.0915C130.345 91.0915 129.144 91.0915 127.869 91.0915C127.851 90.7634 127.833 90.4717 127.833 90.1801C127.833 87.8469 127.869 85.4955 127.815 83.1623C127.796 82.2691 127.669 81.3395 127.414 80.4828C127.032 79.2068 125.976 78.496 124.756 78.5324C123.5 78.5871 122.317 79.4256 121.989 80.6286C121.789 81.3395 121.698 82.0869 121.68 82.816C121.643 85.2403 121.662 87.6646 121.662 90.0707C121.662 90.3623 121.662 90.6722 121.662 91.0368C120.387 91.0368 119.168 91.0368 117.875 91.0368C117.875 85.8965 117.875 80.738 117.875 75.543C119.022 75.543 120.133 75.543 121.298 75.543C121.334 75.8711 121.389 76.181 121.425 76.582C121.68 76.3997 121.88 76.2721 122.062 76.1263C125.139 73.6838 130.655 75.2514 131.419 79.7355C131.583 80.7016 131.674 81.7041 131.692 82.6884C131.728 85.2768 131.71 87.8651 131.71 90.4535C131.71 90.654 131.674 90.8363 131.638 91.0915Z" fill="#3822E4"/>
<path d="M0.387512 75.524C1.44331 75.524 2.42637 75.524 3.42755 75.524C3.55498 75.524 3.68237 75.5605 3.8462 75.597C3.8826 75.9251 3.91901 76.2167 3.95541 76.5995C4.19206 76.4537 4.3741 76.3443 4.53793 76.2167C7.48688 73.7559 13.2391 75.123 13.9855 79.917C14.1129 80.6826 14.1857 81.4482 14.2039 82.2137C14.2221 84.9662 14.2221 87.7186 14.2221 90.471C14.2221 90.6533 14.2039 90.8538 14.1857 91.0908C12.9297 91.0908 11.71 91.0908 10.3811 91.0908C10.3811 90.7627 10.3811 90.471 10.3811 90.1794C10.3811 87.8462 10.3994 85.4948 10.363 83.1616C10.3448 82.3778 10.2537 81.5575 10.0535 80.8102C9.68943 79.3519 8.6883 78.5681 7.37765 78.5681C6.0306 78.5499 4.81093 79.4613 4.48327 80.8284C4.28303 81.6122 4.22849 82.4507 4.21029 83.2709C4.17388 85.5494 4.19206 87.828 4.19206 90.1247C4.19206 90.4163 4.19206 90.7262 4.19206 91.0908C2.89963 91.0908 1.67999 91.0908 0.423954 91.0908C0.387548 85.914 0.387512 80.7737 0.387512 75.524Z" fill="#3822E4"/>
<path d="M148.911 85.9883C148.493 89.1782 144.542 91.8941 140.701 91.6207C136.478 91.3291 132.855 87.884 132.928 83.1447C133.001 78.7882 136.369 75.2338 140.756 74.9968C145.016 74.7781 148.347 77.731 148.929 80.7568C147.601 80.7568 146.29 80.7751 144.979 80.7386C144.815 80.7386 144.597 80.5381 144.488 80.374C143.541 78.8793 142.176 78.3143 140.465 78.6059C138.717 78.9158 137.552 79.9548 137.024 81.6682C136.369 83.7462 137.024 85.9336 138.608 87.1731C140.446 88.5949 142.795 88.3761 144.251 86.5533C144.652 86.0612 145.034 85.8789 145.635 85.9154C146.49 85.9518 147.346 85.9154 148.183 85.9336C148.438 85.9518 148.675 85.9883 148.911 85.9883Z" fill="#3822E4"/>
<path d="M98.488 70.4385C98.488 77.3104 98.488 84.1459 98.488 90.9814C97.9419 91.1819 95.9941 91.2366 94.7744 91.0725C94.7744 84.2188 94.7744 77.3651 94.7744 70.4567C95.9941 70.4385 97.2137 70.4385 98.488 70.4385Z" fill="#3822E4"/>
<path d="M127.286 58.354C127.286 57.1145 128.232 56.1666 129.489 56.1848C130.708 56.2031 131.637 57.1145 131.637 58.3175C131.655 59.6117 130.763 60.5049 129.489 60.5231C128.196 60.5049 127.286 59.6117 127.286 58.354ZM129.07 58.9737C129.033 59.1742 128.979 59.3747 128.942 59.5752C128.888 59.5935 128.833 59.6299 128.797 59.6481C128.742 59.5388 128.633 59.4294 128.633 59.32C128.633 58.5909 128.651 57.88 128.669 57.1509C128.979 57.1145 129.288 57.0962 129.598 57.0598C129.234 56.7499 128.906 56.7134 128.596 56.9869C128.087 57.2603 127.759 57.9165 127.832 58.4998C127.923 59.2471 128.433 59.794 129.124 59.9216C129.634 60.0674 130.089 59.9763 130.472 59.5935C131.473 58.7003 131.345 57.479 130.053 56.841C130.508 57.4972 130.726 58.0988 130.089 58.5727C130.235 58.9555 130.362 59.2836 130.49 59.6117C129.78 59.6664 129.78 58.9555 129.452 58.6092C129.634 58.2993 129.834 57.9894 130.126 57.4972C129.616 57.6248 129.325 57.716 128.961 57.8071C129.088 58.0805 129.179 58.2993 129.27 58.518C129.179 58.7003 129.124 58.8461 129.07 58.9737Z" fill="#3822E4"/>
<path d="M68.942 60.4316C69.3607 60.4499 69.7612 60.4681 70.1799 60.4681C79.8643 60.4681 89.5486 60.4681 99.2512 60.4681C99.6335 60.4681 100.016 60.4863 100.398 60.4863C100.398 60.5228 100.398 60.5592 100.38 60.5957C100.107 60.6139 99.8338 60.6322 99.5608 60.6322C89.6579 60.6322 79.7368 60.6322 69.834 60.6322C69.5427 60.6139 69.2333 60.4863 68.942 60.4316Z" fill="#3822E4"/>
<path d="M25.1812 60.5964C25.3814 60.5417 25.5999 60.4688 25.8002 60.4688C34.3742 60.4688 42.9664 60.4688 51.5404 60.4688C50.9396 60.5234 50.3388 60.6146 49.7563 60.6146C41.6738 60.6328 33.5914 60.6146 25.509 60.6146C25.3997 60.6328 25.2904 60.6146 25.1812 60.5964Z" fill="#3822E4"/>
<path d="M100.38 60.5957C100.38 60.5592 100.38 60.5228 100.398 60.4863C103.493 60.4863 106.606 60.4863 109.701 60.5046C109.555 60.541 109.391 60.6322 109.245 60.6322C106.296 60.6139 103.329 60.5957 100.38 60.5957Z" fill="#3822E4"/>
<path d="M129.435 58.6455C129.38 58.6272 129.307 58.5908 129.253 58.5726C129.162 58.3538 129.07 58.1351 128.943 57.8616C129.307 57.7705 129.598 57.6794 130.108 57.5518C129.817 58.0257 129.617 58.3356 129.435 58.6455Z" fill="#3822E4"/>
<path d="M128.65 57.1702C128.632 57.1155 128.614 57.0608 128.577 57.0061C128.887 56.7144 129.215 56.7691 129.579 57.079C129.269 57.0972 128.96 57.1337 128.65 57.1702Z" fill="#3822E4"/>
<path d="M129.071 58.9736C129.034 59.1742 128.98 59.3747 128.943 59.5752C128.98 59.3929 129.016 59.1742 129.071 58.9736Z" fill="#3822E4"/>
</svg>
