<svg width="220" height="83" viewBox="0 0 220 83" fill="none" xmlns="http://www.w3.org/2000/svg">
<path d="M19.6405 73.5563C19.0688 74.6668 18.3802 75.5716 17.5749 76.2705C16.7628 76.966 15.8721 77.3898 14.903 77.5419C13.9373 77.6871 12.933 77.4913 11.8902 76.9544C11.8022 76.9091 11.7142 76.8638 11.6261 76.8185C11.5381 76.7731 11.4501 76.7278 11.3621 76.6825L13.4695 72.5892C13.544 72.6276 13.6185 72.6659 13.693 72.7043C13.7675 72.7426 13.842 72.781 13.9165 72.8193C14.3904 73.0634 14.8615 73.1217 15.3297 72.9944C15.8013 72.8603 16.1923 72.492 16.5026 71.8893C16.8024 71.307 16.9531 70.8063 16.9547 70.3874C16.9529 69.9582 16.7557 69.6424 16.3629 69.4402C16.0718 69.2903 15.719 69.31 15.3046 69.4993C14.8937 69.6817 14.4388 69.9829 13.9399 70.4028C13.4445 70.8159 12.9279 71.2952 12.3901 71.8407C11.804 72.4299 11.1576 72.9451 10.4507 73.3864C9.74724 73.8209 8.99135 74.0827 8.18301 74.172C7.36789 74.2577 6.51004 74.0687 5.60945 73.605C4.68177 73.1274 4.022 72.4622 3.63014 71.6094C3.23151 70.7531 3.07926 69.801 3.1734 68.7529C3.27102 67.6981 3.59351 66.6392 4.14087 65.5761C4.70914 64.4724 5.38907 63.576 6.18066 62.8871C6.97574 62.1914 7.8392 61.7622 8.77104 61.5995C9.70288 61.4368 10.6631 61.6099 11.6517 62.1189C11.7398 62.1643 11.8244 62.2078 11.9057 62.2497C11.9869 62.2915 12.0716 62.3351 12.1596 62.3804L10.0521 66.4737C10.0182 66.4563 9.96745 66.4301 9.89974 66.3953C9.82525 66.3569 9.77108 66.329 9.73722 66.3116C9.29708 66.085 8.86016 66.0185 8.42646 66.1121C7.99624 66.199 7.62598 66.5438 7.3157 67.1465C7.0089 67.7423 6.88017 68.2586 6.92951 68.6952C6.98234 69.125 7.21528 69.4462 7.62833 69.6589C7.9195 69.8088 8.24654 69.8058 8.60945 69.65C8.96559 69.4907 9.36048 69.2229 9.79412 68.8465C10.2312 68.4634 10.7133 68.0263 11.2403 67.5352C12.0257 66.7917 12.7874 66.1773 13.5255 65.6921C14.2568 65.2035 15.0079 64.9177 15.7787 64.8348C16.553 64.7452 17.3904 64.9322 18.291 65.3959C19.2322 65.8805 19.9005 66.5458 20.2959 67.3919C20.6844 68.2344 20.8179 69.1897 20.6963 70.2579C20.5782 71.3192 20.2262 72.4187 19.6405 73.5563Z" fill="#ED0600"/>
<path d="M21.79 45.459L18.1439 50.2643L17.7443 47.3511L30.0944 56.7218L27.3115 60.3895L14.9614 51.0188L17.8746 50.6192L14.2355 55.4155L11.5052 53.3439L19.0597 43.3873L21.79 45.459Z" fill="#ED0600"/>
<path d="M35.5038 50.032L27.0082 34.9613L32.4071 30.0138L46.6637 39.8052L43.1852 42.9929L31.5635 34.5213L31.5804 34.5058L38.9823 46.8444L35.5038 50.032ZM35.6379 45.1055L33.2992 42.5535L39.4309 36.9345L41.7695 39.4866L35.6379 45.1055Z" fill="#ED0600"/>
<path d="M50.6896 36.853L41.8022 22.5365L48.15 18.5959C49.7807 17.5836 51.2092 17.1989 52.4355 17.4416C53.6644 17.6738 54.6785 18.4337 55.4778 19.7214C55.9277 20.4461 56.1722 21.1504 56.2113 21.8344C56.2504 22.5183 56.1492 23.1279 55.9078 23.6632C55.6664 24.1985 55.3519 24.6089 54.9644 24.8943C55.401 24.6591 55.8548 24.5164 56.3256 24.4662C56.7964 24.4159 57.2623 24.5166 57.7234 24.7683C58.1868 25.0095 58.6214 25.4569 59.0271 26.1104C59.2842 26.5245 59.5292 26.9192 59.7622 27.2945C59.9952 27.6698 60.2402 28.0646 60.4973 28.4787C60.7102 28.8216 60.9389 29.1323 61.1835 29.4108C61.4305 29.6788 61.6565 29.8478 61.8613 29.9178L57.94 32.3521C57.7361 32.2546 57.5126 32.0751 57.2696 31.8136C57.033 31.5481 56.8083 31.2438 56.5954 30.9009C56.3745 30.545 56.1757 30.2247 55.9989 29.94C55.8222 29.6553 55.6234 29.3349 55.4024 28.9791C55.0811 28.4614 54.718 28.122 54.3132 27.9609C53.9044 27.7934 53.4121 27.8884 52.8362 28.2459L50.2349 29.8607L50.513 28.0341L54.5138 34.479L50.6896 36.853ZM50.2961 27.6847L48.4273 26.9488L51.0674 25.3099C51.3974 25.1051 51.6432 24.8584 51.8047 24.5699C51.9727 24.2773 52.0463 23.9627 52.0256 23.626C52.0073 23.2788 51.8916 22.9337 51.6787 22.5907C51.4177 22.1701 51.0386 21.8989 50.5417 21.7771C50.0512 21.6513 49.5472 21.7491 49.0295 22.0704L46.3118 23.7575L46.705 21.8999L50.2961 27.6847Z" fill="#ED0600"/>
<path d="M74.3574 24.1946L73.4503 6.91799L80.4862 4.88768L88.901 19.9977L84.3678 21.3059L77.7261 8.54972L77.7481 8.54339L78.8906 22.8864L74.3574 24.1946ZM76.6684 19.8417L75.7086 16.5158L83.6994 14.2099L84.6592 17.5358L76.6684 19.8417Z" fill="#ED0600"/>
<path d="M107.399 18.0858L102.784 18.1295L102.624 1.2795L109.078 1.21838C110.358 1.20626 111.476 1.45083 112.433 1.95207C113.389 2.4457 114.135 3.12794 114.669 3.99878C115.202 4.86962 115.474 5.85719 115.485 6.96149C115.495 8.06578 115.242 9.07356 114.725 9.98482C114.208 10.8885 113.476 11.6151 112.529 12.1649C111.583 12.707 110.469 12.9841 109.19 12.9962L107.351 13.0137L107.399 18.0858ZM107.338 11.6771L105.239 9.61766L108.689 9.58499C109.07 9.58138 109.423 9.48664 109.749 9.30076C110.082 9.10719 110.35 8.81903 110.552 8.43629C110.754 8.05356 110.852 7.57659 110.847 7.00541C110.841 6.43422 110.734 5.97444 110.525 5.62606C110.316 5.27768 110.044 5.02892 109.707 4.87977C109.378 4.72294 109.023 4.64633 108.642 4.64994L105.192 4.68261L107.252 2.5838L107.338 11.6771Z" fill="#ED0600"/>
<path d="M120.794 18.4262L123.653 1.81963L131.016 3.08702C132.908 3.41259 134.231 4.07321 134.987 5.06889C135.752 6.05836 136.006 7.29991 135.749 8.79357C135.604 9.63421 135.319 10.3232 134.895 10.8606C134.47 11.398 133.989 11.7868 133.453 12.0268C132.918 12.2669 132.41 12.365 131.931 12.3212C132.413 12.4351 132.847 12.6297 133.233 12.9047C133.618 13.1797 133.9 13.5643 134.077 14.0586C134.264 14.5466 134.292 15.1697 134.161 15.9278C134.079 16.4082 134 16.866 133.925 17.3013C133.85 17.7367 133.771 18.1945 133.689 18.6749C133.62 19.0727 133.585 19.4569 133.583 19.8275C133.59 20.1919 133.647 20.4683 133.753 20.6567L129.205 19.8738C129.117 19.6655 129.069 19.3829 129.061 19.026C129.06 18.6704 129.094 18.2937 129.163 17.8959C129.234 17.4831 129.298 17.1115 129.354 16.7813C129.411 16.451 129.475 16.0795 129.546 15.6667C129.65 15.0662 129.603 14.5714 129.408 14.1822C129.213 13.7855 128.782 13.5296 128.114 13.4146L125.097 12.8953L126.517 11.714L125.23 19.1897L120.794 18.4262ZM126.587 11.3086L125.678 9.51769L128.74 10.0448C129.123 10.1107 129.471 10.0894 129.783 9.98084C130.103 9.8736 130.367 9.68719 130.575 9.42159C130.792 9.14978 130.934 8.81497 131.003 8.41717C131.087 7.92929 130.983 7.47485 130.693 7.05386C130.409 6.63415 129.968 6.37262 129.367 6.26926L126.215 5.72665L127.742 4.59847L126.587 11.3086Z" fill="#ED0600"/>
<path d="M146.168 25.0216C145.152 24.6317 144.251 24.0866 143.468 23.3864C142.691 22.6889 142.083 21.8603 141.643 20.9005C141.204 19.9408 140.976 18.8747 140.961 17.7024C140.946 16.5301 141.193 15.279 141.703 13.9492C142.215 12.6123 142.864 11.5152 143.65 10.6582C144.442 9.80378 145.318 9.16887 146.277 8.75342C147.242 8.34069 148.246 8.13818 149.287 8.14587C150.338 8.14918 151.379 8.34854 152.41 8.74393C153.441 9.13932 154.349 9.68712 155.133 10.3873C155.919 11.0804 156.53 11.902 156.965 12.8519C157.407 13.8045 157.634 14.8621 157.645 16.0246C157.656 17.1871 157.405 18.4368 156.892 19.7737C156.382 21.1035 155.73 22.1992 154.935 23.0607C154.139 23.9221 153.254 24.5614 152.278 24.9785C151.31 25.3984 150.3 25.6066 149.249 25.6033C148.205 25.6027 147.178 25.4088 146.168 25.0216ZM147.445 21.6936C147.971 21.8953 148.534 21.9481 149.134 21.8518C149.743 21.7511 150.339 21.4087 150.922 20.8247C151.512 20.2434 152.044 19.3341 152.519 18.0967C152.996 16.8522 153.207 15.8237 153.151 15.0112C153.099 14.1916 152.88 13.5491 152.496 13.0836C152.114 12.611 151.66 12.2738 151.134 12.072C150.615 11.8729 150.052 11.8202 149.445 11.9138C148.848 12.003 148.256 12.3347 147.669 12.9088C147.084 13.4759 146.553 14.3817 146.076 15.6262C145.599 16.8707 145.385 17.9063 145.435 18.733C145.488 19.5526 145.704 20.2023 146.083 20.682C146.472 21.1573 146.926 21.4945 147.445 21.6936Z" fill="#ED0600"/>
<path d="M179.326 23.2951L169.188 30.007L166.114 34.8893L162.228 32.4426L165.301 27.5603L167 15.5348L171.128 18.1337L169.156 27.4627L167.629 26.501L175.188 20.6901L179.326 23.2951Z" fill="#ED0600"/>
<path d="M185.091 32.4022L188.028 32.2555L183.621 37.1264L183.686 35.5217L188.176 39.5841L185.876 42.1255L181.387 38.063L182.969 37.8464L178.531 42.7513L178.384 39.8145L184.594 45.4329L182.294 47.9743L174.187 40.6389L185.493 28.1439L193.6 35.4793L191.301 38.0206L185.091 32.4022Z" fill="#ED0600"/>
<path d="M200.365 59.9083C199.755 60.3771 199.049 60.7329 198.246 60.9755C197.453 61.2195 196.614 61.3026 195.728 61.2248C194.847 61.153 193.965 60.8748 193.084 60.3902C192.213 59.907 191.394 59.1673 190.628 58.171C189.621 56.8607 189.05 55.5125 188.917 54.1263C188.794 52.7415 189.061 51.4024 189.719 50.1088C190.382 48.8214 191.392 47.6554 192.751 46.611C194.109 45.5666 195.493 44.892 196.901 44.5874C198.321 44.2841 199.68 44.3723 200.981 44.8519C202.286 45.3376 203.442 46.2355 204.45 47.5458C205.285 48.6327 205.814 49.7011 206.035 50.7511C206.261 51.8072 206.253 52.7974 206.013 53.7219C205.777 54.6524 205.388 55.4705 204.845 56.1762C204.473 56.6544 204.069 57.0606 203.634 57.3948L200.815 53.7266C201.008 53.5781 201.168 53.436 201.294 53.3004C201.645 52.9444 201.895 52.5644 202.046 52.1604C202.196 51.7565 202.236 51.3462 202.166 50.9297C202.106 50.5145 201.925 50.1107 201.624 49.7182C201.262 49.2472 200.796 48.9283 200.225 48.7614C199.655 48.5945 198.983 48.6261 198.209 48.8562C197.439 49.0924 196.572 49.5818 195.605 50.3245C194.645 51.0625 193.949 51.7753 193.517 52.4629C193.09 53.1566 192.88 53.8027 192.889 54.4012C192.898 54.9998 193.083 55.5346 193.445 56.0056C193.705 56.3437 193.995 56.5962 194.316 56.763C194.647 56.9312 194.993 57.02 195.356 57.0294C195.719 57.0388 196.085 56.978 196.455 56.8472C196.831 56.7117 197.195 56.5094 197.545 56.2401L200.365 59.9083Z" fill="#ED0600"/>
<path d="M215.389 72.8216L212.644 67.4499L215.442 68.3556L201.636 75.4085L199.542 71.3086L213.347 64.2557L212.442 67.0532L209.703 61.6917L212.755 60.1325L218.441 71.2623L215.389 72.8216Z" fill="#ED0600"/>
</svg>
