<svg width="363" height="344" viewBox="0 0 363 344" fill="none" xmlns="http://www.w3.org/2000/svg">
<path d="M101.457 185V163.094H107.368V185H101.457ZM121.379 185V178.866C121.379 178.55 121.379 178.233 121.379 177.916C121.379 177.599 121.379 177.327 121.379 177.099C121.379 176.554 121.33 176.035 121.231 175.54C121.142 175.045 120.929 174.639 120.592 174.322C120.265 174.005 119.741 173.847 119.018 173.847C118.394 173.847 117.889 173.975 117.503 174.233C117.117 174.49 116.835 174.861 116.656 175.347C116.478 175.832 116.389 176.416 116.389 177.099L115.231 175.911C115.231 174.465 115.523 173.223 116.107 172.183C116.691 171.134 117.488 170.327 118.498 169.762C119.508 169.188 120.647 168.901 121.914 168.901C123.26 168.901 124.33 169.178 125.122 169.733C125.914 170.277 126.483 171.035 126.83 172.005C127.186 172.975 127.364 174.084 127.364 175.332C127.364 175.876 127.364 176.5 127.364 177.203C127.364 177.906 127.364 178.649 127.364 179.431V185H121.379ZM110.404 185V169.228H116.389V185H110.404ZM137.093 185.386C136.162 185.386 135.241 185.272 134.33 185.045C133.419 184.827 132.588 184.495 131.835 184.05C131.093 183.594 130.494 183.025 130.038 182.342C129.593 181.658 129.37 180.856 129.37 179.936C129.37 179.916 129.37 179.891 129.37 179.861C129.37 179.832 129.37 179.807 129.37 179.787H135.296C135.296 179.807 135.296 179.832 135.296 179.861C135.296 179.891 135.296 179.916 135.296 179.936C135.296 180.351 135.474 180.644 135.83 180.812C136.187 180.98 136.667 181.064 137.271 181.064C137.489 181.064 137.741 181.04 138.028 180.99C138.315 180.931 138.563 180.837 138.771 180.708C138.989 180.569 139.098 180.391 139.098 180.173C139.098 179.847 138.87 179.619 138.414 179.49C137.969 179.351 137.187 179.193 136.068 179.015C135.395 178.906 134.682 178.748 133.929 178.54C133.177 178.322 132.469 178.03 131.805 177.663C131.142 177.287 130.602 176.812 130.187 176.238C129.771 175.663 129.563 174.955 129.563 174.114C129.563 172.965 129.909 172.005 130.602 171.233C131.305 170.46 132.231 169.881 133.38 169.495C134.538 169.099 135.8 168.901 137.167 168.901C138.464 168.901 139.682 169.124 140.82 169.569C141.959 170.005 142.885 170.629 143.598 171.441C144.31 172.252 144.667 173.213 144.667 174.322C144.667 174.342 144.667 174.366 144.667 174.396C144.667 174.426 144.667 174.45 144.667 174.47H138.8C138.8 174.45 138.8 174.426 138.8 174.396C138.8 174.366 138.8 174.342 138.8 174.322C138.8 174.045 138.711 173.827 138.533 173.668C138.365 173.5 138.152 173.376 137.895 173.297C137.637 173.218 137.38 173.178 137.122 173.178C136.924 173.178 136.687 173.203 136.409 173.252C136.142 173.292 135.909 173.371 135.711 173.49C135.513 173.609 135.414 173.782 135.414 174.01C135.414 174.208 135.538 174.376 135.786 174.515C136.043 174.653 136.39 174.772 136.825 174.871C137.271 174.96 137.766 175.045 138.31 175.124C138.875 175.203 139.528 175.332 140.271 175.51C141.013 175.688 141.736 175.955 142.439 176.312C143.142 176.658 143.721 177.134 144.177 177.738C144.642 178.332 144.875 179.094 144.875 180.025C144.875 181.025 144.642 181.866 144.177 182.55C143.721 183.233 143.107 183.782 142.335 184.198C141.573 184.614 140.736 184.916 139.825 185.104C138.914 185.292 138.003 185.386 137.093 185.386ZM155.483 185.386C154.8 185.386 154.077 185.332 153.315 185.223C152.562 185.124 151.854 184.911 151.191 184.584C150.527 184.257 149.988 183.767 149.572 183.114C149.156 182.45 148.948 181.564 148.948 180.455C148.948 180.228 148.948 180 148.948 179.772C148.948 179.545 148.948 179.322 148.948 179.104V173.683H145.428V169.228H145.503C146.275 169.228 146.889 169.193 147.344 169.124C147.81 169.054 148.156 168.886 148.384 168.619C148.612 168.351 148.76 167.931 148.829 167.356C148.909 166.782 148.948 165.99 148.948 164.98V164.059H154.948V169.228H159.3V173.683H154.948V178.035C154.948 178.183 154.948 178.332 154.948 178.48C154.948 178.619 154.948 178.762 154.948 178.911C154.948 179.485 155.018 179.97 155.156 180.366C155.295 180.762 155.666 180.96 156.27 180.96C156.626 180.96 156.963 180.926 157.28 180.856C157.597 180.787 157.834 180.718 157.993 180.649V184.97C157.765 185.069 157.433 185.163 156.998 185.252C156.572 185.342 156.067 185.386 155.483 185.386ZM166.495 185.356C165.367 185.356 164.357 185.178 163.466 184.822C162.575 184.455 161.872 183.931 161.357 183.248C160.842 182.554 160.585 181.713 160.585 180.723C160.585 179.554 160.916 178.614 161.58 177.901C162.253 177.188 163.109 176.649 164.149 176.282C165.198 175.916 166.283 175.683 167.401 175.584C168.995 175.436 170.07 175.307 170.624 175.198C171.179 175.089 171.456 174.896 171.456 174.619C171.456 174.609 171.456 174.604 171.456 174.604C171.456 174.238 171.233 173.926 170.788 173.668C170.352 173.401 169.768 173.267 169.035 173.267C168.243 173.267 167.654 173.416 167.268 173.713C166.882 174 166.689 174.421 166.689 174.975H160.792C160.792 173.649 161.164 172.535 161.906 171.634C162.649 170.733 163.644 170.054 164.892 169.599C166.149 169.134 167.545 168.901 169.08 168.901C170.535 168.901 171.896 169.119 173.164 169.554C174.441 169.99 175.476 170.658 176.268 171.559C177.06 172.45 177.456 173.594 177.456 174.99C177.456 175.198 177.456 175.406 177.456 175.614C177.456 175.822 177.456 176.03 177.456 176.238V181.124C177.456 181.559 177.466 181.98 177.486 182.386C177.505 182.792 177.565 183.168 177.664 183.515C177.773 183.881 177.916 184.198 178.094 184.465C178.273 184.723 178.416 184.901 178.525 185H172.674C172.585 184.911 172.456 184.748 172.288 184.51C172.119 184.272 171.981 184 171.872 183.693C171.723 183.248 171.614 182.832 171.545 182.446C171.486 182.05 171.456 181.569 171.456 181.005L172.763 181.911C172.495 182.634 172.04 183.252 171.396 183.767C170.763 184.282 170.015 184.678 169.154 184.955C168.302 185.223 167.416 185.356 166.495 185.356ZM168.278 181.109C168.792 181.109 169.297 180.995 169.792 180.767C170.297 180.54 170.718 180.163 171.055 179.639C171.392 179.104 171.56 178.381 171.56 177.47V176.906L173.09 178.139C172.436 178.366 171.708 178.559 170.906 178.718C170.104 178.866 169.337 178.98 168.604 179.059C167.921 179.129 167.411 179.243 167.075 179.401C166.748 179.55 166.585 179.792 166.585 180.129C166.585 180.465 166.733 180.713 167.03 180.871C167.327 181.03 167.743 181.109 168.278 181.109ZM191.702 182.535C192.752 182.653 193.668 182.856 194.45 183.144C195.232 183.431 195.841 183.861 196.276 184.436C196.712 185 196.93 185.767 196.93 186.738C196.93 187.866 196.559 188.812 195.816 189.574C195.083 190.337 194.034 190.911 192.668 191.297C191.311 191.683 189.697 191.876 187.826 191.876C184.994 191.876 182.767 191.47 181.143 190.658C179.529 189.856 178.722 188.787 178.722 187.45C178.722 187.114 178.762 186.802 178.841 186.515C178.92 186.228 179.029 185.975 179.168 185.757L184.529 186.53C184.499 186.569 184.465 186.634 184.425 186.723C184.385 186.822 184.366 186.955 184.366 187.124C184.366 187.47 184.722 187.748 185.435 187.955C186.148 188.163 186.989 188.267 187.96 188.267C188.613 188.267 189.197 188.218 189.712 188.119C190.227 188.03 190.633 187.896 190.93 187.718C191.227 187.54 191.375 187.337 191.375 187.109C191.375 186.792 191.197 186.564 190.841 186.426C190.484 186.297 190.098 186.208 189.682 186.158L183.727 185.446C182.559 185.307 181.583 184.985 180.801 184.48C180.019 183.965 179.628 183.218 179.628 182.238C179.628 181.634 179.806 181.094 180.163 180.619C180.519 180.134 180.92 179.738 181.366 179.431C181.821 179.114 182.187 178.911 182.465 178.822L185.049 180.203C184.9 180.223 184.737 180.307 184.559 180.455C184.39 180.594 184.306 180.762 184.306 180.96C184.306 181.178 184.44 181.371 184.707 181.54C184.984 181.708 185.469 181.832 186.163 181.911L191.702 182.535ZM192.846 169.228H198.029L195.935 175.198C195.539 176.337 195.024 177.342 194.39 178.213C193.757 179.084 192.93 179.767 191.91 180.262C190.89 180.748 189.583 180.99 187.989 180.99C186.316 180.99 184.856 180.762 183.608 180.307C182.361 179.842 181.395 179.168 180.712 178.287C180.029 177.396 179.687 176.322 179.687 175.064C179.687 173.797 180.029 172.703 180.712 171.782C181.405 170.861 182.341 170.153 183.519 169.658C184.697 169.153 186.019 168.901 187.484 168.901C188.474 168.901 189.41 169.054 190.291 169.361C191.182 169.658 191.905 170.074 192.46 170.609C193.024 171.144 193.306 171.772 193.306 172.495L192.534 172.822L192.846 169.228ZM187.96 176.861C188.415 176.861 188.821 176.792 189.177 176.653C189.544 176.505 189.831 176.292 190.039 176.015C190.257 175.738 190.366 175.401 190.366 175.005C190.366 174.599 190.257 174.262 190.039 173.995C189.831 173.718 189.544 173.51 189.177 173.371C188.821 173.233 188.415 173.163 187.96 173.163C187.514 173.163 187.108 173.233 186.742 173.371C186.375 173.51 186.083 173.718 185.866 173.995C185.648 174.272 185.539 174.619 185.539 175.035C185.539 175.431 185.648 175.767 185.866 176.045C186.083 176.312 186.375 176.515 186.742 176.653C187.108 176.792 187.514 176.861 187.96 176.861ZM199.426 185V169.228H205.426V175.064L204.401 174.262C204.55 173.421 204.782 172.668 205.099 172.005C205.416 171.342 205.812 170.782 206.287 170.327C206.772 169.861 207.327 169.51 207.951 169.272C208.584 169.025 209.287 168.901 210.06 168.901C210.703 168.901 211.188 168.946 211.515 169.035C211.852 169.114 212.06 169.178 212.139 169.228L211.322 174.455C211.233 174.406 211.035 174.332 210.728 174.233C210.421 174.124 210.05 174.069 209.614 174.069C208.842 174.069 208.188 174.193 207.654 174.441C207.119 174.678 206.688 175.005 206.361 175.421C206.035 175.827 205.797 176.287 205.649 176.802C205.5 177.307 205.426 177.822 205.426 178.347V185H199.426ZM219.172 185.356C218.043 185.356 217.033 185.178 216.142 184.822C215.251 184.455 214.548 183.931 214.033 183.248C213.518 182.554 213.261 181.713 213.261 180.723C213.261 179.554 213.593 178.614 214.256 177.901C214.929 177.188 215.786 176.649 216.825 176.282C217.875 175.916 218.959 175.683 220.078 175.584C221.672 175.436 222.746 175.307 223.301 175.198C223.855 175.089 224.132 174.896 224.132 174.619C224.132 174.609 224.132 174.604 224.132 174.604C224.132 174.238 223.909 173.926 223.464 173.668C223.028 173.401 222.444 173.267 221.711 173.267C220.919 173.267 220.33 173.416 219.944 173.713C219.558 174 219.365 174.421 219.365 174.975H213.469C213.469 173.649 213.84 172.535 214.583 171.634C215.325 170.733 216.32 170.054 217.568 169.599C218.825 169.134 220.221 168.901 221.756 168.901C223.211 168.901 224.573 169.119 225.84 169.554C227.117 169.99 228.152 170.658 228.944 171.559C229.736 172.45 230.132 173.594 230.132 174.99C230.132 175.198 230.132 175.406 230.132 175.614C230.132 175.822 230.132 176.03 230.132 176.238V181.124C230.132 181.559 230.142 181.98 230.162 182.386C230.182 182.792 230.241 183.168 230.34 183.515C230.449 183.881 230.593 184.198 230.771 184.465C230.949 184.723 231.093 184.901 231.202 185H225.35C225.261 184.911 225.132 184.748 224.964 184.51C224.796 184.272 224.657 184 224.548 183.693C224.4 183.248 224.291 182.832 224.221 182.446C224.162 182.05 224.132 181.569 224.132 181.005L225.439 181.911C225.172 182.634 224.716 183.252 224.073 183.767C223.439 184.282 222.692 184.678 221.83 184.955C220.979 185.223 220.093 185.356 219.172 185.356ZM220.954 181.109C221.469 181.109 221.974 180.995 222.469 180.767C222.974 180.54 223.395 180.163 223.731 179.639C224.068 179.104 224.236 178.381 224.236 177.47V176.906L225.766 178.139C225.112 178.366 224.385 178.559 223.583 178.718C222.781 178.866 222.013 178.98 221.281 179.059C220.598 179.129 220.088 179.243 219.751 179.401C219.424 179.55 219.261 179.792 219.261 180.129C219.261 180.465 219.409 180.713 219.706 180.871C220.004 181.03 220.419 181.109 220.954 181.109ZM242.908 185V179.46C242.908 178.906 242.908 178.421 242.908 178.005C242.908 177.579 242.908 177.228 242.908 176.95C242.908 176.545 242.888 176.158 242.849 175.792C242.809 175.426 242.725 175.094 242.596 174.797C242.478 174.5 242.294 174.267 242.047 174.099C241.799 173.931 241.468 173.847 241.052 173.847C240.705 173.847 240.398 173.931 240.131 174.099C239.874 174.257 239.656 174.485 239.478 174.782C239.299 175.079 239.166 175.441 239.077 175.866C238.987 176.282 238.943 176.743 238.943 177.248L237.799 175.911C237.799 174.465 238.037 173.223 238.512 172.183C238.987 171.134 239.671 170.327 240.562 169.762C241.463 169.188 242.537 168.901 243.784 168.901C245.171 168.901 246.225 169.203 246.948 169.807C247.681 170.411 248.181 171.203 248.448 172.183C248.715 173.153 248.849 174.203 248.849 175.332C248.849 175.777 248.849 176.396 248.849 177.188C248.849 177.98 248.849 178.95 248.849 180.099V185H242.908ZM232.958 185V169.228H238.943V185H232.958ZM252.784 185V179.49C252.784 178.936 252.784 178.446 252.784 178.02C252.784 177.584 252.784 177.228 252.784 176.95C252.784 176.485 252.76 176.064 252.71 175.688C252.661 175.312 252.572 174.985 252.443 174.708C252.314 174.431 252.126 174.218 251.879 174.069C251.641 173.921 251.329 173.847 250.943 173.847C250.596 173.847 250.289 173.931 250.022 174.099C249.765 174.257 249.547 174.485 249.369 174.782C249.2 175.079 249.072 175.441 248.982 175.866C248.893 176.282 248.849 176.743 248.849 177.248L247.705 175.911C247.705 174.465 247.943 173.223 248.418 172.183C248.893 171.134 249.577 170.327 250.468 169.762C251.359 169.188 252.428 168.901 253.676 168.901C255.062 168.901 256.121 169.203 256.854 169.807C257.586 170.411 258.086 171.203 258.354 172.183C258.631 173.153 258.77 174.203 258.77 175.332C258.77 175.797 258.77 176.411 258.77 177.173C258.77 177.936 258.77 178.896 258.77 180.054V185H252.784Z" fill="#3822E4"/>
<path d="M222.681 118.995C234.903 109.161 250.998 103.426 267.768 103.9C306.669 104.979 337.134 137.25 336.099 175.683C335.021 214.584 302.75 245.049 263.849 243.97C247.079 243.496 231.323 236.878 219.667 226.387C208.403 218.121 194.833 213.312 180.242 212.912C165.22 212.49 150.508 216.961 139.21 224.601C126.556 234.413 111.369 239.725 94.1446 239.264C55.6975 238.172 25.6424 205.959 26.721 167.058C27.8132 128.611 59.6168 98.1026 98.0639 99.1948C115.324 99.6777 130.18 105.834 142.255 115.892C153.043 124.604 167.512 129.875 182.534 130.297C197.147 130.661 210.987 126.636 222.681 118.995Z" stroke="#3822E4" stroke-width="4" stroke-miterlimit="10"/>
</svg>
