<svg width="369" height="350" viewBox="0 0 369 350" fill="none" xmlns="http://www.w3.org/2000/svg">
<path d="M104.457 188V166.094H110.368V188H104.457ZM124.379 188V181.866C124.379 181.55 124.379 181.233 124.379 180.916C124.379 180.599 124.379 180.327 124.379 180.099C124.379 179.554 124.33 179.035 124.231 178.54C124.142 178.045 123.929 177.639 123.592 177.322C123.265 177.005 122.741 176.847 122.018 176.847C121.394 176.847 120.889 176.975 120.503 177.233C120.117 177.49 119.835 177.861 119.656 178.347C119.478 178.832 119.389 179.416 119.389 180.099L118.231 178.911C118.231 177.465 118.523 176.223 119.107 175.183C119.691 174.134 120.488 173.327 121.498 172.762C122.508 172.188 123.647 171.901 124.914 171.901C126.26 171.901 127.33 172.178 128.122 172.733C128.914 173.277 129.483 174.035 129.83 175.005C130.186 175.975 130.364 177.084 130.364 178.332C130.364 178.876 130.364 179.5 130.364 180.203C130.364 180.906 130.364 181.649 130.364 182.431V188H124.379ZM113.404 188V172.228H119.389V188H113.404ZM140.093 188.386C139.162 188.386 138.241 188.272 137.33 188.045C136.419 187.827 135.588 187.495 134.835 187.05C134.093 186.594 133.494 186.025 133.038 185.342C132.593 184.658 132.37 183.856 132.37 182.936C132.37 182.916 132.37 182.891 132.37 182.861C132.37 182.832 132.37 182.807 132.37 182.787H138.296C138.296 182.807 138.296 182.832 138.296 182.861C138.296 182.891 138.296 182.916 138.296 182.936C138.296 183.351 138.474 183.644 138.83 183.812C139.187 183.98 139.667 184.064 140.271 184.064C140.489 184.064 140.741 184.04 141.028 183.99C141.315 183.931 141.563 183.837 141.771 183.708C141.989 183.569 142.098 183.391 142.098 183.173C142.098 182.847 141.87 182.619 141.414 182.49C140.969 182.351 140.187 182.193 139.068 182.015C138.395 181.906 137.682 181.748 136.929 181.54C136.177 181.322 135.469 181.03 134.805 180.663C134.142 180.287 133.602 179.812 133.187 179.238C132.771 178.663 132.563 177.955 132.563 177.114C132.563 175.965 132.909 175.005 133.602 174.233C134.305 173.46 135.231 172.881 136.38 172.495C137.538 172.099 138.8 171.901 140.167 171.901C141.464 171.901 142.682 172.124 143.82 172.569C144.959 173.005 145.885 173.629 146.598 174.441C147.31 175.252 147.667 176.213 147.667 177.322C147.667 177.342 147.667 177.366 147.667 177.396C147.667 177.426 147.667 177.45 147.667 177.47H141.8C141.8 177.45 141.8 177.426 141.8 177.396C141.8 177.366 141.8 177.342 141.8 177.322C141.8 177.045 141.711 176.827 141.533 176.668C141.365 176.5 141.152 176.376 140.895 176.297C140.637 176.218 140.38 176.178 140.122 176.178C139.924 176.178 139.687 176.203 139.409 176.252C139.142 176.292 138.909 176.371 138.711 176.49C138.513 176.609 138.414 176.782 138.414 177.01C138.414 177.208 138.538 177.376 138.786 177.515C139.043 177.653 139.39 177.772 139.825 177.871C140.271 177.96 140.766 178.045 141.31 178.124C141.875 178.203 142.528 178.332 143.271 178.51C144.013 178.688 144.736 178.955 145.439 179.312C146.142 179.658 146.721 180.134 147.177 180.738C147.642 181.332 147.875 182.094 147.875 183.025C147.875 184.025 147.642 184.866 147.177 185.55C146.721 186.233 146.107 186.782 145.335 187.198C144.573 187.614 143.736 187.916 142.825 188.104C141.914 188.292 141.003 188.386 140.093 188.386ZM158.483 188.386C157.8 188.386 157.077 188.332 156.315 188.223C155.562 188.124 154.854 187.911 154.191 187.584C153.527 187.257 152.988 186.767 152.572 186.114C152.156 185.45 151.948 184.564 151.948 183.455C151.948 183.228 151.948 183 151.948 182.772C151.948 182.545 151.948 182.322 151.948 182.104V176.683H148.428V172.228H148.503C149.275 172.228 149.889 172.193 150.344 172.124C150.81 172.054 151.156 171.886 151.384 171.619C151.612 171.351 151.76 170.931 151.829 170.356C151.909 169.782 151.948 168.99 151.948 167.98V167.059H157.948V172.228H162.3V176.683H157.948V181.035C157.948 181.183 157.948 181.332 157.948 181.48C157.948 181.619 157.948 181.762 157.948 181.911C157.948 182.485 158.018 182.97 158.156 183.366C158.295 183.762 158.666 183.96 159.27 183.96C159.626 183.96 159.963 183.926 160.28 183.856C160.597 183.787 160.834 183.718 160.993 183.649V187.97C160.765 188.069 160.433 188.163 159.998 188.252C159.572 188.342 159.067 188.386 158.483 188.386ZM169.495 188.356C168.367 188.356 167.357 188.178 166.466 187.822C165.575 187.455 164.872 186.931 164.357 186.248C163.842 185.554 163.585 184.713 163.585 183.723C163.585 182.554 163.916 181.614 164.58 180.901C165.253 180.188 166.109 179.649 167.149 179.282C168.198 178.916 169.283 178.683 170.401 178.584C171.995 178.436 173.07 178.307 173.624 178.198C174.179 178.089 174.456 177.896 174.456 177.619C174.456 177.609 174.456 177.604 174.456 177.604C174.456 177.238 174.233 176.926 173.788 176.668C173.352 176.401 172.768 176.267 172.035 176.267C171.243 176.267 170.654 176.416 170.268 176.713C169.882 177 169.689 177.421 169.689 177.975H163.792C163.792 176.649 164.164 175.535 164.906 174.634C165.649 173.733 166.644 173.054 167.892 172.599C169.149 172.134 170.545 171.901 172.08 171.901C173.535 171.901 174.896 172.119 176.164 172.554C177.441 172.99 178.476 173.658 179.268 174.559C180.06 175.45 180.456 176.594 180.456 177.99C180.456 178.198 180.456 178.406 180.456 178.614C180.456 178.822 180.456 179.03 180.456 179.238V184.124C180.456 184.559 180.466 184.98 180.486 185.386C180.505 185.792 180.565 186.168 180.664 186.515C180.773 186.881 180.916 187.198 181.094 187.465C181.273 187.723 181.416 187.901 181.525 188H175.674C175.585 187.911 175.456 187.748 175.288 187.51C175.119 187.272 174.981 187 174.872 186.693C174.723 186.248 174.614 185.832 174.545 185.446C174.486 185.05 174.456 184.569 174.456 184.005L175.763 184.911C175.495 185.634 175.04 186.252 174.396 186.767C173.763 187.282 173.015 187.678 172.154 187.955C171.302 188.223 170.416 188.356 169.495 188.356ZM171.278 184.109C171.792 184.109 172.297 183.995 172.792 183.767C173.297 183.54 173.718 183.163 174.055 182.639C174.392 182.104 174.56 181.381 174.56 180.47V179.906L176.09 181.139C175.436 181.366 174.708 181.559 173.906 181.718C173.104 181.866 172.337 181.98 171.604 182.059C170.921 182.129 170.411 182.243 170.075 182.401C169.748 182.55 169.585 182.792 169.585 183.129C169.585 183.465 169.733 183.713 170.03 183.871C170.327 184.03 170.743 184.109 171.278 184.109ZM194.702 185.535C195.752 185.653 196.668 185.856 197.45 186.144C198.232 186.431 198.841 186.861 199.276 187.436C199.712 188 199.93 188.767 199.93 189.738C199.93 190.866 199.559 191.812 198.816 192.574C198.083 193.337 197.034 193.911 195.668 194.297C194.311 194.683 192.697 194.876 190.826 194.876C187.994 194.876 185.767 194.47 184.143 193.658C182.529 192.856 181.722 191.787 181.722 190.45C181.722 190.114 181.762 189.802 181.841 189.515C181.92 189.228 182.029 188.975 182.168 188.757L187.529 189.53C187.499 189.569 187.465 189.634 187.425 189.723C187.385 189.822 187.366 189.955 187.366 190.124C187.366 190.47 187.722 190.748 188.435 190.955C189.148 191.163 189.989 191.267 190.96 191.267C191.613 191.267 192.197 191.218 192.712 191.119C193.227 191.03 193.633 190.896 193.93 190.718C194.227 190.54 194.375 190.337 194.375 190.109C194.375 189.792 194.197 189.564 193.841 189.426C193.484 189.297 193.098 189.208 192.682 189.158L186.727 188.446C185.559 188.307 184.583 187.985 183.801 187.48C183.019 186.965 182.628 186.218 182.628 185.238C182.628 184.634 182.806 184.094 183.163 183.619C183.519 183.134 183.92 182.738 184.366 182.431C184.821 182.114 185.187 181.911 185.465 181.822L188.049 183.203C187.9 183.223 187.737 183.307 187.559 183.455C187.39 183.594 187.306 183.762 187.306 183.96C187.306 184.178 187.44 184.371 187.707 184.54C187.984 184.708 188.469 184.832 189.163 184.911L194.702 185.535ZM195.846 172.228H201.029L198.935 178.198C198.539 179.337 198.024 180.342 197.39 181.213C196.757 182.084 195.93 182.767 194.91 183.262C193.89 183.748 192.583 183.99 190.989 183.99C189.316 183.99 187.856 183.762 186.608 183.307C185.361 182.842 184.395 182.168 183.712 181.287C183.029 180.396 182.687 179.322 182.687 178.064C182.687 176.797 183.029 175.703 183.712 174.782C184.405 173.861 185.341 173.153 186.519 172.658C187.697 172.153 189.019 171.901 190.484 171.901C191.474 171.901 192.41 172.054 193.291 172.361C194.182 172.658 194.905 173.074 195.46 173.609C196.024 174.144 196.306 174.772 196.306 175.495L195.534 175.822L195.846 172.228ZM190.96 179.861C191.415 179.861 191.821 179.792 192.177 179.653C192.544 179.505 192.831 179.292 193.039 179.015C193.257 178.738 193.366 178.401 193.366 178.005C193.366 177.599 193.257 177.262 193.039 176.995C192.831 176.718 192.544 176.51 192.177 176.371C191.821 176.233 191.415 176.163 190.96 176.163C190.514 176.163 190.108 176.233 189.742 176.371C189.375 176.51 189.083 176.718 188.866 176.995C188.648 177.272 188.539 177.619 188.539 178.035C188.539 178.431 188.648 178.767 188.866 179.045C189.083 179.312 189.375 179.515 189.742 179.653C190.108 179.792 190.514 179.861 190.96 179.861ZM202.426 188V172.228H208.426V178.064L207.401 177.262C207.55 176.421 207.782 175.668 208.099 175.005C208.416 174.342 208.812 173.782 209.287 173.327C209.772 172.861 210.327 172.51 210.951 172.272C211.584 172.025 212.287 171.901 213.06 171.901C213.703 171.901 214.188 171.946 214.515 172.035C214.852 172.114 215.06 172.178 215.139 172.228L214.322 177.455C214.233 177.406 214.035 177.332 213.728 177.233C213.421 177.124 213.05 177.069 212.614 177.069C211.842 177.069 211.188 177.193 210.654 177.441C210.119 177.678 209.688 178.005 209.361 178.421C209.035 178.827 208.797 179.287 208.649 179.802C208.5 180.307 208.426 180.822 208.426 181.347V188H202.426ZM222.172 188.356C221.043 188.356 220.033 188.178 219.142 187.822C218.251 187.455 217.548 186.931 217.033 186.248C216.518 185.554 216.261 184.713 216.261 183.723C216.261 182.554 216.593 181.614 217.256 180.901C217.929 180.188 218.786 179.649 219.825 179.282C220.875 178.916 221.959 178.683 223.078 178.584C224.672 178.436 225.746 178.307 226.301 178.198C226.855 178.089 227.132 177.896 227.132 177.619C227.132 177.609 227.132 177.604 227.132 177.604C227.132 177.238 226.909 176.926 226.464 176.668C226.028 176.401 225.444 176.267 224.711 176.267C223.919 176.267 223.33 176.416 222.944 176.713C222.558 177 222.365 177.421 222.365 177.975H216.469C216.469 176.649 216.84 175.535 217.583 174.634C218.325 173.733 219.32 173.054 220.568 172.599C221.825 172.134 223.221 171.901 224.756 171.901C226.211 171.901 227.573 172.119 228.84 172.554C230.117 172.99 231.152 173.658 231.944 174.559C232.736 175.45 233.132 176.594 233.132 177.99C233.132 178.198 233.132 178.406 233.132 178.614C233.132 178.822 233.132 179.03 233.132 179.238V184.124C233.132 184.559 233.142 184.98 233.162 185.386C233.182 185.792 233.241 186.168 233.34 186.515C233.449 186.881 233.593 187.198 233.771 187.465C233.949 187.723 234.093 187.901 234.202 188H228.35C228.261 187.911 228.132 187.748 227.964 187.51C227.796 187.272 227.657 187 227.548 186.693C227.4 186.248 227.291 185.832 227.221 185.446C227.162 185.05 227.132 184.569 227.132 184.005L228.439 184.911C228.172 185.634 227.716 186.252 227.073 186.767C226.439 187.282 225.692 187.678 224.83 187.955C223.979 188.223 223.093 188.356 222.172 188.356ZM223.954 184.109C224.469 184.109 224.974 183.995 225.469 183.767C225.974 183.54 226.395 183.163 226.731 182.639C227.068 182.104 227.236 181.381 227.236 180.47V179.906L228.766 181.139C228.112 181.366 227.385 181.559 226.583 181.718C225.781 181.866 225.013 181.98 224.281 182.059C223.598 182.129 223.088 182.243 222.751 182.401C222.424 182.55 222.261 182.792 222.261 183.129C222.261 183.465 222.409 183.713 222.706 183.871C223.004 184.03 223.419 184.109 223.954 184.109ZM245.908 188V182.46C245.908 181.906 245.908 181.421 245.908 181.005C245.908 180.579 245.908 180.228 245.908 179.95C245.908 179.545 245.888 179.158 245.849 178.792C245.809 178.426 245.725 178.094 245.596 177.797C245.478 177.5 245.294 177.267 245.047 177.099C244.799 176.931 244.468 176.847 244.052 176.847C243.705 176.847 243.398 176.931 243.131 177.099C242.874 177.257 242.656 177.485 242.478 177.782C242.299 178.079 242.166 178.441 242.077 178.866C241.987 179.282 241.943 179.743 241.943 180.248L240.799 178.911C240.799 177.465 241.037 176.223 241.512 175.183C241.987 174.134 242.671 173.327 243.562 172.762C244.463 172.188 245.537 171.901 246.784 171.901C248.171 171.901 249.225 172.203 249.948 172.807C250.681 173.411 251.181 174.203 251.448 175.183C251.715 176.153 251.849 177.203 251.849 178.332C251.849 178.777 251.849 179.396 251.849 180.188C251.849 180.98 251.849 181.95 251.849 183.099V188H245.908ZM235.958 188V172.228H241.943V188H235.958ZM255.784 188V182.49C255.784 181.936 255.784 181.446 255.784 181.02C255.784 180.584 255.784 180.228 255.784 179.95C255.784 179.485 255.76 179.064 255.71 178.688C255.661 178.312 255.572 177.985 255.443 177.708C255.314 177.431 255.126 177.218 254.879 177.069C254.641 176.921 254.329 176.847 253.943 176.847C253.596 176.847 253.289 176.931 253.022 177.099C252.765 177.257 252.547 177.485 252.369 177.782C252.2 178.079 252.072 178.441 251.982 178.866C251.893 179.282 251.849 179.743 251.849 180.248L250.705 178.911C250.705 177.465 250.943 176.223 251.418 175.183C251.893 174.134 252.577 173.327 253.468 172.762C254.359 172.188 255.428 171.901 256.676 171.901C258.062 171.901 259.121 172.203 259.854 172.807C260.586 173.411 261.086 174.203 261.354 175.183C261.631 176.153 261.77 177.203 261.77 178.332C261.77 178.797 261.77 179.411 261.77 180.173C261.77 180.936 261.77 181.896 261.77 183.054V188H255.784Z" fill="#ED0600"/>
<path d="M225.681 121.995C237.903 112.161 253.998 106.426 270.768 106.9C309.669 107.979 340.134 140.25 339.099 178.683C338.021 217.584 305.75 248.049 266.849 246.97C250.079 246.496 234.323 239.878 222.667 229.387C211.403 221.121 197.833 216.312 183.242 215.912C168.22 215.49 153.508 219.961 142.21 227.601C129.556 237.413 114.369 242.725 97.1446 242.264C58.6975 241.172 28.6424 208.959 29.721 170.058C30.8132 131.611 62.6168 101.103 101.064 102.195C118.324 102.678 133.18 108.834 145.255 118.892C156.043 127.604 170.512 132.875 185.534 133.297C200.147 133.661 213.987 129.636 225.681 121.995Z" stroke="#ED0600" stroke-width="4" stroke-miterlimit="10"/>
</svg>
