<svg width="339" height="127" viewBox="0 0 339 127" fill="none" xmlns="http://www.w3.org/2000/svg">
<path d="M337 63.5C337 71.4894 332.685 79.3406 324.354 86.7199C316.025 94.097 303.859 100.832 288.653 106.528C258.256 117.916 216.13 125 169.5 125C122.87 125 80.7435 117.916 50.347 106.528C35.1414 100.832 22.9751 94.097 14.6462 86.7199C6.3149 79.3406 2 71.4894 2 63.5C2 55.5106 6.3149 47.6594 14.6462 40.2801C22.9751 32.903 35.1414 26.1681 50.347 20.4716C80.7435 9.08413 122.87 2 169.5 2C216.13 2 258.256 9.08413 288.653 20.4716C303.859 26.1681 316.025 32.903 324.354 40.2801C332.685 47.6594 337 55.5106 337 63.5Z" stroke="#ED0600" stroke-width="4"/>
<path d="M42.194 73H36.194V51.0941H44.5851C46.2484 51.0941 47.6989 51.4257 48.9366 52.0891C50.1742 52.7426 51.1346 53.6386 51.8177 54.7772C52.5009 55.9158 52.8425 57.203 52.8425 58.6386C52.8425 60.0743 52.5009 61.3812 51.8177 62.5594C51.1346 63.7277 50.1742 64.6634 48.9366 65.3663C47.6989 66.0594 46.2484 66.4059 44.5851 66.4059H42.194V73ZM42.194 64.6683L39.491 61.9653H43.9762C44.4712 61.9653 44.9316 61.8465 45.3573 61.6089C45.793 61.3614 46.1445 60.9901 46.4118 60.495C46.6791 60 46.8128 59.3812 46.8128 58.6386C46.8128 57.896 46.6791 57.297 46.4118 56.8416C46.1445 56.3861 45.793 56.0594 45.3573 55.8614C44.9316 55.6535 44.4712 55.5495 43.9762 55.5495H39.491L42.194 52.8465V64.6683ZM55.277 73V57.2277H61.277V63.0644L60.2522 62.2624C60.4007 61.4208 60.6334 60.6683 60.9502 60.0049C61.2671 59.3416 61.6631 58.7822 62.1384 58.3267C62.6235 57.8614 63.178 57.5099 63.8017 57.2723C64.4354 57.0248 65.1384 56.901 65.9106 56.901C66.5542 56.901 67.0394 56.9455 67.3661 57.0347C67.7027 57.1139 67.9106 57.1782 67.9899 57.2277L67.173 62.4554C67.0839 62.4059 66.8859 62.3317 66.579 62.2327C66.272 62.1238 65.9007 62.0693 65.4651 62.0693C64.6928 62.0693 64.0394 62.1931 63.5047 62.4406C62.9701 62.6782 62.5394 63.0049 62.2126 63.4208C61.8859 63.8267 61.6483 64.2871 61.4998 64.802C61.3512 65.3069 61.277 65.8218 61.277 66.3465V73H55.277ZM77.9636 73.3713C76.1814 73.3713 74.6121 73.0248 73.2556 72.3317C71.9091 71.6386 70.8546 70.6733 70.0923 69.4356C69.3398 68.198 68.9636 66.7624 68.9636 65.1287C68.9636 63.495 69.3398 62.0594 70.0923 60.8218C70.8546 59.5842 71.9091 58.6238 73.2556 57.9406C74.6121 57.2475 76.1814 56.901 77.9636 56.901C79.7457 56.901 81.3101 57.2475 82.6566 57.9406C84.0131 58.6238 85.0675 59.5842 85.82 60.8218C86.5824 62.0594 86.9636 63.495 86.9636 65.1287C86.9636 66.7624 86.5824 68.198 85.82 69.4356C85.0675 70.6733 84.0131 71.6386 82.6566 72.3317C81.3101 73.0248 79.7457 73.3713 77.9636 73.3713ZM77.9636 68.8416C78.5774 68.8416 79.1022 68.6881 79.5378 68.3812C79.9735 68.0743 80.3051 67.6436 80.5329 67.0891C80.7705 66.5347 80.8893 65.8812 80.8893 65.1287C80.8893 64.3762 80.7705 63.7277 80.5329 63.1832C80.3051 62.6287 79.9735 62.203 79.5378 61.9059C79.1022 61.599 78.5774 61.4455 77.9636 61.4455C77.3596 61.4455 76.8348 61.599 76.3893 61.9059C75.9537 62.203 75.617 62.6287 75.3794 63.1832C75.1517 63.7277 75.0378 64.3762 75.0378 65.1287C75.0378 65.8812 75.1517 66.5347 75.3794 67.0891C75.617 67.6436 75.9537 68.0743 76.3893 68.3812C76.8348 68.6881 77.3596 68.8416 77.9636 68.8416ZM95.7665 73.3861C94.4497 73.3861 93.222 73.0743 92.0834 72.4505C90.9547 71.8168 90.0438 70.8812 89.3507 69.6436C88.6576 68.396 88.3111 66.8515 88.3111 65.0099C88.3111 63.2673 88.6675 61.7921 89.3804 60.5842C90.0933 59.3762 91.019 58.4604 92.1576 57.8366C93.2962 57.2129 94.4992 56.901 95.7665 56.901C97.0339 56.901 98.1774 57.2327 99.1972 57.896C100.217 58.5594 101.029 59.4653 101.633 60.6139C102.237 61.7525 102.539 63.0545 102.539 64.5198C102.539 64.5792 102.539 64.6386 102.539 64.698C102.539 64.7475 102.539 64.802 102.539 64.8614H100.43C100.43 64.8317 100.43 64.802 100.43 64.7723C100.43 64.7327 100.43 64.698 100.43 64.6683C100.43 64.0049 100.281 63.4604 99.9844 63.0347C99.6873 62.6089 99.3111 62.2921 98.8556 62.0842C98.4101 61.8663 97.9547 61.7574 97.4893 61.7574C96.7368 61.7574 96.0487 62.0099 95.425 62.5149C94.8012 63.0099 94.4893 63.8416 94.4893 65.0099C94.4893 66.1782 94.8012 67.0248 95.425 67.5495C96.0487 68.0743 96.7368 68.3366 97.4893 68.3366C97.9646 68.3366 98.425 68.2277 98.8705 68.0099C99.3259 67.7822 99.6972 67.4455 99.9844 67C100.281 66.5545 100.43 66.0049 100.43 65.3515L102.539 65.5C102.539 66.9554 102.237 68.2822 101.633 69.4802C101.029 70.6683 100.217 71.6188 99.1972 72.3317C98.1774 73.0347 97.0339 73.3861 95.7665 73.3861ZM100.43 73V49.7871H106.43V73H100.43ZM114.796 73.3119C113.687 73.3119 112.776 73.1386 112.063 72.7921C111.361 72.4455 110.811 71.9703 110.415 71.3663C110.019 70.7624 109.742 70.0792 109.583 69.3168C109.425 68.5446 109.346 67.7376 109.346 66.896C109.346 66.5495 109.346 66.1832 109.346 65.797C109.346 65.401 109.346 64.995 109.346 64.5792V57.2277H115.331V63.5693C115.331 63.896 115.331 64.203 115.331 64.4901C115.331 64.7772 115.331 65.0396 115.331 65.2772C115.331 65.8416 115.375 66.3614 115.464 66.8366C115.563 67.302 115.762 67.6782 116.059 67.9653C116.356 68.2426 116.801 68.3812 117.395 68.3812C117.989 68.3812 118.479 68.2228 118.865 67.9059C119.252 67.5792 119.539 67.1584 119.727 66.6436C119.925 66.1188 120.024 65.5644 120.024 64.9802L121.182 66.3168C121.182 67.396 121.034 68.3663 120.737 69.2277C120.45 70.0891 120.029 70.8267 119.474 71.4406C118.93 72.0446 118.262 72.5099 117.469 72.8366C116.687 73.1535 115.796 73.3119 114.796 73.3119ZM120.024 73V57.2277H126.009V73H120.024ZM145.026 73.3861C144.343 73.3861 143.62 73.3317 142.858 73.2228C142.106 73.1238 141.398 72.9109 140.734 72.5842C140.071 72.2574 139.531 71.7673 139.115 71.1139C138.7 70.4505 138.492 69.5644 138.492 68.4554C138.492 68.2277 138.492 68 138.492 67.7723C138.492 67.5446 138.492 67.3218 138.492 67.104V61.6832H134.972V57.2277H135.046C135.818 57.2277 136.432 57.1931 136.888 57.1238C137.353 57.0545 137.7 56.8861 137.927 56.6188C138.155 56.3515 138.304 55.9307 138.373 55.3564C138.452 54.7822 138.492 53.9901 138.492 52.9802V52.0594H144.492V57.2277H148.843V61.6832H144.492V66.0347C144.492 66.1832 144.492 66.3317 144.492 66.4802C144.492 66.6188 144.492 66.7624 144.492 66.9109C144.492 67.4851 144.561 67.9703 144.7 68.3663C144.838 68.7624 145.21 68.9604 145.813 68.9604C146.17 68.9604 146.507 68.9257 146.823 68.8564C147.14 68.7871 147.378 68.7178 147.536 68.6485V72.9703C147.309 73.0693 146.977 73.1634 146.541 73.2525C146.115 73.3416 145.611 73.3861 145.026 73.3861ZM158.98 73.3713C157.197 73.3713 155.628 73.0248 154.272 72.3317C152.925 71.6386 151.871 70.6733 151.108 69.4356C150.356 68.198 149.98 66.7624 149.98 65.1287C149.98 63.495 150.356 62.0594 151.108 60.8218C151.871 59.5842 152.925 58.6238 154.272 57.9406C155.628 57.2475 157.197 56.901 158.98 56.901C160.762 56.901 162.326 57.2475 163.673 57.9406C165.029 58.6238 166.084 59.5842 166.836 60.8218C167.598 62.0594 167.98 63.495 167.98 65.1287C167.98 66.7624 167.598 68.198 166.836 69.4356C166.084 70.6733 165.029 71.6386 163.673 72.3317C162.326 73.0248 160.762 73.3713 158.98 73.3713ZM158.98 68.8416C159.593 68.8416 160.118 68.6881 160.554 68.3812C160.989 68.0743 161.321 67.6436 161.549 67.0891C161.786 66.5347 161.905 65.8812 161.905 65.1287C161.905 64.3762 161.786 63.7277 161.549 63.1832C161.321 62.6287 160.989 62.203 160.554 61.9059C160.118 61.599 159.593 61.4455 158.98 61.4455C158.376 61.4455 157.851 61.599 157.405 61.9059C156.97 62.203 156.633 62.6287 156.395 63.1832C156.168 63.7277 156.054 64.3762 156.054 65.1287C156.054 65.8812 156.168 66.5347 156.395 67.0891C156.633 67.6436 156.97 68.0743 157.405 68.3812C157.851 68.6881 158.376 68.8416 158.98 68.8416ZM188.233 73.3713C186.976 73.3713 185.832 73.0198 184.802 72.3168C183.783 71.6139 182.971 70.6683 182.367 69.4802C181.763 68.2822 181.461 66.9554 181.461 65.5C181.461 65.4505 181.461 65.401 181.461 65.3515C181.461 65.302 181.461 65.2525 181.461 65.203L183.57 65.1584C183.57 65.1881 183.57 65.2228 183.57 65.2624C183.57 65.2921 183.57 65.3218 183.57 65.3515C183.57 66.0049 183.713 66.5545 184 67C184.297 67.4455 184.669 67.7822 185.114 68.0099C185.57 68.2277 186.035 68.3366 186.51 68.3366C187.263 68.3366 187.951 68.0743 188.575 67.5495C189.198 67.0248 189.51 66.1782 189.51 65.0099C189.51 63.8416 189.198 63.0099 188.575 62.5149C187.961 62.0099 187.273 61.7574 186.51 61.7574C186.045 61.7574 185.585 61.8663 185.129 62.0842C184.684 62.2921 184.312 62.6089 184.015 63.0347C183.718 63.4604 183.57 64.0049 183.57 64.6683L181.461 64.5198C181.461 63.0545 181.763 61.7525 182.367 60.6139C182.971 59.4653 183.783 58.5644 184.802 57.9109C185.832 57.2475 186.976 56.9158 188.233 56.9158C189.51 56.9158 190.713 57.2277 191.842 57.8515C192.981 58.4752 193.906 59.3911 194.619 60.599C195.332 61.797 195.689 63.2673 195.689 65.0099C195.689 66.8515 195.342 68.3911 194.649 69.6287C193.956 70.8663 193.045 71.802 191.916 72.4356C190.788 73.0594 189.56 73.3713 188.233 73.3713ZM177.57 73V49.7871H183.57V73H177.57ZM200.251 66.7475V63.1832H209.548L209.103 63.9554C209.103 63.8762 209.103 63.7921 209.103 63.703C209.103 63.604 209.103 63.5198 209.103 63.4505C209.103 63.1139 209.004 62.7673 208.806 62.4109C208.618 62.0446 208.306 61.7376 207.87 61.4901C207.444 61.2426 206.87 61.1188 206.147 61.1188C205.444 61.1188 204.855 61.2673 204.38 61.5644C203.905 61.8614 203.548 62.302 203.311 62.8861C203.073 63.4604 202.954 64.1634 202.954 64.995C202.954 65.8663 203.068 66.6089 203.296 67.2228C203.524 67.8366 203.885 68.3069 204.38 68.6337C204.875 68.9505 205.524 69.1089 206.326 69.1089C206.801 69.1089 207.207 69.0743 207.543 69.0049C207.88 68.9356 208.147 68.8465 208.345 68.7376C208.553 68.6287 208.707 68.5099 208.806 68.3812C208.915 68.2525 208.979 68.1287 208.999 68.0099H214.91C214.841 68.703 214.588 69.3713 214.152 70.0149C213.727 70.6584 213.138 71.2376 212.385 71.7525C211.633 72.2574 210.727 72.6584 209.667 72.9554C208.608 73.2426 207.41 73.3861 206.073 73.3861C204.222 73.3861 202.618 73.0396 201.261 72.3465C199.905 71.6436 198.86 70.6733 198.128 69.4356C197.395 68.1881 197.029 66.7574 197.029 65.1436C197.029 63.4901 197.405 62.0446 198.157 60.8069C198.91 59.5693 199.964 58.6089 201.321 57.9257C202.687 57.2426 204.271 56.901 206.073 56.901C207.935 56.901 209.539 57.2525 210.885 57.9554C212.241 58.6485 213.286 59.6386 214.019 60.9257C214.751 62.203 215.118 63.7228 215.118 65.4851C215.118 65.7822 215.113 66.0347 215.103 66.2426C215.093 66.4505 215.078 66.6188 215.058 66.7475H200.251ZM230.691 73H224.854V51.0941H234.003L240.047 71.203L238.889 71.4406V51.0941H244.726V73H235.503L229.458 52.9653L230.691 52.7277V73ZM251.328 55.5495L254.031 52.8465V61.3861L252.695 59.7822H260.566V64.2376H252.695L254.031 62.6485V71.2475L251.328 68.5446H262.215V73H248.002V51.0941H262.215V55.5495H251.328ZM265.493 73V51.0941H275.206C277.701 51.0941 279.542 51.6485 280.73 52.7574C281.928 53.8564 282.527 55.3911 282.527 57.3614C282.527 58.4703 282.315 59.4158 281.889 60.198C281.463 60.9802 280.933 61.5842 280.3 62.0099C279.666 62.4356 279.037 62.6733 278.414 62.7228C279.057 62.7624 279.656 62.9158 280.211 63.1832C280.765 63.4505 281.211 63.8812 281.547 64.4752C281.894 65.0594 282.067 65.8515 282.067 66.8515C282.067 67.4851 282.067 68.0891 282.067 68.6634C282.067 69.2376 282.067 69.8416 282.067 70.4752C282.067 71 282.107 71.5 282.186 71.9752C282.275 72.4406 282.409 72.7822 282.587 73H276.587C276.428 72.7525 276.305 72.401 276.216 71.9455C276.136 71.4901 276.097 71 276.097 70.4752C276.097 69.9307 276.097 69.4406 276.097 69.0049C276.097 68.5693 276.097 68.0792 276.097 67.5347C276.097 66.7426 275.928 66.1188 275.592 65.6634C275.255 65.198 274.646 64.9653 273.765 64.9653H269.785L271.344 63.1386V73H265.493ZM271.344 62.604L269.785 60.5099H273.824C274.329 60.5099 274.77 60.4059 275.146 60.198C275.532 59.9901 275.829 59.6931 276.037 59.3069C276.255 58.9109 276.364 58.4505 276.364 57.9257C276.364 57.2822 276.131 56.7228 275.666 56.2475C275.211 55.7723 274.587 55.5347 273.795 55.5347H269.636L271.344 53.7525V62.604ZM285.246 73V51.0941H293.385C294.86 51.0941 296.212 51.3663 297.44 51.9109C298.667 52.4554 299.727 53.2178 300.618 54.198C301.509 55.1782 302.197 56.3317 302.682 57.6584C303.167 58.9851 303.41 60.4307 303.41 61.995C303.41 63.5594 303.167 65.0099 302.682 66.3465C302.197 67.6832 301.509 68.8515 300.618 69.8515C299.727 70.8416 298.667 71.6139 297.44 72.1683C296.212 72.7228 294.86 73 293.385 73H285.246ZM291.246 71.2475L288.543 68.5446H292.583C293.435 68.5446 294.217 68.2822 294.93 67.7574C295.652 67.2228 296.232 66.4653 296.667 65.4851C297.103 64.5049 297.321 63.3416 297.321 61.995C297.321 60.6386 297.103 59.4802 296.667 58.5198C296.232 57.5594 295.652 56.8267 294.93 56.3218C294.217 55.8069 293.435 55.5495 292.583 55.5495H288.543L291.246 52.8465V71.2475Z" fill="#ED0600"/>
</svg>
