<svg width="439" height="82" viewBox="0 0 439 82" fill="none" xmlns="http://www.w3.org/2000/svg">
<path d="M17.99 54H3.85V2.375H23.625C27.545 2.375 30.9633 3.15666 33.88 4.72C36.7967 6.26 39.06 8.37167 40.67 11.055C42.28 13.7383 43.085 16.7717 43.085 20.155C43.085 23.5383 42.28 26.6183 40.67 29.395C39.06 32.1483 36.7967 34.3533 33.88 36.01C30.9633 37.6433 27.545 38.46 23.625 38.46H17.99V54ZM22.19 12.875H17.99V27.995H22.19C23.9167 27.995 25.4567 27.3417 26.81 26.035C28.1867 24.7283 28.875 22.7683 28.875 20.155C28.875 17.5183 28.1867 15.6517 26.81 14.555C25.4567 13.435 23.9167 12.875 22.19 12.875ZM59.3999 54.84C56.7399 54.84 54.3599 54.42 52.2599 53.58C50.1599 52.7167 48.5033 51.48 47.2899 49.87C46.0766 48.2367 45.4699 46.2533 45.4699 43.92C45.4699 41.1667 46.2516 38.95 47.8149 37.27C49.4016 35.59 51.4199 34.3183 53.8699 33.455C56.3433 32.5917 58.8983 32.0433 61.5349 31.81C65.2916 31.46 67.8233 31.1567 69.1299 30.9C70.4366 30.6433 71.0899 30.1883 71.0899 29.535V29.5C71.0899 28.6367 70.5649 27.9017 69.5149 27.295C68.4883 26.665 67.1116 26.35 65.3849 26.35C61.6983 26.35 59.8549 27.6917 59.8549 30.375H45.9599C45.9599 27.2483 46.8349 24.6233 48.5849 22.5C50.3349 20.3767 52.6799 18.7783 55.6199 17.705C58.5833 16.6083 61.8733 16.06 65.4899 16.06C68.9199 16.06 72.1283 16.5733 75.1149 17.6C78.1249 18.6267 80.5633 20.2017 82.4299 22.325C84.2966 24.425 85.2299 27.12 85.2299 30.41V44.865C85.2299 45.8917 85.2533 46.8833 85.2999 47.84C85.3466 48.7967 85.4866 49.6833 85.7199 50.5C85.9766 51.3633 86.3149 52.11 86.7349 52.74C87.1549 53.3467 87.4933 53.7667 87.7499 54H73.9599C73.7499 53.79 73.4466 53.405 73.0499 52.845C72.6533 52.285 72.3266 51.6433 72.0699 50.92C71.9999 50.6867 71.9299 50.465 71.8599 50.255C70.4133 51.725 68.5699 52.8567 66.3299 53.65C64.1133 54.4433 61.8033 54.84 59.3999 54.84ZM63.5999 44.83C65.1166 44.83 66.6099 44.3983 68.0799 43.535C69.5733 42.6483 70.5649 41.1083 71.0549 38.915C69.9583 39.1717 68.8383 39.3933 67.6949 39.58C66.5516 39.7433 65.4433 39.8833 64.3699 40C62.7599 40.1633 61.5583 40.4317 60.7649 40.805C59.9949 41.155 59.6099 41.7267 59.6099 42.52C59.6099 44.06 60.9399 44.83 63.5999 44.83ZM91.8887 54V16.83H106.029V21.975C107.195 20.085 108.7 18.6267 110.544 17.6C112.387 16.5733 114.522 16.06 116.949 16.06C118.465 16.06 119.609 16.165 120.379 16.375C121.172 16.5617 121.662 16.7133 121.849 16.83L119.924 29.15C119.714 29.0333 119.247 28.8583 118.524 28.625C117.8 28.3683 116.925 28.24 115.899 28.24C113.472 28.24 111.535 28.7417 110.089 29.745C108.642 30.725 107.604 31.985 106.974 33.525C106.344 35.065 106.029 36.6633 106.029 38.32V54H91.8887ZM147.402 54.91C145.792 54.91 144.089 54.7817 142.292 54.525C140.519 54.2917 138.85 53.79 137.287 53.02C135.724 52.25 134.452 51.095 133.472 49.555C132.492 47.9917 132.002 45.9033 132.002 43.29V27.33H123.707V16.83H123.882C125.702 16.83 127.149 16.7483 128.222 16.585C129.319 16.4217 130.135 16.025 130.672 15.395C131.209 14.765 131.559 13.7733 131.722 12.42C131.909 11.0667 132.002 9.2 132.002 6.82V4.65H146.142V16.83H156.397V27.33H146.142V39.65C146.142 41.0033 146.305 42.1467 146.632 43.08C146.959 44.0133 147.834 44.48 149.257 44.48C150.097 44.48 150.89 44.3983 151.637 44.235C152.384 44.0717 152.944 43.9083 153.317 43.745V53.93C152.78 54.1633 151.999 54.385 150.972 54.595C149.969 54.805 148.779 54.91 147.402 54.91Z" fill="#ED0600"/>
<path d="M418.25 39.7019C420.481 39.7019 422.192 40.2115 423.385 41.2308C424.577 42.2308 425.24 43.5769 425.375 45.2692H420.529C420.51 44.5962 420.26 44.0769 419.779 43.7115C419.298 43.3462 418.644 43.1635 417.817 43.1635C417.221 43.1635 416.731 43.2788 416.346 43.5096C415.981 43.7404 415.798 44.0769 415.798 44.5192C415.798 44.9615 416.058 45.3077 416.577 45.5577C417.096 45.8077 417.885 46.0673 418.942 46.3365C420.115 46.6635 421.067 46.9808 421.798 47.2885C422.548 47.5769 423.192 48.0288 423.731 48.6442C424.269 49.2404 424.538 50.0288 424.538 51.0096C424.538 51.4135 424.5 51.7788 424.423 52.1058C424.192 53.3173 423.49 54.3077 422.317 55.0769C421.163 55.8269 419.606 56.2019 417.644 56.2019C415.471 56.2019 413.721 55.7212 412.394 54.7596C411.087 53.7788 410.394 52.4038 410.317 50.6346H415.163C415.106 51.3269 415.346 51.8558 415.885 52.2212C416.423 52.5865 417.144 52.7692 418.048 52.7692C418.702 52.7692 419.192 52.6442 419.519 52.3942C419.846 52.125 420.01 51.7788 420.01 51.3558C420.01 50.875 419.76 50.5192 419.26 50.2885C418.76 50.0385 417.952 49.7596 416.837 49.4519C415.721 49.1635 414.798 48.875 414.067 48.5865C413.337 48.2788 412.702 47.8365 412.163 47.2596C411.644 46.6635 411.385 45.8846 411.385 44.9231C411.385 44.7115 411.423 44.3558 411.5 43.8558C411.692 42.6442 412.375 41.6538 413.548 40.8846C414.721 40.0962 416.288 39.7019 418.25 39.7019Z" fill="#ED0600"/>
<path d="M200.517 31.6187H200.128L188.603 7.19917C188.26 6.46721 187.513 6 186.703 6H165.102C163.934 6 163 6.93442 163 8.10245V53.998C163 55.1661 163.934 56.1005 165.102 56.1005H180.629C181.797 56.1005 182.732 55.1661 182.732 53.998V30.2638H183.121L195.471 54.948C195.829 55.6644 196.561 56.1161 197.356 56.1161H218.146C219.314 56.1161 220.249 55.1816 220.249 54.0136V8.10245C220.249 6.93442 219.314 6 218.146 6H202.619C201.451 6 200.517 6.93442 200.517 8.10245V31.6187V31.6187Z" fill="#ED0600"/>
<path d="M248.08 34.1416H275.802C276.471 34.1416 277.032 33.5965 277.032 32.9113V29.1892C277.032 28.5195 276.487 27.9589 275.802 27.9589H248.08V20.8884H277.063C278.231 20.8884 279.165 19.954 279.165 18.786V8.10245C279.165 6.93442 278.231 6 277.063 6H228.847C227.679 6 226.745 6.93442 226.745 8.10245V54.0292C226.745 55.1661 227.679 56.1005 228.816 56.1005H277.39C278.558 56.1005 279.493 55.1661 279.493 53.998V43.9686C279.493 42.8006 278.558 41.8661 277.39 41.8661H248.08V34.1416Z" fill="#ED0600"/>
<path d="M343.216 25.8253C343.216 8.42949 333.249 6 320.058 6H288.07C286.902 6 285.967 6.93442 285.967 8.10245V53.998C285.967 55.1661 286.902 56.1005 288.07 56.1005H305.201C306.369 56.1005 307.303 55.1661 307.303 53.998V45.1522H310.916C312.053 50.6653 316.492 54.9325 322.083 55.8669C322.752 56.007 323.453 56.1005 324.216 56.1005H341.114C342.282 56.1005 343.216 55.1661 343.216 53.998V45.1522C343.216 43.9842 342.282 43.0498 341.114 43.0498H334.214C340.055 40.667 343.216 35.7457 343.216 25.8253ZM307.319 20.7483H316.943C319.311 20.7483 321.288 22.586 321.475 24.9376C321.911 30.4195 320.198 32.2572 315.464 32.4129H307.319V20.7483Z" fill="#ED0600"/>
<path d="M406 30.7621C406 12.5721 397.201 6 380.132 6H351.835C350.667 6 349.732 6.93442 349.732 8.10245V53.7177C349.732 55.0415 350.807 56.1005 352.115 56.1005H380.132C397.201 56.1005 406 49.5128 406 31.3384C406 31.2449 405.984 31.1515 405.984 31.058C405.984 30.949 406 30.8711 406 30.7621ZM376.488 40.7137H370.726V35.076V21.3868H376.488C382.842 21.3868 384.54 24.8597 384.617 31.058C384.54 37.2408 382.858 40.7137 376.488 40.7137Z" fill="#ED0600"/>
</svg>
