<svg width="550" height="104" viewBox="0 0 550 104" fill="none" xmlns="http://www.w3.org/2000/svg">
<path d="M22.6252 68.8672H4.93485V4.27988H29.6751C34.5793 4.27988 38.856 5.25781 42.505 7.21367C46.154 9.14035 48.9856 11.7822 50.9998 15.1393C53.0141 18.4964 54.0212 22.2913 54.0212 26.5242C54.0212 30.757 53.0141 34.6104 50.9998 38.0842C48.9856 41.5289 46.154 44.2875 42.505 46.3602C38.856 48.4036 34.5793 49.4253 29.6751 49.4253H22.6252V68.8672ZM27.8798 17.4163H22.6252V36.3327H27.8798C30.04 36.3327 31.9666 35.5153 33.6598 33.8806C35.3821 32.2458 36.2433 29.7937 36.2433 26.5242C36.2433 23.2255 35.3821 20.8901 33.6598 19.5181C31.9666 18.1169 30.04 17.4163 27.8798 17.4163ZM74.4326 69.9181C71.1047 69.9181 68.1271 69.3926 65.4998 68.3417C62.8725 67.2616 60.7999 65.7145 59.2819 63.7002C57.7639 61.6568 57.0049 59.1754 57.0049 56.2562C57.0049 52.8116 57.9829 50.0383 59.9387 47.9365C61.9238 45.8347 64.4489 44.2437 67.5141 43.1636C70.6084 42.0835 73.8049 41.3975 77.1036 41.1056C81.8035 40.6677 84.9709 40.2882 86.6056 39.9671C88.2404 39.646 89.0578 39.0767 89.0578 38.2594V38.2156C89.0578 37.1355 88.4009 36.2159 87.0873 35.4569C85.8029 34.6688 84.0805 34.2747 81.9203 34.2747C77.308 34.2747 75.0018 35.9532 75.0018 39.3103H57.618C57.618 35.3986 58.7127 32.1145 60.9021 29.458C63.0915 26.8015 66.0253 24.8019 69.7035 23.459C73.4108 22.087 77.5269 21.401 82.0517 21.401C86.3429 21.401 90.3568 22.0432 94.0934 23.3277C97.8592 24.6121 100.91 26.5826 103.245 29.239C105.58 31.8663 106.748 35.238 106.748 39.3541V57.4385C106.748 58.723 106.777 59.9636 106.836 61.1605C106.894 62.3574 107.069 63.4667 107.361 64.4884C107.682 65.5685 108.106 66.5026 108.631 67.2908C109.156 68.0498 109.58 68.5753 109.901 68.8672H92.6484C92.3856 68.6045 92.0062 68.1228 91.5099 67.4222C91.0136 66.7216 90.6049 65.9188 90.2838 65.0138C90.1963 64.7219 90.1087 64.4446 90.0211 64.1819C88.2112 66.021 85.905 67.4368 83.1026 68.4293C80.3294 69.4218 77.4393 69.9181 74.4326 69.9181ZM79.6871 57.3947C81.5846 57.3947 83.4529 56.8547 85.292 55.7746C87.1603 54.6653 88.4009 52.7386 89.014 49.9946C87.6419 50.3157 86.2407 50.593 84.8103 50.8265C83.3799 51.0309 81.9933 51.206 80.6505 51.352C78.6362 51.5563 77.1328 51.892 76.1403 52.3591C75.177 52.797 74.6953 53.5122 74.6953 54.5047C74.6953 56.4314 76.3592 57.3947 79.6871 57.3947ZM115.079 68.8672V22.3643H132.769V28.8012C134.229 26.4366 136.112 24.6121 138.418 23.3277C140.724 22.0432 143.395 21.401 146.431 21.401C148.328 21.401 149.759 21.5323 150.722 21.7951C151.715 22.0286 152.328 22.2184 152.561 22.3643L150.153 37.7777C149.89 37.6317 149.306 37.4128 148.401 37.1209C147.497 36.7998 146.402 36.6392 145.117 36.6392C142.081 36.6392 139.658 37.2668 137.849 38.5221C136.039 39.7482 134.74 41.3245 133.951 43.2512C133.163 45.1779 132.769 47.1775 132.769 49.2502V68.8672H115.079ZM184.531 70.0057C182.516 70.0057 180.385 69.8451 178.138 69.524C175.919 69.2321 173.832 68.6045 171.876 67.6411C169.92 66.6778 168.329 65.2328 167.103 63.3061C165.877 61.3502 165.264 58.7376 165.264 55.4681V35.5007H154.886V22.3643H155.105C157.382 22.3643 159.192 22.2622 160.535 22.0578C161.907 21.8535 162.929 21.3572 163.6 20.569C164.271 19.7808 164.709 18.5402 164.914 16.847C165.147 15.1539 165.264 12.8185 165.264 9.84095V7.1261H182.954V22.3643H195.784V35.5007H182.954V50.9141C182.954 52.6072 183.159 54.0376 183.567 55.2053C183.976 56.373 185.071 56.9568 186.851 56.9568C187.902 56.9568 188.895 56.8547 189.829 56.6503C190.763 56.446 191.464 56.2416 191.931 56.0373V68.7796C191.259 69.0715 190.281 69.3489 188.997 69.6116C187.742 69.8743 186.253 70.0057 184.531 70.0057Z" fill="#3822E4"/>
<path d="M523.385 50.2601C526.176 50.2601 528.317 50.8977 529.809 52.1728C531.3 53.4239 532.13 55.1081 532.299 57.2253H526.236C526.212 56.3832 525.899 55.7336 525.298 55.2765C524.696 54.8193 523.878 54.5908 522.844 54.5908C522.098 54.5908 521.484 54.7351 521.003 55.0238C520.546 55.3126 520.317 55.7336 520.317 56.287C520.317 56.8403 520.642 57.2734 521.292 57.5862C521.941 57.8989 522.928 58.2237 524.251 58.5606C525.719 58.9696 526.91 59.3666 527.824 59.7515C528.762 60.1124 529.568 60.6778 530.242 61.4477C530.915 62.1935 531.252 63.18 531.252 64.407C531.252 64.9122 531.204 65.3694 531.108 65.7784C530.819 67.2941 529.941 68.5332 528.473 69.4955C527.03 70.4339 525.081 70.903 522.627 70.903C519.908 70.903 517.719 70.3015 516.059 69.0986C514.423 67.8715 513.557 66.1513 513.46 63.9378H519.523C519.451 64.804 519.752 65.4656 520.426 65.9227C521.099 66.3799 522.001 66.6084 523.132 66.6084C523.95 66.6084 524.564 66.452 524.973 66.1393C525.382 65.8024 525.586 65.3694 525.586 64.8401C525.586 64.2386 525.274 63.7935 524.648 63.5048C524.022 63.192 523.012 62.8431 521.617 62.4582C520.221 62.0973 519.066 61.7364 518.152 61.3755C517.238 60.9906 516.444 60.4372 515.77 59.7154C515.12 58.9696 514.796 57.9952 514.796 56.7922C514.796 56.5276 514.844 56.0825 514.94 55.4569C515.181 53.9412 516.035 52.7021 517.502 51.7397C518.97 50.7533 520.931 50.2601 523.385 50.2601Z" fill="#3822E4"/>
<path d="M250.982 40.4252H250.495L236.077 9.87429C235.648 8.95854 234.713 8.37402 233.7 8.37402H206.676C205.214 8.37402 204.045 9.54306 204.045 11.0044V68.4237C204.045 69.885 205.214 71.054 206.676 71.054H226.101C227.562 71.054 228.731 69.885 228.731 68.4237V38.7301H229.218L244.669 69.6122C245.117 70.5085 246.033 71.0735 247.027 71.0735H273.038C274.499 71.0735 275.668 69.9045 275.668 68.4432V11.0044C275.668 9.54306 274.499 8.37402 273.038 8.37402H253.612C252.151 8.37402 250.982 9.54306 250.982 11.0044V40.4252Z" fill="#3822E4"/>
<path d="M310.488 43.5816H345.17C346.007 43.5816 346.709 42.8997 346.709 42.0424V37.3857C346.709 36.5479 346.027 35.8465 345.17 35.8465H310.488V27.0007H346.748C348.209 27.0007 349.378 25.8317 349.378 24.3704V11.0044C349.378 9.54306 348.209 8.37402 346.748 8.37402H286.425C284.964 8.37402 283.795 9.54306 283.795 11.0044V68.4627C283.795 69.885 284.964 71.054 286.386 71.054H347.157C348.618 71.054 349.787 69.885 349.787 68.4237V55.876C349.787 54.4147 348.618 53.2457 347.157 53.2457H310.488V43.5816Z" fill="#3822E4"/>
<path d="M429.511 33.1772C429.511 11.4135 417.041 8.37402 400.538 8.37402H360.518C359.057 8.37402 357.888 9.54306 357.888 11.0044V68.4237C357.888 69.885 359.057 71.054 360.518 71.054H381.951C383.412 71.054 384.581 69.885 384.581 68.4237V57.3568H389.101C390.524 64.2541 396.076 69.5927 403.071 70.7618C403.909 70.9371 404.786 71.054 405.741 71.054H426.881C428.342 71.054 429.511 69.885 429.511 68.4237V57.3568C429.511 55.8955 428.342 54.7265 426.881 54.7265H418.249C425.556 51.7454 429.511 45.5885 429.511 33.1772ZM384.6 26.8254H396.642C399.603 26.8254 402.078 29.1245 402.311 32.0666C402.857 38.9249 400.714 41.224 394.791 41.4189H384.6V26.8254Z" fill="#3822E4"/>
<path d="M508.059 39.3536C508.059 16.5963 497.051 8.37402 475.696 8.37402H440.294C438.833 8.37402 437.664 9.54306 437.664 11.0044V68.073C437.664 69.7291 439.008 71.054 440.645 71.054H475.696C497.051 71.054 508.059 62.8123 508.059 40.0745C508.059 39.9576 508.04 39.8407 508.04 39.7238C508.04 39.5874 508.059 39.49 508.059 39.3536ZM471.137 51.8039H463.928V44.7506V27.6242H471.137C479.086 27.6242 481.21 31.9691 481.308 39.7238C481.21 47.4589 479.106 51.8039 471.137 51.8039Z" fill="#3822E4"/>
</svg>
