<svg width="237" height="66" viewBox="0 0 237 66" fill="none" xmlns="http://www.w3.org/2000/svg">
<path fill-rule="evenodd" clip-rule="evenodd" d="M196.892 37.6831C199.364 35.6756 201.519 37.3987 204.427 36.3448C206.849 35.8596 209.572 33.1829 212.663 27.3945C205.763 27.9968 196.223 29.5192 196.892 37.6831Z" fill="#3822E4"/>
<path d="M94.5608 52.0716C94.5608 48.4079 93.5416 45.5806 91.5033 43.5563C89.465 41.5321 86.8586 40.5283 83.6508 40.5283C80.3428 40.5283 77.6363 41.5488 75.5645 43.6065C73.4928 45.6642 72.4569 48.5584 72.4569 52.2724C72.4569 55.8859 73.4761 58.6964 75.5311 60.6872C77.5861 62.678 80.3762 63.6818 83.8848 63.6818C86.6749 63.6818 88.9638 63.0628 90.7514 61.8081C92.5391 60.5701 93.7755 58.7968 94.4438 56.5384L90.2335 56.0532C89.6153 57.6592 88.78 58.7968 87.7274 59.5329C86.6916 60.2523 85.4052 60.6036 83.9182 60.6036C81.9133 60.6036 80.2426 59.9512 78.906 58.663C77.5527 57.3748 76.8175 55.5179 76.6672 53.0754H94.544C94.544 52.6237 94.5608 52.3058 94.5608 52.0716ZM76.8677 49.9972C77.018 48.0566 77.7198 46.5174 78.9895 45.3631C80.2593 44.2088 81.8298 43.64 83.701 43.64C85.756 43.64 87.4434 44.3594 88.7465 45.8148C89.5819 46.7517 90.0999 48.1402 90.2837 50.0139H76.8677V49.9972Z" fill="#3822E4"/>
<path d="M108.395 59.8505C107.66 59.9509 107.059 60.0011 106.608 60.0011C106.023 60.0011 105.555 59.9007 105.221 59.7167C104.887 59.5326 104.67 59.2984 104.519 58.9806C104.386 58.6794 104.302 57.9768 104.302 56.9228V43.9575H108.395V41.0299H104.302V33.2842L100.259 35.5427V41.0299H97.2684V43.9575H100.259V56.7054C100.259 58.9638 100.426 60.4527 100.76 61.1387C101.094 61.8413 101.662 62.3934 102.464 62.8451C103.283 63.2633 104.419 63.4808 105.906 63.4808C106.808 63.4808 107.827 63.3804 108.963 63.1462L108.395 59.8505Z" fill="#3822E4"/>
<path d="M121.192 40.5449C120.239 40.5449 119.37 40.7959 118.585 41.2977C117.783 41.7829 116.914 42.8369 115.996 44.3927V41.0301H112.337V63.2133H116.397V51.6031C116.397 50.0138 116.63 48.5416 117.082 47.22C117.382 46.3333 117.883 45.6474 118.602 45.1622C119.304 44.6604 120.106 44.4094 120.991 44.4094C121.993 44.4094 122.979 44.6938 123.982 45.2292L125.385 41.7494C123.948 40.9297 122.561 40.5449 121.192 40.5449Z" fill="#3822E4"/>
<path d="M147.456 60.5533C147.288 59.6164 147.188 57.4249 147.188 53.9284V48.9096C147.188 47.2367 147.121 46.0824 146.988 45.4466C146.737 44.4094 146.319 43.5729 145.718 42.887C145.117 42.2179 144.181 41.6658 142.895 41.1974C141.625 40.7624 139.954 40.5449 137.899 40.5449C135.844 40.5449 134.023 40.8126 132.453 41.3312C130.882 41.8331 129.696 42.5859 128.86 43.5562C128.025 44.5265 127.44 45.798 127.089 47.3705L131.049 47.8557C131.483 46.2831 132.169 45.1957 133.071 44.5767C133.99 43.9577 135.41 43.6399 137.314 43.6399C139.369 43.6399 140.906 44.0581 141.942 44.9113C142.711 45.5303 143.095 46.6177 143.095 48.1401C143.095 48.2906 143.078 48.6085 143.062 49.1271C141.508 49.629 139.102 50.064 135.827 50.4153C134.207 50.5993 133.004 50.7833 132.202 50.9841C131.133 51.2685 130.147 51.67 129.278 52.2053C128.409 52.7574 127.708 53.4767 127.173 54.3801C126.638 55.2835 126.371 56.2538 126.371 57.358C126.371 59.1982 127.073 60.7206 128.493 61.9084C129.913 63.0962 131.935 63.6817 134.574 63.6817C136.161 63.6817 137.648 63.4307 139.035 62.9456C140.439 62.4772 141.892 61.6407 143.396 60.4529C143.513 61.4901 143.78 62.4102 144.214 63.1965H148.458C147.973 62.3601 147.639 61.4567 147.456 60.5533ZM143.095 53.46C143.095 55.1162 142.878 56.3709 142.443 57.2241C141.875 58.3115 140.973 59.1815 139.754 59.8172C138.551 60.4529 137.147 60.7708 135.577 60.7708C133.99 60.7708 132.787 60.4362 131.968 59.767C131.149 59.0978 130.748 58.2614 130.748 57.2576C130.748 56.6051 130.932 56.0196 131.3 55.4843C131.667 54.9489 132.219 54.5307 132.92 54.263C133.605 53.9786 134.791 53.7444 136.462 53.5102C139.419 53.1254 141.625 52.6403 143.095 52.0882V53.46Z" fill="#3822E4"/>
<path d="M184.077 42.3518C182.807 41.1473 180.969 40.5451 178.597 40.5451C175.539 40.5451 173.083 41.8332 171.179 44.4095C170.728 43.1883 169.909 42.2347 168.79 41.5488C167.654 40.8629 166.2 40.5283 164.412 40.5283C162.808 40.5283 161.388 40.8629 160.135 41.5154C158.882 42.1845 157.88 43.0545 157.128 44.1419V41.0302H153.486V63.2134H157.546V51.7036C157.546 49.696 157.763 48.1402 158.197 47.0862C158.632 46.0156 159.333 45.1958 160.319 44.6438C161.288 44.0917 162.341 43.8073 163.477 43.8073C164.997 43.8073 166.066 44.2255 166.735 45.062C167.386 45.8985 167.737 47.1364 167.737 48.8261V63.2301H171.797V50.3485C171.797 48.0566 172.348 46.4171 173.484 45.3631C174.587 44.3426 175.991 43.8073 177.678 43.8073C178.614 43.8073 179.415 44.008 180.117 44.4095C180.802 44.8111 181.27 45.3464 181.554 46.0156C181.821 46.668 181.938 47.7554 181.938 49.2611V63.2301H185.981V48.0064C186.015 45.4635 185.38 43.5731 184.077 42.3518Z" fill="#3822E4"/>
<path d="M211.73 60.5533C211.546 59.6164 211.462 57.4249 211.462 53.9284V48.9096C211.462 47.2367 211.395 46.0824 211.245 45.4466C211.011 44.4094 210.593 43.5729 209.992 42.887C209.391 42.2179 208.438 41.6658 207.168 41.1974C205.882 40.7624 204.211 40.5449 202.173 40.5449C200.101 40.5449 198.297 40.8126 196.726 41.3312C195.156 41.8331 193.953 42.5859 193.118 43.5562C192.299 44.5265 191.698 45.798 191.347 47.3705L195.323 47.8557C195.757 46.2831 196.426 45.1957 197.345 44.5767C198.263 43.9577 199.667 43.6399 201.572 43.6399C203.627 43.6399 205.18 44.0581 206.199 44.9113C206.985 45.5303 207.352 46.6177 207.352 48.1401C207.352 48.2906 207.352 48.6085 207.336 49.1271C205.782 49.629 203.359 50.064 200.085 50.4153C198.464 50.5993 197.261 50.7833 196.459 50.9841C195.39 51.2685 194.404 51.67 193.535 52.2053C192.667 52.7574 191.965 53.4767 191.43 54.3801C190.912 55.2835 190.628 56.2538 190.628 57.358C190.628 59.1982 191.347 60.7206 192.75 61.9084C194.17 63.0962 196.192 63.6817 198.832 63.6817C200.435 63.6817 201.906 63.4307 203.309 62.9456C204.696 62.4772 206.149 61.6407 207.653 60.4529C207.787 61.4901 208.037 62.4102 208.472 63.1965H212.732C212.231 62.3601 211.897 61.4567 211.73 60.5533ZM207.352 53.46C207.352 55.1162 207.118 56.3709 206.701 57.2241C206.116 58.3115 205.214 59.1815 204.011 59.8172C202.791 60.4529 201.388 60.7708 199.817 60.7708C198.247 60.7708 197.044 60.4362 196.225 59.767C195.39 59.0978 194.989 58.2614 194.989 57.2576C194.989 56.6051 195.189 56.0196 195.557 55.4843C195.924 54.9489 196.476 54.5307 197.161 54.263C197.846 53.9786 199.032 53.7444 200.703 53.5102C203.66 53.1254 205.865 52.6403 207.352 52.0882V53.46Z" fill="#3822E4"/>
<path d="M235.084 53.4768C234.449 52.6068 233.547 51.9544 232.411 51.5027C231.292 51.0677 229.287 50.4822 226.397 49.7628C224.408 49.2777 223.222 48.9431 222.804 48.8093C222.103 48.5416 221.585 48.207 221.234 47.7888C220.9 47.4207 220.75 46.969 220.75 46.4839C220.75 45.7143 221.134 45.0451 221.936 44.4763C222.738 43.9075 224.074 43.6231 225.945 43.6231C227.533 43.6231 228.752 43.941 229.621 44.5934C230.49 45.2292 231.008 46.1158 231.191 47.2534L235.168 46.7515C234.9 45.3295 234.433 44.1919 233.764 43.322C233.079 42.4688 232.044 41.7829 230.623 41.2977C229.187 40.7959 227.549 40.5449 225.661 40.5449C224.408 40.5449 223.239 40.6955 222.136 40.9799C221.05 41.281 220.182 41.6491 219.563 42.0673C218.711 42.6194 218.043 43.322 217.559 44.1752C217.074 45.0117 216.823 45.9151 216.823 46.9188C216.823 47.9895 217.124 48.9933 217.726 49.8967C218.31 50.8001 219.196 51.5027 220.332 52.0046C221.485 52.5065 223.556 53.1087 226.547 53.7946C228.752 54.3132 230.139 54.7482 230.69 55.0661C231.492 55.5512 231.893 56.2204 231.893 57.0736C231.893 58.0272 231.442 58.8469 230.54 59.5495C229.621 60.2522 228.234 60.5868 226.38 60.5868C224.525 60.5868 223.089 60.202 222.053 59.399C221.017 58.6127 220.382 57.4751 220.165 55.9862L216.138 56.555C216.589 58.9138 217.642 60.6871 219.263 61.8749C220.9 63.0794 223.272 63.665 226.397 63.665C228.284 63.665 229.972 63.3638 231.475 62.7616C232.962 62.1593 234.099 61.2894 234.884 60.1853C235.686 59.0978 236.07 57.8933 236.07 56.6553C236.053 55.4006 235.736 54.3467 235.084 53.4768Z" fill="#3822E4"/>
<path fill-rule="evenodd" clip-rule="evenodd" d="M38.4079 19.2473C39.5106 20.4518 40.0954 21.9408 40.0954 23.6806C40.0954 25.4707 39.4438 26.9429 38.1574 28.1139C36.8709 29.2682 34.632 29.837 31.4409 29.837H27.3809V17.4238H32.0925C35.1834 17.4238 37.2885 18.0261 38.4079 19.2473Z" fill="#3822E4"/>
<path fill-rule="evenodd" clip-rule="evenodd" d="M0.866211 0.861328L0.882934 2.96923V65.487H64.5205V0.861328H0.866211ZM51.3052 36.3779C48.064 39.5397 43.1019 41.129 36.4357 41.129H27.3805V61.7898H10.7736V6.09763H38.2569C44.238 6.09763 48.7322 7.58655 51.6894 10.5309C54.68 13.5088 56.1669 17.7078 56.1669 23.1784C56.1836 28.8162 54.5464 33.216 51.3052 36.3779Z" fill="#3822E4"/>
</svg>
