<svg width="188" height="53" viewBox="0 0 188 53" fill="none" xmlns="http://www.w3.org/2000/svg">
<path fill-rule="evenodd" clip-rule="evenodd" d="M156.685 30.0587C158.661 28.4541 160.384 29.8314 162.708 28.989C164.644 28.6012 166.821 26.4617 169.291 21.835C163.776 22.3164 156.151 23.5333 156.685 30.0587Z" fill="#ED0600" fill-opacity="0.8"/>
<path d="M74.8904 41.5585C74.8904 38.6301 74.0758 36.3702 72.4465 34.7522C70.8173 33.1342 68.734 32.3319 66.17 32.3319C63.5259 32.3319 61.3625 33.1476 59.7066 34.7923C58.0507 36.4371 57.2227 38.7504 57.2227 41.719C57.2227 44.6073 58.0373 46.8538 59.6799 48.4451C61.3224 50.0363 63.5526 50.8386 66.357 50.8386C68.5872 50.8386 70.4167 50.3439 71.8456 49.341C73.2745 48.3514 74.2627 46.934 74.7969 45.1288L71.4316 44.741C70.9375 46.0247 70.2698 46.934 69.4285 47.5224C68.6005 48.0974 67.5723 48.3782 66.3837 48.3782C64.7812 48.3782 63.4458 47.8567 62.3775 46.8271C61.2958 45.7974 60.7081 44.3131 60.588 42.3608H74.877C74.877 41.9998 74.8904 41.7457 74.8904 41.5585ZM60.7482 39.9004C60.8684 38.3493 61.4293 37.1191 62.4442 36.1964C63.4591 35.2737 64.7144 34.8191 66.2101 34.8191C67.8527 34.8191 69.2014 35.3941 70.243 36.5574C70.9108 37.3063 71.3248 38.4161 71.4717 39.9138H60.7482V39.9004Z" fill="#ED0600" fill-opacity="0.8"/>
<path d="M85.9485 47.7765C85.361 47.8567 84.8802 47.8968 84.5196 47.8968C84.0522 47.8968 83.6784 47.8166 83.4113 47.6695C83.1442 47.5224 82.9705 47.3352 82.8504 47.0811C82.7435 46.8404 82.6767 46.2788 82.6767 45.4364V35.0732H85.9485V32.7331H82.6767V26.5419L79.4451 28.3471V32.7331H77.0547V35.0732H79.4451V45.2626C79.4451 47.0678 79.5786 48.2579 79.8457 48.8061C80.1128 49.3677 80.5668 49.809 81.2078 50.17C81.8622 50.5043 82.7703 50.6782 83.9588 50.6782C84.6799 50.6782 85.4945 50.5979 86.4026 50.4107L85.9485 47.7765Z" fill="#ED0600" fill-opacity="0.8"/>
<path d="M96.1773 32.3452C95.4162 32.3452 94.7218 32.5458 94.0941 32.947C93.4531 33.3347 92.7586 34.1772 92.0242 35.4208V32.733H89.0996V50.4641H92.3447V41.184C92.3447 39.9137 92.5316 38.737 92.8922 37.6806C93.1326 36.9719 93.5332 36.4236 94.1074 36.0359C94.6683 35.6347 95.3093 35.4341 96.0171 35.4341C96.8184 35.4341 97.6062 35.6614 98.4075 36.0893L99.5292 33.308C98.3807 32.6528 97.2724 32.3452 96.1773 32.3452Z" fill="#ED0600" fill-opacity="0.8"/>
<path d="M117.169 48.338C117.036 47.5892 116.956 45.8375 116.956 43.0427V39.0312C116.956 37.694 116.902 36.7713 116.795 36.2632C116.595 35.4341 116.261 34.7655 115.781 34.2173C115.3 33.6824 114.552 33.2411 113.524 32.8667C112.509 32.5191 111.173 32.3452 109.531 32.3452C107.888 32.3452 106.433 32.5592 105.177 32.9737C103.922 33.3749 102.974 33.9766 102.306 34.7522C101.638 35.5277 101.171 36.544 100.891 37.801L104.056 38.1887C104.403 36.9318 104.95 36.0626 105.671 35.5678C106.406 35.0731 107.541 34.819 109.063 34.819C110.706 34.819 111.935 35.1533 112.762 35.8353C113.377 36.33 113.684 37.1992 113.684 38.4161C113.684 38.5364 113.671 38.7905 113.657 39.205C112.415 39.6062 110.492 39.9538 107.875 40.2346C106.579 40.3817 105.618 40.5288 104.977 40.6893C104.122 40.9166 103.334 41.2375 102.64 41.6654C101.946 42.1067 101.385 42.6817 100.957 43.4038C100.53 44.1259 100.316 44.9014 100.316 45.784C100.316 47.2549 100.877 48.4717 102.012 49.4211C103.148 50.3705 104.763 50.8386 106.873 50.8386C108.142 50.8386 109.33 50.638 110.439 50.2502C111.561 49.8758 112.722 49.2072 113.924 48.2578C114.018 49.0868 114.231 49.8223 114.579 50.4508H117.971C117.583 49.7822 117.316 49.0601 117.169 48.338ZM113.684 42.6683C113.684 43.9921 113.51 44.995 113.163 45.677C112.709 46.5462 111.988 47.2415 111.013 47.7497C110.052 48.2578 108.93 48.5118 107.675 48.5118C106.406 48.5118 105.444 48.2444 104.79 47.7095C104.136 47.1747 103.815 46.5061 103.815 45.7037C103.815 45.1822 103.962 44.7142 104.256 44.2863C104.55 43.8584 104.99 43.5241 105.551 43.3102C106.099 43.0829 107.047 42.8956 108.382 42.7084C110.746 42.4009 112.509 42.0131 113.684 41.5718V42.6683Z" fill="#ED0600" fill-opacity="0.8"/>
<path d="M146.442 33.7894C145.427 32.8267 143.958 32.3453 142.062 32.3453C139.618 32.3453 137.655 33.3749 136.132 35.4342C135.772 34.458 135.117 33.6958 134.223 33.1476C133.315 32.5993 132.153 32.3319 130.724 32.3319C129.442 32.3319 128.307 32.5993 127.305 33.1209C126.304 33.6557 125.502 34.3511 124.901 35.2202V32.7331H121.99V50.4642H125.235V41.2643C125.235 39.6597 125.409 38.4161 125.756 37.5737C126.103 36.7179 126.664 36.0627 127.452 35.6214C128.227 35.1801 129.068 34.9528 129.976 34.9528C131.191 34.9528 132.046 35.2871 132.58 35.9557C133.101 36.6243 133.381 37.6138 133.381 38.9644V50.4776H136.627V40.1812C136.627 38.3493 137.067 37.0388 137.975 36.1964C138.857 35.3807 139.978 34.9528 141.327 34.9528C142.075 34.9528 142.716 35.1133 143.277 35.4342C143.824 35.7551 144.198 36.183 144.425 36.7179C144.639 37.2394 144.733 38.1086 144.733 39.312V50.4776H147.964V38.3092C147.991 36.2766 147.483 34.7656 146.442 33.7894Z" fill="#ED0600" fill-opacity="0.8"/>
<path d="M168.544 48.338C168.397 47.5892 168.33 45.8375 168.33 43.0427V39.0312C168.33 37.694 168.277 36.7713 168.157 36.2632C167.97 35.4341 167.636 34.7655 167.155 34.2173C166.674 33.6824 165.913 33.2411 164.898 32.8667C163.87 32.5191 162.535 32.3452 160.905 32.3452C159.25 32.3452 157.807 32.5592 156.552 32.9737C155.297 33.3749 154.335 33.9766 153.668 34.7522C153.013 35.5277 152.532 36.544 152.252 37.801L155.43 38.1887C155.777 36.9318 156.312 36.0626 157.046 35.5678C157.781 35.0731 158.902 34.819 160.425 34.819C162.067 34.819 163.309 35.1533 164.124 35.8353C164.752 36.33 165.045 37.1992 165.045 38.4161C165.045 38.5364 165.045 38.7905 165.032 39.205C163.79 39.6062 161.854 39.9538 159.236 40.2346C157.941 40.3817 156.979 40.5288 156.338 40.6893C155.484 40.9166 154.696 41.2375 154.001 41.6654C153.307 42.1067 152.746 42.6817 152.319 43.4038C151.905 44.1259 151.678 44.9014 151.678 45.784C151.678 47.2549 152.252 48.4717 153.374 49.4211C154.509 50.3705 156.125 50.8386 158.235 50.8386C159.517 50.8386 160.692 50.638 161.814 50.2502C162.922 49.8758 164.084 49.2072 165.286 48.2578C165.393 49.0868 165.593 49.8223 165.94 50.4508H169.345C168.945 49.7822 168.678 49.0601 168.544 48.338ZM165.045 42.6683C165.045 43.9921 164.858 44.995 164.524 45.677C164.057 46.5462 163.336 47.2415 162.374 47.7497C161.4 48.2578 160.278 48.5118 159.023 48.5118C157.767 48.5118 156.806 48.2444 156.151 47.7095C155.484 47.1747 155.163 46.5061 155.163 45.7037C155.163 45.1822 155.323 44.7142 155.617 44.2863C155.911 43.8584 156.352 43.5241 156.899 43.3102C157.447 43.0829 158.395 42.8956 159.73 42.7084C162.094 42.4009 163.857 42.0131 165.045 41.5718V42.6683Z" fill="#ED0600" fill-opacity="0.8"/>
<path d="M187.212 42.6817C186.704 41.9864 185.983 41.4649 185.075 41.1038C184.181 40.7562 182.578 40.2881 180.268 39.7131C178.679 39.3254 177.73 39.0579 177.397 38.9509C176.836 38.737 176.422 38.4696 176.141 38.1353C175.874 37.8411 175.754 37.48 175.754 37.0922C175.754 36.4771 176.061 35.9423 176.702 35.4876C177.343 35.033 178.412 34.8056 179.907 34.8056C181.176 34.8056 182.151 35.0597 182.845 35.5812C183.54 36.0894 183.954 36.7981 184.1 37.7074L187.279 37.3062C187.065 36.1696 186.691 35.2603 186.157 34.565C185.609 33.883 184.782 33.3347 183.646 32.947C182.498 32.5458 181.189 32.3452 179.68 32.3452C178.679 32.3452 177.744 32.4656 176.863 32.6929C175.994 32.9336 175.3 33.2278 174.806 33.5621C174.125 34.0033 173.591 34.565 173.204 35.2469C172.816 35.9155 172.616 36.6376 172.616 37.4399C172.616 38.2957 172.856 39.098 173.337 39.8201C173.804 40.5422 174.512 41.1038 175.42 41.505C176.342 41.9061 177.998 42.3875 180.388 42.9358C182.151 43.3503 183.259 43.698 183.7 43.952C184.341 44.3398 184.661 44.8747 184.661 45.5567C184.661 46.3189 184.301 46.9741 183.58 47.5357C182.845 48.0973 181.737 48.3648 180.254 48.3648C178.772 48.3648 177.624 48.0572 176.796 47.4154C175.968 46.7869 175.46 45.8776 175.287 44.6875L172.068 45.1421C172.429 47.0276 173.27 48.445 174.566 49.3944C175.874 50.3572 177.771 50.8252 180.268 50.8252C181.777 50.8252 183.126 50.5845 184.327 50.1031C185.516 49.6217 186.424 48.9264 187.052 48.0438C187.693 47.1747 188 46.2119 188 45.2224C187.986 44.2195 187.733 43.377 187.212 42.6817Z" fill="#ED0600" fill-opacity="0.8"/>
<path fill-rule="evenodd" clip-rule="evenodd" d="M30.0073 15.3228C30.8887 16.2856 31.3561 17.4757 31.3561 18.8664C31.3561 20.2972 30.8353 21.4739 29.807 22.4099C28.7787 23.3326 26.9892 23.7872 24.4385 23.7872H21.1934V13.8653H24.9593C27.4299 13.8653 29.1125 14.3467 30.0073 15.3228Z" fill="#ED0600" fill-opacity="0.8"/>
<path fill-rule="evenodd" clip-rule="evenodd" d="M0 0.627136L0.0133672 2.312V52.2828H50.8792V0.627136H0ZM40.3161 29.0157C37.7254 31.543 33.7592 32.8133 28.4309 32.8133H21.193V49.3276H7.91899V4.81254H29.8866C34.6673 4.81254 38.2596 6.00264 40.6233 8.3561C43.0137 10.7363 44.2022 14.0926 44.2022 18.4653C44.2155 22.9716 42.9068 26.4884 40.3161 29.0157Z" fill="#ED0600" fill-opacity="0.8"/>
</svg>
