<svg width="266" height="89" viewBox="0 0 266 89" fill="none" xmlns="http://www.w3.org/2000/svg">
<rect x="0.853149" y="0.521484" width="265.069" height="88.0153" fill="white"/>
<path d="M205.076 50.3298C205.076 41.9649 199.176 35.9307 191.255 35.9307C183.335 35.9307 176.984 42.4166 176.984 50.3298C176.984 58.243 183.389 64.7289 191.309 64.7289C195.207 64.7289 199.465 63.5004 202.622 60.6459C203.524 59.8329 203.885 57.6468 202.586 56.2557C201.323 54.9187 199.302 55.0452 197.895 56.1292C196.253 57.3577 194.268 58.3333 191.634 58.3333C187.935 58.3333 185.229 56.075 184.85 52.8049H202.388C203.831 52.7869 205.076 51.7751 205.076 50.3298ZM197.606 47.4391H184.976C185.662 44.2955 187.935 42.3443 191.255 42.3443C194.593 42.3443 196.975 44.4762 197.606 47.4391Z" fill="#3822E4"/>
<path d="M232.7 8.14358C230.427 7.33058 225.97 6.66211 221.351 6.66211C204.716 6.66211 184.995 18.9294 171.698 38.4414C164.878 48.4323 163.218 53.4006 163.218 53.4006C163.218 53.4006 163.561 44.6021 162.424 38.9653C161.684 35.3159 160.421 34.3222 158.509 33.8344C155.658 33.1117 152.97 34.6293 151.4 36.3818C153.186 38.0439 154.666 41.3501 155.081 44.9815C155.604 49.6066 155.676 53.8523 155.766 62.3436C155.784 63.7709 155.496 64.2948 156.596 64.2948H162.767C164.066 64.2948 164.914 63.7889 165.257 62.9579C167.638 57.1585 174.44 43.1026 182.668 34.5571C196.471 20.1941 208.271 15.2257 220.9 15.2257C226.909 15.2257 230.968 16.0387 233.602 17.755C236.291 17.0324 239.16 10.4561 232.7 8.14358Z" fill="#3822E4"/>
<path d="M236.256 61.0253V49.9685C236.256 42.0372 230.5 35.9307 221.858 35.9307C213.937 35.9307 207.459 42.4166 207.459 50.3298C207.459 58.6766 212.764 64.7289 220.901 64.7289C224.546 64.7289 227.992 62.4706 228.822 60.6459C228.822 63.1391 230.518 64.7289 232.521 64.7289C234.596 64.7289 236.238 62.85 236.238 60.7723L236.256 61.0253ZM228.66 50.3298C228.66 54.5393 225.953 57.9359 221.623 57.9359C217.293 57.9359 215.092 54.5393 215.092 50.3298C215.092 46.1203 217.545 42.7237 221.876 42.7237C226.206 42.7237 228.66 46.1203 228.66 50.3298Z" fill="#3822E4"/>
<path d="M62.7378 60.9527V25.3614C62.7378 23.2837 61.0418 21.5312 58.9669 21.5312C56.892 21.5312 55.1418 23.2837 55.1418 25.3614V60.9527C55.1418 63.0304 56.892 64.7287 58.9669 64.7287C61.0418 64.7287 62.7378 63.0304 62.7378 60.9527Z" fill="#3822E4"/>
<path d="M94.4939 61.0253V49.9685C94.4939 42.0372 88.7383 35.9307 80.0958 35.9307C72.1751 35.9307 65.6978 42.4166 65.6978 50.3298C65.6978 58.6766 71.0023 64.7289 79.1396 64.7289C82.7842 64.7289 86.2484 62.4706 87.0603 60.6459C87.0603 63.1391 88.7563 64.7289 90.759 64.7289C92.834 64.7289 94.4758 62.85 94.4758 60.7723L94.4939 61.0253ZM86.8799 50.3298C86.8799 54.5393 84.1735 57.9359 79.8432 57.9359C75.4949 57.9359 73.3118 54.5393 73.3118 50.3298C73.3118 46.1203 75.7656 42.7237 80.0958 42.7237C84.4261 42.7237 86.8799 46.1203 86.8799 50.3298Z" fill="#3822E4"/>
<path d="M121.918 61.0966C121.918 59.3983 120.474 57.953 118.778 57.953H107.718L120.853 41.8917C121.358 41.2593 121.665 40.5186 121.665 39.6875C121.665 37.8628 120.222 36.3633 118.399 36.3633H100.609C98.9132 36.3633 97.4698 37.8086 97.4698 39.5069C97.4698 41.2051 98.9132 42.6505 100.609 42.6505H111.417L98.2817 58.7118C97.7224 59.3983 97.4698 60.2113 97.4698 61.0966C97.4698 62.6684 99.0395 64.1859 100.609 64.2401C102.377 64.3124 104.2 64.2401 106.022 64.2401H118.778C120.474 64.2401 121.918 62.7768 121.918 61.0966Z" fill="#3822E4"/>
<path d="M151.725 61.0253V49.9685C151.725 42.0372 145.969 35.9307 137.327 35.9307C129.406 35.9307 122.928 42.4166 122.928 50.3298C122.928 58.6766 128.233 64.7289 136.37 64.7289C140.015 64.7289 143.461 62.4706 144.291 60.6459C144.291 63.1391 145.987 64.7289 147.99 64.7289C150.065 64.7289 151.707 62.85 151.707 60.7723L151.725 61.0253ZM144.111 50.3298C144.111 54.5393 141.404 57.9359 137.074 57.9359C132.744 57.9359 130.542 54.5393 130.542 50.3298C130.542 46.1203 132.996 42.7237 137.327 42.7237C141.675 42.7237 144.111 46.1203 144.111 50.3298Z" fill="#3822E4"/>
<path d="M52.1106 50.3298C52.1106 42.4166 46.2107 35.9307 38.4884 35.9307C34.9701 35.9307 32.0291 37.8096 30.712 40.0137C30.712 37.5025 28.7634 35.9307 27.1396 35.9307C25.0647 35.9307 23.3687 37.7012 23.3687 39.7608V75.3522C23.3687 77.4298 25.0647 79.1281 27.1396 79.1281C29.2145 79.1281 30.9646 77.4298 30.9646 75.3522V60.8265C31.9028 62.6513 34.9881 64.7289 38.5065 64.7289C46.2107 64.7289 52.1106 58.2611 52.1106 50.3298ZM44.5147 50.3298C44.5147 54.5393 42.0609 57.9359 37.7306 57.9359C33.4004 57.9359 30.9466 54.5393 30.9466 50.3298C30.9466 46.1203 33.4004 42.7237 37.7306 42.7237C42.0789 42.7237 44.5147 46.1203 44.5147 50.3298Z" fill="#3822E4"/>
<path d="M236.254 77.4835C236.254 76.5982 235.461 76.1646 234.143 75.731C232.808 75.2974 232.357 75.1348 232.357 74.5206C232.357 73.9244 232.989 73.6353 233.891 73.6353C234.522 73.6353 235.1 73.7979 235.623 74.1231C235.677 74.1592 235.749 74.1592 235.803 74.1592C235.912 74.1592 236.038 74.105 236.092 73.9966C236.11 73.9424 236.128 73.8882 236.128 73.834C236.128 73.7256 236.074 73.6172 235.966 73.563C235.37 73.1836 234.775 72.9668 233.837 72.9668C232.574 72.9668 231.581 73.545 231.581 74.5025C231.581 75.442 232.411 75.8214 233.476 76.2008C234.901 76.6705 235.461 76.9415 235.461 77.5016C235.461 78.2242 234.613 78.5133 233.765 78.5133C233.043 78.5133 232.429 78.2965 231.834 77.881C231.78 77.8268 231.708 77.8268 231.654 77.8268C231.563 77.8268 231.473 77.8629 231.401 77.9713C231.365 78.0255 231.347 78.0978 231.347 78.152C231.347 78.2423 231.401 78.3507 231.473 78.4049C232.195 78.9469 233.043 79.1818 233.819 79.1818C235.298 79.1637 236.254 78.4591 236.254 77.4835ZM229.597 76.0743C229.597 77.3751 228.622 78.4591 227.305 78.4591C225.988 78.4591 225.014 77.3751 225.014 76.0743C225.014 74.7735 226.006 73.6895 227.305 73.6895C228.622 73.6895 229.597 74.7735 229.597 76.0743ZM230.409 78.712V76.0743C230.409 74.358 229.037 72.9849 227.323 72.9849C225.609 72.9849 224.22 74.358 224.22 76.0743C224.22 77.7906 225.627 79.1637 227.287 79.1637C228.298 79.1637 229.2 78.6037 229.597 78.0074V78.694C229.597 78.9288 229.777 79.0914 229.994 79.0914C230.228 79.1095 230.409 78.9469 230.409 78.712ZM229.38 70.7266C229.38 70.6543 229.344 70.6001 229.308 70.5459C229.254 70.4556 229.164 70.4194 229.073 70.4194C229.001 70.4194 228.929 70.4375 228.875 70.4736L227.125 71.7202C227.035 71.7925 226.999 71.8648 226.999 71.9732C226.999 72.0454 227.035 72.0996 227.053 72.1538C227.107 72.2442 227.215 72.2984 227.323 72.2984C227.396 72.2984 227.432 72.2984 227.486 72.2622L229.236 70.9976C229.326 70.9253 229.38 70.835 229.38 70.7266ZM222.939 78.712V75.6588C222.939 74.1231 222.163 72.9668 220.557 72.9668C219.601 72.9668 218.663 73.4546 218.284 74.3218C217.941 73.5269 217.237 72.9668 216.173 72.9668C215.271 72.9668 214.585 73.3643 214.134 74.0508V73.4366C214.134 73.2017 213.954 73.021 213.737 73.021C213.503 73.021 213.322 73.2017 213.322 73.4366V78.712C213.322 78.9469 213.503 79.1095 213.737 79.1095C213.972 79.1095 214.134 78.9288 214.134 78.712V75.6949C214.134 74.5928 214.856 73.6895 216.011 73.6895C217.201 73.6895 217.725 74.5567 217.725 75.6768V78.712C217.725 78.9469 217.905 79.1095 218.122 79.1095C218.356 79.1095 218.537 78.9288 218.537 78.712V75.5323C218.537 74.4664 219.312 73.6714 220.395 73.6714C221.658 73.6714 222.109 74.5386 222.109 75.6588V78.694C222.109 78.9288 222.289 79.0914 222.506 79.0914C222.759 79.1095 222.939 78.9469 222.939 78.712ZM208.306 76.0743C208.306 77.3751 207.332 78.4591 206.015 78.4591C204.698 78.4591 203.723 77.3751 203.723 76.0743C203.723 74.7735 204.716 73.6895 206.015 73.6895C207.332 73.6895 208.306 74.7735 208.306 76.0743ZM209.1 78.712V76.0743C209.1 74.358 207.711 72.9849 205.997 72.9849C204.283 72.9849 202.894 74.358 202.894 76.0743C202.894 77.7906 204.301 79.1637 205.961 79.1637C206.971 79.1637 207.873 78.6037 208.27 78.0074V78.694C208.27 78.9288 208.451 79.0914 208.667 79.0914C208.938 79.1095 209.1 78.9469 209.1 78.712ZM202.713 73.4908C202.713 73.292 202.569 73.1475 202.37 73.1475H201.161V71.1602C201.161 70.9253 200.999 70.7446 200.764 70.7446C200.53 70.7446 200.349 70.9253 200.349 71.1602V73.1475H199.285C199.087 73.1475 198.96 73.292 198.96 73.4908C198.96 73.6714 199.087 73.834 199.285 73.834H200.349V78.7301C200.349 78.9469 200.53 79.1276 200.764 79.1276C200.981 79.1276 201.161 78.965 201.161 78.7301V73.816H202.37C202.569 73.816 202.713 73.6714 202.713 73.4908ZM198.166 76.3995V73.4366C198.166 73.2017 197.986 73.021 197.769 73.021C197.535 73.021 197.372 73.2017 197.372 73.4366V76.4898C197.372 77.5919 196.506 78.4591 195.406 78.4591C194.287 78.4591 193.421 77.5738 193.421 76.4898V73.4366C193.421 73.2017 193.241 73.021 193.024 73.021C192.79 73.021 192.627 73.2017 192.627 73.4366V76.3995C192.627 77.9352 193.836 79.1637 195.406 79.1637C196.939 79.1637 198.166 77.9352 198.166 76.3995ZM191.978 73.3282C191.978 73.1294 191.833 72.9668 191.635 72.9668C190.624 72.9668 189.813 73.3643 189.343 74.1231V73.4366C189.343 73.2017 189.145 73.021 188.928 73.021C188.694 73.021 188.532 73.2017 188.532 73.4366V78.712C188.532 78.9469 188.712 79.1095 188.928 79.1095C189.145 79.1095 189.343 78.9288 189.343 78.712V75.7491C189.343 74.5025 190.444 73.6895 191.635 73.6895C191.833 73.6895 191.978 73.545 191.978 73.3282ZM187.738 70.2207C187.738 70.022 187.593 69.8774 187.395 69.8774H186.98C185.446 69.8774 184.923 70.6362 184.923 72.1177V73.1475H184.021C183.84 73.1475 183.696 73.292 183.696 73.4908C183.696 73.6714 183.84 73.834 184.021 73.834H184.923V78.7301C184.923 78.965 185.103 79.1276 185.32 79.1276C185.554 79.1276 185.735 78.9469 185.735 78.7301V73.816H186.98C187.178 73.816 187.323 73.6714 187.323 73.4727C187.323 73.274 187.178 73.1294 186.98 73.1294H185.735V72.0093C185.735 70.9434 186.024 70.5459 187.016 70.5459H187.395C187.593 70.564 187.738 70.4194 187.738 70.2207ZM182.812 77.4835C182.812 76.5982 182.018 76.1646 180.701 75.731C179.384 75.2974 178.915 75.1348 178.915 74.5206C178.915 73.9244 179.546 73.6353 180.448 73.6353C181.062 73.6353 181.657 73.7979 182.181 74.1231C182.235 74.1592 182.307 74.1592 182.361 74.1592C182.469 74.1592 182.595 74.105 182.65 73.9966C182.668 73.9424 182.686 73.8882 182.686 73.834C182.686 73.7256 182.632 73.6172 182.523 73.563C181.928 73.1836 181.332 72.9668 180.394 72.9668C179.131 72.9668 178.139 73.545 178.139 74.5025C178.139 75.442 178.969 75.8214 180.033 76.2008C181.459 76.6705 182.018 76.9415 182.018 77.5016C182.018 78.2242 181.17 78.5133 180.322 78.5133C179.618 78.5133 178.987 78.2965 178.392 77.881C178.337 77.8268 178.265 77.8268 178.211 77.8268C178.121 77.8268 178.031 77.8629 177.959 77.9713C177.922 78.0255 177.904 78.0978 177.904 78.152C177.904 78.2423 177.959 78.3507 178.031 78.4049C178.752 78.9469 179.6 79.1818 180.376 79.1818C181.856 79.1637 182.812 78.4591 182.812 77.4835ZM176.281 78.712V73.4366C176.281 73.2017 176.118 73.021 175.884 73.021C175.649 73.021 175.469 73.2017 175.469 73.4366V78.712C175.469 78.9469 175.649 79.1095 175.884 79.1095C176.118 79.1095 176.281 78.9469 176.281 78.712ZM176.353 70.9614C176.353 70.6904 176.154 70.4736 175.884 70.4736C175.613 70.4736 175.378 70.6904 175.378 70.9614C175.378 71.2324 175.613 71.4492 175.884 71.4492C176.154 71.4492 176.353 71.2324 176.353 70.9614ZM172.546 76.0743C172.546 77.4112 171.553 78.4591 170.254 78.4591C168.937 78.4591 167.981 77.4835 167.981 76.0743C167.981 74.6651 168.937 73.6895 170.254 73.6895C171.553 73.6895 172.546 74.7374 172.546 76.0743ZM173.358 78.712V70.2749C173.358 70.04 173.195 69.8594 172.961 69.8594C172.726 69.8594 172.564 70.04 172.564 70.2749V74.2496C172.149 73.5088 171.247 72.9668 170.218 72.9668C168.504 72.9668 167.169 74.2857 167.169 76.0562C167.169 77.8268 168.504 79.1456 170.218 79.1456C171.247 79.1456 172.131 78.6578 172.564 77.8629V78.694C172.564 78.9288 172.744 79.0914 172.961 79.0914C173.177 79.1095 173.358 78.9469 173.358 78.712ZM163.055 78.5675C163.055 78.1339 162.821 77.8629 162.442 77.8629C162.099 77.8629 161.828 78.1158 161.828 78.4591C161.828 78.8024 162.099 79.0734 162.442 79.0734C162.46 79.0734 162.478 79.0553 162.478 79.0553C162.478 79.6876 162.261 80.2296 161.81 80.7897C161.792 80.8078 161.792 80.8259 161.792 80.8801C161.792 80.9523 161.828 81.0246 161.901 81.0788C161.937 81.0968 161.973 81.0968 162.009 81.0968C162.081 81.0968 162.135 81.0607 162.171 81.0246C162.803 80.2658 163.055 79.3986 163.055 78.5675ZM160.746 77.4835C160.746 76.5982 159.952 76.1646 158.635 75.731C157.318 75.2974 156.849 75.1348 156.849 74.5206C156.849 73.9244 157.48 73.6353 158.382 73.6353C158.996 73.6353 159.591 73.7979 160.114 74.1231C160.168 74.1592 160.241 74.1592 160.295 74.1592C160.403 74.1592 160.511 74.105 160.583 73.9966C160.601 73.9424 160.619 73.8882 160.619 73.834C160.619 73.7256 160.565 73.6172 160.457 73.563C159.862 73.1836 159.266 72.9668 158.346 72.9668C157.083 72.9668 156.091 73.545 156.091 74.5025C156.091 75.442 156.903 75.8214 157.985 76.2008C159.411 76.6705 159.97 76.9415 159.97 77.5016C159.97 78.2242 159.122 78.5133 158.292 78.5133C157.57 78.5133 156.957 78.2965 156.361 77.881C156.307 77.8268 156.253 77.8268 156.163 77.8268C156.073 77.8268 155.983 77.8629 155.91 77.9713C155.874 78.0255 155.856 78.0978 155.856 78.152C155.856 78.2423 155.91 78.3507 156.001 78.4049C156.722 78.9469 157.57 79.1818 158.328 79.1818C159.79 79.1637 160.746 78.4591 160.746 77.4835ZM154.088 76.0743C154.088 77.3751 153.114 78.4591 151.797 78.4591C150.479 78.4591 149.505 77.3751 149.505 76.0743C149.505 74.7735 150.498 73.6895 151.797 73.6895C153.114 73.6895 154.088 74.7735 154.088 76.0743ZM154.9 78.712V76.0743C154.9 74.358 153.529 72.9849 151.815 72.9849C150.101 72.9849 148.711 74.358 148.711 76.0743C148.711 77.7906 150.119 79.1637 151.779 79.1637C152.789 79.1637 153.691 78.6037 154.088 78.0074V78.694C154.088 78.9288 154.268 79.0914 154.503 79.0914C154.72 79.1095 154.9 78.9469 154.9 78.712ZM153.872 70.7266C153.872 70.6543 153.835 70.6001 153.799 70.5459C153.745 70.4556 153.637 70.4194 153.547 70.4194C153.475 70.4194 153.42 70.4375 153.366 70.4736L151.616 71.7202C151.544 71.7925 151.49 71.8648 151.49 71.9732C151.49 72.0454 151.508 72.0996 151.544 72.1538C151.598 72.2442 151.706 72.2984 151.815 72.2984C151.887 72.2984 151.923 72.2984 151.977 72.2622L153.727 70.9976C153.817 70.9253 153.872 70.835 153.872 70.7266ZM147.43 78.712V75.6588C147.43 74.1231 146.654 72.9668 145.049 72.9668C144.092 72.9668 143.154 73.4546 142.775 74.3218C142.432 73.5269 141.729 72.9668 140.664 72.9668C139.762 72.9668 139.077 73.3643 138.625 74.0508V73.4366C138.625 73.2017 138.445 73.021 138.228 73.021C137.994 73.021 137.832 73.2017 137.832 73.4366V78.712C137.832 78.9469 138.012 79.1095 138.228 79.1095C138.463 79.1095 138.625 78.9288 138.625 78.712V75.6949C138.625 74.5928 139.347 73.6895 140.502 73.6895C141.693 73.6895 142.216 74.5567 142.216 75.6768V78.712C142.216 78.9469 142.396 79.1095 142.613 79.1095C142.847 79.1095 143.028 78.9288 143.028 78.712V75.5323C143.028 74.4664 143.804 73.6714 144.886 73.6714C146.149 73.6714 146.6 74.5386 146.6 75.6588V78.694C146.6 78.9288 146.781 79.0914 146.997 79.0914C147.25 79.1095 147.43 78.9469 147.43 78.712ZM132.78 76.0743C132.78 77.3751 131.805 78.4591 130.488 78.4591C129.189 78.4591 128.197 77.3751 128.197 76.0743C128.197 74.7735 129.189 73.6895 130.488 73.6895C131.805 73.6895 132.78 74.7735 132.78 76.0743ZM133.592 78.712V76.0743C133.592 74.358 132.22 72.9849 130.488 72.9849C128.774 72.9849 127.385 74.358 127.385 76.0743C127.385 77.7906 128.792 79.1637 130.452 79.1637C131.462 79.1637 132.365 78.6037 132.762 78.0074V78.694C132.762 78.9288 132.942 79.0914 133.159 79.0914C133.429 79.1095 133.592 78.9469 133.592 78.712ZM127.349 73.3282C127.349 73.1294 127.204 72.9668 126.988 72.9668C125.996 72.9668 125.184 73.3643 124.696 74.1231V73.4366C124.696 73.2017 124.516 73.021 124.3 73.021C124.065 73.021 123.903 73.2017 123.903 73.4366V78.712C123.903 78.9469 124.083 79.1095 124.3 79.1095C124.516 79.1095 124.696 78.9288 124.696 78.712V75.7491C124.696 74.5025 125.797 73.6895 126.988 73.6895C127.186 73.6895 127.349 73.545 127.349 73.3282ZM122.82 73.3282C122.82 73.1294 122.676 72.9668 122.459 72.9668C121.467 72.9668 120.655 73.3643 120.168 74.1231V73.4366C120.168 73.2017 119.987 73.021 119.771 73.021C119.536 73.021 119.374 73.2017 119.374 73.4366V78.712C119.374 78.9469 119.554 79.1095 119.771 79.1095C119.987 79.1095 120.168 78.9288 120.168 78.712V75.7491C120.168 74.5025 121.268 73.6895 122.459 73.6895C122.676 73.6895 122.82 73.545 122.82 73.3282ZM117.245 76.0743C117.245 77.3751 116.253 78.4591 114.953 78.4591C113.636 78.4591 112.662 77.3751 112.662 76.0743C112.662 74.7735 113.636 73.6895 114.953 73.6895C116.253 73.6895 117.245 74.7735 117.245 76.0743ZM118.039 76.0743C118.039 74.358 116.649 72.9849 114.935 72.9849C113.221 72.9849 111.832 74.358 111.832 76.0743C111.832 77.7906 113.221 79.1637 114.935 79.1637C116.667 79.1637 118.039 77.7906 118.039 76.0743ZM110.768 78.712V75.6949C110.768 74.1592 109.865 72.9849 108.26 72.9849C107.357 72.9849 106.473 73.4185 106.04 74.1231V70.293C106.04 70.0581 105.842 69.8774 105.643 69.8774C105.409 69.8774 105.228 70.0581 105.228 70.293V78.7301C105.228 78.965 105.409 79.1276 105.643 79.1276C105.878 79.1276 106.04 78.9469 106.04 78.7301V75.713C106.04 74.6109 106.924 73.7076 108.097 73.7076C109.396 73.7076 109.974 74.5748 109.974 75.6949V78.7301C109.974 78.965 110.154 79.1276 110.389 79.1276C110.605 79.1095 110.768 78.9469 110.768 78.712ZM102.865 76.0743C102.865 77.3751 101.891 78.4591 100.573 78.4591C99.2563 78.4591 98.282 77.3751 98.282 76.0743C98.282 74.7735 99.2743 73.6895 100.573 73.6895C101.891 73.6895 102.865 74.7735 102.865 76.0743ZM103.677 78.712V76.0743C103.677 74.358 102.305 72.9849 100.591 72.9849C98.8774 72.9849 97.4881 74.358 97.4881 76.0743C97.4881 77.7906 98.8954 79.1637 100.555 79.1637C101.566 79.1637 102.468 78.6037 102.865 78.0074V78.694C102.865 78.9288 103.045 79.0914 103.28 79.0914C103.496 79.1095 103.677 78.9469 103.677 78.712Z" fill="#3822E4"/>
</svg>
