<svg width="212" height="71" viewBox="0 0 212 71" fill="none" xmlns="http://www.w3.org/2000/svg">
<rect y="0.627991" width="211.871" height="70.3512" fill="white"/>
<path d="M163.236 40.4398C163.236 33.7537 158.52 28.9305 152.189 28.9305C145.858 28.9305 140.781 34.1147 140.781 40.4398C140.781 46.7649 145.901 51.9491 152.232 51.9491C155.347 51.9491 158.751 50.9671 161.274 48.6855C161.995 48.0357 162.284 46.2883 161.246 45.1764C160.236 44.1078 158.621 44.2088 157.496 45.0753C156.184 46.0573 154.597 46.8371 152.492 46.8371C149.535 46.8371 147.372 45.032 147.069 42.4182H161.087C162.241 42.4037 163.236 41.5951 163.236 40.4398ZM157.265 38.1293H147.17C147.718 35.6166 149.535 34.057 152.189 34.057C154.857 34.057 156.76 35.761 157.265 38.1293Z" fill="#ED0600" fill-opacity="0.8"/>
<path d="M185.316 6.72034C183.499 6.0705 179.937 5.53619 176.245 5.53619C162.948 5.53619 147.185 15.3415 136.556 30.9376C131.105 38.9233 129.778 42.8945 129.778 42.8945C129.778 42.8945 130.052 35.8619 129.144 31.3563C128.552 28.4393 127.543 27.6451 126.014 27.2552C123.736 26.6775 121.587 27.8905 120.332 29.2913C121.76 30.6199 122.942 33.2625 123.274 36.1651C123.692 39.862 123.75 43.2556 123.822 50.0427C123.836 51.1836 123.606 51.6023 124.485 51.6023H129.418C130.456 51.6023 131.134 51.198 131.408 50.5337C133.311 45.8982 138.748 34.6633 145.325 27.8328C156.357 16.3524 165.789 12.3811 175.884 12.3811C180.687 12.3811 183.931 13.031 186.037 14.4028C188.186 13.8252 190.479 8.56876 185.316 6.72034Z" fill="#ED0600" fill-opacity="0.8"/>
<path d="M188.158 48.9887V40.151C188.158 33.8115 183.557 28.9305 176.649 28.9305C170.318 28.9305 165.141 34.1147 165.141 40.4398C165.141 47.1114 169.381 51.9491 175.885 51.9491C178.798 51.9491 181.552 50.144 182.216 48.6855C182.216 50.6783 183.571 51.9491 185.172 51.9491C186.831 51.9491 188.143 50.4473 188.143 48.7866L188.158 48.9887ZM182.086 40.4398C182.086 43.8045 179.923 46.5194 176.462 46.5194C173 46.5194 171.241 43.8045 171.241 40.4398C171.241 37.0751 173.202 34.3602 176.664 34.3602C180.125 34.3602 182.086 37.0751 182.086 40.4398Z" fill="#ED0600" fill-opacity="0.8"/>
<path d="M49.4641 48.9308V20.4824C49.4641 18.8217 48.1084 17.421 46.45 17.421C44.7915 17.421 43.3926 18.8217 43.3926 20.4824V48.9308C43.3926 50.5915 44.7915 51.9489 46.45 51.9489C48.1084 51.9489 49.4641 50.5915 49.4641 48.9308Z" fill="#ED0600" fill-opacity="0.8"/>
<path d="M74.847 48.9887V40.151C74.847 33.8115 70.2465 28.9305 63.3385 28.9305C57.0074 28.9305 51.8301 34.1147 51.8301 40.4398C51.8301 47.1114 56.07 51.9491 62.5742 51.9491C65.4874 51.9491 68.2563 50.144 68.9053 48.6855C68.9053 50.6783 70.2609 51.9491 71.8617 51.9491C73.5202 51.9491 74.8326 50.4473 74.8326 48.7866L74.847 48.9887ZM68.7611 40.4398C68.7611 43.8045 66.5978 46.5194 63.1366 46.5194C59.661 46.5194 57.916 43.8045 57.916 40.4398C57.916 37.0751 59.8773 34.3602 63.3385 34.3602C66.7997 34.3602 68.7611 37.0751 68.7611 40.4398Z" fill="#ED0600" fill-opacity="0.8"/>
<path d="M96.7659 49.0463C96.7659 47.6889 95.6122 46.5336 94.2565 46.5336H85.4161L95.915 33.6957C96.3188 33.1903 96.564 32.5982 96.564 31.934C96.564 30.4754 95.4103 29.2769 93.9537 29.2769H79.734C78.3783 29.2769 77.2246 30.4321 77.2246 31.7896C77.2246 33.147 78.3783 34.3022 79.734 34.3022H88.3725L77.8736 47.1401C77.4265 47.6889 77.2246 48.3387 77.2246 49.0463C77.2246 50.3026 78.4793 51.5157 79.734 51.559C81.1473 51.6168 82.6039 51.559 84.0605 51.559H94.2565C95.6122 51.559 96.7659 50.3893 96.7659 49.0463Z" fill="#ED0600" fill-opacity="0.8"/>
<path d="M120.591 48.9887V40.151C120.591 33.8115 115.991 28.9305 109.083 28.9305C102.752 28.9305 97.5742 34.1147 97.5742 40.4398C97.5742 47.1114 101.814 51.9491 108.318 51.9491C111.232 51.9491 113.986 50.144 114.649 48.6855C114.649 50.6783 116.005 51.9491 117.606 51.9491C119.264 51.9491 120.577 50.4473 120.577 48.7866L120.591 48.9887ZM114.505 40.4398C114.505 43.8045 112.342 46.5194 108.881 46.5194C105.42 46.5194 103.66 43.8045 103.66 40.4398C103.66 37.0751 105.621 34.3602 109.083 34.3602C112.558 34.3602 114.505 37.0751 114.505 40.4398Z" fill="#ED0600" fill-opacity="0.8"/>
<path d="M40.9697 40.4398C40.9697 34.1147 36.2539 28.9305 30.0814 28.9305C27.2692 28.9305 24.9185 30.4323 23.8657 32.1941C23.8657 30.1868 22.3082 28.9305 21.0102 28.9305C19.3517 28.9305 17.9961 30.3457 17.9961 31.9919V60.4403C17.9961 62.101 19.3517 63.4584 21.0102 63.4584C22.6687 63.4584 24.0676 62.101 24.0676 60.4403V48.8299C24.8175 50.2884 27.2836 51.9491 30.0958 51.9491C36.2539 51.9491 40.9697 46.7793 40.9697 40.4398ZM34.8982 40.4398C34.8982 43.8045 32.9369 46.5194 29.4757 46.5194C26.0145 46.5194 24.0532 43.8045 24.0532 40.4398C24.0532 37.0751 26.0145 34.3602 29.4757 34.3602C32.9513 34.3602 34.8982 37.0751 34.8982 40.4398Z" fill="#ED0600" fill-opacity="0.8"/>
<path d="M188.157 62.1441C188.157 61.4365 187.522 61.0899 186.47 60.7433C185.402 60.3967 185.042 60.2668 185.042 59.7758C185.042 59.2992 185.547 59.0682 186.268 59.0682C186.772 59.0682 187.234 59.1981 187.652 59.4581C187.695 59.487 187.753 59.487 187.796 59.487C187.883 59.487 187.984 59.4436 188.027 59.357C188.042 59.3137 188.056 59.2703 188.056 59.227C188.056 59.1404 188.013 59.0537 187.926 59.0104C187.45 58.7072 186.974 58.5339 186.224 58.5339C185.215 58.5339 184.422 58.996 184.422 59.7613C184.422 60.5123 185.085 60.8155 185.936 61.1188C187.075 61.4942 187.522 61.7108 187.522 62.1585C187.522 62.7361 186.845 62.9672 186.167 62.9672C185.59 62.9672 185.1 62.7939 184.624 62.4618C184.58 62.4184 184.523 62.4184 184.479 62.4184C184.407 62.4184 184.335 62.4473 184.278 62.534C184.249 62.5773 184.234 62.6351 184.234 62.6784C184.234 62.7506 184.278 62.8372 184.335 62.8805C184.912 63.3138 185.59 63.5015 186.21 63.5015C187.393 63.4871 188.157 62.9239 188.157 62.1441ZM182.835 61.0177C182.835 62.0574 182.057 62.9239 181.004 62.9239C179.951 62.9239 179.172 62.0574 179.172 61.0177C179.172 59.9779 179.965 59.1115 181.004 59.1115C182.057 59.1115 182.835 59.9779 182.835 61.0177ZM183.484 63.126V61.0177C183.484 59.6458 182.388 58.5483 181.018 58.5483C179.648 58.5483 178.538 59.6458 178.538 61.0177C178.538 62.3896 179.663 63.4871 180.989 63.4871C181.797 63.4871 182.518 63.0394 182.835 62.5628V63.1116C182.835 63.2993 182.98 63.4293 183.153 63.4293C183.34 63.4437 183.484 63.3138 183.484 63.126ZM182.662 56.7432C182.662 56.6854 182.633 56.6421 182.605 56.5988C182.561 56.5266 182.489 56.4977 182.417 56.4977C182.359 56.4977 182.302 56.5122 182.259 56.541L180.86 57.5375C180.788 57.5952 180.759 57.653 180.759 57.7396C180.759 57.7974 180.787 57.8407 180.802 57.884C180.845 57.9562 180.932 57.9996 181.018 57.9996C181.076 57.9996 181.105 57.9996 181.148 57.9707L182.547 56.9598C182.619 56.9021 182.662 56.8299 182.662 56.7432ZM177.514 63.126V60.6855C177.514 59.4581 176.894 58.5339 175.61 58.5339C174.846 58.5339 174.096 58.9238 173.793 59.6169C173.519 58.9815 172.957 58.5339 172.106 58.5339C171.385 58.5339 170.837 58.8516 170.476 59.4003V58.9093C170.476 58.7216 170.332 58.5772 170.159 58.5772C169.971 58.5772 169.827 58.7216 169.827 58.9093V63.126C169.827 63.3138 169.971 63.4437 170.159 63.4437C170.346 63.4437 170.476 63.2993 170.476 63.126V60.7144C170.476 59.8335 171.053 59.1115 171.976 59.1115C172.928 59.1115 173.346 59.8047 173.346 60.7V63.126C173.346 63.3138 173.49 63.4437 173.663 63.4437C173.851 63.4437 173.995 63.2993 173.995 63.126V60.5845C173.995 59.7325 174.615 59.0971 175.48 59.0971C176.49 59.0971 176.85 59.7902 176.85 60.6855V63.1116C176.85 63.2993 176.995 63.4293 177.168 63.4293C177.37 63.4437 177.514 63.3138 177.514 63.126ZM165.818 61.0177C165.818 62.0574 165.039 62.9239 163.986 62.9239C162.934 62.9239 162.155 62.0574 162.155 61.0177C162.155 59.9779 162.948 59.1115 163.986 59.1115C165.039 59.1115 165.818 59.9779 165.818 61.0177ZM166.452 63.126V61.0177C166.452 59.6458 165.342 58.5483 163.972 58.5483C162.602 58.5483 161.491 59.6458 161.491 61.0177C161.491 62.3896 162.616 63.4871 163.943 63.4871C164.751 63.4871 165.472 63.0394 165.789 62.5628V63.1116C165.789 63.2993 165.933 63.4293 166.106 63.4293C166.323 63.4437 166.452 63.3138 166.452 63.126ZM161.347 58.9527C161.347 58.7938 161.232 58.6783 161.073 58.6783H160.107V57.0898C160.107 56.9021 159.977 56.7577 159.79 56.7577C159.602 56.7577 159.458 56.9021 159.458 57.0898V58.6783H158.607C158.448 58.6783 158.347 58.7938 158.347 58.9527C158.347 59.0971 158.448 59.227 158.607 59.227H159.458V63.1405C159.458 63.3138 159.602 63.4582 159.79 63.4582C159.963 63.4582 160.107 63.3282 160.107 63.1405V59.2126H161.073C161.232 59.2126 161.347 59.0971 161.347 58.9527ZM157.713 61.2776V58.9093C157.713 58.7216 157.569 58.5772 157.396 58.5772C157.208 58.5772 157.078 58.7216 157.078 58.9093V61.3498C157.078 62.2307 156.386 62.9239 155.506 62.9239C154.612 62.9239 153.92 62.2163 153.92 61.3498V58.9093C153.92 58.7216 153.776 58.5772 153.603 58.5772C153.415 58.5772 153.285 58.7216 153.285 58.9093V61.2776C153.285 62.5051 154.252 63.4871 155.506 63.4871C156.732 63.4871 157.713 62.5051 157.713 61.2776ZM152.766 58.8227C152.766 58.6638 152.651 58.5339 152.492 58.5339C151.685 58.5339 151.036 58.8516 150.661 59.4581V58.9093C150.661 58.7216 150.502 58.5772 150.329 58.5772C150.142 58.5772 150.012 58.7216 150.012 58.9093V63.126C150.012 63.3138 150.156 63.4437 150.329 63.4437C150.502 63.4437 150.661 63.2993 150.661 63.126V60.7578C150.661 59.7613 151.54 59.1115 152.492 59.1115C152.651 59.1115 152.766 58.996 152.766 58.8227ZM149.377 56.3389C149.377 56.18 149.262 56.0645 149.103 56.0645H148.771C147.546 56.0645 147.127 56.671 147.127 57.8551V58.6783H146.406C146.262 58.6783 146.147 58.7938 146.147 58.9527C146.147 59.0971 146.262 59.227 146.406 59.227H147.127V63.1405C147.127 63.3282 147.272 63.4582 147.445 63.4582C147.632 63.4582 147.776 63.3138 147.776 63.1405V59.2126H148.771C148.93 59.2126 149.046 59.0971 149.046 58.9382C149.046 58.7794 148.93 58.6638 148.771 58.6638H147.776V57.7685C147.776 56.9165 148.007 56.5988 148.8 56.5988H149.103C149.262 56.6132 149.377 56.4977 149.377 56.3389ZM145.44 62.1441C145.44 61.4365 144.806 61.0899 143.753 60.7433C142.7 60.3967 142.325 60.2668 142.325 59.7758C142.325 59.2992 142.83 59.0682 143.551 59.0682C144.041 59.0682 144.517 59.1981 144.935 59.4581C144.979 59.487 145.036 59.487 145.08 59.487C145.166 59.487 145.267 59.4436 145.31 59.357C145.325 59.3137 145.339 59.2703 145.339 59.227C145.339 59.1404 145.296 59.0537 145.209 59.0104C144.733 58.7072 144.258 58.5339 143.508 58.5339C142.498 58.5339 141.705 58.996 141.705 59.7613C141.705 60.5123 142.368 60.8155 143.219 61.1188C144.358 61.4942 144.806 61.7108 144.806 62.1585C144.806 62.7361 144.128 62.9672 143.45 62.9672C142.887 62.9672 142.383 62.7939 141.907 62.4618C141.864 62.4184 141.806 62.4184 141.763 62.4184C141.69 62.4184 141.618 62.4473 141.561 62.534C141.532 62.5773 141.517 62.6351 141.517 62.6784C141.517 62.7506 141.561 62.8372 141.618 62.8805C142.195 63.3138 142.873 63.5015 143.493 63.5015C144.676 63.4871 145.44 62.9239 145.44 62.1441ZM140.219 63.126V58.9093C140.219 58.7216 140.09 58.5772 139.902 58.5772C139.715 58.5772 139.571 58.7216 139.571 58.9093V63.126C139.571 63.3138 139.715 63.4437 139.902 63.4437C140.09 63.4437 140.219 63.3138 140.219 63.126ZM140.277 56.9309C140.277 56.7143 140.119 56.541 139.902 56.541C139.686 56.541 139.498 56.7143 139.498 56.9309C139.498 57.1476 139.686 57.3208 139.902 57.3208C140.119 57.3208 140.277 57.1476 140.277 56.9309ZM137.234 61.0177C137.234 62.0863 136.441 62.9239 135.403 62.9239C134.35 62.9239 133.586 62.1441 133.586 61.0177C133.586 59.8913 134.35 59.1115 135.403 59.1115C136.441 59.1115 137.234 59.9491 137.234 61.0177ZM137.883 63.126V56.3822C137.883 56.1945 137.753 56.05 137.566 56.05C137.378 56.05 137.249 56.1945 137.249 56.3822V59.5592C136.917 58.9671 136.196 58.5339 135.374 58.5339C134.004 58.5339 132.937 59.588 132.937 61.0032C132.937 62.4184 134.004 63.4726 135.374 63.4726C136.196 63.4726 136.903 63.0827 137.249 62.4473V63.1116C137.249 63.2993 137.393 63.4293 137.566 63.4293C137.739 63.4437 137.883 63.3138 137.883 63.126ZM129.648 63.0105C129.648 62.6639 129.461 62.4473 129.158 62.4473C128.884 62.4473 128.668 62.6495 128.668 62.9239C128.668 63.1982 128.884 63.4149 129.158 63.4149C129.173 63.4149 129.187 63.4004 129.187 63.4004C129.187 63.9058 129.014 64.3391 128.653 64.7867C128.639 64.8012 128.639 64.8156 128.639 64.8589C128.639 64.9167 128.668 64.9745 128.725 65.0178C128.754 65.0322 128.783 65.0322 128.812 65.0322C128.87 65.0322 128.913 65.0033 128.942 64.9745C129.447 64.3679 129.648 63.6748 129.648 63.0105ZM127.802 62.1441C127.802 61.4365 127.168 61.0899 126.115 60.7433C125.062 60.3967 124.687 60.2668 124.687 59.7758C124.687 59.2992 125.192 59.0682 125.913 59.0682C126.404 59.0682 126.879 59.1981 127.298 59.4581C127.341 59.487 127.399 59.487 127.442 59.487C127.528 59.487 127.615 59.4436 127.673 59.357C127.687 59.3137 127.702 59.2703 127.702 59.227C127.702 59.1404 127.658 59.0537 127.572 59.0104C127.096 58.7072 126.62 58.5339 125.884 58.5339C124.875 58.5339 124.082 58.996 124.082 59.7613C124.082 60.5123 124.731 60.8155 125.596 61.1188C126.735 61.4942 127.182 61.7108 127.182 62.1585C127.182 62.7361 126.505 62.9672 125.841 62.9672C125.264 62.9672 124.774 62.7939 124.298 62.4618C124.255 62.4184 124.211 62.4184 124.139 62.4184C124.067 62.4184 123.995 62.4473 123.937 62.534C123.909 62.5773 123.894 62.6351 123.894 62.6784C123.894 62.7506 123.937 62.8372 124.01 62.8805C124.586 63.3138 125.264 63.5015 125.87 63.5015C127.038 63.4871 127.802 62.9239 127.802 62.1441ZM122.481 61.0177C122.481 62.0574 121.702 62.9239 120.649 62.9239C119.597 62.9239 118.818 62.0574 118.818 61.0177C118.818 59.9779 119.611 59.1115 120.649 59.1115C121.702 59.1115 122.481 59.9779 122.481 61.0177ZM123.13 63.126V61.0177C123.13 59.6458 122.034 58.5483 120.664 58.5483C119.294 58.5483 118.183 59.6458 118.183 61.0177C118.183 62.3896 119.308 63.4871 120.635 63.4871C121.443 63.4871 122.164 63.0394 122.481 62.5628V63.1116C122.481 63.2993 122.625 63.4293 122.813 63.4293C122.986 63.4437 123.13 63.3138 123.13 63.126ZM122.308 56.7432C122.308 56.6854 122.279 56.6421 122.25 56.5988C122.207 56.5266 122.12 56.4977 122.048 56.4977C121.991 56.4977 121.947 56.5122 121.904 56.541L120.505 57.5375C120.447 57.5952 120.404 57.653 120.404 57.7396C120.404 57.7974 120.419 57.8407 120.447 57.884C120.491 57.9562 120.577 57.9996 120.664 57.9996C120.721 57.9996 120.75 57.9996 120.794 57.9707L122.192 56.9598C122.265 56.9021 122.308 56.8299 122.308 56.7432ZM117.159 63.126V60.6855C117.159 59.4581 116.539 58.5339 115.256 58.5339C114.491 58.5339 113.741 58.9238 113.439 59.6169C113.165 58.9815 112.602 58.5339 111.751 58.5339C111.03 58.5339 110.482 58.8516 110.122 59.4003V58.9093C110.122 58.7216 109.977 58.5772 109.804 58.5772C109.617 58.5772 109.487 58.7216 109.487 58.9093V63.126C109.487 63.3138 109.631 63.4437 109.804 63.4437C109.992 63.4437 110.122 63.2993 110.122 63.126V60.7144C110.122 59.8335 110.698 59.1115 111.621 59.1115C112.573 59.1115 112.991 59.8047 112.991 60.7V63.126C112.991 63.3138 113.136 63.4437 113.309 63.4437C113.496 63.4437 113.64 63.2993 113.64 63.126V60.5845C113.64 59.7325 114.261 59.0971 115.126 59.0971C116.135 59.0971 116.496 59.7902 116.496 60.6855V63.1116C116.496 63.2993 116.64 63.4293 116.813 63.4293C117.015 63.4437 117.159 63.3138 117.159 63.126ZM105.449 61.0177C105.449 62.0574 104.67 62.9239 103.617 62.9239C102.579 62.9239 101.786 62.0574 101.786 61.0177C101.786 59.9779 102.579 59.1115 103.617 59.1115C104.67 59.1115 105.449 59.9779 105.449 61.0177ZM106.098 63.126V61.0177C106.098 59.6458 105.002 58.5483 103.617 58.5483C102.247 58.5483 101.137 59.6458 101.137 61.0177C101.137 62.3896 102.262 63.4871 103.589 63.4871C104.396 63.4871 105.117 63.0394 105.435 62.5628V63.1116C105.435 63.2993 105.579 63.4293 105.752 63.4293C105.968 63.4437 106.098 63.3138 106.098 63.126ZM101.108 58.8227C101.108 58.6638 100.993 58.5339 100.82 58.5339C100.026 58.5339 99.3774 58.8516 98.988 59.4581V58.9093C98.988 58.7216 98.8438 58.5772 98.6708 58.5772C98.4833 58.5772 98.3535 58.7216 98.3535 58.9093V63.126C98.3535 63.3138 98.4977 63.4437 98.6708 63.4437C98.8438 63.4437 98.988 63.2993 98.988 63.126V60.7578C98.988 59.7613 99.8678 59.1115 100.82 59.1115C100.978 59.1115 101.108 58.996 101.108 58.8227ZM97.4882 58.8227C97.4882 58.6638 97.3728 58.5339 97.1998 58.5339C96.4066 58.5339 95.7576 58.8516 95.3682 59.4581V58.9093C95.3682 58.7216 95.224 58.5772 95.0509 58.5772C94.8635 58.5772 94.7337 58.7216 94.7337 58.9093V63.126C94.7337 63.3138 94.8779 63.4437 95.0509 63.4437C95.224 63.4437 95.3682 63.2993 95.3682 63.126V60.7578C95.3682 59.7613 96.2479 59.1115 97.1998 59.1115C97.3728 59.1115 97.4882 58.996 97.4882 58.8227ZM93.0319 61.0177C93.0319 62.0574 92.2387 62.9239 91.2004 62.9239C90.1476 62.9239 89.3688 62.0574 89.3688 61.0177C89.3688 59.9779 90.1476 59.1115 91.2004 59.1115C92.2387 59.1115 93.0319 59.9779 93.0319 61.0177ZM93.6665 61.0177C93.6665 59.6458 92.556 58.5483 91.1859 58.5483C89.8159 58.5483 88.7054 59.6458 88.7054 61.0177C88.7054 62.3896 89.8159 63.4871 91.1859 63.4871C92.5704 63.4871 93.6665 62.3896 93.6665 61.0177ZM87.8546 63.126V60.7144C87.8546 59.487 87.1335 58.5483 85.8499 58.5483C85.1289 58.5483 84.4222 58.8949 84.0761 59.4581V56.3966C84.0761 56.2089 83.9174 56.0645 83.7588 56.0645C83.5713 56.0645 83.4271 56.2089 83.4271 56.3966V63.1405C83.4271 63.3282 83.5713 63.4582 83.7588 63.4582C83.9463 63.4582 84.0761 63.3138 84.0761 63.1405V60.7289C84.0761 59.848 84.7827 59.1259 85.7202 59.1259C86.7585 59.1259 87.22 59.8191 87.22 60.7144V63.1405C87.22 63.3282 87.3642 63.4582 87.5517 63.4582C87.7248 63.4437 87.8546 63.3138 87.8546 63.126ZM81.5379 61.0177C81.5379 62.0574 80.7591 62.9239 79.7063 62.9239C78.6536 62.9239 77.8748 62.0574 77.8748 61.0177C77.8748 59.9779 78.668 59.1115 79.7063 59.1115C80.7591 59.1115 81.5379 59.9779 81.5379 61.0177ZM82.1869 63.126V61.0177C82.1869 59.6458 81.0908 58.5483 79.7208 58.5483C78.3507 58.5483 77.2402 59.6458 77.2402 61.0177C77.2402 62.3896 78.3651 63.4871 79.6919 63.4871C80.4995 63.4871 81.2206 63.0394 81.5379 62.5628V63.1116C81.5379 63.2993 81.6821 63.4293 81.8696 63.4293C82.0426 63.4437 82.1869 63.3138 82.1869 63.126Z" fill="#ED0600" fill-opacity="0.8"/>
</svg>
