<svg width="138" height="131" viewBox="0 0 138 131" fill="none" xmlns="http://www.w3.org/2000/svg">
<path fill-rule="evenodd" clip-rule="evenodd" d="M59.0078 14.5165L58.5075 13.9346L58.685 14.3064C58.7657 14.4518 58.8787 14.468 59.0078 14.5165Z" fill="#3822E4"/>
<path fill-rule="evenodd" clip-rule="evenodd" d="M57.9764 13.4667L57.879 13.3856L57.7654 13.3369L57.9764 13.4667Z" fill="#3822E4"/>
<path fill-rule="evenodd" clip-rule="evenodd" d="M56.8607 12.7227C57.0386 12.8847 57.2165 12.9981 57.4105 13.1277C57.2811 12.9819 57.1033 12.8523 56.8607 12.7227Z" fill="#3822E4"/>
<path fill-rule="evenodd" clip-rule="evenodd" d="M57.6505 13.4332C57.6183 13.3526 57.6183 13.2882 57.7471 13.3365L57.4089 13.127L57.6505 13.4332Z" fill="#3822E4"/>
<path fill-rule="evenodd" clip-rule="evenodd" d="M57.6516 13.4346C57.6841 13.5157 57.7491 13.6293 57.7816 13.678L57.6516 13.4346Z" fill="#3822E4"/>
<path fill-rule="evenodd" clip-rule="evenodd" d="M56.6672 14.1774C56.5542 14.1289 56.7802 13.8864 56.5381 13.7894C56.0377 13.4823 55.5534 13.3853 55.0852 13.1752C54.8431 13.1429 54.6656 12.6418 54.4073 12.6094C53.8584 12.3831 52.3411 12.5771 53.1643 12.7226C54.3589 12.9974 55.1014 13.3692 56.0861 13.8864C56.8771 14.3229 57.7326 14.6946 58.4267 15.3897C58.6204 15.5837 58.7657 15.7938 58.9271 16.0039C58.7334 15.7291 58.5559 15.4382 58.3299 15.1149C58.0877 14.63 57.3452 14.533 56.6672 14.1774Z" fill="#3822E4"/>
<path fill-rule="evenodd" clip-rule="evenodd" d="M61.5745 19.4307C61.4937 19.3176 61.3323 19.0913 61.3323 19.0913C61.3323 18.477 61.1547 17.8628 60.7188 17.4102L60.7026 17.7173C60.8802 18.0082 60.9609 18.0244 60.9125 17.7011C60.9932 18.4447 61.1547 19.0751 61.413 19.7217C61.4937 19.6409 61.6068 19.6247 61.5745 19.4307Z" fill="#3822E4"/>
<path fill-rule="evenodd" clip-rule="evenodd" d="M61.5754 20.0777L61.4295 19.7051L61.3971 19.7213L61.5754 20.0939V20.0777Z" fill="#3822E4"/>
<path fill-rule="evenodd" clip-rule="evenodd" d="M54.2776 11.704C52.631 11.1706 51.0329 10.8958 49.4347 10.9605C49.3217 11.0413 49.241 11.1221 49.0796 11.106L48.7083 11.0413L48.0142 11.106L47.772 11.1706C47.659 11.2191 47.7075 11.2676 47.7882 11.2999L48.0465 11.3808C47.9981 11.3646 47.8689 11.3323 47.7882 11.2999L47.4008 11.2514C47.2071 11.3323 46.9972 11.4131 46.7873 11.4777C47.0133 11.3484 47.2232 11.2838 47.4008 11.2514L47.772 11.1544L47.885 11.106C47.3523 11.1221 46.8519 11.3323 46.3515 11.4777L46.0448 11.6071C45.7058 11.7687 45.3668 11.9465 45.0601 11.8657L44.8179 11.995H44.8664L44.7695 12.0112L43.7041 12.5931L43.123 13.1588C43.1068 13.1427 42.9131 13.1911 42.8162 13.1911C42.784 13.3366 42.7032 13.4821 42.5902 13.6276C42.8162 13.5629 43.0261 13.5144 43.2037 13.4659C43.4942 13.4336 43.5104 12.884 43.9462 12.981C43.5104 12.884 43.4942 13.4498 43.2037 13.4659C43.0261 13.5306 42.8162 13.5629 42.5902 13.6276C42.3481 13.9185 41.9445 14.1933 41.541 14.355C41.8154 13.9185 42.2189 13.7407 42.5902 13.6276C42.7032 13.4821 42.784 13.3366 42.8162 13.1911C42.9292 13.175 43.123 13.1427 43.123 13.1588L43.7041 12.5931C42.9776 12.9164 42.3965 13.4983 41.7508 14.0155C37.699 17.5555 36.6013 23.5363 39.1034 28.6118C40.4432 31.3759 42.7032 33.5904 45.4314 34.8512C51.0329 37.2435 57.3608 35.2392 61.4934 30.4545C63.3014 28.6441 64.3345 23.908 63.8503 21.5319C62.8655 18.4607 61.6871 20.4974 61.6225 20.5459C60.5733 22.2916 61.6225 23.5847 59.9598 26.3812C60.9607 24.393 60.3634 28.4017 58.1841 29.3392C55.7143 30.697 52.6633 33.2025 49.1603 32.5397C48.3532 32.4912 47.5299 32.1518 46.5936 31.9093C42.1221 29.8241 39.1034 24.7486 40.8952 19.5599C41.3634 18.2505 41.7669 17.0382 42.4449 15.9552C43.0584 15.2925 43.8494 14.6944 44.4789 14.3388C45.4314 13.6922 46.2708 13.1911 47.1748 12.787C46.1416 13.1588 45.4636 13.5306 44.5112 14.2418C43.8332 14.6621 44.7372 13.6114 45.1892 13.2235C45.3507 13.0133 45.8349 13.1911 46.0286 13.0618C46.5129 12.9002 46.8842 12.6092 47.3846 12.3344C47.5945 12.189 47.6429 12.5122 47.7398 12.4476C48.45 12.2859 48.9666 11.7849 49.467 11.801C49.8383 11.7687 50.1773 11.898 50.4841 11.9627L51.0974 12.0273L51.5172 11.9627C51.4203 11.8657 51.388 11.7202 51.3719 11.5909C51.5817 11.6394 51.8562 11.704 52.0499 11.7687C51.8562 11.704 51.5656 11.6394 51.3719 11.5909C51.388 11.7202 51.4203 11.8495 51.5172 11.9627C52.5019 11.9303 53.761 11.995 54.8103 12.3829V12.3506C54.2292 12.0435 53.6157 11.8818 53.0023 11.5101C53.2767 11.6555 53.2121 11.7364 52.8731 11.6717L52.6633 11.4454C53.2444 11.5262 53.8901 11.5586 54.326 11.9788C54.326 11.9788 54.5843 12.0273 54.7134 12.0435C54.8587 12.1728 54.8103 12.2536 54.8103 12.3668L55.1654 12.5122C55.004 12.2859 54.2776 11.6879 54.2776 11.704Z" fill="#3822E4"/>
<path fill-rule="evenodd" clip-rule="evenodd" d="M47.3698 11.2512L47.6927 11.1865C47.2407 11.1865 46.8371 11.4128 46.4013 11.5098C46.6757 11.5906 47.0147 11.4128 47.3698 11.2512Z" fill="#3822E4"/>
<path fill-rule="evenodd" clip-rule="evenodd" d="M36.8594 36.1777L37.7311 37.0991C37.6019 36.9213 37.5051 36.7273 37.4244 36.501C37.2791 36.2747 37.0854 36.2586 36.8594 36.1777Z" fill="#3822E4"/>
<path fill-rule="evenodd" clip-rule="evenodd" d="M38.5864 37.9062L38.7636 38.0513L38.9407 38.1319L38.5864 37.9062Z" fill="#3822E4"/>
<path fill-rule="evenodd" clip-rule="evenodd" d="M40.4262 39.1182C40.1195 38.8757 39.8128 38.6817 39.49 38.5039C39.7321 38.7141 40.0388 38.9242 40.4262 39.1182Z" fill="#3822E4"/>
<path fill-rule="evenodd" clip-rule="evenodd" d="M39.1034 37.9717C39.1519 38.1175 39.1519 38.2309 38.9417 38.1337H38.9255L39.4753 38.4901C39.3298 38.3281 39.2004 38.1499 39.1034 37.9717Z" fill="#3822E4"/>
<path fill-rule="evenodd" clip-rule="evenodd" d="M39.1036 37.9719C39.055 37.8262 38.9417 37.6318 38.9255 37.5508L39.1036 37.9719Z" fill="#3822E4"/>
<path fill-rule="evenodd" clip-rule="evenodd" d="M40.7175 36.7577C40.9112 36.8224 40.54 37.2427 40.9435 37.372C41.7991 37.8084 42.6062 37.9862 43.3649 38.3742C43.7523 38.4711 44.0752 39.247 44.4788 39.2955C45.415 39.5865 47.8526 39.4895 46.545 39.1177C44.5918 38.6005 43.3326 38.1155 41.7183 37.1942C40.3139 36.5799 39.071 35.7394 37.8119 34.721C37.5052 34.3816 37.2792 34.026 37.037 33.6865C37.3276 34.1553 37.5697 34.6887 37.9733 35.1736C38.4414 35.9172 39.6683 36.095 40.7175 36.7577Z" fill="#3822E4"/>
<path fill-rule="evenodd" clip-rule="evenodd" d="M32.6307 28.0459C32.7437 28.2399 32.9858 28.6117 32.9858 28.6117C32.9374 29.6462 33.4377 30.5837 34.0511 31.3919L34.0835 30.8747C33.809 30.3736 33.6476 30.3736 33.7444 30.8909C33.583 29.6624 33.2279 28.6602 32.9051 27.5771C32.7921 27.6903 32.6146 27.7226 32.6307 28.0459Z" fill="#3822E4"/>
<path fill-rule="evenodd" clip-rule="evenodd" d="M32.6784 26.963L32.9044 27.5772L32.9528 27.5449L32.6784 26.9307V26.963Z" fill="#3822E4"/>
<path fill-rule="evenodd" clip-rule="evenodd" d="M44.7369 40.7841C47.4004 41.7539 50.0962 42.1419 52.7113 42.0449C52.905 41.9156 53.0342 41.7862 53.3086 41.8186C53.5185 41.8994 53.7283 41.9479 53.9382 41.9641C54.3256 41.9479 54.6969 41.8671 55.0682 41.8186L55.4556 41.7054H55.4718C55.6655 41.6084 55.5847 41.5276 55.4395 41.4791L55.0036 41.3498C55.0843 41.3821 55.2942 41.4145 55.4395 41.4791C55.6332 41.5276 55.843 41.5438 56.069 41.5276C56.3919 41.3983 56.7309 41.2852 57.1021 41.2043C56.7147 41.3821 56.3758 41.4791 56.069 41.5276L55.4556 41.7216L55.2781 41.8024C56.1659 41.7054 56.9892 41.4306 57.8448 41.2367C58.0385 41.172 58.1999 41.0912 58.3452 41.0104C58.9102 40.7032 59.459 40.3961 59.9271 40.4931L60.363 40.283H60.2662L60.4437 40.2506C61.041 39.9597 61.6706 39.7011 62.2194 39.3293C62.5261 39.006 62.8329 38.6504 63.1396 38.3433C63.1396 38.3594 63.4786 38.3109 63.6561 38.2786C63.7207 38.0685 63.866 37.826 64.0597 37.5997C63.6723 37.6967 63.3171 37.7614 63.0104 37.8422C62.51 37.8745 62.5261 38.8444 61.7997 38.6989C62.51 38.8444 62.51 37.8745 63.0104 37.8422C63.301 37.7452 63.6723 37.6967 64.0597 37.5997C64.4956 37.1471 65.1251 36.6622 65.7869 36.3874C65.3672 37.1309 64.7054 37.4704 64.0597 37.5997C63.8499 37.826 63.7046 38.0685 63.6561 38.2786C63.4786 38.2948 63.1396 38.3433 63.1396 38.3433C62.8167 38.6504 62.5261 39.006 62.2194 39.3293C63.3494 38.6665 64.4471 37.8907 65.448 36.9855C72.0826 31.134 73.9713 21.2415 69.8065 12.8361C67.5788 8.27777 63.8175 4.65699 59.3299 2.5718C50.0801 -1.53392 39.668 1.98988 32.8235 9.82954C29.8048 12.7876 28.0614 20.6434 28.9008 24.5552C30.5797 29.5984 32.5168 26.2524 32.5975 26.1554C34.2441 23.2944 32.6459 21.1445 35.3741 16.5215C33.6145 19.7544 34.7929 13.224 38.2798 11.6076C42.3962 9.44161 47.4004 5.17424 53.1956 6.30574C54.5193 6.53203 55.9238 6.80684 57.425 7.38875C64.77 10.8317 69.8226 19.1886 66.8362 27.7719C66.0936 29.954 65.4157 31.9907 64.2695 33.7203C63.3332 34.9003 61.945 35.7732 60.928 36.4036C59.3622 37.4704 57.9577 38.3109 56.4726 38.9737C58.1515 38.3756 59.2976 37.6967 60.8796 36.5652C61.945 35.7893 60.5567 37.7129 59.7657 38.2301C59.4752 38.5372 58.668 38.2463 58.3613 38.4726C57.6026 38.812 56.973 39.2808 56.1175 39.6687C55.7785 39.895 55.6978 39.3454 55.5202 39.4424C54.3741 39.8142 53.5023 40.6548 52.6629 40.5254C52.0495 40.5254 51.5006 40.38 50.9679 40.2991L49.9509 40.2022L49.273 40.2506C49.4344 40.4446 49.4667 40.6548 49.5151 40.8649C49.1761 40.7841 48.7241 40.6386 48.4012 40.5254C48.7241 40.6224 49.1922 40.7841 49.5151 40.8649C49.4667 40.6386 49.4344 40.4446 49.273 40.2506C47.5941 40.3638 45.5924 40.1698 43.8167 39.5717V39.6202C44.8176 40.0243 45.8022 40.3961 46.8192 41.0427C46.3672 40.8002 46.4803 40.6871 47.0291 40.7679L47.3842 41.1235C46.3834 41.1073 45.3825 40.8811 44.64 40.2022C44.64 40.2022 44.2041 40.1537 43.9943 40.1213C43.736 39.9274 43.8167 39.7657 43.8167 39.6041L43.2033 39.3778C43.4939 39.8627 44.7207 40.7841 44.7369 40.7841Z" fill="#3822E4"/>
<path fill-rule="evenodd" clip-rule="evenodd" d="M56.1021 41.5283C55.9568 41.5768 55.7793 41.6253 55.5856 41.6738C56.312 41.593 57.0061 41.3505 57.7324 41.1889C57.2643 41.0272 56.6993 41.2697 56.1021 41.5283Z" fill="#3822E4"/>
<path d="M2.45935 61.6353C2.52392 61.7323 2.68533 61.2797 2.84676 62.6698C3.00819 64.0599 2.07193 66.3553 2.00736 67.7777C1.94278 69.2002 2.31405 71.447 3.70232 71.6895C5.07445 71.9319 6.67257 69.3133 7.173 68.2303C7.67342 67.1473 6.73716 66.6785 6.33359 65.7895C5.93002 64.9166 6.39817 62.9123 6.49503 61.2635C6.59189 59.6148 7.05999 59.8088 7.05999 59.8088C10.2885 58.257 25.6726 56.9315 25.156 43.596C24.6394 30.2605 9.01328 24.7162 7.68958 24.4414C6.38202 24.1666 2.10417 25.4274 3.02431 29.3553C3.26645 30.3737 5.65557 33.6227 5.89771 34.3824C6.17213 35.2553 5.0906 40.5086 4.46103 44.6467C3.83147 48.7847 3.0566 55.7839 3.08889 57.1578C3.12118 58.5318 0.796641 58.952 0.231646 59.7603C-0.333349 60.5523 2.39478 61.5383 2.45935 61.6353ZM9.62672 43.6607C9.98186 42.4322 11.0634 39.1508 11.4185 36.8717C11.7737 34.5925 7.8833 31.3758 8.1093 31.0364C8.62587 30.2767 10.337 31.0041 14.4856 35.029C18.6343 39.0539 20.7006 43.1273 19.9419 47.8472C19.1832 52.551 8.81958 56.8345 7.70573 56.5436C6.59189 56.2688 9.27158 44.8891 9.62672 43.6607Z" fill="#3822E4"/>
<path d="M114.845 59.228C113.796 60.0039 113.424 60.4403 112.649 60.408C111.875 60.3757 112.02 59.7291 111.923 59.6321C112.569 58.8239 114.651 55.2355 113.101 51.3722C111.568 47.509 106.725 50.1114 106.483 50.273C106.241 50.4347 105.95 50.3539 106.16 49.8204C106.37 49.287 108.033 47.9939 105.676 47.8646C103.319 47.7353 99.3801 52.8593 96.8296 55.3486C94.279 57.8379 89.2425 62.8326 87.4991 63.2852C85.7556 63.7378 87.4183 58.4845 88.0317 55.2355C88.6452 51.9864 90.5823 46.2482 90.7438 45.4723C90.9052 44.6964 91.6316 44.9389 92.5679 44.7772C93.5041 44.6156 93.5364 42.3364 93.6333 40.9625C93.714 39.5723 92.5679 39.3784 92.697 39.0551C92.8262 38.7318 94.4081 34.5453 92.6163 34.0119C90.8244 33.4784 89.985 35.6768 89.2102 37.5841C88.4353 39.4915 87.8703 39.5723 83.8992 39.54C79.9119 39.4915 77.8134 39.2491 77.4098 40.5907C77.0063 41.9323 76.7641 44.163 78.669 44.5024C80.5738 44.8257 85.2391 44.2923 85.6911 44.5832C86.1431 44.8742 83.5441 49.3355 81.1872 52.6815C78.8304 56.0113 74.6978 60.408 73.6808 60.408C72.6639 60.408 72.3087 58.5006 71.889 57.5146C71.4854 56.5447 71.324 53.5705 68.5636 53.2472C65.8032 52.924 62.2679 57.0297 61.493 57.9672C60.7182 58.9047 59.0555 61.297 58.3613 61.297C57.6672 61.297 59.3461 57.5954 59.4591 57.1913C59.5721 56.7872 63.2365 49.7558 60.0241 48.3657C56.8117 46.9917 52.5177 53.0048 49.9187 55.882C47.3197 58.7593 45.5763 60.0685 45.5763 60.0685C42.0894 61.0061 44.64 55.9143 42.7351 54.007C41.4114 52.6815 39.9747 53.3604 39.1999 54.3303C38.425 55.3001 37.3273 57.2236 36.278 58.6784C35.2126 60.1494 33.3562 62.7356 31.9679 63.1559C30.5958 63.56 30.5958 60.6666 31.0316 57.9187C31.4836 55.1546 32.7751 51.2106 33.4208 49.1739C34.0665 47.1372 31.1931 47.5898 29.6434 49.1254C28.1098 50.6771 23.719 56.8034 22.0724 58.8239C20.4258 60.8283 19.2151 62.8488 18.747 63.5762C17.4394 65.6614 18.8761 66.2433 19.6994 65.1441C20.5066 64.0449 24.51 59.9231 25.188 59.5836C25.8498 59.2442 25.9144 62.2992 25.9144 63.5115C25.9144 64.74 26.5601 67.9405 29.5304 68.086C32.5168 68.2315 37.6824 60.6828 38.086 60.2464C38.4896 59.8261 38.7802 60.6666 38.8125 61.2162C38.8447 61.7658 39.7326 63.8025 41.3953 64.5137C43.0742 65.2088 46.0767 63.8186 47.4811 62.6063C48.8855 61.4102 52.5823 57.3206 53.3571 56.9165C54.132 56.5124 54.5678 56.9489 54.2934 58.0965C54.0028 59.228 51.7913 64.5945 51.5491 67.5849C51.307 70.5753 54.4064 69.2337 57.3282 66.3564C60.2501 63.4954 63.2526 59.5028 65.7386 59.3088C68.2084 59.1149 70.4362 65.2088 70.9689 65.3219C71.5177 65.4351 72.8737 65.9362 76.1184 62.671C79.3631 59.422 82.8176 55.1061 83.5118 54.993C84.2059 54.8637 83.3019 57.1105 82.3657 61.4587C81.4294 65.8068 81.3971 68.6194 83.3826 69.7186C85.3682 70.8177 86.9502 68.3769 89.3555 65.726C91.7446 63.0751 95.07 60.6828 95.5704 60.1979C96.0547 59.7129 96.991 59.9231 96.3776 60.9738C95.7642 62.0244 95.2476 68.5386 100.349 68.3285C105.466 68.1345 108.226 64.1904 108.226 64.1904C108.226 64.1904 108.097 64.837 109.679 65.3704C111.261 65.9038 113.166 63.9965 115.442 61.8789C117.734 59.7938 115.91 58.4521 114.845 59.228ZM108.807 59.0825C106.192 64.8693 103.174 64.8208 102.011 64.2066C100.849 63.5924 100.155 61.8628 102.706 57.7086C102.819 57.5146 104.11 57.3206 104.417 56.7387C104.723 56.1568 105.547 54.5727 106.241 54.2979C106.596 54.1686 111.423 53.2957 108.807 59.0825Z" fill="#3822E4"/>
<path d="M71.5835 91.621C71.5835 91.621 72.0193 77.4773 70.7279 75.1173C69.4365 72.7735 65.7883 73.4524 66.2887 71.7875C66.7891 70.1226 68.2581 68.0212 67.0958 67.0999C65.9174 66.1785 62.1562 69.6376 60.7356 71.2379C59.3151 72.8382 59.8639 71.7875 59.3796 71.7875C58.8792 71.7875 57.3457 72.7735 57.7815 73.6949C58.2174 74.6162 58.8953 74.6809 57.9591 75.7962C57.0389 76.9116 54.6821 82.8438 53.6328 86.6747C52.5836 90.5057 51.7764 93.1081 50.9209 94.0295C50.0653 94.9508 47.5309 94.3366 47.0305 98.1029C46.5301 101.869 47.4018 101.255 47.9506 101.32C48.5156 101.384 48.6932 101.126 48.7578 101.497C48.8062 101.804 45.3032 112.489 45.5454 113.54C45.7875 114.59 45.8521 115.075 47.0305 114.962C48.2089 114.833 48.7578 114.655 49.9846 110.145C51.2276 105.635 52.9548 100.382 53.6813 99.7678C54.4238 99.1536 59.7832 97.4886 62.8826 96.7451C65.9659 96.0015 66.4017 95.5651 66.8375 95.8722C67.2734 96.1793 67.1443 104.455 67.0151 107.365C66.886 110.275 66.3371 112.861 67.8223 112.796C69.3074 112.732 69.8562 110.258 70.5342 104.892C71.2122 99.5092 71.7127 96.9229 71.4059 94.9993C71.0992 93.092 72.9234 94.8215 72.8265 92.6555C72.7458 91.3624 71.5835 91.621 71.5835 91.621ZM66.773 91.3301C66.773 91.9443 66.6116 92.5747 66.1111 92.6555C65.0619 92.8333 56.474 93.9648 56.1188 93.884C55.7475 93.8032 55.6991 93.7547 55.796 93.3506C56.3287 91.1684 61.6719 78.9806 62.9149 78.9806C64.1417 78.9806 65.1426 80.2091 66.321 82.6014C67.4994 84.9775 66.773 90.7158 66.773 91.3301Z" fill="#3822E4"/>
<path d="M135.007 101.222C134.2 101.901 130.923 105.376 128.259 104.633C125.596 103.889 124.11 100.171 124.675 98.5711C125.24 96.9547 130.051 90.4567 132.537 85.0093C135.007 79.562 136.799 70.7687 135.943 68.9744C135.071 67.1802 133.102 67.3742 131.923 68.2955C130.745 69.2169 126.048 76.5878 124.127 81.8573C122.206 87.1269 120.85 93.1885 120.85 95.1767C120.85 96.5183 121.092 97.0517 120.785 98.0216C120.22 99.8158 118.993 102.176 116.701 102.176C114.409 102.176 113.973 98.9591 113.973 96.9062C113.973 94.8695 111.632 95.112 111.002 95.4838C110.389 95.8555 108.161 99.2662 105.934 102.176C103.706 105.085 102.592 106.007 101.85 105.522C101.107 105.021 100.978 100.883 102.092 97.2295C103.206 93.5764 104.868 90.2951 103.577 89.9233C102.269 89.5515 100.736 90.7315 99.9285 91.5397C99.1214 92.3479 92.0186 101.949 89.7909 104.293C87.5632 106.653 83.3015 111.05 82.3652 110.242C81.4451 109.434 82.0585 107.704 83.4145 106.023C84.7705 104.358 87.4986 100.705 85.8844 96.001C84.2701 91.2972 81.4289 92.4126 80.6218 92.5257C79.8147 92.655 71.598 100.883 70.7909 101.998C70.3227 102.645 69.8707 103.614 70.1774 104.358C70.4841 105.101 71.1621 105.538 72.9056 103.921C74.6328 102.305 78.4103 97.9731 79.5887 98.4095C80.7671 98.8459 82.2522 101.319 81.3805 102.806C80.5088 104.293 77.6677 108.447 77.7322 110.484C77.7968 112.521 77.9744 113.766 78.2811 114.202C78.5878 114.638 71.7917 121.007 70.242 123.868C68.6923 126.713 67.8852 130.738 71.8401 130.867C75.7951 130.997 83.2854 126.228 84.5122 121.266C85.7552 116.303 83.8988 115.754 83.5921 113.959C83.2853 112.165 84.2701 112.23 85.3839 111.357C86.4978 110.484 91.6311 106.088 92.9226 104.552C94.214 103 95.2148 101.448 95.8928 101.772C96.5708 102.079 95.5861 109.579 98.734 109.999C101.882 110.436 104.481 107.833 106.531 105.102C108.565 102.37 108.694 102.257 109.001 102.628C109.307 103 110.179 107.332 113.149 107.025C116.12 106.718 118.041 105.053 119.203 103.986C120.381 102.935 120.624 102.434 120.995 103.178C121.366 103.922 121.059 109.126 126.629 109.062C132.198 108.997 135.652 105.409 136.96 102.935C138.284 100.414 135.814 100.527 135.007 101.222ZM127.936 84.3143C130.293 79.1094 131.278 77.6708 131.697 77.8809C132.101 78.0911 130.826 82.6655 129.518 85.5104C128.195 88.3553 125.644 92.7682 125.224 92.3156C124.595 91.6529 125.579 89.5192 127.936 84.3143ZM80.1698 121.702C79.2335 124.806 75.5853 127.085 74.4876 127.392C73.3737 127.699 71.9532 127.828 73.067 125.291C74.1809 122.753 78.8461 117.548 79.621 117.548C79.9115 117.548 81.0899 118.599 80.1698 121.702Z" fill="#3822E4"/>
</svg>
