<svg width="110" height="105" viewBox="0 0 110 105" fill="none" xmlns="http://www.w3.org/2000/svg">
<path fill-rule="evenodd" clip-rule="evenodd" d="M47.0424 11.1984L46.6426 10.7333L46.7844 11.0304C46.8489 11.1467 46.9392 11.1596 47.0424 11.1984Z" fill="#ED0600" fill-opacity="0.8"/>
<path fill-rule="evenodd" clip-rule="evenodd" d="M46.218 10.3591L46.1399 10.2941L46.0488 10.2551L46.218 10.3591Z" fill="#ED0600" fill-opacity="0.8"/>
<path fill-rule="evenodd" clip-rule="evenodd" d="M45.3262 9.7641C45.4683 9.8936 45.6105 9.98424 45.7656 10.0878C45.6622 9.97129 45.52 9.8677 45.3262 9.7641Z" fill="#ED0600" fill-opacity="0.8"/>
<path fill-rule="evenodd" clip-rule="evenodd" d="M45.9573 10.3329C45.9315 10.2683 45.9315 10.2166 46.0347 10.2554L45.7637 10.0874L45.9573 10.3329Z" fill="#ED0600" fill-opacity="0.8"/>
<path fill-rule="evenodd" clip-rule="evenodd" d="M45.957 10.3328C45.9831 10.3978 46.0351 10.4888 46.0612 10.5279L45.957 10.3328Z" fill="#ED0600" fill-opacity="0.8"/>
<path fill-rule="evenodd" clip-rule="evenodd" d="M45.1712 10.9269C45.0808 10.8881 45.2615 10.6943 45.068 10.6168C44.668 10.3713 44.2809 10.2938 43.9067 10.1258C43.7131 10.1 43.5712 9.69945 43.3648 9.67361C42.9261 9.49273 41.7133 9.64777 42.3713 9.76405C43.3261 9.9837 43.9196 10.2809 44.7067 10.6943C45.3389 11.0432 46.0227 11.3403 46.5776 11.8959C46.7324 12.0509 46.8485 12.2189 46.9775 12.3868C46.8227 12.1672 46.6808 11.9346 46.5001 11.6762C46.3066 11.2886 45.7131 11.2111 45.1712 10.9269Z" fill="#ED0600" fill-opacity="0.8"/>
<path fill-rule="evenodd" clip-rule="evenodd" d="M49.0934 15.126C49.0288 15.0356 48.8998 14.8547 48.8998 14.8547C48.8998 14.3637 48.7578 13.8728 48.4094 13.511L48.3965 13.7565C48.5384 13.989 48.603 14.002 48.5643 13.7436C48.6288 14.3379 48.7578 14.8418 48.9643 15.3586C49.0288 15.294 49.1192 15.2811 49.0934 15.126Z" fill="#ED0600" fill-opacity="0.8"/>
<path fill-rule="evenodd" clip-rule="evenodd" d="M49.0937 15.6434L48.9771 15.3456L48.9512 15.3585L49.0937 15.6564V15.6434Z" fill="#ED0600" fill-opacity="0.8"/>
<path fill-rule="evenodd" clip-rule="evenodd" d="M43.2605 8.95015C41.9444 8.52379 40.667 8.30415 39.3896 8.35583C39.2993 8.42043 39.2348 8.48503 39.1058 8.47211L38.809 8.42042L38.2542 8.47211L38.0606 8.52379C37.9703 8.56255 38.009 8.60131 38.0735 8.62715L38.28 8.69176C38.2413 8.67884 38.1381 8.65299 38.0735 8.62715L37.7639 8.58839C37.6091 8.65299 37.4413 8.71759 37.2736 8.76927C37.4542 8.66591 37.622 8.61423 37.7639 8.58839L38.0606 8.51086L38.151 8.47211C37.7252 8.48503 37.3252 8.65299 36.9252 8.76927L36.68 8.87264C36.4091 9.00184 36.1381 9.14396 35.8929 9.07935L35.6994 9.18272H35.7381L35.6607 9.19564L34.8091 9.66077L34.3446 10.113C34.3317 10.1001 34.1769 10.1388 34.0994 10.1388C34.0736 10.2551 34.0091 10.3714 33.9188 10.4877C34.0994 10.436 34.2672 10.3972 34.4091 10.3584C34.6414 10.3326 34.6542 9.89333 35.0026 9.97085C34.6542 9.89333 34.6414 10.3455 34.4091 10.3584C34.2672 10.4101 34.0994 10.436 33.9188 10.4877C33.7252 10.7202 33.4027 10.9399 33.0801 11.0691C33.2994 10.7202 33.622 10.5781 33.9188 10.4877C34.0091 10.3714 34.0736 10.2551 34.0994 10.1388C34.1898 10.1259 34.3446 10.1001 34.3446 10.113L34.8091 9.66077C34.2285 9.91917 33.764 10.3843 33.2478 10.7977C30.0092 13.6273 29.1318 18.4077 31.1317 22.4646C32.2027 24.674 34.0091 26.4441 36.1897 27.4518C40.6671 29.364 45.725 27.7619 49.0282 23.9375C50.4733 22.4905 51.2991 18.7049 50.912 16.8056C50.125 14.3508 49.183 15.9787 49.1314 16.0175C48.2927 17.4129 49.1314 18.4465 47.8024 20.6817C48.6024 19.0925 48.125 22.2967 46.3831 23.046C44.4089 24.1313 41.9703 26.134 39.1703 25.6042C38.5252 25.5655 37.8671 25.2942 37.1187 25.1004C33.5446 23.4337 31.1317 19.3767 32.564 15.2294C32.9382 14.1828 33.2607 13.2138 33.8027 12.3482C34.293 11.8184 34.9252 11.3404 35.4284 11.0561C36.1897 10.5393 36.8607 10.1388 37.5832 9.8158C36.7574 10.113 36.2155 10.4101 35.4542 10.9786C34.9123 11.3145 35.6349 10.4747 35.9962 10.1647C36.1252 9.99669 36.5123 10.1388 36.6671 10.0354C37.0542 9.90624 37.351 9.67368 37.751 9.45404C37.9187 9.33776 37.9574 9.59616 38.0348 9.54448C38.6026 9.41528 39.0155 9.01475 39.4155 9.02767C39.7122 9.00183 39.9832 9.10519 40.2284 9.15687L40.7186 9.20855L41.0541 9.15687C40.9767 9.07935 40.9509 8.96308 40.938 8.85971C41.1058 8.89847 41.3251 8.95016 41.48 9.00184C41.3251 8.95016 41.0928 8.89847 40.938 8.85971C40.9509 8.96308 40.9767 9.06643 41.0541 9.15687C41.8412 9.13103 42.8477 9.18272 43.6864 9.4928V9.46696C43.2218 9.22148 42.7315 9.09227 42.2412 8.79511C42.4606 8.91139 42.4089 8.976 42.138 8.92432L41.9702 8.74343C42.4347 8.80803 42.9509 8.83387 43.2992 9.1698C43.2992 9.1698 43.5057 9.20856 43.6089 9.22148C43.7251 9.32484 43.6864 9.38944 43.6864 9.47988L43.9702 9.59616C43.8412 9.41528 43.2605 8.93723 43.2605 8.95015Z" fill="#ED0600" fill-opacity="0.8"/>
<path fill-rule="evenodd" clip-rule="evenodd" d="M37.739 8.5883L37.9971 8.53662C37.6358 8.53662 37.3132 8.7175 36.9648 8.79503C37.1842 8.85963 37.4551 8.71751 37.739 8.5883Z" fill="#ED0600" fill-opacity="0.8"/>
<path fill-rule="evenodd" clip-rule="evenodd" d="M29.3379 28.5112L30.0346 29.2477C29.9314 29.1056 29.854 28.9505 29.7895 28.7696C29.6734 28.5887 29.5185 28.5758 29.3379 28.5112Z" fill="#ED0600" fill-opacity="0.8"/>
<path fill-rule="evenodd" clip-rule="evenodd" d="M30.7188 29.894L30.8608 30.0103L31.0028 30.0749L30.7188 29.894Z" fill="#ED0600" fill-opacity="0.8"/>
<path fill-rule="evenodd" clip-rule="evenodd" d="M32.1898 30.8629C31.9446 30.6691 31.6995 30.514 31.4414 30.3719C31.635 30.5399 31.8801 30.7078 32.1898 30.8629Z" fill="#ED0600" fill-opacity="0.8"/>
<path fill-rule="evenodd" clip-rule="evenodd" d="M31.1324 29.9456C31.1712 30.0622 31.1711 30.1528 31.0031 30.0751H30.9902L31.4296 30.36C31.3133 30.2305 31.2099 30.0881 31.1324 29.9456Z" fill="#ED0600" fill-opacity="0.8"/>
<path fill-rule="evenodd" clip-rule="evenodd" d="M31.1326 29.9461C31.0938 29.8295 31.0032 29.6742 30.9902 29.6094L31.1326 29.9461Z" fill="#ED0600" fill-opacity="0.8"/>
<path fill-rule="evenodd" clip-rule="evenodd" d="M32.4223 28.9764C32.5771 29.0281 32.2804 29.364 32.603 29.4673C33.2868 29.8162 33.932 29.9583 34.5384 30.2684C34.8481 30.3459 35.1061 30.9661 35.4287 31.0048C36.1771 31.2374 38.1254 31.1599 37.0803 30.8627C35.519 30.4493 34.5126 30.0617 33.2223 29.3252C32.0997 28.8343 31.1062 28.1624 30.0998 27.3484C29.8547 27.0771 29.674 26.7929 29.4805 26.5215C29.7127 26.8962 29.9063 27.3226 30.2289 27.7102C30.603 28.3045 31.5836 28.4467 32.4223 28.9764Z" fill="#ED0600" fill-opacity="0.8"/>
<path fill-rule="evenodd" clip-rule="evenodd" d="M25.9579 22.0124C26.0482 22.1675 26.2417 22.4647 26.2417 22.4647C26.203 23.2916 26.6029 24.0409 27.0932 24.6869L27.119 24.2735C26.8997 23.873 26.7707 23.873 26.8481 24.2864C26.7191 23.3045 26.4352 22.5034 26.1772 21.6378C26.0869 21.7282 25.945 21.754 25.9579 22.0124Z" fill="#ED0600" fill-opacity="0.8"/>
<path fill-rule="evenodd" clip-rule="evenodd" d="M25.9961 21.147L26.1767 21.638L26.2155 21.6121L25.9961 21.1212V21.147Z" fill="#ED0600" fill-opacity="0.8"/>
<path fill-rule="evenodd" clip-rule="evenodd" d="M35.6348 32.1936C37.7638 32.9688 39.9185 33.2789 42.0088 33.2014C42.1636 33.098 42.2669 32.9947 42.4862 33.0205C42.654 33.0851 42.8217 33.1239 42.9894 33.1368C43.2991 33.1239 43.5959 33.0593 43.8927 33.0205L44.2023 32.9301H44.2152C44.3701 32.8525 44.3055 32.7879 44.1894 32.7492L43.841 32.6458C43.9056 32.6717 44.0733 32.6975 44.1894 32.7492C44.3442 32.7879 44.512 32.8009 44.6926 32.7879C44.9507 32.6846 45.2216 32.5941 45.5184 32.5295C45.2087 32.6717 44.9378 32.7492 44.6926 32.7879L44.2023 32.943L44.0604 33.0076C44.7701 32.9301 45.4281 32.7104 46.112 32.5554C46.2668 32.5037 46.3958 32.4391 46.512 32.3745C46.9636 32.129 47.4022 31.8835 47.7764 31.9611L48.1248 31.7931H48.0474L48.1893 31.7673C48.6667 31.5347 49.17 31.328 49.6087 31.0308C49.8538 30.7724 50.099 30.4882 50.3441 30.2427C50.3441 30.2556 50.6151 30.2168 50.7571 30.191C50.8087 30.023 50.9248 29.8292 51.0796 29.6483C50.77 29.7259 50.4861 29.7775 50.2409 29.8421C49.8409 29.868 49.8538 30.6432 49.2732 30.5269C49.8409 30.6432 49.8409 29.868 50.2409 29.8421C50.4732 29.7646 50.77 29.7259 51.0796 29.6483C51.428 29.2866 51.9312 28.899 52.4602 28.6793C52.1247 29.2737 51.5957 29.545 51.0796 29.6483C50.9119 29.8292 50.7958 30.023 50.7571 30.191C50.6151 30.2039 50.3441 30.2427 50.3441 30.2427C50.0861 30.4882 49.8538 30.7724 49.6087 31.0308C50.5119 30.5011 51.3893 29.8809 52.1893 29.1574C57.4924 24.4803 59.002 16.5731 55.6731 9.85465C53.8925 6.21116 50.8861 3.31705 47.299 1.65034C39.9056 -1.63138 31.5832 1.18521 26.1124 7.4515C23.6995 9.81589 22.306 16.0951 22.9769 19.2218C24.3188 23.2529 25.8672 20.5784 25.9317 20.5009C27.2478 18.214 25.9704 16.4956 28.151 12.8005C26.7446 15.3845 27.6865 10.1647 30.4736 8.87272C33.7638 7.14142 37.7637 3.73049 42.3959 4.6349C43.454 4.81578 44.5765 5.03543 45.7765 5.50056C51.6473 8.25255 55.6859 14.9323 53.2989 21.7929C52.7054 23.5371 52.1634 25.1651 51.2473 26.5475C50.499 27.4907 49.3893 28.1884 48.5764 28.6923C47.3249 29.545 46.2023 30.2168 45.0152 30.7466C46.3571 30.2685 47.2732 29.7259 48.5377 28.8215C49.3893 28.2013 48.2797 29.7388 47.6474 30.1522C47.4152 30.3977 46.77 30.1652 46.5248 30.346C45.9184 30.6174 45.4152 30.9921 44.7313 31.3021C44.4604 31.483 44.3959 31.0437 44.2539 31.1212C43.3378 31.4184 42.641 32.0903 41.9701 31.9869C41.4798 31.9869 41.0411 31.8706 40.6153 31.806L39.8024 31.7285L39.2605 31.7673C39.3895 31.9223 39.4153 32.0903 39.454 32.2582C39.1831 32.1936 38.8218 32.0773 38.5637 31.9869C38.8218 32.0644 39.196 32.1936 39.454 32.2582C39.4153 32.0773 39.3895 31.9223 39.2605 31.7673C37.9186 31.8577 36.3186 31.7027 34.8993 31.2246V31.2634C35.6993 31.5864 36.4863 31.8835 37.2992 32.4003C36.9379 32.2065 37.0283 32.1161 37.467 32.1807L37.7508 32.4649C36.9509 32.452 36.1509 32.2711 35.5573 31.7285C35.5573 31.7285 35.2089 31.6897 35.0412 31.6639C34.8348 31.5089 34.8993 31.3797 34.8993 31.2505L34.409 31.0696C34.6412 31.4572 35.6219 32.1936 35.6348 32.1936Z" fill="#ED0600" fill-opacity="0.8"/>
<path fill-rule="evenodd" clip-rule="evenodd" d="M44.7195 32.7879C44.6034 32.8267 44.4615 32.8655 44.3066 32.9042C44.8873 32.8396 45.442 32.6458 46.0226 32.5166C45.6485 32.3874 45.1969 32.5812 44.7195 32.7879Z" fill="#ED0600" fill-opacity="0.8"/>
<path d="M1.84215 48.8606C1.89376 48.9381 2.02278 48.5763 2.15181 49.6875C2.28084 50.7986 1.53248 52.6333 1.48087 53.7703C1.42926 54.9072 1.72601 56.7031 2.83566 56.8969C3.93242 57.0907 5.2098 54.9977 5.60979 54.132C6.00979 53.2664 5.26143 52.8917 4.93885 52.1811C4.61628 51.4834 4.99047 49.8813 5.06789 48.5634C5.14531 47.2456 5.51946 47.4006 5.51946 47.4006C8.10006 46.1603 20.3966 45.1008 19.9837 34.4417C19.5708 23.7825 7.08074 19.3509 6.0227 19.1313C4.97756 18.9116 1.55825 19.9194 2.29372 23.059C2.48727 23.873 4.3969 26.4699 4.59045 27.0772C4.8098 27.7749 3.94532 31.9739 3.4421 35.2815C2.93889 38.5891 2.31954 44.1835 2.34534 45.2817C2.37115 46.3799 0.513137 46.7158 0.0615327 47.3619C-0.390071 47.9949 1.79054 48.7831 1.84215 48.8606ZM7.57107 34.4934C7.85494 33.5114 8.71941 30.8886 9.00328 29.0669C9.28715 27.2451 6.17755 24.674 6.35819 24.4027C6.77108 23.7955 8.13877 24.3769 11.4548 27.594C14.7709 30.8111 16.4225 34.067 15.816 37.8397C15.2096 41.5995 6.92592 45.0233 6.03561 44.7907C5.14531 44.5711 7.2872 35.4753 7.57107 34.4934Z" fill="#ED0600" fill-opacity="0.8"/>
<path d="M91.6723 46.9356C90.8336 47.5558 90.5369 47.9047 89.9175 47.8788C89.2982 47.853 89.4143 47.3362 89.3369 47.2586C89.853 46.6126 91.5175 43.7444 90.2788 40.6565C89.053 37.5685 85.1821 39.6487 84.9886 39.7779C84.7951 39.9071 84.5628 39.8425 84.7305 39.4161C84.8983 38.9898 86.2273 37.9561 84.3435 37.8528C82.4596 37.7494 79.3113 41.8451 77.2726 43.8348C75.2339 45.8245 71.2082 49.8168 69.8147 50.1786C68.4211 50.5404 69.7501 46.3413 70.2404 43.7444C70.7308 41.1474 72.2791 36.5608 72.4082 35.9406C72.5372 35.3204 73.1178 35.5142 73.8662 35.385C74.6146 35.2558 74.6404 33.4341 74.7178 32.3359C74.7823 31.2247 73.8662 31.0697 73.9694 30.8113C74.0726 30.5529 75.3371 27.2066 73.9049 26.7802C72.4727 26.3539 71.8017 28.111 71.1824 29.6356C70.563 31.1602 70.1114 31.2248 66.9373 31.1989C63.7502 31.1602 62.0728 30.9664 61.7503 32.0387C61.4277 33.1111 61.2342 34.8941 62.7567 35.1654C64.2793 35.4238 68.0082 34.9974 68.3695 35.23C68.7308 35.4626 66.6534 39.0285 64.7696 41.703C62.8857 44.3645 59.5826 47.8788 58.7697 47.8788C57.9568 47.8788 57.6729 46.3542 57.3374 45.5661C57.0149 44.7909 56.8858 42.4136 54.6794 42.1552C52.473 41.8968 49.6472 45.1785 49.0279 45.9279C48.4086 46.6772 47.0795 48.5894 46.5247 48.5894C45.9699 48.5894 47.3118 45.6307 47.4021 45.3077C47.4925 44.9847 50.4215 39.3644 47.8538 38.2533C45.2861 37.1551 41.8538 41.9614 39.7765 44.2612C37.6991 46.561 36.3056 47.6075 36.3056 47.6075C33.5185 48.3569 35.5572 44.287 34.0346 42.7624C32.9766 41.703 31.8282 42.2456 31.2088 43.0208C30.5895 43.7961 29.7121 45.3335 28.8734 46.4964C28.0218 47.6721 26.538 49.7393 25.4283 50.0752C24.3316 50.3982 24.3315 48.0855 24.6799 45.8891C25.0412 43.6798 26.0735 40.5273 26.5896 38.8993C27.1057 37.2714 24.809 37.6331 23.5703 38.8606C22.3445 40.1009 18.8349 44.9976 17.5188 46.6126C16.2027 48.2147 15.235 49.8298 14.8608 50.4112C13.8156 52.0779 14.964 52.543 15.622 51.6644C16.2672 50.7858 19.4671 47.4912 20.009 47.2199C20.5381 46.9486 20.5897 49.3905 20.5897 50.3595C20.5897 51.3414 21.1058 53.8996 23.48 54.0159C25.867 54.1322 29.996 48.0985 30.3185 47.7496C30.6411 47.4137 30.8734 48.0855 30.8992 48.5248C30.925 48.9641 31.6347 50.592 32.9637 51.1605C34.3056 51.7161 36.7055 50.605 37.8281 49.636C38.9507 48.6799 41.9055 45.4111 42.5248 45.0881C43.1442 44.7651 43.4925 45.1139 43.2732 46.0312C43.0409 46.9356 41.2732 51.2251 41.0797 53.6154C40.8861 56.0056 43.3635 54.9332 45.6989 52.6334C48.0344 50.3466 50.4343 47.1553 52.4214 47.0002C54.3955 46.8452 56.1762 51.7161 56.602 51.8065C57.0407 51.897 58.1245 52.2975 60.718 49.6876C63.3115 47.0907 66.0728 43.641 66.6276 43.5506C67.1824 43.4472 66.4599 45.2431 65.7115 48.7186C64.9631 52.1941 64.9373 54.4422 66.5244 55.3208C68.1114 56.1994 69.3759 54.2484 71.2985 52.1295C73.2081 50.0106 75.8662 48.0985 76.2662 47.7109C76.6532 47.3232 77.4016 47.4912 76.9113 48.331C76.421 49.1708 76.0081 54.3776 80.0854 54.2097C84.1757 54.0546 86.3821 50.9021 86.3821 50.9021C86.3821 50.9021 86.2789 51.4189 87.5434 51.8453C88.8079 52.2717 90.3304 50.7471 92.1497 49.0545C93.982 47.3878 92.5239 46.3155 91.6723 46.9356ZM86.8466 46.8194C84.7563 51.4448 82.3435 51.406 81.4144 50.9151C80.4854 50.4241 79.9306 49.0416 81.9693 45.7211C82.0596 45.5661 83.0919 45.4111 83.337 44.9459C83.5822 44.4808 84.2402 43.2146 84.795 42.995C85.0789 42.8916 88.9369 42.1939 86.8466 46.8194Z" fill="#ED0600" fill-opacity="0.8"/>
<path d="M57.0935 72.8275C57.0935 72.8275 57.4419 61.5224 56.4096 59.636C55.3774 57.7626 52.4613 58.3052 52.8613 56.9745C53.2613 55.6437 54.4355 53.9641 53.5065 53.2276C52.5646 52.4912 49.5582 55.2561 48.4227 56.5352C47.2872 57.8143 47.726 56.9745 47.3389 56.9745C46.9389 56.9745 45.7131 57.7626 46.0615 58.499C46.4099 59.2355 46.9518 59.2872 46.2034 60.1787C45.4679 61.0702 43.5841 65.8118 42.7454 68.8739C41.9067 71.936 41.2616 74.0162 40.5777 74.7526C39.8939 75.4891 37.8681 74.9981 37.4681 78.0085C37.0681 81.0189 37.7649 80.5279 38.2036 80.5796C38.6552 80.6313 38.7971 80.4246 38.8487 80.7217C38.8875 80.9672 36.0875 89.5074 36.2811 90.3472C36.4746 91.187 36.5262 91.5747 37.4681 91.4842C38.41 91.3809 38.8488 91.2387 39.8294 87.634C40.8229 84.0293 42.2035 79.8302 42.7841 79.3393C43.3777 78.8483 47.6615 77.5175 50.1388 76.9232C52.6033 76.3289 52.9516 75.98 53.3 76.2255C53.6484 76.471 53.5452 83.0861 53.442 85.4117C53.3387 87.7374 52.9 89.8046 54.0871 89.7529C55.2742 89.7012 55.7129 87.7245 56.2548 83.435C56.7967 79.1325 57.1967 77.0653 56.9516 75.5278C56.7064 74.0032 58.1645 75.3857 58.087 73.6544C58.0225 72.6208 57.0935 72.8275 57.0935 72.8275ZM53.2484 72.5949C53.2484 73.0859 53.1194 73.5898 52.7194 73.6544C51.8807 73.7965 45.0163 74.7009 44.7325 74.6363C44.4357 74.5717 44.397 74.533 44.4744 74.21C44.9002 72.4657 49.1711 62.7239 50.1646 62.7239C51.1452 62.7239 51.9452 63.7059 52.8871 65.618C53.8291 67.5173 53.2484 72.104 53.2484 72.5949Z" fill="#ED0600" fill-opacity="0.8"/>
<path d="M107.789 80.5022C107.144 81.0448 104.524 83.8227 102.395 83.2283C100.266 82.634 99.0792 79.6624 99.5308 78.3833C99.9824 77.0913 103.827 71.8974 105.815 67.5433C107.789 63.1892 109.221 56.1606 108.537 54.7265C107.84 53.2923 106.266 53.4474 105.324 54.1838C104.382 54.9203 100.628 60.8119 99.0921 65.0238C97.5566 69.2358 96.4728 74.0809 96.4728 75.67C96.4728 76.7424 96.6663 77.1688 96.4212 77.944C95.9696 79.3781 94.9889 81.2645 93.1567 81.2645C91.3245 81.2645 90.9761 78.6934 90.9761 77.0525C90.9761 75.4246 89.1052 75.6184 88.602 75.9155C88.1116 76.2127 86.331 78.9388 84.5504 81.2645C82.7698 83.5901 81.8795 84.3266 81.2859 83.9389C80.6924 83.5384 80.5892 80.2309 81.4795 77.3109C82.3698 74.3909 83.6988 71.7682 82.6666 71.471C81.6214 71.1738 80.3956 72.117 79.7505 72.763C79.1053 73.409 73.428 81.0836 71.6474 82.957C69.8668 84.8434 66.4604 88.3576 65.7121 87.7116C64.9766 87.0656 65.4669 85.6832 66.5508 84.3395C67.6346 83.0087 69.8152 80.0887 68.5249 76.329C67.2346 72.5692 64.9637 73.4607 64.3185 73.5511C63.6734 73.6545 57.1057 80.2309 56.4606 81.1223C56.0864 81.6391 55.7251 82.4144 55.9703 83.0087C56.2154 83.603 56.7574 83.9519 58.1509 82.6598C59.5315 81.3678 62.5508 77.9052 63.4927 78.2541C64.4347 78.6029 65.6217 80.5797 64.925 81.7684C64.2282 82.957 61.9573 86.2775 62.0089 87.9054C62.0605 89.5334 62.2025 90.5282 62.4476 90.8771C62.6928 91.2259 57.2606 96.3165 56.0219 98.6033C54.7832 100.877 54.1381 104.094 57.2993 104.198C60.4605 104.301 66.4475 100.49 67.4281 96.5232C68.4217 92.5567 66.9378 92.1174 66.6927 90.6833C66.4475 89.2491 67.2346 89.3008 68.1249 88.6031C69.0152 87.9054 73.1184 84.3911 74.1506 83.1637C75.1828 81.9234 75.9828 80.6831 76.5247 80.9415C77.0667 81.1869 76.2796 87.1819 78.7957 87.5178C81.3118 87.8667 83.3892 85.7865 85.0278 83.603C86.6536 81.4195 86.7568 81.3291 87.002 81.6262C87.2472 81.9234 87.9439 85.386 90.318 85.1405C92.6922 84.895 94.2276 83.5643 95.1567 82.7115C96.0986 81.8717 96.2921 81.4712 96.5889 82.0655C96.8857 82.6599 96.6405 86.8201 101.092 86.7685C105.544 86.7168 108.305 83.8485 109.35 81.8717C110.408 79.8562 108.434 79.9466 107.789 80.5022ZM102.137 66.9877C104.021 62.8274 104.808 61.6775 105.144 61.8455C105.466 62.0134 104.447 65.6698 103.402 67.9438C102.344 70.2177 100.305 73.7449 99.9695 73.3832C99.4663 72.8534 100.253 71.148 102.137 66.9877ZM63.9572 96.872C63.2089 99.3527 60.2928 101.174 59.4154 101.42C58.5251 101.665 57.3896 101.769 58.2799 99.7403C59.1702 97.7118 62.8992 93.5516 63.5185 93.5516C63.7508 93.5516 64.6927 94.3914 63.9572 96.872Z" fill="#ED0600" fill-opacity="0.8"/>
</svg>
