<svg width="213" height="55" viewBox="0 0 213 55" fill="none" xmlns="http://www.w3.org/2000/svg">
<rect x="0.808594" y="0.511963" width="211.871" height="53.9904" fill="white"/>
<path d="M129.243 31.9908C129.243 32.4818 129.243 35.4421 129.243 36.7418C129.243 42.3304 125.421 45.464 120.085 45.6229C119.782 45.6373 119.249 45.6373 118.931 45.6229C113.595 45.4207 109.773 42.2871 109.773 36.7418C109.773 36.0486 109.773 33.0016 109.773 31.9908C109.773 26.3877 113.624 23.2541 118.975 23.1097C119.249 23.1097 119.768 23.1097 120.027 23.1097C125.421 23.2685 129.243 26.4311 129.243 31.9908ZM119.133 27.7452C117.028 27.8751 115.009 28.9582 115.009 31.9908C115.009 33.637 115.009 34.3157 115.009 36.7851C115.009 39.7166 117.013 40.8719 119.133 41.0163C119.234 41.0163 119.782 41.0163 119.869 41.0163C121.945 40.8863 123.993 39.7599 123.993 36.7851C123.993 35.7165 123.993 34.6046 123.993 31.9908C123.993 28.9871 121.96 27.8751 119.854 27.7452C119.58 27.7307 119.378 27.7307 119.133 27.7452Z" fill="#ED0600" fill-opacity="0.8"/>
<path d="M137.276 32.5396C137.276 32.5396 145.122 23.6152 145.569 23.1098C146.001 23.1098 152.131 23.1098 152.131 23.1098L142.627 33.8971L152.621 45.002H145.987L137.262 35.3411V45.002H131.998V17.7811H137.262V32.5396H137.276Z" fill="#ED0600" fill-opacity="0.8"/>
<path d="M62.7016 35.8611C62.7016 35.8611 62.7016 33.3484 62.7016 32.0054C62.7016 26.4168 58.7933 23.2976 53.4429 23.1243C53.3852 23.1243 52.5199 23.1243 52.4478 23.1243C47.0541 23.2976 43.2324 26.4168 43.2324 32.0054C43.2324 33.2618 43.2324 31.4422 43.2324 36.7564C43.2324 42.0707 47.1983 45.4065 52.318 45.6375C52.866 45.6664 53.14 45.6375 53.5294 45.6375C59.9326 45.6375 62.3122 42.3739 62.615 38.6626C61.8795 38.6626 58.4761 38.6626 57.7982 38.6626C57.654 39.3558 57.4377 41.1609 53.3852 41.1609C52.693 41.1609 51.7123 41.002 50.9912 40.7565C47.9916 39.7601 48.4675 36.0488 48.4675 35.8467C48.6261 35.8611 62.7016 35.8611 62.7016 35.8611ZM48.4386 31.6444C48.4386 28.7562 50.3423 27.6443 52.6065 27.5432C52.8372 27.5288 53.0968 27.5288 53.2987 27.5432C55.5917 27.6443 57.5098 28.8573 57.5098 31.6444C57.5098 31.7744 57.5098 31.8755 57.5098 32.0199C57.1492 32.0199 48.6838 32.0199 48.4242 32.0199C48.4386 31.9477 48.4386 31.7599 48.4386 31.6444Z" fill="#ED0600" fill-opacity="0.8"/>
<path d="M84.7948 35.8611C84.7948 35.8611 84.7948 33.3484 84.7948 32.0054C84.7948 26.4168 80.8865 23.2976 75.536 23.1243C75.4783 23.1243 74.613 23.1243 74.5409 23.1243C69.1472 23.2976 65.3398 26.4168 65.3398 32.0054C65.3398 33.2618 65.3398 31.4422 65.3398 36.7564C65.3398 42.0707 69.3058 45.4065 74.4255 45.6375C74.9736 45.6664 75.2476 45.6375 75.6225 45.6375C82.0258 45.6375 84.4054 42.3739 84.7082 38.6626C83.9727 38.6626 80.5692 38.6626 79.8913 38.6626C79.7471 39.3558 79.5308 41.1609 75.4783 41.1609C74.7716 41.1609 73.8054 41.002 73.0843 40.7565C70.0846 39.7601 70.5605 36.0488 70.5605 35.8467C70.7191 35.8611 84.7948 35.8611 84.7948 35.8611ZM70.5317 31.6444C70.5317 28.7562 72.4354 27.6443 74.6996 27.5432C74.9303 27.5288 75.1899 27.5288 75.3918 27.5432C77.6848 27.6443 79.6173 28.8573 79.6173 31.6444C79.6173 31.7744 79.6173 31.8755 79.6173 32.0199C79.2568 32.0199 70.7913 32.0199 70.5317 32.0199C70.5317 31.9477 70.5317 31.7599 70.5317 31.6444Z" fill="#ED0600" fill-opacity="0.8"/>
<path d="M97.9037 23.1531C95.4665 23.1531 93.7935 23.8174 92.8706 24.6116C92.8706 24.2073 92.8706 17.7811 92.8706 17.7811H87.6211V45.002H88.5441C88.5441 45.002 90.866 43.6879 90.9958 43.6446C91.3419 44.02 93.6205 45.6952 96.8077 45.6952C97.2115 45.6952 97.5576 45.7096 97.9614 45.6952C103.269 45.5652 107.119 42.2727 107.119 36.7996V32.0486C107.105 26.7055 103.24 23.1531 97.9037 23.1531ZM101.855 36.8285C101.855 39.8033 99.8218 40.9297 97.7307 41.0597C97.6297 41.0597 97.0961 41.0597 96.9952 41.0597C94.8752 40.9153 92.8706 39.76 92.8706 36.8285V32.0342C92.8706 29.0016 94.8752 27.9186 96.9952 27.7886C97.2403 27.7742 97.4422 27.7742 97.7162 27.7886C99.8074 27.9186 101.855 29.0305 101.855 32.0342V36.8285Z" fill="#ED0600" fill-opacity="0.8"/>
<path d="M42.5823 45.002L32.5016 33.7671C33.0063 33.8104 33.5111 33.8248 34.0158 33.8248C37.477 33.8248 41.7747 31.6298 41.7747 26.099C41.7747 19.4274 36.2656 17.7811 31.3767 17.7811C26.4878 17.7811 19.623 17.7811 19.623 17.7811V45.002H24.9302V32.8429L35.8474 45.002H42.5823ZM24.9158 22.4311C24.9158 22.4311 28.3337 22.4311 31.3046 22.4311C34.261 22.4311 36.8569 23.3553 36.8569 26.1568C36.8569 28.9727 35.2273 29.9836 31.3046 29.9836C27.3819 29.9836 24.9158 29.9836 24.9158 29.9836V22.4311Z" fill="#ED0600" fill-opacity="0.8"/>
<path d="M197.296 43.4426L184.389 37.002H184.086H170.804H170.501L157.594 43.4426C157.594 43.4426 157.276 44.1791 157.954 44.9878H175.39H179.515H196.95C197.599 44.1791 197.296 43.4426 197.296 43.4426Z" fill="#ED0600" fill-opacity="0.8"/>
<path d="M156.903 42.6338L168.988 34.7635L169.147 34.5036L175.882 23.0376L176.04 22.7777L177.05 8.38019C177.05 8.38019 176.574 7.73036 175.536 7.90365L166.695 22.951L164.604 26.5178L155.764 41.5651C156.11 42.5182 156.903 42.6338 156.903 42.6338Z" fill="#ED0600" fill-opacity="0.8"/>
<path d="M198.133 42.6339L186.048 34.7636L185.889 34.5037L179.154 23.0377L178.996 22.7778L177.986 8.38032C177.986 8.38032 178.462 7.73048 179.501 7.90377L188.341 22.9511L190.432 26.518L199.273 41.5653C198.926 42.5184 198.133 42.6339 198.133 42.6339Z" fill="#ED0600" fill-opacity="0.8"/>
</svg>
