<svg width="266" height="69" viewBox="0 0 266 69" fill="none" xmlns="http://www.w3.org/2000/svg">
<rect x="0.363525" y="0.986328" width="265.069" height="67.5467" fill="white"/>
<path d="M161.048 40.3688C161.048 40.9831 161.048 44.6868 161.048 46.3128C161.048 53.3046 156.266 57.225 149.59 57.4238C149.211 57.4418 148.544 57.4418 148.147 57.4238C141.471 57.1708 136.69 53.2504 136.69 46.3128C136.69 45.4456 136.69 41.6335 136.69 40.3688C136.69 33.3589 141.507 29.4385 148.201 29.2578C148.544 29.2578 149.193 29.2578 149.518 29.2578C156.266 29.4565 161.048 33.4131 161.048 40.3688ZM148.4 35.0572C145.765 35.2198 143.239 36.5748 143.239 40.3688C143.239 42.4284 143.239 43.2776 143.239 46.367C143.239 50.0345 145.747 51.4798 148.4 51.6605C148.526 51.6605 149.211 51.6605 149.32 51.6605C151.918 51.4979 154.48 50.0887 154.48 46.367C154.48 45.03 154.48 43.6389 154.48 40.3688C154.48 36.6109 151.936 35.2198 149.302 35.0572C148.959 35.0391 148.706 35.0391 148.4 35.0572Z" fill="#3822E4"/>
<path d="M171.097 41.0559C171.097 41.0559 180.912 29.8907 181.471 29.2584C182.013 29.2584 189.681 29.2584 189.681 29.2584L177.791 42.7542L190.294 56.6475H181.995L171.079 44.5609V56.6475H164.493V22.5918H171.079V41.0559H171.097Z" fill="#3822E4"/>
<path d="M77.7986 45.2102C77.7986 45.2102 77.7986 42.0666 77.7986 40.3864C77.7986 33.3946 72.9091 29.4922 66.2152 29.2754C66.1431 29.2754 65.0605 29.2754 64.9703 29.2754C58.2223 29.4922 53.4411 33.3946 53.4411 40.3864C53.4411 41.9582 53.4411 39.6818 53.4411 46.3303C53.4411 52.9789 58.4028 57.1523 64.8079 57.4413C65.4935 57.4775 65.8363 57.4413 66.3235 57.4413C74.3344 57.4413 77.3115 53.3583 77.6904 48.7151C76.7702 48.7151 72.5122 48.7151 71.6642 48.7151C71.4837 49.5823 71.2131 51.8407 66.1431 51.8407C65.2771 51.8407 64.0502 51.6419 63.148 51.3348C59.3952 50.0882 59.9906 45.4451 59.9906 45.1921C60.189 45.2102 77.7986 45.2102 77.7986 45.2102ZM59.9544 39.9347C59.9544 36.3214 62.3361 34.9303 65.1688 34.8038C65.4575 34.7857 65.7822 34.7857 66.0348 34.8038C68.9036 34.9303 71.3033 36.4479 71.3033 39.9347C71.3033 40.0973 71.3033 40.2238 71.3033 40.4045C70.8522 40.4045 60.2612 40.4045 59.9364 40.4045C59.9545 40.3141 59.9544 40.0793 59.9544 39.9347Z" fill="#3822E4"/>
<path d="M105.439 45.2102C105.439 45.2102 105.439 42.0666 105.439 40.3864C105.439 33.3946 100.549 29.4922 93.8552 29.2754C93.783 29.2754 92.7005 29.2754 92.6103 29.2754C85.8622 29.4922 81.0989 33.3946 81.0989 40.3864C81.0989 41.9582 81.0989 39.6818 81.0989 46.3303C81.0989 52.9789 86.0607 57.1523 92.4659 57.4413C93.1516 57.4775 93.4943 57.4413 93.9635 57.4413C101.974 57.4413 104.952 53.3583 105.33 48.7151C104.41 48.7151 100.152 48.7151 99.3041 48.7151C99.1237 49.5823 98.8531 51.8407 93.783 51.8407C92.8989 51.8407 91.6901 51.6419 90.7879 51.3348C87.035 50.0882 87.6304 45.4451 87.6304 45.1921C87.8289 45.2102 105.439 45.2102 105.439 45.2102ZM87.5944 39.9347C87.5944 36.3214 89.976 34.9303 92.8088 34.8038C93.0974 34.7857 93.4222 34.7857 93.6748 34.8038C96.5436 34.9303 98.9613 36.4479 98.9613 39.9347C98.9613 40.0973 98.9613 40.2238 98.9613 40.4045C98.5102 40.4045 87.9191 40.4045 87.5944 40.4045C87.5944 40.3141 87.5944 40.0793 87.5944 39.9347Z" fill="#3822E4"/>
<path d="M121.84 29.3126C118.791 29.3126 116.698 30.1437 115.543 31.1373C115.543 30.6315 115.543 22.5918 115.543 22.5918H108.976V56.6475H110.13C110.13 56.6475 113.035 55.0034 113.198 54.9492C113.631 55.4189 116.481 57.5147 120.469 57.5147C120.974 57.5147 121.407 57.5327 121.912 57.5147C128.552 57.3521 133.369 53.2329 133.369 46.3856V40.4417C133.351 33.757 128.516 29.3126 121.84 29.3126ZM126.784 46.4217C126.784 50.1435 124.24 51.5527 121.624 51.7153C121.497 51.7153 120.83 51.7153 120.703 51.7153C118.051 51.5346 115.543 50.0893 115.543 46.4217V40.4236C115.543 36.6296 118.051 35.2746 120.703 35.112C121.01 35.0939 121.263 35.0939 121.606 35.112C124.222 35.2746 126.784 36.6657 126.784 40.4236V46.4217Z" fill="#3822E4"/>
<path d="M52.6272 56.6485L40.0153 42.5926C40.6468 42.6468 41.2783 42.6648 41.9098 42.6648C46.2401 42.6648 51.6168 39.9187 51.6168 32.9992C51.6168 24.6524 44.7245 22.5928 38.608 22.5928C32.4915 22.5928 23.9032 22.5928 23.9032 22.5928V56.6485H30.5429V41.4363L44.2013 56.6485H52.6272ZM30.5248 28.4102C30.5248 28.4102 34.8009 28.4102 38.5178 28.4102C42.2165 28.4102 45.4642 29.5665 45.4642 33.0714C45.4642 36.5944 43.4254 37.8591 38.5178 37.8591C33.6101 37.8591 30.5248 37.8591 30.5248 37.8591V28.4102Z" fill="#3822E4"/>
<path d="M246.189 54.6974L230.041 46.6396H229.662H213.044H212.665L196.517 54.6974C196.517 54.6974 196.12 55.6188 196.968 56.6305H218.782H223.942H245.756C246.568 55.6188 246.189 54.6974 246.189 54.6974Z" fill="#3822E4"/>
<path d="M195.652 53.6854L210.772 43.839L210.97 43.5138L219.396 29.1689L219.595 28.8437L220.858 10.8312C220.858 10.8312 220.262 10.0182 218.963 10.235L207.903 29.0605L205.287 33.5229L194.227 52.3484C194.66 53.5408 195.652 53.6854 195.652 53.6854Z" fill="#3822E4"/>
<path d="M247.235 53.6854L232.116 43.839L231.917 43.5138L223.491 29.1689L223.293 28.8437L222.03 10.8312C222.03 10.8312 222.625 10.0182 223.924 10.235L234.984 29.0605L237.601 33.5229L248.661 52.3484C248.228 53.5408 247.235 53.6854 247.235 53.6854Z" fill="#3822E4"/>
</svg>
