<svg width="293" height="69" viewBox="0 0 293 69" fill="none" xmlns="http://www.w3.org/2000/svg">
<rect x="0.58728" y="0.986328" width="291.679" height="67.5467" fill="white"/>
<path d="M95.1151 45.7942C95.1151 47.5648 94.664 49.1005 93.7619 50.4013C92.8597 51.7021 91.5968 52.6957 89.9729 53.3822C88.3491 54.0688 86.4906 54.412 84.3977 54.412C83.8203 54.412 83.0987 54.3759 82.2326 54.3037C81.3846 54.2314 80.2479 54.0146 78.8406 53.6713C77.4332 53.328 75.9537 52.8222 74.4381 52.1537V45.198C75.8635 46.0833 77.2708 46.824 78.6601 47.4022C80.0494 47.9803 81.5289 48.2874 83.0986 48.2874C84.5601 48.2874 85.4983 48.0526 85.9314 47.5648C86.3644 47.077 86.5809 46.6253 86.5809 46.2098C86.5809 45.451 86.22 44.8006 85.4803 44.2766C84.7405 43.7527 83.676 43.2107 82.2686 42.6506C80.717 42.0002 79.3458 41.2776 78.173 40.5188C77.0002 39.7419 76.0439 38.7844 75.3042 37.6281C74.5644 36.4718 74.1855 35.0988 74.1855 33.5089C74.1855 31.9913 74.5644 30.6002 75.3042 29.3716C76.062 28.1431 77.1987 27.1494 78.7323 26.4087C80.266 25.668 82.1605 25.3066 84.3797 25.3066C85.9675 25.3066 87.4289 25.4692 88.7641 25.7764C90.0993 26.0835 91.2178 26.4268 92.0839 26.8062C92.9499 27.1856 93.5634 27.4927 93.8882 27.7095V34.358C92.7334 33.527 91.4344 32.7862 90.009 32.1178C88.5837 31.4674 87.068 31.1422 85.4442 31.1422C84.3797 31.1422 83.6039 31.3409 83.1348 31.7564C82.6656 32.172 82.413 32.6778 82.413 33.274C82.413 33.8341 82.6476 34.3219 83.1348 34.7194C83.6039 35.1349 84.4699 35.6227 85.6968 36.2189C87.88 37.2487 89.6301 38.1701 90.9291 38.9831C92.2463 39.7961 93.2567 40.7536 94.0145 41.8196C94.7542 42.8674 95.1151 44.2044 95.1151 45.7942Z" fill="#3822E4"/>
<path d="M129.903 40.1032C129.903 42.7048 129.307 45.0896 128.098 47.2757C126.908 49.4618 125.121 51.1962 122.74 52.4789C120.376 53.7617 117.489 54.4121 114.079 54.4121C110.633 54.4121 107.728 53.7436 105.347 52.4067C102.965 51.0697 101.197 49.2992 100.042 47.1131C98.8876 44.927 98.3102 42.5964 98.3102 40.0852C98.3102 37.5739 98.8876 35.2433 100.042 33.0572C101.197 30.8712 102.965 29.1187 105.347 27.7818C107.747 26.4448 110.651 25.7764 114.097 25.7764C116.659 25.7764 118.969 26.1558 120.972 26.9146C122.992 27.6734 124.652 28.7212 125.951 30.022C127.25 31.3228 128.243 32.8585 128.91 34.5929C129.578 36.3454 129.903 38.1701 129.903 40.1032ZM121.351 40.1032C121.351 39.0554 121.188 38.0978 120.881 37.2306C120.575 36.3634 120.106 35.6227 119.492 34.9723C118.879 34.34 118.103 33.8341 117.219 33.4908C116.317 33.1295 115.288 32.9669 114.097 32.9669C111.842 32.9669 110.074 33.6173 108.793 34.9362C107.512 36.255 106.862 37.9714 106.862 40.1032C106.862 42.2351 107.512 43.9695 108.793 45.2884C110.092 46.6073 111.842 47.2757 114.079 47.2757C115.613 47.2757 116.93 46.9686 118.013 46.3543C119.095 45.74 119.925 44.8909 120.484 43.825C121.08 42.7229 121.351 41.4944 121.351 40.1032Z" fill="#3822E4"/>
<path d="M162.236 40.6091C162.236 43.4636 161.713 45.7581 160.684 47.4925C159.638 49.2269 158.429 50.618 157.022 51.702C155.019 53.2738 152.24 54.0507 148.65 54.0507H148.235H133.638V26.1738H145.204C146.954 26.1738 148.433 26.2642 149.678 26.4448C150.923 26.6255 152.024 26.8784 153.016 27.2036C154.009 27.5288 154.857 27.9082 155.542 28.3057C156.246 28.7212 156.859 29.1548 157.419 29.6246C158.375 30.4014 159.205 31.3228 159.927 32.3707C160.648 33.4366 161.207 34.6652 161.64 36.0563C162.019 37.4655 162.236 38.9831 162.236 40.6091ZM153.702 40.2478C153.702 37.9894 153.269 36.2189 152.403 34.9542C151.537 33.6896 150.508 32.8404 149.281 32.4068C148.072 31.9732 146.828 31.7564 145.583 31.7564H142.01V48.2694H145.583C147.784 48.2694 149.678 47.7454 151.284 46.6976C152.89 45.6678 153.702 43.5178 153.702 40.2478Z" fill="#3822E4"/>
<path d="M174.053 26.1738H165.664V54.0507H174.053V26.1738Z" fill="#3822E4"/>
<path d="M210.444 54.0507H202.054V37.8991L194.476 47.2576H193.809L186.213 37.8991V54.0507H178.058V26.1738H185.672L194.224 36.6344L202.83 26.1738H210.444V54.0507Z" fill="#3822E4"/>
<path d="M246.115 54.0507H237.527L235.254 48.3958H223.165L220.856 54.0507H212.267L224.573 26.1738H233.846L246.115 54.0507ZM233.323 43.554L229.246 33.3824L225.132 43.554H233.323Z" fill="#3822E4"/>
<path d="M271.756 51.9554C270.601 52.5516 269.428 53.0395 268.219 53.4008C267.01 53.7621 265.801 54.0151 264.575 54.1777C263.348 54.3403 262.085 54.4125 260.767 54.4125C258.35 54.4125 256.167 54.0693 254.254 53.4008C252.342 52.7323 250.664 51.7386 249.256 50.4378C247.849 49.137 246.784 47.6014 246.081 45.8489C245.377 44.0965 245.034 42.1814 245.034 40.0857C245.034 37.6828 245.449 35.5871 246.279 33.7804C247.109 31.9737 248.264 30.4742 249.761 29.2818C251.259 28.0894 252.955 27.2041 254.868 26.6441C256.78 26.0659 258.783 25.7949 260.912 25.7949C264.069 25.7949 267.66 26.4995 271.665 27.9087V35.3161C270.294 34.4669 268.923 33.7443 267.57 33.1661C266.216 32.588 264.647 32.317 262.824 32.317C261.201 32.317 259.685 32.6422 258.278 33.2745C256.87 33.9249 255.734 34.8283 254.886 36.0387C254.02 37.2311 253.605 38.6223 253.605 40.2302C253.605 41.6394 253.983 42.9221 254.723 44.0965C255.481 45.2708 256.509 46.1922 257.845 46.8968C259.18 47.5833 260.677 47.9266 262.355 47.9266C263.708 47.9266 264.99 47.764 266.198 47.4388C267.407 47.1136 268.418 46.7523 269.248 46.3367C270.078 45.9393 270.926 45.4515 271.792 44.9095V51.9554H271.756Z" fill="#3822E4"/>
<path d="M276.932 48.6123H278.033C278.52 48.6123 278.899 48.6846 279.133 48.8652C279.386 49.0278 279.512 49.2627 279.512 49.5879C279.512 49.8408 279.422 50.0576 279.296 50.2202C279.151 50.3828 278.953 50.4912 278.7 50.5274L279.494 52.1534H278.881L278.177 50.5996H277.492V52.1534H276.932V48.6123ZM277.473 49.0459V50.2202H278.033C278.358 50.2202 278.592 50.166 278.718 50.0757C278.863 49.9854 278.935 49.8408 278.935 49.6421C278.935 49.4253 278.863 49.2627 278.718 49.1724C278.574 49.082 278.321 49.0459 278.015 49.0459H277.473Z" fill="#3822E4"/>
<path d="M278.069 53.8346C277.618 53.8346 277.203 53.7443 276.77 53.5817C276.355 53.401 275.994 53.1481 275.67 52.8229C275.363 52.4977 275.11 52.1363 274.948 51.7208C274.767 51.3053 274.695 50.8717 274.695 50.42C274.695 50.0406 274.749 49.6793 274.876 49.3179C275.002 48.9566 275.182 48.6314 275.417 48.3243C275.742 47.9087 276.139 47.5835 276.59 47.3667C277.42 46.9512 278.484 46.9151 279.386 47.2764C279.801 47.4571 280.162 47.6919 280.487 48.0352C280.812 48.3423 281.046 48.7217 281.227 49.1192C281.389 49.5347 281.479 49.9683 281.479 50.4019C281.479 50.8536 281.389 51.3053 281.227 51.7208C281.046 52.1363 280.794 52.4977 280.487 52.8048C280.162 53.1119 279.783 53.3649 279.386 53.5455C278.935 53.7623 278.502 53.8346 278.069 53.8346ZM278.069 47.5835C277.618 47.5835 277.203 47.6919 276.824 47.8726C276.445 48.0533 276.103 48.3243 275.832 48.6856C275.633 48.9385 275.489 49.2276 275.381 49.5167C275.273 49.8057 275.237 50.1129 275.237 50.4381C275.237 50.8175 275.309 51.1788 275.435 51.5401C275.579 51.8834 275.796 52.1905 276.067 52.4435C276.337 52.7145 276.662 52.9313 277.005 53.0939C277.69 53.3829 278.448 53.3829 279.17 53.0939C279.531 52.9493 279.837 52.7506 280.108 52.4796C280.397 52.2267 280.595 51.9195 280.739 51.5582C280.884 51.2149 280.956 50.8355 280.956 50.4381C280.956 50.0767 280.884 49.6973 280.739 49.3541C280.595 49.0108 280.397 48.7037 280.126 48.4327C279.855 48.1617 279.549 47.9449 279.188 47.8003C278.827 47.6558 278.448 47.5835 278.069 47.5835Z" fill="#3822E4"/>
<path d="M53.0588 16.2188H42.6302V12.2441H34.6734V16.2188H24.2989L10.8212 31.6477V54.0324H66.4824V31.6658L53.0588 16.2188ZM51.5433 20.1754L61.5207 31.6477H40.6997L30.6861 20.1754H51.5433ZM25.9047 20.1393L35.6838 31.6477H15.8369L25.9047 20.1393ZM36.6581 50.0758H14.7906V35.6585H36.6581V50.0758ZM62.4951 50.0758H40.6275V35.6585H62.4951V50.0758Z" fill="#3822E4"/>
</svg>
