<svg width="234" height="55" viewBox="0 0 234 55" fill="none" xmlns="http://www.w3.org/2000/svg">
<rect x="0.296875" y="0.511963" width="233.14" height="53.9904" fill="white"/>
<path d="M75.8541 36.3269C75.8541 37.7421 75.4936 38.9696 74.7725 40.0093C74.0514 41.049 73.0419 41.8433 71.744 42.392C70.446 42.9408 68.9605 43.2152 67.2876 43.2152C66.8261 43.2152 66.2493 43.1863 65.5571 43.1285C64.8793 43.0708 63.9707 42.8975 62.8458 42.6231C61.7209 42.3487 60.5383 41.9444 59.3269 41.4101V35.8504C60.4662 36.558 61.5911 37.15 62.7015 37.6121C63.812 38.0742 64.9946 38.3197 66.2493 38.3197C67.4175 38.3197 68.1674 38.132 68.5135 37.7421C68.8596 37.3522 69.0327 36.9912 69.0327 36.659C69.0327 36.0525 68.7443 35.5327 68.153 35.1139C67.5617 34.6951 66.7108 34.2619 65.5859 33.8142C64.3456 33.2943 63.2496 32.7167 62.3122 32.1102C61.3748 31.4892 60.6104 30.7239 60.0191 29.7997C59.4278 28.8755 59.125 27.778 59.125 26.5072C59.125 25.2941 59.4278 24.1822 60.0191 23.2002C60.6248 22.2183 61.5334 21.424 62.7593 20.8319C63.9851 20.2399 65.4994 19.951 67.2733 19.951C68.5424 19.951 69.7105 20.081 70.7777 20.3265C71.8449 20.572 72.739 20.8464 73.4313 21.1496C74.1235 21.4529 74.6138 21.6984 74.8734 21.8717V27.1859C73.9505 26.5216 72.9121 25.9295 71.7728 25.3952C70.6335 24.8754 69.4221 24.6154 68.1241 24.6154C67.2732 24.6154 66.6531 24.7743 66.2782 25.1064C65.9032 25.4385 65.7013 25.8429 65.7013 26.3194C65.7013 26.7671 65.8888 27.157 66.2782 27.4747C66.6531 27.8068 67.3454 28.1967 68.326 28.6733C70.0711 29.4964 71.4699 30.2329 72.5083 30.8827C73.561 31.5326 74.3687 32.2979 74.9744 33.1499C75.5657 33.9875 75.8541 35.0561 75.8541 36.3269Z" fill="#ED0600" fill-opacity="0.8"/>
<path d="M103.658 31.7781C103.658 33.8576 103.182 35.7637 102.216 37.5111C101.264 39.2584 99.8365 40.6447 97.9329 41.67C96.0437 42.6953 93.7363 43.2152 91.0106 43.2152C88.2561 43.2152 85.9343 42.6809 84.0307 41.6123C82.127 40.5437 80.7137 39.1285 79.7907 37.3811C78.8678 35.6338 78.4062 33.7709 78.4062 31.7636C78.4062 29.7564 78.8678 27.8935 79.7907 26.1462C80.7137 24.3988 82.127 22.9981 84.0307 21.9295C85.9487 20.8608 88.2705 20.3265 91.0251 20.3265C93.0729 20.3265 94.9188 20.6298 96.5196 21.2363C98.1348 21.8428 99.4616 22.6804 100.5 23.7201C101.538 24.7599 102.332 25.9873 102.865 27.3736C103.399 28.7744 103.658 30.2329 103.658 31.7781ZM96.8225 31.7781C96.8225 30.9405 96.6927 30.1752 96.4475 29.482C96.2024 28.7888 95.8274 28.1968 95.3371 27.6769C94.8467 27.1715 94.2266 26.7671 93.5199 26.4928C92.7989 26.2039 91.9769 26.074 91.0251 26.074C89.2224 26.074 87.8091 26.5938 86.7851 27.648C85.7612 28.7022 85.242 30.0741 85.242 31.7781C85.242 33.4821 85.7612 34.8684 86.7851 35.9226C87.8235 36.9768 89.2224 37.5111 91.0106 37.5111C92.2364 37.5111 93.2892 37.2656 94.1545 36.7746C95.0198 36.2836 95.6832 35.6049 96.1302 34.7529C96.6061 33.872 96.8225 32.89 96.8225 31.7781Z" fill="#ED0600" fill-opacity="0.8"/>
<path d="M129.503 32.1823C129.503 34.4639 129.085 36.2979 128.262 37.6842C127.426 39.0706 126.46 40.1825 125.335 41.0489C123.734 42.3053 121.513 42.9262 118.643 42.9262H118.312H106.645V20.6441H115.889C117.288 20.6441 118.47 20.7163 119.465 20.8607C120.46 21.0051 121.34 21.2073 122.133 21.4672C122.927 21.7272 123.604 22.0304 124.152 22.3481C124.715 22.6803 125.205 23.0268 125.652 23.4023C126.417 24.0232 127.08 24.7597 127.657 25.5973C128.234 26.4493 128.681 27.4313 129.027 28.5432C129.33 29.6696 129.503 30.8826 129.503 32.1823ZM122.681 31.8935C122.681 30.0884 122.335 28.6732 121.643 27.6623C120.951 26.6515 120.129 25.9728 119.148 25.6262C118.182 25.2796 117.187 25.1063 116.192 25.1063H113.336V38.3052H116.192C117.951 38.3052 119.465 37.8864 120.749 37.0488C122.032 36.2257 122.681 34.5073 122.681 31.8935Z" fill="#ED0600" fill-opacity="0.8"/>
<path d="M138.948 20.6441H132.242V42.9262H138.948V20.6441Z" fill="#ED0600" fill-opacity="0.8"/>
<path d="M168.037 42.9262H161.331V30.0162L155.274 37.4965H154.74L148.669 30.0162V42.9262H142.15V20.6441H148.236L155.072 29.0053L161.951 20.6441H168.037V42.9262Z" fill="#ED0600" fill-opacity="0.8"/>
<path d="M196.549 42.9262H189.684L187.867 38.4063H178.205L176.359 42.9262H169.494L179.33 20.6441H186.742L196.549 42.9262ZM186.324 34.5361L183.065 26.406L179.777 34.5361H186.324Z" fill="#ED0600" fill-opacity="0.8"/>
<path d="M217.042 41.2512C216.119 41.7277 215.182 42.1176 214.215 42.4065C213.249 42.6953 212.283 42.8975 211.302 43.0274C210.322 43.1574 209.312 43.2151 208.259 43.2151C206.327 43.2151 204.582 42.9408 203.053 42.4065C201.524 41.8722 200.183 41.0779 199.058 40.0382C197.933 38.9984 197.083 37.771 196.52 36.3702C195.958 34.9695 195.684 33.4387 195.684 31.7636C195.684 29.843 196.015 28.1678 196.679 26.7238C197.342 25.2797 198.265 24.0811 199.462 23.128C200.659 22.1749 202.015 21.4673 203.543 21.0197C205.072 20.5576 206.673 20.3409 208.375 20.3409C210.898 20.3409 213.768 20.9041 216.97 22.0305V27.9512C215.874 27.2725 214.778 26.6949 213.696 26.2328C212.615 25.7707 211.36 25.5541 209.903 25.5541C208.605 25.5541 207.394 25.814 206.269 26.3194C205.144 26.8393 204.236 27.5613 203.558 28.5289C202.866 29.482 202.534 30.5939 202.534 31.8791C202.534 33.0055 202.837 34.0308 203.428 34.9695C204.034 35.9081 204.856 36.6446 205.923 37.2078C206.99 37.7565 208.187 38.0309 209.528 38.0309C210.61 38.0309 211.634 37.9009 212.6 37.641C213.566 37.3811 214.374 37.0923 215.037 36.7601C215.701 36.4424 216.379 36.0525 217.071 35.6193V41.2512H217.042Z" fill="#ED0600" fill-opacity="0.8"/>
<path d="M221.18 38.5795H222.059C222.449 38.5795 222.752 38.6373 222.939 38.7817C223.141 38.9117 223.242 39.0994 223.242 39.3593C223.242 39.5615 223.17 39.7348 223.069 39.8648C222.954 39.9947 222.795 40.0814 222.593 40.1103L223.228 41.4099H222.737L222.175 40.168H221.627V41.4099H221.18V38.5795ZM221.612 38.9261V39.8648H222.059C222.319 39.8648 222.506 39.8214 222.607 39.7492C222.723 39.677 222.78 39.5615 222.78 39.4027C222.78 39.2294 222.723 39.0994 222.607 39.0272C222.492 38.955 222.29 38.9261 222.045 38.9261H221.612Z" fill="#ED0600" fill-opacity="0.8"/>
<path d="M222.089 42.753C221.729 42.753 221.397 42.6808 221.051 42.5508C220.719 42.4064 220.431 42.2042 220.171 41.9443C219.926 41.6844 219.724 41.3956 219.595 41.0634C219.45 40.7313 219.393 40.3847 219.393 40.0237C219.393 39.7204 219.436 39.4316 219.537 39.1428C219.638 38.854 219.782 38.594 219.969 38.3485C220.229 38.0164 220.546 37.7565 220.907 37.5832C221.57 37.251 222.421 37.2222 223.142 37.511C223.474 37.6554 223.762 37.8431 224.022 38.1175C224.282 38.363 224.469 38.6662 224.613 38.9839C224.743 39.3161 224.815 39.6627 224.815 40.0092C224.815 40.3703 224.743 40.7313 224.613 41.0634C224.469 41.3956 224.267 41.6844 224.022 41.9299C223.762 42.1754 223.459 42.3775 223.142 42.5219C222.782 42.6952 222.436 42.753 222.089 42.753ZM222.089 37.7565C221.729 37.7565 221.397 37.8431 221.094 37.9875C220.791 38.1319 220.517 38.3485 220.301 38.6374C220.143 38.8395 220.027 39.0706 219.941 39.3016C219.854 39.5327 219.825 39.7782 219.825 40.0381C219.825 40.3414 219.883 40.6302 219.984 40.919C220.099 41.1934 220.272 41.4389 220.489 41.641C220.705 41.8577 220.964 42.0309 221.238 42.1609C221.787 42.392 222.392 42.392 222.969 42.1609C223.258 42.0454 223.503 41.8865 223.719 41.6699C223.95 41.4678 224.108 41.2223 224.224 40.9334C224.339 40.6591 224.397 40.3558 224.397 40.0381C224.397 39.7493 224.339 39.446 224.224 39.1717C224.108 38.8973 223.95 38.6518 223.733 38.4352C223.517 38.2186 223.272 38.0453 222.984 37.9298C222.695 37.8142 222.392 37.7565 222.089 37.7565Z" fill="#ED0600" fill-opacity="0.8"/>
<path d="M42.2373 12.6874H33.9017V9.51038H27.5418V12.6874H19.2494L8.47656 25.0198V42.9119H52.9669V25.0342L42.2373 12.6874ZM41.026 15.8499L49.001 25.0198H32.3586L24.3547 15.8499H41.026ZM20.5329 15.821L28.3494 25.0198H12.4857L20.5329 15.821ZM29.1282 39.7494H11.6493V28.2256H29.1282V39.7494ZM49.7798 39.7494H32.3009V28.2256H49.7798V39.7494Z" fill="#ED0600" fill-opacity="0.8"/>
</svg>
