<svg width="235" height="98" viewBox="0 0 235 98" fill="none" xmlns="http://www.w3.org/2000/svg">
<path d="M30.2964 82.2343C30.8775 82.75 31.2963 83.3995 31.5528 84.183C31.8173 84.9533 31.8858 85.8101 31.7582 86.7534C31.6176 87.6886 31.2527 88.6393 30.6634 89.6053C29.6918 91.198 28.5502 92.2033 27.2384 92.6212C25.9136 93.0312 24.5879 92.8405 23.2614 92.0492L25.4354 88.4852C25.9338 88.8429 26.4167 88.9763 26.8842 88.8853C27.3517 88.7943 27.7447 88.4877 28.0632 87.9655C28.3499 87.4955 28.4372 87.0293 28.3252 86.5669C28.2212 86.0915 27.9407 85.7144 27.4838 85.4357C27.1574 85.2366 26.8235 85.1673 26.4821 85.2277C26.1277 85.2802 25.7805 85.4088 25.4407 85.6135C25.1089 85.8051 24.6647 86.1074 24.1083 86.5203C23.3542 87.0813 22.7032 87.5172 22.1554 87.8279C21.6025 88.1176 20.985 88.2783 20.3029 88.31C19.6208 88.3417 18.9142 88.1346 18.1831 87.6886C17.8567 87.4896 17.5593 87.2723 17.2909 87.0369C16.3841 86.233 15.9276 85.1754 15.9215 83.864C15.9023 82.5447 16.2989 81.2192 17.1111 79.8876C18.1066 78.2557 19.2232 77.262 20.4611 76.9066C21.6939 76.53 22.9554 76.7084 24.2456 77.4417L22.0477 81.0449C21.6067 80.7401 21.18 80.632 20.7676 80.7208C20.3501 80.7886 19.998 81.0574 19.7113 81.5274C19.4485 81.9582 19.3535 82.3929 19.4264 82.8314C19.4941 83.2489 19.7499 83.593 20.1938 83.8638C20.4941 84.047 20.8109 84.1148 21.1443 84.0675C21.4727 83.999 21.7962 83.865 22.115 83.6654C22.4338 83.4658 22.8675 83.1661 23.4159 82.7662C24.1701 82.2052 24.8236 81.7799 25.3765 81.4902C25.9243 81.1795 26.5432 81.0017 27.2333 80.957C27.9234 80.9122 28.6405 81.1168 29.3846 81.5707C29.711 81.7698 30.0149 81.991 30.2964 82.2343Z" fill="#3822E4"/>
<path d="M31.3764 61.1534L33.4749 63.5264L30.733 66.9728L39.5545 76.9224L37.0981 80.0098L28.2766 70.0603L25.5632 73.4708L23.4647 71.0978L31.3764 61.1534Z" fill="#3822E4"/>
<path d="M49.2068 62.5396L44.8298 66.7577L45.7765 69.9548L42.7869 72.8358L37.9391 55.1447L41.1929 52.009L54.5965 61.4551L51.6069 64.3361L49.2068 62.5396ZM46.7907 60.7267L41.942 57.1167L43.8672 63.544L46.7907 60.7267Z" fill="#3822E4"/>
<path d="M53.7148 42.1931C55.0728 41.2003 56.3185 40.7537 57.4521 40.8532C58.598 40.9436 59.5364 41.4888 60.2675 42.4887C60.4931 42.7973 60.6715 43.0932 60.8026 43.3761C61.3247 44.4531 61.5085 45.5595 61.3539 46.6954C61.1994 47.8313 60.6939 48.9018 59.8374 49.9068L65.8045 53.4436L62.3048 56.0023L56.7273 52.4932L56.0051 53.0212L58.7495 58.6015L55.583 60.9165L48.3078 46.1462L53.7148 42.1931ZM57.679 45.944C57.5773 45.7531 57.4949 45.6145 57.4317 45.5281C56.809 44.6763 55.9729 44.634 54.9236 45.4011L52.9793 46.8226L54.7915 50.5839L56.7544 49.1489C57.9888 48.2464 58.297 47.1781 57.679 45.944Z" fill="#3822E4"/>
<path d="M72.29 31.2996L73.3234 34.2941L69.4733 36.4325L73.8275 48.9964L70.3784 50.9121L66.0242 38.3482L62.2141 40.4643L61.1807 37.4698L72.29 31.2996Z" fill="#3822E4"/>
<path d="M103.464 35.1502L97.5585 36.5924L96.7676 39.8315L92.7343 40.8165L97.4484 23.0894L101.838 22.0173L108.667 36.9255L104.634 37.9105L103.464 35.1502ZM102.288 32.3677L99.915 26.808L98.344 33.3309L102.288 32.3677Z" fill="#3822E4"/>
<path d="M122.158 30.1799L121.355 35.9013L117.435 36.0429L119.692 19.7335L126.042 19.5041C127.723 19.4433 129.005 19.7643 129.887 20.4669C130.785 21.1689 131.257 22.1695 131.304 23.4685C131.315 23.7741 131.29 24.1575 131.231 24.6188C131.084 25.634 130.726 26.5497 130.159 27.3659C129.591 28.1669 128.834 28.814 127.888 29.3072C126.941 29.7852 125.834 30.0471 124.565 30.0929L122.158 30.1799ZM124.589 26.9475C126.148 26.8911 127.032 26.1629 127.242 24.7629C127.264 24.5173 127.273 24.341 127.269 24.234C127.23 23.1642 126.531 22.6539 125.171 22.7031L123.176 22.7751L122.595 27.0195L124.589 26.9475Z" fill="#3822E4"/>
<path d="M142.973 20.4694C144.648 20.6239 145.878 21.1135 146.662 21.9383C147.461 22.7645 147.804 23.7943 147.69 25.0277C147.655 25.4084 147.593 25.7482 147.504 26.0471C147.182 27.2 146.588 28.1511 145.72 28.9003C144.853 29.6496 143.765 30.1175 142.458 30.3041L144.591 36.9047L140.274 36.5066L138.415 30.1846L137.524 30.1025L135.888 36.1021L131.982 35.7419L136.304 19.8543L142.973 20.4694ZM143.463 25.9048C143.513 25.6945 143.543 25.536 143.553 25.4294C143.649 24.3787 143.051 23.7936 141.756 23.6743L139.358 23.4531L138.227 27.4722L140.648 27.6955C142.171 27.8359 143.109 27.239 143.463 25.9048Z" fill="#3822E4"/>
<path d="M159.857 23.4666C161.3 23.8067 162.482 24.3914 163.402 25.2209C164.326 26.0354 164.948 27.0303 165.268 28.2055C165.592 29.3658 165.594 30.6232 165.275 31.9777C165.138 32.5582 164.93 33.1768 164.649 33.8334C164.053 35.2325 163.219 36.403 162.149 37.3449C161.097 38.2755 159.88 38.9078 158.497 39.2419C157.129 39.5796 155.694 39.5714 154.19 39.2173C152.717 38.8701 151.511 38.2876 150.572 37.4695C149.649 36.6549 149.025 35.6675 148.701 34.5072C148.393 33.3505 148.399 32.0874 148.722 30.718C148.859 30.1375 149.071 29.504 149.358 28.8176C149.951 27.4334 150.781 26.2777 151.848 25.3507C152.918 24.4088 154.137 23.769 155.505 23.4314C156.888 23.0972 158.338 23.1089 159.857 23.4666ZM158.73 26.9482C157.524 26.6642 156.397 26.815 155.348 27.4005C154.317 27.9747 153.523 28.911 152.966 30.2094C152.786 30.6384 152.661 31.0018 152.591 31.2995C152.328 32.4158 152.434 33.3676 152.908 34.1549C153.386 34.9274 154.191 35.4468 155.322 35.7133C156.513 35.9938 157.625 35.8395 158.66 35.2504C159.709 34.6649 160.509 33.7378 161.059 32.4692C161.202 32.126 161.322 31.7534 161.416 31.3515C161.679 30.2352 161.572 29.2908 161.094 28.5184C160.634 27.7346 159.846 27.2112 158.73 26.9482Z" fill="#3822E4"/>
<path d="M184.657 32.5248L173.673 39.8408L170.847 44.5221L167.175 43.0789L170.022 38.406L170.524 26.9702L174.708 28.6148L174.128 35.4847L180.515 30.897L184.657 32.5248Z" fill="#3822E4"/>
<path d="M189.05 38.8684L186.923 41.5753L191.717 44.1869L189.838 46.533L185.024 43.9105L182.757 46.7768L188.176 49.7284L186.189 52.2248L177.326 47.3967L187.581 34.5159L196.445 39.3439L194.469 41.8201L189.05 38.8684Z" fill="#3822E4"/>
<path d="M206.391 46.3487C208.063 47.5597 209.051 48.9457 209.355 50.5068C209.66 52.0679 209.294 53.6156 208.258 55.15L204.914 52.728C205.217 52.0225 205.266 51.3304 205.059 50.6517C204.864 49.982 204.407 49.387 203.689 48.8667C202.773 48.2029 201.721 47.9604 200.534 48.1392C199.347 48.318 198.242 48.9053 197.218 49.9012C196.887 50.2279 196.628 50.5213 196.439 50.7813C195.811 51.6483 195.547 52.4954 195.647 53.3227C195.746 54.15 196.186 54.8462 196.966 55.4113C197.672 55.9226 198.435 56.2112 199.256 56.2771C200.089 56.3519 200.895 56.2177 201.672 55.8744L205.035 58.3099C203.364 59.3655 201.58 59.8861 199.683 59.8718C197.795 59.8451 196.022 59.2307 194.362 58.0287C193.247 57.2213 192.445 56.3094 191.954 55.2928C191.463 54.2763 191.289 53.2254 191.433 52.1402C191.586 51.0425 192.039 49.9736 192.793 48.9333C193.161 48.4255 193.558 47.9677 193.986 47.5599C195.151 46.421 196.454 45.5994 197.896 45.0952C199.337 44.5909 200.792 44.4459 202.261 44.6601C203.739 44.8618 205.115 45.4247 206.391 46.3487Z" fill="#3822E4"/>
<path d="M223.181 61.6297L220.635 63.515L217.439 60.485L206.764 68.4122L203.9 65.6979L214.576 57.7706L211.413 54.7722L213.959 52.887L223.181 61.6297Z" fill="#3822E4"/>
</svg>
