<svg width="235" height="98" viewBox="0 0 235 98" fill="none" xmlns="http://www.w3.org/2000/svg">
<path d="M30.2964 82.2344C30.8775 82.7501 31.2963 83.3997 31.5528 84.1831C31.8173 84.9535 31.8858 85.8103 31.7582 86.7535C31.6176 87.6887 31.2527 88.6394 30.6634 89.6055C29.6918 91.1982 28.5502 92.2035 27.2384 92.6214C25.9136 93.0313 24.5879 92.8406 23.2614 92.0494L25.4354 88.4854C25.9338 88.8431 26.4167 88.9764 26.8842 88.8854C27.3517 88.7944 27.7447 88.4878 28.0632 87.9656C28.3499 87.4957 28.4372 87.0295 28.3252 86.5671C28.2212 86.0916 27.9407 85.7145 27.4838 85.4358C27.1574 85.2367 26.8235 85.1674 26.4821 85.2278C26.1277 85.2803 25.7805 85.4089 25.4407 85.6136C25.1089 85.8052 24.6647 86.1075 24.1083 86.5205C23.3542 87.0814 22.7032 87.5173 22.1554 87.828C21.6025 88.1177 20.985 88.2784 20.3029 88.3101C19.6208 88.3418 18.9142 88.1347 18.1831 87.6888C17.8567 87.4897 17.5593 87.2724 17.2909 87.0371C16.3841 86.2331 15.9276 85.1755 15.9215 83.8641C15.9023 82.5448 16.2989 81.2193 17.1111 79.8877C18.1066 78.2558 19.2232 77.2622 20.4611 76.9067C21.6939 76.5302 22.9554 76.7086 24.2456 77.4419L22.0477 81.045C21.6067 80.7402 21.18 80.6322 20.7676 80.7209C20.3501 80.7887 19.998 81.0576 19.7113 81.5275C19.4485 81.9584 19.3535 82.393 19.4264 82.8315C19.4941 83.249 19.7499 83.5932 20.1938 83.8639C20.4941 84.0471 20.8109 84.115 21.1443 84.0676C21.4727 83.9992 21.7962 83.8652 22.115 83.6655C22.4338 83.4659 22.8675 83.1662 23.4159 82.7663C24.1701 82.2053 24.8236 81.78 25.3765 81.4903C25.9243 81.1796 26.5432 81.0019 27.2333 80.9571C27.9234 80.9123 28.6405 81.1169 29.3846 81.5708C29.711 81.7699 30.0149 81.9911 30.2964 82.2344Z" fill="#ED0600"/>
<path d="M31.3767 61.1535L33.4752 63.5265L30.7332 66.973L39.5547 76.9225L37.0983 80.0099L28.2769 70.0604L25.5634 73.471L23.465 71.0979L31.3767 61.1535Z" fill="#ED0600"/>
<path d="M49.2068 62.5398L44.8298 66.7578L45.7765 69.9549L42.7869 72.8359L37.9391 55.1448L41.1929 52.0091L54.5965 61.4552L51.6069 64.3362L49.2068 62.5398ZM46.7907 60.7268L41.942 57.1169L43.8672 63.5441L46.7907 60.7268Z" fill="#ED0600"/>
<path d="M53.7148 42.1932C55.0728 41.2005 56.3185 40.7538 57.4521 40.8533C58.598 40.9437 59.5364 41.4889 60.2675 42.4888C60.4931 42.7975 60.6715 43.0933 60.8026 43.3763C61.3247 44.4532 61.5085 45.5596 61.3539 46.6955C61.1994 47.8315 60.6939 48.9019 59.8374 49.907L65.8045 53.4437L62.3048 56.0024L56.7273 52.4933L56.0051 53.0213L58.7495 58.6017L55.583 60.9167L48.3078 46.1463L53.7148 42.1932ZM57.679 45.9441C57.5773 45.7532 57.4949 45.6146 57.4317 45.5282C56.809 44.6764 55.9729 44.6341 54.9236 45.4012L52.9793 46.8227L54.7915 50.584L56.7544 49.149C57.9888 48.2465 58.297 47.1782 57.679 45.9441Z" fill="#ED0600"/>
<path d="M72.2897 31.2997L73.3232 34.2942L69.473 36.4326L73.8273 48.9966L70.3782 50.9122L66.0239 38.3483L62.2139 40.4644L61.1805 37.4699L72.2897 31.2997Z" fill="#ED0600"/>
<path d="M103.464 35.1503L97.5585 36.5925L96.7676 39.8317L92.7343 40.8167L97.4484 23.0895L101.838 22.0174L108.667 36.9256L104.634 37.9106L103.464 35.1503ZM102.288 32.3678L99.915 26.8081L98.344 33.331L102.288 32.3678Z" fill="#ED0600"/>
<path d="M122.158 30.18L121.355 35.9014L117.435 36.0431L119.692 19.7336L126.042 19.5042C127.723 19.4434 129.004 19.7644 129.887 20.467C130.784 21.1691 131.257 22.1696 131.303 23.4686C131.315 23.7742 131.29 24.1577 131.23 24.6189C131.083 25.6341 130.726 26.5499 130.159 27.3661C129.591 28.167 128.834 28.8141 127.888 29.3073C126.941 29.7853 125.833 30.0472 124.565 30.093L122.158 30.18ZM124.589 26.9476C126.148 26.8913 127.032 26.1631 127.242 24.763C127.263 24.5174 127.272 24.3411 127.268 24.2341C127.23 23.1644 126.53 22.6541 125.17 22.7032L123.176 22.7753L122.595 27.0197L124.589 26.9476Z" fill="#ED0600"/>
<path d="M142.974 20.4695C144.649 20.624 145.878 21.1136 146.662 21.9384C147.461 22.7646 147.804 23.7944 147.69 25.0278C147.655 25.4085 147.593 25.7483 147.504 26.0473C147.183 27.2001 146.588 28.1512 145.721 28.9005C144.853 29.6497 143.765 30.1176 142.458 30.3042L144.591 36.9048L140.274 36.5067L138.415 30.1848L137.524 30.1026L135.888 36.1022L131.982 35.7421L136.304 19.8545L142.974 20.4695ZM143.463 25.905C143.513 25.6946 143.543 25.5361 143.553 25.4295C143.65 24.3788 143.051 23.7938 141.757 23.6744L139.358 23.4532L138.228 27.4723L140.649 27.6956C142.171 27.836 143.11 27.2391 143.463 25.905Z" fill="#ED0600"/>
<path d="M159.857 23.4667C161.3 23.8068 162.482 24.3916 163.402 25.221C164.326 26.0356 164.948 27.0304 165.268 28.2056C165.592 29.3659 165.594 30.6233 165.275 31.9778C165.138 32.5583 164.93 33.1769 164.649 33.8335C164.053 35.2326 163.219 36.4031 162.149 37.345C161.097 38.2756 159.88 38.9079 158.497 39.2421C157.129 39.5797 155.694 39.5715 154.191 39.2174C152.717 38.8703 151.511 38.2877 150.572 37.4696C149.649 36.6551 149.025 35.6676 148.702 34.5074C148.393 33.3506 148.4 32.0875 148.722 30.7181C148.859 30.1376 149.071 29.5041 149.358 28.8177C149.951 27.4335 150.781 26.2779 151.848 25.3508C152.918 24.4089 154.137 23.7691 155.505 23.4315C156.888 23.0973 158.338 23.1091 159.857 23.4667ZM158.73 26.9483C157.525 26.6643 156.397 26.8151 155.348 27.4007C154.317 27.9748 153.523 28.9111 152.966 30.2095C152.786 30.6385 152.662 31.0019 152.591 31.2996C152.328 32.4159 152.434 33.3678 152.909 34.1551C153.386 34.9275 154.191 35.4469 155.322 35.7134C156.513 35.9939 157.626 35.8396 158.66 35.2506C159.709 34.665 160.509 33.7379 161.059 32.4693C161.203 32.1261 161.322 31.7535 161.416 31.3516C161.679 30.2353 161.572 29.2909 161.094 28.5185C160.634 27.7347 159.847 27.2113 158.73 26.9483Z" fill="#ED0600"/>
<path d="M184.657 32.5249L173.673 39.8409L170.847 44.5222L167.175 43.079L170.022 38.4061L170.524 26.9703L174.708 28.6149L174.128 35.4849L180.515 30.8971L184.657 32.5249Z" fill="#ED0600"/>
<path d="M189.05 38.8685L186.923 41.5755L191.717 44.187L189.838 46.5331L185.024 43.9106L182.757 46.7769L188.176 49.7286L186.189 52.2249L177.326 47.3969L187.581 34.516L196.444 39.3441L194.469 41.8202L189.05 38.8685Z" fill="#ED0600"/>
<path d="M206.391 46.3488C208.063 47.5598 209.051 48.9458 209.355 50.5069C209.66 52.068 209.294 53.6157 208.258 55.1502L204.914 52.7281C205.218 52.0226 205.266 51.3305 205.059 50.6518C204.864 49.9821 204.407 49.3871 203.689 48.8668C202.773 48.203 201.721 47.9605 200.534 48.1393C199.347 48.3181 198.242 48.9054 197.219 49.9013C196.888 50.228 196.628 50.5214 196.439 50.7815C195.812 51.6484 195.547 52.4955 195.647 53.3228C195.746 54.1501 196.186 54.8463 196.966 55.4114C197.672 55.9228 198.435 56.2114 199.256 56.2772C200.09 56.3521 200.895 56.2178 201.672 55.8746L205.035 58.31C203.364 59.3656 201.58 59.8862 199.683 59.8719C197.795 59.8452 196.022 59.2308 194.362 58.0288C193.248 57.2214 192.445 56.3095 191.954 55.2929C191.463 54.2764 191.289 53.2255 191.433 52.1403C191.586 51.0427 192.04 49.9737 192.793 48.9334C193.161 48.4256 193.559 47.9678 193.986 47.56C195.151 46.4211 196.454 45.5995 197.896 45.0953C199.337 44.5911 200.792 44.446 202.261 44.6602C203.739 44.862 205.115 45.4248 206.391 46.3488Z" fill="#ED0600"/>
<path d="M223.181 61.6299L220.636 63.5151L217.439 60.4851L206.764 68.4123L203.901 65.698L214.576 57.7708L211.413 54.7723L213.959 52.8871L223.181 61.6299Z" fill="#ED0600"/>
</svg>
