<svg width="249" height="69" viewBox="0 0 249 69" fill="none" xmlns="http://www.w3.org/2000/svg">
<rect x="0.101685" y="0.986328" width="248.694" height="67.5467" fill="white"/>
<path d="M172.46 39.4226L174.896 24.9873L166.993 39.4226H172.46Z" fill="#3822E4"/>
<path d="M203.405 51.9785C203.405 51.6895 203.134 51.6533 202.9 51.6533H202.43V52.3399H202.845C203.134 52.3399 203.405 52.3218 203.405 51.9785Z" fill="#3822E4"/>
<path d="M104.061 21.6084L102.22 21.9697L99.7844 29.1783H101.3C102.978 29.1783 105.955 28.2389 107.056 25.5831C107.308 24.9507 107.416 24.4268 107.416 23.9751C107.416 22.0059 105.305 21.6084 104.061 21.6084Z" fill="#3822E4"/>
<path d="M97.7831 36.7487L95.2932 43.9212H98.2703C100.598 43.9212 102.691 43.054 103.286 40.5427C103.863 37.9953 101.554 36.568 97.7831 36.7487Z" fill="#3822E4"/>
<path d="M201.203 52.4844C201.203 53.4238 201.925 54.1104 202.827 54.1104C203.729 54.1104 204.451 53.4238 204.451 52.4844C204.451 51.563 203.729 50.8584 202.827 50.8584C201.925 50.8584 201.203 51.563 201.203 52.4844ZM203.765 51.9966C203.765 52.394 203.513 52.5747 203.17 52.6108L203.819 53.6045H203.422L202.809 52.6289H202.412V53.6045H202.069V51.3462H202.953C203.494 51.3643 203.765 51.563 203.765 51.9966Z" fill="#3822E4"/>
<path d="M237.667 23.5056L224.315 2.42184C223.918 1.80758 223.197 1.8979 222.962 2.58444L220.256 10.8409C219.895 10.8409 219.516 10.8409 219.119 10.8409C216.936 10.9132 213.688 11.1842 211.108 12.4669C207.77 14.111 205.172 16.2067 201.87 19.6032L200.86 11.69C200.806 11.3468 200.463 11.0396 200.102 11.0396L117.791 11.0035C117.43 11.0035 117.088 11.3106 117.051 11.6539L116.871 13.2257C114.291 11.5274 110.917 10.877 107.832 10.877L61.5522 11.0035C61.2815 11.0035 60.9207 11.2564 60.8485 11.5094L60.0546 13.2799C57.5106 11.9249 53.6495 10.7506 50.7085 10.6422C36.2383 10.0098 30.8074 20.5246 29.779 24.7703C29.1114 27.5164 29.346 31.7982 30.3564 34.3456C30.4105 34.4902 30.4827 34.6528 30.5368 34.8154L10.7981 42.7286C10.3651 42.9092 10.2027 43.379 10.4553 43.7764L24.0234 65.2216C24.4203 65.8358 25.142 65.7455 25.3766 65.059L27.7221 57.9949C29.5986 58.3924 31.5652 58.6092 33.586 58.6092C40.0453 58.6092 46.4685 56.2966 50.6544 52.322C52.4226 56.1521 56.4822 58.6634 63.3925 58.6634C69.2384 58.6634 73.6047 56.929 76.8524 54.5261L76.1307 56.947C75.9502 57.471 76.293 58.2298 76.8343 58.2298H96.6272C100.669 58.2298 107.435 57.0193 112.378 52.864L111.873 57.0554C111.819 57.489 112.162 57.7962 112.613 57.7962L160.931 57.6878C161.13 57.6878 161.491 57.4529 161.599 57.2722L164.883 51.3825H166.11L164.81 56.6038C164.702 57.0916 165.027 57.8865 165.532 57.8865L200.986 58.1936H202.863C205.623 58.1936 207.878 55.6282 207.878 52.9182C207.878 50.2262 205.587 47.8414 202.826 47.8414L202.844 47.6608L203.043 47.0284C203.801 44.8604 206.615 39.0972 208.835 36.2607C210.513 34.1469 212.173 32.2499 213.724 30.7142L213.057 32.81C212.84 33.4965 213.363 33.9662 214.049 33.6952L237.27 24.5716C237.757 24.3909 237.919 23.9031 237.667 23.5056ZM47.7315 33.1894C49.9688 35.7368 51.7369 38.3926 51.7369 41.5542C51.7369 48.9435 43.6177 54.9236 33.586 54.9236C30.5909 54.9236 27.7763 54.3996 25.3044 53.4421L23.8249 57.8865L15.5072 44.752L30.1218 38.8984L28.4799 43.8126C30.2661 44.8966 32.4313 45.2218 34.3799 45.0953C36.13 45.005 38.1688 44.2462 38.7823 42.8008C39.1973 41.8252 38.656 39.7476 37.2848 38.3745C35.697 36.7485 34.5062 34.6528 33.8566 32.9906C33.153 31.1659 32.9184 27.6429 33.4236 25.5472C34.2175 22.259 38.5477 13.7135 50.5461 14.2374C53.1623 14.3458 57.0054 15.6105 58.8999 16.8029L54.4434 25.0594C49.3734 22.1506 46.3241 23.1985 45.1694 25.8904C44.0688 28.5824 45.9813 31.202 47.7315 33.1894ZM63.4106 54.9958C50.7807 54.9958 52.9819 45.7276 54.6238 40.9761L63.4647 15.5382H74.3805L65.8824 39.9824C65.5216 41.0303 64.9983 42.2408 64.9622 43.2706C64.9081 44.3726 65.3231 45.1314 66.8206 45.1314C68.3723 45.1314 69.3647 44.2642 69.9781 43.2164C70.6818 42.1324 71.0967 41.0303 71.4396 40.0547L79.9377 15.5382H90.8535L82.0306 40.9761C80.3887 45.7276 76.0405 54.9958 63.4106 54.9958ZM113.858 42.8731C111.079 50.967 102.184 53.0808 96.6632 53.0808H81.0202L94.4981 13.84H107.868C113.984 13.84 119.235 15.8634 116.727 24.427C115.843 27.4442 112.775 31.184 109.636 32.268C112.559 33.7856 115.464 38.1758 113.858 42.8731ZM133.921 54.779C133.921 54.779 137.746 32.8461 138.306 30.1361L126.578 54.779H115.987L120.498 13.8219H131.251L126.452 38.4106C127.769 35.4838 138.649 13.8219 138.649 13.8219H148.013C148.013 13.8219 144.206 35.3754 143.646 38.248L155.464 13.8219H166.11L144.458 54.779H133.921ZM169.321 54.779L170.837 47.9498H162.681L159.181 54.779H149.041L170.71 13.8219H185.632L180.832 54.779H169.321ZM204.865 52.4846C204.865 53.6228 203.927 54.4358 202.826 54.4358C201.726 54.4358 200.788 53.6047 200.788 52.4846C200.788 51.3644 201.726 50.5334 202.826 50.5334C203.927 50.5334 204.865 51.3644 204.865 52.4846ZM218.524 28.0042L220.057 23.1624C215.637 22.9998 210.296 28.4378 205.894 34.0024C203.368 37.2182 200.373 43.7222 199.525 46.1793C199.29 46.902 196.62 54.779 196.62 54.779H184.477L190.612 36.9472L187.111 13.8219H197.396L199.308 28.492C199.308 28.492 202.339 24.3186 204.071 22.4758C207.499 18.8806 209.845 17.092 212.804 15.6286C216.413 13.84 222.944 14.5446 222.944 14.5446L224.532 9.70271L232.597 22.4397L218.524 28.0042Z" fill="#3822E4"/>
<path d="M107.418 23.9756C107.418 24.4273 107.31 24.9512 107.057 25.5835C107.31 24.9331 107.418 24.4092 107.418 23.9756Z" fill="#3822E4"/>
</svg>
