<svg width="200" height="55" viewBox="0 0 200 55" fill="none" xmlns="http://www.w3.org/2000/svg">
<rect x="0.619141" y="0.511963" width="198.783" height="53.9904" fill="white"/>
<path d="M138.385 31.2335L140.332 19.6953L134.016 31.2335H138.385Z" fill="#ED0600" fill-opacity="0.8"/>
<path d="M163.121 41.2698C163.121 41.0388 162.904 41.0099 162.717 41.0099H162.342V41.5586H162.674C162.904 41.5586 163.121 41.5442 163.121 41.2698Z" fill="#ED0600" fill-opacity="0.8"/>
<path d="M83.7128 16.9949L82.2418 17.2838L80.2949 23.0456H81.5063C82.8475 23.0456 85.2271 22.2947 86.1068 20.1719C86.3087 19.6665 86.3953 19.2477 86.3953 18.8867C86.3953 17.3126 84.7079 16.9949 83.7128 16.9949Z" fill="#ED0600" fill-opacity="0.8"/>
<path d="M78.6953 29.0962L76.7051 34.8292H79.0847C80.945 34.8292 82.618 34.136 83.0939 32.1287C83.5554 30.0926 81.7094 28.9518 78.6953 29.0962Z" fill="#ED0600" fill-opacity="0.8"/>
<path d="M161.359 41.6739C161.359 42.4248 161.936 42.9736 162.657 42.9736C163.378 42.9736 163.955 42.4248 163.955 41.6739C163.955 40.9375 163.378 40.3743 162.657 40.3743C161.936 40.3743 161.359 40.9375 161.359 41.6739ZM163.407 41.284C163.407 41.6017 163.205 41.7461 162.931 41.775L163.451 42.5692H163.133L162.643 41.7895H162.326V42.5692H162.052V40.7642H162.758C163.191 40.7786 163.407 40.9374 163.407 41.284Z" fill="#ED0600" fill-opacity="0.8"/>
<path d="M190.506 18.511L179.834 1.65861C179.517 1.16763 178.94 1.23982 178.752 1.78857L176.589 8.38801C176.301 8.38801 175.998 8.38801 175.681 8.38801C173.936 8.44578 171.34 8.66239 169.277 9.68769C166.609 11.0018 164.533 12.6769 161.894 15.3918L161.086 9.06673C161.043 8.79236 160.769 8.54686 160.48 8.54686L94.6888 8.51799C94.4003 8.51799 94.1263 8.76348 94.0975 9.03785L93.9533 10.2942C91.891 8.93676 89.1941 8.4169 86.728 8.4169L49.7366 8.51799C49.5203 8.51799 49.2318 8.72015 49.1741 8.92233L48.5396 10.3375C46.5061 9.25446 43.4199 8.31581 41.0692 8.22916C29.503 7.72374 25.1621 16.1283 24.3401 19.5219C23.8065 21.7169 23.994 25.1393 24.8016 27.1755C24.8449 27.291 24.9025 27.421 24.9458 27.5509L9.16855 33.876C8.82243 34.0204 8.69264 34.3959 8.89454 34.7136L19.7396 51.8548C20.0569 52.3458 20.6337 52.2736 20.8212 51.7248L22.696 46.0785C24.1959 46.3962 25.7678 46.5695 27.3831 46.5695C32.546 46.5695 37.6801 44.721 41.0259 41.5441C42.4392 44.6055 45.6841 46.6128 51.2076 46.6128C55.8802 46.6128 59.3702 45.2265 61.9661 43.3058L61.3893 45.2409C61.245 45.6597 61.519 46.2662 61.9517 46.2662H77.7722C81.0027 46.2662 86.4108 45.2987 90.3623 41.9773L89.9585 45.3275C89.9152 45.6741 90.1892 45.9196 90.5498 45.9196L129.171 45.833C129.33 45.833 129.618 45.6452 129.704 45.5008L132.329 40.7931H133.31L132.272 44.9665C132.185 45.3564 132.445 45.9918 132.848 45.9918L161.187 46.2373H162.687C164.893 46.2373 166.696 44.1867 166.696 42.0206C166.696 39.8689 164.864 37.9627 162.658 37.9627L162.672 37.8183L162.831 37.3129C163.437 35.58 165.686 30.9734 167.46 28.7062C168.801 27.0166 170.128 25.5003 171.369 24.2729L170.835 25.948C170.662 26.4968 171.08 26.8722 171.628 26.6556L190.189 19.363C190.578 19.2186 190.708 18.8287 190.506 18.511ZM38.6896 26.2513C40.4779 28.2874 41.8912 30.4102 41.8912 32.9373C41.8912 38.8436 35.4015 43.6235 27.3831 43.6235C24.9891 43.6235 22.7393 43.2048 20.7635 42.4394L19.581 45.9918L12.9326 35.4934L24.6141 30.8146L23.3017 34.7424C24.7295 35.6089 26.4601 35.8688 28.0176 35.7677C29.4165 35.6955 31.0462 35.089 31.5365 33.9338C31.8682 33.154 31.4355 31.4933 30.3395 30.3958C29.0704 29.0961 28.1186 27.421 27.5994 26.0924C27.0369 24.6339 26.8495 21.8179 27.2533 20.1428C27.8878 17.5146 31.349 10.6841 40.9394 11.1029C43.0305 11.1895 46.1023 12.2004 47.6166 13.1535L44.0545 19.7529C40.002 17.4279 37.5647 18.2655 36.6417 20.4172C35.762 22.5689 37.2907 24.6628 38.6896 26.2513ZM51.222 43.6813C41.1269 43.6813 42.8863 36.2732 44.1987 32.4752L51.2653 12.1426H59.9904L53.1978 31.681C52.9093 32.5186 52.4911 33.4861 52.4623 34.3092C52.419 35.1901 52.7507 35.7966 53.9477 35.7966C55.188 35.7966 55.9811 35.1035 56.4715 34.2659C57.0339 33.3995 57.3656 32.5186 57.6396 31.7388L64.4322 12.1426H73.1573L66.1051 32.4752C64.7928 36.2732 61.3171 43.6813 51.222 43.6813ZM91.5449 33.9915C89.3239 40.461 82.2141 42.1506 77.8011 42.1506H65.2975L76.0705 10.7852H86.7569C91.6458 10.7852 95.8425 12.4026 93.8379 19.2475C93.1312 21.6591 90.6796 24.6483 88.1702 25.5148C90.5065 26.7278 92.8284 30.2369 91.5449 33.9915ZM107.582 43.508C107.582 43.508 110.639 25.9769 111.086 23.8108L101.712 43.508H93.2466L96.852 10.7707H105.447L101.611 30.4247C102.664 28.0852 111.36 10.7707 111.36 10.7707H118.845C118.845 10.7707 115.802 27.9986 115.355 30.2947L124.801 10.7707H133.31L116.004 43.508H107.582ZM135.877 43.508L137.088 38.0494H130.57L127.772 43.508H119.667L136.987 10.7707H148.914L145.078 43.508H135.877ZM164.288 41.674C164.288 42.5838 163.538 43.2336 162.658 43.2336C161.778 43.2336 161.028 42.5694 161.028 41.674C161.028 40.7787 161.778 40.1144 162.658 40.1144C163.538 40.1144 164.288 40.7787 164.288 41.674ZM175.205 22.1068L176.431 18.2366C172.897 18.1067 168.628 22.4533 165.11 26.9011C163.091 29.4716 160.697 34.6702 160.019 36.6342C159.831 37.2118 157.697 43.508 157.697 43.508H147.991L152.894 29.255L150.097 10.7707H158.317L159.846 22.4967C159.846 22.4967 162.269 19.1608 163.653 17.6879C166.393 14.8142 168.268 13.3845 170.633 12.2148C173.517 10.7852 178.738 11.3484 178.738 11.3484L180.007 7.47825L186.454 17.659L175.205 22.1068Z" fill="#ED0600" fill-opacity="0.8"/>
<path d="M86.3978 18.8866C86.3978 19.2476 86.3113 19.6664 86.1094 20.1718C86.3113 19.652 86.3978 19.2332 86.3978 18.8866Z" fill="#ED0600" fill-opacity="0.8"/>
</svg>
