<svg width="117" height="122" viewBox="0 0 117 122" fill="none" xmlns="http://www.w3.org/2000/svg">
<path d="M71.4489 45.7066L92.7689 47.8099L87.7853 40.8906L88.3381 32.5262L71.4489 45.7066Z" fill="white"/>
<path d="M79.1489 54.0515C77.6107 42.0002 75.9815 29.7885 64.8036 22.7805L65.2845 22.5078L61.1933 15.2942L53.9797 19.3854L55.707 22.4311L50.4171 25.4313C46.3474 18.6292 36.7748 17.0667 30.6306 22.67C27.0082 25.9956 25.6899 30.7687 26.7497 35.2524C22.0556 30.7113 14.263 30.046 8.98974 34.9435C4.49646 38.9749 3.44602 45.7148 6.44622 51.0047C9.99191 57.2566 18.0309 59.477 24.2827 55.9313C26.5269 54.6585 28.2472 52.8354 29.4435 50.462C29.5129 50.2108 29.5823 49.9595 29.7426 49.8686C31.1327 51.1989 32.1112 52.5507 33.0204 54.1537C30.8934 54.5126 27.9433 54.9145 27.271 57.8382C26.9241 59.0943 27.2399 60.3982 27.9456 61.2691C29.1754 62.6903 31.6876 63.3842 34.317 63.1641C34.8888 63.0517 35.7119 63.0086 36.444 62.8053C37.5732 67.0377 38.1522 71.7942 38.8914 76.4597C40.4296 88.511 42.0588 100.723 53.2368 107.731L52.5955 108.094L56.6867 115.308L63.9004 111.217L62.173 108.171L94.2335 89.988L95.9609 93.0337L103.175 88.9425L98.9924 81.5686L93.5421 84.6597C82.3857 78.0633 80.869 66.4235 79.1489 54.0515ZM55.8985 19.7801L60.7076 17.0527L63.435 21.8617L58.626 24.5892L55.8985 19.7801ZM28.915 37.2024C26.2354 31.7305 28.1997 25.108 33.4897 22.1078C38.7797 19.1076 45.4717 20.8207 48.7925 25.9289L28.915 37.2024ZM7.27407 49.4759C4.59448 44.0041 6.55887 37.3815 11.8489 34.3813C17.1388 31.3811 23.8308 33.0943 27.1516 38.2024L7.27407 49.4759ZM49.5892 26.9601C51.1563 30.0968 51.1897 33.8914 49.625 37.1093L42.055 31.2331L49.5892 26.9601ZM27.8238 49.4738L20.2538 43.5976L27.7881 39.3246C29.446 42.6215 29.3885 46.2558 27.8238 49.4738ZM28.8859 60.3121C28.362 59.7619 28.1586 59.0297 28.4362 58.0248C28.5534 57.1109 29.1037 56.5869 29.7449 56.2233C30.5464 55.7687 31.8504 55.4529 33.2452 55.2974L33.4056 55.2065C36.3556 54.8046 39.241 53.1681 41.1001 50.8425L41.2604 50.7516C42.8897 48.7682 44.22 47.3782 46.0695 48.0242C46.8231 48.2323 47.3471 48.7826 47.8017 49.5842C48.2084 51.0484 47.6533 53.0581 46.3445 54.8597C46.1842 54.9506 46.1148 55.2018 45.9545 55.2928C44.9281 54.6037 43.1481 53.7065 41.2244 54.7974C40.4229 55.252 40.033 55.6851 39.5736 56.3693C38.9108 56.3215 37.0135 56.3382 35.8866 58.4604C35.1282 59.738 35.1018 60.8123 35.3052 61.5444C34.8936 61.5659 34.573 61.7477 34.1615 61.7692C31.6924 61.8984 29.6827 61.3433 28.8859 60.3121ZM36.3579 61.1592C36.2455 60.5874 36.2933 59.9246 36.8221 58.9892C37.5112 57.9628 38.2433 57.7594 38.8151 57.647C38.6069 58.4006 38.5591 59.0634 38.5591 59.0634C38.5806 59.4749 38.9228 59.7046 39.3343 59.683C39.7458 59.6615 39.9755 59.3194 39.954 58.9078C39.954 58.9078 39.8463 56.8502 41.6096 55.8502C42.8921 55.1229 44.0788 55.721 44.763 56.1804C42.5834 58.6878 39.6979 60.3242 36.3579 61.1592ZM61.8906 110.662L57.0815 113.389L54.3541 108.58L59.1632 105.853L60.8906 108.898L61.8906 110.662ZM61.2853 106.979L59.558 103.934L54.268 106.934C43.1116 100.337 41.5948 88.6977 40.0351 76.2348C39.4561 71.4784 38.7169 66.8128 37.657 62.3292C39.1213 61.9225 40.3343 61.4463 41.6167 60.719C43.5404 59.628 45.1219 58.3074 46.5216 56.6661C46.5216 56.6661 46.5216 56.6661 46.6819 56.5752C46.9115 56.2331 47.2321 56.0512 47.4618 55.7091C49.1606 53.4745 49.6942 51.0532 49.1056 49.2683C48.6295 48.0553 47.7634 47.2753 46.6676 46.8375C43.7224 45.7536 41.794 48.3303 40.234 50.0625L40.0737 50.1535C38.6046 52.046 36.5207 53.2279 34.164 53.9289C33.073 52.0052 31.6614 50.2634 30.0896 48.6125C30.714 46.3516 30.8361 43.9518 30.3863 41.6645C34.3053 45.586 40.7939 46.567 45.9236 43.6577C48.1678 42.3849 49.8881 40.5619 51.0844 38.1885C52.8789 34.6283 52.9842 30.3313 51.1444 26.7137L56.5947 23.6226L58.3221 26.6684L63.6121 23.6682C74.6776 30.1043 76.2852 41.9044 77.845 54.3673C79.3832 66.4186 81.0124 78.6303 92.1904 85.6383L91.7094 85.911L93.4368 88.9568L61.3763 107.14L61.2853 106.979ZM101.165 88.3874L96.3557 91.1148L93.6283 86.3058L98.4373 83.5783L101.165 88.3874Z" fill="white"/>
</svg>
