<svg width="39" height="48" viewBox="0 0 39 48" fill="none" xmlns="http://www.w3.org/2000/svg">
<path d="M31.347 28.239C34.3096 23.4753 37.2864 18.6277 35.3289 12.8591L35.5806 12.9017L36.2193 9.12581L32.445 8.48737L32.1754 10.0816L29.4076 9.61343C29.934 5.9912 26.9637 2.64054 23.1313 2.85537C20.8655 2.98995 19.0023 4.31465 18.0745 6.22913C17.7184 3.23439 15.1235 0.724013 11.8086 0.940059C9.02534 1.07341 6.68466 3.18045 6.21627 5.94941C5.66273 9.22182 7.89244 12.3609 11.1635 12.9142C12.3377 13.1128 13.4848 12.9616 14.6048 12.4606C14.7029 12.3909 14.8009 12.3212 14.8848 12.3353C14.9945 13.217 14.9506 13.9863 14.8087 14.8254C13.9429 14.3337 12.7699 13.6175 11.677 14.4683C11.1867 14.8169 10.9196 15.3759 10.9183 15.8935C10.9441 16.761 11.6409 17.7419 12.6461 18.4298C12.8835 18.5563 13.1906 18.7808 13.5119 18.9215C12.6822 20.7663 11.5028 22.6382 10.4073 24.5243C7.44473 29.288 4.46792 34.1356 6.42538 39.9042L6.0899 39.8474L5.45119 43.6233L9.22543 44.2617L9.49511 42.6675L26.2695 45.505L25.9999 47.0992L29.7741 47.7376L30.4128 43.9618L27.5612 43.4794C25.4076 37.8503 28.2721 33.1563 31.347 28.239ZM32.9328 9.17405L35.4489 9.59967L35.0231 12.1169L32.507 11.6913L32.9328 9.17405ZM18.281 7.55869C18.9171 4.8181 21.5507 3.01954 24.3185 3.48773C27.0862 3.95591 28.9818 6.5206 28.6811 9.31794L18.281 7.55869ZM6.87435 5.62919C7.51048 2.8886 10.1441 1.09003 12.9118 1.55822C15.6796 2.02641 17.5751 4.5911 17.2745 7.38844L6.87435 5.62919ZM28.5676 9.98919C28.214 11.5693 27.1198 12.9377 25.6217 13.6337L24.6256 9.32238L28.5676 9.98919ZM14.299 11.7184L13.3028 7.40707L17.2448 8.07388C16.8913 9.65394 15.7971 11.0224 14.299 11.7184ZM11.4499 15.8108C11.4228 15.461 11.5635 15.1396 11.9557 14.8607C12.2641 14.5676 12.6138 14.5405 12.9493 14.5972C13.3687 14.6681 13.9274 14.9353 14.4719 15.2863L14.5558 15.3005C15.7287 16.0168 17.2384 16.2721 18.5816 15.9815L18.6655 15.9957C19.8268 15.7606 20.7081 15.6507 21.1817 16.4213C21.3907 16.7156 21.4178 17.0654 21.3468 17.485C21.0655 18.1278 20.281 18.6856 19.2874 18.9491C19.2036 18.9349 19.1055 19.0046 19.0216 18.9904C18.8552 18.4444 18.4797 17.6041 17.4732 17.4339C17.0539 17.3629 16.7881 17.4043 16.4242 17.5153C16.2009 17.305 15.5171 16.7577 14.4951 17.189C13.8512 17.4254 13.5287 17.8023 13.388 18.1238C13.2345 18.0115 13.0667 17.9831 12.9132 17.8708C12.0615 17.2952 11.4202 16.4963 11.4499 15.8108ZM13.9467 18.3909C14.0732 18.1534 14.2835 17.93 14.7454 17.7492C15.2913 17.5826 15.6126 17.7233 15.85 17.8498C15.5558 18.0589 15.3455 18.2823 15.3455 18.2823C15.2332 18.4359 15.2887 18.6179 15.4422 18.7302C15.5958 18.8425 15.7777 18.7869 15.89 18.6333C15.89 18.6333 16.4513 17.8652 17.3739 18.0212C18.0449 18.1347 18.2952 18.6949 18.4061 19.0589C16.9094 19.2373 15.3158 18.9677 13.9467 18.3909ZM8.58412 43.4628L6.06796 43.0371L6.49377 40.5199L9.00993 40.9455L8.74025 42.5398L8.58412 43.4628ZM9.52478 41.982L9.79446 40.3877L7.02668 39.9196C4.95696 34.3046 7.80731 29.6946 10.8822 24.7772C12.0615 22.9053 13.157 21.0192 14.0848 19.1047C14.7274 19.386 15.3003 19.5693 15.9713 19.6828C16.9777 19.853 17.9287 19.8413 18.9081 19.6617C18.9081 19.6617 18.9081 19.6617 18.992 19.6759C19.1739 19.6204 19.3416 19.6487 19.5236 19.5932C20.783 19.2884 21.6797 18.577 21.9894 17.7663C22.1726 17.1931 22.0901 16.6613 21.8255 16.185C21.0875 14.9381 19.6462 15.2985 18.5829 15.4639L18.499 15.4497C17.4216 15.699 16.3313 15.5145 15.2835 15.0784C15.4538 14.0715 15.4564 13.0362 15.3751 11.9867C16.2577 11.3593 17.001 10.5356 17.5068 9.58545C17.7661 12.1323 19.8023 14.3755 22.4862 14.8295C23.6604 15.0281 24.8075 14.8769 25.9275 14.3759C27.6076 13.6244 28.8979 12.1165 29.294 10.2847L32.1457 10.7671L31.876 12.3613L34.6438 12.8295C36.7277 18.3606 33.8632 23.0545 30.7883 27.9718C27.8257 32.7355 24.8489 37.5831 26.8063 43.3517L26.5547 43.3092L26.285 44.9034L9.51059 42.0659L9.52478 41.982ZM29.2167 46.9529L26.7005 46.5273L27.1263 44.01L29.6425 44.4356L29.2167 46.9529Z" fill="#ED0600"/>
</svg>
