<svg width="35" height="25" viewBox="0 0 35 25" fill="none" xmlns="http://www.w3.org/2000/svg">
<path d="M33.6267 2.05925C33.1106 1.71521 32.4225 1.71521 31.9064 2.05925L24.3374 7.21997V3.60747C24.3374 1.71521 22.7892 0.166992 20.8969 0.166992H3.52251C1.63025 0.166992 0.0820312 1.71521 0.0820312 3.60747V20.8098C0.0820312 22.7021 1.63025 24.2503 3.52251 24.2503H20.7249C22.6171 24.2503 24.1654 22.7021 24.1654 20.8098V17.1973L31.7344 22.3581C32.0785 22.5301 32.4225 22.7021 32.7666 22.7021C33.1106 22.7021 33.2826 22.7021 33.6267 22.5301C34.1427 22.186 34.4868 21.67 34.4868 20.9819V3.60747C34.4868 2.91937 34.1427 2.4033 33.6267 2.05925ZM20.7249 20.8098H3.52251V3.60747H20.7249V20.8098ZM31.0463 17.5414L24.1654 12.8968V11.3485L31.0463 6.7039V17.5414Z" fill="#3822E4"/>
</svg>
