<svg width="35" height="25" viewBox="0 0 35 25" fill="none" xmlns="http://www.w3.org/2000/svg">
<path d="M33.6267 2.05895C33.1106 1.7149 32.4225 1.7149 31.9064 2.05895L24.3374 7.21966V3.60716C24.3374 1.7149 22.7892 0.166687 20.8969 0.166687H3.52251C1.63025 0.166687 0.0820312 1.7149 0.0820312 3.60716V20.8095C0.0820312 22.7018 1.63025 24.25 3.52251 24.25H20.7249C22.6171 24.25 24.1654 22.7018 24.1654 20.8095V17.197L31.7344 22.3578C32.0785 22.5298 32.4225 22.7018 32.7666 22.7018C33.1106 22.7018 33.2826 22.7018 33.6267 22.5298C34.1427 22.1857 34.4868 21.6697 34.4868 20.9816V3.60716C34.4868 2.91907 34.1427 2.403 33.6267 2.05895ZM20.7249 20.8095H3.52251V3.60716H20.7249V20.8095ZM31.0463 17.5411L24.1654 12.8964V11.3482L31.0463 6.70359V17.5411Z" fill="#ED0600"/>
</svg>
