<svg width="47" height="33" viewBox="0 0 47 33" fill="none" xmlns="http://www.w3.org/2000/svg">
<path d="M45.2808 3.3666C44.5941 2.90883 43.6786 2.90883 42.9919 3.3666L32.921 10.2331V5.42655C32.921 2.90883 30.8611 0.848877 28.3434 0.848877H5.22611C2.70839 0.848877 0.648438 2.90883 0.648438 5.42655V28.3149C0.648438 30.8326 2.70839 32.8926 5.22611 32.8926H28.1145C30.6322 32.8926 32.6921 30.8326 32.6921 28.3149V23.5084L42.763 30.3749C43.2208 30.6037 43.6786 30.8326 44.1363 30.8326C44.5941 30.8326 44.823 30.8326 45.2808 30.6037C45.9674 30.146 46.4252 29.4593 46.4252 28.5438V5.42655C46.4252 4.51101 45.9674 3.82436 45.2808 3.3666ZM28.1145 28.3149H5.22611V5.42655H28.1145V28.3149ZM41.8475 23.9661L32.6921 17.7863V15.7263L41.8475 9.54646V23.9661Z" fill="white"/>
</svg>
