<svg width="33" height="34" viewBox="0 0 33 34" fill="none" xmlns="http://www.w3.org/2000/svg">
<path d="M30.5321 7.8623C25.5957 -0.000259908 15.5172 -2.33778 7.70122 2.54976C0.0909388 7.4373 -2.37726 18.0624 2.55914 25.9249L2.9705 26.5624L1.32504 32.9375L7.49553 31.2375L8.11259 31.6625C10.7865 33.15 13.666 34 16.5456 34C19.6308 34 22.7161 33.15 25.39 31.45C33.0003 26.3499 35.2628 15.9374 30.5321 7.8623ZM26.2127 24.2249C25.39 25.4999 24.3616 26.3499 22.9218 26.5624C22.099 26.5624 21.0706 26.9874 16.957 25.2874C13.4603 23.5874 10.5808 20.8249 8.52395 17.6374C7.28985 16.1499 6.6728 14.2373 6.46712 12.3248C6.46712 10.6248 7.08417 9.13731 8.11259 8.0748C8.52395 7.6498 8.93532 7.4373 9.34668 7.4373H10.3751C10.7865 7.4373 11.1978 7.4373 11.4035 8.2873C11.8149 9.34981 12.8433 11.8998 12.8433 12.1123C13.049 12.3248 13.049 12.7498 12.8433 12.9623C13.049 13.3873 12.8433 13.8123 12.6376 14.0248C12.4319 14.2374 12.2262 14.6624 12.0206 14.8749C11.6092 15.0874 11.4035 15.5124 11.6092 15.9374C12.4319 17.2124 13.4603 18.4874 14.4888 19.5499C15.7229 20.6124 16.957 21.4624 18.3967 22.0999C18.8081 22.3124 19.2195 22.3124 19.4252 21.8874C19.6308 21.4624 20.6593 20.3999 21.0706 19.9749C21.482 19.5499 21.6877 19.5499 22.099 19.7624L25.39 21.4624C25.8013 21.6749 26.2127 21.8874 26.4184 22.0999C26.6241 22.7374 26.6241 23.5874 26.2127 24.2249Z" fill="white"/>
</svg>
