<svg width="189" height="237" viewBox="0 0 189 237" fill="none" xmlns="http://www.w3.org/2000/svg">
<path d="M155.227 139.861C169.828 116.383 184.499 92.4921 174.852 64.062L176.092 64.2717L179.24 45.6626L160.638 42.5161L159.309 50.3733L145.668 48.0658C148.263 30.2139 133.624 13.7003 114.736 14.7591C103.569 15.4223 94.3864 21.9511 89.814 31.3865C88.0588 16.627 75.27 4.25479 58.9328 5.31956C45.2156 5.97679 33.6797 16.3612 31.3713 30.0079C28.6431 46.1358 39.6322 61.6064 55.7532 64.3334C61.5402 65.3123 67.1937 64.5672 72.7137 62.098C73.197 61.7544 73.6803 61.4107 74.0937 61.4806C74.6342 65.8258 74.418 69.6175 73.7185 73.7528C69.4513 71.3296 63.6707 67.7996 58.2843 71.9928C55.8677 73.7109 54.5513 76.4658 54.545 79.0169C54.6722 83.2921 58.1062 88.1267 63.0602 91.5169C64.2303 92.1402 65.7439 93.247 67.3274 93.9402C63.2383 103.032 57.4258 112.258 52.0268 121.553C37.4257 145.031 22.7546 168.922 32.4018 197.352L30.7484 197.073L27.6006 215.682L46.2018 218.828L47.5309 210.971L130.203 224.955L128.874 232.813L147.475 235.959L150.623 217.35L136.569 214.973C125.955 187.23 140.072 164.096 155.227 139.861ZM163.042 45.9004L175.443 47.998L173.344 60.4041L160.944 58.3065L163.042 45.9004ZM90.8315 37.9392C93.9667 24.4323 106.946 15.5682 120.587 17.8756C134.228 20.1831 143.57 32.823 142.088 46.6095L90.8315 37.9392ZM34.6145 28.4297C37.7497 14.9228 50.7292 6.05871 64.37 8.36615C78.0109 10.6736 87.3529 23.3135 85.8711 37.1001L34.6145 28.4297ZM141.529 49.9178C139.786 57.705 134.393 64.4494 127.01 67.8795L122.101 46.6314L141.529 49.9178ZM71.2065 58.44L66.297 37.1919L85.7249 40.4782C83.9825 48.2655 78.5897 55.0099 71.2065 58.44ZM57.165 78.6094C57.0315 76.8854 57.7246 75.3011 59.6579 73.9266C61.1778 72.4823 62.9012 72.3484 64.5546 72.6281C66.6214 72.9777 69.375 74.2943 72.0587 76.0243L72.4721 76.0942C78.2528 79.6243 85.6932 80.8829 92.3133 79.4505L92.7267 79.5204C98.4501 78.3618 102.794 77.8204 105.127 81.6181C106.158 83.0685 106.291 84.7926 105.942 86.8603C104.555 90.0287 100.689 92.7777 95.7919 94.0762C95.3786 94.0063 94.8953 94.3498 94.4819 94.2799C93.6615 91.5889 91.811 87.4475 86.8507 86.6085C84.7839 86.2588 83.4738 86.4627 81.6804 87.0101C80.5802 85.9732 77.2098 83.2763 72.1732 85.4019C68.9999 86.5665 67.41 88.4244 66.7168 90.0086C65.9601 89.4552 65.1333 89.3155 64.3766 88.7621C60.1794 85.9253 57.0188 81.9877 57.165 78.6094ZM69.4704 91.3252C70.0937 90.1545 71.1302 89.0538 73.4069 88.1628C76.0969 87.3417 77.6804 88.0349 78.8505 88.6582C77.4006 89.6891 76.364 90.7899 76.364 90.7899C75.8108 91.547 76.0842 92.444 76.841 92.9974C77.5977 93.5508 78.4944 93.277 79.0477 92.5199C79.0477 92.5199 81.814 88.7341 86.361 89.5033C89.6679 90.0626 90.9016 92.8235 91.4485 94.6175C84.0716 95.4965 76.2177 94.168 69.4704 91.3252ZM43.0411 214.891L30.6403 212.793L32.7389 200.387L45.1397 202.485L43.8106 210.342L43.0411 214.891ZM47.6771 207.593L49.0062 199.736L35.3653 197.428C25.1648 169.755 39.2126 147.035 54.367 122.8C60.1794 113.574 65.5785 104.279 70.1509 94.8432C73.3179 96.2297 76.1415 97.1327 79.4483 97.6921C84.4087 98.5312 89.0955 98.4732 93.9223 97.5882C93.9223 97.5882 93.9223 97.5882 94.3357 97.6582C95.2323 97.3845 96.059 97.5243 96.9557 97.2506C103.162 95.7483 107.582 92.2422 109.108 88.2467C110.011 85.4218 109.604 82.8008 108.301 80.4534C104.663 74.3083 97.5598 76.0843 92.3197 76.8994L91.9063 76.8294C86.5962 78.058 81.2226 77.1491 76.0588 74.9995C76.8982 70.0371 76.9109 64.9348 76.5102 59.7626C80.8601 56.67 84.523 52.6107 87.0159 47.9279C88.2942 60.4799 98.3293 71.5354 111.557 73.7729C117.344 74.7518 122.997 74.0067 128.517 71.5375C136.797 67.8337 143.156 60.4021 145.109 51.3742L159.163 53.7516L157.834 61.6087L171.475 63.9162C181.745 91.1756 167.628 114.31 152.473 138.544C137.872 162.022 123.201 185.913 132.848 214.343L131.608 214.134L130.279 221.991L47.6071 208.006L47.6771 207.593ZM144.728 232.092L132.327 229.994L134.425 217.588L146.826 219.685L144.728 232.092Z" fill="#3822E4"/>
</svg>
