<svg width="199" height="250" viewBox="0 0 199 250" fill="none" xmlns="http://www.w3.org/2000/svg">
<path d="M163.479 146.972C178.898 122.179 194.391 96.9495 184.204 66.9264L185.513 67.1479L188.837 47.4961L169.194 44.1733L167.791 52.4707L153.385 50.034C156.125 31.1817 140.666 13.743 120.72 14.8611C108.927 15.5614 99.2299 22.456 94.4013 32.4201C92.5478 16.8337 79.0425 3.76819 61.7899 4.89262C47.3041 5.58668 35.1218 16.553 32.6841 30.9643C29.8031 47.9958 41.4078 64.3332 58.4321 67.213C64.5434 68.2467 70.5137 67.4599 76.3429 64.8524C76.8533 64.4895 77.3637 64.1266 77.8002 64.2004C78.3711 68.789 78.1427 72.7932 77.404 77.1602C72.8978 74.6012 66.7932 70.8734 61.105 75.3016C58.553 77.1159 57.1629 80.0252 57.1562 82.7192C57.2905 87.234 60.917 92.3395 66.1485 95.9196C67.3842 96.5779 68.9826 97.7466 70.6548 98.4787C66.3366 108.08 60.1985 117.822 54.4969 127.639C39.0777 152.432 23.5846 177.662 33.7724 207.685L32.0263 207.39L28.7021 227.041L48.3455 230.364L49.7491 222.067L137.053 236.835L135.65 245.132L155.293 248.455L158.617 228.803L143.776 226.293C132.567 196.995 147.476 172.565 163.479 146.972ZM171.733 47.7472L184.828 49.9624L182.612 63.0636L169.516 60.8484L171.733 47.7472ZM95.4759 39.3399C98.7867 25.0763 112.493 15.7155 126.899 18.1522C141.304 20.5889 151.169 33.9371 149.604 48.4961L95.4759 39.3399ZM36.1091 29.2976C39.4199 15.034 53.1266 5.67319 67.5318 8.10991C81.9369 10.5466 91.8023 23.8948 90.2376 38.4538L36.1091 29.2976ZM149.013 51.9897C147.173 60.2133 141.478 67.3355 133.682 70.9579L128.497 48.5192L149.013 51.9897ZM74.7513 60.9894L69.5667 38.5508L90.0832 42.0212C88.2431 50.2448 82.5482 57.3671 74.7513 60.9894ZM59.9231 82.2889C59.782 80.4683 60.514 78.7952 62.5556 77.3438C64.1606 75.8185 65.9806 75.6771 67.7267 75.9725C69.9093 76.3417 72.8172 77.732 75.6512 79.559L76.0877 79.6328C82.1923 83.3607 90.0497 84.6898 97.0407 83.1772L97.4772 83.251C103.521 82.0274 108.108 81.4557 110.573 85.4662C111.661 86.9978 111.802 88.8186 111.432 91.0021C109.968 94.3481 105.885 97.251 100.714 98.6223C100.278 98.5485 99.7673 98.9112 99.3308 98.8374C98.4645 95.9956 96.5102 91.6222 91.272 90.7362C89.0894 90.367 87.7059 90.5822 85.812 91.1603C84.6502 90.0653 81.091 87.2172 75.7721 89.4619C72.421 90.6919 70.7421 92.6538 70.0101 94.3268C69.2109 93.7424 68.3378 93.5948 67.5386 93.0104C63.1063 90.0147 59.7686 85.8564 59.9231 82.2889ZM72.9179 95.7172C73.5761 94.4809 74.6707 93.3185 77.075 92.3776C79.9157 91.5105 81.5879 92.2425 82.8236 92.9008C81.2924 93.9894 80.1978 95.1518 80.1978 95.1518C79.6135 95.9514 79.9023 96.8986 80.7014 97.483C81.5006 98.0674 82.4475 97.7783 83.0318 96.9788C83.0318 96.9788 85.9531 92.9809 90.7549 93.7932C94.247 94.3839 95.5498 97.2995 96.1274 99.194C88.3372 100.122 80.0433 98.7193 72.9179 95.7172ZM45.0078 226.206L31.9121 223.991L34.1283 210.89L47.2239 213.105L45.8204 221.402L45.0078 226.206ZM49.9035 218.499L51.3071 210.202L36.9019 207.765C26.1298 178.542 40.9648 154.548 56.9682 128.955C63.1063 119.213 68.808 109.396 73.6365 99.4323C76.981 100.896 79.9627 101.85 83.4549 102.441C88.6931 103.327 93.6426 103.266 98.7398 102.331C98.7398 102.331 98.7398 102.331 99.1763 102.405C100.123 102.116 100.996 102.264 101.943 101.975C108.498 100.388 113.165 96.6855 114.777 92.4661C115.73 89.483 115.301 86.7152 113.924 84.2363C110.083 77.7468 102.581 79.6223 97.0474 80.483L96.6109 80.4092C91.0033 81.7067 85.3285 80.7468 79.8754 78.4767C80.7619 73.2363 80.7753 67.8481 80.3522 62.3861C84.9457 59.1203 88.8139 54.8335 91.4465 49.8884C92.7964 63.1436 103.394 74.8185 117.362 77.1814C123.474 78.2152 129.444 77.4284 135.273 74.8208C144.017 70.9094 150.733 63.0614 152.794 53.5277L167.636 56.0383L166.233 64.3357L180.638 66.7724C191.484 95.5592 176.575 119.989 160.571 145.582C145.152 170.375 129.659 195.605 139.847 225.628L138.537 225.407L137.134 233.704L49.8296 218.936L49.9035 218.499ZM152.392 244.371L139.296 242.155L141.512 229.054L154.608 231.269L152.392 244.371Z" fill="#ED0600"/>
</svg>
