<svg width="123" height="99" viewBox="0 0 123 99" fill="none" xmlns="http://www.w3.org/2000/svg">
<path d="M103.878 15.8783C94.7913 5.5 83.7913 0 72.05 0C60.4522 0 49.1413 5.64348 40.2457 15.8543C37.6153 18.8674 35.2239 22.0957 33.1435 25.5152C31.0631 22.0957 28.6956 18.8674 26.0652 15.8543C22 11.2152 17.4565 7.60435 12.6261 4.95V1.12391H0V13.75H12.6261V11.3587C15.9022 13.5109 19.0348 16.1891 21.9283 19.513C25.037 23.0761 27.7631 26.9739 30.0587 31.1587C24.4391 42.4456 21.5217 55.5261 21.5217 69.8022C21.5217 87.5217 26.0891 99 33.1674 99C40.2456 99 44.8131 87.5456 44.8131 69.8022C44.8131 55.55 41.8957 42.4696 36.2761 31.1587C38.5718 26.9739 41.2979 23.0761 44.4305 19.513C52.3935 10.3543 61.9587 5.52391 72.0978 5.52391C82.1891 5.52391 91.7783 10.3543 99.7652 19.513C111.148 32.5217 117.174 49.9065 117.174 69.7783C117.174 86.063 109.235 93.4522 101.87 93.4522C94.5044 93.4522 86.5652 86.0391 86.5652 69.7783C86.5652 63.4891 87.2109 57.4152 88.4065 51.6522L96.0109 54.4261L94.6239 26.0413L75.3261 46.9174L83.1696 49.763C81.7826 56.1239 81.0413 62.8435 81.0413 69.7783C81.0413 78.5543 83.1935 85.9913 87.2587 91.2761C91.0131 96.1543 96.3457 98.9522 101.87 98.9522C111.889 98.9522 122.674 89.8174 122.674 69.7543C122.65 48.5674 116.146 29.9152 103.878 15.8783ZM39.2652 69.7783C39.2652 87.6413 34.6978 93.4522 33.1196 93.4522C31.5413 93.4522 26.9739 87.6174 26.9739 69.7783C26.9739 58.037 29.0544 47.1565 33.1196 37.5674C37.1848 47.1804 39.2652 58.037 39.2652 69.7783Z" fill="#ED0600"/>
</svg>
