<svg width="72" height="59" viewBox="0 0 72 59" fill="none" xmlns="http://www.w3.org/2000/svg">
<path d="M60.9844 9.30947C55.6528 3.21751 49.1992 0 42.3099 0C35.4947 0 28.8649 3.31024 23.6353 9.30947C22.0868 11.0712 20.6959 12.9721 19.4627 14.9749C18.2388 12.9721 16.8479 11.0805 15.2994 9.30947C12.9164 6.59266 10.246 4.46001 7.40863 2.91153V0.658339H0V8.06697H7.40863V6.65757C9.32801 7.91861 11.1639 9.49491 12.8701 11.4421C14.6967 13.5284 16.2916 15.8187 17.6361 18.2759C14.3351 24.9056 12.6197 32.5831 12.6197 40.9561C12.6197 51.3597 15.2994 58.0914 19.4534 58.0914C23.6075 58.0914 26.2872 51.369 26.2872 40.9561C26.2872 32.5831 24.5718 24.9056 21.2801 18.2759C22.6339 15.8187 24.2287 13.5284 26.0646 11.4421C30.7379 6.07341 36.357 3.23606 42.3099 3.23606C48.2349 3.23606 53.854 6.07341 58.5551 11.4421C65.2404 19.0826 68.7639 29.2822 68.7639 40.9468C68.7639 50.4974 64.1092 54.8461 59.779 54.8461C55.4488 54.8461 50.7941 50.4974 50.7941 40.9468C50.7941 37.2564 51.1742 33.6958 51.8789 30.3021L56.3482 31.9248L55.5415 15.2623L44.22 27.5204L48.8191 29.1894C48.0031 32.9262 47.5673 36.867 47.5673 40.9375C47.5673 46.093 48.8283 50.451 51.2113 53.5572C53.4182 56.4224 56.5429 58.0636 59.779 58.0636C65.667 58.0636 72 52.7042 72 40.9283C72 28.4847 68.189 17.5526 60.9844 9.30947ZM23.0604 40.9468C23.0604 51.4246 20.3807 54.8461 19.4534 54.8461C18.5262 54.8461 15.8465 51.4246 15.8465 40.9468C15.8465 34.0482 17.0704 27.678 19.4534 22.0404C21.8364 27.678 23.0604 34.0574 23.0604 40.9468Z" fill="white"/>
</svg>
