<svg width="154" height="125" viewBox="0 0 154 125" fill="none" xmlns="http://www.w3.org/2000/svg">
<path d="M130.482 20.7225C119.113 7.73839 105.351 0.857422 90.6621 0.857422C76.1522 0.857422 62.0014 7.9179 50.8721 20.6926C47.5812 24.4621 44.5895 28.501 41.9867 32.7792C39.3839 28.501 36.422 24.4621 33.1311 20.6926C28.0452 14.8886 22.3609 10.3711 16.3176 7.0503V2.26353H0.521301V18.0599H16.3176V15.0681C20.4163 17.7607 24.3355 21.1114 27.9555 25.2699C31.8447 29.7276 35.2553 34.6041 38.1273 39.8396C31.0968 53.9606 27.4468 70.3253 27.4468 88.1859C27.4468 110.355 33.161 124.715 42.0165 124.715C50.8721 124.715 56.5863 110.385 56.5863 88.1859C56.5863 70.3552 52.9364 53.9905 45.9058 39.8396C48.7779 34.6041 52.1885 29.7276 56.1077 25.2699C66.0701 13.8116 78.0369 7.76831 90.7219 7.76831C103.347 7.76831 115.344 13.8116 125.336 25.2699C139.577 41.5449 147.116 63.2948 147.116 88.156C147.116 108.53 137.183 117.774 127.969 117.774C118.754 117.774 108.822 108.5 108.822 88.156C108.822 80.2878 109.63 72.6888 111.125 65.4787L120.639 68.9491L118.904 33.4373L94.7607 59.5551L104.574 63.1153C102.838 71.0733 101.911 79.48 101.911 88.156C101.911 99.1357 104.604 108.44 109.69 115.052C114.387 121.155 121.058 124.655 127.969 124.655C140.504 124.655 153.997 113.227 153.997 88.1261C153.967 61.6194 145.83 38.2839 130.482 20.7225ZM49.6455 88.156C49.6455 110.504 43.9313 117.774 41.9567 117.774C39.9822 117.774 34.268 110.474 34.268 88.156C34.268 73.4666 36.8708 59.8543 41.9567 47.8575C47.0427 59.8842 49.6455 73.4666 49.6455 88.156Z" fill="#3822E4"/>
</svg>
